<svg id="Layer_1" data-name="Layer 1" xmlns="http://www.w3.org/2000/svg" width="169.77637" height="180.44669" viewBox="0 0 169.77637 180.44669"><defs><style>.cls-1{fill:#1226aa;}.cls-2{fill:#1cbfd6;}</style></defs><path class="cls-1" d="M169.77839,57.23552a8.62827,8.62827,0,0,0-2.25635-6.21241L121.7696,2.39677l-.15406-.14917a6.85781,6.85781,0,0,0-.94629-.84106A8.1969,8.1969,0,0,0,113.096.5883L95.04718,6.62309C89.39386,8.51322,84.78156,14.928,84.76276,20.92289v1.09742l-5.18286-5.509-.154-.14941a6.81364,6.81364,0,0,0-.95044-.846,8.19439,8.19439,0,0,0-7.57325-.82L52.848,20.73368c-5.65186,1.88965-10.26172,8.302-10.27857,14.29517v1.37476L37.17633,30.6757l-.18725-.18127-.00293.003a6.45394,6.45394,0,0,0-.79883-.69007,8.20782,8.20782,0,0,0-7.583-.82006L.47272,38.4683l-.17041.05738L.0401,127.27323a8.465,8.465,0,0,0,2.5066,6.44568l41.40161,44.0315-.01636.01574.5918.59876a7.21676,7.21676,0,0,0,5.25683,2.121,10.094,10.094,0,0,0,3.196-.54809l18.04883-6.03467c5.65161-1.89136,10.26342-8.302,10.28149-14.28784l.22852-23.31788,9.19335,9.77271.12061.12085c2.05273,1.95972,5.12427,2.49145,8.3064,1.42908l18.04516-6.03479c5.65454-1.89063,10.26758-8.30445,10.28369-14.29627v-1.30456l5.4524,5.8009.12085.12512.06054.05615a7.26551,7.26551,0,0,0,5.228,2.04371,9.99213,9.99213,0,0,0,3.16211-.53785l28.13672-9.47314.17114-.0603Zm-2.07178-2.64466a7.01734,7.01734,0,0,1,.31567,1.30774Z"/><path class="cls-2" d="M120.83771,1.38273A7.77114,7.77114,0,0,0,113.79279.27287L94.46906,6.57609a14.39528,14.39528,0,0,0-9.95459,13.71777v59.9043a6.02692,6.02692,0,0,0,5.9956,6.02051,6.07516,6.07516,0,0,0,1.89307-.30518l31.502-10.33056.17188-.05664V7.73576A7.76952,7.76952,0,0,0,120.83771,1.38273Z"/><path class="cls-2" d="M36.08381,29.621a7.72527,7.72527,0,0,0-7.07032-1.03808L-.04119,38.50871l-.16895.0581v89.40186a7.93615,7.93615,0,0,0,3.38086,6.5459,7.95186,7.95186,0,0,0,4.62012,1.49072,8.088,8.088,0,0,0,2.67529-.45947l18.481-6.46094a15.545,15.545,0,0,0,10.40527-14.65967V35.97648A7.72678,7.72678,0,0,0,36.08381,29.621Z"/><path class="cls-2" d="M78.53205,15.44816A7.96548,7.96548,0,0,0,71.31037,14.311L53.6839,20.06A16.47712,16.47712,0,0,0,42.29084,35.76066V92.04533A7.55581,7.55581,0,0,0,49.807,99.59367a7.62421,7.62421,0,0,0,2.374-.3833l18.32325-6.00879A16.4521,16.4521,0,0,0,81.85285,77.53605V21.96135A7.96512,7.96512,0,0,0,78.53205,15.44816Z"/></svg>