<svg id="Layer_1" data-name="Layer 1" xmlns="http://www.w3.org/2000/svg" width="169.77637" height="180.44669" viewBox="0 0 169.77637 180.44669"><defs><style>.cls-1{fill:#1226aa;}.cls-2{fill:#f1665c;}</style></defs><path class="cls-1" d="M169.8634,57.23552a8.62822,8.62822,0,0,0-2.25634-6.21241L121.85461,2.39677l-.154-.14917a6.85839,6.85839,0,0,0-.94629-.84106A8.1969,8.1969,0,0,0,113.181.5883L95.1322,6.62309C89.47888,8.51322,84.86658,14.928,84.84778,20.92289v1.09742l-5.18286-5.509-.15406-.14941a6.81307,6.81307,0,0,0-.95044-.846,8.19436,8.19436,0,0,0-7.57324-.82L52.933,20.73368c-5.65185,1.88965-10.26172,8.302-10.27856,14.29517v1.37476L37.26135,30.6757l-.18725-.18127-.00293.003a6.45394,6.45394,0,0,0-.79883-.69007,8.20782,8.20782,0,0,0-7.583-.82006L.55774,38.4683l-.17041.05738L.12512,127.27323a8.465,8.465,0,0,0,2.50659,6.44568l41.40162,44.0315-.01636.01574.59179.59876a7.21678,7.21678,0,0,0,5.25684,2.121,10.094,10.094,0,0,0,3.196-.54809l18.04882-6.03467c5.65161-1.89136,10.26343-8.302,10.2815-14.28784l.22851-23.31788,9.19336,9.77271.12061.12085c2.05273,1.95972,5.12427,2.49145,8.30639,1.42908l18.04517-6.03479c5.65454-1.89063,10.26758-8.30445,10.28369-14.29627v-1.30456l5.45239,5.8009.12085.12512.06055.05615a7.26551,7.26551,0,0,0,5.228,2.04371,9.99213,9.99213,0,0,0,3.16211-.53785l28.13672-9.47314.17114-.0603Zm-2.07177-2.64466a7.01734,7.01734,0,0,1,.31567,1.30774Z"/><path class="cls-2" d="M120.92273,1.38273A7.77115,7.77115,0,0,0,113.87781.27287L94.55408,6.57609a14.39528,14.39528,0,0,0-9.95459,13.71777v59.9043a6.02692,6.02692,0,0,0,5.9956,6.02051,6.07516,6.07516,0,0,0,1.89307-.30518l31.502-10.33056.17188-.05664V7.73576A7.76955,7.76955,0,0,0,120.92273,1.38273Z"/><path class="cls-2" d="M36.16882,29.621a7.72526,7.72526,0,0,0-7.07031-1.03808L.04382,38.50871l-.16894.0581v89.40186a7.93615,7.93615,0,0,0,3.38086,6.5459,7.95183,7.95183,0,0,0,4.62011,1.49072,8.08805,8.08805,0,0,0,2.6753-.45947l18.481-6.46094a15.545,15.545,0,0,0,10.40528-14.65967V35.97648A7.72677,7.72677,0,0,0,36.16882,29.621Z"/><path class="cls-2" d="M78.61707,15.44816A7.96548,7.96548,0,0,0,71.39539,14.311L53.76892,20.06A16.47713,16.47713,0,0,0,42.37585,35.76066V92.04533A7.55581,7.55581,0,0,0,49.892,99.59367a7.62421,7.62421,0,0,0,2.374-.3833l18.32324-6.00879A16.4521,16.4521,0,0,0,81.93787,77.53605V21.96135A7.96512,7.96512,0,0,0,78.61707,15.44816Z"/></svg>