<svg width="171" height="182" viewBox="0 0 171 182" fill="none" xmlns="http://www.w3.org/2000/svg">
<path d="M170 58.4C170.1 56.1 169.3 53.9 167.7 52.2L122 3.50003L121.8 3.40003C121.5 3.10003 121.2 2.80003 120.9 2.60003C118.9 1.10003 116.2 0.800028 113.3 1.80003L95.3002 7.80003C89.6002 9.60003 85.0002 16 85.0002 22V23.1L79.8002 17.6L79.6002 17.5C79.3002 17.2 79.0002 16.9 78.6002 16.7C76.6002 15.2 73.9002 14.9 71.0002 15.9L52.9002 21.9C47.2002 23.8 42.6002 30.2 42.6002 36.2V37.6L37.2002 31.9L37.0002 31.7C36.8002 31.4 36.5002 31.2 36.2002 31C34.2002 29.5 31.5002 29.2 28.6002 30.2L0.700195 39.6L0.500195 39.7L0.200195 128.4C0.200195 131.1 1.1002 133.3 2.7002 134.8L44.1002 178.8L44.7002 179.4C46.1002 180.8 48.0002 181.6 50.0002 181.5C51.1002 181.5 52.2002 181.3 53.2002 181L71.2002 175C76.9002 173.1 81.5002 166.7 81.5002 160.7L81.7002 137.4L90.9002 147.2L91.0002 147.3C93.1002 149.3 96.1002 149.8 99.3002 148.7L117.3 142.7C123 140.8 127.6 134.4 127.6 128.4V127.1L133.1 132.9L133.2 133L133.3 133.1C134.7 134.5 136.6 135.2 138.5 135.1C139.6 135.1 140.6 134.9 141.7 134.6L169.8 125.1L170 125V58.4ZM167.9 55.7C168 56.1 168.2 56.6 168.2 57L167.9 55.7Z" fill="#D50057"/>
<path d="M121 2.49988C118.9 0.999877 116.4 0.599877 114 1.39988L94.7002 7.69988C88.7002 9.59988 84.7002 15.1999 84.7002 21.3999V81.2999C84.7002 83.2999 85.6002 84.9999 87.2002 86.1999C88.2002 86.9999 89.5002 87.2999 90.7002 87.2999C91.3002 87.2999 92.0002 87.1999 92.6002 86.9999L124.1 76.6999L124.3 76.5999V8.89988C124.3 6.29988 123.1 3.99988 121 2.49988Z" fill="white"/>
<path d="M36.3 30.6998C34.2 29.1998 31.6 28.7998 29.2 29.6998L0.2 39.5998L0 39.6998V129.1C0 131.7 1.2 134.1 3.4 135.6C4.8 136.6 6.4 137.1 8 137.1C8.9 137.1 9.8 136.9 10.7 136.6L29.2 130.1C35.4 127.9 39.6 122 39.6 115.4V37.0998C39.6 34.4998 38.4 32.1998 36.3 30.6998Z" fill="white"/>
<path d="M78.7 16.6C76.6 15.1 74 14.7 71.5 15.5L53.9 21.2C47.1 23.4 42.5 29.7 42.5 36.9V93.2C42.5 95.6 43.6 97.9 45.6 99.3C46.9 100.3 48.4 100.7 50 100.7C50.8 100.7 51.6 100.6 52.4 100.3L70.7 94.3C77.5 92.1 82 85.8 82 78.6V23.1C82.1 20.5 80.9 18.1 78.7 16.6Z" fill="white"/>
</svg>
