<svg id="Layer_1" data-name="Layer 1" xmlns="http://www.w3.org/2000/svg" width="530.7418" height="161.86269" viewBox="0 0 530.7418 161.86269"><defs><style>.cls-1{fill:#fff;}</style></defs><g id="Group_503" data-name="Group 503"><path id="Path_870" data-name="Path 870" class="cls-1" d="M194.36331,47.96611l13.67166.09144a.67573.67573,0,0,1,.67021.67937l-.04571,6.62735h.31365a16.3525,16.3525,0,0,1,14.87127-8.243c6.88522.04755,11.34729,3.417,14.02,9.17294h.5212c3.6904-5.712,8.09582-9.02025,15.81856-8.9663,11.47442.07864,17.57693,7.73647,17.49461,19.733l-.2359,34.16814a.67482.67482,0,0,1-.67936.67023h0l-13.98983-.09691a.67481.67481,0,0,1-.6702-.67936v0l.22128-32.08153c.0375-5.424-2.33989-8.57038-7.65968-8.607-5.84188-.04024-8.48079,4.32313-8.52192,10.37351l-.2094,30.20344a.67572.67572,0,0,1-.67936.67023l-13.98525-.09691a.67575.67575,0,0,1-.67021-.67938l.22218-32.08062c.03934-5.63251-2.23564-8.56946-7.45213-8.606-5.94339-.04115-8.47895,4.32223-8.521,10.3735l-.2094,30.20344a.67481.67481,0,0,1-.67935.67023h0L193.994,101.369a.67481.67481,0,0,1-.6702-.67936v0l.36024-52.0614A.6748.6748,0,0,1,194.36331,47.96611Z"/><path id="Path_871" data-name="Path 871" class="cls-1" d="M341.46147,93.21182l6.12628-8.32076a.67114.67114,0,0,1,1.00579-.08137,23.30554,23.30554,0,0,0,14.31809,6.65476c5.31706.45718,9.81211-.8714,10.14947-4.62489.34016-3.962-4.13754-5.03542-11.116-6.64929-8.852-2.25211-18.22152-5.029-18.14289-16.40012.08048-11.68381,9.60634-16.52081,21.70806-16.43669,9.87974.06766,16.32424,3.71781,20.58244,7.47314a.673.673,0,0,1,.107.88145L380.741,63.81942a.67385.67385,0,0,1-1.00578.12434,21.99948,21.99948,0,0,0-12.42261-5.52c-5.52461-.66383-8.97637.56325-9.51677,3.37676-.86224,3.95922,6.22412,5.1543,13.40831,7.08269,8.43413,2.35359,16.55005,5.74773,16.47236,16.70095-.07316,10.74476-8.04643,17.47084-22.34075,17.373A37.69217,37.69217,0,0,1,341.554,94.12705.68308.68308,0,0,1,341.46147,93.21182Z"/><path id="Path_872" data-name="Path 872" class="cls-1" d="M443.30938,65.93893l-.24689,35.728a.67936.67936,0,0,1-.68388.67481h-.001l-12.09981-.08413a.67939.67939,0,0,1-.67478-.68394l.03655-5.26677a25.80251,25.80251,0,0,1-17.26239,6.97479c-10.43114-.07224-17.277-5.7532-17.21389-14.93254.04754-6.8852,3.84035-11.55395,10.11659-14.63995,6.17473-2.87752,14.74236-4.80043,24.56546-7.23723-.171-5.32164-3.07779-7.42833-10.17235-7.47771-6.0275-.04206-9.84225,1.77023-13.49883,6.07415a.68122.68122,0,0,1-.9363.10514L396.95367,58.731a.68394.68394,0,0,1-.12077-.95967l.001-.00132c4.91841-6.22412,11.76061-10.11932,22.81351-10.04342C433.00259,47.81982,443.39806,53.21276,443.30938,65.93893ZM429.71362,85.87216l.0649-9.38875c-5.435,1.52791-10.66151,2.9525-13.90572,4.49413-2.926,1.3359-4.71633,3.20029-4.73553,5.91324-.02378,3.44261,2.46881,5.12959,5.80717,5.04822a17.31543,17.31543,0,0,0,12.76918-6.06408Z"/><path id="Path_873" data-name="Path 873" class="cls-1" d="M455.36617,49.0222l13.9761.096a.68031.68031,0,0,1,.67478.684l-.36119,52.05225a.6794.6794,0,0,1-.68394.67481h0l-13.9761-.09691a.67939.67939,0,0,1-.67478-.68394l.36025-52.05226a.67939.67939,0,0,1,.68482-.67391Zm14.59608-14.586a7.63817,7.63817,0,1,1,0-.00095Z"/><path id="Path_874" data-name="Path 874" class="cls-1" d="M308.43817,60.8587a14.09774,14.09774,0,1,1-14.09866,14.09775A14.09773,14.09773,0,0,1,308.43817,60.8587m0-13.8984A27.9998,27.9998,0,1,0,336.437,74.96105v-.00187A27.99888,27.99888,0,0,0,308.43817,46.9603Z"/><path id="Path_875" data-name="Path 875" class="cls-1" d="M518.14859,83.57985a14.094,14.094,0,1,1,.70955-17.02189.673.673,0,0,0,.91437.20024c3.42158-2.1515,7.1449-4.48863,10.64874-6.68312a.68215.68215,0,0,0,.2167-.94l-.0082-.01276a27.999,27.999,0,1,0-1.20882,32.64936.68485.68485,0,0,0-.13081-.95966l-.01546-.01141L519.06938,83.4509A.67665.67665,0,0,0,518.14859,83.57985Z"/></g><g id="Group_1239" data-name="Group 1239"><g id="Group_1236-3" data-name="Group 1236-3"><g id="Group_1234-3" data-name="Group 1234-3"><g id="Group_1080-3" data-name="Group 1080-3"><circle id="Ellipse_1621-3" data-name="Ellipse 1621-3" class="cls-1" cx="14.54366" cy="34.9217" r="0.46029"/><path id="Path_1363-3" data-name="Path 1363-3" class="cls-1" d="M14.54535,35.60628a.685.685,0,1,1,.68458-.68457A.685.685,0,0,1,14.54535,35.60628Zm0-.92059a.2358.2358,0,1,0,.23517.23642A.23643.23643,0,0,0,14.54535,34.68569Z"/></g><g id="Group_1081-3" data-name="Group 1081-3"><circle id="Ellipse_1622-3" data-name="Ellipse 1622-3" class="cls-1" cx="24.69103" cy="34.9217" r="0.46029"/><path id="Path_1364-3" data-name="Path 1364-3" class="cls-1" d="M24.69145,35.60628a.685.685,0,1,1,.68417-.68457A.685.685,0,0,1,24.69145,35.60628Zm0-.92059a.23642.23642,0,0,0-.23642.23642h0a.2358.2358,0,1,0,.23642-.23642Z"/></g><g id="Group_1082-3" data-name="Group 1082-3"><circle id="Ellipse_1623-3" data-name="Ellipse 1623-3" class="cls-1" cx="44.98703" cy="34.9217" r="0.46029"/><path id="Path_1365-3" data-name="Path 1365-3" class="cls-1" d="M44.98787,35.60628a.685.685,0,1,1,.68458-.68457A.685.685,0,0,1,44.98787,35.60628Zm0-.92059a.2358.2358,0,1,0,.23558.23642A.23643.23643,0,0,0,44.98787,34.68569Z"/></g><g id="Group_1083-3" data-name="Group 1083-3"><circle id="Ellipse_1624-3" data-name="Ellipse 1624-3" class="cls-1" cx="4.39545" cy="45.0879" r="0.46029"/><path id="Path_1366-3" data-name="Path 1366-3" class="cls-1" d="M4.39669,45.77332a.68542.68542,0,1,1,.68542-.68542A.68542.68542,0,0,1,4.39669,45.77332Zm0-.92059a.23643.23643,0,0,0-.00043.47285h.00043a.23643.23643,0,0,0,.23643-.23643h0a.23729.23729,0,0,0-.23518-.23933H4.39669Z"/></g><g id="Group_1084-3" data-name="Group 1084-3"><circle id="Ellipse_1625-3" data-name="Ellipse 1625-3" class="cls-1" cx="14.54366" cy="45.0879" r="0.46029"/><path id="Path_1367-3" data-name="Path 1367-3" class="cls-1" d="M14.54535,45.77332a.68542.68542,0,1,1,.68458-.68542A.68584.68584,0,0,1,14.54535,45.77332Zm0-.92059a.19158.19158,0,1,0,.00084-.00291h-.00084Z"/></g><g id="Group_1085-3" data-name="Group 1085-3"><circle id="Ellipse_1626-3" data-name="Ellipse 1626-3" class="cls-1" cx="24.69103" cy="45.0879" r="0.46029"/><path id="Path_1368-3" data-name="Path 1368-3" class="cls-1" d="M24.69145,45.77332a.68542.68542,0,1,1,.68417-.68542A.68584.68584,0,0,1,24.69145,45.77332Zm0-.92059a.23643.23643,0,0,0,0,.47285h0a.2379.2379,0,0,0,.00084-.47576h-.00084Z"/></g><g id="Group_1086-3" data-name="Group 1086-3"><circle id="Ellipse_1627-3" data-name="Ellipse 1627-3" class="cls-1" cx="44.98703" cy="45.0879" r="0.46029"/><path id="Path_1369-3" data-name="Path 1369-3" class="cls-1" d="M44.98787,45.77332a.68542.68542,0,1,1,.68458-.68542A.68584.68584,0,0,1,44.98787,45.77332Zm0-.92059a.18044.18044,0,1,0,.00125-.00291h-.00125Z"/></g><g id="Group_1087-3" data-name="Group 1087-3"><circle id="Ellipse_1628-3" data-name="Ellipse 1628-3" class="cls-1" cx="4.39545" cy="55.2541" r="0.46029"/><path id="Path_1370-3" data-name="Path 1370-3" class="cls-1" d="M4.39669,55.93868a.68437.68437,0,1,1,.68542-.68416A.68541.68541,0,0,1,4.39669,55.93868Zm0-.92059a.23538.23538,0,0,0-.00084.47076h.00084a.2356.2356,0,0,0,.23643-.23474v-.00044a.23642.23642,0,0,0-.23643-.23474Z"/></g><g id="Group_1088-3" data-name="Group 1088-3"><circle id="Ellipse_1629-3" data-name="Ellipse 1629-3" class="cls-1" cx="14.54366" cy="55.2541" r="0.46029"/><path id="Path_1371-3" data-name="Path 1371-3" class="cls-1" d="M14.54535,55.93868a.68437.68437,0,1,1,.68458-.68416A.6854.6854,0,0,1,14.54535,55.93868Zm0-.92059a.23538.23538,0,1,0,0,.47076h0a.235.235,0,1,0,0-.46992Z"/></g><g id="Group_1089-3" data-name="Group 1089-3"><circle id="Ellipse_1630-3" data-name="Ellipse 1630-3" class="cls-1" cx="24.69103" cy="55.2541" r="0.46029"/><path id="Path_1372-3" data-name="Path 1372-3" class="cls-1" d="M24.69145,55.93868a.68437.68437,0,1,1,.68417-.68416A.6854.6854,0,0,1,24.69145,55.93868Zm0-.92059a.23538.23538,0,1,0-.00043.47076h.00043a.235.235,0,1,0,0-.46992Z"/></g><g id="Group_1090-3" data-name="Group 1090-3"><circle id="Ellipse_1631-3" data-name="Ellipse 1631-3" class="cls-1" cx="44.98703" cy="55.2541" r="0.46029"/><path id="Path_1373-3" data-name="Path 1373-3" class="cls-1" d="M44.98787,55.93868a.68437.68437,0,1,1,.68458-.68416A.6854.6854,0,0,1,44.98787,55.93868Zm0-.92059a.23538.23538,0,1,0,0,.47076h0a.235.235,0,1,0,0-.46992Z"/></g><g id="Group_1091-3" data-name="Group 1091-3"><circle id="Ellipse_1632-3" data-name="Ellipse 1632-3" class="cls-1" cx="4.39545" cy="65.42073" r="0.46029"/><path id="Path_1374-3" data-name="Path 1374-3" class="cls-1" d="M4.39669,66.10531a.685.685,0,1,1,.68542-.68457A.685.685,0,0,1,4.39669,66.10531Zm0-.92059a.23559.23559,0,0,0-.23517.236v.00044a.2358.2358,0,1,0,.23558-.23643Z"/></g><g id="Group_1092-3" data-name="Group 1092-3"><circle id="Ellipse_1633-3" data-name="Ellipse 1633-3" class="cls-1" cx="14.54366" cy="65.42073" r="0.46029"/><path id="Path_1375-3" data-name="Path 1375-3" class="cls-1" d="M14.54535,66.10531a.685.685,0,1,1,.68458-.68457A.685.685,0,0,1,14.54535,66.10531Zm0-.92059a.236.236,0,1,0,.23517.23683A.23643.23643,0,0,0,14.54535,65.18472Z"/></g><g id="Group_1093-3" data-name="Group 1093-3"><circle id="Ellipse_1634-3" data-name="Ellipse 1634-3" class="cls-1" cx="24.69103" cy="65.42073" r="0.46029"/><path id="Path_1376-3" data-name="Path 1376-3" class="cls-1" d="M24.69145,66.10531a.685.685,0,1,1,.68417-.68457A.685.685,0,0,1,24.69145,66.10531Zm0-.92059a.23642.23642,0,0,0-.23642.23643h0a.2358.2358,0,1,0,.23642-.23643Z"/></g><g id="Group_1094-3" data-name="Group 1094-3"><circle id="Ellipse_1635-3" data-name="Ellipse 1635-3" class="cls-1" cx="44.98703" cy="65.42073" r="0.46029"/><path id="Path_1377-3" data-name="Path 1377-3" class="cls-1" d="M44.98787,66.10531a.685.685,0,1,1,.68458-.68457A.685.685,0,0,1,44.98787,66.10531Zm0-.92059a.236.236,0,1,0,.23558.23683A.23643.23643,0,0,0,44.98787,65.18472Z"/></g><g id="Group_1095-3" data-name="Group 1095-3"><circle id="Ellipse_1636-3" data-name="Ellipse 1636-3" class="cls-1" cx="4.39545" cy="75.58651" r="0.46029"/><path id="Path_1378-3" data-name="Path 1378-3" class="cls-1" d="M4.39669,76.27193a.68542.68542,0,1,1,.68542-.68542A.68541.68541,0,0,1,4.39669,76.27193Zm0-.92059a.23643.23643,0,0,0-.00043.47285h.00043a.23643.23643,0,0,0,.23643-.23643h0a.23727.23727,0,0,0-.23643-.23767Z"/></g><g id="Group_1096-3" data-name="Group 1096-3"><circle id="Ellipse_1637-3" data-name="Ellipse 1637-3" class="cls-1" cx="14.54366" cy="75.58651" r="0.46029"/><path id="Path_1379-3" data-name="Path 1379-3" class="cls-1" d="M14.54535,76.27193a.68542.68542,0,1,1,.68458-.68542A.68583.68583,0,0,1,14.54535,76.27193Zm0-.92059a.23705.23705,0,1,0,0-.00125Z"/></g><g id="Group_1097-3" data-name="Group 1097-3"><circle id="Ellipse_1638-3" data-name="Ellipse 1638-3" class="cls-1" cx="24.69103" cy="75.58651" r="0.46029"/><path id="Path_1380-3" data-name="Path 1380-3" class="cls-1" d="M24.69145,76.27193a.68542.68542,0,1,1,.68417-.68542A.68583.68583,0,0,1,24.69145,76.27193Zm0-.92059a.23643.23643,0,0,0,0,.47285h0a.23706.23706,0,0,0,0-.4741Z"/></g><g id="Group_1098-3" data-name="Group 1098-3"><circle id="Ellipse_1639-3" data-name="Ellipse 1639-3" class="cls-1" cx="44.98703" cy="75.58651" r="0.46029"/><path id="Path_1381-3" data-name="Path 1381-3" class="cls-1" d="M44.98787,76.27193a.68542.68542,0,1,1,.68458-.68542A.68583.68583,0,0,1,44.98787,76.27193Zm0-.92059a.237.237,0,1,0,0-.00125Z"/></g><g id="Group_1099-3" data-name="Group 1099-3"><circle id="Ellipse_1640-3" data-name="Ellipse 1640-3" class="cls-1" cx="4.39545" cy="85.75314" r="0.46029"/><path id="Path_1382-3" data-name="Path 1382-3" class="cls-1" d="M4.39669,86.4373a.68458.68458,0,1,1,.68542-.68458A.68542.68542,0,0,1,4.39669,86.4373Zm0-.92059a.23517.23517,0,0,0-.00084.47034h.00084a.23559.23559,0,0,0,.23643-.23474v-.00043a.23644.23644,0,0,0-.23643-.23433Z"/></g><g id="Group_1100-3" data-name="Group 1100-3"><circle id="Ellipse_1641-3" data-name="Ellipse 1641-3" class="cls-1" cx="14.54366" cy="85.75314" r="0.46029"/><path id="Path_1383-3" data-name="Path 1383-3" class="cls-1" d="M14.54535,86.4373a.68458.68458,0,1,1,.68458-.68458A.68541.68541,0,0,1,14.54535,86.4373Zm0-.92059a.23517.23517,0,1,0,0,.47034h0a.23475.23475,0,1,0,0-.4695Z"/></g><g id="Group_1101-3" data-name="Group 1101-3"><circle id="Ellipse_1642-3" data-name="Ellipse 1642-3" class="cls-1" cx="24.69103" cy="85.75314" r="0.46029"/><path id="Path_1384-3" data-name="Path 1384-3" class="cls-1" d="M24.69145,86.4373a.68458.68458,0,1,1,.68417-.68458A.68541.68541,0,0,1,24.69145,86.4373Zm0-.92059a.23517.23517,0,1,0-.00043.47034h.00043a.23475.23475,0,1,0,0-.4695Z"/></g><g id="Group_1102-3" data-name="Group 1102-3"><circle id="Ellipse_1643-3" data-name="Ellipse 1643-3" class="cls-1" cx="44.98703" cy="85.75314" r="0.46029"/><path id="Path_1385-3" data-name="Path 1385-3" class="cls-1" d="M44.98787,86.4373a.68458.68458,0,1,1,.68458-.68458A.68541.68541,0,0,1,44.98787,86.4373Zm0-.92059a.23517.23517,0,1,0,0,.47034h0a.23475.23475,0,1,0,0-.4695Z"/></g><g id="Group_1103-3" data-name="Group 1103-3"><circle id="Ellipse_1644-3" data-name="Ellipse 1644-3" class="cls-1" cx="4.39545" cy="95.91934" r="0.46029"/><path id="Path_1386-3" data-name="Path 1386-3" class="cls-1" d="M4.39669,96.60477a.685.685,0,1,1,.68542-.68457A.685.685,0,0,1,4.39669,96.60477Zm0-.92059a.23559.23559,0,0,0-.23517.236v.00044a.2358.2358,0,1,0,.23517-.23643Z"/></g><g id="Group_1104-3" data-name="Group 1104-3"><circle id="Ellipse_1645-3" data-name="Ellipse 1645-3" class="cls-1" cx="14.54366" cy="95.91934" r="0.46029"/><path id="Path_1387-3" data-name="Path 1387-3" class="cls-1" d="M14.54535,96.60477a.685.685,0,1,1,.68458-.68457A.685.685,0,0,1,14.54535,96.60477Zm0-.92059a.2358.2358,0,1,0,.23517.23643A.23643.23643,0,0,0,14.54535,95.68418Z"/></g><g id="Group_1105-3" data-name="Group 1105-3"><circle id="Ellipse_1646-3" data-name="Ellipse 1646-3" class="cls-1" cx="24.69103" cy="95.91934" r="0.46029"/><path id="Path_1388-3" data-name="Path 1388-3" class="cls-1" d="M24.69145,96.60477a.685.685,0,1,1,.68417-.68457A.685.685,0,0,1,24.69145,96.60477Zm0-.92059a.23642.23642,0,0,0-.23642.23643h0a.2358.2358,0,1,0,.23642-.23643Z"/></g><g id="Group_1106-3" data-name="Group 1106-3"><circle id="Ellipse_1647-3" data-name="Ellipse 1647-3" class="cls-1" cx="44.98703" cy="95.91934" r="0.46029"/><path id="Path_1389-3" data-name="Path 1389-3" class="cls-1" d="M44.98787,96.60477a.685.685,0,1,1,.68458-.68457A.685.685,0,0,1,44.98787,96.60477Zm0-.92059a.2358.2358,0,1,0,.23558.23643A.23643.23643,0,0,0,44.98787,95.68418Z"/></g><g id="Group_1107-3" data-name="Group 1107-3"><circle id="Ellipse_1648-3" data-name="Ellipse 1648-3" class="cls-1" cx="4.39545" cy="106.08555" r="0.46029"/><path id="Path_1390-3" data-name="Path 1390-3" class="cls-1" d="M4.39669,106.77055a.68542.68542,0,1,1,.68542-.68542A.68542.68542,0,0,1,4.39669,106.77055Zm0-.92059a.23622.23622,0,0,0,0,.47244h0a.23685.23685,0,0,0,0-.47369Z"/></g><g id="Group_1108-3" data-name="Group 1108-3"><circle id="Ellipse_1649-3" data-name="Ellipse 1649-3" class="cls-1" cx="14.54366" cy="106.08555" r="0.46029"/><path id="Path_1391-3" data-name="Path 1391-3" class="cls-1" d="M14.54535,106.77055a.68542.68542,0,1,1,.68458-.68542A.68584.68584,0,0,1,14.54535,106.77055Zm0-.92059a.23705.23705,0,1,0,0-.00125Z"/></g><g id="Group_1109-3" data-name="Group 1109-3"><circle id="Ellipse_1650-3" data-name="Ellipse 1650-3" class="cls-1" cx="24.69103" cy="106.08555" r="0.46029"/><path id="Path_1392-3" data-name="Path 1392-3" class="cls-1" d="M24.69145,106.77055a.68542.68542,0,1,1,.68417-.68542A.68584.68584,0,0,1,24.69145,106.77055Zm0-.92059a.23705.23705,0,1,0,0-.00125Z"/></g><g id="Group_1110-3" data-name="Group 1110-3"><circle id="Ellipse_1651-3" data-name="Ellipse 1651-3" class="cls-1" cx="44.98703" cy="106.08555" r="0.46029"/><path id="Path_1393-3" data-name="Path 1393-3" class="cls-1" d="M44.98787,106.77055a.68542.68542,0,1,1,.68458-.68542A.68584.68584,0,0,1,44.98787,106.77055Zm0-.92059a.237.237,0,1,0,0-.00125Z"/></g><g id="Group_1111-3" data-name="Group 1111-3"><circle id="Ellipse_1652-3" data-name="Ellipse 1652-3" class="cls-1" cx="4.39545" cy="116.25176" r="0.46029"/><path id="Path_1394-3" data-name="Path 1394-3" class="cls-1" d="M4.39669,116.93592a.68438.68438,0,1,1,.68542-.68417A.68541.68541,0,0,1,4.39669,116.93592Zm0-.92059a.23538.23538,0,0,0-.00084.47075h.00084a.2356.2356,0,0,0,.23643-.23474v-.00043a.23642.23642,0,0,0-.23643-.23474Z"/></g><g id="Group_1112-3" data-name="Group 1112-3"><circle id="Ellipse_1653-3" data-name="Ellipse 1653-3" class="cls-1" cx="14.54366" cy="116.25176" r="0.46029"/><path id="Path_1395-3" data-name="Path 1395-3" class="cls-1" d="M14.54535,116.93592a.68438.68438,0,1,1,.68458-.68417A.68541.68541,0,0,1,14.54535,116.93592Zm0-.92059a.23538.23538,0,1,0,0,.47075h0a.235.235,0,1,0,0-.46991Z"/></g><g id="Group_1113-3" data-name="Group 1113-3"><circle id="Ellipse_1654-3" data-name="Ellipse 1654-3" class="cls-1" cx="34.83924" cy="116.25176" r="0.46029"/><path id="Path_1396-3" data-name="Path 1396-3" class="cls-1" d="M34.83883,116.93592a.68438.68438,0,1,1,.68457-.68417A.68541.68541,0,0,1,34.83883,116.93592Zm0-.92059a.23538.23538,0,0,0-.00085.47075h.00085a.23476.23476,0,0,0,.23517-.23433v-.00084a.23559.23559,0,0,0-.23517-.23474Z"/></g><g id="Group_1114-3" data-name="Group 1114-3"><circle id="Ellipse_1655-3" data-name="Ellipse 1655-3" class="cls-1" cx="44.98703" cy="116.25176" r="0.46029"/><path id="Path_1397-3" data-name="Path 1397-3" class="cls-1" d="M44.98787,116.93592a.68438.68438,0,1,1,.68458-.68417A.68541.68541,0,0,1,44.98787,116.93592Zm0-.92059a.23538.23538,0,1,0,0,.47075h0a.235.235,0,1,0,0-.46991Z"/></g><g id="Group_1115-3" data-name="Group 1115-3"><circle id="Ellipse_1656-3" data-name="Ellipse 1656-3" class="cls-1" cx="14.54366" cy="126.41795" r="0.46029"/><path id="Path_1398-3" data-name="Path 1398-3" class="cls-1" d="M14.54535,127.10379a.68542.68542,0,1,1,.68458-.68542A.68584.68584,0,0,1,14.54535,127.10379Zm0-.92059a.23664.23664,0,1,0,0-.00125Z"/></g><g id="Group_1116-3" data-name="Group 1116-3"><circle id="Ellipse_1657-3" data-name="Ellipse 1657-3" class="cls-1" cx="24.69103" cy="126.41795" r="0.46029"/><path id="Path_1399-3" data-name="Path 1399-3" class="cls-1" d="M24.69145,127.10379a.68542.68542,0,1,1,.68417-.68542A.68584.68584,0,0,1,24.69145,127.10379Zm0-.92059a.23664.23664,0,1,0,0-.00125Z"/></g><g id="Group_1117-3" data-name="Group 1117-3"><circle id="Ellipse_1658-3" data-name="Ellipse 1658-3" class="cls-1" cx="34.83924" cy="126.41795" r="0.46029"/><path id="Path_1400-3" data-name="Path 1400-3" class="cls-1" d="M34.83883,127.10379a.68542.68542,0,1,1,.68457-.68542A.68541.68541,0,0,1,34.83883,127.10379Zm0-.92059a.2356.2356,0,0,0-.23518.236v0a.23518.23518,0,1,0,.23645-.23726h-.00127Z"/></g><g id="Group_1118-3" data-name="Group 1118-3"><circle id="Ellipse_1659-3" data-name="Ellipse 1659-3" class="cls-1" cx="44.98703" cy="126.41795" r="0.46029"/><path id="Path_1401-3" data-name="Path 1401-3" class="cls-1" d="M44.98787,127.10379a.68542.68542,0,1,1,.68458-.68542A.68584.68584,0,0,1,44.98787,127.10379Zm0-.92059a.23664.23664,0,1,0,0-.00125h0Z"/></g><g id="Group_1119-3" data-name="Group 1119-3"><circle id="Ellipse_1660-3" data-name="Ellipse 1660-3" class="cls-1" cx="24.69103" cy="136.58416" r="0.46029"/><path id="Path_1402-3" data-name="Path 1402-3" class="cls-1" d="M24.69145,137.26917a.6848.6848,0,1,1,.68417-.68542A.68584.68584,0,0,1,24.69145,137.26917Zm0-.92059a.2358.2358,0,1,0,0,.47159h0a.2358.2358,0,0,0,0-.47159Z"/></g><g id="Group_1120-3" data-name="Group 1120-3"><circle id="Ellipse_1661-3" data-name="Ellipse 1661-3" class="cls-1" cx="34.83924" cy="136.58416" r="0.46029"/><path id="Path_1403-3" data-name="Path 1403-3" class="cls-1" d="M34.83883,137.26917a.6848.6848,0,1,1,.68457-.68583v.00041A.685.685,0,0,1,34.83883,137.26917Zm0-.92059a.2358.2358,0,0,0-.00044.47159h.00044a.23558.23558,0,0,0,.23517-.236v-.00043A.23558.23558,0,0,0,34.83883,136.34858Z"/></g><g id="Group_1121-3" data-name="Group 1121-3"><circle id="Ellipse_1662-3" data-name="Ellipse 1662-3" class="cls-1" cx="44.98703" cy="136.58416" r="0.46029"/><path id="Path_1404-3" data-name="Path 1404-3" class="cls-1" d="M44.98787,137.26917a.6848.6848,0,1,1,.68458-.68542A.68584.68584,0,0,1,44.98787,137.26917Zm0-.92059a.2358.2358,0,1,0,.23558.23517A.23643.23643,0,0,0,44.98787,136.34858Z"/></g><g id="Group_1122-3" data-name="Group 1122-3"><circle id="Ellipse_1663-3" data-name="Ellipse 1663-3" class="cls-1" cx="55.13525" cy="34.9217" r="0.46029"/><path id="Path_1405-3" data-name="Path 1405-3" class="cls-1" d="M55.13566,35.60628a.685.685,0,1,1,.68417-.68457A.6854.6854,0,0,1,55.13566,35.60628Zm0-.92059a.23642.23642,0,0,0-.23642.23642h0a.2358.2358,0,1,0,.23642-.23642Z"/></g><g id="Group_1123-3" data-name="Group 1123-3"><circle id="Ellipse_1664-3" data-name="Ellipse 1664-3" class="cls-1" cx="44.98703" cy="24.75549" r="0.46029"/><path id="Path_1406-3" data-name="Path 1406-3" class="cls-1" d="M44.98787,25.44007a.68458.68458,0,1,1,.68458-.68458A.68541.68541,0,0,1,44.98787,25.44007Zm0-.92059a.23517.23517,0,1,0,0,.47034h0a.23475.23475,0,1,0,0-.4695Z"/></g><g id="Group_1124-3" data-name="Group 1124-3"><circle id="Ellipse_1665-3" data-name="Ellipse 1665-3" class="cls-1" cx="55.13525" cy="24.75549" r="0.46029"/><path id="Path_1407-3" data-name="Path 1407-3" class="cls-1" d="M55.13566,25.44007a.68458.68458,0,1,1,.68417-.68458A.68626.68626,0,0,1,55.13566,25.44007Zm0-.92059a.23517.23517,0,1,0-.00043.47034h.00043a.23475.23475,0,1,0,0-.4695Z"/></g><g id="Group_1125-3" data-name="Group 1125-3"><circle id="Ellipse_1666-3" data-name="Ellipse 1666-3" class="cls-1" cx="55.13525" cy="45.0879" r="0.46029"/><path id="Path_1408-3" data-name="Path 1408-3" class="cls-1" d="M55.13566,45.77332a.68542.68542,0,1,1,.68417-.68542A.68625.68625,0,0,1,55.13566,45.77332Zm0-.92059a.23643.23643,0,0,0,0,.47285h0a.2379.2379,0,0,0,.00085-.47576h-.00085Z"/></g><g id="Group_1126-3" data-name="Group 1126-3"><circle id="Ellipse_1667-3" data-name="Ellipse 1667-3" class="cls-1" cx="55.13525" cy="55.2541" r="0.46029"/><path id="Path_1409-3" data-name="Path 1409-3" class="cls-1" d="M55.13566,55.93868a.68437.68437,0,1,1,.68417-.68416A.68625.68625,0,0,1,55.13566,55.93868Zm0-.92059a.23538.23538,0,1,0-.00043.47076h.00043a.235.235,0,1,0,0-.46992Z"/></g><g id="Group_1127-3" data-name="Group 1127-3"><circle id="Ellipse_1668-3" data-name="Ellipse 1668-3" class="cls-1" cx="55.13525" cy="65.42073" r="0.46029"/><path id="Path_1410-3" data-name="Path 1410-3" class="cls-1" d="M55.13566,66.10531a.685.685,0,1,1,.68417-.68457A.6854.6854,0,0,1,55.13566,66.10531Zm0-.92059a.23642.23642,0,0,0-.23642.23643h0a.2358.2358,0,1,0,.23642-.23643Z"/></g><g id="Group_1128-3" data-name="Group 1128-3"><circle id="Ellipse_1669-3" data-name="Ellipse 1669-3" class="cls-1" cx="55.13525" cy="75.58651" r="0.46029"/><path id="Path_1411-3" data-name="Path 1411-3" class="cls-1" d="M55.13566,76.27193a.68542.68542,0,1,1,.68417-.68542A.68625.68625,0,0,1,55.13566,76.27193Zm0-.92059a.23643.23643,0,0,0,0,.47285h0a.23706.23706,0,0,0,0-.4741Z"/></g><g id="Group_1129-3" data-name="Group 1129-3"><circle id="Ellipse_1670-3" data-name="Ellipse 1670-3" class="cls-1" cx="55.13525" cy="85.75314" r="0.46029"/><path id="Path_1412-3" data-name="Path 1412-3" class="cls-1" d="M55.13566,86.4373a.68458.68458,0,1,1,.68417-.68458A.68626.68626,0,0,1,55.13566,86.4373Zm0-.92059a.23517.23517,0,1,0-.00043.47034h.00043a.23475.23475,0,1,0,0-.4695Z"/></g><g id="Group_1130-3" data-name="Group 1130-3"><circle id="Ellipse_1671-3" data-name="Ellipse 1671-3" class="cls-1" cx="55.13525" cy="95.91934" r="0.46029"/><path id="Path_1413-3" data-name="Path 1413-3" class="cls-1" d="M55.13566,96.60477a.685.685,0,1,1,.68417-.68457A.6854.6854,0,0,1,55.13566,96.60477Zm0-.92059a.23642.23642,0,0,0-.23642.23643h0a.2358.2358,0,1,0,.23642-.23643Z"/></g><g id="Group_1131-3" data-name="Group 1131-3"><circle id="Ellipse_1672-3" data-name="Ellipse 1672-3" class="cls-1" cx="55.13525" cy="106.08555" r="0.46029"/><path id="Path_1414-3" data-name="Path 1414-3" class="cls-1" d="M55.13566,106.77055a.68542.68542,0,1,1,.68417-.68542A.68625.68625,0,0,1,55.13566,106.77055Zm0-.92059a.23705.23705,0,1,0,0-.00125Z"/></g><g id="Group_1132-3" data-name="Group 1132-3"><circle id="Ellipse_1673-3" data-name="Ellipse 1673-3" class="cls-1" cx="55.13525" cy="116.25176" r="0.46029"/><path id="Path_1415-3" data-name="Path 1415-3" class="cls-1" d="M55.13566,116.93592a.68438.68438,0,1,1,.68417-.68417A.68625.68625,0,0,1,55.13566,116.93592Zm0-.92059a.23538.23538,0,1,0-.00043.47075h.00043a.235.235,0,1,0,0-.46991Z"/></g><g id="Group_1133-3" data-name="Group 1133-3"><circle id="Ellipse_1674-3" data-name="Ellipse 1674-3" class="cls-1" cx="55.13525" cy="126.41795" r="0.46029"/><path id="Path_1416-3" data-name="Path 1416-3" class="cls-1" d="M55.13566,127.10379a.68542.68542,0,1,1,.68417-.68542A.68625.68625,0,0,1,55.13566,127.10379Zm0-.92059a.23664.23664,0,1,0,0-.00125Z"/></g><g id="Group_1134-3" data-name="Group 1134-3"><circle id="Ellipse_1675-3" data-name="Ellipse 1675-3" class="cls-1" cx="55.13525" cy="136.58416" r="0.46029"/><path id="Path_1417-3" data-name="Path 1417-3" class="cls-1" d="M55.13566,137.26917a.6848.6848,0,1,1,.68417-.68542A.68625.68625,0,0,1,55.13566,137.26917Zm0-.92059a.2358.2358,0,1,0,0,.47159h0a.2358.2358,0,0,0,0-.47159Z"/></g><g id="Group_1135-3" data-name="Group 1135-3"><circle id="Ellipse_1676-3" data-name="Ellipse 1676-3" class="cls-1" cx="34.83924" cy="146.34447" r="0.46029"/><path id="Path_1418-3" data-name="Path 1418-3" class="cls-1" d="M34.83883,147.02905a.68437.68437,0,1,1,.68457-.68542A.68541.68541,0,0,1,34.83883,147.02905Zm0-.92059a.23477.23477,0,0,0-.23518.23433h0a.23559.23559,0,0,0,.23474.23642h.00044a.23559.23559,0,0,0,.23517-.236v-.00043a.23475.23475,0,0,0-.23517-.23349Z"/></g><g id="Group_1136-3" data-name="Group 1136-3"><circle id="Ellipse_1677-3" data-name="Ellipse 1677-3" class="cls-1" cx="44.98703" cy="146.34447" r="0.46029"/><path id="Path_1419-3" data-name="Path 1419-3" class="cls-1" d="M44.98787,147.02905a.68437.68437,0,1,1,.68458-.68542A.68584.68584,0,0,1,44.98787,147.02905Zm0-.92059a.23392.23392,0,1,1,0,.00084Z"/></g><g id="Group_1137-3" data-name="Group 1137-3"><circle id="Ellipse_1678-3" data-name="Ellipse 1678-3" class="cls-1" cx="55.13525" cy="146.34447" r="0.46029"/><path id="Path_1420-3" data-name="Path 1420-3" class="cls-1" d="M55.13566,147.02905a.68437.68437,0,1,1,.68417-.68542A.68625.68625,0,0,1,55.13566,147.02905Zm0-.92059a.23538.23538,0,1,0,0,.47075h0a.235.235,0,1,0,0-.46991Z"/></g><g id="Group_1138-3" data-name="Group 1138-3"><circle id="Ellipse_1679-3" data-name="Ellipse 1679-3" class="cls-1" cx="44.98703" cy="156.10436" r="0.46029"/><path id="Path_1421-3" data-name="Path 1421-3" class="cls-1" d="M44.98787,156.78686a.68437.68437,0,1,1,.68458-.68332A.68459.68459,0,0,1,44.98787,156.78686Zm0-.92059a.23517.23517,0,1,1,0,.0025Z"/></g><g id="Group_1139-3" data-name="Group 1139-3"><circle id="Ellipse_1680-3" data-name="Ellipse 1680-3" class="cls-1" cx="55.13525" cy="156.10436" r="0.46029"/><path id="Path_1422-3" data-name="Path 1422-3" class="cls-1" d="M55.13566,156.78686a.68437.68437,0,1,1,.68417-.68332A.6854.6854,0,0,1,55.13566,156.78686Zm0-.92059a.23642.23642,0,0,0-.23642.23642h0a.23581.23581,0,1,0,.23642-.23392Z"/></g><g id="Group_1140-3" data-name="Group 1140-3"><circle id="Ellipse_1681-3" data-name="Ellipse 1681-3" class="cls-1" cx="65.28346" cy="34.9217" r="0.46029"/><path id="Path_1423-3" data-name="Path 1423-3" class="cls-1" d="M65.28305,35.60628a.68415.68415,0,0,1-.68458-.68376v-.00081a.68458.68458,0,1,1,.68458.68457Zm0-.92059a.23559.23559,0,0,0-.23518.236v.00043a.23518.23518,0,1,0,.23561-.23642Z"/></g><g id="Group_1141-3" data-name="Group 1141-3"><circle id="Ellipse_1682-3" data-name="Ellipse 1682-3" class="cls-1" cx="75.43083" cy="34.9217" r="0.46029"/><path id="Path_1424-3" data-name="Path 1424-3" class="cls-1" d="M75.43042,35.60628a.685.685,0,1,1,.68542-.68457A.68458.68458,0,0,1,75.43042,35.60628Zm0-.92059a.2358.2358,0,1,0,.23642.23642.23643.23643,0,0,0-.23642-.23642Z"/></g><g id="Group_1142-3" data-name="Group 1142-3"><circle id="Ellipse_1683-3" data-name="Ellipse 1683-3" class="cls-1" cx="85.57904" cy="34.9217" r="0.46029"/><path id="Path_1425-3" data-name="Path 1425-3" class="cls-1" d="M85.57862,35.60628a.685.685,0,1,1,.68542-.68457A.685.685,0,0,1,85.57862,35.60628Zm0-.92059a.23663.23663,0,1,0,.00041,0Z"/></g><g id="Group_1143-3" data-name="Group 1143-3"><circle id="Ellipse_1684-3" data-name="Ellipse 1684-3" class="cls-1" cx="95.72684" cy="34.9217" r="0.46029"/><path id="Path_1426-3" data-name="Path 1426-3" class="cls-1" d="M95.72684,35.60628a.68415.68415,0,0,1-.68457-.68376v-.00081a.68458.68458,0,1,1,.68457.68457Zm0-.92059a.23559.23559,0,0,0-.23517.236v.00043a.23518.23518,0,1,0,.23561-.23642Z"/></g><g id="Group_1144-3" data-name="Group 1144-3"><circle id="Ellipse_1685-3" data-name="Ellipse 1685-3" class="cls-1" cx="105.87505" cy="34.9217" r="0.46029"/><path id="Path_1427-3" data-name="Path 1427-3" class="cls-1" d="M105.87505,35.60628a.685.685,0,1,1,.68542-.68457A.6854.6854,0,0,1,105.87505,35.60628Zm0-.92059a.2358.2358,0,1,0,.23642.23642.23644.23644,0,0,0-.23642-.23642Z"/></g><g id="Group_1145-3" data-name="Group 1145-3"><circle id="Ellipse_1686-3" data-name="Ellipse 1686-3" class="cls-1" cx="116.02243" cy="34.9217" r="0.46029"/><path id="Path_1428-3" data-name="Path 1428-3" class="cls-1" d="M116.02242,35.60628a.685.685,0,1,1,.68542-.68457A.685.685,0,0,1,116.02242,35.60628Zm0-.92059a.23559.23559,0,0,0-.23517.236v.00043a.2358.2358,0,1,0,.23517-.23642Z"/></g><g id="Group_1146-3" data-name="Group 1146-3"><circle id="Ellipse_1687-3" data-name="Ellipse 1687-3" class="cls-1" cx="126.17064" cy="34.9217" r="0.46029"/><path id="Path_1429-3" data-name="Path 1429-3" class="cls-1" d="M126.17106,35.60628a.685.685,0,1,1,.68458-.68457A.685.685,0,0,1,126.17106,35.60628Zm0-.92059a.2358.2358,0,1,0,.23517.23642A.23643.23643,0,0,0,126.17106,34.68569Z"/></g><g id="Group_1147-3" data-name="Group 1147-3"><circle id="Ellipse_1688-3" data-name="Ellipse 1688-3" class="cls-1" cx="136.31884" cy="34.9217" r="0.46029"/><path id="Path_1430-3" data-name="Path 1430-3" class="cls-1" d="M136.31884,35.60628a.684.684,0,1,1,.00041,0Zm0-.92059a.235.235,0,1,0,.00044,0Z"/></g><g id="Group_1148-3" data-name="Group 1148-3"><circle id="Ellipse_1689-3" data-name="Ellipse 1689-3" class="cls-1" cx="65.28346" cy="45.0879" r="0.46029"/><path id="Path_1431-3" data-name="Path 1431-3" class="cls-1" d="M65.28305,45.77332a.68542.68542,0,1,1,.68457-.68542A.685.685,0,0,1,65.28305,45.77332Zm0-.92059a.23643.23643,0,0,0-.00044.47285h.00044a.23559.23559,0,0,0,.23517-.236v-.00044a.23642.23642,0,0,0-.23349-.23931l-.00168,0Z"/></g><g id="Group_1149-3" data-name="Group 1149-3"><circle id="Ellipse_1690-3" data-name="Ellipse 1690-3" class="cls-1" cx="75.43083" cy="45.0879" r="0.46029"/><path id="Path_1432-3" data-name="Path 1432-3" class="cls-1" d="M75.43042,45.77332a.68542.68542,0,1,1,.68542-.68542A.68541.68541,0,0,1,75.43042,45.77332Zm0-.92059a.23643.23643,0,1,0,.23642.23642h0a.23727.23727,0,0,0-.23517-.23933h-.00125Z"/></g><g id="Group_1150-3" data-name="Group 1150-3"><circle id="Ellipse_1691-3" data-name="Ellipse 1691-3" class="cls-1" cx="85.57904" cy="45.0879" r="0.46029"/><path id="Path_1433-3" data-name="Path 1433-3" class="cls-1" d="M85.57862,45.77332a.68542.68542,0,1,1,.68542-.68542A.68542.68542,0,0,1,85.57862,45.77332Zm0-.92059a.23643.23643,0,1,0,.23683.23642h0a.23727.23727,0,0,0-.23517-.23933h-.00166Z"/></g><g id="Group_1151-3" data-name="Group 1151-3"><circle id="Ellipse_1692-3" data-name="Ellipse 1692-3" class="cls-1" cx="95.72684" cy="45.0879" r="0.46029"/><path id="Path_1434-3" data-name="Path 1434-3" class="cls-1" d="M95.72684,45.77332a.68542.68542,0,1,1,.68458-.68542A.685.685,0,0,1,95.72684,45.77332Zm0-.92059a.23643.23643,0,0,0-.00043.47285h.00043a.2356.2356,0,0,0,.23518-.236v-.00044a.23642.23642,0,0,0-.23349-.23931l-.00169,0Z"/></g><g id="Group_1152-3" data-name="Group 1152-3"><circle id="Ellipse_1693-3" data-name="Ellipse 1693-3" class="cls-1" cx="105.87505" cy="45.0879" r="0.46029"/><path id="Path_1435-3" data-name="Path 1435-3" class="cls-1" d="M105.87505,45.77332a.68542.68542,0,1,1,.68542-.68542A.68626.68626,0,0,1,105.87505,45.77332Zm0-.92059a.23643.23643,0,1,0,.23642.23642h0a.23727.23727,0,0,0-.23517-.23933h-.00125Z"/></g><g id="Group_1153-3" data-name="Group 1153-3"><circle id="Ellipse_1694-3" data-name="Ellipse 1694-3" class="cls-1" cx="116.02243" cy="45.0879" r="0.46029"/><path id="Path_1436-3" data-name="Path 1436-3" class="cls-1" d="M116.02242,45.77332a.68542.68542,0,1,1,.68542-.68542A.68541.68541,0,0,1,116.02242,45.77332Zm0-.92059a.23643.23643,0,0,0-.00043.47285h.00043a.23643.23643,0,0,0,.23643-.23643h0a.23728.23728,0,0,0-.23518-.23933h-.00125Z"/></g><g id="Group_1154-3" data-name="Group 1154-3"><circle id="Ellipse_1695-3" data-name="Ellipse 1695-3" class="cls-1" cx="126.17064" cy="45.0879" r="0.46029"/><path id="Path_1437-3" data-name="Path 1437-3" class="cls-1" d="M126.17106,45.77332a.68542.68542,0,1,1,.68458-.68542A.68584.68584,0,0,1,126.17106,45.77332Zm0-.92059a.19158.19158,0,1,0,.00084-.00291h-.00084Z"/></g><g id="Group_1155-3" data-name="Group 1155-3"><circle id="Ellipse_1696-3" data-name="Ellipse 1696-3" class="cls-1" cx="136.31884" cy="45.0879" r="0.46029"/><path id="Path_1438-3" data-name="Path 1438-3" class="cls-1" d="M136.31884,45.77332a.68542.68542,0,1,1,.68417-.68542A.68625.68625,0,0,1,136.31884,45.77332Zm0-.92059a.23643.23643,0,1,0,.23518.23686v-.00044a.23642.23642,0,0,0-.23349-.23931l-.00169,0Z"/></g><g id="Group_1156-3" data-name="Group 1156-3"><circle id="Ellipse_1697-3" data-name="Ellipse 1697-3" class="cls-1" cx="146.46665" cy="45.0879" r="0.46029"/><path id="Path_1439-3" data-name="Path 1439-3" class="cls-1" d="M146.46621,45.77332a.68542.68542,0,1,1,.68541-.68542A.68541.68541,0,0,1,146.46621,45.77332Zm0-.92059a.23643.23643,0,0,0-.00044.47285h.00044a.23642.23642,0,0,0,.23642-.23643h0a.23727.23727,0,0,0-.23517-.23933h-.00125Z"/></g><g id="Group_1157-3" data-name="Group 1157-3"><circle id="Ellipse_1698-3" data-name="Ellipse 1698-3" class="cls-1" cx="65.28346" cy="55.2541" r="0.46029"/><path id="Path_1440-3" data-name="Path 1440-3" class="cls-1" d="M65.28305,55.93868a.68437.68437,0,0,1-.00082-1.36874h.00082a.68437.68437,0,1,1,0,1.36874Zm0-.92059a.23538.23538,0,0,0-.00085.47076h.00085a.23476.23476,0,0,0,.23517-.23433v-.00085a.23559.23559,0,0,0-.23517-.23474Z"/></g><g id="Group_1158-3" data-name="Group 1158-3"><circle id="Ellipse_1699-3" data-name="Ellipse 1699-3" class="cls-1" cx="75.43083" cy="55.2541" r="0.46029"/><path id="Path_1441-3" data-name="Path 1441-3" class="cls-1" d="M75.43042,55.93868a.68437.68437,0,1,1,.68542-.68416A.68543.68543,0,0,1,75.43042,55.93868Zm0-.92059a.23538.23538,0,1,0,.23642.236v-.00044a.23641.23641,0,0,0-.23642-.23474Z"/></g><g id="Group_1159-3" data-name="Group 1159-3"><circle id="Ellipse_1700-3" data-name="Ellipse 1700-3" class="cls-1" cx="85.57904" cy="55.2541" r="0.46029"/><path id="Path_1442-3" data-name="Path 1442-3" class="cls-1" d="M85.57862,55.93868a.68437.68437,0,1,1,.68542-.68416A.68541.68541,0,0,1,85.57862,55.93868Zm0-.92059a.23538.23538,0,1,0,.23683.236v-.00044a.23642.23642,0,0,0-.23683-.23474Z"/></g><g id="Group_1160-3" data-name="Group 1160-3"><circle id="Ellipse_1701-3" data-name="Ellipse 1701-3" class="cls-1" cx="95.72684" cy="55.2541" r="0.46029"/><path id="Path_1443-3" data-name="Path 1443-3" class="cls-1" d="M95.72684,55.93868a.68437.68437,0,0,1-.00081-1.36874h.00081a.68437.68437,0,1,1,0,1.36874Zm0-.92059a.23538.23538,0,0,0-.00084.47076h.00084a.23477.23477,0,0,0,.23518-.23433v-.00085a.2356.2356,0,0,0-.23518-.23474Z"/></g><g id="Group_1161-3" data-name="Group 1161-3"><circle id="Ellipse_1702-3" data-name="Ellipse 1702-3" class="cls-1" cx="105.87505" cy="55.2541" r="0.46029"/><path id="Path_1444-3" data-name="Path 1444-3" class="cls-1" d="M105.87505,55.93868a.68437.68437,0,1,1,.68542-.68416A.68625.68625,0,0,1,105.87505,55.93868Zm0-.92059a.23538.23538,0,1,0,0,.47076h0a.23559.23559,0,0,0,.23642-.23474v-.00044a.23642.23642,0,0,0-.23642-.23474Z"/></g><g id="Group_1162-3" data-name="Group 1162-3"><circle id="Ellipse_1703-3" data-name="Ellipse 1703-3" class="cls-1" cx="116.02243" cy="55.2541" r="0.46029"/><path id="Path_1445-3" data-name="Path 1445-3" class="cls-1" d="M116.02242,55.93868a.68437.68437,0,1,1,.68542-.68416A.6854.6854,0,0,1,116.02242,55.93868Zm0-.92059a.23538.23538,0,0,0-.00084.47076h.00084a.2356.2356,0,0,0,.23643-.23474v-.00044a.23642.23642,0,0,0-.23643-.23474Z"/></g><g id="Group_1163-3" data-name="Group 1163-3"><circle id="Ellipse_1704-3" data-name="Ellipse 1704-3" class="cls-1" cx="126.17064" cy="55.2541" r="0.46029"/><path id="Path_1446-3" data-name="Path 1446-3" class="cls-1" d="M126.17106,55.93868a.68437.68437,0,1,1,.68458-.68416A.6854.6854,0,0,1,126.17106,55.93868Zm0-.92059a.23538.23538,0,1,0,0,.47076h0a.235.235,0,1,0,0-.46992Z"/></g><g id="Group_1164-3" data-name="Group 1164-3"><circle id="Ellipse_1705-3" data-name="Ellipse 1705-3" class="cls-1" cx="136.31884" cy="55.2541" r="0.46029"/><path id="Path_1447-3" data-name="Path 1447-3" class="cls-1" d="M136.31884,55.93868a.68437.68437,0,1,1,.68417-.68457v.00041A.685.685,0,0,1,136.31884,55.93868Zm0-.92059a.23538.23538,0,1,0,0,.47076h0a.23476.23476,0,0,0,.23518-.23433v-.00085a.2356.2356,0,0,0-.23518-.23474Z"/></g><g id="Group_1165-3" data-name="Group 1165-3"><circle id="Ellipse_1706-3" data-name="Ellipse 1706-3" class="cls-1" cx="146.46665" cy="55.2541" r="0.46029"/><path id="Path_1448-3" data-name="Path 1448-3" class="cls-1" d="M146.46621,55.93868a.68437.68437,0,1,1,.68541-.68416A.68541.68541,0,0,1,146.46621,55.93868Zm0-.92059a.23538.23538,0,0,0-.00085.47076h.00085a.23559.23559,0,0,0,.23642-.23474v-.00044a.23642.23642,0,0,0-.23642-.23474Z"/></g><g id="Group_1166-3" data-name="Group 1166-3"><circle id="Ellipse_1707-3" data-name="Ellipse 1707-3" class="cls-1" cx="65.28346" cy="65.42073" r="0.46029"/><path id="Path_1449-3" data-name="Path 1449-3" class="cls-1" d="M65.28305,66.10531a.68415.68415,0,0,1-.68458-.68376v-.00081a.68458.68458,0,1,1,.68458.68457Zm0-.92059a.23559.23559,0,0,0-.23518.236v.00044a.23518.23518,0,1,0,.236-.23643Z"/></g><g id="Group_1167-3" data-name="Group 1167-3"><circle id="Ellipse_1708-3" data-name="Ellipse 1708-3" class="cls-1" cx="75.43083" cy="65.42073" r="0.46029"/><path id="Path_1450-3" data-name="Path 1450-3" class="cls-1" d="M75.43042,66.10531a.685.685,0,1,1,.68542-.68457A.68458.68458,0,0,1,75.43042,66.10531Zm0-.92059a.23622.23622,0,1,0,.00041,0Z"/></g><g id="Group_1168-3" data-name="Group 1168-3"><circle id="Ellipse_1709-3" data-name="Ellipse 1709-3" class="cls-1" cx="85.57904" cy="65.42073" r="0.46029"/><path id="Path_1451-3" data-name="Path 1451-3" class="cls-1" d="M85.57862,66.10531a.685.685,0,1,1,.68542-.68457A.685.685,0,0,1,85.57862,66.10531Zm0-.92059a.23642.23642,0,1,0,.00082,0Z"/></g><g id="Group_1169-3" data-name="Group 1169-3"><circle id="Ellipse_1710-3" data-name="Ellipse 1710-3" class="cls-1" cx="95.72684" cy="65.42073" r="0.46029"/><path id="Path_1452-3" data-name="Path 1452-3" class="cls-1" d="M95.72684,66.10531a.68415.68415,0,0,1-.68457-.68376v-.00081a.68458.68458,0,1,1,.68457.68457Zm0-.92059a.23559.23559,0,0,0-.23517.236v.00044a.23518.23518,0,1,0,.236-.23643Z"/></g><g id="Group_1170-3" data-name="Group 1170-3"><circle id="Ellipse_1711-3" data-name="Ellipse 1711-3" class="cls-1" cx="105.87505" cy="65.42073" r="0.46029"/><path id="Path_1453-3" data-name="Path 1453-3" class="cls-1" d="M105.87505,66.10531a.685.685,0,1,1,.68542-.68457A.6854.6854,0,0,1,105.87505,66.10531Zm0-.92059a.23622.23622,0,1,0,.00041,0Z"/></g><g id="Group_1171-3" data-name="Group 1171-3"><circle id="Ellipse_1712-3" data-name="Ellipse 1712-3" class="cls-1" cx="116.02243" cy="65.42073" r="0.46029"/><path id="Path_1454-3" data-name="Path 1454-3" class="cls-1" d="M116.02242,66.10531a.685.685,0,1,1,.68542-.68457A.685.685,0,0,1,116.02242,66.10531Zm0-.92059a.23559.23559,0,0,0-.23517.236v.00044a.2358.2358,0,1,0,.23558-.23643Z"/></g><g id="Group_1172-3" data-name="Group 1172-3"><circle id="Ellipse_1713-3" data-name="Ellipse 1713-3" class="cls-1" cx="126.17064" cy="65.42073" r="0.46029"/><path id="Path_1455-3" data-name="Path 1455-3" class="cls-1" d="M126.17106,66.10531a.685.685,0,1,1,.68458-.68457A.685.685,0,0,1,126.17106,66.10531Zm0-.92059a.236.236,0,1,0,.23517.23683A.23643.23643,0,0,0,126.17106,65.18472Z"/></g><g id="Group_1173-3" data-name="Group 1173-3"><circle id="Ellipse_1714-3" data-name="Ellipse 1714-3" class="cls-1" cx="136.31884" cy="65.42073" r="0.46029"/><path id="Path_1456-3" data-name="Path 1456-3" class="cls-1" d="M136.31884,66.10531a.684.684,0,1,1,.00041,0Zm0-.92059a.23476.23476,0,1,0,.00085,0Z"/></g><g id="Group_1174-3" data-name="Group 1174-3"><circle id="Ellipse_1715-3" data-name="Ellipse 1715-3" class="cls-1" cx="146.46665" cy="65.42073" r="0.46029"/><path id="Path_1457-3" data-name="Path 1457-3" class="cls-1" d="M146.46621,66.10531a.685.685,0,1,1,.68541-.68457A.685.685,0,0,1,146.46621,66.10531Zm0-.92059a.23559.23559,0,0,0-.23518.236v.00044a.2358.2358,0,1,0,.23558-.23643Z"/></g><g id="Group_1175-3" data-name="Group 1175-3"><circle id="Ellipse_1716-3" data-name="Ellipse 1716-3" class="cls-1" cx="65.28346" cy="75.58651" r="0.46029"/><path id="Path_1458-3" data-name="Path 1458-3" class="cls-1" d="M65.28305,76.27193a.68542.68542,0,1,1,.68457-.68542A.685.685,0,0,1,65.28305,76.27193Zm0-.92059a.23643.23643,0,0,0-.00044.47285h.00044a.23559.23559,0,0,0,.23517-.236v-.00044a.23642.23642,0,0,0-.23517-.23767h0Z"/></g><g id="Group_1176-3" data-name="Group 1176-3"><circle id="Ellipse_1717-3" data-name="Ellipse 1717-3" class="cls-1" cx="75.43083" cy="75.58651" r="0.46029"/><path id="Path_1459-3" data-name="Path 1459-3" class="cls-1" d="M75.43042,76.27193a.68542.68542,0,1,1,.68542-.68542A.68541.68541,0,0,1,75.43042,76.27193Zm0-.92059a.23643.23643,0,1,0,.23642.23642h0a.23726.23726,0,0,0-.23642-.23767Z"/></g><g id="Group_1177-3" data-name="Group 1177-3"><circle id="Ellipse_1718-3" data-name="Ellipse 1718-3" class="cls-1" cx="85.57904" cy="75.58651" r="0.46029"/><path id="Path_1460-3" data-name="Path 1460-3" class="cls-1" d="M85.57862,76.27193a.68542.68542,0,1,1,.68542-.68542A.68541.68541,0,0,1,85.57862,76.27193Zm0-.92059a.23643.23643,0,1,0,.23683.23642h0a.23726.23726,0,0,0-.23683-.23767Z"/></g><g id="Group_1178-3" data-name="Group 1178-3"><circle id="Ellipse_1719-3" data-name="Ellipse 1719-3" class="cls-1" cx="95.72684" cy="75.58651" r="0.46029"/><path id="Path_1461-3" data-name="Path 1461-3" class="cls-1" d="M95.72684,76.27193a.68542.68542,0,1,1,.68458-.68542A.685.685,0,0,1,95.72684,76.27193Zm0-.92059a.23643.23643,0,0,0-.00043.47285h.00043a.2356.2356,0,0,0,.23518-.236v-.00044a.23643.23643,0,0,0-.23518-.23767h0Z"/></g><g id="Group_1179-3" data-name="Group 1179-3"><circle id="Ellipse_1720-3" data-name="Ellipse 1720-3" class="cls-1" cx="105.87505" cy="75.58651" r="0.46029"/><path id="Path_1462-3" data-name="Path 1462-3" class="cls-1" d="M105.87505,76.27193a.68542.68542,0,1,1,.68542-.68542A.68626.68626,0,0,1,105.87505,76.27193Zm0-.92059a.23643.23643,0,1,0,.23642.23642h0a.23727.23727,0,0,0-.23642-.23767Z"/></g><g id="Group_1180-3" data-name="Group 1180-3"><circle id="Ellipse_1721-3" data-name="Ellipse 1721-3" class="cls-1" cx="116.02243" cy="75.58651" r="0.46029"/><path id="Path_1463-3" data-name="Path 1463-3" class="cls-1" d="M116.02242,76.27193a.68542.68542,0,1,1,.68542-.68542A.6854.6854,0,0,1,116.02242,76.27193Zm0-.92059a.23643.23643,0,0,0-.00043.47285h.00043a.23643.23643,0,0,0,.23643-.23643h0a.23727.23727,0,0,0-.23643-.23767Z"/></g><g id="Group_1181-3" data-name="Group 1181-3"><circle id="Ellipse_1722-3" data-name="Ellipse 1722-3" class="cls-1" cx="126.17064" cy="75.58651" r="0.46029"/><path id="Path_1464-3" data-name="Path 1464-3" class="cls-1" d="M126.17106,76.27193a.68542.68542,0,1,1,.68458-.68542A.68583.68583,0,0,1,126.17106,76.27193Zm0-.92059a.23705.23705,0,1,0,0-.00125Z"/></g><g id="Group_1182-3" data-name="Group 1182-3"><circle id="Ellipse_1723-3" data-name="Ellipse 1723-3" class="cls-1" cx="136.31884" cy="75.58651" r="0.46029"/><path id="Path_1465-3" data-name="Path 1465-3" class="cls-1" d="M136.31884,76.27193a.68542.68542,0,1,1,.68417-.68542A.68625.68625,0,0,1,136.31884,76.27193Zm0-.92059a.23643.23643,0,1,0,.23518.23686v-.00044a.23643.23643,0,0,0-.23518-.23767h0Z"/></g><g id="Group_1183-3" data-name="Group 1183-3"><circle id="Ellipse_1724-3" data-name="Ellipse 1724-3" class="cls-1" cx="146.46665" cy="75.58651" r="0.46029"/><path id="Path_1466-3" data-name="Path 1466-3" class="cls-1" d="M146.46621,76.27193a.68542.68542,0,1,1,.68541-.68542A.6854.6854,0,0,1,146.46621,76.27193Zm0-.92059a.23643.23643,0,0,0-.00044.47285h.00044a.23642.23642,0,0,0,.23642-.23643h0a.23727.23727,0,0,0-.23642-.23767Z"/></g><g id="Group_1184-3" data-name="Group 1184-3"><circle id="Ellipse_1725-3" data-name="Ellipse 1725-3" class="cls-1" cx="65.28346" cy="85.75314" r="0.46029"/><path id="Path_1467-3" data-name="Path 1467-3" class="cls-1" d="M65.28305,86.4373a.68458.68458,0,1,1,.68457-.68458A.685.685,0,0,1,65.28305,86.4373Zm0-.92059a.23517.23517,0,0,0-.00085.47034h.00085a.23516.23516,0,0,0,.23517-.23517h0a.23559.23559,0,0,0-.23517-.23433Z"/></g><g id="Group_1185-3" data-name="Group 1185-3"><circle id="Ellipse_1726-3" data-name="Ellipse 1726-3" class="cls-1" cx="75.43083" cy="85.75314" r="0.46029"/><path id="Path_1468-3" data-name="Path 1468-3" class="cls-1" d="M75.43042,86.4373a.68458.68458,0,1,1,.68542-.68458A.68541.68541,0,0,1,75.43042,86.4373Zm0-.92059a.23517.23517,0,1,0,.23642.2356v-.00043a.236.236,0,0,0-.23642-.23433Z"/></g><g id="Group_1186-3" data-name="Group 1186-3"><circle id="Ellipse_1727-3" data-name="Ellipse 1727-3" class="cls-1" cx="85.57904" cy="85.75314" r="0.46029"/><path id="Path_1469-3" data-name="Path 1469-3" class="cls-1" d="M85.57862,86.4373a.68458.68458,0,1,1,.68542-.68458A.68542.68542,0,0,1,85.57862,86.4373Zm0-.92059a.23517.23517,0,1,0,.23683.2356v-.00043a.23642.23642,0,0,0-.23683-.23433Z"/></g><g id="Group_1187-3" data-name="Group 1187-3"><circle id="Ellipse_1728-3" data-name="Ellipse 1728-3" class="cls-1" cx="95.72684" cy="85.75314" r="0.46029"/><path id="Path_1470-3" data-name="Path 1470-3" class="cls-1" d="M95.72684,86.4373a.68458.68458,0,1,1,.68458-.68458A.685.685,0,0,1,95.72684,86.4373Zm0-.92059a.23517.23517,0,1,0,0,.47034h0a.23517.23517,0,0,0,.23518-.23517h0a.23559.23559,0,0,0-.23518-.23433Z"/></g><g id="Group_1188-3" data-name="Group 1188-3"><circle id="Ellipse_1729-3" data-name="Ellipse 1729-3" class="cls-1" cx="105.87505" cy="85.75314" r="0.46029"/><path id="Path_1471-3" data-name="Path 1471-3" class="cls-1" d="M105.87505,86.4373a.68458.68458,0,1,1,.68542-.68458A.68627.68627,0,0,1,105.87505,86.4373Zm0-.92059a.23517.23517,0,1,0,0,.47034h0a.23558.23558,0,0,0,.23642-.23474v-.00043a.236.236,0,0,0-.23642-.23433Z"/></g><g id="Group_1189-3" data-name="Group 1189-3"><circle id="Ellipse_1730-3" data-name="Ellipse 1730-3" class="cls-1" cx="116.02243" cy="85.75314" r="0.46029"/><path id="Path_1472-3" data-name="Path 1472-3" class="cls-1" d="M116.02242,86.4373a.68458.68458,0,1,1,.68542-.68458A.68541.68541,0,0,1,116.02242,86.4373Zm0-.92059a.23517.23517,0,1,0,0,.47034h0a.23559.23559,0,0,0,.23643-.23474v-.00043a.23644.23644,0,0,0-.23643-.23433Z"/></g><g id="Group_1190-3" data-name="Group 1190-3"><circle id="Ellipse_1731-3" data-name="Ellipse 1731-3" class="cls-1" cx="126.17064" cy="85.75314" r="0.46029"/><path id="Path_1473-3" data-name="Path 1473-3" class="cls-1" d="M126.17106,86.4373a.68458.68458,0,1,1,.68458-.68458A.68584.68584,0,0,1,126.17106,86.4373Zm0-.92059a.23517.23517,0,1,0,0,.47034h0a.23475.23475,0,1,0,0-.4695Z"/></g><g id="Group_1191-3" data-name="Group 1191-3"><circle id="Ellipse_1732-3" data-name="Ellipse 1732-3" class="cls-1" cx="136.31884" cy="85.75314" r="0.46029"/><path id="Path_1474-3" data-name="Path 1474-3" class="cls-1" d="M136.31884,86.4373a.68458.68458,0,1,1,.68417-.68458A.68626.68626,0,0,1,136.31884,86.4373Zm0-.92059a.23517.23517,0,1,0,0,.47034h0a.23517.23517,0,0,0,.23518-.23517h0a.23559.23559,0,0,0-.23518-.23433Z"/></g><g id="Group_1192-3" data-name="Group 1192-3"><circle id="Ellipse_1733-3" data-name="Ellipse 1733-3" class="cls-1" cx="146.46665" cy="85.75314" r="0.46029"/><path id="Path_1475-3" data-name="Path 1475-3" class="cls-1" d="M146.46621,86.4373a.68458.68458,0,1,1,.68541-.68458A.68542.68542,0,0,1,146.46621,86.4373Zm0-.92059a.23517.23517,0,1,0,0,.47034h0a.23558.23558,0,0,0,.23642-.23474v-.00043a.23643.23643,0,0,0-.23642-.23433Z"/></g><g id="Group_1193-3" data-name="Group 1193-3"><circle id="Ellipse_1734-3" data-name="Ellipse 1734-3" class="cls-1" cx="65.28346" cy="95.91934" r="0.46029"/><path id="Path_1476-3" data-name="Path 1476-3" class="cls-1" d="M65.28305,96.60477a.68415.68415,0,0,1-.68458-.68375V95.9202a.68458.68458,0,1,1,.68458.68457Zm0-.92059a.23559.23559,0,0,0-.23518.236v.00044a.23518.23518,0,1,0,.23561-.23643Z"/></g><g id="Group_1194-3" data-name="Group 1194-3"><circle id="Ellipse_1735-3" data-name="Ellipse 1735-3" class="cls-1" cx="75.43083" cy="95.91934" r="0.46029"/><path id="Path_1477-3" data-name="Path 1477-3" class="cls-1" d="M75.43042,96.60477a.685.685,0,1,1,.68542-.68457A.68458.68458,0,0,1,75.43042,96.60477Zm0-.92059a.2358.2358,0,1,0,.23642.23643.23644.23644,0,0,0-.23642-.23643Z"/></g><g id="Group_1195-3" data-name="Group 1195-3"><circle id="Ellipse_1736-3" data-name="Ellipse 1736-3" class="cls-1" cx="85.57904" cy="95.91934" r="0.46029"/><path id="Path_1478-3" data-name="Path 1478-3" class="cls-1" d="M85.57862,96.60477a.685.685,0,1,1,.68542-.68457A.685.685,0,0,1,85.57862,96.60477Zm0-.92059a.23663.23663,0,1,0,.00041,0Z"/></g><g id="Group_1196-3" data-name="Group 1196-3"><circle id="Ellipse_1737-3" data-name="Ellipse 1737-3" class="cls-1" cx="95.72684" cy="95.91934" r="0.46029"/><path id="Path_1479-3" data-name="Path 1479-3" class="cls-1" d="M95.72684,96.60477a.68415.68415,0,0,1-.68457-.68375V95.9202a.68458.68458,0,1,1,.68457.68457Zm0-.92059a.23559.23559,0,0,0-.23517.236v.00044a.23518.23518,0,1,0,.23561-.23643Z"/></g><g id="Group_1197-3" data-name="Group 1197-3"><circle id="Ellipse_1738-3" data-name="Ellipse 1738-3" class="cls-1" cx="105.87505" cy="95.91934" r="0.46029"/><path id="Path_1480-3" data-name="Path 1480-3" class="cls-1" d="M105.87505,96.60477a.685.685,0,1,1,.68542-.68457A.6854.6854,0,0,1,105.87505,96.60477Zm0-.92059a.2358.2358,0,1,0,.23642.23643.23644.23644,0,0,0-.23642-.23643Z"/></g><g id="Group_1198-3" data-name="Group 1198-3"><circle id="Ellipse_1739-3" data-name="Ellipse 1739-3" class="cls-1" cx="116.02243" cy="95.91934" r="0.46029"/><path id="Path_1481-3" data-name="Path 1481-3" class="cls-1" d="M116.02242,96.60477a.685.685,0,1,1,.68542-.68457A.685.685,0,0,1,116.02242,96.60477Zm0-.92059a.23559.23559,0,0,0-.23517.236v.00044a.2358.2358,0,1,0,.23517-.23643Z"/></g><g id="Group_1199-3" data-name="Group 1199-3"><circle id="Ellipse_1740-3" data-name="Ellipse 1740-3" class="cls-1" cx="126.17064" cy="95.91934" r="0.46029"/><path id="Path_1482-3" data-name="Path 1482-3" class="cls-1" d="M126.17106,96.60477a.685.685,0,1,1,.68458-.68457A.685.685,0,0,1,126.17106,96.60477Zm0-.92059a.2358.2358,0,1,0,.23517.23643A.23643.23643,0,0,0,126.17106,95.68418Z"/></g><g id="Group_1200-3" data-name="Group 1200-3"><circle id="Ellipse_1741-3" data-name="Ellipse 1741-3" class="cls-1" cx="136.31884" cy="95.91934" r="0.46029"/><path id="Path_1483-3" data-name="Path 1483-3" class="cls-1" d="M136.31884,96.60477a.684.684,0,1,1,.00041,0Zm0-.92059a.235.235,0,1,0,.00044,0Z"/></g><g id="Group_1201-3" data-name="Group 1201-3"><circle id="Ellipse_1742-3" data-name="Ellipse 1742-3" class="cls-1" cx="146.46665" cy="95.91934" r="0.46029"/><path id="Path_1484-3" data-name="Path 1484-3" class="cls-1" d="M146.46621,96.60477a.685.685,0,1,1,.68541-.68457A.685.685,0,0,1,146.46621,96.60477Zm0-.92059a.23559.23559,0,0,0-.23518.236v.00044a.2358.2358,0,1,0,.23518-.23643Z"/></g><g id="Group_1202-3" data-name="Group 1202-3"><circle id="Ellipse_1743-3" data-name="Ellipse 1743-3" class="cls-1" cx="65.28346" cy="106.08555" r="0.46029"/><path id="Path_1485-3" data-name="Path 1485-3" class="cls-1" d="M65.28305,106.77055a.68542.68542,0,1,1,.68457-.68542A.685.685,0,0,1,65.28305,106.77055Zm0-.92059a.23622.23622,0,0,0,0,.47244h0a.23559.23559,0,0,0,.23517-.236v0a.23642.23642,0,0,0-.23517-.23767h0Z"/></g><g id="Group_1203-3" data-name="Group 1203-3"><circle id="Ellipse_1744-3" data-name="Ellipse 1744-3" class="cls-1" cx="75.43083" cy="106.08555" r="0.46029"/><path id="Path_1486-3" data-name="Path 1486-3" class="cls-1" d="M75.43042,106.77055a.68542.68542,0,1,1,.68542-.68542A.68541.68541,0,0,1,75.43042,106.77055Zm0-.92059a.237.237,0,1,0,0-.00125Z"/></g><g id="Group_1204-3" data-name="Group 1204-3"><circle id="Ellipse_1745-3" data-name="Ellipse 1745-3" class="cls-1" cx="85.57904" cy="106.08555" r="0.46029"/><path id="Path_1487-3" data-name="Path 1487-3" class="cls-1" d="M85.57862,106.77055a.68542.68542,0,1,1,.68542-.68542A.68542.68542,0,0,1,85.57862,106.77055Zm0-.92059a.237.237,0,1,0,0-.00125Z"/></g><g id="Group_1205-3" data-name="Group 1205-3"><circle id="Ellipse_1746-3" data-name="Ellipse 1746-3" class="cls-1" cx="95.72684" cy="106.08555" r="0.46029"/><path id="Path_1488-3" data-name="Path 1488-3" class="cls-1" d="M95.72684,106.77055a.68542.68542,0,1,1,.68458-.68542A.685.685,0,0,1,95.72684,106.77055Zm0-.92059a.23622.23622,0,0,0,0,.47244h0a.2356.2356,0,0,0,.23518-.236v0a.23643.23643,0,0,0-.23518-.23767h0Z"/></g><g id="Group_1206-3" data-name="Group 1206-3"><circle id="Ellipse_1747-3" data-name="Ellipse 1747-3" class="cls-1" cx="105.87505" cy="106.08555" r="0.46029"/><path id="Path_1489-3" data-name="Path 1489-3" class="cls-1" d="M105.87505,106.77055a.68542.68542,0,1,1,.68542-.68542A.68626.68626,0,0,1,105.87505,106.77055Zm0-.92059a.237.237,0,1,0,0-.00125Z"/></g><g id="Group_1207-3" data-name="Group 1207-3"><circle id="Ellipse_1748-3" data-name="Ellipse 1748-3" class="cls-1" cx="116.02243" cy="106.08555" r="0.46029"/><path id="Path_1490-3" data-name="Path 1490-3" class="cls-1" d="M116.02242,106.77055a.68542.68542,0,1,1,.68542-.68542A.68541.68541,0,0,1,116.02242,106.77055Zm0-.92059a.23622.23622,0,0,0,0,.47244h0a.23685.23685,0,0,0,0-.47369Z"/></g><g id="Group_1208-3" data-name="Group 1208-3"><circle id="Ellipse_1749-3" data-name="Ellipse 1749-3" class="cls-1" cx="126.17064" cy="106.08555" r="0.46029"/><path id="Path_1491-3" data-name="Path 1491-3" class="cls-1" d="M126.17106,106.77055a.68542.68542,0,1,1,.68458-.68542A.68584.68584,0,0,1,126.17106,106.77055Zm0-.92059a.23705.23705,0,1,0,0-.00125Z"/></g><g id="Group_1209-3" data-name="Group 1209-3"><circle id="Ellipse_1750-3" data-name="Ellipse 1750-3" class="cls-1" cx="136.31884" cy="106.08555" r="0.46029"/><path id="Path_1492-3" data-name="Path 1492-3" class="cls-1" d="M136.31884,106.77055a.68542.68542,0,1,1,.68417-.68542A.68625.68625,0,0,1,136.31884,106.77055Zm0-.92059a.23622.23622,0,1,0,.23518.23645v0a.23643.23643,0,0,0-.23518-.23767h0Z"/></g><g id="Group_1210-3" data-name="Group 1210-3"><circle id="Ellipse_1751-3" data-name="Ellipse 1751-3" class="cls-1" cx="65.28346" cy="116.25176" r="0.46029"/><path id="Path_1493-3" data-name="Path 1493-3" class="cls-1" d="M65.28305,116.93592a.68438.68438,0,1,1,.68457-.68417A.685.685,0,0,1,65.28305,116.93592Zm0-.92059a.23538.23538,0,0,0-.00085.47075h.00085a.23476.23476,0,0,0,.23517-.23433v-.00084a.23559.23559,0,0,0-.23517-.23474Z"/></g><g id="Group_1211-3" data-name="Group 1211-3"><circle id="Ellipse_1752-3" data-name="Ellipse 1752-3" class="cls-1" cx="75.43083" cy="116.25176" r="0.46029"/><path id="Path_1494-3" data-name="Path 1494-3" class="cls-1" d="M75.43042,116.93592a.68438.68438,0,1,1,.68542-.68417A.68544.68544,0,0,1,75.43042,116.93592Zm0-.92059a.23538.23538,0,1,0,.23642.236v-.00043a.23641.23641,0,0,0-.23642-.23474Z"/></g><g id="Group_1212-3" data-name="Group 1212-3"><circle id="Ellipse_1753-3" data-name="Ellipse 1753-3" class="cls-1" cx="85.57904" cy="116.25176" r="0.46029"/><path id="Path_1495-3" data-name="Path 1495-3" class="cls-1" d="M85.57862,116.93592a.68438.68438,0,1,1,.68542-.68417A.68541.68541,0,0,1,85.57862,116.93592Zm0-.92059a.23538.23538,0,1,0,.23683.236v-.00043a.23642.23642,0,0,0-.23683-.23474Z"/></g><g id="Group_1213-3" data-name="Group 1213-3"><circle id="Ellipse_1754-3" data-name="Ellipse 1754-3" class="cls-1" cx="95.72684" cy="116.25176" r="0.46029"/><path id="Path_1496-3" data-name="Path 1496-3" class="cls-1" d="M95.72684,116.93592a.68438.68438,0,1,1,.68458-.68417A.685.685,0,0,1,95.72684,116.93592Zm0-.92059a.23538.23538,0,0,0-.00084.47075h.00084a.23477.23477,0,0,0,.23518-.23433v-.00084a.23559.23559,0,0,0-.23518-.23474Z"/></g><g id="Group_1214-3" data-name="Group 1214-3"><circle id="Ellipse_1755-3" data-name="Ellipse 1755-3" class="cls-1" cx="105.87505" cy="116.25176" r="0.46029"/><path id="Path_1497-3" data-name="Path 1497-3" class="cls-1" d="M105.87505,116.93592a.68438.68438,0,1,1,.68542-.68417A.68626.68626,0,0,1,105.87505,116.93592Zm0-.92059a.23538.23538,0,1,0,0,.47075h0a.23559.23559,0,0,0,.23642-.23474v-.00043a.23642.23642,0,0,0-.23642-.23474Z"/></g><g id="Group_1215-3" data-name="Group 1215-3"><circle id="Ellipse_1756-3" data-name="Ellipse 1756-3" class="cls-1" cx="126.17064" cy="116.25176" r="0.46029"/><path id="Path_1498-3" data-name="Path 1498-3" class="cls-1" d="M126.17106,116.93592a.68438.68438,0,1,1,.68458-.68417A.68541.68541,0,0,1,126.17106,116.93592Zm0-.92059a.23538.23538,0,1,0,0,.47075h0a.235.235,0,1,0,0-.46991Z"/></g><g id="Group_1216-3" data-name="Group 1216-3"><circle id="Ellipse_1757-3" data-name="Ellipse 1757-3" class="cls-1" cx="65.28346" cy="126.41795" r="0.46029"/><path id="Path_1499-3" data-name="Path 1499-3" class="cls-1" d="M65.28305,127.10379a.68542.68542,0,1,1,.68457-.68542A.685.685,0,0,1,65.28305,127.10379Zm0-.92059a.23559.23559,0,0,0-.23518.236v0a.23518.23518,0,1,0,.23645-.23726h-.00127Z"/></g><g id="Group_1217-3" data-name="Group 1217-3"><circle id="Ellipse_1758-3" data-name="Ellipse 1758-3" class="cls-1" cx="85.57904" cy="126.41795" r="0.46029"/><path id="Path_1500-3" data-name="Path 1500-3" class="cls-1" d="M85.57862,127.10379a.68542.68542,0,1,1,.68542-.68542A.68542.68542,0,0,1,85.57862,127.10379Zm0-.92059a.16718.16718,0,1,0,.00125-.00125h-.00125Z"/></g><g id="Group_1218-3" data-name="Group 1218-3"><circle id="Ellipse_1759-3" data-name="Ellipse 1759-3" class="cls-1" cx="95.72684" cy="126.41795" r="0.46029"/><path id="Path_1501-3" data-name="Path 1501-3" class="cls-1" d="M95.72684,127.10379a.68542.68542,0,1,1,.68458-.68542A.685.685,0,0,1,95.72684,127.10379Zm0-.92059a.23559.23559,0,0,0-.23517.236v0a.23518.23518,0,1,0,.23645-.23726h-.00128Z"/></g><g id="Group_1219-3" data-name="Group 1219-3"><circle id="Ellipse_1760-3" data-name="Ellipse 1760-3" class="cls-1" cx="65.28346" cy="136.58416" r="0.46029"/><path id="Path_1502-3" data-name="Path 1502-3" class="cls-1" d="M65.28305,137.26917a.6848.6848,0,0,1-.00041-1.36959h.00041a.6848.6848,0,0,1,0,1.36959Zm0-.92059a.2358.2358,0,0,0-.00044.47159h.00044a.23558.23558,0,0,0,.23517-.236v-.00043A.23558.23558,0,0,0,65.28305,136.34858Z"/></g><g id="Group_1220-3" data-name="Group 1220-3"><circle id="Ellipse_1761-3" data-name="Ellipse 1761-3" class="cls-1" cx="65.28346" cy="24.75549" r="0.46029"/><path id="Path_1503-3" data-name="Path 1503-3" class="cls-1" d="M65.28305,25.44007a.68458.68458,0,0,1-.00082-1.36915h.00082a.68458.68458,0,0,1,0,1.36915Zm0-.92059a.23517.23517,0,0,0-.00085.47034h.00085a.23516.23516,0,0,0,.23517-.23517h0a.23559.23559,0,0,0-.23517-.23433Z"/></g><g id="Group_1221-3" data-name="Group 1221-3"><circle id="Ellipse_1762-3" data-name="Ellipse 1762-3" class="cls-1" cx="75.43083" cy="24.75549" r="0.46029"/><path id="Path_1504-3" data-name="Path 1504-3" class="cls-1" d="M75.43042,25.44007a.68458.68458,0,1,1,.68542-.68458A.68541.68541,0,0,1,75.43042,25.44007Zm0-.92059a.23517.23517,0,1,0,.23642.23561v-.00044a.23642.23642,0,0,0-.23642-.23433Z"/></g><g id="Group_1222-3" data-name="Group 1222-3"><circle id="Ellipse_1763-3" data-name="Ellipse 1763-3" class="cls-1" cx="85.57904" cy="24.75549" r="0.46029"/><path id="Path_1505-3" data-name="Path 1505-3" class="cls-1" d="M85.57862,25.44007a.68458.68458,0,1,1,.68542-.68458A.68542.68542,0,0,1,85.57862,25.44007Zm0-.92059a.23517.23517,0,1,0,.23683.23561v-.00044a.23642.23642,0,0,0-.23683-.23433Z"/></g><g id="Group_1223-3" data-name="Group 1223-3"><circle id="Ellipse_1764-3" data-name="Ellipse 1764-3" class="cls-1" cx="95.72684" cy="24.75549" r="0.46029"/><path id="Path_1506-3" data-name="Path 1506-3" class="cls-1" d="M95.72684,25.44007a.68458.68458,0,0,1-.00081-1.36915h.00081a.68458.68458,0,1,1,0,1.36915Zm0-.92059a.23517.23517,0,1,0,0,.47034h0a.23517.23517,0,0,0,.23518-.23517h0a.23559.23559,0,0,0-.23518-.23433Z"/></g><g id="Group_1224-3" data-name="Group 1224-3"><circle id="Ellipse_1765-3" data-name="Ellipse 1765-3" class="cls-1" cx="105.87505" cy="24.75549" r="0.46029"/><path id="Path_1507-3" data-name="Path 1507-3" class="cls-1" d="M105.87505,25.44007a.68458.68458,0,1,1,.68542-.68458A.68627.68627,0,0,1,105.87505,25.44007Zm0-.92059a.23517.23517,0,1,0,0,.47034h0a.23558.23558,0,0,0,.23642-.23473v-.00044a.23643.23643,0,0,0-.23642-.23433Z"/></g><g id="Group_1225-3" data-name="Group 1225-3"><circle id="Ellipse_1766-3" data-name="Ellipse 1766-3" class="cls-1" cx="116.02243" cy="24.75549" r="0.46029"/><path id="Path_1508-3" data-name="Path 1508-3" class="cls-1" d="M116.02242,25.44007a.68458.68458,0,1,1,.68542-.68458A.68541.68541,0,0,1,116.02242,25.44007Zm0-.92059a.23517.23517,0,0,0,0,.47034h0a.23559.23559,0,0,0,.23643-.23473v-.00044a.23644.23644,0,0,0-.23643-.23433Z"/></g><g id="Group_1226-3" data-name="Group 1226-3"><circle id="Ellipse_1767-3" data-name="Ellipse 1767-3" class="cls-1" cx="126.17064" cy="24.75549" r="0.46029"/><path id="Path_1509-3" data-name="Path 1509-3" class="cls-1" d="M126.17106,25.44007a.68458.68458,0,1,1,.68458-.68458A.68584.68584,0,0,1,126.17106,25.44007Zm0-.92059a.23517.23517,0,1,0,0,.47034h0a.23475.23475,0,1,0,0-.4695Z"/></g><g id="Group_1227-3" data-name="Group 1227-3"><circle id="Ellipse_1768-3" data-name="Ellipse 1768-3" class="cls-1" cx="85.57904" cy="14.58929" r="0.46029"/><path id="Path_1510-3" data-name="Path 1510-3" class="cls-1" d="M85.57862,15.2747a.68542.68542,0,1,1,.68542-.68541A.68541.68541,0,0,1,85.57862,15.2747Zm0-.92059a.23643.23643,0,1,0,.23683.23643h0a.23643.23643,0,0,0-.23517-.23768h-.00166Z"/></g><g id="Group_1228-3" data-name="Group 1228-3"><circle id="Ellipse_1769-3" data-name="Ellipse 1769-3" class="cls-1" cx="95.72684" cy="14.58929" r="0.46029"/><path id="Path_1511-3" data-name="Path 1511-3" class="cls-1" d="M95.72684,15.2747a.68542.68542,0,1,1,.68458-.68541A.685.685,0,0,1,95.72684,15.2747Zm0-.92059a.23559.23559,0,0,0-.23517.236v.00044a.23559.23559,0,0,0,.23474.23642h.00043a.2356.2356,0,0,0,.23518-.236v-.00043a.23563.23563,0,0,0-.23349-.23768h-.00169Z"/></g><g id="Group_1229-3" data-name="Group 1229-3"><circle id="Ellipse_1770-3" data-name="Ellipse 1770-3" class="cls-1" cx="105.87505" cy="14.58929" r="0.46029"/><path id="Path_1512-3" data-name="Path 1512-3" class="cls-1" d="M105.87505,15.2747a.68542.68542,0,1,1,.68542-.68541A.68625.68625,0,0,1,105.87505,15.2747Zm0-.92059a.23643.23643,0,1,0,.23642.23643h0a.23643.23643,0,0,0-.23517-.23768h-.00125Z"/></g><g id="Group_1230-3" data-name="Group 1230-3"><circle id="Ellipse_1771-3" data-name="Ellipse 1771-3" class="cls-1" cx="116.02243" cy="14.58929" r="0.46029"/><path id="Path_1513-3" data-name="Path 1513-3" class="cls-1" d="M116.02242,15.2747a.68542.68542,0,1,1,.68542-.68541A.6854.6854,0,0,1,116.02242,15.2747Zm0-.92059a.23559.23559,0,0,0-.23517.236v.00044a.23559.23559,0,0,0,.23474.23642h.00043a.23643.23643,0,0,0,.23643-.23642h0a.23644.23644,0,0,0-.23518-.23768h-.00125Z"/></g><g id="Group_1231-3" data-name="Group 1231-3"><circle id="Ellipse_1772-3" data-name="Ellipse 1772-3" class="cls-1" cx="95.72684" cy="4.42308" r="0.46029"/><path id="Path_1514-3" data-name="Path 1514-3" class="cls-1" d="M95.72684,5.10808a.68416.68416,0,0,1-.68457-.68376V4.4235a.68458.68458,0,1,1,.68457.68458Zm0-.9206a.23559.23559,0,0,0-.23517.236v.00044a.23518.23518,0,1,0,.236-.23684h-.00085Z"/></g><g id="Group_1232-3" data-name="Group 1232-3"><circle id="Ellipse_1773-3" data-name="Ellipse 1773-3" class="cls-1" cx="105.87505" cy="4.42308" r="0.46029"/><path id="Path_1515-3" data-name="Path 1515-3" class="cls-1" d="M105.87505,5.10808a.685.685,0,1,1,.68542-.68458A.68541.68541,0,0,1,105.87505,5.10808Zm0-.9206a.16718.16718,0,1,0,.00041-.00041h-.00041Z"/></g><g id="Group_1233-3" data-name="Group 1233-3"><circle id="Ellipse_1774-3" data-name="Ellipse 1774-3" class="cls-1" cx="65.28346" cy="146.34447" r="0.46029"/><path id="Path_1516-3" data-name="Path 1516-3" class="cls-1" d="M65.28305,147.02905a.68437.68437,0,1,1,.68457-.68542A.685.685,0,0,1,65.28305,147.02905Zm0-.92059a.23476.23476,0,0,0-.23518.23433h0a.23559.23559,0,0,0,.23474.23642h.00044a.23559.23559,0,0,0,.23517-.236v-.00043a.23475.23475,0,0,0-.23517-.23349Z"/></g></g><g id="Group_1235-3" data-name="Group 1235-3"><path id="Path_1517-3" data-name="Path 1517-3" class="cls-1" d="M152.03242,51.30562a7.5289,7.5289,0,0,0-1.9625-5.41807L109.03015,2.26639l-.00794.008a6.07787,6.07787,0,0,0-.94655-.86745,7.13046,7.13046,0,0,0-6.59015-.70342L85.2949,6.11694a14.23975,14.23975,0,0,0-9.07155,12.61414v1.55117l-5.039-5.35613-.00712.00713a6.10868,6.10868,0,0,0-.9503-.86954,7.12984,7.12984,0,0,0-6.591-.70509L47.442,18.77544a14.227,14.227,0,0,0-9.06611,12.6087L38.373,33.18346l-5.22557-5.549-.00794.008a6.11256,6.11256,0,0,0-.84609-.75614,7.14242,7.14242,0,0,0-6.59894-.70509L.46038,34.68527.2252,114.13063a7.43244,7.43244,0,0,0,2.18807,5.62729l37.28628,39.65384-.01.01088.37367.37662a6.26077,6.26077,0,0,0,4.55648,1.83574,8.824,8.824,0,0,0,2.794-.48038l16.18977-5.41348a14.23227,14.23227,0,0,0,9.069-12.60535l.20923-21.47393,8.62547,9.17154.105.10336a6.2922,6.2922,0,0,0,4.43554,1.70937,8.81433,8.81433,0,0,0,2.7877-.47788l16.186-5.41347a14.23207,14.23207,0,0,0,9.07152-12.61036v-1.73613l5.27582,5.611.1088.11215h.00459a6.33116,6.33116,0,0,0,4.57617,1.81354,8.74508,8.74508,0,0,0,2.76553-.47075l25.23915-8.50037Zm-2.7358-4.67784a6.49717,6.49717,0,0,1,1.665,4.677l.03224,57.93753L110.86464,66.63339l-.033-59.11757a9.48391,9.48391,0,0,0-.19916-1.9805ZM85.63346,7.133l16.19061-5.41431a7.73779,7.73779,0,0,1,2.445-.42221,5.3387,5.3387,0,0,1,3.1777.97918,6.1778,6.1778,0,0,1,2.31569,5.23646l.033,58.9054L85.287,74.67179a6.09265,6.09265,0,0,1-5.626-.557,6.17882,6.17882,0,0,1-2.31738-5.23646L77.29419,18.732A13.09087,13.09087,0,0,1,85.63346,7.133ZM39.44805,31.3883a13.08316,13.08316,0,0,1,8.33424-11.59647l16.194-5.416a7.71017,7.71017,0,0,1,2.445-.4222,5.343,5.343,0,0,1,3.1802.97874,6.17884,6.17884,0,0,1,2.31737,5.23646l-.09248,50.185a13.08707,13.08707,0,0,1-8.34051,11.59562L47.29856,87.36375a6.096,6.096,0,0,1-5.6227-.557,6.18,6.18,0,0,1-2.322-5.234ZM1.29684,114.13441l.23392-78.67919L26.03635,27.195a6.10475,6.10475,0,0,1,5.63064.5578,6.17466,6.17466,0,0,1,2.31569,5.23354l-.2155,69.9265a13.09071,13.09071,0,0,1-8.338,11.59647l-16.1889,5.41388a6.0966,6.0966,0,0,1-5.626-.55779A6.17187,6.17187,0,0,1,1.29684,114.13441Zm70.30521,28.99594a13.09344,13.09344,0,0,1-8.338,11.59731l-16.18978,5.41263c-2.44581.81933-4.70754.43477-6.211-1.05449L5.29511,121.25805a6.99772,6.99772,0,0,0,1.49637.159,8.802,8.802,0,0,0,2.789-.4787l16.18892-5.41431a14.23283,14.23283,0,0,0,9.069-12.6087l.21635-69.92525a9.43991,9.43991,0,0,0-.20128-1.98388l3.51748,3.73549L38.283,81.56945A7.43109,7.43109,0,0,0,40.48618,87.208h0l31.3397,33.32524ZM113.02344,114.144a13.087,13.087,0,0,1-8.33967,11.59647L88.49691,131.154a5.90806,5.90806,0,0,1-6.13823-.98462L43.35259,88.6986a6.9833,6.9833,0,0,0,1.49553.15985,8.799,8.799,0,0,0,2.789-.47954l16.18726-5.41347a14.22937,14.22937,0,0,0,9.07155-12.60869l.09333-50.18537A9.45709,9.45709,0,0,0,72.79,18.19463l3.43629,3.6518.04686,47.02984a7.4418,7.4418,0,0,0,2.1726,5.61809l34.58181,36.777Zm13.46273,4.31755c-2.51948.84359-4.82763.41595-6.33031-1.17374L81.33723,76.00746a7.012,7.012,0,0,0,1.49806.15986,8.803,8.803,0,0,0,2.79229-.48039l24.51857-8.25723,40.42211,42.92235Z"/><path id="Path_1518-3" data-name="Path 1518-3" class="cls-1" d="M44.61963,161.86136a6.47458,6.47458,0,0,1-4.71633-1.90227l-.531-.53729.01423-.01423L2.248,119.91191A7.59256,7.59256,0,0,1,.00007,114.1302l.23517-79.606L.388,34.47311,25.6204,25.969a7.36122,7.36122,0,0,1,6.80189.73563,5.78152,5.78152,0,0,1,.7168.61889l.00251-.00251.16739.16068,4.84186,5.1373V31.3858a14.47009,14.47009,0,0,1,9.21968-12.82252l16.194-5.416a7.35057,7.35057,0,0,1,6.79309.73564,6.099,6.099,0,0,1,.85238.75739l.1385.1339,4.649,4.94188v-.98419A14.48123,14.48123,0,0,1,85.22254,5.90481L101.41231.49133a7.35211,7.35211,0,0,1,6.7931.734,6.16388,6.16388,0,0,1,.84862.75321l.1385.1339,41.04059,43.62116a7.73984,7.73984,0,0,1,2.02364,5.57248l.03433,59.83269-.15355.0519-25.23915,8.49953a8.96109,8.96109,0,0,1-2.83623.48247,6.51766,6.51766,0,0,1-4.69048-1.83367l-.05312-.05021-.10881-.11215-4.89041-5.20131V114.147a14.47192,14.47192,0,0,1-9.22428,12.82336l-16.18642,5.41263a7.21352,7.21352,0,0,1-7.44838-1.2817l-.108-.10586-8.248-8.77069-.205,20.91614a14.48219,14.48219,0,0,1-9.223,12.81664l-16.18977,5.41347A9.05955,9.05955,0,0,1,44.61963,161.86136Zm-4.61381-2.43747.2176.21927c1.7236,1.74326,4.35188,2.22489,7.11991,1.30052l16.18977-5.41347A13.99468,13.99468,0,0,0,72.44855,143.137l.21551-22.03341,9.10669,9.67536a6.78108,6.78108,0,0,0,6.99519,1.17835l16.18727-5.41348a13.99181,13.99181,0,0,0,8.91714-12.39863l.0025-2.30146,5.77461,6.13194a6.06742,6.06742,0,0,0,4.41715,1.74786,8.49,8.49,0,0,0,2.69438-.46029l25.08515-8.44763-.03392-59.51175a7.3066,7.3066,0,0,0-1.89891-5.26074l-40.8891-43.4588-.00376.00251-.16151-.16236a5.866,5.866,0,0,0-.91265-.8369,6.92186,6.92186,0,0,0-6.38719-.672L85.36649,6.32987a13.99886,13.99886,0,0,0-8.918,12.40113v2.11694L71.18066,15.25l-.00375.00334-.16739-.16739a5.85239,5.85239,0,0,0-.91431-.83689,6.91729,6.91729,0,0,0-6.38887-.67454l-16.194,5.416a13.9919,13.9919,0,0,0-8.913,12.39779l-.00375,2.36215-5.6206-5.95117a5.638,5.638,0,0,0-.81473-.72853,6.91667,6.91667,0,0,0-6.39516-.67369L.68339,34.84972.44906,114.13441a7.16381,7.16381,0,0,0,2.11525,5.46075l37.447,39.82373Zm4.62469,1.36331a5.45242,5.45242,0,0,1-3.925-1.54032L4.63521,120.88562l.70843.15523a7.81412,7.81412,0,0,0,4.16566-.31424L25.69823,115.314a13.996,13.996,0,0,0,8.91547-12.39779l.21635-69.92566a9.23191,9.23191,0,0,0-.19584-1.93657l-.16739-.78334L38.594,34.6547v.08788l-.08789,46.82774a7.17039,7.17039,0,0,0,2.13158,5.47413l.19249.177-.01632.01338,31.23425,33.2131-.22179,22.68366a13.33418,13.33418,0,0,1-8.49156,11.8086L47.145,160.35366a7.94259,7.94259,0,0,1-2.51485.43356ZM5.91525,121.59239l35.112,37.34108c1.43528,1.42274,3.615,1.78635,5.97671.99423l16.18977-5.41347a12.85308,12.85308,0,0,0,8.18444-11.38431h0L71.5983,120.627,40.29836,87.34321a7.72731,7.72731,0,0,1-2.23913-5.77082l.0883-46.73776-2.94715-3.13042a10.05292,10.05292,0,0,1,.07992,1.29092L35.064,102.92038a14.47618,14.47618,0,0,1-9.22178,12.82168L9.6524,121.15553a8.5629,8.5629,0,0,1-3.73756.43686ZM86.054,131.80045a5.45325,5.45325,0,0,1-3.84973-1.46751L42.69018,88.32283l.71137.15733a7.85346,7.85346,0,0,0,4.16482-.31343L63.7532,82.75326a13.99184,13.99184,0,0,0,8.918-12.39654l.09248-50.18411a9.23126,9.23126,0,0,0-.1929-1.93029l-.1653-.78334L76.451,21.7577v.09l.04686,47.02984a7.17946,7.17946,0,0,0,2.10187,5.45489l34.653,36.85235-.00378,2.96137a13.32694,13.32694,0,0,1-8.4945,11.80861L88.56763,131.369a7.95965,7.95965,0,0,1-2.51407.431ZM43.97355,89.03126,82.52186,130.017a5.70545,5.70545,0,0,0,5.90389.92434l16.18727-5.41347a12.84886,12.84886,0,0,0,8.18613-11.3843l.00378-2.7827L78.28006,74.64875a7.60692,7.60692,0,0,1-2.23368-5.77458l-.04687-46.939-2.86679-3.04757A9.77378,9.77378,0,0,1,73.211,20.171l-.09248,50.18411a14.472,14.472,0,0,1-9.22512,12.82168L47.7061,88.59105A8.602,8.602,0,0,1,43.97355,89.03126ZM6.79482,120.57181a5.572,5.572,0,0,1-3.31244-1.02311,6.3934,6.3934,0,0,1-2.41068-5.41513l.23349-78.83989.15189-.0523,24.50684-8.25767a6.3209,6.3209,0,0,1,5.83358.58919,6.38777,6.38777,0,0,1,2.409,5.416L33.991,102.91494a13.33058,13.33058,0,0,1-8.49159,11.8086L9.311,120.13829a7.94374,7.94374,0,0,1-2.51569.43352Zm-5.041-84.9555-.23267,78.51933A5.95979,5.95979,0,0,0,3.746,119.18506a5.88039,5.88039,0,0,0,5.4231.52641L25.358,114.298a12.852,12.852,0,0,0,8.184-11.38431l.21551-69.92607a5.95334,5.95334,0,0,0-2.22322-5.05068,5.89272,5.89272,0,0,0-5.42769-.52724ZM124.0332,119.11143a5.4114,5.4114,0,0,1-4.04013-1.66876L80.6769,75.633l.708.15566a7.845,7.845,0,0,0,4.17192-.31424L110.211,67.17154l.09874.10421,40.66187,43.1776-.33222.11214-24.08209,8.10823A7.97673,7.97673,0,0,1,124.0332,119.11143ZM81.95781,76.34012l38.36207,40.79453c1.43821,1.52148,3.66015,1.932,6.09514,1.11475l23.74986-7.99739L110.08214,67.6887,85.70083,75.90075A8.62333,8.62333,0,0,1,81.95781,76.34012Zm69.26156,33.47L110.642,66.72252v-.09L110.609,7.51582a9.27978,9.27978,0,0,0-.195-1.93364l-.16443-.78249,39.2086,41.67285a6.72256,6.72256,0,0,1,1.72692,4.83308ZM111.09016,66.54257l39.67813,42.13273-.03224-57.37137a6.27746,6.27746,0,0,0-1.60141-4.51923l-.0025-.00376-38.155-40.5531a9.87939,9.87939,0,0,1,.07994,1.288ZM44.84978,88.009a5.56542,5.56542,0,0,1-3.30785-1.02143,6.39489,6.39489,0,0,1-2.41446-5.41807l.09414-50.18411a13.32364,13.32364,0,0,1,8.48781-11.8086l16.194-5.41682a6.3966,6.3966,0,0,1,5.82648.58834A6.39825,6.39825,0,0,1,72.13969,20.168l-.09332,50.18411a13.32221,13.32221,0,0,1-8.4945,11.8086L47.3646,87.57507a7.95674,7.95674,0,0,1-2.51355.436ZM39.67232,31.38874l-.09414,50.1841a5.95964,5.95964,0,0,0,2.22824,5.05234,5.86934,5.86934,0,0,0,5.41891.52556l16.18809-5.41347a12.84683,12.84683,0,0,0,8.1861-11.3818l.09332-50.18411a5.96414,5.96414,0,0,0-2.22405-5.05486,5.8916,5.8916,0,0,0-5.42141-.52557l-16.194,5.416a12.846,12.846,0,0,0-8.18067,11.3843Zm43.16881,43.9308a5.56535,5.56535,0,0,1-3.31075-1.02311,6.39549,6.39549,0,0,1-2.41068-5.41976L77.07033,18.7319A13.33442,13.33442,0,0,1,85.56274,6.9191h0L101.755,1.50816a6.39155,6.39155,0,0,1,5.82564.58584,6.39517,6.39517,0,0,1,2.40817,5.41975l.03305,59.06611-.15273.05105L85.3602,74.88523A7.97317,7.97317,0,0,1,82.84113,75.31954ZM85.7054,7.34593a12.85406,12.85406,0,0,0-8.1861,11.38724l.04939,50.14519a5.962,5.962,0,0,0,2.2249,5.054,5.86222,5.86222,0,0,0,5.4231.52641l24.35371-8.20158-.03305-58.74389a5.95868,5.95868,0,0,0-2.222-5.054,5.89438,5.89438,0,0,0-5.42057-.52557Z"/></g></g></g></svg>