<svg width="171" height="182" viewBox="0 0 171 182" fill="none" xmlns="http://www.w3.org/2000/svg">
<path d="M170.7 58.2001C170.8 55.9001 170 53.7001 168.4 52.0001L122.7 3.40005L122.5 3.30005C122.2 3.00005 121.9 2.70005 121.6 2.50005C119.6 1.00005 116.9 0.700052 114 1.70005L96 7.70005C90.3 9.60005 85.7 16.0001 85.7 22.0001V23.0001L80.5 17.5001L80.3 17.4001C80 17.1001 79.7 16.8001 79.3 16.6001C77.3 15.1001 74.6 14.8001 71.7 15.8001L53.6 21.8001C48.2 23.6 43.5 30.0001 43.5 36.0001V37.4001L38.1 31.7001L37.9 31.5001C37.7 31.2001 37.4 31.0001 37.1 30.8001C35.1 29.3001 32.4 29.0001 29.5 30.0001L1.4 39.4001L1.2 39.5001L1 128.2C1 130.9 1.9 133.1 3.5 134.6L44.9 178.6L45.5 179.2C46.9 180.6 48.8 181.4 50.8 181.3C51.9 181.3 53 181.1 54 180.8L72 174.8C77.7 172.9 82.3 166.5 82.3 160.5L82.5 137.2L91.7 147L91.8 147.1C93.9 149.1 96.9 149.6 100.1 148.5L118.1 142.5C123.8 140.6 128.4 134.2 128.4 128.2V126.9L133.9 132.7L134 132.8L134.1 132.9C135.5 134.3 137.4 135 139.3 134.9C140.4 134.9 141.4 134.7 142.5 134.4L170.6 124.9L170.8 124.8L170.7 58.2001ZM80.6 160.6C80.6 165.9 76.5 171.6 71.5 173.3L53.5 179.3C50.9 180.2 48.4 179.8 46.8 178.2L7.6 136.6C9 136.7 10.4 136.6 11.8 136.1L29.8 130.1C35.5 128.2 40.1 121.8 40.1 115.8L40.3 37.8001C40.3 37.3001 40.3 36.8001 40.2 36.4001L43.5 39.9001L43.4 92.0001C43.3 94.4001 44.2 96.7001 45.9 98.4001L80.8 135.5L80.6 160.6ZM85.8 74.3001V77.8001C85.8 80.5001 86.7 82.7001 88.3 84.2001L126.8 125.1V128.2C126.8 133.5 122.7 139.2 117.7 140.9L99.7 146.9C97.1 147.8 94.7 147.4 93.1 145.9L50 100.3C51.4 100.4 52.8 100.3 54.2 99.8001L62 97.2001L63.2 96.8001L72.2 93.8001C77.9 91.9001 82.5 85.5001 82.5 79.5001L82.6 23.6001C82.6 23.1001 82.6 22.6001 82.5 22.2001L85.7 25.6001L85.8 74.3001ZM85.7 25.5001V74.3001V25.5001ZM85.8 51.6001V62.2001V51.6001ZM141.9 132.8C139.2 133.7 136.7 133.3 135.1 131.6L92.4 86.1001C93.6 86.2001 94.8 86.1001 95.9 85.8001L97.2 85.4001L123.8 76.4001L142.2 96.0001L142.3 96.1001L152.8 107.2L153.8 108.2L168.5 123.9L141.9 132.8ZM124.8 75.2001V9.40005C124.8 8.90005 124.8 8.40005 124.7 8.00005L167.2 53.2001C168.4 54.6001 169.1 56.4001 169 58.2001V122.2L124.8 75.2001Z" fill="white"/>
</svg>
