<svg id="Layer_1" data-name="Layer 1" xmlns="http://www.w3.org/2000/svg" width="169.77637" height="180.44669" viewBox="0 0 169.77637 180.44669"><defs><style>.cls-1{fill:#fff;}</style></defs><path class="cls-1" d="M169.57453,57.24905a8.62816,8.62816,0,0,0-2.25635-6.2124L121.56574,2.41031l-.15405-.14917a6.86545,6.86545,0,0,0-.94629-.84107,8.19686,8.19686,0,0,0-7.57324-.81824L94.84345,6.63662C89.19,8.52676,84.57771,14.94156,84.55891,20.93643v1.09741l-5.18286-5.509-.15406-.14942a6.80683,6.80683,0,0,0-.95044-.84594,8.19432,8.19432,0,0,0-7.57324-.82l-18.0542,6.03772c-5.65173,1.88965-10.26172,8.302-10.27856,14.29517v1.37475l-5.39307-5.7279-.18725-.18128-.00306.003a6.445,6.445,0,0,0-.79882-.69006,8.20758,8.20758,0,0,0-7.58289-.82007L.26887,38.48184l-.17041.05737-.26221,88.74756a8.465,8.465,0,0,0,2.50659,6.44568l41.40161,44.03149-.01635.01575.59167.59876a7.21752,7.21752,0,0,0,5.25708,2.121,10.09317,10.09317,0,0,0,3.19592-.5481l18.04883-6.03467c5.65161-1.89135,10.26343-8.302,10.2815-14.28784l.22839-23.31787,9.19336,9.77271.12085.12085c2.05261,1.95971,5.12414,2.49145,8.30627,1.42907l18.04505-6.03479c5.65466-1.89062,10.2677-8.30444,10.28393-14.29626V125.998l5.45227,5.80091.12085.12512.06043.05615a7.26621,7.26621,0,0,0,5.22815,2.0437,9.991,9.991,0,0,0,3.162-.53784l28.137-9.47314.171-.06031ZM79.40693,159.61734a14.32763,14.32763,0,0,1-9.12439,12.68945l-18.04871,6.03479c-2.6322.88586-5.06262.4762-6.66259-1.10828L6.42817,135.60562a9.54417,9.54417,0,0,0,4.16272-.48694l18.04883-6.03479c5.65161-1.89136,10.264-8.30383,10.281-14.29395l.2417-77.95532a11.20231,11.20231,0,0,0-.08886-1.43872l3.2854,3.4895-.0979,52.10511A8.61366,8.61366,0,0,0,44.75727,97.424l34.895,37.10608ZM84.6092,73.31363l.00342,3.52514a8.4824,8.4824,0,0,0,2.49023,6.43531l38.48487,40.928-.00367,3.1023a14.32254,14.32254,0,0,1-9.12426,12.68945l-18.04566,6.03491c-2.58813.86109-4.99072.48389-6.58179-1.03027L48.85725,99.30581A9.59085,9.59085,0,0,0,53.01753,98.82l7.78234-2.603,1.2323-.41223L71.0633,92.784c5.65467-1.88952,10.26758-8.3031,10.28443-14.29382l.10351-55.947a10.86577,10.86577,0,0,0-.08716-1.43079l3.19654,3.3971m0,0,.04858,48.8042M84.58674,50.6774l.0105,10.62719M84.586,49.95425m56.17968,81.9231c-2.71435.91064-5.19189.45324-6.79492-1.24292L91.20466,85.157a9.608,9.608,0,0,0,3.50195-.296l1.26685-.39526,26.582-8.9552,18.43384,19.574.07812.08289,10.4624,11.10949.96509,1.02478,14.74781,15.65992Zm-17.082-57.64185-.04052-65.80493a10.98632,10.98632,0,0,0-.08875-1.43579l42.5365,45.20984.00305.00427a6.99919,6.99919,0,0,1,1.78552,5.03833l.03638,63.95947Z"/></svg>