<svg id="Layer_1" data-name="Layer 1" xmlns="http://www.w3.org/2000/svg" width="169.77637" height="180.44669" viewBox="0 0 169.77637 180.44669"><defs><style>.cls-1{fill:#fff;}</style></defs><g id="Group_1471" data-name="Group 1471"><g id="Group_1236-2" data-name="Group 1236-2"><g id="Group_1234-2" data-name="Group 1234-2"><g id="Group_1080-2" data-name="Group 1080-2"><circle id="Ellipse_1621-2" data-name="Ellipse 1621-2" class="cls-1" cx="16.54784" cy="38.98218" r="0.51302"/><path id="Path_1363-2" data-name="Path 1363-2" class="cls-1" d="M16.54847,39.746a.76348.76348,0,1,1,.76319-.76318.76377.76377,0,0,1-.76319.76318Zm0-1.02725a.26283.26283,0,1,1,0,.00122Z"/></g><g id="Group_1081-2" data-name="Group 1081-2"><circle id="Ellipse_1622-2" data-name="Ellipse 1622-2" class="cls-1" cx="27.86147" cy="38.98218" r="0.51302"/><path id="Path_1364-2" data-name="Path 1364-2" class="cls-1" d="M27.86145,39.746a.76348.76348,0,1,1,.76319-.76318.76377.76377,0,0,1-.76319.76318Zm0-1.02725a.26283.26283,0,1,1,0,.00122Z"/></g><g id="Group_1082-2" data-name="Group 1082-2"><circle id="Ellipse_1623-2" data-name="Ellipse 1623-2" class="cls-1" cx="50.48751" cy="38.98218" r="0.51302"/><path id="Path_1365-2" data-name="Path 1365-2" class="cls-1" d="M50.48813,39.746a.76348.76348,0,1,1,.76319-.76318.76377.76377,0,0,1-.76319.76318Zm0-1.02725a.26283.26283,0,1,1,0,.00122Z"/></g><g id="Group_1083-2" data-name="Group 1083-2"><circle id="Ellipse_1624-2" data-name="Ellipse 1624-2" class="cls-1" cx="5.23482" cy="50.31635" r="0.51302"/><path id="Path_1366-2" data-name="Path 1366-2" class="cls-1" d="M5.23482,51.08013a.76378.76378,0,1,1,.76378-.76377A.76439.76439,0,0,1,5.23482,51.08013Zm0-1.02725a.26344.26344,0,1,0,.26345.26344A.26347.26347,0,0,0,5.23482,50.05288Z"/></g><g id="Group_1084-2" data-name="Group 1084-2"><circle id="Ellipse_1625-2" data-name="Ellipse 1625-2" class="cls-1" cx="16.54784" cy="50.31635" r="0.51302"/><path id="Path_1367-2" data-name="Path 1367-2" class="cls-1" d="M16.54847,51.08013a.76378.76378,0,1,1,.76319-.76377A.7644.7644,0,0,1,16.54847,51.08013Zm0-1.02725a.26344.26344,0,1,0,.26226.26344A.26467.26467,0,0,0,16.54847,50.05288Z"/></g><g id="Group_1085-2" data-name="Group 1085-2"><circle id="Ellipse_1626-2" data-name="Ellipse 1626-2" class="cls-1" cx="27.86147" cy="50.31635" r="0.51302"/><path id="Path_1368-2" data-name="Path 1368-2" class="cls-1" d="M27.86145,51.08013a.76378.76378,0,1,1,.76319-.76377A.7644.7644,0,0,1,27.86145,51.08013Zm0-1.02725a.26344.26344,0,1,0,.26227.26344A.26467.26467,0,0,0,27.86145,50.05288Z"/></g><g id="Group_1086-2" data-name="Group 1086-2"><circle id="Ellipse_1627-2" data-name="Ellipse 1627-2" class="cls-1" cx="50.48751" cy="50.31635" r="0.51302"/><path id="Path_1369-2" data-name="Path 1369-2" class="cls-1" d="M50.48813,51.08013a.76378.76378,0,1,1,.76319-.76377A.7644.7644,0,0,1,50.48813,51.08013Zm0-1.02725a.26344.26344,0,1,0,.26227.26344A.26467.26467,0,0,0,50.48813,50.05288Z"/></g><g id="Group_1087-2" data-name="Group 1087-2"><circle id="Ellipse_1628-2" data-name="Ellipse 1628-2" class="cls-1" cx="5.23482" cy="61.64931" r="0.51302"/><path id="Path_1370-2" data-name="Path 1370-2" class="cls-1" d="M5.23482,62.4131a.76319.76319,0,0,1,0-1.52637h0a.76319.76319,0,1,1,0,1.52637Zm0-1.02726a.26227.26227,0,0,0-.00121.52453h.00121a.26137.26137,0,1,0,0-.52272Z"/></g><g id="Group_1088-2" data-name="Group 1088-2"><circle id="Ellipse_1629-2" data-name="Ellipse 1629-2" class="cls-1" cx="16.54784" cy="61.64931" r="0.51302"/><path id="Path_1371-2" data-name="Path 1371-2" class="cls-1" d="M16.54847,62.4131a.76319.76319,0,1,1,.76319-.76319A.7644.7644,0,0,1,16.54847,62.4131Zm0-1.02726a.26227.26227,0,1,0,.26226.2623v0a.26342.26342,0,0,0-.26226-.26045Z"/></g><g id="Group_1089-2" data-name="Group 1089-2"><circle id="Ellipse_1630-2" data-name="Ellipse 1630-2" class="cls-1" cx="27.86147" cy="61.64931" r="0.51302"/><path id="Path_1372-2" data-name="Path 1372-2" class="cls-1" d="M27.86145,62.4131a.76319.76319,0,1,1,.76319-.76319h0A.76378.76378,0,0,1,27.86145,62.4131Zm0-1.02726a.26227.26227,0,1,0,.26227.2623v0a.26344.26344,0,0,0-.26227-.26045Z"/></g><g id="Group_1090-2" data-name="Group 1090-2"><circle id="Ellipse_1631-2" data-name="Ellipse 1631-2" class="cls-1" cx="50.48751" cy="61.64931" r="0.51302"/><path id="Path_1373-2" data-name="Path 1373-2" class="cls-1" d="M50.48813,62.4131a.76319.76319,0,1,1,.76319-.76319h0A.76378.76378,0,0,1,50.48813,62.4131Zm0-1.02726a.26136.26136,0,1,1,0,.00181Z"/></g><g id="Group_1091-2" data-name="Group 1091-2"><circle id="Ellipse_1632-2" data-name="Ellipse 1632-2" class="cls-1" cx="5.23482" cy="72.98348" r="0.51302"/><path id="Path_1374-2" data-name="Path 1374-2" class="cls-1" d="M5.23482,73.74908a.7632.7632,0,0,1-.76318-.76318h0a.76348.76348,0,1,1,.76318.76318Zm0-1.02725a.26285.26285,0,1,0,.26345.26344A.26286.26286,0,0,0,5.23482,72.72183Z"/></g><g id="Group_1092-2" data-name="Group 1092-2"><circle id="Ellipse_1633-2" data-name="Ellipse 1633-2" class="cls-1" cx="16.54784" cy="72.98348" r="0.51302"/><path id="Path_1375-2" data-name="Path 1375-2" class="cls-1" d="M16.54847,73.74908a.76348.76348,0,1,1,.76319-.76318.76377.76377,0,0,1-.76319.76318Zm0-1.02725a.26285.26285,0,1,0,.26226.26344A.26344.26344,0,0,0,16.54847,72.72183Z"/></g><g id="Group_1093-2" data-name="Group 1093-2"><circle id="Ellipse_1634-2" data-name="Ellipse 1634-2" class="cls-1" cx="27.86147" cy="72.98348" r="0.51302"/><path id="Path_1376-2" data-name="Path 1376-2" class="cls-1" d="M27.86145,73.74908a.76348.76348,0,1,1,.76319-.76318.76377.76377,0,0,1-.76319.76318Zm0-1.02725a.26285.26285,0,1,0,.26227.26344A.26344.26344,0,0,0,27.86145,72.72183Z"/></g><g id="Group_1094-2" data-name="Group 1094-2"><circle id="Ellipse_1635-2" data-name="Ellipse 1635-2" class="cls-1" cx="50.48751" cy="72.98348" r="0.51302"/><path id="Path_1377-2" data-name="Path 1377-2" class="cls-1" d="M50.48813,73.74908a.76348.76348,0,1,1,.76319-.76318.76377.76377,0,0,1-.76319.76318Zm0-1.02725a.26285.26285,0,1,0,.26227.26344A.26344.26344,0,0,0,50.48813,72.72183Z"/></g><g id="Group_1095-2" data-name="Group 1095-2"><circle id="Ellipse_1636-2" data-name="Ellipse 1636-2" class="cls-1" cx="5.23482" cy="84.31705" r="0.51302"/><path id="Path_1378-2" data-name="Path 1378-2" class="cls-1" d="M5.23482,85.08083a.76409.76409,0,1,1,.76378-.76377A.76439.76439,0,0,1,5.23482,85.08083Zm0-1.02726a.26345.26345,0,1,0,.26345.26345.26349.26349,0,0,0-.26345-.26345Z"/></g><g id="Group_1096-2" data-name="Group 1096-2"><circle id="Ellipse_1637-2" data-name="Ellipse 1637-2" class="cls-1" cx="16.54784" cy="84.31705" r="0.51302"/><path id="Path_1379-2" data-name="Path 1379-2" class="cls-1" d="M16.54847,85.08083a.76409.76409,0,1,1,.76319-.76377A.7644.7644,0,0,1,16.54847,85.08083Zm0-1.02726a.26345.26345,0,1,0,.26226.26345.26406.26406,0,0,0-.26226-.26345Z"/></g><g id="Group_1097-2" data-name="Group 1097-2"><circle id="Ellipse_1638-2" data-name="Ellipse 1638-2" class="cls-1" cx="27.86147" cy="84.31705" r="0.51302"/><path id="Path_1380-2" data-name="Path 1380-2" class="cls-1" d="M27.86145,85.08083a.76409.76409,0,1,1,.76319-.76377A.7644.7644,0,0,1,27.86145,85.08083Zm0-1.02726a.26345.26345,0,1,0,.26227.26345.26406.26406,0,0,0-.26227-.26345Z"/></g><g id="Group_1098-2" data-name="Group 1098-2"><circle id="Ellipse_1639-2" data-name="Ellipse 1639-2" class="cls-1" cx="50.48751" cy="84.31705" r="0.51302"/><path id="Path_1381-2" data-name="Path 1381-2" class="cls-1" d="M50.48813,85.08083a.76409.76409,0,1,1,.76319-.76377A.7644.7644,0,0,1,50.48813,85.08083Zm0-1.02726a.26345.26345,0,1,0,.26227.26345.26407.26407,0,0,0-.26227-.26345Z"/></g><g id="Group_1099-2" data-name="Group 1099-2"><circle id="Ellipse_1640-2" data-name="Ellipse 1640-2" class="cls-1" cx="5.23482" cy="95.6506" r="0.51302"/><path id="Path_1382-2" data-name="Path 1382-2" class="cls-1" d="M5.23482,96.41439a.76319.76319,0,1,1,.76378-.76318A.76377.76377,0,0,1,5.23482,96.41439Zm0-1.02725a.26224.26224,0,0,0-.26226.26222v0a.26164.26164,0,0,0,.26105.26226h.00121a.26137.26137,0,1,0,0-.52272Z"/></g><g id="Group_1100-2" data-name="Group 1100-2"><circle id="Ellipse_1641-2" data-name="Ellipse 1641-2" class="cls-1" cx="16.54784" cy="95.6506" r="0.51302"/><path id="Path_1383-2" data-name="Path 1383-2" class="cls-1" d="M16.54847,96.41439a.76319.76319,0,1,1,.76319-.76318A.76439.76439,0,0,1,16.54847,96.41439Zm0-1.02725a.26136.26136,0,1,1,0,.0018Z"/></g><g id="Group_1101-2" data-name="Group 1101-2"><circle id="Ellipse_1642-2" data-name="Ellipse 1642-2" class="cls-1" cx="27.86147" cy="95.6506" r="0.51302"/><path id="Path_1384-2" data-name="Path 1384-2" class="cls-1" d="M27.86145,96.41439a.76319.76319,0,1,1,.76319-.76318A.76439.76439,0,0,1,27.86145,96.41439Zm0-1.02725a.26226.26226,0,1,0,.26227.2623v0a.26289.26289,0,0,0-.26227-.26046Z"/></g><g id="Group_1102-2" data-name="Group 1102-2"><circle id="Ellipse_1643-2" data-name="Ellipse 1643-2" class="cls-1" cx="50.48751" cy="95.6506" r="0.51302"/><path id="Path_1385-2" data-name="Path 1385-2" class="cls-1" d="M50.48813,96.41439a.76319.76319,0,1,1,.76319-.76318A.76439.76439,0,0,1,50.48813,96.41439Zm0-1.02725a.26136.26136,0,1,1,0,.0018Z"/></g><g id="Group_1103-2" data-name="Group 1103-2"><circle id="Ellipse_1644-2" data-name="Ellipse 1644-2" class="cls-1" cx="5.23482" cy="106.98478" r="0.51302"/><path id="Path_1386-2" data-name="Path 1386-2" class="cls-1" d="M5.23482,107.748a.7632.7632,0,0,1-.76318-.76318h0a.76348.76348,0,1,1,.76318.76318Zm0-1.02725a.26285.26285,0,0,0,0,.5257h0a.26225.26225,0,1,0,0-.52449Z"/></g><g id="Group_1104-2" data-name="Group 1104-2"><circle id="Ellipse_1645-2" data-name="Ellipse 1645-2" class="cls-1" cx="16.54784" cy="106.98478" r="0.51302"/><path id="Path_1387-2" data-name="Path 1387-2" class="cls-1" d="M16.54847,107.748a.76348.76348,0,1,1,.76319-.76318.76377.76377,0,0,1-.76319.76318Zm0-1.02725a.26284.26284,0,1,1,0,.00121Z"/></g><g id="Group_1105-2" data-name="Group 1105-2"><circle id="Ellipse_1646-2" data-name="Ellipse 1646-2" class="cls-1" cx="27.86147" cy="106.98478" r="0.51302"/><path id="Path_1388-2" data-name="Path 1388-2" class="cls-1" d="M27.86145,107.748a.76348.76348,0,1,1,.76319-.76318.76377.76377,0,0,1-.76319.76318Zm0-1.02725a.26284.26284,0,1,1,0,.00121Z"/></g><g id="Group_1106-2" data-name="Group 1106-2"><circle id="Ellipse_1647-2" data-name="Ellipse 1647-2" class="cls-1" cx="50.48751" cy="106.98478" r="0.51302"/><path id="Path_1389-2" data-name="Path 1389-2" class="cls-1" d="M50.48813,107.748a.76348.76348,0,1,1,.76319-.76318.76377.76377,0,0,1-.76319.76318Zm0-1.02725a.26284.26284,0,1,1,0,.00121Z"/></g><g id="Group_1107-2" data-name="Group 1107-2"><circle id="Ellipse_1648-2" data-name="Ellipse 1648-2" class="cls-1" cx="5.23482" cy="118.31834" r="0.51302"/><path id="Path_1390-2" data-name="Path 1390-2" class="cls-1" d="M5.23482,119.08213a.76378.76378,0,1,1,.76378-.76378A.7644.7644,0,0,1,5.23482,119.08213Zm0-1.02726a.26345.26345,0,1,0,.26345.26344.26348.26348,0,0,0-.26345-.26344Z"/></g><g id="Group_1108-2" data-name="Group 1108-2"><circle id="Ellipse_1649-2" data-name="Ellipse 1649-2" class="cls-1" cx="16.54784" cy="118.31834" r="0.51302"/><path id="Path_1391-2" data-name="Path 1391-2" class="cls-1" d="M16.54847,119.08213a.76378.76378,0,1,1,.76319-.76378A.7644.7644,0,0,1,16.54847,119.08213Zm0-1.02726a.26345.26345,0,1,0,.26226.26344.26406.26406,0,0,0-.26226-.26344Z"/></g><g id="Group_1109-2" data-name="Group 1109-2"><circle id="Ellipse_1650-2" data-name="Ellipse 1650-2" class="cls-1" cx="27.86147" cy="118.31834" r="0.51302"/><path id="Path_1392-2" data-name="Path 1392-2" class="cls-1" d="M27.86145,119.08213a.76378.76378,0,1,1,.76319-.76378A.7644.7644,0,0,1,27.86145,119.08213Zm0-1.02726a.26345.26345,0,1,0,.26227.26344.26406.26406,0,0,0-.26227-.26344Z"/></g><g id="Group_1110-2" data-name="Group 1110-2"><circle id="Ellipse_1651-2" data-name="Ellipse 1651-2" class="cls-1" cx="50.48751" cy="118.31834" r="0.51302"/><path id="Path_1393-2" data-name="Path 1393-2" class="cls-1" d="M50.48813,119.08213a.76378.76378,0,1,1,.76319-.76378A.7644.7644,0,0,1,50.48813,119.08213Zm0-1.02726a.26345.26345,0,1,0,.26227.26344.26406.26406,0,0,0-.26227-.26344Z"/></g><g id="Group_1111-2" data-name="Group 1111-2"><circle id="Ellipse_1652-2" data-name="Ellipse 1652-2" class="cls-1" cx="5.23482" cy="129.6519" r="0.51302"/><path id="Path_1394-2" data-name="Path 1394-2" class="cls-1" d="M5.23482,130.41509a.76319.76319,0,1,1,.76378-.76319A.76378.76378,0,0,1,5.23482,130.41509Zm0-1.02726a.26227.26227,0,0,0-.00121.52453h.00121a.26135.26135,0,1,0,0-.52268Z"/></g><g id="Group_1112-2" data-name="Group 1112-2"><circle id="Ellipse_1653-2" data-name="Ellipse 1653-2" class="cls-1" cx="16.54784" cy="129.6519" r="0.51302"/><path id="Path_1395-2" data-name="Path 1395-2" class="cls-1" d="M16.54847,130.41509a.76319.76319,0,1,1,.76319-.76319A.76439.76439,0,0,1,16.54847,130.41509Zm0-1.02726a.26135.26135,0,1,1,0,.00185Z"/></g><g id="Group_1113-2" data-name="Group 1113-2"><circle id="Ellipse_1654-2" data-name="Ellipse 1654-2" class="cls-1" cx="39.17509" cy="129.6519" r="0.51302"/><path id="Path_1396-2" data-name="Path 1396-2" class="cls-1" d="M39.17446,130.41509a.76319.76319,0,1,1,.76319-.76319h0a.76321.76321,0,0,1-.76319.76319Zm0-1.02726a.26227.26227,0,0,0-.00121.52453h.00121a.26164.26164,0,0,0,.26227-.26105v-.00121a.26287.26287,0,0,0-.26227-.26042Z"/></g><g id="Group_1114-2" data-name="Group 1114-2"><circle id="Ellipse_1655-2" data-name="Ellipse 1655-2" class="cls-1" cx="50.48751" cy="129.6519" r="0.51302"/><path id="Path_1397-2" data-name="Path 1397-2" class="cls-1" d="M50.48813,130.41509a.76319.76319,0,1,1,.76319-.76319A.76439.76439,0,0,1,50.48813,130.41509Zm0-1.02726a.26135.26135,0,1,1,0,.00185Z"/></g><g id="Group_1115-2" data-name="Group 1115-2"><circle id="Ellipse_1656-2" data-name="Ellipse 1656-2" class="cls-1" cx="16.54784" cy="140.98547" r="0.51302"/><path id="Path_1398-2" data-name="Path 1398-2" class="cls-1" d="M16.54847,141.74986a.76378.76378,0,1,1,.76319-.76377A.7644.7644,0,0,1,16.54847,141.74986Zm0-1.02725a.26344.26344,0,1,0,.26226.26344.26343.26343,0,0,0-.26226-.26344Z"/></g><g id="Group_1116-2" data-name="Group 1116-2"><circle id="Ellipse_1657-2" data-name="Ellipse 1657-2" class="cls-1" cx="27.86147" cy="140.98547" r="0.51302"/><path id="Path_1399-2" data-name="Path 1399-2" class="cls-1" d="M27.86145,141.74986a.76378.76378,0,1,1,.76319-.76377A.7644.7644,0,0,1,27.86145,141.74986Zm0-1.02725a.26344.26344,0,1,0,.26227.26344.26344.26344,0,0,0-.26227-.26344Z"/></g><g id="Group_1117-2" data-name="Group 1117-2"><circle id="Ellipse_1658-2" data-name="Ellipse 1658-2" class="cls-1" cx="39.17509" cy="140.98547" r="0.51302"/><path id="Path_1400-2" data-name="Path 1400-2" class="cls-1" d="M39.17446,141.74986a.76378.76378,0,1,1,.76319-.76377A.76439.76439,0,0,1,39.17446,141.74986Zm0-1.02725a.26344.26344,0,1,0,.26227.26344.26285.26285,0,0,0-.26227-.26344Z"/></g><g id="Group_1118-2" data-name="Group 1118-2"><circle id="Ellipse_1659-2" data-name="Ellipse 1659-2" class="cls-1" cx="50.48751" cy="140.98547" r="0.51302"/><path id="Path_1401-2" data-name="Path 1401-2" class="cls-1" d="M50.48813,141.74986a.76378.76378,0,1,1,.76319-.76377A.7644.7644,0,0,1,50.48813,141.74986Zm0-1.02725a.26344.26344,0,1,0,.26227.26344.26344.26344,0,0,0-.26227-.26344Z"/></g><g id="Group_1119-2" data-name="Group 1119-2"><circle id="Ellipse_1660-2" data-name="Ellipse 1660-2" class="cls-1" cx="27.86147" cy="152.31903" r="0.51302"/><path id="Path_1402-2" data-name="Path 1402-2" class="cls-1" d="M27.86145,153.08281a.76348.76348,0,1,1,.76319-.76378h0A.7644.7644,0,0,1,27.86145,153.08281Zm0-1.02726a.26165.26165,0,1,1,0,.00122Z"/></g><g id="Group_1120-2" data-name="Group 1120-2"><circle id="Ellipse_1661-2" data-name="Ellipse 1661-2" class="cls-1" cx="39.17509" cy="152.31903" r="0.51302"/><path id="Path_1403-2" data-name="Path 1403-2" class="cls-1" d="M39.17446,153.08281a.76348.76348,0,0,1,0-1.527h0a.76259.76259,0,0,1,.76319.762v.00122A.76379.76379,0,0,1,39.17446,153.08281Zm0-1.02726a.26224.26224,0,0,0-.26226.26223v0a.26227.26227,0,1,0,.26226-.261Z"/></g><g id="Group_1121-2" data-name="Group 1121-2"><circle id="Ellipse_1662-2" data-name="Ellipse 1662-2" class="cls-1" cx="50.48751" cy="152.31903" r="0.51302"/><path id="Path_1404-2" data-name="Path 1404-2" class="cls-1" d="M50.48813,153.08281a.76348.76348,0,1,1,.76319-.76378h0A.7644.7644,0,0,1,50.48813,153.08281Zm0-1.02726a.26165.26165,0,1,1,0,.00122Z"/></g><g id="Group_1122-2" data-name="Group 1122-2"><circle id="Ellipse_1663-2" data-name="Ellipse 1663-2" class="cls-1" cx="61.80113" cy="38.98218" r="0.51302"/><path id="Path_1405-2" data-name="Path 1405-2" class="cls-1" d="M61.80112,39.746a.76348.76348,0,1,1,.76318-.76318.7644.7644,0,0,1-.76318.76318Zm0-1.02725a.26283.26283,0,1,1,0,.00122Z"/></g><g id="Group_1123-2" data-name="Group 1123-2"><circle id="Ellipse_1664-2" data-name="Ellipse 1664-2" class="cls-1" cx="50.48751" cy="27.64801" r="0.51302"/><path id="Path_1406-2" data-name="Path 1406-2" class="cls-1" d="M50.48813,28.4118a.76319.76319,0,1,1,.76319-.76319h0A.76378.76378,0,0,1,50.48813,28.4118Zm0-1.02726a.26137.26137,0,1,1,0,.00181Z"/></g><g id="Group_1124-2" data-name="Group 1124-2"><circle id="Ellipse_1665-2" data-name="Ellipse 1665-2" class="cls-1" cx="61.80113" cy="27.64801" r="0.51302"/><path id="Path_1407-2" data-name="Path 1407-2" class="cls-1" d="M61.80112,28.4118a.76319.76319,0,1,1,.76318-.76319h0A.76377.76377,0,0,1,61.80112,28.4118Zm0-1.02726a.26137.26137,0,1,1,0,.00181Z"/></g><g id="Group_1125-2" data-name="Group 1125-2"><circle id="Ellipse_1666-2" data-name="Ellipse 1666-2" class="cls-1" cx="61.80113" cy="50.31635" r="0.51302"/><path id="Path_1408-2" data-name="Path 1408-2" class="cls-1" d="M61.80112,51.08013a.76378.76378,0,1,1,.76318-.76377A.765.765,0,0,1,61.80112,51.08013Zm0-1.02725a.26344.26344,0,1,0,.26226.26344A.26406.26406,0,0,0,61.80112,50.05288Z"/></g><g id="Group_1126-2" data-name="Group 1126-2"><circle id="Ellipse_1667-2" data-name="Ellipse 1667-2" class="cls-1" cx="61.80113" cy="61.64931" r="0.51302"/><path id="Path_1409-2" data-name="Path 1409-2" class="cls-1" d="M61.80112,62.4131a.76319.76319,0,1,1,.76318-.76319h0A.76378.76378,0,0,1,61.80112,62.4131Zm0-1.02726a.26227.26227,0,1,0,.26226.2623v0a.26343.26343,0,0,0-.26226-.26045Z"/></g><g id="Group_1127-2" data-name="Group 1127-2"><circle id="Ellipse_1668-2" data-name="Ellipse 1668-2" class="cls-1" cx="61.80113" cy="72.98348" r="0.51302"/><path id="Path_1410-2" data-name="Path 1410-2" class="cls-1" d="M61.80112,73.74908a.76348.76348,0,1,1,.76318-.76318.7644.7644,0,0,1-.76318.76318Zm0-1.02725a.26285.26285,0,1,0,.26226.26344A.26345.26345,0,0,0,61.80112,72.72183Z"/></g><g id="Group_1128-2" data-name="Group 1128-2"><circle id="Ellipse_1669-2" data-name="Ellipse 1669-2" class="cls-1" cx="61.80113" cy="84.31705" r="0.51302"/><path id="Path_1411-2" data-name="Path 1411-2" class="cls-1" d="M61.80112,85.08083a.76409.76409,0,1,1,.76318-.76377A.765.765,0,0,1,61.80112,85.08083Zm0-1.02726a.26345.26345,0,1,0,.26226.26345.26408.26408,0,0,0-.26226-.26345Z"/></g><g id="Group_1129-2" data-name="Group 1129-2"><circle id="Ellipse_1670-2" data-name="Ellipse 1670-2" class="cls-1" cx="61.80113" cy="95.6506" r="0.51302"/><path id="Path_1412-2" data-name="Path 1412-2" class="cls-1" d="M61.80112,96.41439a.76319.76319,0,1,1,.76318-.76318A.765.765,0,0,1,61.80112,96.41439Zm0-1.02725a.26136.26136,0,1,1,0,.0018Z"/></g><g id="Group_1130-2" data-name="Group 1130-2"><circle id="Ellipse_1671-2" data-name="Ellipse 1671-2" class="cls-1" cx="61.80113" cy="106.98478" r="0.51302"/><path id="Path_1413-2" data-name="Path 1413-2" class="cls-1" d="M61.80112,107.748a.76348.76348,0,1,1,.76318-.76318.7644.7644,0,0,1-.76318.76318Zm0-1.02725a.26284.26284,0,1,1,0,.00121Z"/></g><g id="Group_1131-2" data-name="Group 1131-2"><circle id="Ellipse_1672-2" data-name="Ellipse 1672-2" class="cls-1" cx="61.80113" cy="118.31834" r="0.51302"/><path id="Path_1414-2" data-name="Path 1414-2" class="cls-1" d="M61.80112,119.08213a.76378.76378,0,1,1,.76318-.76378A.765.765,0,0,1,61.80112,119.08213Zm0-1.02726a.26345.26345,0,1,0,.26226.26344.26407.26407,0,0,0-.26226-.26344Z"/></g><g id="Group_1132-2" data-name="Group 1132-2"><circle id="Ellipse_1673-2" data-name="Ellipse 1673-2" class="cls-1" cx="61.80113" cy="129.6519" r="0.51302"/><path id="Path_1415-2" data-name="Path 1415-2" class="cls-1" d="M61.80112,130.41509a.76319.76319,0,1,1,.76318-.76319A.765.765,0,0,1,61.80112,130.41509Zm0-1.02726a.26135.26135,0,1,1,0,.00185Z"/></g><g id="Group_1133-2" data-name="Group 1133-2"><circle id="Ellipse_1674-2" data-name="Ellipse 1674-2" class="cls-1" cx="61.80113" cy="140.98547" r="0.51302"/><path id="Path_1416-2" data-name="Path 1416-2" class="cls-1" d="M61.80112,141.74986a.76378.76378,0,1,1,.76318-.76377A.765.765,0,0,1,61.80112,141.74986Zm0-1.02725a.26344.26344,0,1,0,.26226.26344.26344.26344,0,0,0-.26226-.26344Z"/></g><g id="Group_1134-2" data-name="Group 1134-2"><circle id="Ellipse_1675-2" data-name="Ellipse 1675-2" class="cls-1" cx="61.80113" cy="152.31903" r="0.51302"/><path id="Path_1417-2" data-name="Path 1417-2" class="cls-1" d="M61.80112,153.08281a.76348.76348,0,1,1,.76318-.76378h0A.7644.7644,0,0,1,61.80112,153.08281Zm0-1.02726a.26165.26165,0,1,1,0,.00122Z"/></g><g id="Group_1135-2" data-name="Group 1135-2"><circle id="Ellipse_1676-2" data-name="Ellipse 1676-2" class="cls-1" cx="39.17509" cy="163.2" r="0.51302"/><path id="Path_1418-2" data-name="Path 1418-2" class="cls-1" d="M39.17446,163.96379a.76287.76287,0,1,1,.76319-.76378A.7644.7644,0,0,1,39.17446,163.96379Zm0-1.02726a.26164.26164,0,0,0-.26226.261h0a.26232.26232,0,1,0,.26226-.25681Z"/></g><g id="Group_1136-2" data-name="Group 1136-2"><circle id="Ellipse_1677-2" data-name="Ellipse 1677-2" class="cls-1" cx="50.48751" cy="163.2" r="0.51302"/><path id="Path_1419-2" data-name="Path 1419-2" class="cls-1" d="M50.48813,163.96379a.76287.76287,0,1,1,.76319-.76378A.7644.7644,0,0,1,50.48813,163.96379Zm0-1.02726a.259.259,0,1,1,0,.00424Z"/></g><g id="Group_1137-2" data-name="Group 1137-2"><circle id="Ellipse_1678-2" data-name="Ellipse 1678-2" class="cls-1" cx="61.80113" cy="163.2" r="0.51302"/><path id="Path_1420-2" data-name="Path 1420-2" class="cls-1" d="M61.80112,163.96379A.76287.76287,0,1,1,62.5643,163.2.765.765,0,0,1,61.80112,163.96379Zm0-1.02726a.259.259,0,1,1,0,.00424Z"/></g><g id="Group_1138-2" data-name="Group 1138-2"><circle id="Ellipse_1679-2" data-name="Ellipse 1679-2" class="cls-1" cx="50.48751" cy="174.08098" r="0.51302"/><path id="Path_1421-2" data-name="Path 1421-2" class="cls-1" d="M50.48813,174.84357a.76287.76287,0,1,1,.76319-.762A.76317.76317,0,0,1,50.48813,174.84357Zm0-1.02725a.26223.26223,0,1,1,0,.00243Z"/></g><g id="Group_1139-2" data-name="Group 1139-2"><circle id="Ellipse_1680-2" data-name="Ellipse 1680-2" class="cls-1" cx="61.80113" cy="174.08098" r="0.51302"/><path id="Path_1422-2" data-name="Path 1422-2" class="cls-1" d="M61.80112,174.84357a.76287.76287,0,1,1,.76318-.762A.76379.76379,0,0,1,61.80112,174.84357Zm0-1.02725a.26223.26223,0,1,1,0,.00243Z"/></g><g id="Group_1140-2" data-name="Group 1140-2"><circle id="Ellipse_1681-2" data-name="Ellipse 1681-2" class="cls-1" cx="73.11415" cy="38.98218" r="0.51302"/><path id="Path_1423-2" data-name="Path 1423-2" class="cls-1" d="M73.11416,39.746a.76258.76258,0,0,1-.76318-.762v-.00122a.76319.76319,0,1,1,.76318.76318Zm0-1.02725a.26286.26286,0,0,0,0,.52571h0a.26225.26225,0,1,0,0-.52449Z"/></g><g id="Group_1141-2" data-name="Group 1141-2"><circle id="Ellipse_1682-2" data-name="Ellipse 1682-2" class="cls-1" cx="84.42778" cy="38.98218" r="0.51302"/><path id="Path_1424-2" data-name="Path 1424-2" class="cls-1" d="M84.42715,39.746a.7632.7632,0,0,1-.76318-.76318h0a.76348.76348,0,1,1,.76318.76318Zm0-1.02725a.26283.26283,0,1,1,0,.00122Z"/></g><g id="Group_1142-2" data-name="Group 1142-2"><circle id="Ellipse_1683-2" data-name="Ellipse 1683-2" class="cls-1" cx="95.7408" cy="38.98218" r="0.51302"/><path id="Path_1425-2" data-name="Path 1425-2" class="cls-1" d="M95.7408,39.746a.7632.7632,0,0,1-.76319-.76318h0a.76348.76348,0,1,1,.76319.76318Zm0-1.02725a.26283.26283,0,1,1,0,.00122Z"/></g><g id="Group_1143-2" data-name="Group 1143-2"><circle id="Ellipse_1684-2" data-name="Ellipse 1684-2" class="cls-1" cx="107.05442" cy="38.98218" r="0.51302"/><path id="Path_1426-2" data-name="Path 1426-2" class="cls-1" d="M107.055,39.746a.76259.76259,0,0,1-.76319-.762v-.00122a.76319.76319,0,1,1,.76319.76318Zm0-1.02725a.26283.26283,0,1,1,0,.00122Z"/></g><g id="Group_1144-2" data-name="Group 1144-2"><circle id="Ellipse_1685-2" data-name="Ellipse 1685-2" class="cls-1" cx="118.36744" cy="38.98218" r="0.51302"/><path id="Path_1427-2" data-name="Path 1427-2" class="cls-1" d="M118.36743,39.746a.76348.76348,0,1,1,.76377-.76318A.7644.7644,0,0,1,118.36743,39.746Zm0-1.02725a.26283.26283,0,1,1,0,.00122Z"/></g><g id="Group_1145-2" data-name="Group 1145-2"><circle id="Ellipse_1686-2" data-name="Ellipse 1686-2" class="cls-1" cx="129.68046" cy="38.98218" r="0.51302"/><path id="Path_1428-2" data-name="Path 1428-2" class="cls-1" d="M129.67743,39.746a.7632.7632,0,0,1-.76318-.76318h0a.76348.76348,0,1,1,.76318.76318Zm0-1.02725a.26283.26283,0,1,1,0,.00122Z"/></g><g id="Group_1146-2" data-name="Group 1146-2"><circle id="Ellipse_1687-2" data-name="Ellipse 1687-2" class="cls-1" cx="140.99408" cy="38.98218" r="0.51302"/><path id="Path_1429-2" data-name="Path 1429-2" class="cls-1" d="M140.99167,39.746a.76348.76348,0,1,1,.76319-.76318.76379.76379,0,0,1-.76319.76318Zm0-1.02725a.26283.26283,0,1,1,0,.00122Z"/></g><g id="Group_1147-2" data-name="Group 1147-2"><circle id="Ellipse_1688-2" data-name="Ellipse 1688-2" class="cls-1" cx="152.3071" cy="38.98218" r="0.51302"/><path id="Path_1430-2" data-name="Path 1430-2" class="cls-1" d="M152.30587,39.746a.76257.76257,0,1,1,.00122,0Zm0-1.02725a.26283.26283,0,1,1,0,.00122Z"/></g><g id="Group_1148-2" data-name="Group 1148-2"><circle id="Ellipse_1689-2" data-name="Ellipse 1689-2" class="cls-1" cx="73.11415" cy="50.31635" r="0.51302"/><path id="Path_1431-2" data-name="Path 1431-2" class="cls-1" d="M73.11416,51.08013a.76378.76378,0,1,1,.76319-.76377A.76377.76377,0,0,1,73.11416,51.08013Zm0-1.02725a.26344.26344,0,1,0,.26227.26344A.26347.26347,0,0,0,73.11416,50.05288Z"/></g><g id="Group_1149-2" data-name="Group 1149-2"><circle id="Ellipse_1690-2" data-name="Ellipse 1690-2" class="cls-1" cx="84.42778" cy="50.31635" r="0.51302"/><path id="Path_1432-2" data-name="Path 1432-2" class="cls-1" d="M84.42715,51.08013a.76378.76378,0,1,1,.76378-.76377A.76377.76377,0,0,1,84.42715,51.08013Zm0-1.02725a.26344.26344,0,1,0,.26345.26344A.264.264,0,0,0,84.42715,50.05288Z"/></g><g id="Group_1150-2" data-name="Group 1150-2"><circle id="Ellipse_1691-2" data-name="Ellipse 1691-2" class="cls-1" cx="95.7408" cy="50.31635" r="0.51302"/><path id="Path_1433-2" data-name="Path 1433-2" class="cls-1" d="M95.7408,51.08013a.76378.76378,0,1,1,.76377-.76377A.7644.7644,0,0,1,95.7408,51.08013Zm0-1.02725a.26344.26344,0,1,0,.26344.26344A.264.264,0,0,0,95.7408,50.05288Z"/></g><g id="Group_1151-2" data-name="Group 1151-2"><circle id="Ellipse_1692-2" data-name="Ellipse 1692-2" class="cls-1" cx="107.05442" cy="50.31635" r="0.51302"/><path id="Path_1434-2" data-name="Path 1434-2" class="cls-1" d="M107.055,51.08013a.76378.76378,0,1,1,.76318-.76377A.76378.76378,0,0,1,107.055,51.08013Zm0-1.02725a.26344.26344,0,1,0,.26226.26344A.26347.26347,0,0,0,107.055,50.05288Z"/></g><g id="Group_1152-2" data-name="Group 1152-2"><circle id="Ellipse_1693-2" data-name="Ellipse 1693-2" class="cls-1" cx="118.36744" cy="50.31635" r="0.51302"/><path id="Path_1435-2" data-name="Path 1435-2" class="cls-1" d="M118.36743,51.08013a.76378.76378,0,1,1,.76377-.76377A.765.765,0,0,1,118.36743,51.08013Zm0-1.02725a.26344.26344,0,1,0,.26344.26344A.26467.26467,0,0,0,118.36743,50.05288Z"/></g><g id="Group_1153-2" data-name="Group 1153-2"><circle id="Ellipse_1694-2" data-name="Ellipse 1694-2" class="cls-1" cx="129.68046" cy="50.31635" r="0.51302"/><path id="Path_1436-2" data-name="Path 1436-2" class="cls-1" d="M129.67743,51.08013a.76378.76378,0,1,1,.76378-.76377A.76439.76439,0,0,1,129.67743,51.08013Zm0-1.02725a.26344.26344,0,1,0,.26345.26344A.26347.26347,0,0,0,129.67743,50.05288Z"/></g><g id="Group_1154-2" data-name="Group 1154-2"><circle id="Ellipse_1695-2" data-name="Ellipse 1695-2" class="cls-1" cx="140.99408" cy="50.31635" r="0.51302"/><path id="Path_1437-2" data-name="Path 1437-2" class="cls-1" d="M140.99167,51.08013a.76378.76378,0,1,1,.76319-.76377A.76441.76441,0,0,1,140.99167,51.08013Zm0-1.02725a.26344.26344,0,1,0,.26226.26344A.26467.26467,0,0,0,140.99167,50.05288Z"/></g><g id="Group_1155-2" data-name="Group 1155-2"><circle id="Ellipse_1696-2" data-name="Ellipse 1696-2" class="cls-1" cx="152.3071" cy="50.31635" r="0.51302"/><path id="Path_1438-2" data-name="Path 1438-2" class="cls-1" d="M152.30587,51.08013a.76378.76378,0,1,1,.76318-.76377A.765.765,0,0,1,152.30587,51.08013Zm0-1.02725a.26344.26344,0,1,0,.26226.26344A.264.264,0,0,0,152.30587,50.05288Z"/></g><g id="Group_1156-2" data-name="Group 1156-2"><circle id="Ellipse_1697-2" data-name="Ellipse 1697-2" class="cls-1" cx="163.62073" cy="50.31635" r="0.51302"/><path id="Path_1439-2" data-name="Path 1439-2" class="cls-1" d="M163.62073,51.08013a.76378.76378,0,1,1,.76378-.76377A.76439.76439,0,0,1,163.62073,51.08013Zm0-1.02725a.26344.26344,0,1,0,.26345.26344A.26347.26347,0,0,0,163.62073,50.05288Z"/></g><g id="Group_1157-2" data-name="Group 1157-2"><circle id="Ellipse_1698-2" data-name="Ellipse 1698-2" class="cls-1" cx="73.11415" cy="61.64931" r="0.51302"/><path id="Path_1440-2" data-name="Path 1440-2" class="cls-1" d="M73.11416,62.4131a.7632.7632,0,0,1-.76318-.76319h0a.76259.76259,0,0,1,.762-.76318h.00121a.76319.76319,0,1,1,0,1.52637Zm0-1.02726a.26224.26224,0,0,0-.26226.26223v0a.26164.26164,0,0,0,.261.26227h.00121a.26164.26164,0,0,0,.26227-.261V61.6481a.26287.26287,0,0,0-.26227-.26045Z"/></g><g id="Group_1158-2" data-name="Group 1158-2"><circle id="Ellipse_1699-2" data-name="Ellipse 1699-2" class="cls-1" cx="84.42778" cy="61.64931" r="0.51302"/><path id="Path_1441-2" data-name="Path 1441-2" class="cls-1" d="M84.42715,62.4131a.76319.76319,0,0,1,0-1.52637h0a.76319.76319,0,1,1,0,1.52637Zm0-1.02726a.26227.26227,0,0,0,0,.52453h0a.26137.26137,0,1,0,0-.52272Z"/></g><g id="Group_1159-2" data-name="Group 1159-2"><circle id="Ellipse_1700-2" data-name="Ellipse 1700-2" class="cls-1" cx="95.7408" cy="61.64931" r="0.51302"/><path id="Path_1442-2" data-name="Path 1442-2" class="cls-1" d="M95.7408,62.4131a.76319.76319,0,1,1,0-1.52637h0a.76319.76319,0,1,1,0,1.52637Zm0-1.02726a.26136.26136,0,1,1,0,.00181Z"/></g><g id="Group_1160-2" data-name="Group 1160-2"><circle id="Ellipse_1701-2" data-name="Ellipse 1701-2" class="cls-1" cx="107.05442" cy="61.64931" r="0.51302"/><path id="Path_1443-2" data-name="Path 1443-2" class="cls-1" d="M107.055,62.4131a.76321.76321,0,0,1-.76319-.76319h0a.76259.76259,0,0,1,.762-.76318h.00122a.7632.7632,0,0,1,.76318.76318h0A.76378.76378,0,0,1,107.055,62.4131Zm0-1.02726a.26227.26227,0,0,0-.00122.52453h.00122a.26164.26164,0,0,0,.26226-.261V61.6481a.26287.26287,0,0,0-.26226-.26045Z"/></g><g id="Group_1161-2" data-name="Group 1161-2"><circle id="Ellipse_1702-2" data-name="Ellipse 1702-2" class="cls-1" cx="118.36744" cy="61.64931" r="0.51302"/><path id="Path_1444-2" data-name="Path 1444-2" class="cls-1" d="M118.36743,62.4131a.76319.76319,0,1,1,.76377-.76319A.765.765,0,0,1,118.36743,62.4131Zm0-1.02726a.26136.26136,0,1,1,0,.00181Z"/></g><g id="Group_1162-2" data-name="Group 1162-2"><circle id="Ellipse_1703-2" data-name="Ellipse 1703-2" class="cls-1" cx="129.68046" cy="61.64931" r="0.51302"/><path id="Path_1445-2" data-name="Path 1445-2" class="cls-1" d="M129.67743,62.4131a.76319.76319,0,1,1,.76378-.76319A.76378.76378,0,0,1,129.67743,62.4131Zm0-1.02726a.26227.26227,0,0,0-.00121.52453h.00121a.26137.26137,0,1,0,0-.52272Z"/></g><g id="Group_1163-2" data-name="Group 1163-2"><circle id="Ellipse_1704-2" data-name="Ellipse 1704-2" class="cls-1" cx="140.99408" cy="61.64931" r="0.51302"/><path id="Path_1446-2" data-name="Path 1446-2" class="cls-1" d="M140.99167,62.4131a.76319.76319,0,1,1,.76319-.76319A.76442.76442,0,0,1,140.99167,62.4131Zm0-1.02726a.26227.26227,0,1,0,.26226.2623v0a.26343.26343,0,0,0-.26226-.26045Z"/></g><g id="Group_1164-2" data-name="Group 1164-2"><circle id="Ellipse_1705-2" data-name="Ellipse 1705-2" class="cls-1" cx="152.3071" cy="61.64931" r="0.51302"/><path id="Path_1447-2" data-name="Path 1447-2" class="cls-1" d="M152.30587,62.4131a.76319.76319,0,1,1,.76318-.76441v.00122a.7632.7632,0,0,1-.76318.76319Zm0-1.02726a.26227.26227,0,1,0,.26226.26348V61.6481a.26287.26287,0,0,0-.26226-.26045Z"/></g><g id="Group_1165-2" data-name="Group 1165-2"><circle id="Ellipse_1706-2" data-name="Ellipse 1706-2" class="cls-1" cx="163.62073" cy="61.64931" r="0.51302"/><path id="Path_1448-2" data-name="Path 1448-2" class="cls-1" d="M163.62073,62.4131a.76319.76319,0,0,1,0-1.52637h0a.76319.76319,0,1,1,0,1.52637Zm0-1.02726a.26227.26227,0,0,0,0,.52453h0a.26137.26137,0,1,0,0-.52272Z"/></g><g id="Group_1166-2" data-name="Group 1166-2"><circle id="Ellipse_1707-2" data-name="Ellipse 1707-2" class="cls-1" cx="73.11415" cy="72.98348" r="0.51302"/><path id="Path_1449-2" data-name="Path 1449-2" class="cls-1" d="M73.11416,73.74908a.76258.76258,0,0,1-.76318-.762V72.9859a.76319.76319,0,1,1,.76318.76318Zm0-1.02725a.26285.26285,0,0,0,0,.5257h0a.26285.26285,0,0,0,0-.5257Z"/></g><g id="Group_1167-2" data-name="Group 1167-2"><circle id="Ellipse_1708-2" data-name="Ellipse 1708-2" class="cls-1" cx="84.42778" cy="72.98348" r="0.51302"/><path id="Path_1450-2" data-name="Path 1450-2" class="cls-1" d="M84.42715,73.74908a.7632.7632,0,0,1-.76318-.76318h0a.76348.76348,0,1,1,.76318.76318Zm0-1.02725a.26285.26285,0,1,0,.26345.26344A.26347.26347,0,0,0,84.42715,72.72183Z"/></g><g id="Group_1168-2" data-name="Group 1168-2"><circle id="Ellipse_1709-2" data-name="Ellipse 1709-2" class="cls-1" cx="95.7408" cy="72.98348" r="0.51302"/><path id="Path_1451-2" data-name="Path 1451-2" class="cls-1" d="M95.7408,73.74908a.7632.7632,0,0,1-.76319-.76318h0a.76348.76348,0,1,1,.76319.76318Zm0-1.02725a.26285.26285,0,1,0,.26344.26344A.26347.26347,0,0,0,95.7408,72.72183Z"/></g><g id="Group_1169-2" data-name="Group 1169-2"><circle id="Ellipse_1710-2" data-name="Ellipse 1710-2" class="cls-1" cx="107.05442" cy="72.98348" r="0.51302"/><path id="Path_1452-2" data-name="Path 1452-2" class="cls-1" d="M107.055,73.74908a.76259.76259,0,0,1-.76319-.762V72.9859a.76319.76319,0,1,1,.76319.76318Zm0-1.02725a.26285.26285,0,1,0,.26226.26344A.26286.26286,0,0,0,107.055,72.72183Z"/></g><g id="Group_1170-2" data-name="Group 1170-2"><circle id="Ellipse_1711-2" data-name="Ellipse 1711-2" class="cls-1" cx="118.36744" cy="72.98348" r="0.51302"/><path id="Path_1453-2" data-name="Path 1453-2" class="cls-1" d="M118.36743,73.74908a.76348.76348,0,1,1,.76377-.76318A.7644.7644,0,0,1,118.36743,73.74908Zm0-1.02725a.26285.26285,0,1,0,.26344.26344A.26344.26344,0,0,0,118.36743,72.72183Z"/></g><g id="Group_1171-2" data-name="Group 1171-2"><circle id="Ellipse_1712-2" data-name="Ellipse 1712-2" class="cls-1" cx="129.68046" cy="72.98348" r="0.51302"/><path id="Path_1454-2" data-name="Path 1454-2" class="cls-1" d="M129.67743,73.74908a.7632.7632,0,0,1-.76318-.76318h0a.76348.76348,0,1,1,.76318.76318Zm0-1.02725a.26285.26285,0,1,0,.26345.26344A.26286.26286,0,0,0,129.67743,72.72183Z"/></g><g id="Group_1172-2" data-name="Group 1172-2"><circle id="Ellipse_1713-2" data-name="Ellipse 1713-2" class="cls-1" cx="140.99408" cy="72.98348" r="0.51302"/><path id="Path_1455-2" data-name="Path 1455-2" class="cls-1" d="M140.99167,73.74908a.76348.76348,0,1,1,.76319-.76318.76379.76379,0,0,1-.76319.76318Zm0-1.02725a.26285.26285,0,1,0,.26226.26344A.26344.26344,0,0,0,140.99167,72.72183Z"/></g><g id="Group_1173-2" data-name="Group 1173-2"><circle id="Ellipse_1714-2" data-name="Ellipse 1714-2" class="cls-1" cx="152.3071" cy="72.98348" r="0.51302"/><path id="Path_1456-2" data-name="Path 1456-2" class="cls-1" d="M152.30587,73.74908a.76257.76257,0,1,1,.00122,0Zm0-1.02725a.26285.26285,0,1,0,.26226.26344A.26344.26344,0,0,0,152.30587,72.72183Z"/></g><g id="Group_1174-2" data-name="Group 1174-2"><circle id="Ellipse_1715-2" data-name="Ellipse 1715-2" class="cls-1" cx="163.62073" cy="72.98348" r="0.51302"/><path id="Path_1457-2" data-name="Path 1457-2" class="cls-1" d="M163.62073,73.74908a.7632.7632,0,0,1-.76318-.76318h0a.76348.76348,0,1,1,.76318.76318Zm0-1.02725a.26285.26285,0,1,0,.26345.26344A.26286.26286,0,0,0,163.62073,72.72183Z"/></g><g id="Group_1175-2" data-name="Group 1175-2"><circle id="Ellipse_1716-2" data-name="Ellipse 1716-2" class="cls-1" cx="73.11415" cy="84.31705" r="0.51302"/><path id="Path_1458-2" data-name="Path 1458-2" class="cls-1" d="M73.11416,85.08083a.76409.76409,0,0,1,0-1.52818h0a.76409.76409,0,0,1,0,1.52818Zm0-1.02726a.26345.26345,0,1,0,.26227.26345.26349.26349,0,0,0-.26227-.26345Z"/></g><g id="Group_1176-2" data-name="Group 1176-2"><circle id="Ellipse_1717-2" data-name="Ellipse 1717-2" class="cls-1" cx="84.42778" cy="84.31705" r="0.51302"/><path id="Path_1459-2" data-name="Path 1459-2" class="cls-1" d="M84.42715,85.08083a.76409.76409,0,1,1,.76378-.76377A.76439.76439,0,0,1,84.42715,85.08083Zm0-1.02726a.26345.26345,0,1,0,.26345.26345.26406.26406,0,0,0-.26345-.26345Z"/></g><g id="Group_1177-2" data-name="Group 1177-2"><circle id="Ellipse_1718-2" data-name="Ellipse 1718-2" class="cls-1" cx="95.7408" cy="84.31705" r="0.51302"/><path id="Path_1460-2" data-name="Path 1460-2" class="cls-1" d="M95.7408,85.08083a.76409.76409,0,1,1,.76377-.76377A.7644.7644,0,0,1,95.7408,85.08083Zm0-1.02726a.26345.26345,0,1,0,.26344.26345.26405.26405,0,0,0-.26344-.26345Z"/></g><g id="Group_1178-2" data-name="Group 1178-2"><circle id="Ellipse_1719-2" data-name="Ellipse 1719-2" class="cls-1" cx="107.05442" cy="84.31705" r="0.51302"/><path id="Path_1461-2" data-name="Path 1461-2" class="cls-1" d="M107.055,85.08083a.76409.76409,0,0,1,0-1.52818h0a.76409.76409,0,0,1,0,1.52818Zm0-1.02726a.26345.26345,0,1,0,.26226.26345.26349.26349,0,0,0-.26226-.26345Z"/></g><g id="Group_1179-2" data-name="Group 1179-2"><circle id="Ellipse_1720-2" data-name="Ellipse 1720-2" class="cls-1" cx="118.36744" cy="84.31705" r="0.51302"/><path id="Path_1462-2" data-name="Path 1462-2" class="cls-1" d="M118.36743,85.08083a.76409.76409,0,1,1,.76377-.76377A.765.765,0,0,1,118.36743,85.08083Zm0-1.02726a.26345.26345,0,1,0,.26344.26345.26406.26406,0,0,0-.26344-.26345Z"/></g><g id="Group_1180-2" data-name="Group 1180-2"><circle id="Ellipse_1721-2" data-name="Ellipse 1721-2" class="cls-1" cx="129.68046" cy="84.31705" r="0.51302"/><path id="Path_1463-2" data-name="Path 1463-2" class="cls-1" d="M129.67743,85.08083a.76409.76409,0,1,1,.76378-.76377A.76439.76439,0,0,1,129.67743,85.08083Zm0-1.02726a.26345.26345,0,1,0,.26345.26345.26349.26349,0,0,0-.26345-.26345Z"/></g><g id="Group_1181-2" data-name="Group 1181-2"><circle id="Ellipse_1722-2" data-name="Ellipse 1722-2" class="cls-1" cx="140.99408" cy="84.31705" r="0.51302"/><path id="Path_1464-2" data-name="Path 1464-2" class="cls-1" d="M140.99167,85.08083a.76409.76409,0,1,1,.76319-.76377A.76441.76441,0,0,1,140.99167,85.08083Zm0-1.02726a.26345.26345,0,1,0,.26226.26345.26406.26406,0,0,0-.26226-.26345Z"/></g><g id="Group_1182-2" data-name="Group 1182-2"><circle id="Ellipse_1723-2" data-name="Ellipse 1723-2" class="cls-1" cx="152.3071" cy="84.31705" r="0.51302"/><path id="Path_1465-2" data-name="Path 1465-2" class="cls-1" d="M152.30587,85.08083a.76409.76409,0,1,1,.76318-.76377h0A.76377.76377,0,0,1,152.30587,85.08083Zm0-1.02726a.26345.26345,0,1,0,.26226.26345.26406.26406,0,0,0-.26226-.26345Z"/></g><g id="Group_1183-2" data-name="Group 1183-2"><circle id="Ellipse_1724-2" data-name="Ellipse 1724-2" class="cls-1" cx="163.62073" cy="84.31705" r="0.51302"/><path id="Path_1466-2" data-name="Path 1466-2" class="cls-1" d="M163.62073,85.08083a.76409.76409,0,1,1,.76378-.76377A.76439.76439,0,0,1,163.62073,85.08083Zm0-1.02726a.26345.26345,0,1,0,.26345.26345.26349.26349,0,0,0-.26345-.26345Z"/></g><g id="Group_1184-2" data-name="Group 1184-2"><circle id="Ellipse_1725-2" data-name="Ellipse 1725-2" class="cls-1" cx="73.11415" cy="95.6506" r="0.51302"/><path id="Path_1467-2" data-name="Path 1467-2" class="cls-1" d="M73.11416,96.41439a.7632.7632,0,0,1-.76318-.76318h0a.7632.7632,0,0,1,.76318-.76319h0a.76319.76319,0,1,1,0,1.52637Zm0-1.02725a.26224.26224,0,0,0-.26226.26222v0a.26164.26164,0,0,0,.261.26226h.00121a.26224.26224,0,0,0,.26227-.26222v0a.26228.26228,0,0,0-.26227-.26046Z"/></g><g id="Group_1185-2" data-name="Group 1185-2"><circle id="Ellipse_1726-2" data-name="Ellipse 1726-2" class="cls-1" cx="84.42778" cy="95.6506" r="0.51302"/><path id="Path_1468-2" data-name="Path 1468-2" class="cls-1" d="M84.42715,96.41439a.76319.76319,0,1,1,.76378-.76318A.76376.76376,0,0,1,84.42715,96.41439Zm0-1.02725a.26137.26137,0,1,1,0,.0018Z"/></g><g id="Group_1186-2" data-name="Group 1186-2"><circle id="Ellipse_1727-2" data-name="Ellipse 1727-2" class="cls-1" cx="95.7408" cy="95.6506" r="0.51302"/><path id="Path_1469-2" data-name="Path 1469-2" class="cls-1" d="M95.7408,96.41439a.76319.76319,0,1,1,.76377-.76318A.76439.76439,0,0,1,95.7408,96.41439Zm0-1.02725a.26137.26137,0,1,1,0,.0018Z"/></g><g id="Group_1187-2" data-name="Group 1187-2"><circle id="Ellipse_1728-2" data-name="Ellipse 1728-2" class="cls-1" cx="107.05442" cy="95.6506" r="0.51302"/><path id="Path_1470-2" data-name="Path 1470-2" class="cls-1" d="M107.055,96.41439a.7632.7632,0,0,1-.76319-.76318h0a.76321.76321,0,0,1,.76319-.76319h0a.76319.76319,0,0,1,0,1.52637Zm0-1.02725a.26224.26224,0,0,0-.26227.26222v0a.26225.26225,0,0,0,.26223.26226h0a.26224.26224,0,0,0,.26226-.26222v0a.26289.26289,0,0,0-.26226-.26046Z"/></g><g id="Group_1188-2" data-name="Group 1188-2"><circle id="Ellipse_1729-2" data-name="Ellipse 1729-2" class="cls-1" cx="118.36744" cy="95.6506" r="0.51302"/><path id="Path_1471-2" data-name="Path 1471-2" class="cls-1" d="M118.36743,96.41439a.76319.76319,0,1,1,.76377-.76318A.765.765,0,0,1,118.36743,96.41439Zm0-1.02725a.26137.26137,0,1,1,0,.0018Z"/></g><g id="Group_1189-2" data-name="Group 1189-2"><circle id="Ellipse_1730-2" data-name="Ellipse 1730-2" class="cls-1" cx="129.68046" cy="95.6506" r="0.51302"/><path id="Path_1472-2" data-name="Path 1472-2" class="cls-1" d="M129.67743,96.41439a.76319.76319,0,1,1,.76378-.76318A.76438.76438,0,0,1,129.67743,96.41439Zm0-1.02725a.26224.26224,0,0,0-.26226.26222v0a.26224.26224,0,0,0,.26223.26226h0a.26137.26137,0,1,0,0-.52272Z"/></g><g id="Group_1190-2" data-name="Group 1190-2"><circle id="Ellipse_1731-2" data-name="Ellipse 1731-2" class="cls-1" cx="140.99408" cy="95.6506" r="0.51302"/><path id="Path_1473-2" data-name="Path 1473-2" class="cls-1" d="M140.99167,96.41439a.76319.76319,0,1,1,.76319-.76318A.7644.7644,0,0,1,140.99167,96.41439Zm0-1.02725a.26136.26136,0,1,1,0,.0018Z"/></g><g id="Group_1191-2" data-name="Group 1191-2"><circle id="Ellipse_1732-2" data-name="Ellipse 1732-2" class="cls-1" cx="152.3071" cy="95.6506" r="0.51302"/><path id="Path_1474-2" data-name="Path 1474-2" class="cls-1" d="M152.30587,96.41439a.76319.76319,0,1,1,.76318-.76318h0A.76376.76376,0,0,1,152.30587,96.41439Zm0-1.02725a.26226.26226,0,1,0,.26226.26348V95.6494a.26228.26228,0,0,0-.26226-.26046Z"/></g><g id="Group_1192-2" data-name="Group 1192-2"><circle id="Ellipse_1733-2" data-name="Ellipse 1733-2" class="cls-1" cx="163.62073" cy="95.6506" r="0.51302"/><path id="Path_1475-2" data-name="Path 1475-2" class="cls-1" d="M163.62073,96.41439a.76319.76319,0,1,1,.76378-.76318A.76438.76438,0,0,1,163.62073,96.41439Zm0-1.02725a.26226.26226,0,0,0,0,.52452h0a.26137.26137,0,1,0,0-.52272Z"/></g><g id="Group_1193-2" data-name="Group 1193-2"><circle id="Ellipse_1734-2" data-name="Ellipse 1734-2" class="cls-1" cx="73.11415" cy="106.98478" r="0.51302"/><path id="Path_1476-2" data-name="Path 1476-2" class="cls-1" d="M73.11416,107.748a.76258.76258,0,0,1-.76318-.762v-.00122a.76319.76319,0,1,1,.76318.76318Zm0-1.02725a.26285.26285,0,0,0,0,.5257h0a.26225.26225,0,1,0,0-.52449Z"/></g><g id="Group_1194-2" data-name="Group 1194-2"><circle id="Ellipse_1735-2" data-name="Ellipse 1735-2" class="cls-1" cx="84.42778" cy="106.98478" r="0.51302"/><path id="Path_1477-2" data-name="Path 1477-2" class="cls-1" d="M84.42715,107.748a.7632.7632,0,0,1-.76318-.76318h0a.76348.76348,0,1,1,.76318.76318Zm0-1.02725a.26284.26284,0,1,1,0,.00121Z"/></g><g id="Group_1195-2" data-name="Group 1195-2"><circle id="Ellipse_1736-2" data-name="Ellipse 1736-2" class="cls-1" cx="95.7408" cy="106.98478" r="0.51302"/><path id="Path_1478-2" data-name="Path 1478-2" class="cls-1" d="M95.7408,107.748a.7632.7632,0,0,1-.76319-.76318h0a.76348.76348,0,1,1,.76319.76318Zm0-1.02725a.26284.26284,0,1,1,0,.00121Z"/></g><g id="Group_1196-2" data-name="Group 1196-2"><circle id="Ellipse_1737-2" data-name="Ellipse 1737-2" class="cls-1" cx="107.05442" cy="106.98478" r="0.51302"/><path id="Path_1479-2" data-name="Path 1479-2" class="cls-1" d="M107.055,107.748a.76259.76259,0,0,1-.76319-.762v-.00122a.76319.76319,0,1,1,.76319.76318Zm0-1.02725a.26284.26284,0,1,1,0,.00121Z"/></g><g id="Group_1197-2" data-name="Group 1197-2"><circle id="Ellipse_1738-2" data-name="Ellipse 1738-2" class="cls-1" cx="118.36744" cy="106.98478" r="0.51302"/><path id="Path_1480-2" data-name="Path 1480-2" class="cls-1" d="M118.36743,107.748a.76348.76348,0,1,1,.76377-.76318A.7644.7644,0,0,1,118.36743,107.748Zm0-1.02725a.26284.26284,0,1,1,0,.00121Z"/></g><g id="Group_1198-2" data-name="Group 1198-2"><circle id="Ellipse_1739-2" data-name="Ellipse 1739-2" class="cls-1" cx="129.68046" cy="106.98478" r="0.51302"/><path id="Path_1481-2" data-name="Path 1481-2" class="cls-1" d="M129.67743,107.748a.7632.7632,0,0,1-.76318-.76318h0a.76348.76348,0,1,1,.76318.76318Zm0-1.02725a.26284.26284,0,1,1,0,.00121Z"/></g><g id="Group_1199-2" data-name="Group 1199-2"><circle id="Ellipse_1740-2" data-name="Ellipse 1740-2" class="cls-1" cx="140.99408" cy="106.98478" r="0.51302"/><path id="Path_1482-2" data-name="Path 1482-2" class="cls-1" d="M140.99167,107.748a.76348.76348,0,1,1,.76319-.76318.76379.76379,0,0,1-.76319.76318Zm0-1.02725a.26284.26284,0,1,1,0,.00121Z"/></g><g id="Group_1200-2" data-name="Group 1200-2"><circle id="Ellipse_1741-2" data-name="Ellipse 1741-2" class="cls-1" cx="152.3071" cy="106.98478" r="0.51302"/><path id="Path_1483-2" data-name="Path 1483-2" class="cls-1" d="M152.30587,107.748a.76257.76257,0,1,1,.00122,0Zm0-1.02725a.26284.26284,0,1,1,0,.00121Z"/></g><g id="Group_1201-2" data-name="Group 1201-2"><circle id="Ellipse_1742-2" data-name="Ellipse 1742-2" class="cls-1" cx="163.62073" cy="106.98478" r="0.51302"/><path id="Path_1484-2" data-name="Path 1484-2" class="cls-1" d="M163.62073,107.748a.7632.7632,0,0,1-.76318-.76318h0a.76348.76348,0,1,1,.76318.76318Zm0-1.02725a.26284.26284,0,1,1,0,.00121Z"/></g><g id="Group_1202-2" data-name="Group 1202-2"><circle id="Ellipse_1743-2" data-name="Ellipse 1743-2" class="cls-1" cx="73.11415" cy="118.31834" r="0.51302"/><path id="Path_1485-2" data-name="Path 1485-2" class="cls-1" d="M73.11416,119.08213a.76378.76378,0,1,1,.76319-.76378A.76379.76379,0,0,1,73.11416,119.08213Zm0-1.02726a.26345.26345,0,1,0,.26227.26344.26348.26348,0,0,0-.26227-.26344Z"/></g><g id="Group_1203-2" data-name="Group 1203-2"><circle id="Ellipse_1744-2" data-name="Ellipse 1744-2" class="cls-1" cx="84.42778" cy="118.31834" r="0.51302"/><path id="Path_1486-2" data-name="Path 1486-2" class="cls-1" d="M84.42715,119.08213a.76378.76378,0,1,1,.76378-.76378A.76379.76379,0,0,1,84.42715,119.08213Zm0-1.02726a.26345.26345,0,1,0,.26345.26344.26405.26405,0,0,0-.26345-.26344Z"/></g><g id="Group_1204-2" data-name="Group 1204-2"><circle id="Ellipse_1745-2" data-name="Ellipse 1745-2" class="cls-1" cx="95.7408" cy="118.31834" r="0.51302"/><path id="Path_1487-2" data-name="Path 1487-2" class="cls-1" d="M95.7408,119.08213a.76378.76378,0,1,1,.76377-.76378A.76442.76442,0,0,1,95.7408,119.08213Zm0-1.02726a.26345.26345,0,1,0,.26344.26344.264.264,0,0,0-.26344-.26344Z"/></g><g id="Group_1205-2" data-name="Group 1205-2"><circle id="Ellipse_1746-2" data-name="Ellipse 1746-2" class="cls-1" cx="107.05442" cy="118.31834" r="0.51302"/><path id="Path_1488-2" data-name="Path 1488-2" class="cls-1" d="M107.055,119.08213a.76378.76378,0,1,1,.76318-.76378A.76379.76379,0,0,1,107.055,119.08213Zm0-1.02726a.26345.26345,0,1,0,.26226.26344.26349.26349,0,0,0-.26226-.26344Z"/></g><g id="Group_1206-2" data-name="Group 1206-2"><circle id="Ellipse_1747-2" data-name="Ellipse 1747-2" class="cls-1" cx="118.36744" cy="118.31834" r="0.51302"/><path id="Path_1489-2" data-name="Path 1489-2" class="cls-1" d="M118.36743,119.08213a.76378.76378,0,1,1,.76377-.76378A.765.765,0,0,1,118.36743,119.08213Zm0-1.02726a.26345.26345,0,1,0,.26344.26344.26406.26406,0,0,0-.26344-.26344Z"/></g><g id="Group_1207-2" data-name="Group 1207-2"><circle id="Ellipse_1748-2" data-name="Ellipse 1748-2" class="cls-1" cx="129.68046" cy="118.31834" r="0.51302"/><path id="Path_1490-2" data-name="Path 1490-2" class="cls-1" d="M129.67743,119.08213a.76378.76378,0,1,1,.76378-.76378A.7644.7644,0,0,1,129.67743,119.08213Zm0-1.02726a.26345.26345,0,1,0,.26345.26344.26348.26348,0,0,0-.26345-.26344Z"/></g><g id="Group_1208-2" data-name="Group 1208-2"><circle id="Ellipse_1749-2" data-name="Ellipse 1749-2" class="cls-1" cx="140.99408" cy="118.31834" r="0.51302"/><path id="Path_1491-2" data-name="Path 1491-2" class="cls-1" d="M140.99167,119.08213a.76378.76378,0,1,1,.76319-.76378A.76442.76442,0,0,1,140.99167,119.08213Zm0-1.02726a.26345.26345,0,1,0,.26226.26344.26406.26406,0,0,0-.26226-.26344Z"/></g><g id="Group_1209-2" data-name="Group 1209-2"><circle id="Ellipse_1750-2" data-name="Ellipse 1750-2" class="cls-1" cx="152.3071" cy="118.31834" r="0.51302"/><path id="Path_1492-2" data-name="Path 1492-2" class="cls-1" d="M152.30587,119.08213a.76378.76378,0,1,1,.76318-.76378A.765.765,0,0,1,152.30587,119.08213Zm0-1.02726a.26345.26345,0,1,0,.26226.26344.26406.26406,0,0,0-.26226-.26344Z"/></g><g id="Group_1210-2" data-name="Group 1210-2"><circle id="Ellipse_1751-2" data-name="Ellipse 1751-2" class="cls-1" cx="73.11415" cy="129.6519" r="0.51302"/><path id="Path_1493-2" data-name="Path 1493-2" class="cls-1" d="M73.11416,130.41509a.7632.7632,0,0,1-.76318-.76319h0a.7632.7632,0,0,1,.76318-.76318h0a.76319.76319,0,1,1,0,1.52637Zm0-1.02726a.26227.26227,0,0,0-.00121.52453h.00121a.26164.26164,0,0,0,.26227-.26105v-.00121a.26287.26287,0,0,0-.26227-.26042Z"/></g><g id="Group_1211-2" data-name="Group 1211-2"><circle id="Ellipse_1752-2" data-name="Ellipse 1752-2" class="cls-1" cx="84.42778" cy="129.6519" r="0.51302"/><path id="Path_1494-2" data-name="Path 1494-2" class="cls-1" d="M84.42715,130.41509a.76319.76319,0,1,1,.76378-.76319A.76377.76377,0,0,1,84.42715,130.41509Zm0-1.02726a.26135.26135,0,1,1,0,.00185Z"/></g><g id="Group_1212-2" data-name="Group 1212-2"><circle id="Ellipse_1753-2" data-name="Ellipse 1753-2" class="cls-1" cx="95.7408" cy="129.6519" r="0.51302"/><path id="Path_1495-2" data-name="Path 1495-2" class="cls-1" d="M95.7408,130.41509a.76319.76319,0,1,1,.76377-.76319A.76439.76439,0,0,1,95.7408,130.41509Zm0-1.02726a.26135.26135,0,1,1,0,.00185Z"/></g><g id="Group_1213-2" data-name="Group 1213-2"><circle id="Ellipse_1754-2" data-name="Ellipse 1754-2" class="cls-1" cx="107.05442" cy="129.6519" r="0.51302"/><path id="Path_1496-2" data-name="Path 1496-2" class="cls-1" d="M107.055,130.41509a.76321.76321,0,0,1-.76319-.76319h0a.76321.76321,0,0,1,.76319-.76318h0a.76319.76319,0,0,1,0,1.52637Zm0-1.02726a.26227.26227,0,0,0-.00122.52453h.00122a.26224.26224,0,0,0,.26226-.26223v0a.26287.26287,0,0,0-.26226-.26042Z"/></g><g id="Group_1214-2" data-name="Group 1214-2"><circle id="Ellipse_1755-2" data-name="Ellipse 1755-2" class="cls-1" cx="118.36744" cy="129.6519" r="0.51302"/><path id="Path_1497-2" data-name="Path 1497-2" class="cls-1" d="M118.36743,130.41509a.76319.76319,0,1,1,.76377-.76319A.765.765,0,0,1,118.36743,130.41509Zm0-1.02726a.26135.26135,0,1,1,0,.00185Z"/></g><g id="Group_1215-2" data-name="Group 1215-2"><circle id="Ellipse_1756-2" data-name="Ellipse 1756-2" class="cls-1" cx="140.99408" cy="129.6519" r="0.51302"/><path id="Path_1498-2" data-name="Path 1498-2" class="cls-1" d="M140.99167,130.41509a.76319.76319,0,1,1,.76319-.76319A.7644.7644,0,0,1,140.99167,130.41509Zm0-1.02726a.26227.26227,0,1,0,.26226.2623v0a.26345.26345,0,0,0-.26226-.26042Z"/></g><g id="Group_1216-2" data-name="Group 1216-2"><circle id="Ellipse_1757-2" data-name="Ellipse 1757-2" class="cls-1" cx="73.11415" cy="140.98547" r="0.51302"/><path id="Path_1499-2" data-name="Path 1499-2" class="cls-1" d="M73.11416,141.74986a.76378.76378,0,1,1,.76319-.76377A.76377.76377,0,0,1,73.11416,141.74986Zm0-1.02725a.26344.26344,0,1,0,.26227.26344.26285.26285,0,0,0-.26227-.26344Z"/></g><g id="Group_1217-2" data-name="Group 1217-2"><circle id="Ellipse_1758-2" data-name="Ellipse 1758-2" class="cls-1" cx="95.7408" cy="140.98547" r="0.51302"/><path id="Path_1500-2" data-name="Path 1500-2" class="cls-1" d="M95.7408,141.74986a.76378.76378,0,1,1,.76377-.76377A.7644.7644,0,0,1,95.7408,141.74986Zm0-1.02725a.26344.26344,0,1,0,.26344.26344.26347.26347,0,0,0-.26344-.26344Z"/></g><g id="Group_1218-2" data-name="Group 1218-2"><circle id="Ellipse_1759-2" data-name="Ellipse 1759-2" class="cls-1" cx="107.05442" cy="140.98547" r="0.51302"/><path id="Path_1501-2" data-name="Path 1501-2" class="cls-1" d="M107.055,141.74986a.76378.76378,0,1,1,.76318-.76377A.76378.76378,0,0,1,107.055,141.74986Zm0-1.02725a.26344.26344,0,1,0,.26226.26344.26286.26286,0,0,0-.26226-.26344Z"/></g><g id="Group_1219-2" data-name="Group 1219-2"><circle id="Ellipse_1760-2" data-name="Ellipse 1760-2" class="cls-1" cx="73.11415" cy="152.31903" r="0.51302"/><path id="Path_1502-2" data-name="Path 1502-2" class="cls-1" d="M73.11416,153.08281a.76348.76348,0,0,1-.00121-1.527h.00121a.7632.7632,0,0,1,.76319.76318h0A.7644.7644,0,0,1,73.11416,153.08281Zm0-1.02726a.26224.26224,0,0,0-.26226.26223v0a.26227.26227,0,1,0,.26226-.261Z"/></g><g id="Group_1220-2" data-name="Group 1220-2"><circle id="Ellipse_1761-2" data-name="Ellipse 1761-2" class="cls-1" cx="73.11415" cy="27.64801" r="0.51302"/><path id="Path_1503-2" data-name="Path 1503-2" class="cls-1" d="M73.11416,28.4118a.7632.7632,0,0,1-.76318-.76319h0a.76259.76259,0,0,1,.762-.76318h.00121a.76319.76319,0,1,1,0,1.52637Zm0-1.02726a.26225.26225,0,0,0-.26226.26223v0a.26164.26164,0,0,0,.261.26226h.00121a.26225.26225,0,0,0,.26227-.26223v0a.26288.26288,0,0,0-.26227-.26046Z"/></g><g id="Group_1221-2" data-name="Group 1221-2"><circle id="Ellipse_1762-2" data-name="Ellipse 1762-2" class="cls-1" cx="84.42778" cy="27.64801" r="0.51302"/><path id="Path_1504-2" data-name="Path 1504-2" class="cls-1" d="M84.42715,28.4118a.76319.76319,0,0,1,0-1.52637h0a.76319.76319,0,1,1,0,1.52637Zm0-1.02726a.26137.26137,0,1,1,0,.00181Z"/></g><g id="Group_1222-2" data-name="Group 1222-2"><circle id="Ellipse_1763-2" data-name="Ellipse 1763-2" class="cls-1" cx="95.7408" cy="27.64801" r="0.51302"/><path id="Path_1505-2" data-name="Path 1505-2" class="cls-1" d="M95.7408,28.4118a.76319.76319,0,1,1,0-1.52637h0a.76319.76319,0,1,1,0,1.52637Zm0-1.02726a.26137.26137,0,1,1,0,.00181Z"/></g><g id="Group_1223-2" data-name="Group 1223-2"><circle id="Ellipse_1764-2" data-name="Ellipse 1764-2" class="cls-1" cx="107.05442" cy="27.64801" r="0.51302"/><path id="Path_1506-2" data-name="Path 1506-2" class="cls-1" d="M107.055,28.4118a.76321.76321,0,0,1-.76319-.76319h0a.76259.76259,0,0,1,.762-.76318h.00122a.7632.7632,0,0,1,.76318.76318h0A.76377.76377,0,0,1,107.055,28.4118Zm0-1.02726a.26227.26227,0,0,0,0,.52453h0a.26224.26224,0,0,0,.26226-.26223v0a.26287.26287,0,0,0-.26226-.26046Z"/></g><g id="Group_1224-2" data-name="Group 1224-2"><circle id="Ellipse_1765-2" data-name="Ellipse 1765-2" class="cls-1" cx="118.36744" cy="27.64801" r="0.51302"/><path id="Path_1507-2" data-name="Path 1507-2" class="cls-1" d="M118.36743,28.4118a.76319.76319,0,1,1,.76377-.76319A.765.765,0,0,1,118.36743,28.4118Zm0-1.02726a.26137.26137,0,1,1,0,.00181Z"/></g><g id="Group_1225-2" data-name="Group 1225-2"><circle id="Ellipse_1766-2" data-name="Ellipse 1766-2" class="cls-1" cx="129.68046" cy="27.64801" r="0.51302"/><path id="Path_1508-2" data-name="Path 1508-2" class="cls-1" d="M129.67743,28.4118a.76168.76168,0,1,1,.76378-.76016A.76377.76377,0,0,1,129.67743,28.4118Zm0-1.02726a.26227.26227,0,0,0,0,.52453h0a.26137.26137,0,1,0,0-.52272Z"/></g><g id="Group_1226-2" data-name="Group 1226-2"><circle id="Ellipse_1767-2" data-name="Ellipse 1767-2" class="cls-1" cx="140.99408" cy="27.64801" r="0.51302"/><path id="Path_1509-2" data-name="Path 1509-2" class="cls-1" d="M140.99167,28.4118a.76168.76168,0,1,1,.76319-.76016A.7644.7644,0,0,1,140.99167,28.4118Zm0-1.02726a.26137.26137,0,1,1,0,.00181Z"/></g><g id="Group_1227-2" data-name="Group 1227-2"><circle id="Ellipse_1768-2" data-name="Ellipse 1768-2" class="cls-1" cx="95.7408" cy="16.31444" r="0.51302"/><path id="Path_1510-2" data-name="Path 1510-2" class="cls-1" d="M95.7408,17.07644a.76378.76378,0,1,1,.76377-.76378A.76442.76442,0,0,1,95.7408,17.07644Zm0-1.02726a.26345.26345,0,1,0,.26344.26344A.26347.26347,0,0,0,95.7408,16.04918Z"/></g><g id="Group_1228-2" data-name="Group 1228-2"><circle id="Ellipse_1769-2" data-name="Ellipse 1769-2" class="cls-1" cx="107.05442" cy="16.31444" r="0.51302"/><path id="Path_1511-2" data-name="Path 1511-2" class="cls-1" d="M107.055,17.07644a.76378.76378,0,1,1,.76318-.76378A.76379.76379,0,0,1,107.055,17.07644Zm0-1.02726a.26345.26345,0,1,0,.26226.26344A.26286.26286,0,0,0,107.055,16.04918Z"/></g><g id="Group_1229-2" data-name="Group 1229-2"><circle id="Ellipse_1770-2" data-name="Ellipse 1770-2" class="cls-1" cx="118.36744" cy="16.31444" r="0.51302"/><path id="Path_1512-2" data-name="Path 1512-2" class="cls-1" d="M118.36743,17.07644a.76378.76378,0,1,1,.76377-.76378A.765.765,0,0,1,118.36743,17.07644Zm0-1.02726a.26345.26345,0,1,0,.26344.26344A.26344.26344,0,0,0,118.36743,16.04918Z"/></g><g id="Group_1230-2" data-name="Group 1230-2"><circle id="Ellipse_1771-2" data-name="Ellipse 1771-2" class="cls-1" cx="129.68046" cy="16.31444" r="0.51302"/><path id="Path_1513-2" data-name="Path 1513-2" class="cls-1" d="M129.67743,17.07644a.76378.76378,0,1,1,.76378-.76378A.7644.7644,0,0,1,129.67743,17.07644Zm0-1.02726a.26345.26345,0,1,0,.26345.26344A.26286.26286,0,0,0,129.67743,16.04918Z"/></g><g id="Group_1231-2" data-name="Group 1231-2"><circle id="Ellipse_1772-2" data-name="Ellipse 1772-2" class="cls-1" cx="107.05442" cy="4.98088" r="0.51302"/><path id="Path_1514-2" data-name="Path 1514-2" class="cls-1" d="M107.055,5.74466a.76259.76259,0,0,1-.76319-.762V4.98147a.76319.76319,0,1,1,.76319.76319Zm0-1.02726a.26283.26283,0,1,1,0,.00122Z"/></g><g id="Group_1232-2" data-name="Group 1232-2"><circle id="Ellipse_1773-2" data-name="Ellipse 1773-2" class="cls-1" cx="118.36744" cy="4.98088" r="0.51302"/><path id="Path_1515-2" data-name="Path 1515-2" class="cls-1" d="M118.36743,5.74466a.76348.76348,0,1,1,.76377-.76319A.76442.76442,0,0,1,118.36743,5.74466Zm0-1.02726a.26283.26283,0,1,1,0,.00122Z"/></g><g id="Group_1233-2" data-name="Group 1233-2"><circle id="Ellipse_1774-2" data-name="Ellipse 1774-2" class="cls-1" cx="73.11415" cy="163.2" r="0.51302"/><path id="Path_1516-2" data-name="Path 1516-2" class="cls-1" d="M73.11416,163.96379a.76287.76287,0,1,1,.76319-.76378A.76378.76378,0,0,1,73.11416,163.96379Zm0-1.02726a.26164.26164,0,0,0-.26226.261h0a.26232.26232,0,1,0,.26226-.25681Z"/></g></g><g id="Group_1235-2" data-name="Group 1235-2"><path id="Path_1517-2" data-name="Path 1517-2" class="cls-1" d="M169.8259,57.24784a8.39263,8.39263,0,0,0-2.188-6.04263L121.88425,2.57469l-.00907.00907a6.7839,6.7839,0,0,0-1.05565-.9668,7.953,7.953,0,0,0-7.34665-.78554L95.42294,6.8662C89.86371,8.72553,85.3275,15.03283,85.30939,20.9286V22.658l-5.61965-5.97012-.00785.00785a6.80673,6.80673,0,0,0-1.05927-.9668,7.94673,7.94673,0,0,0-7.34783-.78554l-18.05417,6.039C47.66139,22.8399,43.12941,29.146,43.11311,35.0388l-.003,2.00494L37.28439,30.8579l-.00908.00907a6.81473,6.81473,0,0,0-.94324-.846,7.96045,7.96045,0,0,0-7.3569-.78554L.8431,38.71635.58564,127.28922a8.28568,8.28568,0,0,0,2.4394,6.27347L44.59293,177.77l-.01088.01209.41636.423a6.97976,6.97976,0,0,0,5.07944,2.04666,9.837,9.837,0,0,0,3.115-.536L71.2416,173.681c5.55923-1.85933,10.09121-8.166,10.11053-14.05273l.23446-23.9397,9.61566,10.22475.1172.1154a7.01444,7.01444,0,0,0,4.9459,1.90585,9.82684,9.82684,0,0,0,3.10773-.533l18.0451-6.03477c5.55923-1.85934,10.09663-8.16483,10.11356-14.05879v-1.93365l5.8819,6.25533.12087.12506h.00542a7.05845,7.05845,0,0,0,5.10179,2.02187,9.75122,9.75122,0,0,0,3.08173-.52449l28.13749-9.47665Zm-3.05031-5.21479a7.24453,7.24453,0,0,1,1.85631,5.21358l.0363,64.5909L123.93275,74.33577l-.03692-65.90518a10.57257,10.57257,0,0,0-.22236-2.208ZM95.80182,8.00281l18.04994-6.036a8.62569,8.62569,0,0,1,2.72582-.47071,5.95149,5.95149,0,0,1,3.54279,1.09131,6.88551,6.88551,0,0,1,2.58139,5.8378l.03685,65.67013L95.41509,83.29885a6.79557,6.79557,0,0,1-6.27226-.62057,6.88506,6.88506,0,0,1-2.58324-5.83779l-.055-55.90525A14.59817,14.59817,0,0,1,95.80182,8.00281ZM44.31253,35.0436a14.58568,14.58568,0,0,1,9.29114-12.92823l18.05417-6.0378a8.59558,8.59558,0,0,1,2.72583-.47072,5.95677,5.95677,0,0,1,3.54341,1.09132A6.88509,6.88509,0,0,1,80.51032,22.536L80.407,78.4841a14.59149,14.59149,0,0,1-9.2984,12.927l-18.04573,6.036a6.796,6.796,0,0,1-6.268-.62057,6.88959,6.88959,0,0,1-2.58866-5.83477ZM1.78026,127.28922,2.0395,39.575l27.32116-9.20473a6.80787,6.80787,0,0,1,6.27709.62178,6.88186,6.88186,0,0,1,2.58139,5.83477l-.24172,77.956A14.59442,14.59442,0,0,1,28.682,127.711l-18.04813,6.03478a6.79758,6.79758,0,0,1-6.27225-.62179A6.88914,6.88914,0,0,1,1.78026,127.28922Zm78.379,32.32809a14.60292,14.60292,0,0,1-9.29538,12.93125l-18.04876,6.03419c-2.72645.913-5.248.4834-6.92424-1.1753L6.23729,135.2353a7.79917,7.79917,0,0,0,1.66836.17706,9.81457,9.81457,0,0,0,3.109-.53356l18.04813-6.036c5.55923-1.8587,10.09121-8.16482,10.11053-14.05639L39.415,36.831a10.52441,10.52441,0,0,0-.22416-2.21222l3.92107,4.1646L43.014,90.98871a8.27805,8.27805,0,0,0,2.45633,6.28436h0L80.40886,134.4256Zm46.17843-32.31482a14.59149,14.59149,0,0,1-9.29719,12.92823L98.99416,146.2631c-2.6805.89611-5.17673.4937-6.84329-1.09733L48.665,98.93236a7.7853,7.7853,0,0,0,1.66714.18127,9.8112,9.8112,0,0,0,3.109-.53478l18.04573-6.03478c5.55923-1.85871,10.09726-8.16482,10.11356-14.05639l.10393-55.94814a10.5423,10.5423,0,0,0-.22236-2.20373L85.313,24.40732l.052,52.43073a8.29182,8.29182,0,0,0,2.42189,6.26319l38.552,41.00047Zm15.0087,4.81357c-2.80862.94025-5.38216.46349-7.0572-1.30885L91.01308,84.78649a7.82053,7.82053,0,0,0,1.67017.18127,9.81484,9.81484,0,0,0,3.11315-.536l27.33448-9.20536L168.19442,123.078Z"/><path id="Path_1518-2" data-name="Path 1518-2" class="cls-1" d="M50.07781,180.49943a7.2184,7.2184,0,0,1-5.2571-2.121l-.59157-.59884.0163-.01571L2.84373,133.73246a8.46517,8.46517,0,0,1-2.50649-6.44568L.5995,38.53921l.1704-.05739,28.13147-9.48089a8.20768,8.20768,0,0,1,7.58291.82,6.45283,6.45283,0,0,1,.79885.69008l.003-.003.18732.18127,5.393,5.72782V35.04234c.01693-5.9931,4.62683-12.40554,10.27853-14.29505l18.05417-6.0378a8.19445,8.19445,0,0,1,7.57325.82,6.7996,6.7996,0,0,1,.9505.846l.15409.14926,5.18279,5.50907V20.93646c.01873-5.99491,4.63107-12.40975,10.28457-14.29988L113.39318.6018a8.19732,8.19732,0,0,1,7.57324.81817,6.87548,6.87548,0,0,1,.94627.84116l.15409.14925,45.75237,48.62624a8.62757,8.62757,0,0,1,2.25633,6.21244l.03806,66.70343-.171.06041-28.13694,9.473a9.98961,9.98961,0,0,1-3.16209.5378,7.26573,7.26573,0,0,1-5.22808-2.04363l-.06041-.0562-.12086-.12507-5.45227-5.80091v1.3046c-.01631,5.99189-4.62927,12.40555-10.28395,14.29627l-18.04511,6.03478c-3.182,1.06229-6.25352.53053-8.30618-1.42908l-.12086-.12086-9.19334-9.77278-.2284,23.31792c-.01815,5.98584-4.62986,12.39647-10.28155,14.28782l-18.04876,6.03478A10.09968,10.09968,0,0,1,50.07781,180.49943Zm-5.14409-2.71918.24172.24172c1.92155,1.94331,4.85041,2.47746,7.93759,1.45025l18.04876-6.03478c5.46315-1.8285,9.922-8.027,9.93892-13.81648l.24172-24.56332,10.15162,10.78609c1.9137,1.82606,4.79542,2.31371,7.798,1.31367l18.04632-6.03478c5.46618-1.8285,9.92624-8.02884,9.94136-13.82252V124.735l6.43542,6.836a6.76768,6.76768,0,0,0,4.92476,1.94873,9.4646,9.4646,0,0,0,3.0038-.51243l27.96592-9.41746-.03807-66.34811a8.14192,8.14192,0,0,0-2.11492-5.865L121.87227,2.92753H121.868l-.18127-.18127a6.53979,6.53979,0,0,0-1.01759-.933,7.71547,7.71547,0,0,0-7.12064-.74928L95.49859,7.1c-5.46438,1.82729-9.92381,8.02884-9.94195,13.82555V23.2858l-5.87283-6.242-.00425.00361L79.49405,16.86a6.52672,6.52672,0,0,0-1.0194-.9342,7.71,7.71,0,0,0-7.12244-.75172l-18.05359,6.0378c-5.46253,1.82729-9.92019,8.02645-9.9359,13.82131l-.00424,2.63337-6.26621-6.63481a6.28857,6.28857,0,0,0-.90639-.81212,7.71192,7.71192,0,0,0-7.1303-.75109L1.09327,38.89087l-.261,88.38924a7.989,7.989,0,0,0,2.35665,6.088l41.74736,44.39706Zm5.15556,1.52032a6.07892,6.07892,0,0,1-4.37549-1.7173L5.50066,134.81651l.78978.17341a8.71073,8.71073,0,0,0,4.64435-.35048l18.04813-6.03419c5.46437-1.82972,9.92321-8.02884,9.93892-13.82131l.24172-77.95544a10.29168,10.29168,0,0,0-.21815-2.159l-.18551-.87316,4.60087,4.88729v.10279l-.09789,52.20535a7.99892,7.99892,0,0,0,2.376,6.103l.2145.19761-.01814.01512,34.82127,37.02685-.24714,25.28841a14.86876,14.86876,0,0,1-9.4664,13.16449L52.89418,178.822a8.85446,8.85446,0,0,1-2.80427.47975ZM6.928,135.60448l39.1442,41.62889c1.6001,1.58439,4.03043,1.99406,6.66261,1.10821l18.04875-6.03478a14.32771,14.32771,0,0,0,9.12437-12.68953h0l.24533-25.08722-34.895-37.106a8.61429,8.61429,0,0,1-2.4962-6.43358l.09788-52.105-3.28539-3.48964a11.20841,11.20841,0,0,1,.08881,1.43874L39.42162,114.79c-.01693,5.99008-4.62927,12.40252-10.28092,14.29387l-18.04876,6.03478a9.54708,9.54708,0,0,1-4.16334.48705Zm89.34217,11.38131a6.07954,6.07954,0,0,1-4.29025-1.63635l-44.05082-46.834.79217.17523a8.75512,8.75512,0,0,0,4.64318-.34927l18.04573-6.03478c5.46618-1.8285,9.92623-8.02762,9.94195-13.82009l.10334-55.94692a10.29153,10.29153,0,0,0-.21513-2.15177l-.18127-.87316,4.51021,4.79243v.10031l.052,52.43074a8.00773,8.00773,0,0,0,2.34333,6.08132l38.63236,41.08445-.00424,3.3011a14.85838,14.85838,0,0,1-9.4688,13.16449l-18.04573,6.036A8.8744,8.8744,0,0,1,96.27014,146.98579Zm-46.912-47.68,42.97521,45.69259c1.591,1.51427,3.99358,1.89135,6.58165,1.03028l18.04573-6.03478a14.323,14.323,0,0,0,9.12437-12.68953l.00361-3.10227L87.60377,83.2741a8.48266,8.48266,0,0,1-2.49015-6.43542l-.052-52.3292-3.19654-3.39717a10.88354,10.88354,0,0,1,.087,1.43088l-.10334,55.94692C81.83185,84.48078,77.21892,90.89444,71.5642,92.784L53.51847,98.82A9.59022,9.59022,0,0,1,49.35815,99.30578ZM7.91052,134.46846a6.21247,6.21247,0,0,1-3.69266-1.14085,7.125,7.125,0,0,1-2.68777-6.03721l.26046-87.89315.16921-.06041L29.28092,30.1309a7.04646,7.04646,0,0,1,6.50369.65681,7.1201,7.1201,0,0,1,2.68533,6.03781l-.24172,77.956a14.86082,14.86082,0,0,1-9.4664,13.16449l-18.04813,6.036a8.85473,8.85473,0,0,1-2.80379.48643ZM2.29088,39.75681l-.25924,87.536a6.65,6.65,0,0,0,2.47747,5.62931,6.5631,6.5631,0,0,0,6.04625.58674l18.04812-6.03478a14.32771,14.32771,0,0,0,9.12437-12.68953l.24172-77.956A6.64073,6.64073,0,0,0,35.4921,31.198a6.57806,6.57806,0,0,0-6.05108-.588ZM138.61269,132.84a6.03287,6.03287,0,0,1-4.50357-1.86051L90.27826,84.369l.78918.17341a8.746,8.746,0,0,0,4.65284-.35048l27.48554-9.2561.11.116,45.33126,48.13565-.37043.12506-26.84742,9.04219a8.89161,8.89161,0,0,1-2.81832.48525Zm-46.90716-47.683,42.76613,45.4775c1.60312,1.69617,4.08058,2.15361,6.79494,1.243l26.477-8.91591-44.6871-47.451-27.181,9.157a9.61344,9.61344,0,0,1-4.17124.48945Zm77.21519,37.31326-45.237-48.03591V74.334l-.03625-65.90455a10.34249,10.34249,0,0,0-.21753-2.156l-.18127-.87195,43.71184,46.4588a7.49261,7.49261,0,0,1,1.92521,5.38821Zm-44.736-48.2347,44.23209,46.97119-.0363-63.95946a6.99964,6.99964,0,0,0-1.78557-5.03836l-.003-.00424L124.05538,6.99484a10.99828,10.99828,0,0,1,.08881,1.43572Zm-73.847,23.933a6.2053,6.2053,0,0,1-3.686-1.13841,7.1289,7.1289,0,0,1-2.69138-6.04264l.10515-55.94692a14.85265,14.85265,0,0,1,9.46275-13.16449l18.05359-6.039a7.1335,7.1335,0,0,1,6.49583.65564,7.13023,7.13023,0,0,1,2.68654,6.04264L80.6602,78.48226a14.85243,14.85243,0,0,1-9.4688,13.16449l-18.04573,6.036a8.87039,8.87039,0,0,1-2.80921.48521ZM44.56391,35.04419l-.10515,55.94692a6.64671,6.64671,0,0,0,2.48414,5.63233,6.55173,6.55173,0,0,0,6.04264.58553l18.04694-6.03478a14.32037,14.32037,0,0,0,9.12437-12.68953l.10393-55.94693a6.65409,6.65409,0,0,0-2.47747-5.63535,6.55894,6.55894,0,0,0-6.04263-.58553L53.68285,22.35041A14.31916,14.31916,0,0,0,44.56269,35.04ZM92.68867,84.02036a6.20393,6.20393,0,0,1-3.69082-1.14026,7.12716,7.12716,0,0,1-2.68776-6.04264L86.2551,20.934A14.86674,14.86674,0,0,1,95.72271,7.7647h0l18.04994-6.03419a7.12519,7.12519,0,0,1,6.49461.6538A7.12689,7.12689,0,0,1,122.952,8.42694l.03685,65.849-.17039.05739-27.3236,9.20119a8.8894,8.8894,0,0,1-2.8074.48521ZM95.8816,8.24088a14.3242,14.3242,0,0,0-9.12436,12.69495l.055,55.90281a6.65337,6.65337,0,0,0,2.47746,5.63414,6.53424,6.53424,0,0,0,6.04566.58674l27.152-9.14431-.03684-65.49007A6.63933,6.63933,0,0,0,119.973,2.791a6.56878,6.56878,0,0,0-6.04264-.58553Z"/></g></g></g></svg>