<svg id="Layer_1" data-name="Layer 1" xmlns="http://www.w3.org/2000/svg" width="169.35609" height="180" viewBox="0 0 169.35609 180"><defs><style>.cls-1{fill:#fb6157;}</style></defs><g id="Group_1472" data-name="Group 1472"><g id="Group_1236-3" data-name="Group 1236-3"><g id="Group_1234-3" data-name="Group 1234-3"><g id="Group_1080-3" data-name="Group 1080-3"><circle id="Ellipse_1621-3" data-name="Ellipse 1621-3" class="cls-1" cx="16.00053" cy="38.67755" r="0.51302"/><path id="Path_1363-3" data-name="Path 1363-3" class="cls-1" d="M16.00116,39.44133a.76348.76348,0,1,1,.76319-.76319.76378.76378,0,0,1-.76319.76319Zm0-1.02726a.26284.26284,0,1,1,0,.00122Z"/></g><g id="Group_1081-3" data-name="Group 1081-3"><circle id="Ellipse_1622-3" data-name="Ellipse 1622-3" class="cls-1" cx="27.31416" cy="38.67755" r="0.51302"/><path id="Path_1364-3" data-name="Path 1364-3" class="cls-1" d="M27.31414,39.44133a.76348.76348,0,1,1,.76319-.76319.76378.76378,0,0,1-.76319.76319Zm0-1.02726a.26284.26284,0,1,1,0,.00122Z"/></g><g id="Group_1082-3" data-name="Group 1082-3"><circle id="Ellipse_1623-3" data-name="Ellipse 1623-3" class="cls-1" cx="49.9402" cy="38.67755" r="0.51302"/><path id="Path_1365-3" data-name="Path 1365-3" class="cls-1" d="M49.94082,39.44133a.76348.76348,0,1,1,.76319-.76319.76378.76378,0,0,1-.76319.76319Zm0-1.02726a.26284.26284,0,1,1,0,.00122Z"/></g><g id="Group_1083-3" data-name="Group 1083-3"><circle id="Ellipse_1624-3" data-name="Ellipse 1624-3" class="cls-1" cx="4.68751" cy="50.01172" r="0.51302"/><path id="Path_1366-3" data-name="Path 1366-3" class="cls-1" d="M4.68751,50.77551a.76378.76378,0,1,1,.76378-.76378A.7644.7644,0,0,1,4.68751,50.77551Zm0-1.02726a.26345.26345,0,1,0,.26345.26345A.26349.26349,0,0,0,4.68751,49.74825Z"/></g><g id="Group_1084-3" data-name="Group 1084-3"><circle id="Ellipse_1625-3" data-name="Ellipse 1625-3" class="cls-1" cx="16.00053" cy="50.01172" r="0.51302"/><path id="Path_1367-3" data-name="Path 1367-3" class="cls-1" d="M16.00116,50.77551a.76378.76378,0,1,1,.76319-.76378A.7644.7644,0,0,1,16.00116,50.77551Zm0-1.02726a.26345.26345,0,1,0,.26226.26345A.26468.26468,0,0,0,16.00116,49.74825Z"/></g><g id="Group_1085-3" data-name="Group 1085-3"><circle id="Ellipse_1626-3" data-name="Ellipse 1626-3" class="cls-1" cx="27.31416" cy="50.01172" r="0.51302"/><path id="Path_1368-3" data-name="Path 1368-3" class="cls-1" d="M27.31414,50.77551a.76378.76378,0,1,1,.76319-.76378A.7644.7644,0,0,1,27.31414,50.77551Zm0-1.02726a.26345.26345,0,1,0,.26227.26345A.26468.26468,0,0,0,27.31414,49.74825Z"/></g><g id="Group_1086-3" data-name="Group 1086-3"><circle id="Ellipse_1627-3" data-name="Ellipse 1627-3" class="cls-1" cx="49.9402" cy="50.01172" r="0.51302"/><path id="Path_1369-3" data-name="Path 1369-3" class="cls-1" d="M49.94082,50.77551a.76378.76378,0,1,1,.76319-.76378A.7644.7644,0,0,1,49.94082,50.77551Zm0-1.02726a.26345.26345,0,1,0,.26227.26345A.26468.26468,0,0,0,49.94082,49.74825Z"/></g><g id="Group_1087-3" data-name="Group 1087-3"><circle id="Ellipse_1628-3" data-name="Ellipse 1628-3" class="cls-1" cx="4.68751" cy="61.34468" r="0.51302"/><path id="Path_1370-3" data-name="Path 1370-3" class="cls-1" d="M4.68751,62.10847a.76319.76319,0,0,1,0-1.52637h0a.76319.76319,0,1,1,0,1.52637Zm0-1.02725a.26226.26226,0,0,0-.00121.52452h.00121a.26137.26137,0,1,0,0-.52272Z"/></g><g id="Group_1088-3" data-name="Group 1088-3"><circle id="Ellipse_1629-3" data-name="Ellipse 1629-3" class="cls-1" cx="16.00053" cy="61.34468" r="0.51302"/><path id="Path_1371-3" data-name="Path 1371-3" class="cls-1" d="M16.00116,62.10847a.76319.76319,0,1,1,.76319-.76318A.76439.76439,0,0,1,16.00116,62.10847Zm0-1.02725a.26226.26226,0,1,0,.26226.2623v0a.26343.26343,0,0,0-.26226-.26046Z"/></g><g id="Group_1089-3" data-name="Group 1089-3"><circle id="Ellipse_1630-3" data-name="Ellipse 1630-3" class="cls-1" cx="27.31416" cy="61.34468" r="0.51302"/><path id="Path_1372-3" data-name="Path 1372-3" class="cls-1" d="M27.31414,62.10847a.76319.76319,0,1,1,.76319-.76318h0A.76378.76378,0,0,1,27.31414,62.10847Zm0-1.02725a.26226.26226,0,1,0,.26227.2623v0a.26344.26344,0,0,0-.26227-.26046Z"/></g><g id="Group_1090-3" data-name="Group 1090-3"><circle id="Ellipse_1631-3" data-name="Ellipse 1631-3" class="cls-1" cx="49.9402" cy="61.34468" r="0.51302"/><path id="Path_1373-3" data-name="Path 1373-3" class="cls-1" d="M49.94082,62.10847a.76319.76319,0,1,1,.76319-.76318h0A.76378.76378,0,0,1,49.94082,62.10847Zm0-1.02725a.26136.26136,0,1,1,0,.0018Z"/></g><g id="Group_1091-3" data-name="Group 1091-3"><circle id="Ellipse_1632-3" data-name="Ellipse 1632-3" class="cls-1" cx="4.68751" cy="72.67885" r="0.51302"/><path id="Path_1374-3" data-name="Path 1374-3" class="cls-1" d="M4.68751,73.44446a.7632.7632,0,0,1-.76318-.76319h0a.76348.76348,0,1,1,.76318.76319Zm0-1.02726a.26286.26286,0,1,0,.26345.26345A.26287.26287,0,0,0,4.68751,72.4172Z"/></g><g id="Group_1092-3" data-name="Group 1092-3"><circle id="Ellipse_1633-3" data-name="Ellipse 1633-3" class="cls-1" cx="16.00053" cy="72.67885" r="0.51302"/><path id="Path_1375-3" data-name="Path 1375-3" class="cls-1" d="M16.00116,73.44446a.76348.76348,0,1,1,.76319-.76319.76378.76378,0,0,1-.76319.76319Zm0-1.02726a.26286.26286,0,1,0,.26226.26345A.26344.26344,0,0,0,16.00116,72.4172Z"/></g><g id="Group_1093-3" data-name="Group 1093-3"><circle id="Ellipse_1634-3" data-name="Ellipse 1634-3" class="cls-1" cx="27.31416" cy="72.67885" r="0.51302"/><path id="Path_1376-3" data-name="Path 1376-3" class="cls-1" d="M27.31414,73.44446a.76348.76348,0,1,1,.76319-.76319.76378.76378,0,0,1-.76319.76319Zm0-1.02726a.26286.26286,0,1,0,.26227.26345A.26345.26345,0,0,0,27.31414,72.4172Z"/></g><g id="Group_1094-3" data-name="Group 1094-3"><circle id="Ellipse_1635-3" data-name="Ellipse 1635-3" class="cls-1" cx="49.9402" cy="72.67885" r="0.51302"/><path id="Path_1377-3" data-name="Path 1377-3" class="cls-1" d="M49.94082,73.44446a.76348.76348,0,1,1,.76319-.76319.76378.76378,0,0,1-.76319.76319Zm0-1.02726a.26286.26286,0,1,0,.26227.26345A.26345.26345,0,0,0,49.94082,72.4172Z"/></g><g id="Group_1095-3" data-name="Group 1095-3"><circle id="Ellipse_1636-3" data-name="Ellipse 1636-3" class="cls-1" cx="4.68751" cy="84.01242" r="0.51302"/><path id="Path_1378-3" data-name="Path 1378-3" class="cls-1" d="M4.68751,84.7762a.76409.76409,0,1,1,.76378-.76377A.76439.76439,0,0,1,4.68751,84.7762Zm0-1.02725a.26345.26345,0,1,0,.26345.26344.26348.26348,0,0,0-.26345-.26344Z"/></g><g id="Group_1096-3" data-name="Group 1096-3"><circle id="Ellipse_1637-3" data-name="Ellipse 1637-3" class="cls-1" cx="16.00053" cy="84.01242" r="0.51302"/><path id="Path_1379-3" data-name="Path 1379-3" class="cls-1" d="M16.00116,84.7762a.76409.76409,0,1,1,.76319-.76377A.7644.7644,0,0,1,16.00116,84.7762Zm0-1.02725a.26345.26345,0,1,0,.26226.26344.264.264,0,0,0-.26226-.26344Z"/></g><g id="Group_1097-3" data-name="Group 1097-3"><circle id="Ellipse_1638-3" data-name="Ellipse 1638-3" class="cls-1" cx="27.31416" cy="84.01242" r="0.51302"/><path id="Path_1380-3" data-name="Path 1380-3" class="cls-1" d="M27.31414,84.7762a.76409.76409,0,1,1,.76319-.76377A.7644.7644,0,0,1,27.31414,84.7762Zm0-1.02725a.26345.26345,0,1,0,.26227.26344.264.264,0,0,0-.26227-.26344Z"/></g><g id="Group_1098-3" data-name="Group 1098-3"><circle id="Ellipse_1639-3" data-name="Ellipse 1639-3" class="cls-1" cx="49.9402" cy="84.01242" r="0.51302"/><path id="Path_1381-3" data-name="Path 1381-3" class="cls-1" d="M49.94082,84.7762a.76409.76409,0,1,1,.76319-.76377A.7644.7644,0,0,1,49.94082,84.7762Zm0-1.02725a.26345.26345,0,1,0,.26227.26344.264.264,0,0,0-.26227-.26344Z"/></g><g id="Group_1099-3" data-name="Group 1099-3"><circle id="Ellipse_1640-3" data-name="Ellipse 1640-3" class="cls-1" cx="4.68751" cy="95.34598" r="0.51302"/><path id="Path_1382-3" data-name="Path 1382-3" class="cls-1" d="M4.68751,96.10977a.76319.76319,0,1,1,.76378-.76319A.76377.76377,0,0,1,4.68751,96.10977Zm0-1.02726a.26225.26225,0,0,0-.26226.26223v0a.26164.26164,0,0,0,.26105.26226h.00121a.26137.26137,0,1,0,0-.52272Z"/></g><g id="Group_1100-3" data-name="Group 1100-3"><circle id="Ellipse_1641-3" data-name="Ellipse 1641-3" class="cls-1" cx="16.00053" cy="95.34598" r="0.51302"/><path id="Path_1383-3" data-name="Path 1383-3" class="cls-1" d="M16.00116,96.10977a.76319.76319,0,1,1,.76319-.76319A.76439.76439,0,0,1,16.00116,96.10977Zm0-1.02726a.26137.26137,0,1,1,0,.00181Z"/></g><g id="Group_1101-3" data-name="Group 1101-3"><circle id="Ellipse_1642-3" data-name="Ellipse 1642-3" class="cls-1" cx="27.31416" cy="95.34598" r="0.51302"/><path id="Path_1384-3" data-name="Path 1384-3" class="cls-1" d="M27.31414,96.10977a.76319.76319,0,1,1,.76319-.76319A.76439.76439,0,0,1,27.31414,96.10977Zm0-1.02726a.26227.26227,0,1,0,.26227.2623v0a.26288.26288,0,0,0-.26227-.26046Z"/></g><g id="Group_1102-3" data-name="Group 1102-3"><circle id="Ellipse_1643-3" data-name="Ellipse 1643-3" class="cls-1" cx="49.9402" cy="95.34598" r="0.51302"/><path id="Path_1385-3" data-name="Path 1385-3" class="cls-1" d="M49.94082,96.10977a.76319.76319,0,1,1,.76319-.76319A.76439.76439,0,0,1,49.94082,96.10977Zm0-1.02726a.26137.26137,0,1,1,0,.00181Z"/></g><g id="Group_1103-3" data-name="Group 1103-3"><circle id="Ellipse_1644-3" data-name="Ellipse 1644-3" class="cls-1" cx="4.68751" cy="106.68015" r="0.51302"/><path id="Path_1386-3" data-name="Path 1386-3" class="cls-1" d="M4.68751,107.44336a.7632.7632,0,0,1-.76318-.76319h0a.76348.76348,0,1,1,.76318.76319Zm0-1.02726a.26286.26286,0,0,0,0,.52571h0a.26225.26225,0,1,0,0-.52449Z"/></g><g id="Group_1104-3" data-name="Group 1104-3"><circle id="Ellipse_1645-3" data-name="Ellipse 1645-3" class="cls-1" cx="16.00053" cy="106.68015" r="0.51302"/><path id="Path_1387-3" data-name="Path 1387-3" class="cls-1" d="M16.00116,107.44336a.76348.76348,0,1,1,.76319-.76319.76378.76378,0,0,1-.76319.76319Zm0-1.02726a.26284.26284,0,1,1,0,.00122Z"/></g><g id="Group_1105-3" data-name="Group 1105-3"><circle id="Ellipse_1646-3" data-name="Ellipse 1646-3" class="cls-1" cx="27.31416" cy="106.68015" r="0.51302"/><path id="Path_1388-3" data-name="Path 1388-3" class="cls-1" d="M27.31414,107.44336a.76348.76348,0,1,1,.76319-.76319.76378.76378,0,0,1-.76319.76319Zm0-1.02726a.26284.26284,0,1,1,0,.00122Z"/></g><g id="Group_1106-3" data-name="Group 1106-3"><circle id="Ellipse_1647-3" data-name="Ellipse 1647-3" class="cls-1" cx="49.9402" cy="106.68015" r="0.51302"/><path id="Path_1389-3" data-name="Path 1389-3" class="cls-1" d="M49.94082,107.44336a.76348.76348,0,1,1,.76319-.76319.76378.76378,0,0,1-.76319.76319Zm0-1.02726a.26284.26284,0,1,1,0,.00122Z"/></g><g id="Group_1107-3" data-name="Group 1107-3"><circle id="Ellipse_1648-3" data-name="Ellipse 1648-3" class="cls-1" cx="4.68751" cy="118.01372" r="0.51302"/><path id="Path_1390-3" data-name="Path 1390-3" class="cls-1" d="M4.68751,118.7775a.76378.76378,0,1,1,.76378-.76377A.76439.76439,0,0,1,4.68751,118.7775Zm0-1.02725a.26344.26344,0,1,0,.26345.26344.26347.26347,0,0,0-.26345-.26344Z"/></g><g id="Group_1108-3" data-name="Group 1108-3"><circle id="Ellipse_1649-3" data-name="Ellipse 1649-3" class="cls-1" cx="16.00053" cy="118.01372" r="0.51302"/><path id="Path_1391-3" data-name="Path 1391-3" class="cls-1" d="M16.00116,118.7775a.76378.76378,0,1,1,.76319-.76377A.7644.7644,0,0,1,16.00116,118.7775Zm0-1.02725a.26344.26344,0,1,0,.26226.26344.264.264,0,0,0-.26226-.26344Z"/></g><g id="Group_1109-3" data-name="Group 1109-3"><circle id="Ellipse_1650-3" data-name="Ellipse 1650-3" class="cls-1" cx="27.31416" cy="118.01372" r="0.51302"/><path id="Path_1392-3" data-name="Path 1392-3" class="cls-1" d="M27.31414,118.7775a.76378.76378,0,1,1,.76319-.76377A.7644.7644,0,0,1,27.31414,118.7775Zm0-1.02725a.26344.26344,0,1,0,.26227.26344.264.264,0,0,0-.26227-.26344Z"/></g><g id="Group_1110-3" data-name="Group 1110-3"><circle id="Ellipse_1651-3" data-name="Ellipse 1651-3" class="cls-1" cx="49.9402" cy="118.01372" r="0.51302"/><path id="Path_1393-3" data-name="Path 1393-3" class="cls-1" d="M49.94082,118.7775a.76378.76378,0,1,1,.76319-.76377A.7644.7644,0,0,1,49.94082,118.7775Zm0-1.02725a.26344.26344,0,1,0,.26227.26344.264.264,0,0,0-.26227-.26344Z"/></g><g id="Group_1111-3" data-name="Group 1111-3"><circle id="Ellipse_1652-3" data-name="Ellipse 1652-3" class="cls-1" cx="4.68751" cy="129.34728" r="0.51302"/><path id="Path_1394-3" data-name="Path 1394-3" class="cls-1" d="M4.68751,130.11046a.76319.76319,0,1,1,.76378-.76318A.76376.76376,0,0,1,4.68751,130.11046Zm0-1.02725a.26227.26227,0,0,0-.00121.52453h.00121a.26135.26135,0,1,0,0-.52269Z"/></g><g id="Group_1112-3" data-name="Group 1112-3"><circle id="Ellipse_1653-3" data-name="Ellipse 1653-3" class="cls-1" cx="16.00053" cy="129.34728" r="0.51302"/><path id="Path_1395-3" data-name="Path 1395-3" class="cls-1" d="M16.00116,130.11046a.76319.76319,0,1,1,.76319-.76318A.76439.76439,0,0,1,16.00116,130.11046Zm0-1.02725a.26134.26134,0,1,1,0,.00184Z"/></g><g id="Group_1113-3" data-name="Group 1113-3"><circle id="Ellipse_1654-3" data-name="Ellipse 1654-3" class="cls-1" cx="38.62778" cy="129.34728" r="0.51302"/><path id="Path_1396-3" data-name="Path 1396-3" class="cls-1" d="M38.62715,130.11046a.76319.76319,0,1,1,.76319-.76318h0a.7632.7632,0,0,1-.76319.76318Zm0-1.02725a.26227.26227,0,0,0-.00121.52453h.00121a.26166.26166,0,0,0,.26227-.26105v-.00122a.26288.26288,0,0,0-.26227-.26042Z"/></g><g id="Group_1114-3" data-name="Group 1114-3"><circle id="Ellipse_1655-3" data-name="Ellipse 1655-3" class="cls-1" cx="49.9402" cy="129.34728" r="0.51302"/><path id="Path_1397-3" data-name="Path 1397-3" class="cls-1" d="M49.94082,130.11046a.76319.76319,0,1,1,.76319-.76318A.76439.76439,0,0,1,49.94082,130.11046Zm0-1.02725a.26134.26134,0,1,1,0,.00184Z"/></g><g id="Group_1115-3" data-name="Group 1115-3"><circle id="Ellipse_1656-3" data-name="Ellipse 1656-3" class="cls-1" cx="16.00053" cy="140.68085" r="0.51302"/><path id="Path_1398-3" data-name="Path 1398-3" class="cls-1" d="M16.00116,141.44524a.76378.76378,0,1,1,.76319-.76378A.76441.76441,0,0,1,16.00116,141.44524Zm0-1.02726a.26345.26345,0,1,0,.26226.26344.26344.26344,0,0,0-.26226-.26344Z"/></g><g id="Group_1116-3" data-name="Group 1116-3"><circle id="Ellipse_1657-3" data-name="Ellipse 1657-3" class="cls-1" cx="27.31416" cy="140.68085" r="0.51302"/><path id="Path_1399-3" data-name="Path 1399-3" class="cls-1" d="M27.31414,141.44524a.76378.76378,0,1,1,.76319-.76378A.76441.76441,0,0,1,27.31414,141.44524Zm0-1.02726a.26345.26345,0,1,0,.26227.26344.26344.26344,0,0,0-.26227-.26344Z"/></g><g id="Group_1117-3" data-name="Group 1117-3"><circle id="Ellipse_1658-3" data-name="Ellipse 1658-3" class="cls-1" cx="38.62778" cy="140.68085" r="0.51302"/><path id="Path_1400-3" data-name="Path 1400-3" class="cls-1" d="M38.62715,141.44524a.76378.76378,0,1,1,.76319-.76378A.7644.7644,0,0,1,38.62715,141.44524Zm0-1.02726a.26345.26345,0,1,0,.26227.26344.26286.26286,0,0,0-.26227-.26344Z"/></g><g id="Group_1118-3" data-name="Group 1118-3"><circle id="Ellipse_1659-3" data-name="Ellipse 1659-3" class="cls-1" cx="49.9402" cy="140.68085" r="0.51302"/><path id="Path_1401-3" data-name="Path 1401-3" class="cls-1" d="M49.94082,141.44524a.76378.76378,0,1,1,.76319-.76378A.76441.76441,0,0,1,49.94082,141.44524Zm0-1.02726a.26345.26345,0,1,0,.26227.26344.26344.26344,0,0,0-.26227-.26344Z"/></g><g id="Group_1119-3" data-name="Group 1119-3"><circle id="Ellipse_1660-3" data-name="Ellipse 1660-3" class="cls-1" cx="27.31416" cy="152.0144" r="0.51302"/><path id="Path_1402-3" data-name="Path 1402-3" class="cls-1" d="M27.31414,152.77818a.76348.76348,0,1,1,.76319-.76378h0A.76439.76439,0,0,1,27.31414,152.77818Zm0-1.02726a.26166.26166,0,1,1,0,.00122Z"/></g><g id="Group_1120-3" data-name="Group 1120-3"><circle id="Ellipse_1661-3" data-name="Ellipse 1661-3" class="cls-1" cx="38.62778" cy="152.0144" r="0.51302"/><path id="Path_1403-3" data-name="Path 1403-3" class="cls-1" d="M38.62715,152.77818a.76348.76348,0,0,1,0-1.527h0a.76259.76259,0,0,1,.76319.762v.00121A.76378.76378,0,0,1,38.62715,152.77818Zm0-1.02726a.26225.26225,0,0,0-.26226.26223v0a.26227.26227,0,1,0,.26226-.26105Z"/></g><g id="Group_1121-3" data-name="Group 1121-3"><circle id="Ellipse_1662-3" data-name="Ellipse 1662-3" class="cls-1" cx="49.9402" cy="152.0144" r="0.51302"/><path id="Path_1404-3" data-name="Path 1404-3" class="cls-1" d="M49.94082,152.77818a.76348.76348,0,1,1,.76319-.76378h0A.76439.76439,0,0,1,49.94082,152.77818Zm0-1.02726a.26166.26166,0,1,1,0,.00122Z"/></g><g id="Group_1122-3" data-name="Group 1122-3"><circle id="Ellipse_1663-3" data-name="Ellipse 1663-3" class="cls-1" cx="61.25382" cy="38.67755" r="0.51302"/><path id="Path_1405-3" data-name="Path 1405-3" class="cls-1" d="M61.25381,39.44133a.76348.76348,0,1,1,.76318-.76319.7644.7644,0,0,1-.76318.76319Zm0-1.02726a.26284.26284,0,1,1,0,.00122Z"/></g><g id="Group_1123-3" data-name="Group 1123-3"><circle id="Ellipse_1664-3" data-name="Ellipse 1664-3" class="cls-1" cx="49.9402" cy="27.34338" r="0.51302"/><path id="Path_1406-3" data-name="Path 1406-3" class="cls-1" d="M49.94082,28.10717A.76319.76319,0,1,1,50.704,27.344h0A.76377.76377,0,0,1,49.94082,28.10717Zm0-1.02725a.26136.26136,0,1,1,0,.00181Z"/></g><g id="Group_1124-3" data-name="Group 1124-3"><circle id="Ellipse_1665-3" data-name="Ellipse 1665-3" class="cls-1" cx="61.25382" cy="27.34338" r="0.51302"/><path id="Path_1407-3" data-name="Path 1407-3" class="cls-1" d="M61.25381,28.10717A.76319.76319,0,1,1,62.017,27.344h0A.76376.76376,0,0,1,61.25381,28.10717Zm0-1.02725a.26136.26136,0,1,1,0,.00181Z"/></g><g id="Group_1125-3" data-name="Group 1125-3"><circle id="Ellipse_1666-3" data-name="Ellipse 1666-3" class="cls-1" cx="61.25382" cy="50.01172" r="0.51302"/><path id="Path_1408-3" data-name="Path 1408-3" class="cls-1" d="M61.25381,50.77551a.76378.76378,0,1,1,.76318-.76378A.765.765,0,0,1,61.25381,50.77551Zm0-1.02726a.26345.26345,0,1,0,.26226.26345A.26407.26407,0,0,0,61.25381,49.74825Z"/></g><g id="Group_1126-3" data-name="Group 1126-3"><circle id="Ellipse_1667-3" data-name="Ellipse 1667-3" class="cls-1" cx="61.25382" cy="61.34468" r="0.51302"/><path id="Path_1409-3" data-name="Path 1409-3" class="cls-1" d="M61.25381,62.10847a.76319.76319,0,1,1,.76318-.76318h0A.76377.76377,0,0,1,61.25381,62.10847Zm0-1.02725a.26226.26226,0,1,0,.26226.2623v0a.26343.26343,0,0,0-.26226-.26046Z"/></g><g id="Group_1127-3" data-name="Group 1127-3"><circle id="Ellipse_1668-3" data-name="Ellipse 1668-3" class="cls-1" cx="61.25382" cy="72.67885" r="0.51302"/><path id="Path_1410-3" data-name="Path 1410-3" class="cls-1" d="M61.25381,73.44446a.76348.76348,0,1,1,.76318-.76319.7644.7644,0,0,1-.76318.76319Zm0-1.02726a.26286.26286,0,1,0,.26226.26345A.26345.26345,0,0,0,61.25381,72.4172Z"/></g><g id="Group_1128-3" data-name="Group 1128-3"><circle id="Ellipse_1669-3" data-name="Ellipse 1669-3" class="cls-1" cx="61.25382" cy="84.01242" r="0.51302"/><path id="Path_1411-3" data-name="Path 1411-3" class="cls-1" d="M61.25381,84.7762a.76409.76409,0,1,1,.76318-.76377A.765.765,0,0,1,61.25381,84.7762Zm0-1.02725a.26345.26345,0,1,0,.26226.26344.26406.26406,0,0,0-.26226-.26344Z"/></g><g id="Group_1129-3" data-name="Group 1129-3"><circle id="Ellipse_1670-3" data-name="Ellipse 1670-3" class="cls-1" cx="61.25382" cy="95.34598" r="0.51302"/><path id="Path_1412-3" data-name="Path 1412-3" class="cls-1" d="M61.25381,96.10977a.76319.76319,0,1,1,.76318-.76319A.765.765,0,0,1,61.25381,96.10977Zm0-1.02726a.26137.26137,0,1,1,0,.00181Z"/></g><g id="Group_1130-3" data-name="Group 1130-3"><circle id="Ellipse_1671-3" data-name="Ellipse 1671-3" class="cls-1" cx="61.25382" cy="106.68015" r="0.51302"/><path id="Path_1413-3" data-name="Path 1413-3" class="cls-1" d="M61.25381,107.44336a.76348.76348,0,1,1,.76318-.76319.7644.7644,0,0,1-.76318.76319Zm0-1.02726a.26284.26284,0,1,1,0,.00122Z"/></g><g id="Group_1131-3" data-name="Group 1131-3"><circle id="Ellipse_1672-3" data-name="Ellipse 1672-3" class="cls-1" cx="61.25382" cy="118.01372" r="0.51302"/><path id="Path_1414-3" data-name="Path 1414-3" class="cls-1" d="M61.25381,118.7775a.76378.76378,0,1,1,.76318-.76377A.765.765,0,0,1,61.25381,118.7775Zm0-1.02725a.26344.26344,0,1,0,.26226.26344.26406.26406,0,0,0-.26226-.26344Z"/></g><g id="Group_1132-3" data-name="Group 1132-3"><circle id="Ellipse_1673-3" data-name="Ellipse 1673-3" class="cls-1" cx="61.25382" cy="129.34728" r="0.51302"/><path id="Path_1415-3" data-name="Path 1415-3" class="cls-1" d="M61.25381,130.11046a.76319.76319,0,1,1,.76318-.76318A.765.765,0,0,1,61.25381,130.11046Zm0-1.02725a.26134.26134,0,1,1,0,.00184Z"/></g><g id="Group_1133-3" data-name="Group 1133-3"><circle id="Ellipse_1674-3" data-name="Ellipse 1674-3" class="cls-1" cx="61.25382" cy="140.68085" r="0.51302"/><path id="Path_1416-3" data-name="Path 1416-3" class="cls-1" d="M61.25381,141.44524a.76378.76378,0,1,1,.76318-.76378A.765.765,0,0,1,61.25381,141.44524Zm0-1.02726a.26345.26345,0,1,0,.26226.26344.26345.26345,0,0,0-.26226-.26344Z"/></g><g id="Group_1134-3" data-name="Group 1134-3"><circle id="Ellipse_1675-3" data-name="Ellipse 1675-3" class="cls-1" cx="61.25382" cy="152.0144" r="0.51302"/><path id="Path_1417-3" data-name="Path 1417-3" class="cls-1" d="M61.25381,152.77818a.76348.76348,0,1,1,.76318-.76378h0A.76439.76439,0,0,1,61.25381,152.77818Zm0-1.02726a.26166.26166,0,1,1,0,.00122Z"/></g><g id="Group_1135-3" data-name="Group 1135-3"><circle id="Ellipse_1676-3" data-name="Ellipse 1676-3" class="cls-1" cx="38.62778" cy="162.89537" r="0.51302"/><path id="Path_1418-3" data-name="Path 1418-3" class="cls-1" d="M38.62715,163.65916a.76287.76287,0,1,1,.76319-.76377A.76439.76439,0,0,1,38.62715,163.65916Zm0-1.02725a.26164.26164,0,0,0-.26226.261h0a.26232.26232,0,1,0,.26226-.2568Z"/></g><g id="Group_1136-3" data-name="Group 1136-3"><circle id="Ellipse_1677-3" data-name="Ellipse 1677-3" class="cls-1" cx="49.9402" cy="162.89537" r="0.51302"/><path id="Path_1419-3" data-name="Path 1419-3" class="cls-1" d="M49.94082,163.65916a.76287.76287,0,1,1,.76319-.76377A.7644.7644,0,0,1,49.94082,163.65916Zm0-1.02725a.25894.25894,0,1,1,0,.00424Z"/></g><g id="Group_1137-3" data-name="Group 1137-3"><circle id="Ellipse_1678-3" data-name="Ellipse 1678-3" class="cls-1" cx="61.25382" cy="162.89537" r="0.51302"/><path id="Path_1420-3" data-name="Path 1420-3" class="cls-1" d="M61.25381,163.65916a.76287.76287,0,1,1,.76318-.76377A.765.765,0,0,1,61.25381,163.65916Zm0-1.02725a.25894.25894,0,1,1,0,.00424Z"/></g><g id="Group_1138-3" data-name="Group 1138-3"><circle id="Ellipse_1679-3" data-name="Ellipse 1679-3" class="cls-1" cx="49.9402" cy="173.77635" r="0.51302"/><path id="Path_1421-3" data-name="Path 1421-3" class="cls-1" d="M49.94082,174.539a.76288.76288,0,1,1,.76319-.762A.76317.76317,0,0,1,49.94082,174.539Zm0-1.02726a.26223.26223,0,1,1,0,.00244Z"/></g><g id="Group_1139-3" data-name="Group 1139-3"><circle id="Ellipse_1680-3" data-name="Ellipse 1680-3" class="cls-1" cx="61.25382" cy="173.77635" r="0.51302"/><path id="Path_1422-3" data-name="Path 1422-3" class="cls-1" d="M61.25381,174.539a.76288.76288,0,1,1,.76318-.762A.76379.76379,0,0,1,61.25381,174.539Zm0-1.02726a.26223.26223,0,1,1,0,.00244Z"/></g><g id="Group_1140-3" data-name="Group 1140-3"><circle id="Ellipse_1681-3" data-name="Ellipse 1681-3" class="cls-1" cx="72.56684" cy="38.67755" r="0.51302"/><path id="Path_1423-3" data-name="Path 1423-3" class="cls-1" d="M72.56685,39.44133a.76259.76259,0,0,1-.76318-.762v-.00122a.76319.76319,0,1,1,.76318.76319Zm0-1.02726a.26286.26286,0,0,0,0,.52571h0a.26225.26225,0,1,0,0-.52449Z"/></g><g id="Group_1141-3" data-name="Group 1141-3"><circle id="Ellipse_1682-3" data-name="Ellipse 1682-3" class="cls-1" cx="83.88047" cy="38.67755" r="0.51302"/><path id="Path_1424-3" data-name="Path 1424-3" class="cls-1" d="M83.87984,39.44133a.7632.7632,0,0,1-.76318-.76319h0a.76348.76348,0,1,1,.76318.76319Zm0-1.02726a.26284.26284,0,1,1,0,.00122Z"/></g><g id="Group_1142-3" data-name="Group 1142-3"><circle id="Ellipse_1683-3" data-name="Ellipse 1683-3" class="cls-1" cx="95.19349" cy="38.67755" r="0.51302"/><path id="Path_1425-3" data-name="Path 1425-3" class="cls-1" d="M95.19349,39.44133a.76321.76321,0,0,1-.76319-.76319h0a.76348.76348,0,1,1,.76319.76319Zm0-1.02726a.26284.26284,0,1,1,0,.00122Z"/></g><g id="Group_1143-3" data-name="Group 1143-3"><circle id="Ellipse_1684-3" data-name="Ellipse 1684-3" class="cls-1" cx="106.50711" cy="38.67755" r="0.51302"/><path id="Path_1426-3" data-name="Path 1426-3" class="cls-1" d="M106.50772,39.44133a.76259.76259,0,0,1-.76319-.762v-.00122a.76319.76319,0,1,1,.76319.76319Zm0-1.02726a.26284.26284,0,1,1,0,.00122Z"/></g><g id="Group_1144-3" data-name="Group 1144-3"><circle id="Ellipse_1685-3" data-name="Ellipse 1685-3" class="cls-1" cx="117.82013" cy="38.67755" r="0.51302"/><path id="Path_1427-3" data-name="Path 1427-3" class="cls-1" d="M117.82012,39.44133a.76348.76348,0,1,1,.76377-.76319A.7644.7644,0,0,1,117.82012,39.44133Zm0-1.02726a.26284.26284,0,1,1,0,.00122Z"/></g><g id="Group_1145-3" data-name="Group 1145-3"><circle id="Ellipse_1686-3" data-name="Ellipse 1686-3" class="cls-1" cx="129.13315" cy="38.67755" r="0.51302"/><path id="Path_1428-3" data-name="Path 1428-3" class="cls-1" d="M129.13012,39.44133a.7632.7632,0,0,1-.76318-.76319h0a.76348.76348,0,1,1,.76318.76319Zm0-1.02726a.26284.26284,0,1,1,0,.00122Z"/></g><g id="Group_1146-3" data-name="Group 1146-3"><circle id="Ellipse_1687-3" data-name="Ellipse 1687-3" class="cls-1" cx="140.44677" cy="38.67755" r="0.51302"/><path id="Path_1429-3" data-name="Path 1429-3" class="cls-1" d="M140.44436,39.44133a.76348.76348,0,1,1,.76318-.76319.76379.76379,0,0,1-.76318.76319Zm0-1.02726a.26284.26284,0,1,1,0,.00122Z"/></g><g id="Group_1147-3" data-name="Group 1147-3"><circle id="Ellipse_1688-3" data-name="Ellipse 1688-3" class="cls-1" cx="151.75979" cy="38.67755" r="0.51302"/><path id="Path_1430-3" data-name="Path 1430-3" class="cls-1" d="M151.75856,39.44133a.76257.76257,0,1,1,.00122,0Zm0-1.02726a.26284.26284,0,1,1,0,.00122Z"/></g><g id="Group_1148-3" data-name="Group 1148-3"><circle id="Ellipse_1689-3" data-name="Ellipse 1689-3" class="cls-1" cx="72.56684" cy="50.01172" r="0.51302"/><path id="Path_1431-3" data-name="Path 1431-3" class="cls-1" d="M72.56685,50.77551a.76378.76378,0,1,1,.76319-.76378A.76378.76378,0,0,1,72.56685,50.77551Zm0-1.02726a.26345.26345,0,1,0,.26227.26345A.26349.26349,0,0,0,72.56685,49.74825Z"/></g><g id="Group_1149-3" data-name="Group 1149-3"><circle id="Ellipse_1690-3" data-name="Ellipse 1690-3" class="cls-1" cx="83.88047" cy="50.01172" r="0.51302"/><path id="Path_1432-3" data-name="Path 1432-3" class="cls-1" d="M83.87984,50.77551a.76378.76378,0,1,1,.76378-.76378A.76378.76378,0,0,1,83.87984,50.77551Zm0-1.02726a.26345.26345,0,1,0,.26344.26345A.26405.26405,0,0,0,83.87984,49.74825Z"/></g><g id="Group_1150-3" data-name="Group 1150-3"><circle id="Ellipse_1691-3" data-name="Ellipse 1691-3" class="cls-1" cx="95.19349" cy="50.01172" r="0.51302"/><path id="Path_1433-3" data-name="Path 1433-3" class="cls-1" d="M95.19349,50.77551a.76378.76378,0,1,1,.76377-.76378A.76441.76441,0,0,1,95.19349,50.77551Zm0-1.02726a.26345.26345,0,1,0,.26344.26345A.26405.26405,0,0,0,95.19349,49.74825Z"/></g><g id="Group_1151-3" data-name="Group 1151-3"><circle id="Ellipse_1692-3" data-name="Ellipse 1692-3" class="cls-1" cx="106.50711" cy="50.01172" r="0.51302"/><path id="Path_1434-3" data-name="Path 1434-3" class="cls-1" d="M106.50772,50.77551a.76378.76378,0,1,1,.76318-.76378A.76379.76379,0,0,1,106.50772,50.77551Zm0-1.02726a.26345.26345,0,1,0,.26226.26345A.26349.26349,0,0,0,106.50772,49.74825Z"/></g><g id="Group_1152-3" data-name="Group 1152-3"><circle id="Ellipse_1693-3" data-name="Ellipse 1693-3" class="cls-1" cx="117.82013" cy="50.01172" r="0.51302"/><path id="Path_1435-3" data-name="Path 1435-3" class="cls-1" d="M117.82012,50.77551a.76378.76378,0,1,1,.76377-.76378A.765.765,0,0,1,117.82012,50.77551Zm0-1.02726a.26345.26345,0,1,0,.26344.26345A.26469.26469,0,0,0,117.82012,49.74825Z"/></g><g id="Group_1153-3" data-name="Group 1153-3"><circle id="Ellipse_1694-3" data-name="Ellipse 1694-3" class="cls-1" cx="129.13315" cy="50.01172" r="0.51302"/><path id="Path_1436-3" data-name="Path 1436-3" class="cls-1" d="M129.13012,50.77551a.76378.76378,0,1,1,.76378-.76378A.7644.7644,0,0,1,129.13012,50.77551Zm0-1.02726a.26345.26345,0,1,0,.26345.26345A.26349.26349,0,0,0,129.13012,49.74825Z"/></g><g id="Group_1154-3" data-name="Group 1154-3"><circle id="Ellipse_1695-3" data-name="Ellipse 1695-3" class="cls-1" cx="140.44677" cy="50.01172" r="0.51302"/><path id="Path_1437-3" data-name="Path 1437-3" class="cls-1" d="M140.44436,50.77551a.76378.76378,0,1,1,.76318-.76378A.76441.76441,0,0,1,140.44436,50.77551Zm0-1.02726a.26345.26345,0,1,0,.26226.26345A.26468.26468,0,0,0,140.44436,49.74825Z"/></g><g id="Group_1155-3" data-name="Group 1155-3"><circle id="Ellipse_1696-3" data-name="Ellipse 1696-3" class="cls-1" cx="151.75979" cy="50.01172" r="0.51302"/><path id="Path_1438-3" data-name="Path 1438-3" class="cls-1" d="M151.75856,50.77551a.76378.76378,0,1,1,.76318-.76378A.765.765,0,0,1,151.75856,50.77551Zm0-1.02726a.26345.26345,0,1,0,.26226.26345A.26406.26406,0,0,0,151.75856,49.74825Z"/></g><g id="Group_1156-3" data-name="Group 1156-3"><circle id="Ellipse_1697-3" data-name="Ellipse 1697-3" class="cls-1" cx="163.07342" cy="50.01172" r="0.51302"/><path id="Path_1439-3" data-name="Path 1439-3" class="cls-1" d="M163.07342,50.77551a.76378.76378,0,1,1,.76378-.76378A.7644.7644,0,0,1,163.07342,50.77551Zm0-1.02726a.26345.26345,0,1,0,.26345.26345A.26349.26349,0,0,0,163.07342,49.74825Z"/></g><g id="Group_1157-3" data-name="Group 1157-3"><circle id="Ellipse_1698-3" data-name="Ellipse 1698-3" class="cls-1" cx="72.56684" cy="61.34468" r="0.51302"/><path id="Path_1440-3" data-name="Path 1440-3" class="cls-1" d="M72.56685,62.10847a.7632.7632,0,0,1-.76318-.76318h0a.76259.76259,0,0,1,.762-.76319h.00121a.76319.76319,0,1,1,0,1.52637Zm0-1.02725a.26224.26224,0,0,0-.26226.26222v0a.26164.26164,0,0,0,.261.26226h.00121a.26165.26165,0,0,0,.26227-.261v-.00122a.26288.26288,0,0,0-.26227-.26046Z"/></g><g id="Group_1158-3" data-name="Group 1158-3"><circle id="Ellipse_1699-3" data-name="Ellipse 1699-3" class="cls-1" cx="83.88047" cy="61.34468" r="0.51302"/><path id="Path_1441-3" data-name="Path 1441-3" class="cls-1" d="M83.87984,62.10847a.76319.76319,0,0,1,0-1.52637h0a.76319.76319,0,1,1,0,1.52637Zm0-1.02725a.26226.26226,0,0,0,0,.52452h0a.26137.26137,0,1,0,0-.52272Z"/></g><g id="Group_1159-3" data-name="Group 1159-3"><circle id="Ellipse_1700-3" data-name="Ellipse 1700-3" class="cls-1" cx="95.19349" cy="61.34468" r="0.51302"/><path id="Path_1442-3" data-name="Path 1442-3" class="cls-1" d="M95.19349,62.10847a.76319.76319,0,1,1,0-1.52637h0a.76319.76319,0,1,1,0,1.52637Zm0-1.02725a.26137.26137,0,1,1,0,.0018Z"/></g><g id="Group_1160-3" data-name="Group 1160-3"><circle id="Ellipse_1701-3" data-name="Ellipse 1701-3" class="cls-1" cx="106.50711" cy="61.34468" r="0.51302"/><path id="Path_1443-3" data-name="Path 1443-3" class="cls-1" d="M106.50772,62.10847a.7632.7632,0,0,1-.76319-.76318h0a.76259.76259,0,0,1,.762-.76319h.00122a.7632.7632,0,0,1,.76318.76319h0A.76377.76377,0,0,1,106.50772,62.10847Zm0-1.02725a.26226.26226,0,0,0-.00122.52452h.00122a.26164.26164,0,0,0,.26226-.261v-.00122a.26287.26287,0,0,0-.26226-.26046Z"/></g><g id="Group_1161-3" data-name="Group 1161-3"><circle id="Ellipse_1702-3" data-name="Ellipse 1702-3" class="cls-1" cx="117.82013" cy="61.34468" r="0.51302"/><path id="Path_1444-3" data-name="Path 1444-3" class="cls-1" d="M117.82012,62.10847a.76319.76319,0,1,1,.76377-.76318A.765.765,0,0,1,117.82012,62.10847Zm0-1.02725a.26137.26137,0,1,1,0,.0018Z"/></g><g id="Group_1162-3" data-name="Group 1162-3"><circle id="Ellipse_1703-3" data-name="Ellipse 1703-3" class="cls-1" cx="129.13315" cy="61.34468" r="0.51302"/><path id="Path_1445-3" data-name="Path 1445-3" class="cls-1" d="M129.13012,62.10847a.76319.76319,0,1,1,.76378-.76318A.76377.76377,0,0,1,129.13012,62.10847Zm0-1.02725a.26226.26226,0,0,0-.00121.52452h.00121a.26137.26137,0,1,0,0-.52272Z"/></g><g id="Group_1163-3" data-name="Group 1163-3"><circle id="Ellipse_1704-3" data-name="Ellipse 1704-3" class="cls-1" cx="140.44677" cy="61.34468" r="0.51302"/><path id="Path_1446-3" data-name="Path 1446-3" class="cls-1" d="M140.44436,62.10847a.76319.76319,0,1,1,.76318-.76318A.7644.7644,0,0,1,140.44436,62.10847Zm0-1.02725a.26226.26226,0,1,0,.26226.2623v0a.26343.26343,0,0,0-.26226-.26046Z"/></g><g id="Group_1164-3" data-name="Group 1164-3"><circle id="Ellipse_1705-3" data-name="Ellipse 1705-3" class="cls-1" cx="151.75979" cy="61.34468" r="0.51302"/><path id="Path_1447-3" data-name="Path 1447-3" class="cls-1" d="M151.75856,62.10847a.76319.76319,0,1,1,.76318-.7644v.00122a.7632.7632,0,0,1-.76318.76318Zm0-1.02725a.26226.26226,0,1,0,.26226.26348v-.00122a.26287.26287,0,0,0-.26226-.26046Z"/></g><g id="Group_1165-3" data-name="Group 1165-3"><circle id="Ellipse_1706-3" data-name="Ellipse 1706-3" class="cls-1" cx="163.07342" cy="61.34468" r="0.51302"/><path id="Path_1448-3" data-name="Path 1448-3" class="cls-1" d="M163.07342,62.10847a.76319.76319,0,0,1,0-1.52637h0a.76319.76319,0,1,1,0,1.52637Zm0-1.02725a.26226.26226,0,0,0,0,.52452h0a.26137.26137,0,1,0,0-.52272Z"/></g><g id="Group_1166-3" data-name="Group 1166-3"><circle id="Ellipse_1707-3" data-name="Ellipse 1707-3" class="cls-1" cx="72.56684" cy="72.67885" r="0.51302"/><path id="Path_1449-3" data-name="Path 1449-3" class="cls-1" d="M72.56685,73.44446a.76259.76259,0,0,1-.76318-.762v-.00122a.76319.76319,0,1,1,.76318.76319Zm0-1.02726a.26286.26286,0,0,0,0,.52571h0a.26286.26286,0,0,0,0-.52571Z"/></g><g id="Group_1167-3" data-name="Group 1167-3"><circle id="Ellipse_1708-3" data-name="Ellipse 1708-3" class="cls-1" cx="83.88047" cy="72.67885" r="0.51302"/><path id="Path_1450-3" data-name="Path 1450-3" class="cls-1" d="M83.87984,73.44446a.7632.7632,0,0,1-.76318-.76319h0a.76348.76348,0,1,1,.76318.76319Zm0-1.02726a.26286.26286,0,1,0,.26344.26345A.26348.26348,0,0,0,83.87984,72.4172Z"/></g><g id="Group_1168-3" data-name="Group 1168-3"><circle id="Ellipse_1709-3" data-name="Ellipse 1709-3" class="cls-1" cx="95.19349" cy="72.67885" r="0.51302"/><path id="Path_1451-3" data-name="Path 1451-3" class="cls-1" d="M95.19349,73.44446a.76321.76321,0,0,1-.76319-.76319h0a.76348.76348,0,1,1,.76319.76319Zm0-1.02726a.26286.26286,0,1,0,.26344.26345A.26348.26348,0,0,0,95.19349,72.4172Z"/></g><g id="Group_1169-3" data-name="Group 1169-3"><circle id="Ellipse_1710-3" data-name="Ellipse 1710-3" class="cls-1" cx="106.50711" cy="72.67885" r="0.51302"/><path id="Path_1452-3" data-name="Path 1452-3" class="cls-1" d="M106.50772,73.44446a.76259.76259,0,0,1-.76319-.762v-.00122a.76319.76319,0,1,1,.76319.76319Zm0-1.02726a.26286.26286,0,1,0,.26226.26345A.26287.26287,0,0,0,106.50772,72.4172Z"/></g><g id="Group_1170-3" data-name="Group 1170-3"><circle id="Ellipse_1711-3" data-name="Ellipse 1711-3" class="cls-1" cx="117.82013" cy="72.67885" r="0.51302"/><path id="Path_1453-3" data-name="Path 1453-3" class="cls-1" d="M117.82012,73.44446a.76348.76348,0,1,1,.76377-.76319A.7644.7644,0,0,1,117.82012,73.44446Zm0-1.02726a.26286.26286,0,1,0,.26344.26345A.26345.26345,0,0,0,117.82012,72.4172Z"/></g><g id="Group_1171-3" data-name="Group 1171-3"><circle id="Ellipse_1712-3" data-name="Ellipse 1712-3" class="cls-1" cx="129.13315" cy="72.67885" r="0.51302"/><path id="Path_1454-3" data-name="Path 1454-3" class="cls-1" d="M129.13012,73.44446a.7632.7632,0,0,1-.76318-.76319h0a.76348.76348,0,1,1,.76318.76319Zm0-1.02726a.26286.26286,0,1,0,.26345.26345A.26287.26287,0,0,0,129.13012,72.4172Z"/></g><g id="Group_1172-3" data-name="Group 1172-3"><circle id="Ellipse_1713-3" data-name="Ellipse 1713-3" class="cls-1" cx="140.44677" cy="72.67885" r="0.51302"/><path id="Path_1455-3" data-name="Path 1455-3" class="cls-1" d="M140.44436,73.44446a.76348.76348,0,1,1,.76318-.76319.76379.76379,0,0,1-.76318.76319Zm0-1.02726a.26286.26286,0,1,0,.26226.26345A.26344.26344,0,0,0,140.44436,72.4172Z"/></g><g id="Group_1173-3" data-name="Group 1173-3"><circle id="Ellipse_1714-3" data-name="Ellipse 1714-3" class="cls-1" cx="151.75979" cy="72.67885" r="0.51302"/><path id="Path_1456-3" data-name="Path 1456-3" class="cls-1" d="M151.75856,73.44446a.76257.76257,0,1,1,.00122,0Zm0-1.02726a.26286.26286,0,1,0,.26226.26345A.26344.26344,0,0,0,151.75856,72.4172Z"/></g><g id="Group_1174-3" data-name="Group 1174-3"><circle id="Ellipse_1715-3" data-name="Ellipse 1715-3" class="cls-1" cx="163.07342" cy="72.67885" r="0.51302"/><path id="Path_1457-3" data-name="Path 1457-3" class="cls-1" d="M163.07342,73.44446a.7632.7632,0,0,1-.76318-.76319h0a.76348.76348,0,1,1,.76318.76319Zm0-1.02726a.26286.26286,0,1,0,.26345.26345A.26287.26287,0,0,0,163.07342,72.4172Z"/></g><g id="Group_1175-3" data-name="Group 1175-3"><circle id="Ellipse_1716-3" data-name="Ellipse 1716-3" class="cls-1" cx="72.56684" cy="84.01242" r="0.51302"/><path id="Path_1458-3" data-name="Path 1458-3" class="cls-1" d="M72.56685,84.7762a.76409.76409,0,0,1,0-1.52817h0a.76409.76409,0,0,1,0,1.52817Zm0-1.02725a.26345.26345,0,1,0,.26227.26344.26348.26348,0,0,0-.26227-.26344Z"/></g><g id="Group_1176-3" data-name="Group 1176-3"><circle id="Ellipse_1717-3" data-name="Ellipse 1717-3" class="cls-1" cx="83.88047" cy="84.01242" r="0.51302"/><path id="Path_1459-3" data-name="Path 1459-3" class="cls-1" d="M83.87984,84.7762a.76409.76409,0,1,1,.76378-.76377A.76439.76439,0,0,1,83.87984,84.7762Zm0-1.02725a.26345.26345,0,1,0,.26344.26344.264.264,0,0,0-.26344-.26344Z"/></g><g id="Group_1177-3" data-name="Group 1177-3"><circle id="Ellipse_1718-3" data-name="Ellipse 1718-3" class="cls-1" cx="95.19349" cy="84.01242" r="0.51302"/><path id="Path_1460-3" data-name="Path 1460-3" class="cls-1" d="M95.19349,84.7762a.76409.76409,0,1,1,.76377-.76377A.7644.7644,0,0,1,95.19349,84.7762Zm0-1.02725a.26345.26345,0,1,0,.26344.26344.264.264,0,0,0-.26344-.26344Z"/></g><g id="Group_1178-3" data-name="Group 1178-3"><circle id="Ellipse_1719-3" data-name="Ellipse 1719-3" class="cls-1" cx="106.50711" cy="84.01242" r="0.51302"/><path id="Path_1461-3" data-name="Path 1461-3" class="cls-1" d="M106.50772,84.7762a.76409.76409,0,0,1,0-1.52817h0a.76409.76409,0,0,1,0,1.52817Zm0-1.02725a.26345.26345,0,1,0,.26226.26344.26348.26348,0,0,0-.26226-.26344Z"/></g><g id="Group_1179-3" data-name="Group 1179-3"><circle id="Ellipse_1720-3" data-name="Ellipse 1720-3" class="cls-1" cx="117.82013" cy="84.01242" r="0.51302"/><path id="Path_1462-3" data-name="Path 1462-3" class="cls-1" d="M117.82012,84.7762a.76409.76409,0,1,1,.76377-.76377A.765.765,0,0,1,117.82012,84.7762Zm0-1.02725a.26345.26345,0,1,0,.26344.26344.26406.26406,0,0,0-.26344-.26344Z"/></g><g id="Group_1180-3" data-name="Group 1180-3"><circle id="Ellipse_1721-3" data-name="Ellipse 1721-3" class="cls-1" cx="129.13315" cy="84.01242" r="0.51302"/><path id="Path_1463-3" data-name="Path 1463-3" class="cls-1" d="M129.13012,84.7762a.76409.76409,0,1,1,.76378-.76377A.76439.76439,0,0,1,129.13012,84.7762Zm0-1.02725a.26345.26345,0,1,0,.26345.26344.26348.26348,0,0,0-.26345-.26344Z"/></g><g id="Group_1181-3" data-name="Group 1181-3"><circle id="Ellipse_1722-3" data-name="Ellipse 1722-3" class="cls-1" cx="140.44677" cy="84.01242" r="0.51302"/><path id="Path_1464-3" data-name="Path 1464-3" class="cls-1" d="M140.44436,84.7762a.76409.76409,0,1,1,.76318-.76377A.76441.76441,0,0,1,140.44436,84.7762Zm0-1.02725a.26345.26345,0,1,0,.26226.26344.264.264,0,0,0-.26226-.26344Z"/></g><g id="Group_1182-3" data-name="Group 1182-3"><circle id="Ellipse_1723-3" data-name="Ellipse 1723-3" class="cls-1" cx="151.75979" cy="84.01242" r="0.51302"/><path id="Path_1465-3" data-name="Path 1465-3" class="cls-1" d="M151.75856,84.7762a.76409.76409,0,1,1,.76318-.76377h0A.76377.76377,0,0,1,151.75856,84.7762Zm0-1.02725a.26345.26345,0,1,0,.26226.26344.264.264,0,0,0-.26226-.26344Z"/></g><g id="Group_1183-3" data-name="Group 1183-3"><circle id="Ellipse_1724-3" data-name="Ellipse 1724-3" class="cls-1" cx="163.07342" cy="84.01242" r="0.51302"/><path id="Path_1466-3" data-name="Path 1466-3" class="cls-1" d="M163.07342,84.7762a.76409.76409,0,1,1,.76378-.76377A.76439.76439,0,0,1,163.07342,84.7762Zm0-1.02725a.26345.26345,0,1,0,.26345.26344.26348.26348,0,0,0-.26345-.26344Z"/></g><g id="Group_1184-3" data-name="Group 1184-3"><circle id="Ellipse_1725-3" data-name="Ellipse 1725-3" class="cls-1" cx="72.56684" cy="95.34598" r="0.51302"/><path id="Path_1467-3" data-name="Path 1467-3" class="cls-1" d="M72.56685,96.10977a.7632.7632,0,0,1-.76318-.76319h0a.7632.7632,0,0,1,.76318-.76318h0a.76319.76319,0,1,1,0,1.52637Zm0-1.02726a.26225.26225,0,0,0-.26226.26223v0a.26164.26164,0,0,0,.261.26226h.00121a.26225.26225,0,0,0,.26227-.26223v0a.26228.26228,0,0,0-.26227-.26046Z"/></g><g id="Group_1185-3" data-name="Group 1185-3"><circle id="Ellipse_1726-3" data-name="Ellipse 1726-3" class="cls-1" cx="83.88047" cy="95.34598" r="0.51302"/><path id="Path_1468-3" data-name="Path 1468-3" class="cls-1" d="M83.87984,96.10977a.76319.76319,0,1,1,.76378-.76319A.76377.76377,0,0,1,83.87984,96.10977Zm0-1.02726a.26137.26137,0,1,1,0,.00181Z"/></g><g id="Group_1186-3" data-name="Group 1186-3"><circle id="Ellipse_1727-3" data-name="Ellipse 1727-3" class="cls-1" cx="95.19349" cy="95.34598" r="0.51302"/><path id="Path_1469-3" data-name="Path 1469-3" class="cls-1" d="M95.19349,96.10977a.76319.76319,0,1,1,.76377-.76319A.76441.76441,0,0,1,95.19349,96.10977Zm0-1.02726a.26137.26137,0,1,1,0,.00181Z"/></g><g id="Group_1187-3" data-name="Group 1187-3"><circle id="Ellipse_1728-3" data-name="Ellipse 1728-3" class="cls-1" cx="106.50711" cy="95.34598" r="0.51302"/><path id="Path_1470-3" data-name="Path 1470-3" class="cls-1" d="M106.50772,96.10977a.76321.76321,0,0,1-.76319-.76319h0a.7632.7632,0,0,1,.76319-.76318h0a.76319.76319,0,0,1,0,1.52637Zm0-1.02726a.26225.26225,0,0,0-.26227.26223v0a.26225.26225,0,0,0,.26223.26226h0a.26224.26224,0,0,0,.26226-.26223v0a.26287.26287,0,0,0-.26226-.26046Z"/></g><g id="Group_1188-3" data-name="Group 1188-3"><circle id="Ellipse_1729-3" data-name="Ellipse 1729-3" class="cls-1" cx="117.82013" cy="95.34598" r="0.51302"/><path id="Path_1471-3" data-name="Path 1471-3" class="cls-1" d="M117.82012,96.10977a.76319.76319,0,1,1,.76377-.76319A.765.765,0,0,1,117.82012,96.10977Zm0-1.02726a.26137.26137,0,1,1,0,.00181Z"/></g><g id="Group_1189-3" data-name="Group 1189-3"><circle id="Ellipse_1730-3" data-name="Ellipse 1730-3" class="cls-1" cx="129.13315" cy="95.34598" r="0.51302"/><path id="Path_1472-3" data-name="Path 1472-3" class="cls-1" d="M129.13012,96.10977a.76319.76319,0,1,1,.76378-.76319A.76439.76439,0,0,1,129.13012,96.10977Zm0-1.02726a.26225.26225,0,0,0-.26226.26223v0a.26224.26224,0,0,0,.26223.26226h0a.26137.26137,0,1,0,0-.52272Z"/></g><g id="Group_1190-3" data-name="Group 1190-3"><circle id="Ellipse_1731-3" data-name="Ellipse 1731-3" class="cls-1" cx="140.44677" cy="95.34598" r="0.51302"/><path id="Path_1473-3" data-name="Path 1473-3" class="cls-1" d="M140.44436,96.10977a.76319.76319,0,1,1,.76318-.76319A.7644.7644,0,0,1,140.44436,96.10977Zm0-1.02726a.26137.26137,0,1,1,0,.00181Z"/></g><g id="Group_1191-3" data-name="Group 1191-3"><circle id="Ellipse_1732-3" data-name="Ellipse 1732-3" class="cls-1" cx="151.75979" cy="95.34598" r="0.51302"/><path id="Path_1474-3" data-name="Path 1474-3" class="cls-1" d="M151.75856,96.10977a.76319.76319,0,1,1,.76318-.76319h0A.76377.76377,0,0,1,151.75856,96.10977Zm0-1.02726a.26227.26227,0,1,0,.26226.26348v-.00121a.26227.26227,0,0,0-.26226-.26046Z"/></g><g id="Group_1192-3" data-name="Group 1192-3"><circle id="Ellipse_1733-3" data-name="Ellipse 1733-3" class="cls-1" cx="163.07342" cy="95.34598" r="0.51302"/><path id="Path_1475-3" data-name="Path 1475-3" class="cls-1" d="M163.07342,96.10977a.76319.76319,0,1,1,.76378-.76319A.76439.76439,0,0,1,163.07342,96.10977Zm0-1.02726a.26227.26227,0,0,0,0,.52453h0a.26137.26137,0,1,0,0-.52272Z"/></g><g id="Group_1193-3" data-name="Group 1193-3"><circle id="Ellipse_1734-3" data-name="Ellipse 1734-3" class="cls-1" cx="72.56684" cy="106.68015" r="0.51302"/><path id="Path_1476-3" data-name="Path 1476-3" class="cls-1" d="M72.56685,107.44336a.76259.76259,0,0,1-.76318-.762v-.00122a.76319.76319,0,1,1,.76318.76319Zm0-1.02726a.26286.26286,0,0,0,0,.52571h0a.26225.26225,0,1,0,0-.52449Z"/></g><g id="Group_1194-3" data-name="Group 1194-3"><circle id="Ellipse_1735-3" data-name="Ellipse 1735-3" class="cls-1" cx="83.88047" cy="106.68015" r="0.51302"/><path id="Path_1477-3" data-name="Path 1477-3" class="cls-1" d="M83.87984,107.44336a.7632.7632,0,0,1-.76318-.76319h0a.76348.76348,0,1,1,.76318.76319Zm0-1.02726a.26284.26284,0,1,1,0,.00122Z"/></g><g id="Group_1195-3" data-name="Group 1195-3"><circle id="Ellipse_1736-3" data-name="Ellipse 1736-3" class="cls-1" cx="95.19349" cy="106.68015" r="0.51302"/><path id="Path_1478-3" data-name="Path 1478-3" class="cls-1" d="M95.19349,107.44336a.76321.76321,0,0,1-.76319-.76319h0a.76348.76348,0,1,1,.76319.76319Zm0-1.02726a.26284.26284,0,1,1,0,.00122Z"/></g><g id="Group_1196-3" data-name="Group 1196-3"><circle id="Ellipse_1737-3" data-name="Ellipse 1737-3" class="cls-1" cx="106.50711" cy="106.68015" r="0.51302"/><path id="Path_1479-3" data-name="Path 1479-3" class="cls-1" d="M106.50772,107.44336a.76259.76259,0,0,1-.76319-.762v-.00122a.76319.76319,0,1,1,.76319.76319Zm0-1.02726a.26284.26284,0,1,1,0,.00122Z"/></g><g id="Group_1197-3" data-name="Group 1197-3"><circle id="Ellipse_1738-3" data-name="Ellipse 1738-3" class="cls-1" cx="117.82013" cy="106.68015" r="0.51302"/><path id="Path_1480-3" data-name="Path 1480-3" class="cls-1" d="M117.82012,107.44336a.76348.76348,0,1,1,.76377-.76319A.7644.7644,0,0,1,117.82012,107.44336Zm0-1.02726a.26284.26284,0,1,1,0,.00122Z"/></g><g id="Group_1198-3" data-name="Group 1198-3"><circle id="Ellipse_1739-3" data-name="Ellipse 1739-3" class="cls-1" cx="129.13315" cy="106.68015" r="0.51302"/><path id="Path_1481-3" data-name="Path 1481-3" class="cls-1" d="M129.13012,107.44336a.7632.7632,0,0,1-.76318-.76319h0a.76348.76348,0,1,1,.76318.76319Zm0-1.02726a.26284.26284,0,1,1,0,.00122Z"/></g><g id="Group_1199-3" data-name="Group 1199-3"><circle id="Ellipse_1740-3" data-name="Ellipse 1740-3" class="cls-1" cx="140.44677" cy="106.68015" r="0.51302"/><path id="Path_1482-3" data-name="Path 1482-3" class="cls-1" d="M140.44436,107.44336a.76348.76348,0,1,1,.76318-.76319.76379.76379,0,0,1-.76318.76319Zm0-1.02726a.26284.26284,0,1,1,0,.00122Z"/></g><g id="Group_1200-3" data-name="Group 1200-3"><circle id="Ellipse_1741-3" data-name="Ellipse 1741-3" class="cls-1" cx="151.75979" cy="106.68015" r="0.51302"/><path id="Path_1483-3" data-name="Path 1483-3" class="cls-1" d="M151.75856,107.44336a.76257.76257,0,1,1,.00122,0Zm0-1.02726a.26284.26284,0,1,1,0,.00122Z"/></g><g id="Group_1201-3" data-name="Group 1201-3"><circle id="Ellipse_1742-3" data-name="Ellipse 1742-3" class="cls-1" cx="163.07342" cy="106.68015" r="0.51302"/><path id="Path_1484-3" data-name="Path 1484-3" class="cls-1" d="M163.07342,107.44336a.7632.7632,0,0,1-.76318-.76319h0a.76348.76348,0,1,1,.76318.76319Zm0-1.02726a.26284.26284,0,1,1,0,.00122Z"/></g><g id="Group_1202-3" data-name="Group 1202-3"><circle id="Ellipse_1743-3" data-name="Ellipse 1743-3" class="cls-1" cx="72.56684" cy="118.01372" r="0.51302"/><path id="Path_1485-3" data-name="Path 1485-3" class="cls-1" d="M72.56685,118.7775a.76378.76378,0,1,1,.76319-.76377A.76377.76377,0,0,1,72.56685,118.7775Zm0-1.02725a.26344.26344,0,1,0,.26227.26344.26347.26347,0,0,0-.26227-.26344Z"/></g><g id="Group_1203-3" data-name="Group 1203-3"><circle id="Ellipse_1744-3" data-name="Ellipse 1744-3" class="cls-1" cx="83.88047" cy="118.01372" r="0.51302"/><path id="Path_1486-3" data-name="Path 1486-3" class="cls-1" d="M83.87984,118.7775a.76378.76378,0,1,1,.76378-.76377A.76377.76377,0,0,1,83.87984,118.7775Zm0-1.02725a.26344.26344,0,1,0,.26344.26344.264.264,0,0,0-.26344-.26344Z"/></g><g id="Group_1204-3" data-name="Group 1204-3"><circle id="Ellipse_1745-3" data-name="Ellipse 1745-3" class="cls-1" cx="95.19349" cy="118.01372" r="0.51302"/><path id="Path_1487-3" data-name="Path 1487-3" class="cls-1" d="M95.19349,118.7775a.76378.76378,0,1,1,.76377-.76377A.7644.7644,0,0,1,95.19349,118.7775Zm0-1.02725a.26344.26344,0,1,0,.26344.26344.264.264,0,0,0-.26344-.26344Z"/></g><g id="Group_1205-3" data-name="Group 1205-3"><circle id="Ellipse_1746-3" data-name="Ellipse 1746-3" class="cls-1" cx="106.50711" cy="118.01372" r="0.51302"/><path id="Path_1488-3" data-name="Path 1488-3" class="cls-1" d="M106.50772,118.7775a.76378.76378,0,1,1,.76318-.76377A.76378.76378,0,0,1,106.50772,118.7775Zm0-1.02725a.26344.26344,0,1,0,.26226.26344.26347.26347,0,0,0-.26226-.26344Z"/></g><g id="Group_1206-3" data-name="Group 1206-3"><circle id="Ellipse_1747-3" data-name="Ellipse 1747-3" class="cls-1" cx="117.82013" cy="118.01372" r="0.51302"/><path id="Path_1489-3" data-name="Path 1489-3" class="cls-1" d="M117.82012,118.7775a.76378.76378,0,1,1,.76377-.76377A.765.765,0,0,1,117.82012,118.7775Zm0-1.02725a.26344.26344,0,1,0,.26344.26344.26406.26406,0,0,0-.26344-.26344Z"/></g><g id="Group_1207-3" data-name="Group 1207-3"><circle id="Ellipse_1748-3" data-name="Ellipse 1748-3" class="cls-1" cx="129.13315" cy="118.01372" r="0.51302"/><path id="Path_1490-3" data-name="Path 1490-3" class="cls-1" d="M129.13012,118.7775a.76378.76378,0,1,1,.76378-.76377A.76439.76439,0,0,1,129.13012,118.7775Zm0-1.02725a.26344.26344,0,1,0,.26345.26344.26347.26347,0,0,0-.26345-.26344Z"/></g><g id="Group_1208-3" data-name="Group 1208-3"><circle id="Ellipse_1749-3" data-name="Ellipse 1749-3" class="cls-1" cx="140.44677" cy="118.01372" r="0.51302"/><path id="Path_1491-3" data-name="Path 1491-3" class="cls-1" d="M140.44436,118.7775a.76378.76378,0,1,1,.76318-.76377A.76441.76441,0,0,1,140.44436,118.7775Zm0-1.02725a.26344.26344,0,1,0,.26226.26344.264.264,0,0,0-.26226-.26344Z"/></g><g id="Group_1209-3" data-name="Group 1209-3"><circle id="Ellipse_1750-3" data-name="Ellipse 1750-3" class="cls-1" cx="151.75979" cy="118.01372" r="0.51302"/><path id="Path_1492-3" data-name="Path 1492-3" class="cls-1" d="M151.75856,118.7775a.76378.76378,0,1,1,.76318-.76377A.765.765,0,0,1,151.75856,118.7775Zm0-1.02725a.26344.26344,0,1,0,.26226.26344.264.264,0,0,0-.26226-.26344Z"/></g><g id="Group_1210-3" data-name="Group 1210-3"><circle id="Ellipse_1751-3" data-name="Ellipse 1751-3" class="cls-1" cx="72.56684" cy="129.34728" r="0.51302"/><path id="Path_1493-3" data-name="Path 1493-3" class="cls-1" d="M72.56685,130.11046a.7632.7632,0,0,1-.76318-.76318h0a.7632.7632,0,0,1,.76318-.76319h0a.76319.76319,0,1,1,0,1.52637Zm0-1.02725a.26227.26227,0,0,0-.00121.52453h.00121a.26166.26166,0,0,0,.26227-.26105v-.00122a.26288.26288,0,0,0-.26227-.26042Z"/></g><g id="Group_1211-3" data-name="Group 1211-3"><circle id="Ellipse_1752-3" data-name="Ellipse 1752-3" class="cls-1" cx="83.88047" cy="129.34728" r="0.51302"/><path id="Path_1494-3" data-name="Path 1494-3" class="cls-1" d="M83.87984,130.11046a.76319.76319,0,1,1,.76378-.76318A.76376.76376,0,0,1,83.87984,130.11046Zm0-1.02725a.26135.26135,0,1,1,0,.00184Z"/></g><g id="Group_1212-3" data-name="Group 1212-3"><circle id="Ellipse_1753-3" data-name="Ellipse 1753-3" class="cls-1" cx="95.19349" cy="129.34728" r="0.51302"/><path id="Path_1495-3" data-name="Path 1495-3" class="cls-1" d="M95.19349,130.11046a.76319.76319,0,1,1,.76377-.76318A.76439.76439,0,0,1,95.19349,130.11046Zm0-1.02725a.26135.26135,0,1,1,0,.00184Z"/></g><g id="Group_1213-3" data-name="Group 1213-3"><circle id="Ellipse_1754-3" data-name="Ellipse 1754-3" class="cls-1" cx="106.50711" cy="129.34728" r="0.51302"/><path id="Path_1496-3" data-name="Path 1496-3" class="cls-1" d="M106.50772,130.11046a.7632.7632,0,0,1-.76319-.76318h0a.76321.76321,0,0,1,.76319-.76319h0a.76319.76319,0,0,1,0,1.52637Zm0-1.02725a.26227.26227,0,0,0-.00122.52453h.00122a.26225.26225,0,0,0,.26226-.26223v0a.26288.26288,0,0,0-.26226-.26042Z"/></g><g id="Group_1214-3" data-name="Group 1214-3"><circle id="Ellipse_1755-3" data-name="Ellipse 1755-3" class="cls-1" cx="117.82013" cy="129.34728" r="0.51302"/><path id="Path_1497-3" data-name="Path 1497-3" class="cls-1" d="M117.82012,130.11046a.76319.76319,0,1,1,.76377-.76318A.765.765,0,0,1,117.82012,130.11046Zm0-1.02725a.26135.26135,0,1,1,0,.00184Z"/></g><g id="Group_1215-3" data-name="Group 1215-3"><circle id="Ellipse_1756-3" data-name="Ellipse 1756-3" class="cls-1" cx="140.44677" cy="129.34728" r="0.51302"/><path id="Path_1498-3" data-name="Path 1498-3" class="cls-1" d="M140.44436,130.11046a.76319.76319,0,1,1,.76318-.76318A.7644.7644,0,0,1,140.44436,130.11046Zm0-1.02725a.26227.26227,0,1,0,.26226.2623v0a.26346.26346,0,0,0-.26226-.26042Z"/></g><g id="Group_1216-3" data-name="Group 1216-3"><circle id="Ellipse_1757-3" data-name="Ellipse 1757-3" class="cls-1" cx="72.56684" cy="140.68085" r="0.51302"/><path id="Path_1499-3" data-name="Path 1499-3" class="cls-1" d="M72.56685,141.44524a.76378.76378,0,1,1,.76319-.76378A.76379.76379,0,0,1,72.56685,141.44524Zm0-1.02726a.26345.26345,0,1,0,.26227.26344.26286.26286,0,0,0-.26227-.26344Z"/></g><g id="Group_1217-3" data-name="Group 1217-3"><circle id="Ellipse_1758-3" data-name="Ellipse 1758-3" class="cls-1" cx="95.19349" cy="140.68085" r="0.51302"/><path id="Path_1500-3" data-name="Path 1500-3" class="cls-1" d="M95.19349,141.44524a.76378.76378,0,1,1,.76377-.76378A.76442.76442,0,0,1,95.19349,141.44524Zm0-1.02726a.26345.26345,0,1,0,.26344.26344.26347.26347,0,0,0-.26344-.26344Z"/></g><g id="Group_1218-3" data-name="Group 1218-3"><circle id="Ellipse_1759-3" data-name="Ellipse 1759-3" class="cls-1" cx="106.50711" cy="140.68085" r="0.51302"/><path id="Path_1501-3" data-name="Path 1501-3" class="cls-1" d="M106.50772,141.44524a.76378.76378,0,1,1,.76318-.76378A.76379.76379,0,0,1,106.50772,141.44524Zm0-1.02726a.26345.26345,0,1,0,.26226.26344.26286.26286,0,0,0-.26226-.26344Z"/></g><g id="Group_1219-3" data-name="Group 1219-3"><circle id="Ellipse_1760-3" data-name="Ellipse 1760-3" class="cls-1" cx="72.56684" cy="152.0144" r="0.51302"/><path id="Path_1502-3" data-name="Path 1502-3" class="cls-1" d="M72.56685,152.77818a.76348.76348,0,0,1-.00121-1.527h.00121a.76321.76321,0,0,1,.76319.76318h0A.76439.76439,0,0,1,72.56685,152.77818Zm0-1.02726a.26225.26225,0,0,0-.26226.26223v0a.26227.26227,0,1,0,.26226-.26105Z"/></g><g id="Group_1220-3" data-name="Group 1220-3"><circle id="Ellipse_1761-3" data-name="Ellipse 1761-3" class="cls-1" cx="72.56684" cy="27.34338" r="0.51302"/><path id="Path_1503-3" data-name="Path 1503-3" class="cls-1" d="M72.56685,28.10717a.7632.7632,0,0,1-.76318-.76318h0a.7626.7626,0,0,1,.762-.76319h.00121a.76319.76319,0,1,1,0,1.52637Zm0-1.02725a.26224.26224,0,0,0-.26226.26223v0a.26166.26166,0,0,0,.261.26227h.00121a.26225.26225,0,0,0,.26227-.26223v0a.26287.26287,0,0,0-.26227-.26045Z"/></g><g id="Group_1221-3" data-name="Group 1221-3"><circle id="Ellipse_1762-3" data-name="Ellipse 1762-3" class="cls-1" cx="83.88047" cy="27.34338" r="0.51302"/><path id="Path_1504-3" data-name="Path 1504-3" class="cls-1" d="M83.87984,28.10717a.76319.76319,0,0,1,0-1.52637h0a.76319.76319,0,1,1,0,1.52637Zm0-1.02725a.26136.26136,0,1,1,0,.00181Z"/></g><g id="Group_1222-3" data-name="Group 1222-3"><circle id="Ellipse_1763-3" data-name="Ellipse 1763-3" class="cls-1" cx="95.19349" cy="27.34338" r="0.51302"/><path id="Path_1505-3" data-name="Path 1505-3" class="cls-1" d="M95.19349,28.10717a.76319.76319,0,1,1,0-1.52637h0a.76319.76319,0,1,1,0,1.52637Zm0-1.02725a.26136.26136,0,1,1,0,.00181Z"/></g><g id="Group_1223-3" data-name="Group 1223-3"><circle id="Ellipse_1764-3" data-name="Ellipse 1764-3" class="cls-1" cx="106.50711" cy="27.34338" r="0.51302"/><path id="Path_1506-3" data-name="Path 1506-3" class="cls-1" d="M106.50772,28.10717a.7632.7632,0,0,1-.76319-.76318h0a.7626.7626,0,0,1,.762-.76319h.00122a.7632.7632,0,0,1,.76318.76319h0A.76377.76377,0,0,1,106.50772,28.10717Zm0-1.02725a.26227.26227,0,0,0,0,.52453h0a.26225.26225,0,0,0,.26226-.26223v0a.26287.26287,0,0,0-.26226-.26045Z"/></g><g id="Group_1224-3" data-name="Group 1224-3"><circle id="Ellipse_1765-3" data-name="Ellipse 1765-3" class="cls-1" cx="117.82013" cy="27.34338" r="0.51302"/><path id="Path_1507-3" data-name="Path 1507-3" class="cls-1" d="M117.82012,28.10717a.76319.76319,0,1,1,.76377-.76318A.765.765,0,0,1,117.82012,28.10717Zm0-1.02725a.26136.26136,0,1,1,0,.00181Z"/></g><g id="Group_1225-3" data-name="Group 1225-3"><circle id="Ellipse_1766-3" data-name="Ellipse 1766-3" class="cls-1" cx="129.13315" cy="27.34338" r="0.51302"/><path id="Path_1508-3" data-name="Path 1508-3" class="cls-1" d="M129.13012,28.10717a.76167.76167,0,1,1,.76378-.76016A.76376.76376,0,0,1,129.13012,28.10717Zm0-1.02725a.26227.26227,0,0,0,0,.52453h0a.26137.26137,0,1,0,0-.52272Z"/></g><g id="Group_1226-3" data-name="Group 1226-3"><circle id="Ellipse_1767-3" data-name="Ellipse 1767-3" class="cls-1" cx="140.44677" cy="27.34338" r="0.51302"/><path id="Path_1509-3" data-name="Path 1509-3" class="cls-1" d="M140.44436,28.10717a.76167.76167,0,1,1,.76318-.76016A.7644.7644,0,0,1,140.44436,28.10717Zm0-1.02725a.26136.26136,0,1,1,0,.00181Z"/></g><g id="Group_1227-3" data-name="Group 1227-3"><circle id="Ellipse_1768-3" data-name="Ellipse 1768-3" class="cls-1" cx="95.19349" cy="16.00982" r="0.51302"/><path id="Path_1510-3" data-name="Path 1510-3" class="cls-1" d="M95.19349,16.77181a.76378.76378,0,1,1,.76377-.76377A.7644.7644,0,0,1,95.19349,16.77181Zm0-1.02725a.26344.26344,0,1,0,.26344.26344A.26347.26347,0,0,0,95.19349,15.74456Z"/></g><g id="Group_1228-3" data-name="Group 1228-3"><circle id="Ellipse_1769-3" data-name="Ellipse 1769-3" class="cls-1" cx="106.50711" cy="16.00982" r="0.51302"/><path id="Path_1511-3" data-name="Path 1511-3" class="cls-1" d="M106.50772,16.77181a.76378.76378,0,1,1,.76318-.76377A.76378.76378,0,0,1,106.50772,16.77181Zm0-1.02725a.26344.26344,0,1,0,.26226.26344A.26286.26286,0,0,0,106.50772,15.74456Z"/></g><g id="Group_1229-3" data-name="Group 1229-3"><circle id="Ellipse_1770-3" data-name="Ellipse 1770-3" class="cls-1" cx="117.82013" cy="16.00982" r="0.51302"/><path id="Path_1512-3" data-name="Path 1512-3" class="cls-1" d="M117.82012,16.77181a.76378.76378,0,1,1,.76377-.76377A.765.765,0,0,1,117.82012,16.77181Zm0-1.02725a.26344.26344,0,1,0,.26344.26344A.26344.26344,0,0,0,117.82012,15.74456Z"/></g><g id="Group_1230-3" data-name="Group 1230-3"><circle id="Ellipse_1771-3" data-name="Ellipse 1771-3" class="cls-1" cx="129.13315" cy="16.00982" r="0.51302"/><path id="Path_1513-3" data-name="Path 1513-3" class="cls-1" d="M129.13012,16.77181a.76378.76378,0,1,1,.76378-.76377A.76439.76439,0,0,1,129.13012,16.77181Zm0-1.02725a.26344.26344,0,1,0,.26345.26344A.26285.26285,0,0,0,129.13012,15.74456Z"/></g><g id="Group_1231-3" data-name="Group 1231-3"><circle id="Ellipse_1772-3" data-name="Ellipse 1772-3" class="cls-1" cx="106.50711" cy="4.67626" r="0.51302"/><path id="Path_1514-3" data-name="Path 1514-3" class="cls-1" d="M106.50772,5.44a.76259.76259,0,0,1-.76319-.762V4.67685a.76319.76319,0,1,1,.76319.76318Zm0-1.02725a.26284.26284,0,1,1,0,.00121Z"/></g><g id="Group_1232-3" data-name="Group 1232-3"><circle id="Ellipse_1773-3" data-name="Ellipse 1773-3" class="cls-1" cx="117.82013" cy="4.67626" r="0.51302"/><path id="Path_1515-3" data-name="Path 1515-3" class="cls-1" d="M117.82012,5.44a.76348.76348,0,1,1,.76377-.76318A.7644.7644,0,0,1,117.82012,5.44Zm0-1.02725a.26284.26284,0,1,1,0,.00121Z"/></g><g id="Group_1233-3" data-name="Group 1233-3"><circle id="Ellipse_1774-3" data-name="Ellipse 1774-3" class="cls-1" cx="72.56684" cy="162.89537" r="0.51302"/><path id="Path_1516-3" data-name="Path 1516-3" class="cls-1" d="M72.56685,163.65916a.76287.76287,0,1,1,.76319-.76377A.76377.76377,0,0,1,72.56685,163.65916Zm0-1.02725a.26164.26164,0,0,0-.26226.261h0a.26232.26232,0,1,0,.26226-.2568Z"/></g></g><g id="Group_1235-3" data-name="Group 1235-3"><path id="Path_1517-3" data-name="Path 1517-3" class="cls-1" d="M169.27859,56.94322a8.39269,8.39269,0,0,0-2.188-6.04264L121.33694,2.27007l-.00907.00907a6.78358,6.78358,0,0,0-1.05566-.96681A7.953,7.953,0,0,0,112.92557.5268L94.87563,6.56157C89.3164,8.42091,84.78018,14.7282,84.76208,20.624v1.7294l-5.61965-5.97013-.00785.00786a6.80679,6.80679,0,0,0-1.05927-.96681,7.94673,7.94673,0,0,0-7.34783-.78553l-18.05417,6.039c-5.55924,1.85749-10.09121,8.1636-10.10751,14.05639l-.003,2.00494-5.82569-6.18585-.00908.00908a6.81544,6.81544,0,0,0-.94324-.846,7.96045,7.96045,0,0,0-7.3569-.78553L.29579,38.41172.03833,126.98459a8.28568,8.28568,0,0,0,2.4394,6.27348l41.56789,44.2073-.01088.0121.41636.423a6.97975,6.97975,0,0,0,5.07944,2.04665,9.83723,9.83723,0,0,0,3.115-.536l18.04876-6.03478c5.55923-1.85933,10.09121-8.166,10.11053-14.05274l.23446-23.9397,9.61565,10.22476.11721.1154a7.01443,7.01443,0,0,0,4.9459,1.90584,9.82711,9.82711,0,0,0,3.10773-.533l18.0451-6.03478c5.55923-1.85933,10.09663-8.16482,10.11356-14.05879v-1.93365l5.8819,6.25533.12086.12507h.00543a7.05853,7.05853,0,0,0,5.10179,2.02187,9.75155,9.75155,0,0,0,3.08173-.52449l28.13749-9.47666Zm-3.05031-5.2148a7.24455,7.24455,0,0,1,1.85631,5.21358l.0363,64.59091L123.38544,74.03114,123.34852,8.126a10.57311,10.57311,0,0,0-.22236-2.208ZM95.25451,7.69818l18.04994-6.036a8.6257,8.6257,0,0,1,2.72582-.47072,5.95157,5.95157,0,0,1,3.54279,1.09132,6.88551,6.88551,0,0,1,2.58139,5.83779l.03685,65.67013L94.86778,82.99422a6.7956,6.7956,0,0,1-6.27226-.62056,6.8851,6.8851,0,0,1-2.58324-5.8378l-.055-55.90524A14.5982,14.5982,0,0,1,95.25451,7.69818ZM43.76521,34.739a14.5857,14.5857,0,0,1,9.29115-12.92823l18.05417-6.0378a8.59586,8.59586,0,0,1,2.72583-.47072,5.95679,5.95679,0,0,1,3.5434,1.09132,6.8851,6.8851,0,0,1,2.58325,5.8378l-.10335,55.94814a14.5915,14.5915,0,0,1-9.2984,12.927l-18.04573,6.036a6.796,6.796,0,0,1-6.268-.62056,6.88962,6.88962,0,0,1-2.58866-5.83477ZM1.233,126.98459l.25924-87.71427,27.32116-9.20473a6.8079,6.8079,0,0,1,6.27709.62178,6.8819,6.8819,0,0,1,2.58139,5.83478l-.24172,77.956a14.5944,14.5944,0,0,1-9.29538,12.92823L10.0866,133.44118a6.79758,6.79758,0,0,1-6.27225-.62178A6.88914,6.88914,0,0,1,1.233,126.98459Zm78.379,32.32809a14.60293,14.60293,0,0,1-9.29538,12.93126l-18.04876,6.03418c-2.72645.913-5.248.48341-6.92424-1.17529L5.69,134.93067a7.79981,7.79981,0,0,0,1.66836.17707,9.81458,9.81458,0,0,0,3.109-.53357l18.04813-6.036c5.55923-1.85871,10.09121-8.16482,10.11053-14.05639l.24172-77.95544a10.52431,10.52431,0,0,0-.22416-2.21221l3.92107,4.1646L42.4667,90.68409A8.278,8.278,0,0,0,44.923,96.96844h0L79.86155,134.121Zm46.17843-32.31481a14.59153,14.59153,0,0,1-9.29719,12.92823l-18.04636,6.03238c-2.6805.8961-5.17674.49369-6.84329-1.09733L48.11773,98.62773a7.7853,7.7853,0,0,0,1.66714.18127,9.81064,9.81064,0,0,0,3.109-.53478l18.04573-6.03478c5.55923-1.8587,10.09726-8.16482,10.11356-14.05639L81.157,22.23492a10.543,10.543,0,0,0-.22236-2.20374l3.83105,4.07152.052,52.43073a8.29178,8.29178,0,0,0,2.42189,6.26318l38.552,41.00048Zm15.0087,4.81356c-2.80862.94025-5.38216.46349-7.0572-1.30884L90.46577,84.48187a7.82117,7.82117,0,0,0,1.67017.18127,9.81513,9.81513,0,0,0,3.11315-.536l27.33448-9.20535,45.06354,47.85162Z"/><path id="Path_1518-3" data-name="Path 1518-3" class="cls-1" d="M49.5305,180.19481a7.21844,7.21844,0,0,1-5.2571-2.121l-.59157-.59884.0163-.01571L2.29642,133.42783a8.46516,8.46516,0,0,1-2.50649-6.44567L.05219,38.23458l.17039-.05739L28.35406,28.6963a8.20771,8.20771,0,0,1,7.58291.82,6.45291,6.45291,0,0,1,.79885.69009l.003-.003.18732.18128,5.393,5.72781V34.73772c.01693-5.99311,4.62683-12.40555,10.27853-14.29505l18.05417-6.0378a8.19445,8.19445,0,0,1,7.57325.82,6.80016,6.80016,0,0,1,.9505.846l.15409.14926,5.18279,5.50907V20.63183C84.53127,14.63692,89.14361,8.22208,94.79711,6.332L112.84587.29717a8.19729,8.19729,0,0,1,7.57324.81818,6.87541,6.87541,0,0,1,.94627.84115l.15409.14926L167.27184,50.732a8.62755,8.62755,0,0,1,2.25633,6.21243l.03806,66.70343-.171.06042-28.13694,9.473a9.9899,9.9899,0,0,1-3.1621.5378,7.26576,7.26576,0,0,1-5.22807-2.04363l-.06041-.05621-.12086-.12506-5.45228-5.80092v1.30461c-.0163,5.99188-4.62926,12.40554-10.28394,14.29626L98.90554,147.329c-3.182,1.06229-6.25352.53054-8.30619-1.42908l-.12086-.12086-9.19333-9.77277-.2284,23.31791C81.03861,165.31,76.4269,171.72063,70.77521,173.612l-18.04876,6.03478A10.1,10.1,0,0,1,49.5305,180.19481Zm-5.14409-2.71919.24172.24172c1.92155,1.94332,4.85041,2.47747,7.93759,1.45025l18.04876-6.03478c5.46315-1.8285,9.922-8.027,9.93892-13.81647l.24172-24.56333L90.94674,145.5391c1.9137,1.82607,4.79542,2.31371,7.798,1.31368L116.7911,140.818c5.46618-1.82851,9.92623-8.02884,9.94136-13.82253v-2.56509l6.43542,6.836a6.76773,6.76773,0,0,0,4.92476,1.94874,9.46465,9.46465,0,0,0,3.0038-.51243l27.96591-9.41746-.03806-66.34812a8.14191,8.14191,0,0,0-2.11492-5.865L121.325,2.62291h-.00424l-.18127-.18127a6.53985,6.53985,0,0,0-1.01759-.933,7.7155,7.7155,0,0,0-7.12064-.74928l-18.04993,6.036c-5.46438,1.82728-9.92381,8.02884-9.94195,13.82555v2.36025l-5.87283-6.242-.00425.00361-.18551-.18732a6.52672,6.52672,0,0,0-1.0194-.9342,7.71,7.71,0,0,0-7.12244-.75171L52.75131,20.9073c-5.46253,1.82728-9.92019,8.02644-9.9359,13.82131L42.81117,37.362,36.545,30.72717a6.288,6.288,0,0,0-.90639-.81213,7.71194,7.71194,0,0,0-7.13031-.75108L.546,38.58625l-.261,88.38923a7.989,7.989,0,0,0,2.35665,6.088L44.38891,177.4605ZM49.542,178.996a6.079,6.079,0,0,1-4.37549-1.71731L4.95335,134.51188l.78978.17342a8.71083,8.71083,0,0,0,4.64435-.35048l18.04813-6.03419c5.46437-1.82972,9.92321-8.02884,9.93892-13.82131l.24172-77.95544a10.29154,10.29154,0,0,0-.21815-2.159l-.18551-.87317L42.81346,38.379v.10279l-.09789,52.20535a7.99891,7.99891,0,0,0,2.376,6.103l.2145.19761-.01814.01512,34.82127,37.02684L79.862,159.31814a14.86871,14.86871,0,0,1-9.4664,13.16449l-18.04875,6.03478a8.85446,8.85446,0,0,1-2.80427.47975ZM6.38066,135.29985l39.1442,41.6289c1.60009,1.58438,4.03043,1.99406,6.66261,1.10821l18.04875-6.03478a14.32774,14.32774,0,0,0,9.12437-12.68953h0l.24533-25.08722-34.895-37.106a8.61431,8.61431,0,0,1-2.49621-6.43357l.09789-52.105-3.28539-3.48963a11.2083,11.2083,0,0,1,.08881,1.43874l-.24172,77.95544c-.01693,5.99008-4.62927,12.40252-10.28092,14.29387L10.54463,134.814a9.547,9.547,0,0,1-4.16335.48706Zm89.34217,11.38132a6.07963,6.07963,0,0,1-4.29025-1.63635l-44.05082-46.834.79217.17522a8.755,8.755,0,0,0,4.64318-.34927L70.86284,92.002c5.46618-1.82851,9.92623-8.02763,9.94194-13.8201L80.90813,22.235a10.29144,10.29144,0,0,0-.21513-2.15176L80.51173,19.21l4.51021,4.79243v.10032l.052,52.43073a8.00769,8.00769,0,0,0,2.34333,6.08132l38.63236,41.08446-.00424,3.3011a14.8584,14.8584,0,0,1-9.4688,13.16449l-18.04573,6.036A8.8747,8.8747,0,0,1,95.72283,146.68117Zm-46.912-47.68,42.97521,45.69259c1.591,1.51428,3.99358,1.89135,6.58165,1.03028l18.04573-6.03478a14.323,14.323,0,0,0,9.12437-12.68953l.00361-3.10227-38.48495-40.928A8.48264,8.48264,0,0,1,84.56631,76.534l-.052-52.32919L81.3178,20.80768a10.88379,10.88379,0,0,1,.087,1.43089l-.10334,55.94692c-.01693,5.99067-4.62986,12.40433-10.28458,14.29387l-18.04573,6.036A9.59022,9.59022,0,0,1,48.81084,99.00115ZM7.36321,134.16383A6.21245,6.21245,0,0,1,3.67054,133.023a7.125,7.125,0,0,1-2.68776-6.03721l.26046-87.89314.16921-.06042,27.32116-9.20594a7.04646,7.04646,0,0,1,6.50369.65682,7.12009,7.12009,0,0,1,2.68533,6.0378l-.24173,77.956a14.86077,14.86077,0,0,1-9.4664,13.16449l-18.04812,6.036a8.855,8.855,0,0,1-2.80379.48642ZM1.74357,39.45218l-.25924,87.536a6.65,6.65,0,0,0,2.47747,5.6293,6.56307,6.56307,0,0,0,6.04625.58675l18.04812-6.03478A14.32774,14.32774,0,0,0,37.18054,114.48l.24172-77.956a6.64075,6.64075,0,0,0-2.47747-5.63053,6.57812,6.57812,0,0,0-6.05108-.588Zm136.32181,93.08316a6.03292,6.03292,0,0,1-4.50357-1.86052L89.731,84.06437l.78918.17342A8.746,8.746,0,0,0,95.173,83.8873l27.48554-9.2561.11.116,45.33126,48.13564-.37043.12507-26.84742,9.04219a8.8919,8.8919,0,0,1-2.81833.48525ZM91.15822,84.8523l42.76613,45.4775c1.60312,1.69617,4.08058,2.15361,6.79494,1.243l26.477-8.91591-44.6871-47.451-27.181,9.157a9.61374,9.61374,0,0,1-4.17124.48945Zm77.21519,37.31327-45.237-48.03592v-.10032L123.1002,8.12479a10.34258,10.34258,0,0,0-.21753-2.156l-.18127-.87195,43.71184,46.4588a7.49261,7.49261,0,0,1,1.92521,5.38821Zm-44.736-48.23471,44.23209,46.97119-.0363-63.95946a6.99967,6.99967,0,0,0-1.78557-5.03836l-.003-.00424L123.50807,6.69022a10.998,10.998,0,0,1,.08881,1.43571Zm-73.847,23.93306a6.20531,6.20531,0,0,1-3.686-1.13842A7.12888,7.12888,0,0,1,43.413,90.68287L43.51811,34.736a14.85263,14.85263,0,0,1,9.46275-13.16449l18.05359-6.039a7.1335,7.1335,0,0,1,6.49583.65564,7.1302,7.1302,0,0,1,2.68654,6.04263l-.10393,55.94692a14.85241,14.85241,0,0,1-9.4688,13.16449l-18.04573,6.036a8.87072,8.87072,0,0,1-2.80921.48521ZM44.0166,34.73956l-.10515,55.94692a6.64669,6.64669,0,0,0,2.48414,5.63233,6.55166,6.55166,0,0,0,6.04263.58553l18.04695-6.03478A14.32038,14.32038,0,0,0,79.60954,78.18l.10393-55.94692A6.65411,6.65411,0,0,0,77.236,16.59775a6.559,6.559,0,0,0-6.04263-.58552L53.13554,22.04579a14.31915,14.31915,0,0,0-9.12016,12.68953ZM92.14136,83.71573a6.20379,6.20379,0,0,1-3.69082-1.14026,7.12714,7.12714,0,0,1-2.68776-6.04263l-.055-55.90344A14.86672,14.86672,0,0,1,95.1754,7.46008h0l18.04994-6.03419a7.12519,7.12519,0,0,1,6.49461.65379,7.12692,7.12692,0,0,1,2.68474,6.04264l.03685,65.849-.1704.05739L94.94755,83.22989a8.88912,8.88912,0,0,1-2.8074.48521ZM95.33429,7.93625a14.32422,14.32422,0,0,0-9.12436,12.695l.055,55.90281a6.65335,6.65335,0,0,0,2.47746,5.63413,6.53427,6.53427,0,0,0,6.04566.58675l27.152-9.14432-.03684-65.49007a6.63931,6.63931,0,0,0-2.47747-5.63414,6.56875,6.56875,0,0,0-6.04263-.58552Z"/></g></g></g></svg>