<svg id="Layer_1" data-name="Layer 1" xmlns="http://www.w3.org/2000/svg" width="169.77637" height="180.44669" viewBox="0 0 169.77637 180.44669"><defs><style>.cls-1{fill:#d41c5b;}</style></defs><g id="Group_1472" data-name="Group 1472"><g id="Group_1236-3" data-name="Group 1236-3"><g id="Group_1234-3" data-name="Group 1234-3"><g id="Group_1080-3" data-name="Group 1080-3"><circle id="Ellipse_1621-3" data-name="Ellipse 1621-3" class="cls-1" cx="16.21067" cy="38.98218" r="0.51302"/><path id="Path_1363-3" data-name="Path 1363-3" class="cls-1" d="M16.2113,39.746a.76348.76348,0,1,1,.76319-.76318.76377.76377,0,0,1-.76319.76318Zm0-1.02725a.26283.26283,0,1,1,0,.00122Z"/></g><g id="Group_1081-3" data-name="Group 1081-3"><circle id="Ellipse_1622-3" data-name="Ellipse 1622-3" class="cls-1" cx="27.5243" cy="38.98218" r="0.51302"/><path id="Path_1364-3" data-name="Path 1364-3" class="cls-1" d="M27.52428,39.746a.76348.76348,0,1,1,.76319-.76318.76377.76377,0,0,1-.76319.76318Zm0-1.02725a.26283.26283,0,1,1,0,.00122Z"/></g><g id="Group_1082-3" data-name="Group 1082-3"><circle id="Ellipse_1623-3" data-name="Ellipse 1623-3" class="cls-1" cx="50.15034" cy="38.98218" r="0.51302"/><path id="Path_1365-3" data-name="Path 1365-3" class="cls-1" d="M50.151,39.746a.76348.76348,0,1,1,.76319-.76318.76377.76377,0,0,1-.76319.76318Zm0-1.02725a.26283.26283,0,1,1,0,.00122Z"/></g><g id="Group_1083-3" data-name="Group 1083-3"><circle id="Ellipse_1624-3" data-name="Ellipse 1624-3" class="cls-1" cx="4.89765" cy="50.31635" r="0.51302"/><path id="Path_1366-3" data-name="Path 1366-3" class="cls-1" d="M4.89765,51.08013a.76378.76378,0,1,1,.76378-.76377A.76439.76439,0,0,1,4.89765,51.08013Zm0-1.02725a.26344.26344,0,1,0,.26345.26344A.26347.26347,0,0,0,4.89765,50.05288Z"/></g><g id="Group_1084-3" data-name="Group 1084-3"><circle id="Ellipse_1625-3" data-name="Ellipse 1625-3" class="cls-1" cx="16.21067" cy="50.31635" r="0.51302"/><path id="Path_1367-3" data-name="Path 1367-3" class="cls-1" d="M16.2113,51.08013a.76378.76378,0,1,1,.76319-.76377A.7644.7644,0,0,1,16.2113,51.08013Zm0-1.02725a.26344.26344,0,1,0,.26226.26344A.26467.26467,0,0,0,16.2113,50.05288Z"/></g><g id="Group_1085-3" data-name="Group 1085-3"><circle id="Ellipse_1626-3" data-name="Ellipse 1626-3" class="cls-1" cx="27.5243" cy="50.31635" r="0.51302"/><path id="Path_1368-3" data-name="Path 1368-3" class="cls-1" d="M27.52428,51.08013a.76378.76378,0,1,1,.76319-.76377A.7644.7644,0,0,1,27.52428,51.08013Zm0-1.02725a.26344.26344,0,1,0,.26227.26344A.26467.26467,0,0,0,27.52428,50.05288Z"/></g><g id="Group_1086-3" data-name="Group 1086-3"><circle id="Ellipse_1627-3" data-name="Ellipse 1627-3" class="cls-1" cx="50.15034" cy="50.31635" r="0.51302"/><path id="Path_1369-3" data-name="Path 1369-3" class="cls-1" d="M50.151,51.08013a.76378.76378,0,1,1,.76319-.76377A.7644.7644,0,0,1,50.151,51.08013Zm0-1.02725a.26344.26344,0,1,0,.26227.26344A.26467.26467,0,0,0,50.151,50.05288Z"/></g><g id="Group_1087-3" data-name="Group 1087-3"><circle id="Ellipse_1628-3" data-name="Ellipse 1628-3" class="cls-1" cx="4.89765" cy="61.64931" r="0.51302"/><path id="Path_1370-3" data-name="Path 1370-3" class="cls-1" d="M4.89765,62.4131a.76319.76319,0,0,1,0-1.52637h0a.76319.76319,0,1,1,0,1.52637Zm0-1.02726a.26227.26227,0,0,0-.00121.52453h.00121a.26137.26137,0,1,0,0-.52272Z"/></g><g id="Group_1088-3" data-name="Group 1088-3"><circle id="Ellipse_1629-3" data-name="Ellipse 1629-3" class="cls-1" cx="16.21067" cy="61.64931" r="0.51302"/><path id="Path_1371-3" data-name="Path 1371-3" class="cls-1" d="M16.2113,62.4131a.76319.76319,0,1,1,.76319-.76319A.7644.7644,0,0,1,16.2113,62.4131Zm0-1.02726a.26227.26227,0,1,0,.26226.2623v0a.26343.26343,0,0,0-.26226-.26045Z"/></g><g id="Group_1089-3" data-name="Group 1089-3"><circle id="Ellipse_1630-3" data-name="Ellipse 1630-3" class="cls-1" cx="27.5243" cy="61.64931" r="0.51302"/><path id="Path_1372-3" data-name="Path 1372-3" class="cls-1" d="M27.52428,62.4131a.76319.76319,0,1,1,.76319-.76319h0A.76378.76378,0,0,1,27.52428,62.4131Zm0-1.02726a.26227.26227,0,1,0,.26227.2623v0a.26344.26344,0,0,0-.26227-.26045Z"/></g><g id="Group_1090-3" data-name="Group 1090-3"><circle id="Ellipse_1631-3" data-name="Ellipse 1631-3" class="cls-1" cx="50.15034" cy="61.64931" r="0.51302"/><path id="Path_1373-3" data-name="Path 1373-3" class="cls-1" d="M50.151,62.4131a.76319.76319,0,1,1,.76319-.76319h0A.76378.76378,0,0,1,50.151,62.4131Zm0-1.02726a.26136.26136,0,1,1,0,.00181Z"/></g><g id="Group_1091-3" data-name="Group 1091-3"><circle id="Ellipse_1632-3" data-name="Ellipse 1632-3" class="cls-1" cx="4.89765" cy="72.98348" r="0.51302"/><path id="Path_1374-3" data-name="Path 1374-3" class="cls-1" d="M4.89765,73.74908a.7632.7632,0,0,1-.76318-.76318h0a.76348.76348,0,1,1,.76318.76318Zm0-1.02725a.26285.26285,0,1,0,.26345.26344A.26286.26286,0,0,0,4.89765,72.72183Z"/></g><g id="Group_1092-3" data-name="Group 1092-3"><circle id="Ellipse_1633-3" data-name="Ellipse 1633-3" class="cls-1" cx="16.21067" cy="72.98348" r="0.51302"/><path id="Path_1375-3" data-name="Path 1375-3" class="cls-1" d="M16.2113,73.74908a.76348.76348,0,1,1,.76319-.76318.76377.76377,0,0,1-.76319.76318Zm0-1.02725a.26285.26285,0,1,0,.26226.26344A.26344.26344,0,0,0,16.2113,72.72183Z"/></g><g id="Group_1093-3" data-name="Group 1093-3"><circle id="Ellipse_1634-3" data-name="Ellipse 1634-3" class="cls-1" cx="27.5243" cy="72.98348" r="0.51302"/><path id="Path_1376-3" data-name="Path 1376-3" class="cls-1" d="M27.52428,73.74908a.76348.76348,0,1,1,.76319-.76318.76377.76377,0,0,1-.76319.76318Zm0-1.02725a.26285.26285,0,1,0,.26227.26344A.26344.26344,0,0,0,27.52428,72.72183Z"/></g><g id="Group_1094-3" data-name="Group 1094-3"><circle id="Ellipse_1635-3" data-name="Ellipse 1635-3" class="cls-1" cx="50.15034" cy="72.98348" r="0.51302"/><path id="Path_1377-3" data-name="Path 1377-3" class="cls-1" d="M50.151,73.74908a.76348.76348,0,1,1,.76319-.76318.76377.76377,0,0,1-.76319.76318Zm0-1.02725a.26285.26285,0,1,0,.26227.26344A.26344.26344,0,0,0,50.151,72.72183Z"/></g><g id="Group_1095-3" data-name="Group 1095-3"><circle id="Ellipse_1636-3" data-name="Ellipse 1636-3" class="cls-1" cx="4.89765" cy="84.31705" r="0.51302"/><path id="Path_1378-3" data-name="Path 1378-3" class="cls-1" d="M4.89765,85.08083a.76409.76409,0,1,1,.76378-.76377A.76439.76439,0,0,1,4.89765,85.08083Zm0-1.02726a.26345.26345,0,1,0,.26345.26345.26349.26349,0,0,0-.26345-.26345Z"/></g><g id="Group_1096-3" data-name="Group 1096-3"><circle id="Ellipse_1637-3" data-name="Ellipse 1637-3" class="cls-1" cx="16.21067" cy="84.31705" r="0.51302"/><path id="Path_1379-3" data-name="Path 1379-3" class="cls-1" d="M16.2113,85.08083a.76409.76409,0,1,1,.76319-.76377A.7644.7644,0,0,1,16.2113,85.08083Zm0-1.02726a.26345.26345,0,1,0,.26226.26345.26406.26406,0,0,0-.26226-.26345Z"/></g><g id="Group_1097-3" data-name="Group 1097-3"><circle id="Ellipse_1638-3" data-name="Ellipse 1638-3" class="cls-1" cx="27.5243" cy="84.31705" r="0.51302"/><path id="Path_1380-3" data-name="Path 1380-3" class="cls-1" d="M27.52428,85.08083a.76409.76409,0,1,1,.76319-.76377A.7644.7644,0,0,1,27.52428,85.08083Zm0-1.02726a.26345.26345,0,1,0,.26227.26345.26406.26406,0,0,0-.26227-.26345Z"/></g><g id="Group_1098-3" data-name="Group 1098-3"><circle id="Ellipse_1639-3" data-name="Ellipse 1639-3" class="cls-1" cx="50.15034" cy="84.31705" r="0.51302"/><path id="Path_1381-3" data-name="Path 1381-3" class="cls-1" d="M50.151,85.08083a.76409.76409,0,1,1,.76319-.76377A.7644.7644,0,0,1,50.151,85.08083Zm0-1.02726a.26345.26345,0,1,0,.26227.26345.26406.26406,0,0,0-.26227-.26345Z"/></g><g id="Group_1099-3" data-name="Group 1099-3"><circle id="Ellipse_1640-3" data-name="Ellipse 1640-3" class="cls-1" cx="4.89765" cy="95.6506" r="0.51302"/><path id="Path_1382-3" data-name="Path 1382-3" class="cls-1" d="M4.89765,96.41439a.76319.76319,0,1,1,.76378-.76318A.76376.76376,0,0,1,4.89765,96.41439Zm0-1.02725a.26224.26224,0,0,0-.26226.26222v0a.26164.26164,0,0,0,.26105.26226h.00121a.26137.26137,0,1,0,0-.52272Z"/></g><g id="Group_1100-3" data-name="Group 1100-3"><circle id="Ellipse_1641-3" data-name="Ellipse 1641-3" class="cls-1" cx="16.21067" cy="95.6506" r="0.51302"/><path id="Path_1383-3" data-name="Path 1383-3" class="cls-1" d="M16.2113,96.41439a.76319.76319,0,1,1,.76319-.76318A.76439.76439,0,0,1,16.2113,96.41439Zm0-1.02725a.26136.26136,0,1,1,0,.0018Z"/></g><g id="Group_1101-3" data-name="Group 1101-3"><circle id="Ellipse_1642-3" data-name="Ellipse 1642-3" class="cls-1" cx="27.5243" cy="95.6506" r="0.51302"/><path id="Path_1384-3" data-name="Path 1384-3" class="cls-1" d="M27.52428,96.41439a.76319.76319,0,1,1,.76319-.76318A.76439.76439,0,0,1,27.52428,96.41439Zm0-1.02725a.26226.26226,0,1,0,.26227.2623v0a.2629.2629,0,0,0-.26227-.26046Z"/></g><g id="Group_1102-3" data-name="Group 1102-3"><circle id="Ellipse_1643-3" data-name="Ellipse 1643-3" class="cls-1" cx="50.15034" cy="95.6506" r="0.51302"/><path id="Path_1385-3" data-name="Path 1385-3" class="cls-1" d="M50.151,96.41439a.76319.76319,0,1,1,.76319-.76318A.76439.76439,0,0,1,50.151,96.41439Zm0-1.02725a.26136.26136,0,1,1,0,.0018Z"/></g><g id="Group_1103-3" data-name="Group 1103-3"><circle id="Ellipse_1644-3" data-name="Ellipse 1644-3" class="cls-1" cx="4.89765" cy="106.98478" r="0.51302"/><path id="Path_1386-3" data-name="Path 1386-3" class="cls-1" d="M4.89765,107.748a.7632.7632,0,0,1-.76318-.76318h0a.76348.76348,0,1,1,.76318.76318Zm0-1.02725a.26285.26285,0,0,0,0,.5257h0a.26225.26225,0,1,0,0-.52449Z"/></g><g id="Group_1104-3" data-name="Group 1104-3"><circle id="Ellipse_1645-3" data-name="Ellipse 1645-3" class="cls-1" cx="16.21067" cy="106.98478" r="0.51302"/><path id="Path_1387-3" data-name="Path 1387-3" class="cls-1" d="M16.2113,107.748a.76348.76348,0,1,1,.76319-.76318.76377.76377,0,0,1-.76319.76318Zm0-1.02725a.26284.26284,0,1,1,0,.00121Z"/></g><g id="Group_1105-3" data-name="Group 1105-3"><circle id="Ellipse_1646-3" data-name="Ellipse 1646-3" class="cls-1" cx="27.5243" cy="106.98478" r="0.51302"/><path id="Path_1388-3" data-name="Path 1388-3" class="cls-1" d="M27.52428,107.748a.76348.76348,0,1,1,.76319-.76318.76377.76377,0,0,1-.76319.76318Zm0-1.02725a.26284.26284,0,1,1,0,.00121Z"/></g><g id="Group_1106-3" data-name="Group 1106-3"><circle id="Ellipse_1647-3" data-name="Ellipse 1647-3" class="cls-1" cx="50.15034" cy="106.98478" r="0.51302"/><path id="Path_1389-3" data-name="Path 1389-3" class="cls-1" d="M50.151,107.748a.76348.76348,0,1,1,.76319-.76318.76377.76377,0,0,1-.76319.76318Zm0-1.02725a.26284.26284,0,1,1,0,.00121Z"/></g><g id="Group_1107-3" data-name="Group 1107-3"><circle id="Ellipse_1648-3" data-name="Ellipse 1648-3" class="cls-1" cx="4.89765" cy="118.31834" r="0.51302"/><path id="Path_1390-3" data-name="Path 1390-3" class="cls-1" d="M4.89765,119.08213a.76378.76378,0,1,1,.76378-.76378A.7644.7644,0,0,1,4.89765,119.08213Zm0-1.02726a.26345.26345,0,1,0,.26345.26344.26348.26348,0,0,0-.26345-.26344Z"/></g><g id="Group_1108-3" data-name="Group 1108-3"><circle id="Ellipse_1649-3" data-name="Ellipse 1649-3" class="cls-1" cx="16.21067" cy="118.31834" r="0.51302"/><path id="Path_1391-3" data-name="Path 1391-3" class="cls-1" d="M16.2113,119.08213a.76378.76378,0,1,1,.76319-.76378A.7644.7644,0,0,1,16.2113,119.08213Zm0-1.02726a.26345.26345,0,1,0,.26226.26344.26406.26406,0,0,0-.26226-.26344Z"/></g><g id="Group_1109-3" data-name="Group 1109-3"><circle id="Ellipse_1650-3" data-name="Ellipse 1650-3" class="cls-1" cx="27.5243" cy="118.31834" r="0.51302"/><path id="Path_1392-3" data-name="Path 1392-3" class="cls-1" d="M27.52428,119.08213a.76378.76378,0,1,1,.76319-.76378A.7644.7644,0,0,1,27.52428,119.08213Zm0-1.02726a.26345.26345,0,1,0,.26227.26344.26406.26406,0,0,0-.26227-.26344Z"/></g><g id="Group_1110-3" data-name="Group 1110-3"><circle id="Ellipse_1651-3" data-name="Ellipse 1651-3" class="cls-1" cx="50.15034" cy="118.31834" r="0.51302"/><path id="Path_1393-3" data-name="Path 1393-3" class="cls-1" d="M50.151,119.08213a.76378.76378,0,1,1,.76319-.76378A.7644.7644,0,0,1,50.151,119.08213Zm0-1.02726a.26345.26345,0,1,0,.26227.26344.26406.26406,0,0,0-.26227-.26344Z"/></g><g id="Group_1111-3" data-name="Group 1111-3"><circle id="Ellipse_1652-3" data-name="Ellipse 1652-3" class="cls-1" cx="4.89765" cy="129.6519" r="0.51302"/><path id="Path_1394-3" data-name="Path 1394-3" class="cls-1" d="M4.89765,130.41509a.76319.76319,0,1,1,.76378-.76319A.76377.76377,0,0,1,4.89765,130.41509Zm0-1.02726a.26227.26227,0,0,0-.00121.52453h.00121a.26135.26135,0,1,0,0-.52268Z"/></g><g id="Group_1112-3" data-name="Group 1112-3"><circle id="Ellipse_1653-3" data-name="Ellipse 1653-3" class="cls-1" cx="16.21067" cy="129.6519" r="0.51302"/><path id="Path_1395-3" data-name="Path 1395-3" class="cls-1" d="M16.2113,130.41509a.76319.76319,0,1,1,.76319-.76319A.76439.76439,0,0,1,16.2113,130.41509Zm0-1.02726a.26135.26135,0,1,1,0,.00185Z"/></g><g id="Group_1113-3" data-name="Group 1113-3"><circle id="Ellipse_1654-3" data-name="Ellipse 1654-3" class="cls-1" cx="38.83792" cy="129.6519" r="0.51302"/><path id="Path_1396-3" data-name="Path 1396-3" class="cls-1" d="M38.83729,130.41509a.76319.76319,0,1,1,.76319-.76319h0a.76321.76321,0,0,1-.76319.76319Zm0-1.02726a.26227.26227,0,0,0-.00121.52453h.00121a.26166.26166,0,0,0,.26227-.26105v-.00121a.26287.26287,0,0,0-.26227-.26042Z"/></g><g id="Group_1114-3" data-name="Group 1114-3"><circle id="Ellipse_1655-3" data-name="Ellipse 1655-3" class="cls-1" cx="50.15034" cy="129.6519" r="0.51302"/><path id="Path_1397-3" data-name="Path 1397-3" class="cls-1" d="M50.151,130.41509a.76319.76319,0,1,1,.76319-.76319A.76439.76439,0,0,1,50.151,130.41509Zm0-1.02726a.26135.26135,0,1,1,0,.00185Z"/></g><g id="Group_1115-3" data-name="Group 1115-3"><circle id="Ellipse_1656-3" data-name="Ellipse 1656-3" class="cls-1" cx="16.21067" cy="140.98547" r="0.51302"/><path id="Path_1398-3" data-name="Path 1398-3" class="cls-1" d="M16.2113,141.74986a.76378.76378,0,1,1,.76319-.76377A.7644.7644,0,0,1,16.2113,141.74986Zm0-1.02725a.26344.26344,0,1,0,.26226.26344.26343.26343,0,0,0-.26226-.26344Z"/></g><g id="Group_1116-3" data-name="Group 1116-3"><circle id="Ellipse_1657-3" data-name="Ellipse 1657-3" class="cls-1" cx="27.5243" cy="140.98547" r="0.51302"/><path id="Path_1399-3" data-name="Path 1399-3" class="cls-1" d="M27.52428,141.74986a.76378.76378,0,1,1,.76319-.76377A.7644.7644,0,0,1,27.52428,141.74986Zm0-1.02725a.26344.26344,0,1,0,.26227.26344.26344.26344,0,0,0-.26227-.26344Z"/></g><g id="Group_1117-3" data-name="Group 1117-3"><circle id="Ellipse_1658-3" data-name="Ellipse 1658-3" class="cls-1" cx="38.83792" cy="140.98547" r="0.51302"/><path id="Path_1400-3" data-name="Path 1400-3" class="cls-1" d="M38.83729,141.74986a.76378.76378,0,1,1,.76319-.76377A.76439.76439,0,0,1,38.83729,141.74986Zm0-1.02725a.26344.26344,0,1,0,.26227.26344.26285.26285,0,0,0-.26227-.26344Z"/></g><g id="Group_1118-3" data-name="Group 1118-3"><circle id="Ellipse_1659-3" data-name="Ellipse 1659-3" class="cls-1" cx="50.15034" cy="140.98547" r="0.51302"/><path id="Path_1401-3" data-name="Path 1401-3" class="cls-1" d="M50.151,141.74986a.76378.76378,0,1,1,.76319-.76377A.7644.7644,0,0,1,50.151,141.74986Zm0-1.02725a.26344.26344,0,1,0,.26227.26344.26344.26344,0,0,0-.26227-.26344Z"/></g><g id="Group_1119-3" data-name="Group 1119-3"><circle id="Ellipse_1660-3" data-name="Ellipse 1660-3" class="cls-1" cx="27.5243" cy="152.31903" r="0.51302"/><path id="Path_1402-3" data-name="Path 1402-3" class="cls-1" d="M27.52428,153.08281a.76348.76348,0,1,1,.76319-.76378h0A.7644.7644,0,0,1,27.52428,153.08281Zm0-1.02726a.26165.26165,0,1,1,0,.00122Z"/></g><g id="Group_1120-3" data-name="Group 1120-3"><circle id="Ellipse_1661-3" data-name="Ellipse 1661-3" class="cls-1" cx="38.83792" cy="152.31903" r="0.51302"/><path id="Path_1403-3" data-name="Path 1403-3" class="cls-1" d="M38.83729,153.08281a.76348.76348,0,0,1,0-1.527h0a.76259.76259,0,0,1,.76319.762v.00122A.76379.76379,0,0,1,38.83729,153.08281Zm0-1.02726a.26224.26224,0,0,0-.26226.26223v0a.26227.26227,0,1,0,.26226-.261Z"/></g><g id="Group_1121-3" data-name="Group 1121-3"><circle id="Ellipse_1662-3" data-name="Ellipse 1662-3" class="cls-1" cx="50.15034" cy="152.31903" r="0.51302"/><path id="Path_1404-3" data-name="Path 1404-3" class="cls-1" d="M50.151,153.08281a.76348.76348,0,1,1,.76319-.76378h0A.7644.7644,0,0,1,50.151,153.08281Zm0-1.02726a.26165.26165,0,1,1,0,.00122Z"/></g><g id="Group_1122-3" data-name="Group 1122-3"><circle id="Ellipse_1663-3" data-name="Ellipse 1663-3" class="cls-1" cx="61.46396" cy="38.98218" r="0.51302"/><path id="Path_1405-3" data-name="Path 1405-3" class="cls-1" d="M61.464,39.746a.76348.76348,0,1,1,.76318-.76318.7644.7644,0,0,1-.76318.76318Zm0-1.02725a.26283.26283,0,1,1,0,.00122Z"/></g><g id="Group_1123-3" data-name="Group 1123-3"><circle id="Ellipse_1664-3" data-name="Ellipse 1664-3" class="cls-1" cx="50.15034" cy="27.64801" r="0.51302"/><path id="Path_1406-3" data-name="Path 1406-3" class="cls-1" d="M50.151,28.4118a.76319.76319,0,1,1,.76319-.76319h0A.76378.76378,0,0,1,50.151,28.4118Zm0-1.02726a.26137.26137,0,1,1,0,.00181Z"/></g><g id="Group_1124-3" data-name="Group 1124-3"><circle id="Ellipse_1665-3" data-name="Ellipse 1665-3" class="cls-1" cx="61.46396" cy="27.64801" r="0.51302"/><path id="Path_1407-3" data-name="Path 1407-3" class="cls-1" d="M61.464,28.4118a.76319.76319,0,1,1,.76318-.76319h0A.76377.76377,0,0,1,61.464,28.4118Zm0-1.02726a.26137.26137,0,1,1,0,.00181Z"/></g><g id="Group_1125-3" data-name="Group 1125-3"><circle id="Ellipse_1666-3" data-name="Ellipse 1666-3" class="cls-1" cx="61.46396" cy="50.31635" r="0.51302"/><path id="Path_1408-3" data-name="Path 1408-3" class="cls-1" d="M61.464,51.08013a.76378.76378,0,1,1,.76318-.76377A.765.765,0,0,1,61.464,51.08013Zm0-1.02725a.26344.26344,0,1,0,.26226.26344A.26406.26406,0,0,0,61.464,50.05288Z"/></g><g id="Group_1126-3" data-name="Group 1126-3"><circle id="Ellipse_1667-3" data-name="Ellipse 1667-3" class="cls-1" cx="61.46396" cy="61.64931" r="0.51302"/><path id="Path_1409-3" data-name="Path 1409-3" class="cls-1" d="M61.464,62.4131a.76319.76319,0,1,1,.76318-.76319h0A.76378.76378,0,0,1,61.464,62.4131Zm0-1.02726a.26227.26227,0,1,0,.26226.2623v0a.26343.26343,0,0,0-.26226-.26045Z"/></g><g id="Group_1127-3" data-name="Group 1127-3"><circle id="Ellipse_1668-3" data-name="Ellipse 1668-3" class="cls-1" cx="61.46396" cy="72.98348" r="0.51302"/><path id="Path_1410-3" data-name="Path 1410-3" class="cls-1" d="M61.464,73.74908a.76348.76348,0,1,1,.76318-.76318.7644.7644,0,0,1-.76318.76318Zm0-1.02725a.26285.26285,0,1,0,.26226.26344A.26345.26345,0,0,0,61.464,72.72183Z"/></g><g id="Group_1128-3" data-name="Group 1128-3"><circle id="Ellipse_1669-3" data-name="Ellipse 1669-3" class="cls-1" cx="61.46396" cy="84.31705" r="0.51302"/><path id="Path_1411-3" data-name="Path 1411-3" class="cls-1" d="M61.464,85.08083a.76409.76409,0,1,1,.76318-.76377A.765.765,0,0,1,61.464,85.08083Zm0-1.02726a.26345.26345,0,1,0,.26226.26345.26408.26408,0,0,0-.26226-.26345Z"/></g><g id="Group_1129-3" data-name="Group 1129-3"><circle id="Ellipse_1670-3" data-name="Ellipse 1670-3" class="cls-1" cx="61.46396" cy="95.6506" r="0.51302"/><path id="Path_1412-3" data-name="Path 1412-3" class="cls-1" d="M61.464,96.41439a.76319.76319,0,1,1,.76318-.76318A.765.765,0,0,1,61.464,96.41439Zm0-1.02725a.26136.26136,0,1,1,0,.0018Z"/></g><g id="Group_1130-3" data-name="Group 1130-3"><circle id="Ellipse_1671-3" data-name="Ellipse 1671-3" class="cls-1" cx="61.46396" cy="106.98478" r="0.51302"/><path id="Path_1413-3" data-name="Path 1413-3" class="cls-1" d="M61.464,107.748a.76348.76348,0,1,1,.76318-.76318.7644.7644,0,0,1-.76318.76318Zm0-1.02725a.26284.26284,0,1,1,0,.00121Z"/></g><g id="Group_1131-3" data-name="Group 1131-3"><circle id="Ellipse_1672-3" data-name="Ellipse 1672-3" class="cls-1" cx="61.46396" cy="118.31834" r="0.51302"/><path id="Path_1414-3" data-name="Path 1414-3" class="cls-1" d="M61.464,119.08213a.76378.76378,0,1,1,.76318-.76378A.765.765,0,0,1,61.464,119.08213Zm0-1.02726a.26345.26345,0,1,0,.26226.26344.26407.26407,0,0,0-.26226-.26344Z"/></g><g id="Group_1132-3" data-name="Group 1132-3"><circle id="Ellipse_1673-3" data-name="Ellipse 1673-3" class="cls-1" cx="61.46396" cy="129.6519" r="0.51302"/><path id="Path_1415-3" data-name="Path 1415-3" class="cls-1" d="M61.464,130.41509a.76319.76319,0,1,1,.76318-.76319A.765.765,0,0,1,61.464,130.41509Zm0-1.02726a.26135.26135,0,1,1,0,.00185Z"/></g><g id="Group_1133-3" data-name="Group 1133-3"><circle id="Ellipse_1674-3" data-name="Ellipse 1674-3" class="cls-1" cx="61.46396" cy="140.98547" r="0.51302"/><path id="Path_1416-3" data-name="Path 1416-3" class="cls-1" d="M61.464,141.74986a.76378.76378,0,1,1,.76318-.76377A.765.765,0,0,1,61.464,141.74986Zm0-1.02725a.26344.26344,0,1,0,.26226.26344.26344.26344,0,0,0-.26226-.26344Z"/></g><g id="Group_1134-3" data-name="Group 1134-3"><circle id="Ellipse_1675-3" data-name="Ellipse 1675-3" class="cls-1" cx="61.46396" cy="152.31903" r="0.51302"/><path id="Path_1417-3" data-name="Path 1417-3" class="cls-1" d="M61.464,153.08281a.76348.76348,0,1,1,.76318-.76378h0A.7644.7644,0,0,1,61.464,153.08281Zm0-1.02726a.26165.26165,0,1,1,0,.00122Z"/></g><g id="Group_1135-3" data-name="Group 1135-3"><circle id="Ellipse_1676-3" data-name="Ellipse 1676-3" class="cls-1" cx="38.83792" cy="163.2" r="0.51302"/><path id="Path_1418-3" data-name="Path 1418-3" class="cls-1" d="M38.83729,163.96379a.76287.76287,0,1,1,.76319-.76378A.7644.7644,0,0,1,38.83729,163.96379Zm0-1.02726a.26164.26164,0,0,0-.26226.261h0a.26232.26232,0,1,0,.26226-.25681Z"/></g><g id="Group_1136-3" data-name="Group 1136-3"><circle id="Ellipse_1677-3" data-name="Ellipse 1677-3" class="cls-1" cx="50.15034" cy="163.2" r="0.51302"/><path id="Path_1419-3" data-name="Path 1419-3" class="cls-1" d="M50.151,163.96379a.76287.76287,0,1,1,.76319-.76378A.7644.7644,0,0,1,50.151,163.96379Zm0-1.02726a.259.259,0,1,1,0,.00424Z"/></g><g id="Group_1137-3" data-name="Group 1137-3"><circle id="Ellipse_1678-3" data-name="Ellipse 1678-3" class="cls-1" cx="61.46396" cy="163.2" r="0.51302"/><path id="Path_1420-3" data-name="Path 1420-3" class="cls-1" d="M61.464,163.96379a.76287.76287,0,1,1,.76318-.76378A.765.765,0,0,1,61.464,163.96379Zm0-1.02726a.259.259,0,1,1,0,.00424Z"/></g><g id="Group_1138-3" data-name="Group 1138-3"><circle id="Ellipse_1679-3" data-name="Ellipse 1679-3" class="cls-1" cx="50.15034" cy="174.08098" r="0.51302"/><path id="Path_1421-3" data-name="Path 1421-3" class="cls-1" d="M50.151,174.84357a.76287.76287,0,1,1,.76319-.762A.76317.76317,0,0,1,50.151,174.84357Zm0-1.02725a.26223.26223,0,1,1,0,.00243Z"/></g><g id="Group_1139-3" data-name="Group 1139-3"><circle id="Ellipse_1680-3" data-name="Ellipse 1680-3" class="cls-1" cx="61.46396" cy="174.08098" r="0.51302"/><path id="Path_1422-3" data-name="Path 1422-3" class="cls-1" d="M61.464,174.84357a.76287.76287,0,1,1,.76318-.762A.76379.76379,0,0,1,61.464,174.84357Zm0-1.02725a.26223.26223,0,1,1,0,.00243Z"/></g><g id="Group_1140-3" data-name="Group 1140-3"><circle id="Ellipse_1681-3" data-name="Ellipse 1681-3" class="cls-1" cx="72.77698" cy="38.98218" r="0.51302"/><path id="Path_1423-3" data-name="Path 1423-3" class="cls-1" d="M72.777,39.746a.76258.76258,0,0,1-.76318-.762v-.00122a.76319.76319,0,1,1,.76318.76318Zm0-1.02725a.26286.26286,0,0,0,0,.52571h0a.26225.26225,0,1,0,0-.52449Z"/></g><g id="Group_1141-3" data-name="Group 1141-3"><circle id="Ellipse_1682-3" data-name="Ellipse 1682-3" class="cls-1" cx="84.09061" cy="38.98218" r="0.51302"/><path id="Path_1424-3" data-name="Path 1424-3" class="cls-1" d="M84.09,39.746a.7632.7632,0,0,1-.76318-.76318h0A.76348.76348,0,1,1,84.09,39.746Zm0-1.02725a.26283.26283,0,1,1,0,.00122Z"/></g><g id="Group_1142-3" data-name="Group 1142-3"><circle id="Ellipse_1683-3" data-name="Ellipse 1683-3" class="cls-1" cx="95.40363" cy="38.98218" r="0.51302"/><path id="Path_1425-3" data-name="Path 1425-3" class="cls-1" d="M95.40363,39.746a.7632.7632,0,0,1-.76319-.76318h0a.76348.76348,0,1,1,.76319.76318Zm0-1.02725a.26283.26283,0,1,1,0,.00122Z"/></g><g id="Group_1143-3" data-name="Group 1143-3"><circle id="Ellipse_1684-3" data-name="Ellipse 1684-3" class="cls-1" cx="106.71725" cy="38.98218" r="0.51302"/><path id="Path_1426-3" data-name="Path 1426-3" class="cls-1" d="M106.71786,39.746a.76259.76259,0,0,1-.76319-.762v-.00122a.76319.76319,0,1,1,.76319.76318Zm0-1.02725a.26283.26283,0,1,1,0,.00122Z"/></g><g id="Group_1144-3" data-name="Group 1144-3"><circle id="Ellipse_1685-3" data-name="Ellipse 1685-3" class="cls-1" cx="118.03027" cy="38.98218" r="0.51302"/><path id="Path_1427-3" data-name="Path 1427-3" class="cls-1" d="M118.03026,39.746a.76348.76348,0,1,1,.76377-.76318A.7644.7644,0,0,1,118.03026,39.746Zm0-1.02725a.26283.26283,0,1,1,0,.00122Z"/></g><g id="Group_1145-3" data-name="Group 1145-3"><circle id="Ellipse_1686-3" data-name="Ellipse 1686-3" class="cls-1" cx="129.34329" cy="38.98218" r="0.51302"/><path id="Path_1428-3" data-name="Path 1428-3" class="cls-1" d="M129.34026,39.746a.7632.7632,0,0,1-.76318-.76318h0a.76348.76348,0,1,1,.76318.76318Zm0-1.02725a.26283.26283,0,1,1,0,.00122Z"/></g><g id="Group_1146-3" data-name="Group 1146-3"><circle id="Ellipse_1687-3" data-name="Ellipse 1687-3" class="cls-1" cx="140.65691" cy="38.98218" r="0.51302"/><path id="Path_1429-3" data-name="Path 1429-3" class="cls-1" d="M140.6545,39.746a.76348.76348,0,1,1,.76318-.76318.76379.76379,0,0,1-.76318.76318Zm0-1.02725a.26283.26283,0,1,1,0,.00122Z"/></g><g id="Group_1147-3" data-name="Group 1147-3"><circle id="Ellipse_1688-3" data-name="Ellipse 1688-3" class="cls-1" cx="151.96993" cy="38.98218" r="0.51302"/><path id="Path_1430-3" data-name="Path 1430-3" class="cls-1" d="M151.9687,39.746a.76257.76257,0,1,1,.00122,0Zm0-1.02725a.26283.26283,0,1,1,0,.00122Z"/></g><g id="Group_1148-3" data-name="Group 1148-3"><circle id="Ellipse_1689-3" data-name="Ellipse 1689-3" class="cls-1" cx="72.77698" cy="50.31635" r="0.51302"/><path id="Path_1431-3" data-name="Path 1431-3" class="cls-1" d="M72.777,51.08013a.76378.76378,0,1,1,.76319-.76377A.76377.76377,0,0,1,72.777,51.08013Zm0-1.02725a.26344.26344,0,1,0,.26227.26344A.26347.26347,0,0,0,72.777,50.05288Z"/></g><g id="Group_1149-3" data-name="Group 1149-3"><circle id="Ellipse_1690-3" data-name="Ellipse 1690-3" class="cls-1" cx="84.09061" cy="50.31635" r="0.51302"/><path id="Path_1432-3" data-name="Path 1432-3" class="cls-1" d="M84.09,51.08013a.76378.76378,0,1,1,.76378-.76377A.76377.76377,0,0,1,84.09,51.08013Zm0-1.02725a.26344.26344,0,1,0,.26344.26344A.264.264,0,0,0,84.09,50.05288Z"/></g><g id="Group_1150-3" data-name="Group 1150-3"><circle id="Ellipse_1691-3" data-name="Ellipse 1691-3" class="cls-1" cx="95.40363" cy="50.31635" r="0.51302"/><path id="Path_1433-3" data-name="Path 1433-3" class="cls-1" d="M95.40363,51.08013a.76378.76378,0,1,1,.76377-.76377A.7644.7644,0,0,1,95.40363,51.08013Zm0-1.02725a.26344.26344,0,1,0,.26344.26344A.264.264,0,0,0,95.40363,50.05288Z"/></g><g id="Group_1151-3" data-name="Group 1151-3"><circle id="Ellipse_1692-3" data-name="Ellipse 1692-3" class="cls-1" cx="106.71725" cy="50.31635" r="0.51302"/><path id="Path_1434-3" data-name="Path 1434-3" class="cls-1" d="M106.71786,51.08013a.76378.76378,0,1,1,.76318-.76377A.76378.76378,0,0,1,106.71786,51.08013Zm0-1.02725a.26344.26344,0,1,0,.26226.26344A.26347.26347,0,0,0,106.71786,50.05288Z"/></g><g id="Group_1152-3" data-name="Group 1152-3"><circle id="Ellipse_1693-3" data-name="Ellipse 1693-3" class="cls-1" cx="118.03027" cy="50.31635" r="0.51302"/><path id="Path_1435-3" data-name="Path 1435-3" class="cls-1" d="M118.03026,51.08013a.76378.76378,0,1,1,.76377-.76377A.765.765,0,0,1,118.03026,51.08013Zm0-1.02725a.26344.26344,0,1,0,.26344.26344A.26469.26469,0,0,0,118.03026,50.05288Z"/></g><g id="Group_1153-3" data-name="Group 1153-3"><circle id="Ellipse_1694-3" data-name="Ellipse 1694-3" class="cls-1" cx="129.34329" cy="50.31635" r="0.51302"/><path id="Path_1436-3" data-name="Path 1436-3" class="cls-1" d="M129.34026,51.08013a.76378.76378,0,1,1,.76378-.76377A.76439.76439,0,0,1,129.34026,51.08013Zm0-1.02725a.26344.26344,0,1,0,.26345.26344A.26347.26347,0,0,0,129.34026,50.05288Z"/></g><g id="Group_1154-3" data-name="Group 1154-3"><circle id="Ellipse_1695-3" data-name="Ellipse 1695-3" class="cls-1" cx="140.65691" cy="50.31635" r="0.51302"/><path id="Path_1437-3" data-name="Path 1437-3" class="cls-1" d="M140.6545,51.08013a.76378.76378,0,1,1,.76318-.76377A.76441.76441,0,0,1,140.6545,51.08013Zm0-1.02725a.26344.26344,0,1,0,.26226.26344A.26467.26467,0,0,0,140.6545,50.05288Z"/></g><g id="Group_1155-3" data-name="Group 1155-3"><circle id="Ellipse_1696-3" data-name="Ellipse 1696-3" class="cls-1" cx="151.96993" cy="50.31635" r="0.51302"/><path id="Path_1438-3" data-name="Path 1438-3" class="cls-1" d="M151.9687,51.08013a.76378.76378,0,1,1,.76318-.76377A.765.765,0,0,1,151.9687,51.08013Zm0-1.02725a.26344.26344,0,1,0,.26226.26344A.264.264,0,0,0,151.9687,50.05288Z"/></g><g id="Group_1156-3" data-name="Group 1156-3"><circle id="Ellipse_1697-3" data-name="Ellipse 1697-3" class="cls-1" cx="163.28356" cy="50.31635" r="0.51302"/><path id="Path_1439-3" data-name="Path 1439-3" class="cls-1" d="M163.28356,51.08013a.76378.76378,0,1,1,.76378-.76377A.76439.76439,0,0,1,163.28356,51.08013Zm0-1.02725a.26344.26344,0,1,0,.26345.26344A.26347.26347,0,0,0,163.28356,50.05288Z"/></g><g id="Group_1157-3" data-name="Group 1157-3"><circle id="Ellipse_1698-3" data-name="Ellipse 1698-3" class="cls-1" cx="72.77698" cy="61.64931" r="0.51302"/><path id="Path_1440-3" data-name="Path 1440-3" class="cls-1" d="M72.777,62.4131a.7632.7632,0,0,1-.76318-.76319h0a.76259.76259,0,0,1,.762-.76318H72.777a.76319.76319,0,1,1,0,1.52637Zm0-1.02726a.26224.26224,0,0,0-.26226.26223v0a.26164.26164,0,0,0,.261.26227H72.777a.26165.26165,0,0,0,.26227-.261V61.6481a.26287.26287,0,0,0-.26227-.26045Z"/></g><g id="Group_1158-3" data-name="Group 1158-3"><circle id="Ellipse_1699-3" data-name="Ellipse 1699-3" class="cls-1" cx="84.09061" cy="61.64931" r="0.51302"/><path id="Path_1441-3" data-name="Path 1441-3" class="cls-1" d="M84.09,62.4131a.76319.76319,0,0,1,0-1.52637h0a.76319.76319,0,1,1,0,1.52637Zm0-1.02726a.26227.26227,0,0,0,0,.52453h0a.26137.26137,0,1,0,0-.52272Z"/></g><g id="Group_1159-3" data-name="Group 1159-3"><circle id="Ellipse_1700-3" data-name="Ellipse 1700-3" class="cls-1" cx="95.40363" cy="61.64931" r="0.51302"/><path id="Path_1442-3" data-name="Path 1442-3" class="cls-1" d="M95.40363,62.4131a.76319.76319,0,1,1,0-1.52637h0a.76319.76319,0,1,1,0,1.52637Zm0-1.02726a.26136.26136,0,1,1,0,.00181Z"/></g><g id="Group_1160-3" data-name="Group 1160-3"><circle id="Ellipse_1701-3" data-name="Ellipse 1701-3" class="cls-1" cx="106.71725" cy="61.64931" r="0.51302"/><path id="Path_1443-3" data-name="Path 1443-3" class="cls-1" d="M106.71786,62.4131a.76321.76321,0,0,1-.76319-.76319h0a.76259.76259,0,0,1,.762-.76318h.00122a.7632.7632,0,0,1,.76318.76318h0A.76378.76378,0,0,1,106.71786,62.4131Zm0-1.02726a.26227.26227,0,0,0-.00122.52453h.00122a.26164.26164,0,0,0,.26226-.261V61.6481a.26287.26287,0,0,0-.26226-.26045Z"/></g><g id="Group_1161-3" data-name="Group 1161-3"><circle id="Ellipse_1702-3" data-name="Ellipse 1702-3" class="cls-1" cx="118.03027" cy="61.64931" r="0.51302"/><path id="Path_1444-3" data-name="Path 1444-3" class="cls-1" d="M118.03026,62.4131a.76319.76319,0,1,1,.76377-.76319A.765.765,0,0,1,118.03026,62.4131Zm0-1.02726a.26136.26136,0,1,1,0,.00181Z"/></g><g id="Group_1162-3" data-name="Group 1162-3"><circle id="Ellipse_1703-3" data-name="Ellipse 1703-3" class="cls-1" cx="129.34329" cy="61.64931" r="0.51302"/><path id="Path_1445-3" data-name="Path 1445-3" class="cls-1" d="M129.34026,62.4131a.76319.76319,0,1,1,.76378-.76319A.76378.76378,0,0,1,129.34026,62.4131Zm0-1.02726a.26227.26227,0,0,0-.00121.52453h.00121a.26137.26137,0,1,0,0-.52272Z"/></g><g id="Group_1163-3" data-name="Group 1163-3"><circle id="Ellipse_1704-3" data-name="Ellipse 1704-3" class="cls-1" cx="140.65691" cy="61.64931" r="0.51302"/><path id="Path_1446-3" data-name="Path 1446-3" class="cls-1" d="M140.6545,62.4131a.76319.76319,0,1,1,.76318-.76319A.76442.76442,0,0,1,140.6545,62.4131Zm0-1.02726a.26227.26227,0,1,0,.26226.2623v0a.26343.26343,0,0,0-.26226-.26045Z"/></g><g id="Group_1164-3" data-name="Group 1164-3"><circle id="Ellipse_1705-3" data-name="Ellipse 1705-3" class="cls-1" cx="151.96993" cy="61.64931" r="0.51302"/><path id="Path_1447-3" data-name="Path 1447-3" class="cls-1" d="M151.9687,62.4131a.76319.76319,0,1,1,.76318-.76441v.00122a.7632.7632,0,0,1-.76318.76319Zm0-1.02726a.26227.26227,0,1,0,.26226.26348V61.6481a.26287.26287,0,0,0-.26226-.26045Z"/></g><g id="Group_1165-3" data-name="Group 1165-3"><circle id="Ellipse_1706-3" data-name="Ellipse 1706-3" class="cls-1" cx="163.28356" cy="61.64931" r="0.51302"/><path id="Path_1448-3" data-name="Path 1448-3" class="cls-1" d="M163.28356,62.4131a.76319.76319,0,0,1,0-1.52637h0a.76319.76319,0,1,1,0,1.52637Zm0-1.02726a.26227.26227,0,0,0,0,.52453h0a.26137.26137,0,1,0,0-.52272Z"/></g><g id="Group_1166-3" data-name="Group 1166-3"><circle id="Ellipse_1707-3" data-name="Ellipse 1707-3" class="cls-1" cx="72.77698" cy="72.98348" r="0.51302"/><path id="Path_1449-3" data-name="Path 1449-3" class="cls-1" d="M72.777,73.74908a.76258.76258,0,0,1-.76318-.762V72.9859a.76319.76319,0,1,1,.76318.76318Zm0-1.02725a.26285.26285,0,0,0,0,.5257h0a.26285.26285,0,0,0,0-.5257Z"/></g><g id="Group_1167-3" data-name="Group 1167-3"><circle id="Ellipse_1708-3" data-name="Ellipse 1708-3" class="cls-1" cx="84.09061" cy="72.98348" r="0.51302"/><path id="Path_1450-3" data-name="Path 1450-3" class="cls-1" d="M84.09,73.74908a.7632.7632,0,0,1-.76318-.76318h0a.76348.76348,0,1,1,.76318.76318Zm0-1.02725a.26285.26285,0,1,0,.26344.26344A.26347.26347,0,0,0,84.09,72.72183Z"/></g><g id="Group_1168-3" data-name="Group 1168-3"><circle id="Ellipse_1709-3" data-name="Ellipse 1709-3" class="cls-1" cx="95.40363" cy="72.98348" r="0.51302"/><path id="Path_1451-3" data-name="Path 1451-3" class="cls-1" d="M95.40363,73.74908a.7632.7632,0,0,1-.76319-.76318h0a.76348.76348,0,1,1,.76319.76318Zm0-1.02725a.26285.26285,0,1,0,.26344.26344A.26347.26347,0,0,0,95.40363,72.72183Z"/></g><g id="Group_1169-3" data-name="Group 1169-3"><circle id="Ellipse_1710-3" data-name="Ellipse 1710-3" class="cls-1" cx="106.71725" cy="72.98348" r="0.51302"/><path id="Path_1452-3" data-name="Path 1452-3" class="cls-1" d="M106.71786,73.74908a.76259.76259,0,0,1-.76319-.762V72.9859a.76319.76319,0,1,1,.76319.76318Zm0-1.02725a.26285.26285,0,1,0,.26226.26344A.26286.26286,0,0,0,106.71786,72.72183Z"/></g><g id="Group_1170-3" data-name="Group 1170-3"><circle id="Ellipse_1711-3" data-name="Ellipse 1711-3" class="cls-1" cx="118.03027" cy="72.98348" r="0.51302"/><path id="Path_1453-3" data-name="Path 1453-3" class="cls-1" d="M118.03026,73.74908a.76348.76348,0,1,1,.76377-.76318A.7644.7644,0,0,1,118.03026,73.74908Zm0-1.02725a.26285.26285,0,1,0,.26344.26344A.26345.26345,0,0,0,118.03026,72.72183Z"/></g><g id="Group_1171-3" data-name="Group 1171-3"><circle id="Ellipse_1712-3" data-name="Ellipse 1712-3" class="cls-1" cx="129.34329" cy="72.98348" r="0.51302"/><path id="Path_1454-3" data-name="Path 1454-3" class="cls-1" d="M129.34026,73.74908a.7632.7632,0,0,1-.76318-.76318h0a.76348.76348,0,1,1,.76318.76318Zm0-1.02725a.26285.26285,0,1,0,.26345.26344A.26286.26286,0,0,0,129.34026,72.72183Z"/></g><g id="Group_1172-3" data-name="Group 1172-3"><circle id="Ellipse_1713-3" data-name="Ellipse 1713-3" class="cls-1" cx="140.65691" cy="72.98348" r="0.51302"/><path id="Path_1455-3" data-name="Path 1455-3" class="cls-1" d="M140.6545,73.74908a.76348.76348,0,1,1,.76318-.76318.76379.76379,0,0,1-.76318.76318Zm0-1.02725a.26285.26285,0,1,0,.26226.26344A.26344.26344,0,0,0,140.6545,72.72183Z"/></g><g id="Group_1173-3" data-name="Group 1173-3"><circle id="Ellipse_1714-3" data-name="Ellipse 1714-3" class="cls-1" cx="151.96993" cy="72.98348" r="0.51302"/><path id="Path_1456-3" data-name="Path 1456-3" class="cls-1" d="M151.9687,73.74908a.76257.76257,0,1,1,.00122,0Zm0-1.02725a.26285.26285,0,1,0,.26226.26344A.26344.26344,0,0,0,151.9687,72.72183Z"/></g><g id="Group_1174-3" data-name="Group 1174-3"><circle id="Ellipse_1715-3" data-name="Ellipse 1715-3" class="cls-1" cx="163.28356" cy="72.98348" r="0.51302"/><path id="Path_1457-3" data-name="Path 1457-3" class="cls-1" d="M163.28356,73.74908a.7632.7632,0,0,1-.76318-.76318h0a.76348.76348,0,1,1,.76318.76318Zm0-1.02725a.26285.26285,0,1,0,.26345.26344A.26286.26286,0,0,0,163.28356,72.72183Z"/></g><g id="Group_1175-3" data-name="Group 1175-3"><circle id="Ellipse_1716-3" data-name="Ellipse 1716-3" class="cls-1" cx="72.77698" cy="84.31705" r="0.51302"/><path id="Path_1458-3" data-name="Path 1458-3" class="cls-1" d="M72.777,85.08083a.76409.76409,0,0,1,0-1.52818h0a.76409.76409,0,0,1,0,1.52818Zm0-1.02726a.26345.26345,0,1,0,.26227.26345.26349.26349,0,0,0-.26227-.26345Z"/></g><g id="Group_1176-3" data-name="Group 1176-3"><circle id="Ellipse_1717-3" data-name="Ellipse 1717-3" class="cls-1" cx="84.09061" cy="84.31705" r="0.51302"/><path id="Path_1459-3" data-name="Path 1459-3" class="cls-1" d="M84.09,85.08083a.76409.76409,0,1,1,.76378-.76377A.76439.76439,0,0,1,84.09,85.08083Zm0-1.02726a.26345.26345,0,1,0,.26344.26345.26405.26405,0,0,0-.26344-.26345Z"/></g><g id="Group_1177-3" data-name="Group 1177-3"><circle id="Ellipse_1718-3" data-name="Ellipse 1718-3" class="cls-1" cx="95.40363" cy="84.31705" r="0.51302"/><path id="Path_1460-3" data-name="Path 1460-3" class="cls-1" d="M95.40363,85.08083a.76409.76409,0,1,1,.76377-.76377A.7644.7644,0,0,1,95.40363,85.08083Zm0-1.02726a.26345.26345,0,1,0,.26344.26345.26405.26405,0,0,0-.26344-.26345Z"/></g><g id="Group_1178-3" data-name="Group 1178-3"><circle id="Ellipse_1719-3" data-name="Ellipse 1719-3" class="cls-1" cx="106.71725" cy="84.31705" r="0.51302"/><path id="Path_1461-3" data-name="Path 1461-3" class="cls-1" d="M106.71786,85.08083a.76409.76409,0,0,1,0-1.52818h0a.76409.76409,0,0,1,0,1.52818Zm0-1.02726a.26345.26345,0,1,0,.26226.26345.26349.26349,0,0,0-.26226-.26345Z"/></g><g id="Group_1179-3" data-name="Group 1179-3"><circle id="Ellipse_1720-3" data-name="Ellipse 1720-3" class="cls-1" cx="118.03027" cy="84.31705" r="0.51302"/><path id="Path_1462-3" data-name="Path 1462-3" class="cls-1" d="M118.03026,85.08083a.76409.76409,0,1,1,.76377-.76377A.765.765,0,0,1,118.03026,85.08083Zm0-1.02726a.26345.26345,0,1,0,.26344.26345.26408.26408,0,0,0-.26344-.26345Z"/></g><g id="Group_1180-3" data-name="Group 1180-3"><circle id="Ellipse_1721-3" data-name="Ellipse 1721-3" class="cls-1" cx="129.34329" cy="84.31705" r="0.51302"/><path id="Path_1463-3" data-name="Path 1463-3" class="cls-1" d="M129.34026,85.08083a.76409.76409,0,1,1,.76378-.76377A.76439.76439,0,0,1,129.34026,85.08083Zm0-1.02726a.26345.26345,0,1,0,.26345.26345.26349.26349,0,0,0-.26345-.26345Z"/></g><g id="Group_1181-3" data-name="Group 1181-3"><circle id="Ellipse_1722-3" data-name="Ellipse 1722-3" class="cls-1" cx="140.65691" cy="84.31705" r="0.51302"/><path id="Path_1464-3" data-name="Path 1464-3" class="cls-1" d="M140.6545,85.08083a.76409.76409,0,1,1,.76318-.76377A.76441.76441,0,0,1,140.6545,85.08083Zm0-1.02726a.26345.26345,0,1,0,.26226.26345.26406.26406,0,0,0-.26226-.26345Z"/></g><g id="Group_1182-3" data-name="Group 1182-3"><circle id="Ellipse_1723-3" data-name="Ellipse 1723-3" class="cls-1" cx="151.96993" cy="84.31705" r="0.51302"/><path id="Path_1465-3" data-name="Path 1465-3" class="cls-1" d="M151.9687,85.08083a.76409.76409,0,1,1,.76318-.76377h0A.76377.76377,0,0,1,151.9687,85.08083Zm0-1.02726a.26345.26345,0,1,0,.26226.26345.26406.26406,0,0,0-.26226-.26345Z"/></g><g id="Group_1183-3" data-name="Group 1183-3"><circle id="Ellipse_1724-3" data-name="Ellipse 1724-3" class="cls-1" cx="163.28356" cy="84.31705" r="0.51302"/><path id="Path_1466-3" data-name="Path 1466-3" class="cls-1" d="M163.28356,85.08083a.76409.76409,0,1,1,.76378-.76377A.76439.76439,0,0,1,163.28356,85.08083Zm0-1.02726a.26345.26345,0,1,0,.26345.26345.26349.26349,0,0,0-.26345-.26345Z"/></g><g id="Group_1184-3" data-name="Group 1184-3"><circle id="Ellipse_1725-3" data-name="Ellipse 1725-3" class="cls-1" cx="72.77698" cy="95.6506" r="0.51302"/><path id="Path_1467-3" data-name="Path 1467-3" class="cls-1" d="M72.777,96.41439a.7632.7632,0,0,1-.76318-.76318h0A.7632.7632,0,0,1,72.777,94.888h0a.76319.76319,0,1,1,0,1.52637Zm0-1.02725a.26224.26224,0,0,0-.26226.26222v0a.26164.26164,0,0,0,.261.26226H72.777a.26224.26224,0,0,0,.26227-.26222v0a.26228.26228,0,0,0-.26227-.26046Z"/></g><g id="Group_1185-3" data-name="Group 1185-3"><circle id="Ellipse_1726-3" data-name="Ellipse 1726-3" class="cls-1" cx="84.09061" cy="95.6506" r="0.51302"/><path id="Path_1468-3" data-name="Path 1468-3" class="cls-1" d="M84.09,96.41439a.76319.76319,0,1,1,.76378-.76318A.76376.76376,0,0,1,84.09,96.41439Zm0-1.02725a.26137.26137,0,1,1,0,.0018Z"/></g><g id="Group_1186-3" data-name="Group 1186-3"><circle id="Ellipse_1727-3" data-name="Ellipse 1727-3" class="cls-1" cx="95.40363" cy="95.6506" r="0.51302"/><path id="Path_1469-3" data-name="Path 1469-3" class="cls-1" d="M95.40363,96.41439a.76319.76319,0,1,1,.76377-.76318A.76439.76439,0,0,1,95.40363,96.41439Zm0-1.02725a.26137.26137,0,1,1,0,.0018Z"/></g><g id="Group_1187-3" data-name="Group 1187-3"><circle id="Ellipse_1728-3" data-name="Ellipse 1728-3" class="cls-1" cx="106.71725" cy="95.6506" r="0.51302"/><path id="Path_1470-3" data-name="Path 1470-3" class="cls-1" d="M106.71786,96.41439a.7632.7632,0,0,1-.76319-.76318h0a.76321.76321,0,0,1,.76319-.76319h0a.76319.76319,0,0,1,0,1.52637Zm0-1.02725a.26224.26224,0,0,0-.26227.26222v0a.26225.26225,0,0,0,.26223.26226h0a.26224.26224,0,0,0,.26226-.26222v0a.26289.26289,0,0,0-.26226-.26046Z"/></g><g id="Group_1188-3" data-name="Group 1188-3"><circle id="Ellipse_1729-3" data-name="Ellipse 1729-3" class="cls-1" cx="118.03027" cy="95.6506" r="0.51302"/><path id="Path_1471-3" data-name="Path 1471-3" class="cls-1" d="M118.03026,96.41439a.76319.76319,0,1,1,.76377-.76318A.765.765,0,0,1,118.03026,96.41439Zm0-1.02725a.26137.26137,0,1,1,0,.0018Z"/></g><g id="Group_1189-3" data-name="Group 1189-3"><circle id="Ellipse_1730-3" data-name="Ellipse 1730-3" class="cls-1" cx="129.34329" cy="95.6506" r="0.51302"/><path id="Path_1472-3" data-name="Path 1472-3" class="cls-1" d="M129.34026,96.41439a.76319.76319,0,1,1,.76378-.76318A.76438.76438,0,0,1,129.34026,96.41439Zm0-1.02725a.26224.26224,0,0,0-.26226.26222v0a.26224.26224,0,0,0,.26223.26226h0a.26137.26137,0,1,0,0-.52272Z"/></g><g id="Group_1190-3" data-name="Group 1190-3"><circle id="Ellipse_1731-3" data-name="Ellipse 1731-3" class="cls-1" cx="140.65691" cy="95.6506" r="0.51302"/><path id="Path_1473-3" data-name="Path 1473-3" class="cls-1" d="M140.6545,96.41439a.76319.76319,0,1,1,.76318-.76318A.7644.7644,0,0,1,140.6545,96.41439Zm0-1.02725a.26136.26136,0,1,1,0,.0018Z"/></g><g id="Group_1191-3" data-name="Group 1191-3"><circle id="Ellipse_1732-3" data-name="Ellipse 1732-3" class="cls-1" cx="151.96993" cy="95.6506" r="0.51302"/><path id="Path_1474-3" data-name="Path 1474-3" class="cls-1" d="M151.9687,96.41439a.76319.76319,0,1,1,.76318-.76318h0A.76376.76376,0,0,1,151.9687,96.41439Zm0-1.02725a.26226.26226,0,1,0,.26226.26348V95.6494a.26228.26228,0,0,0-.26226-.26046Z"/></g><g id="Group_1192-3" data-name="Group 1192-3"><circle id="Ellipse_1733-3" data-name="Ellipse 1733-3" class="cls-1" cx="163.28356" cy="95.6506" r="0.51302"/><path id="Path_1475-3" data-name="Path 1475-3" class="cls-1" d="M163.28356,96.41439a.76319.76319,0,1,1,.76378-.76318A.76438.76438,0,0,1,163.28356,96.41439Zm0-1.02725a.26226.26226,0,0,0,0,.52452h0a.26137.26137,0,1,0,0-.52272Z"/></g><g id="Group_1193-3" data-name="Group 1193-3"><circle id="Ellipse_1734-3" data-name="Ellipse 1734-3" class="cls-1" cx="72.77698" cy="106.98478" r="0.51302"/><path id="Path_1476-3" data-name="Path 1476-3" class="cls-1" d="M72.777,107.748a.76258.76258,0,0,1-.76318-.762v-.00122a.76319.76319,0,1,1,.76318.76318Zm0-1.02725a.26285.26285,0,0,0,0,.5257h0a.26225.26225,0,1,0,0-.52449Z"/></g><g id="Group_1194-3" data-name="Group 1194-3"><circle id="Ellipse_1735-3" data-name="Ellipse 1735-3" class="cls-1" cx="84.09061" cy="106.98478" r="0.51302"/><path id="Path_1477-3" data-name="Path 1477-3" class="cls-1" d="M84.09,107.748a.7632.7632,0,0,1-.76318-.76318h0a.76348.76348,0,1,1,.76318.76318Zm0-1.02725a.26284.26284,0,1,1,0,.00121Z"/></g><g id="Group_1195-3" data-name="Group 1195-3"><circle id="Ellipse_1736-3" data-name="Ellipse 1736-3" class="cls-1" cx="95.40363" cy="106.98478" r="0.51302"/><path id="Path_1478-3" data-name="Path 1478-3" class="cls-1" d="M95.40363,107.748a.7632.7632,0,0,1-.76319-.76318h0a.76348.76348,0,1,1,.76319.76318Zm0-1.02725a.26284.26284,0,1,1,0,.00121Z"/></g><g id="Group_1196-3" data-name="Group 1196-3"><circle id="Ellipse_1737-3" data-name="Ellipse 1737-3" class="cls-1" cx="106.71725" cy="106.98478" r="0.51302"/><path id="Path_1479-3" data-name="Path 1479-3" class="cls-1" d="M106.71786,107.748a.76259.76259,0,0,1-.76319-.762v-.00122a.76319.76319,0,1,1,.76319.76318Zm0-1.02725a.26284.26284,0,1,1,0,.00121Z"/></g><g id="Group_1197-3" data-name="Group 1197-3"><circle id="Ellipse_1738-3" data-name="Ellipse 1738-3" class="cls-1" cx="118.03027" cy="106.98478" r="0.51302"/><path id="Path_1480-3" data-name="Path 1480-3" class="cls-1" d="M118.03026,107.748a.76348.76348,0,1,1,.76377-.76318A.7644.7644,0,0,1,118.03026,107.748Zm0-1.02725a.26284.26284,0,1,1,0,.00121Z"/></g><g id="Group_1198-3" data-name="Group 1198-3"><circle id="Ellipse_1739-3" data-name="Ellipse 1739-3" class="cls-1" cx="129.34329" cy="106.98478" r="0.51302"/><path id="Path_1481-3" data-name="Path 1481-3" class="cls-1" d="M129.34026,107.748a.7632.7632,0,0,1-.76318-.76318h0a.76348.76348,0,1,1,.76318.76318Zm0-1.02725a.26284.26284,0,1,1,0,.00121Z"/></g><g id="Group_1199-3" data-name="Group 1199-3"><circle id="Ellipse_1740-3" data-name="Ellipse 1740-3" class="cls-1" cx="140.65691" cy="106.98478" r="0.51302"/><path id="Path_1482-3" data-name="Path 1482-3" class="cls-1" d="M140.6545,107.748a.76348.76348,0,1,1,.76318-.76318.76379.76379,0,0,1-.76318.76318Zm0-1.02725a.26284.26284,0,1,1,0,.00121Z"/></g><g id="Group_1200-3" data-name="Group 1200-3"><circle id="Ellipse_1741-3" data-name="Ellipse 1741-3" class="cls-1" cx="151.96993" cy="106.98478" r="0.51302"/><path id="Path_1483-3" data-name="Path 1483-3" class="cls-1" d="M151.9687,107.748a.76257.76257,0,1,1,.00122,0Zm0-1.02725a.26284.26284,0,1,1,0,.00121Z"/></g><g id="Group_1201-3" data-name="Group 1201-3"><circle id="Ellipse_1742-3" data-name="Ellipse 1742-3" class="cls-1" cx="163.28356" cy="106.98478" r="0.51302"/><path id="Path_1484-3" data-name="Path 1484-3" class="cls-1" d="M163.28356,107.748a.7632.7632,0,0,1-.76318-.76318h0a.76348.76348,0,1,1,.76318.76318Zm0-1.02725a.26284.26284,0,1,1,0,.00121Z"/></g><g id="Group_1202-3" data-name="Group 1202-3"><circle id="Ellipse_1743-3" data-name="Ellipse 1743-3" class="cls-1" cx="72.77698" cy="118.31834" r="0.51302"/><path id="Path_1485-3" data-name="Path 1485-3" class="cls-1" d="M72.777,119.08213a.76378.76378,0,1,1,.76319-.76378A.76379.76379,0,0,1,72.777,119.08213Zm0-1.02726a.26345.26345,0,1,0,.26227.26344.26348.26348,0,0,0-.26227-.26344Z"/></g><g id="Group_1203-3" data-name="Group 1203-3"><circle id="Ellipse_1744-3" data-name="Ellipse 1744-3" class="cls-1" cx="84.09061" cy="118.31834" r="0.51302"/><path id="Path_1486-3" data-name="Path 1486-3" class="cls-1" d="M84.09,119.08213a.76378.76378,0,1,1,.76378-.76378A.76379.76379,0,0,1,84.09,119.08213Zm0-1.02726a.26345.26345,0,1,0,.26344.26344.264.264,0,0,0-.26344-.26344Z"/></g><g id="Group_1204-3" data-name="Group 1204-3"><circle id="Ellipse_1745-3" data-name="Ellipse 1745-3" class="cls-1" cx="95.40363" cy="118.31834" r="0.51302"/><path id="Path_1487-3" data-name="Path 1487-3" class="cls-1" d="M95.40363,119.08213a.76378.76378,0,1,1,.76377-.76378A.76442.76442,0,0,1,95.40363,119.08213Zm0-1.02726a.26345.26345,0,1,0,.26344.26344.264.264,0,0,0-.26344-.26344Z"/></g><g id="Group_1205-3" data-name="Group 1205-3"><circle id="Ellipse_1746-3" data-name="Ellipse 1746-3" class="cls-1" cx="106.71725" cy="118.31834" r="0.51302"/><path id="Path_1488-3" data-name="Path 1488-3" class="cls-1" d="M106.71786,119.08213a.76378.76378,0,1,1,.76318-.76378A.76379.76379,0,0,1,106.71786,119.08213Zm0-1.02726a.26345.26345,0,1,0,.26226.26344.26349.26349,0,0,0-.26226-.26344Z"/></g><g id="Group_1206-3" data-name="Group 1206-3"><circle id="Ellipse_1747-3" data-name="Ellipse 1747-3" class="cls-1" cx="118.03027" cy="118.31834" r="0.51302"/><path id="Path_1489-3" data-name="Path 1489-3" class="cls-1" d="M118.03026,119.08213a.76378.76378,0,1,1,.76377-.76378A.765.765,0,0,1,118.03026,119.08213Zm0-1.02726a.26345.26345,0,1,0,.26344.26344.26407.26407,0,0,0-.26344-.26344Z"/></g><g id="Group_1207-3" data-name="Group 1207-3"><circle id="Ellipse_1748-3" data-name="Ellipse 1748-3" class="cls-1" cx="129.34329" cy="118.31834" r="0.51302"/><path id="Path_1490-3" data-name="Path 1490-3" class="cls-1" d="M129.34026,119.08213a.76378.76378,0,1,1,.76378-.76378A.7644.7644,0,0,1,129.34026,119.08213Zm0-1.02726a.26345.26345,0,1,0,.26345.26344.26348.26348,0,0,0-.26345-.26344Z"/></g><g id="Group_1208-3" data-name="Group 1208-3"><circle id="Ellipse_1749-3" data-name="Ellipse 1749-3" class="cls-1" cx="140.65691" cy="118.31834" r="0.51302"/><path id="Path_1491-3" data-name="Path 1491-3" class="cls-1" d="M140.6545,119.08213a.76378.76378,0,1,1,.76318-.76378A.76442.76442,0,0,1,140.6545,119.08213Zm0-1.02726a.26345.26345,0,1,0,.26226.26344.26406.26406,0,0,0-.26226-.26344Z"/></g><g id="Group_1209-3" data-name="Group 1209-3"><circle id="Ellipse_1750-3" data-name="Ellipse 1750-3" class="cls-1" cx="151.96993" cy="118.31834" r="0.51302"/><path id="Path_1492-3" data-name="Path 1492-3" class="cls-1" d="M151.9687,119.08213a.76378.76378,0,1,1,.76318-.76378A.765.765,0,0,1,151.9687,119.08213Zm0-1.02726a.26345.26345,0,1,0,.26226.26344.26406.26406,0,0,0-.26226-.26344Z"/></g><g id="Group_1210-3" data-name="Group 1210-3"><circle id="Ellipse_1751-3" data-name="Ellipse 1751-3" class="cls-1" cx="72.77698" cy="129.6519" r="0.51302"/><path id="Path_1493-3" data-name="Path 1493-3" class="cls-1" d="M72.777,130.41509a.7632.7632,0,0,1-.76318-.76319h0a.7632.7632,0,0,1,.76318-.76318h0a.76319.76319,0,1,1,0,1.52637Zm0-1.02726a.26227.26227,0,0,0-.00121.52453H72.777a.26165.26165,0,0,0,.26227-.26105v-.00121a.26287.26287,0,0,0-.26227-.26042Z"/></g><g id="Group_1211-3" data-name="Group 1211-3"><circle id="Ellipse_1752-3" data-name="Ellipse 1752-3" class="cls-1" cx="84.09061" cy="129.6519" r="0.51302"/><path id="Path_1494-3" data-name="Path 1494-3" class="cls-1" d="M84.09,130.41509a.76319.76319,0,1,1,.76378-.76319A.76377.76377,0,0,1,84.09,130.41509Zm0-1.02726a.26135.26135,0,1,1,0,.00185Z"/></g><g id="Group_1212-3" data-name="Group 1212-3"><circle id="Ellipse_1753-3" data-name="Ellipse 1753-3" class="cls-1" cx="95.40363" cy="129.6519" r="0.51302"/><path id="Path_1495-3" data-name="Path 1495-3" class="cls-1" d="M95.40363,130.41509a.76319.76319,0,1,1,.76377-.76319A.76439.76439,0,0,1,95.40363,130.41509Zm0-1.02726a.26135.26135,0,1,1,0,.00185Z"/></g><g id="Group_1213-3" data-name="Group 1213-3"><circle id="Ellipse_1754-3" data-name="Ellipse 1754-3" class="cls-1" cx="106.71725" cy="129.6519" r="0.51302"/><path id="Path_1496-3" data-name="Path 1496-3" class="cls-1" d="M106.71786,130.41509a.76321.76321,0,0,1-.76319-.76319h0a.76321.76321,0,0,1,.76319-.76318h0a.76319.76319,0,0,1,0,1.52637Zm0-1.02726a.26227.26227,0,0,0-.00122.52453h.00122a.26224.26224,0,0,0,.26226-.26223v0a.26287.26287,0,0,0-.26226-.26042Z"/></g><g id="Group_1214-3" data-name="Group 1214-3"><circle id="Ellipse_1755-3" data-name="Ellipse 1755-3" class="cls-1" cx="118.03027" cy="129.6519" r="0.51302"/><path id="Path_1497-3" data-name="Path 1497-3" class="cls-1" d="M118.03026,130.41509a.76319.76319,0,1,1,.76377-.76319A.765.765,0,0,1,118.03026,130.41509Zm0-1.02726a.26135.26135,0,1,1,0,.00185Z"/></g><g id="Group_1215-3" data-name="Group 1215-3"><circle id="Ellipse_1756-3" data-name="Ellipse 1756-3" class="cls-1" cx="140.65691" cy="129.6519" r="0.51302"/><path id="Path_1498-3" data-name="Path 1498-3" class="cls-1" d="M140.6545,130.41509a.76319.76319,0,1,1,.76318-.76319A.7644.7644,0,0,1,140.6545,130.41509Zm0-1.02726a.26227.26227,0,1,0,.26226.2623v0a.26345.26345,0,0,0-.26226-.26042Z"/></g><g id="Group_1216-3" data-name="Group 1216-3"><circle id="Ellipse_1757-3" data-name="Ellipse 1757-3" class="cls-1" cx="72.77698" cy="140.98547" r="0.51302"/><path id="Path_1499-3" data-name="Path 1499-3" class="cls-1" d="M72.777,141.74986a.76378.76378,0,1,1,.76319-.76377A.76377.76377,0,0,1,72.777,141.74986Zm0-1.02725a.26344.26344,0,1,0,.26227.26344.26285.26285,0,0,0-.26227-.26344Z"/></g><g id="Group_1217-3" data-name="Group 1217-3"><circle id="Ellipse_1758-3" data-name="Ellipse 1758-3" class="cls-1" cx="95.40363" cy="140.98547" r="0.51302"/><path id="Path_1500-3" data-name="Path 1500-3" class="cls-1" d="M95.40363,141.74986a.76378.76378,0,1,1,.76377-.76377A.7644.7644,0,0,1,95.40363,141.74986Zm0-1.02725a.26344.26344,0,1,0,.26344.26344.26347.26347,0,0,0-.26344-.26344Z"/></g><g id="Group_1218-3" data-name="Group 1218-3"><circle id="Ellipse_1759-3" data-name="Ellipse 1759-3" class="cls-1" cx="106.71725" cy="140.98547" r="0.51302"/><path id="Path_1501-3" data-name="Path 1501-3" class="cls-1" d="M106.71786,141.74986a.76378.76378,0,1,1,.76318-.76377A.76378.76378,0,0,1,106.71786,141.74986Zm0-1.02725a.26344.26344,0,1,0,.26226.26344.26286.26286,0,0,0-.26226-.26344Z"/></g><g id="Group_1219-3" data-name="Group 1219-3"><circle id="Ellipse_1760-3" data-name="Ellipse 1760-3" class="cls-1" cx="72.77698" cy="152.31903" r="0.51302"/><path id="Path_1502-3" data-name="Path 1502-3" class="cls-1" d="M72.777,153.08281a.76348.76348,0,0,1-.00121-1.527H72.777a.7632.7632,0,0,1,.76319.76318h0A.7644.7644,0,0,1,72.777,153.08281Zm0-1.02726a.26224.26224,0,0,0-.26226.26223v0a.26227.26227,0,1,0,.26226-.261Z"/></g><g id="Group_1220-3" data-name="Group 1220-3"><circle id="Ellipse_1761-3" data-name="Ellipse 1761-3" class="cls-1" cx="72.77698" cy="27.64801" r="0.51302"/><path id="Path_1503-3" data-name="Path 1503-3" class="cls-1" d="M72.777,28.4118a.7632.7632,0,0,1-.76318-.76319h0a.76259.76259,0,0,1,.762-.76318H72.777a.76319.76319,0,1,1,0,1.52637Zm0-1.02726a.26225.26225,0,0,0-.26226.26223v0a.26164.26164,0,0,0,.261.26226H72.777a.26225.26225,0,0,0,.26227-.26223v0a.26288.26288,0,0,0-.26227-.26046Z"/></g><g id="Group_1221-3" data-name="Group 1221-3"><circle id="Ellipse_1762-3" data-name="Ellipse 1762-3" class="cls-1" cx="84.09061" cy="27.64801" r="0.51302"/><path id="Path_1504-3" data-name="Path 1504-3" class="cls-1" d="M84.09,28.4118a.76319.76319,0,0,1,0-1.52637h0a.76319.76319,0,1,1,0,1.52637Zm0-1.02726a.26137.26137,0,1,1,0,.00181Z"/></g><g id="Group_1222-3" data-name="Group 1222-3"><circle id="Ellipse_1763-3" data-name="Ellipse 1763-3" class="cls-1" cx="95.40363" cy="27.64801" r="0.51302"/><path id="Path_1505-3" data-name="Path 1505-3" class="cls-1" d="M95.40363,28.4118a.76319.76319,0,1,1,0-1.52637h0a.76319.76319,0,1,1,0,1.52637Zm0-1.02726a.26137.26137,0,1,1,0,.00181Z"/></g><g id="Group_1223-3" data-name="Group 1223-3"><circle id="Ellipse_1764-3" data-name="Ellipse 1764-3" class="cls-1" cx="106.71725" cy="27.64801" r="0.51302"/><path id="Path_1506-3" data-name="Path 1506-3" class="cls-1" d="M106.71786,28.4118a.76321.76321,0,0,1-.76319-.76319h0a.76259.76259,0,0,1,.762-.76318h.00122a.7632.7632,0,0,1,.76318.76318h0A.76378.76378,0,0,1,106.71786,28.4118Zm0-1.02726a.26227.26227,0,0,0,0,.52453h0a.26224.26224,0,0,0,.26226-.26223v0a.26287.26287,0,0,0-.26226-.26046Z"/></g><g id="Group_1224-3" data-name="Group 1224-3"><circle id="Ellipse_1765-3" data-name="Ellipse 1765-3" class="cls-1" cx="118.03027" cy="27.64801" r="0.51302"/><path id="Path_1507-3" data-name="Path 1507-3" class="cls-1" d="M118.03026,28.4118a.76319.76319,0,1,1,.76377-.76319A.765.765,0,0,1,118.03026,28.4118Zm0-1.02726a.26137.26137,0,1,1,0,.00181Z"/></g><g id="Group_1225-3" data-name="Group 1225-3"><circle id="Ellipse_1766-3" data-name="Ellipse 1766-3" class="cls-1" cx="129.34329" cy="27.64801" r="0.51302"/><path id="Path_1508-3" data-name="Path 1508-3" class="cls-1" d="M129.34026,28.4118a.76168.76168,0,1,1,.76378-.76016A.76377.76377,0,0,1,129.34026,28.4118Zm0-1.02726a.26227.26227,0,0,0,0,.52453h0a.26137.26137,0,1,0,0-.52272Z"/></g><g id="Group_1226-3" data-name="Group 1226-3"><circle id="Ellipse_1767-3" data-name="Ellipse 1767-3" class="cls-1" cx="140.65691" cy="27.64801" r="0.51302"/><path id="Path_1509-3" data-name="Path 1509-3" class="cls-1" d="M140.6545,28.4118a.76168.76168,0,1,1,.76318-.76016A.7644.7644,0,0,1,140.6545,28.4118Zm0-1.02726a.26137.26137,0,1,1,0,.00181Z"/></g><g id="Group_1227-3" data-name="Group 1227-3"><circle id="Ellipse_1768-3" data-name="Ellipse 1768-3" class="cls-1" cx="95.40363" cy="16.31444" r="0.51302"/><path id="Path_1510-3" data-name="Path 1510-3" class="cls-1" d="M95.40363,17.07644a.76378.76378,0,1,1,.76377-.76378A.76442.76442,0,0,1,95.40363,17.07644Zm0-1.02726a.26345.26345,0,1,0,.26344.26344A.26347.26347,0,0,0,95.40363,16.04918Z"/></g><g id="Group_1228-3" data-name="Group 1228-3"><circle id="Ellipse_1769-3" data-name="Ellipse 1769-3" class="cls-1" cx="106.71725" cy="16.31444" r="0.51302"/><path id="Path_1511-3" data-name="Path 1511-3" class="cls-1" d="M106.71786,17.07644a.76378.76378,0,1,1,.76318-.76378A.76379.76379,0,0,1,106.71786,17.07644Zm0-1.02726a.26345.26345,0,1,0,.26226.26344A.26286.26286,0,0,0,106.71786,16.04918Z"/></g><g id="Group_1229-3" data-name="Group 1229-3"><circle id="Ellipse_1770-3" data-name="Ellipse 1770-3" class="cls-1" cx="118.03027" cy="16.31444" r="0.51302"/><path id="Path_1512-3" data-name="Path 1512-3" class="cls-1" d="M118.03026,17.07644a.76378.76378,0,1,1,.76377-.76378A.765.765,0,0,1,118.03026,17.07644Zm0-1.02726a.26345.26345,0,1,0,.26344.26344A.26345.26345,0,0,0,118.03026,16.04918Z"/></g><g id="Group_1230-3" data-name="Group 1230-3"><circle id="Ellipse_1771-3" data-name="Ellipse 1771-3" class="cls-1" cx="129.34329" cy="16.31444" r="0.51302"/><path id="Path_1513-3" data-name="Path 1513-3" class="cls-1" d="M129.34026,17.07644a.76378.76378,0,1,1,.76378-.76378A.7644.7644,0,0,1,129.34026,17.07644Zm0-1.02726a.26345.26345,0,1,0,.26345.26344A.26286.26286,0,0,0,129.34026,16.04918Z"/></g><g id="Group_1231-3" data-name="Group 1231-3"><circle id="Ellipse_1772-3" data-name="Ellipse 1772-3" class="cls-1" cx="106.71725" cy="4.98088" r="0.51302"/><path id="Path_1514-3" data-name="Path 1514-3" class="cls-1" d="M106.71786,5.74466a.76259.76259,0,0,1-.76319-.762V4.98147a.76319.76319,0,1,1,.76319.76319Zm0-1.02726a.26283.26283,0,1,1,0,.00122Z"/></g><g id="Group_1232-3" data-name="Group 1232-3"><circle id="Ellipse_1773-3" data-name="Ellipse 1773-3" class="cls-1" cx="118.03027" cy="4.98088" r="0.51302"/><path id="Path_1515-3" data-name="Path 1515-3" class="cls-1" d="M118.03026,5.74466a.76348.76348,0,1,1,.76377-.76319A.76442.76442,0,0,1,118.03026,5.74466Zm0-1.02726a.26283.26283,0,1,1,0,.00122Z"/></g><g id="Group_1233-3" data-name="Group 1233-3"><circle id="Ellipse_1774-3" data-name="Ellipse 1774-3" class="cls-1" cx="72.77698" cy="163.2" r="0.51302"/><path id="Path_1516-3" data-name="Path 1516-3" class="cls-1" d="M72.777,163.96379a.76287.76287,0,1,1,.76319-.76378A.76378.76378,0,0,1,72.777,163.96379Zm0-1.02726a.26164.26164,0,0,0-.26226.261h0a.26232.26232,0,1,0,.26226-.25681Z"/></g></g><g id="Group_1235-3" data-name="Group 1235-3"><path id="Path_1517-3" data-name="Path 1517-3" class="cls-1" d="M169.48873,57.24784a8.39267,8.39267,0,0,0-2.188-6.04263L121.54708,2.57469l-.00907.00907a6.78352,6.78352,0,0,0-1.05566-.9668,7.953,7.953,0,0,0-7.34664-.78554L95.08577,6.8662c-5.55923,1.85933-10.09545,8.16663-10.11355,14.0624V22.658l-5.61965-5.97012-.00785.00785a6.80673,6.80673,0,0,0-1.05927-.9668,7.94673,7.94673,0,0,0-7.34783-.78554l-18.05417,6.039C47.32422,22.8399,42.79224,29.146,42.77594,35.0388l-.003,2.00494L36.94722,30.8579l-.00908.00907a6.81473,6.81473,0,0,0-.94324-.846,7.96045,7.96045,0,0,0-7.3569-.78554L.50593,38.71635.24847,127.28922a8.28568,8.28568,0,0,0,2.4394,6.27347L44.25576,177.77l-.01088.01209.41636.423a6.97976,6.97976,0,0,0,5.07944,2.04666,9.837,9.837,0,0,0,3.115-.536L70.90443,173.681c5.55923-1.85933,10.09121-8.166,10.11053-14.05273l.23446-23.9397,9.61566,10.22475.1172.1154a7.01444,7.01444,0,0,0,4.9459,1.90585,9.82684,9.82684,0,0,0,3.10773-.533l18.0451-6.03477c5.55923-1.85934,10.09663-8.16483,10.11356-14.05879v-1.93365l5.8819,6.25533.12086.12506h.00543a7.05845,7.05845,0,0,0,5.10179,2.02187,9.75127,9.75127,0,0,0,3.08173-.52449l28.13749-9.47665Zm-3.05031-5.21479a7.24453,7.24453,0,0,1,1.85631,5.21358l.0363,64.5909L123.59558,74.33577l-.03692-65.90518a10.57257,10.57257,0,0,0-.22236-2.208ZM95.46465,8.00281l18.04994-6.036a8.62569,8.62569,0,0,1,2.72582-.47071,5.95149,5.95149,0,0,1,3.54279,1.09131,6.88551,6.88551,0,0,1,2.58139,5.8378l.03685,65.67013L95.07792,83.29885a6.79557,6.79557,0,0,1-6.27226-.62057,6.88506,6.88506,0,0,1-2.58324-5.83779l-.055-55.90525A14.59817,14.59817,0,0,1,95.46465,8.00281ZM43.97536,35.0436A14.58567,14.58567,0,0,1,53.2665,22.11537l18.05417-6.0378a8.59558,8.59558,0,0,1,2.72583-.47072,5.95672,5.95672,0,0,1,3.5434,1.09132A6.88507,6.88507,0,0,1,80.17315,22.536L80.0698,78.4841a14.59149,14.59149,0,0,1-9.2984,12.927l-18.04573,6.036a6.796,6.796,0,0,1-6.268-.62057A6.88959,6.88959,0,0,1,43.869,90.99177ZM1.44309,127.28922,1.70233,39.575l27.32116-9.20473a6.80787,6.80787,0,0,1,6.27709.62178A6.88186,6.88186,0,0,1,37.882,36.82677l-.24172,77.956A14.59442,14.59442,0,0,1,28.34487,127.711l-18.04813,6.03478a6.79758,6.79758,0,0,1-6.27225-.62179A6.88914,6.88914,0,0,1,1.44309,127.28922Zm78.379,32.32809a14.60292,14.60292,0,0,1-9.29538,12.93125L52.478,178.58275c-2.72645.913-5.248.4834-6.92424-1.1753L5.90012,135.2353a7.79917,7.79917,0,0,0,1.66836.17706,9.81457,9.81457,0,0,0,3.10895-.53356l18.04813-6.036c5.55923-1.8587,10.09121-8.16482,10.11053-14.05639L39.07781,36.831a10.52441,10.52441,0,0,0-.22416-2.21222l3.92107,4.1646-.09788,52.20535a8.27805,8.27805,0,0,0,2.45633,6.28436h0L80.07169,134.4256Zm46.17843-32.31482a14.59149,14.59149,0,0,1-9.29719,12.92823L98.657,146.2631c-2.6805.89611-5.17673.4937-6.84329-1.09733L48.32787,98.93236a7.7853,7.7853,0,0,0,1.66714.18127,9.8112,9.8112,0,0,0,3.109-.53478l18.04573-6.03478c5.55923-1.85871,10.09726-8.16482,10.11356-14.05639l.10393-55.94814a10.5423,10.5423,0,0,0-.22236-2.20373l3.83105,4.07151.052,52.43073a8.29182,8.29182,0,0,0,2.42189,6.26319l38.552,41.00047Zm15.0087,4.81357c-2.80862.94025-5.38216.46349-7.0572-1.30885L90.67591,84.78649a7.82053,7.82053,0,0,0,1.67017.18127,9.81484,9.81484,0,0,0,3.11315-.536l27.33448-9.20536L167.85725,123.078Z"/><path id="Path_1518-3" data-name="Path 1518-3" class="cls-1" d="M49.74064,180.49943a7.2184,7.2184,0,0,1-5.2571-2.121l-.59157-.59884.0163-.01571L2.50656,133.73246a8.46517,8.46517,0,0,1-2.50649-6.44568L.26233,38.53921l.17039-.05739L28.5642,29.00093a8.20768,8.20768,0,0,1,7.58291.82,6.45283,6.45283,0,0,1,.79885.69008l.003-.003.18732.18127,5.393,5.72782V35.04234c.01693-5.9931,4.62683-12.40554,10.27853-14.29505l18.05417-6.0378a8.19445,8.19445,0,0,1,7.57325.82,6.7996,6.7996,0,0,1,.9505.846l.15409.14926,5.18279,5.50907V20.93646c.01873-5.99491,4.63107-12.40975,10.28457-14.29988L113.056.6018a8.19732,8.19732,0,0,1,7.57324.81817,6.87548,6.87548,0,0,1,.94627.84116l.15409.14925L167.482,51.03662a8.62757,8.62757,0,0,1,2.25633,6.21244l.03806,66.70343-.171.06041-28.13694,9.473a9.98962,9.98962,0,0,1-3.1621.5378,7.26572,7.26572,0,0,1-5.22807-2.04363l-.06041-.0562-.12086-.12507-5.45228-5.80091v1.3046c-.0163,5.99189-4.62926,12.40555-10.28394,14.29627l-18.04511,6.03478c-3.182,1.06229-6.25352.53053-8.30619-1.42908l-.12086-.12086-9.19333-9.77278-.2284,23.31792c-.01815,5.98584-4.62986,12.39647-10.28155,14.28782l-18.04876,6.03478A10.09968,10.09968,0,0,1,49.74064,180.49943Zm-5.14409-2.71918.24172.24172c1.92155,1.94331,4.85041,2.47746,7.93759,1.45025l18.04876-6.03478c5.46315-1.8285,9.922-8.027,9.93892-13.81648l.24172-24.56332,10.15162,10.78609c1.9137,1.82606,4.79542,2.31371,7.798,1.31367l18.04632-6.03478c5.46618-1.8285,9.92623-8.02884,9.94136-13.82252V124.735l6.43542,6.836a6.76768,6.76768,0,0,0,4.92476,1.94873,9.46465,9.46465,0,0,0,3.0038-.51243l27.96591-9.41746-.03806-66.34811a8.14192,8.14192,0,0,0-2.11492-5.865L121.53509,2.92753h-.00424l-.18127-.18127a6.53979,6.53979,0,0,0-1.01759-.933,7.71547,7.71547,0,0,0-7.12064-.74928L95.16142,7.1c-5.46438,1.82729-9.92381,8.02884-9.942,13.82555V23.2858l-5.87283-6.242-.00425.00361L79.15688,16.86a6.52672,6.52672,0,0,0-1.0194-.9342,7.71,7.71,0,0,0-7.12244-.75172l-18.05359,6.0378c-5.46253,1.82729-9.92019,8.02645-9.9359,13.82131l-.00424,2.63337L36.7551,31.03179a6.28857,6.28857,0,0,0-.90639-.81212,7.71193,7.71193,0,0,0-7.13031-.75109L.7561,38.89087l-.261,88.38924a7.989,7.989,0,0,0,2.35665,6.088l41.74735,44.39706Zm5.15556,1.52032a6.07891,6.07891,0,0,1-4.37549-1.7173L5.16349,134.81651l.78978.17341a8.71073,8.71073,0,0,0,4.64435-.35048l18.04813-6.03419c5.46437-1.82972,9.92321-8.02884,9.93892-13.82131l.24172-77.95544a10.29168,10.29168,0,0,0-.21815-2.159l-.18551-.87316L43.0236,38.6836v.10279l-.09789,52.20535a7.99888,7.99888,0,0,0,2.376,6.103l.2145.19761-.01814.01512,34.82127,37.02685-.24715,25.28841a14.86873,14.86873,0,0,1-9.4664,13.16449L52.557,178.822a8.85446,8.85446,0,0,1-2.80427.47975ZM6.5908,135.60448,45.735,177.23337c1.6001,1.58439,4.03043,1.99406,6.66261,1.10821l18.04875-6.03478a14.32772,14.32772,0,0,0,9.12437-12.68953h0l.24533-25.08722-34.895-37.106a8.61433,8.61433,0,0,1-2.49621-6.43358l.09789-52.105-3.28539-3.48964a11.20841,11.20841,0,0,1,.08881,1.43874L39.08445,114.79c-.01693,5.99008-4.62927,12.40252-10.28092,14.29387l-18.04876,6.03478a9.54711,9.54711,0,0,1-4.16335.48705ZM95.933,146.98579a6.07954,6.07954,0,0,1-4.29025-1.63635L47.5919,98.51541l.79217.17523a8.75512,8.75512,0,0,0,4.64318-.34927L71.073,92.30659c5.46618-1.8285,9.92623-8.02762,9.94194-13.82009l.10335-55.94692a10.29153,10.29153,0,0,0-.21513-2.15177l-.18127-.87316,4.51021,4.79243v.10031l.052,52.43074a8.00769,8.00769,0,0,0,2.34333,6.08132l38.63236,41.08445-.00424,3.3011a14.85838,14.85838,0,0,1-9.4688,13.16449l-18.04573,6.036A8.8744,8.8744,0,0,1,95.933,146.98579Zm-46.912-47.68,42.97521,45.69259c1.591,1.51427,3.99358,1.89135,6.58165,1.03028l18.04573-6.03478a14.323,14.323,0,0,0,9.12437-12.68953l.00361-3.10227L87.2666,83.2741a8.48266,8.48266,0,0,1-2.49015-6.43542l-.052-52.3292-3.19654-3.39717a10.88354,10.88354,0,0,1,.087,1.43088l-.10334,55.94692C81.49468,84.48078,76.88175,90.89444,71.227,92.784L53.1813,98.82A9.59022,9.59022,0,0,1,49.021,99.30578ZM7.57335,134.46846a6.21252,6.21252,0,0,1-3.69267-1.14085,7.125,7.125,0,0,1-2.68776-6.03721l.26046-87.89315.16921-.06041L28.94375,30.1309a7.04646,7.04646,0,0,1,6.50369.65681,7.1201,7.1201,0,0,1,2.68533,6.03781l-.24172,77.956A14.86081,14.86081,0,0,1,28.42464,127.946l-18.04812,6.036a8.85473,8.85473,0,0,1-2.80379.48643ZM1.95371,39.75681l-.25924,87.536a6.65,6.65,0,0,0,2.47747,5.62931,6.5631,6.5631,0,0,0,6.04625.58674l18.04812-6.03478a14.32772,14.32772,0,0,0,9.12437-12.68953l.24172-77.956A6.64073,6.64073,0,0,0,35.15493,31.198a6.57806,6.57806,0,0,0-6.05108-.588ZM138.27552,132.84a6.03287,6.03287,0,0,1-4.50357-1.86051L89.94109,84.369l.78918.17341a8.746,8.746,0,0,0,4.65284-.35048l27.48554-9.2561.11.116,45.33126,48.13565-.37043.12506L141.092,132.35475a8.89161,8.89161,0,0,1-2.81832.48525Zm-46.90716-47.683,42.76613,45.4775c1.60312,1.69617,4.08058,2.15361,6.79494,1.243l26.477-8.91591-44.6871-47.451-27.181,9.157a9.61344,9.61344,0,0,1-4.17124.48945Zm77.21519,37.31326-45.237-48.03591V74.334l-.03625-65.90455a10.34249,10.34249,0,0,0-.21753-2.156l-.18127-.87195,43.71184,46.4588a7.49261,7.49261,0,0,1,1.92521,5.38821Zm-44.736-48.2347,44.23209,46.97119-.0363-63.95946a6.99964,6.99964,0,0,0-1.78557-5.03836l-.003-.00424L123.71821,6.99484a10.99828,10.99828,0,0,1,.08881,1.43572Zm-73.847,23.933a6.2053,6.2053,0,0,1-3.686-1.13841,7.1289,7.1289,0,0,1-2.69138-6.04264l.10515-55.94692A14.85265,14.85265,0,0,1,53.191,21.87608l18.05359-6.039a7.1335,7.1335,0,0,1,6.49583.65564A7.13023,7.13023,0,0,1,80.427,22.53534L80.323,78.48226a14.85243,14.85243,0,0,1-9.4688,13.16449l-18.04573,6.036a8.87044,8.87044,0,0,1-2.80921.48521ZM44.22674,35.04419l-.10515,55.94692a6.64671,6.64671,0,0,0,2.48414,5.63233,6.55172,6.55172,0,0,0,6.04263.58553l18.047-6.03478a14.32037,14.32037,0,0,0,9.12437-12.68953l.10393-55.94693a6.65409,6.65409,0,0,0-2.47747-5.63535,6.55894,6.55894,0,0,0-6.04263-.58553L53.34568,22.35041A14.31916,14.31916,0,0,0,44.22552,35.04ZM92.3515,84.02036a6.20393,6.20393,0,0,1-3.69082-1.14026,7.12716,7.12716,0,0,1-2.68776-6.04264l-.055-55.90344A14.86674,14.86674,0,0,1,95.38554,7.7647h0l18.04994-6.03419a7.12519,7.12519,0,0,1,6.49461.6538,7.12691,7.12691,0,0,1,2.68474,6.04263l.03685,65.849-.1704.05739L95.15769,83.53452a8.8894,8.8894,0,0,1-2.8074.48521ZM95.54443,8.24088a14.3242,14.3242,0,0,0-9.12436,12.69495l.055,55.90281a6.65337,6.65337,0,0,0,2.47746,5.63414,6.53424,6.53424,0,0,0,6.04566.58674l27.152-9.14431-.03684-65.49007A6.63931,6.63931,0,0,0,119.63585,2.791a6.56875,6.56875,0,0,0-6.04263-.58553Z"/></g></g></g></svg>