<svg id="Layer_1" data-name="Layer 1" xmlns="http://www.w3.org/2000/svg" viewBox="0 0 169.8 180.4"><defs><style>.cls-1{fill:#d51c5a;}.cls-2{fill:#fff;}</style></defs><path class="cls-1" d="M169.7,57.3a8.9,8.9,0,0,0-2.3-6.2L121.6,2.5V2.3l-1-.8A7.8,7.8,0,0,0,113,.7l-18.1,6C89.3,8.6,84.7,15,84.6,21v1.1l-5.1-5.5h-.2a4.3,4.3,0,0,0-1-.9,7.8,7.8,0,0,0-7.5-.8l-18.1,6c-5.6,1.9-10.2,8.3-10.3,14.3v1.4L37,30.8v-.2h0l-.8-.7a8.1,8.1,0,0,0-7.6-.8L.3,38.6H.2l-.3,88.8a8.5,8.5,0,0,0,2.5,6.4l41.4,44h0l.6.6a7.4,7.4,0,0,0,5.3,2.1,8.5,8.5,0,0,0,3.1-.6l18.1-6a16.1,16.1,0,0,0,10.3-14.3l.2-23.3,9.2,9.8h.1a8.1,8.1,0,0,0,8.3,1.4l18.1-6c5.6-1.9,10.2-8.3,10.3-14.3v-1.3l5.4,5.8h.2a7.2,7.2,0,0,0,5.2,2,11.3,11.3,0,0,0,3.2-.5l28.1-9.5h.2Zm-2.1-2.6.3,1.3Z"/><path class="cls-2" d="M120.7,1.5a7.6,7.6,0,0,0-7-1.1L94.3,6.7a14.3,14.3,0,0,0-9.9,13.7V80.3a5.9,5.9,0,0,0,6,6,6.3,6.3,0,0,0,1.9-.3l31.5-10.3h.1V7.8A7.6,7.6,0,0,0,120.7,1.5Z"/><path class="cls-2" d="M36,29.7a7.8,7.8,0,0,0-7.1-1L-.2,38.6H-.3v89.4a7.9,7.9,0,0,0,8,8,7.5,7.5,0,0,0,2.6-.5l18.5-6.4a15.6,15.6,0,0,0,10.4-14.7V36.1A7.9,7.9,0,0,0,36,29.7Z"/><path class="cls-2" d="M78.4,15.5a8,8,0,0,0-7.2-1.1L53.6,20.2A16.3,16.3,0,0,0,42.2,35.9V92.1a7.3,7.3,0,0,0,3.1,6.1,7.1,7.1,0,0,0,4.4,1.5,6.7,6.7,0,0,0,2.4-.4l18.3-6A16.4,16.4,0,0,0,81.7,77.6V22.1A8.1,8.1,0,0,0,78.4,15.5Z"/></svg>