<svg id="Layer_1" data-name="Layer 1" xmlns="http://www.w3.org/2000/svg" width="169.77637" height="180.44669" viewBox="0 0 169.77637 180.44669"><defs><style>.cls-1{fill:#d41c5b;}.cls-2{fill:#fff;}</style></defs><path class="cls-1" d="M169.65135,57.33034a8.6282,8.6282,0,0,0-2.25634-6.2124L121.64257,2.49159l-.15406-.14917a6.859,6.859,0,0,0-.94629-.84106A8.1969,8.1969,0,0,0,112.969.68312L94.92015,6.71791c-5.65332,1.89014-10.26562,8.30493-10.28442,14.29981v1.09741l-5.18286-5.509-.154-.14942a6.81357,6.81357,0,0,0-.95044-.84594,8.19439,8.19439,0,0,0-7.57325-.82l-18.0542,6.03772c-5.65185,1.88965-10.26171,8.302-10.27856,14.29516v1.37476l-5.39307-5.7279-.18725-.18128-.00293.00305a6.45386,6.45386,0,0,0-.79883-.69006,8.20782,8.20782,0,0,0-7.583-.82007L.34569,38.56313l-.17041.05737-.26221,88.74756a8.465,8.465,0,0,0,2.5066,6.44568l41.40161,44.03149-.01636.01575.5918.59875a7.21675,7.21675,0,0,0,5.25683,2.121,10.094,10.094,0,0,0,3.196-.5481l18.04883-6.03467c5.65161-1.89136,10.26342-8.302,10.28149-14.28784l.22851-23.31787,9.19336,9.7727.12061.12085c2.05273,1.95972,5.12427,2.49146,8.3064,1.42908l18.04516-6.03479c5.65454-1.89062,10.26758-8.30444,10.28369-14.29626v-1.30457l5.4524,5.8009.12085.12513.06054.05615a7.26555,7.26555,0,0,0,5.228,2.0437,9.99184,9.99184,0,0,0,3.16211-.53784l28.13672-9.47315.17114-.0603Zm-2.07177-2.64465a7.01734,7.01734,0,0,1,.31567,1.30774Z"/><path class="cls-2" d="M120.71068,1.47756A7.77111,7.77111,0,0,0,113.66576.36769L94.342,6.67092a14.39527,14.39527,0,0,0-9.95459,13.71777V80.293a6.02692,6.02692,0,0,0,5.9956,6.0205,6.07515,6.07515,0,0,0,1.89307-.30517l31.50195-10.33057.17188-.05664V7.83058A7.76954,7.76954,0,0,0,120.71068,1.47756Z"/><path class="cls-2" d="M35.95677,29.71584a7.72528,7.72528,0,0,0-7.07031-1.03809L-.16823,38.60353l-.16894.05811v89.40185a7.93613,7.93613,0,0,0,3.38086,6.5459,7.95185,7.95185,0,0,0,4.62012,1.49073,8.0878,8.0878,0,0,0,2.67529-.45948l18.481-6.46093A15.545,15.545,0,0,0,39.22533,114.52V36.07131A7.72677,7.72677,0,0,0,35.95677,29.71584Z"/><path class="cls-2" d="M78.405,15.543a7.96548,7.96548,0,0,0-7.22168-1.13721l-17.62647,5.749A16.47715,16.47715,0,0,0,42.16381,35.85549V92.14015a7.55579,7.55579,0,0,0,7.51611,7.54834,7.62421,7.62421,0,0,0,2.374-.3833L70.37718,93.2964A16.45209,16.45209,0,0,0,81.72582,77.63088V22.05617A7.9651,7.9651,0,0,0,78.405,15.543Z"/></svg>