<svg id="Layer_1" data-name="Layer 1" xmlns="http://www.w3.org/2000/svg" viewBox="0 0 169.8 180.4"><defs><style>.cls-1{fill:#fff;}</style></defs><g id="Group_1471" data-name="Group 1471"><g id="Group_1236-2" data-name="Group 1236-2"><g id="Group_1234-2" data-name="Group 1234-2"><g id="Group_1080-2" data-name="Group 1080-2"><circle id="Ellipse_1621-2" data-name="Ellipse 1621-2" class="cls-1" cx="16.5" cy="39" r="0.5"/><path id="Path_1363-2" data-name="Path 1363-2" class="cls-1" d="M16.5,39.7a.7.7,0,0,1-.7-.7.8.8,0,0,1,.7-.8.8.8,0,0,1,.8.8.7.7,0,0,1-.8.7Zm0-1c-.1,0-.2.1-.2.3a.2.2,0,0,0,.2.2c.2,0,.3-.1.3-.2a.3.3,0,0,0-.3-.3Z"/></g><g id="Group_1081-2" data-name="Group 1081-2"><circle id="Ellipse_1622-2" data-name="Ellipse 1622-2" class="cls-1" cx="27.9" cy="39" r="0.5"/><path id="Path_1364-2" data-name="Path 1364-2" class="cls-1" d="M27.9,39.7a.7.7,0,0,1-.8-.7.8.8,0,0,1,.8-.8.8.8,0,0,1,.7.8.7.7,0,0,1-.7.7Zm0-1a.3.3,0,0,0-.3.3c0,.1.1.2.3.2a.2.2,0,0,0,.2-.2c0-.2-.1-.3-.2-.3Z"/></g><g id="Group_1082-2" data-name="Group 1082-2"><circle id="Ellipse_1623-2" data-name="Ellipse 1623-2" class="cls-1" cx="50.5" cy="39" r="0.5"/><path id="Path_1365-2" data-name="Path 1365-2" class="cls-1" d="M50.5,39.7a.8.8,0,0,1-.8-.7.8.8,0,0,1,1.6,0,.8.8,0,0,1-.8.7Zm0-1a.3.3,0,0,0-.3.3c0,.1.1.2.3.2l.3-.2q-.1-.3-.3-.3Z"/></g><g id="Group_1083-2" data-name="Group 1083-2"><circle id="Ellipse_1624-2" data-name="Ellipse 1624-2" class="cls-1" cx="5.2" cy="50.3" r="0.5"/><path id="Path_1366-2" data-name="Path 1366-2" class="cls-1" d="M5.2,51.1a.8.8,0,0,1-.7-.8.7.7,0,0,1,.7-.7.7.7,0,0,1,.8.7A.8.8,0,0,1,5.2,51.1Zm0-1a.2.2,0,0,0-.2.2c0,.2.1.3.2.3a.3.3,0,0,0,.3-.3C5.5,50.2,5.4,50.1,5.2,50.1Z"/></g><g id="Group_1084-2" data-name="Group 1084-2"><circle id="Ellipse_1625-2" data-name="Ellipse 1625-2" class="cls-1" cx="16.5" cy="50.3" r="0.5"/><path id="Path_1367-2" data-name="Path 1367-2" class="cls-1" d="M16.5,51.1a.8.8,0,0,1-.7-.8.7.7,0,0,1,.7-.7.7.7,0,0,1,.8.7A.8.8,0,0,1,16.5,51.1Zm0-1a.2.2,0,0,0-.2.2c0,.2.1.3.2.3a.3.3,0,0,0,.3-.3C16.8,50.2,16.7,50.1,16.5,50.1Z"/></g><g id="Group_1085-2" data-name="Group 1085-2"><circle id="Ellipse_1626-2" data-name="Ellipse 1626-2" class="cls-1" cx="27.9" cy="50.3" r="0.5"/><path id="Path_1368-2" data-name="Path 1368-2" class="cls-1" d="M27.9,51.1a.8.8,0,0,1-.8-.8.7.7,0,0,1,.8-.7.7.7,0,0,1,.7.7A.8.8,0,0,1,27.9,51.1Zm0-1c-.2,0-.3.1-.3.2a.3.3,0,0,0,.3.3c.1,0,.2-.1.2-.3A.2.2,0,0,0,27.9,50.1Z"/></g><g id="Group_1086-2" data-name="Group 1086-2"><circle id="Ellipse_1627-2" data-name="Ellipse 1627-2" class="cls-1" cx="50.5" cy="50.3" r="0.5"/><path id="Path_1369-2" data-name="Path 1369-2" class="cls-1" d="M50.5,51.1a.9.9,0,0,1-.8-.8.8.8,0,0,1,1.6,0A.9.9,0,0,1,50.5,51.1Zm0-1c-.2,0-.3.1-.3.2a.3.3,0,0,0,.3.3.3.3,0,0,0,.3-.3Z"/></g><g id="Group_1087-2" data-name="Group 1087-2"><circle id="Ellipse_1628-2" data-name="Ellipse 1628-2" class="cls-1" cx="5.2" cy="61.6" r="0.5"/><path id="Path_1370-2" data-name="Path 1370-2" class="cls-1" d="M5.2,62.4a.7.7,0,0,1-.7-.8.7.7,0,0,1,.7-.7h0a.7.7,0,0,1,.8.7A.7.7,0,0,1,5.2,62.4Zm0-1a.2.2,0,0,0-.2.2c0,.2.1.3.2.3h0a.3.3,0,0,0,.3-.3c0-.1-.1-.2-.3-.2Z"/></g><g id="Group_1088-2" data-name="Group 1088-2"><circle id="Ellipse_1629-2" data-name="Ellipse 1629-2" class="cls-1" cx="16.5" cy="61.6" r="0.5"/><path id="Path_1371-2" data-name="Path 1371-2" class="cls-1" d="M16.5,62.4a.7.7,0,0,1-.7-.8.7.7,0,0,1,.7-.7.7.7,0,0,1,.8.7A.7.7,0,0,1,16.5,62.4Zm0-1a.2.2,0,0,0-.2.2c0,.2.1.3.2.3a.3.3,0,0,0,.3-.3h0c0-.1-.1-.2-.3-.2Z"/></g><g id="Group_1089-2" data-name="Group 1089-2"><circle id="Ellipse_1630-2" data-name="Ellipse 1630-2" class="cls-1" cx="27.9" cy="61.6" r="0.5"/><path id="Path_1372-2" data-name="Path 1372-2" class="cls-1" d="M27.9,62.4a.7.7,0,0,1-.8-.8.7.7,0,0,1,.8-.7.7.7,0,0,1,.7.7h0A.7.7,0,0,1,27.9,62.4Zm0-1c-.2,0-.3.1-.3.2a.3.3,0,0,0,.3.3c.1,0,.2-.1.2-.3h0a.2.2,0,0,0-.2-.2Z"/></g><g id="Group_1090-2" data-name="Group 1090-2"><circle id="Ellipse_1631-2" data-name="Ellipse 1631-2" class="cls-1" cx="50.5" cy="61.6" r="0.5"/><path id="Path_1373-2" data-name="Path 1373-2" class="cls-1" d="M50.5,62.4a.8.8,0,0,1-.8-.8.8.8,0,0,1,1.6,0h0A.8.8,0,0,1,50.5,62.4Zm0-1c-.2,0-.3.1-.3.2a.3.3,0,0,0,.3.3.3.3,0,0,0,.3-.3l-.3-.2Z"/></g><g id="Group_1091-2" data-name="Group 1091-2"><circle id="Ellipse_1632-2" data-name="Ellipse 1632-2" class="cls-1" cx="5.2" cy="73" r="0.5"/><path id="Path_1374-2" data-name="Path 1374-2" class="cls-1" d="M5.2,73.7a.7.7,0,0,1-.7-.7h0a.8.8,0,0,1,.7-.8A.8.8,0,0,1,6,73,.7.7,0,0,1,5.2,73.7Zm0-1c-.1,0-.2.1-.2.3a.2.2,0,0,0,.2.2c.2,0,.3-.1.3-.2A.3.3,0,0,0,5.2,72.7Z"/></g><g id="Group_1092-2" data-name="Group 1092-2"><circle id="Ellipse_1633-2" data-name="Ellipse 1633-2" class="cls-1" cx="16.5" cy="73" r="0.5"/><path id="Path_1375-2" data-name="Path 1375-2" class="cls-1" d="M16.5,73.7a.7.7,0,0,1-.7-.7.8.8,0,0,1,.7-.8.8.8,0,0,1,.8.8.7.7,0,0,1-.8.7Zm0-1c-.1,0-.2.1-.2.3a.2.2,0,0,0,.2.2c.2,0,.3-.1.3-.2A.3.3,0,0,0,16.5,72.7Z"/></g><g id="Group_1093-2" data-name="Group 1093-2"><circle id="Ellipse_1634-2" data-name="Ellipse 1634-2" class="cls-1" cx="27.9" cy="73" r="0.5"/><path id="Path_1376-2" data-name="Path 1376-2" class="cls-1" d="M27.9,73.7a.7.7,0,0,1-.8-.7.8.8,0,0,1,.8-.8.8.8,0,0,1,.7.8.7.7,0,0,1-.7.7Zm0-1a.3.3,0,0,0-.3.3c0,.1.1.2.3.2a.2.2,0,0,0,.2-.2C28.1,72.8,28,72.7,27.9,72.7Z"/></g><g id="Group_1094-2" data-name="Group 1094-2"><circle id="Ellipse_1635-2" data-name="Ellipse 1635-2" class="cls-1" cx="50.5" cy="73" r="0.5"/><path id="Path_1377-2" data-name="Path 1377-2" class="cls-1" d="M50.5,73.7a.8.8,0,0,1-.8-.7.8.8,0,0,1,1.6,0,.8.8,0,0,1-.8.7Zm0-1a.3.3,0,0,0-.3.3c0,.1.1.2.3.2l.3-.2A.3.3,0,0,0,50.5,72.7Z"/></g><g id="Group_1095-2" data-name="Group 1095-2"><circle id="Ellipse_1636-2" data-name="Ellipse 1636-2" class="cls-1" cx="5.2" cy="84.3" r="0.5"/><path id="Path_1378-2" data-name="Path 1378-2" class="cls-1" d="M5.2,85.1a.8.8,0,0,1-.7-.8.7.7,0,0,1,.7-.7.7.7,0,0,1,.8.7A.8.8,0,0,1,5.2,85.1Zm0-1a.2.2,0,0,0-.2.2c0,.2.1.3.2.3a.3.3,0,0,0,.3-.3c0-.1-.1-.2-.3-.2Z"/></g><g id="Group_1096-2" data-name="Group 1096-2"><circle id="Ellipse_1637-2" data-name="Ellipse 1637-2" class="cls-1" cx="16.5" cy="84.3" r="0.5"/><path id="Path_1379-2" data-name="Path 1379-2" class="cls-1" d="M16.5,85.1a.8.8,0,0,1-.7-.8.7.7,0,0,1,.7-.7.7.7,0,0,1,.8.7A.8.8,0,0,1,16.5,85.1Zm0-1a.2.2,0,0,0-.2.2c0,.2.1.3.2.3a.3.3,0,0,0,.3-.3c0-.1-.1-.2-.3-.2Z"/></g><g id="Group_1097-2" data-name="Group 1097-2"><circle id="Ellipse_1638-2" data-name="Ellipse 1638-2" class="cls-1" cx="27.9" cy="84.3" r="0.5"/><path id="Path_1380-2" data-name="Path 1380-2" class="cls-1" d="M27.9,85.1a.8.8,0,0,1-.8-.8.7.7,0,0,1,.8-.7.7.7,0,0,1,.7.7A.8.8,0,0,1,27.9,85.1Zm0-1c-.2,0-.3.1-.3.2a.3.3,0,0,0,.3.3c.1,0,.2-.1.2-.3l-.2-.2Z"/></g><g id="Group_1098-2" data-name="Group 1098-2"><circle id="Ellipse_1639-2" data-name="Ellipse 1639-2" class="cls-1" cx="50.5" cy="84.3" r="0.5"/><path id="Path_1381-2" data-name="Path 1381-2" class="cls-1" d="M50.5,85.1a.9.9,0,0,1-.8-.8.8.8,0,0,1,1.6,0A.9.9,0,0,1,50.5,85.1Zm0-1c-.2,0-.3.1-.3.2a.3.3,0,0,0,.3.3.3.3,0,0,0,.3-.3l-.3-.2Z"/></g><g id="Group_1099-2" data-name="Group 1099-2"><circle id="Ellipse_1640-2" data-name="Ellipse 1640-2" class="cls-1" cx="5.2" cy="95.7" r="0.5"/><path id="Path_1382-2" data-name="Path 1382-2" class="cls-1" d="M5.2,96.4a.7.7,0,0,1-.7-.7.7.7,0,0,1,.7-.8.7.7,0,0,1,.8.8A.7.7,0,0,1,5.2,96.4Zm0-1-.2.2H5c0,.2.1.3.2.3h0a.3.3,0,0,0,.3-.3c0-.1-.1-.2-.3-.2Z"/></g><g id="Group_1100-2" data-name="Group 1100-2"><circle id="Ellipse_1641-2" data-name="Ellipse 1641-2" class="cls-1" cx="16.5" cy="95.7" r="0.5"/><path id="Path_1383-2" data-name="Path 1383-2" class="cls-1" d="M16.5,96.4a.7.7,0,0,1-.7-.7.7.7,0,0,1,.7-.8.7.7,0,0,1,.8.8A.7.7,0,0,1,16.5,96.4Zm0-1-.2.2c0,.2.1.3.2.3a.3.3,0,0,0,.3-.3c0-.1-.1-.2-.3-.2Z"/></g><g id="Group_1101-2" data-name="Group 1101-2"><circle id="Ellipse_1642-2" data-name="Ellipse 1642-2" class="cls-1" cx="27.9" cy="95.7" r="0.5"/><path id="Path_1384-2" data-name="Path 1384-2" class="cls-1" d="M27.9,96.4a.7.7,0,0,1-.8-.7.7.7,0,0,1,.8-.8.7.7,0,0,1,.7.8A.7.7,0,0,1,27.9,96.4Zm0-1c-.2,0-.3.1-.3.2a.3.3,0,0,0,.3.3c.1,0,.2-.1.2-.3h0l-.2-.2Z"/></g><g id="Group_1102-2" data-name="Group 1102-2"><circle id="Ellipse_1643-2" data-name="Ellipse 1643-2" class="cls-1" cx="50.5" cy="95.7" r="0.5"/><path id="Path_1385-2" data-name="Path 1385-2" class="cls-1" d="M50.5,96.4a.8.8,0,0,1-.8-.7.8.8,0,0,1,1.6,0A.8.8,0,0,1,50.5,96.4Zm0-1c-.2,0-.3.1-.3.2a.3.3,0,0,0,.3.3.3.3,0,0,0,.3-.3l-.3-.2Z"/></g><g id="Group_1103-2" data-name="Group 1103-2"><circle id="Ellipse_1644-2" data-name="Ellipse 1644-2" class="cls-1" cx="5.2" cy="107" r="0.5"/><path id="Path_1386-2" data-name="Path 1386-2" class="cls-1" d="M5.2,107.7a.7.7,0,0,1-.7-.7h0a.8.8,0,0,1,.7-.8.8.8,0,0,1,.8.8A.7.7,0,0,1,5.2,107.7Zm0-1c-.1,0-.2.1-.2.3a.2.2,0,0,0,.2.2h0c.2,0,.3-.1.3-.2a.3.3,0,0,0-.3-.3Z"/></g><g id="Group_1104-2" data-name="Group 1104-2"><circle id="Ellipse_1645-2" data-name="Ellipse 1645-2" class="cls-1" cx="16.5" cy="107" r="0.5"/><path id="Path_1387-2" data-name="Path 1387-2" class="cls-1" d="M16.5,107.7a.7.7,0,0,1-.7-.7.8.8,0,0,1,.7-.8.8.8,0,0,1,.8.8.7.7,0,0,1-.8.7Zm0-1c-.1,0-.2.1-.2.3a.2.2,0,0,0,.2.2c.2,0,.3-.1.3-.2a.3.3,0,0,0-.3-.3Z"/></g><g id="Group_1105-2" data-name="Group 1105-2"><circle id="Ellipse_1646-2" data-name="Ellipse 1646-2" class="cls-1" cx="27.9" cy="107" r="0.5"/><path id="Path_1388-2" data-name="Path 1388-2" class="cls-1" d="M27.9,107.7a.7.7,0,0,1-.8-.7.8.8,0,0,1,.8-.8.8.8,0,0,1,.7.8.7.7,0,0,1-.7.7Zm0-1a.3.3,0,0,0-.3.3c0,.1.1.2.3.2a.2.2,0,0,0,.2-.2c0-.2-.1-.3-.2-.3Z"/></g><g id="Group_1106-2" data-name="Group 1106-2"><circle id="Ellipse_1647-2" data-name="Ellipse 1647-2" class="cls-1" cx="50.5" cy="107" r="0.5"/><path id="Path_1389-2" data-name="Path 1389-2" class="cls-1" d="M50.5,107.7a.8.8,0,0,1-.8-.7.8.8,0,0,1,1.6,0,.8.8,0,0,1-.8.7Zm0-1a.3.3,0,0,0-.3.3c0,.1.1.2.3.2l.3-.2q-.1-.3-.3-.3Z"/></g><g id="Group_1107-2" data-name="Group 1107-2"><circle id="Ellipse_1648-2" data-name="Ellipse 1648-2" class="cls-1" cx="5.2" cy="118.3" r="0.5"/><path id="Path_1390-2" data-name="Path 1390-2" class="cls-1" d="M5.2,119.1a.8.8,0,0,1-.7-.8.7.7,0,0,1,.7-.7.7.7,0,0,1,.8.7A.8.8,0,0,1,5.2,119.1Zm0-1a.2.2,0,0,0-.2.2c0,.2.1.3.2.3a.3.3,0,0,0,.3-.3c0-.1-.1-.2-.3-.2Z"/></g><g id="Group_1108-2" data-name="Group 1108-2"><circle id="Ellipse_1649-2" data-name="Ellipse 1649-2" class="cls-1" cx="16.5" cy="118.3" r="0.5"/><path id="Path_1391-2" data-name="Path 1391-2" class="cls-1" d="M16.5,119.1a.8.8,0,0,1-.7-.8.7.7,0,0,1,.7-.7.7.7,0,0,1,.8.7A.8.8,0,0,1,16.5,119.1Zm0-1a.2.2,0,0,0-.2.2c0,.2.1.3.2.3a.3.3,0,0,0,.3-.3c0-.1-.1-.2-.3-.2Z"/></g><g id="Group_1109-2" data-name="Group 1109-2"><circle id="Ellipse_1650-2" data-name="Ellipse 1650-2" class="cls-1" cx="27.9" cy="118.3" r="0.5"/><path id="Path_1392-2" data-name="Path 1392-2" class="cls-1" d="M27.9,119.1a.8.8,0,0,1-.8-.8.7.7,0,0,1,.8-.7.7.7,0,0,1,.7.7A.8.8,0,0,1,27.9,119.1Zm0-1c-.2,0-.3.1-.3.2a.3.3,0,0,0,.3.3c.1,0,.2-.1.2-.3l-.2-.2Z"/></g><g id="Group_1110-2" data-name="Group 1110-2"><circle id="Ellipse_1651-2" data-name="Ellipse 1651-2" class="cls-1" cx="50.5" cy="118.3" r="0.5"/><path id="Path_1393-2" data-name="Path 1393-2" class="cls-1" d="M50.5,119.1a.9.9,0,0,1-.8-.8.8.8,0,0,1,1.6,0A.9.9,0,0,1,50.5,119.1Zm0-1c-.2,0-.3.1-.3.2a.3.3,0,0,0,.3.3.3.3,0,0,0,.3-.3l-.3-.2Z"/></g><g id="Group_1111-2" data-name="Group 1111-2"><circle id="Ellipse_1652-2" data-name="Ellipse 1652-2" class="cls-1" cx="5.2" cy="129.7" r="0.5"/><path id="Path_1394-2" data-name="Path 1394-2" class="cls-1" d="M5.2,130.4a.7.7,0,0,1-.7-.7.7.7,0,0,1,.7-.8.7.7,0,0,1,.8.8A.7.7,0,0,1,5.2,130.4Zm0-1c-.1,0-.2.1-.2.3a.2.2,0,0,0,.2.2h0c.2,0,.3-.1.3-.2a.3.3,0,0,0-.3-.3Z"/></g><g id="Group_1112-2" data-name="Group 1112-2"><circle id="Ellipse_1653-2" data-name="Ellipse 1653-2" class="cls-1" cx="16.5" cy="129.7" r="0.5"/><path id="Path_1395-2" data-name="Path 1395-2" class="cls-1" d="M16.5,130.4a.7.7,0,0,1-.7-.7.7.7,0,0,1,.7-.8.7.7,0,0,1,.8.8A.7.7,0,0,1,16.5,130.4Zm0-1c-.1,0-.2.1-.2.3a.2.2,0,0,0,.2.2c.2,0,.3-.1.3-.2a.3.3,0,0,0-.3-.3Z"/></g><g id="Group_1113-2" data-name="Group 1113-2"><circle id="Ellipse_1654-2" data-name="Ellipse 1654-2" class="cls-1" cx="39.2" cy="129.7" r="0.5"/><path id="Path_1396-2" data-name="Path 1396-2" class="cls-1" d="M39.2,130.4a.8.8,0,0,1-.8-.7.8.8,0,0,1,.8-.8.7.7,0,0,1,.7.8h0a.7.7,0,0,1-.7.7Zm0-1a.3.3,0,0,0-.3.3c0,.1.1.2.3.2h0a.2.2,0,0,0,.2-.2h0c0-.2-.1-.3-.2-.3Z"/></g><g id="Group_1114-2" data-name="Group 1114-2"><circle id="Ellipse_1655-2" data-name="Ellipse 1655-2" class="cls-1" cx="50.5" cy="129.7" r="0.5"/><path id="Path_1397-2" data-name="Path 1397-2" class="cls-1" d="M50.5,130.4a.8.8,0,0,1-.8-.7.8.8,0,1,1,1.6,0A.8.8,0,0,1,50.5,130.4Zm0-1a.3.3,0,0,0-.3.3c0,.1.1.2.3.2s.3-.1.3-.2l-.3-.3Z"/></g><g id="Group_1115-2" data-name="Group 1115-2"><circle id="Ellipse_1656-2" data-name="Ellipse 1656-2" class="cls-1" cx="16.5" cy="141" r="0.5"/><path id="Path_1398-2" data-name="Path 1398-2" class="cls-1" d="M16.5,141.7a.7.7,0,0,1-.7-.7.8.8,0,0,1,.7-.8.8.8,0,0,1,.8.8A.7.7,0,0,1,16.5,141.7Zm0-1c-.1,0-.2.1-.2.3l.2.2c.2,0,.3-.1.3-.2a.3.3,0,0,0-.3-.3Z"/></g><g id="Group_1116-2" data-name="Group 1116-2"><circle id="Ellipse_1657-2" data-name="Ellipse 1657-2" class="cls-1" cx="27.9" cy="141" r="0.5"/><path id="Path_1399-2" data-name="Path 1399-2" class="cls-1" d="M27.9,141.7a.7.7,0,0,1-.8-.7.8.8,0,0,1,.8-.8.8.8,0,0,1,.7.8A.7.7,0,0,1,27.9,141.7Zm0-1a.3.3,0,0,0-.3.3c0,.1.1.2.3.2l.2-.2c0-.2-.1-.3-.2-.3Z"/></g><g id="Group_1117-2" data-name="Group 1117-2"><circle id="Ellipse_1658-2" data-name="Ellipse 1658-2" class="cls-1" cx="39.2" cy="141" r="0.5"/><path id="Path_1400-2" data-name="Path 1400-2" class="cls-1" d="M39.2,141.7a.8.8,0,0,1-.8-.7.9.9,0,0,1,.8-.8.8.8,0,0,1,.7.8A.7.7,0,0,1,39.2,141.7Zm0-1a.3.3,0,0,0-.3.3c0,.1.1.2.3.2l.2-.2c0-.2-.1-.3-.2-.3Z"/></g><g id="Group_1118-2" data-name="Group 1118-2"><circle id="Ellipse_1659-2" data-name="Ellipse 1659-2" class="cls-1" cx="50.5" cy="141" r="0.5"/><path id="Path_1401-2" data-name="Path 1401-2" class="cls-1" d="M50.5,141.7a.8.8,0,0,1-.8-.7.8.8,0,0,1,1.6,0A.8.8,0,0,1,50.5,141.7Zm0-1a.3.3,0,0,0-.3.3c0,.1.1.2.3.2l.3-.2a.3.3,0,0,0-.3-.3Z"/></g><g id="Group_1119-2" data-name="Group 1119-2"><circle id="Ellipse_1660-2" data-name="Ellipse 1660-2" class="cls-1" cx="27.9" cy="152.3" r="0.5"/><path id="Path_1402-2" data-name="Path 1402-2" class="cls-1" d="M27.9,153.1a.8.8,0,0,1-.8-.8.7.7,0,0,1,.8-.7.7.7,0,0,1,.7.7h0A.8.8,0,0,1,27.9,153.1Zm0-1c-.2,0-.3.1-.3.2a.3.3,0,0,0,.3.3c.1,0,.2-.1.2-.3a.2.2,0,0,0-.2-.2Z"/></g><g id="Group_1120-2" data-name="Group 1120-2"><circle id="Ellipse_1661-2" data-name="Ellipse 1661-2" class="cls-1" cx="39.2" cy="152.3" r="0.5"/><path id="Path_1403-2" data-name="Path 1403-2" class="cls-1" d="M39.2,153.1a.9.9,0,0,1-.8-.8.8.8,0,0,1,.8-.7h0a.7.7,0,0,1,.7.7h0A.8.8,0,0,1,39.2,153.1Zm0-1c-.2,0-.3.1-.3.2h0a.3.3,0,0,0,.3.3c.1,0,.2-.1.2-.3a.2.2,0,0,0-.2-.2Z"/></g><g id="Group_1121-2" data-name="Group 1121-2"><circle id="Ellipse_1662-2" data-name="Ellipse 1662-2" class="cls-1" cx="50.5" cy="152.3" r="0.5"/><path id="Path_1404-2" data-name="Path 1404-2" class="cls-1" d="M50.5,153.1a.9.9,0,0,1-.8-.8.8.8,0,0,1,1.6,0h0A.9.9,0,0,1,50.5,153.1Zm0-1c-.2,0-.3.1-.3.2a.3.3,0,0,0,.3.3.3.3,0,0,0,.3-.3l-.3-.2Z"/></g><g id="Group_1122-2" data-name="Group 1122-2"><circle id="Ellipse_1663-2" data-name="Ellipse 1663-2" class="cls-1" cx="61.8" cy="39" r="0.5"/><path id="Path_1405-2" data-name="Path 1405-2" class="cls-1" d="M61.8,39.7A.8.8,0,0,1,61,39a.8.8,0,1,1,1.6,0,.8.8,0,0,1-.8.7Zm0-1a.3.3,0,0,0-.3.3c0,.1.2.2.3.2s.3-.1.3-.2a.3.3,0,0,0-.3-.3Z"/></g><g id="Group_1123-2" data-name="Group 1123-2"><circle id="Ellipse_1664-2" data-name="Ellipse 1664-2" class="cls-1" cx="50.5" cy="27.6" r="0.5"/><path id="Path_1406-2" data-name="Path 1406-2" class="cls-1" d="M50.5,28.4a.8.8,0,0,1-.8-.8.8.8,0,0,1,1.6,0h0A.8.8,0,0,1,50.5,28.4Zm0-1c-.2,0-.3.1-.3.2a.3.3,0,0,0,.3.3.3.3,0,0,0,.3-.3l-.3-.2Z"/></g><g id="Group_1124-2" data-name="Group 1124-2"><circle id="Ellipse_1665-2" data-name="Ellipse 1665-2" class="cls-1" cx="61.8" cy="27.6" r="0.5"/><path id="Path_1407-2" data-name="Path 1407-2" class="cls-1" d="M61.8,28.4a.8.8,0,0,1-.8-.8.8.8,0,0,1,1.6,0h0A.8.8,0,0,1,61.8,28.4Zm0-1c-.1,0-.3.1-.3.2a.3.3,0,0,0,.6,0c0-.1-.2-.2-.3-.2Z"/></g><g id="Group_1125-2" data-name="Group 1125-2"><circle id="Ellipse_1666-2" data-name="Ellipse 1666-2" class="cls-1" cx="61.8" cy="50.3" r="0.5"/><path id="Path_1408-2" data-name="Path 1408-2" class="cls-1" d="M61.8,51.1a.9.9,0,0,1-.8-.8.8.8,0,0,1,1.6,0A.9.9,0,0,1,61.8,51.1Zm0-1-.3.2a.3.3,0,1,0,.6,0Z"/></g><g id="Group_1126-2" data-name="Group 1126-2"><circle id="Ellipse_1667-2" data-name="Ellipse 1667-2" class="cls-1" cx="61.8" cy="61.6" r="0.5"/><path id="Path_1409-2" data-name="Path 1409-2" class="cls-1" d="M61.8,62.4a.8.8,0,0,1-.8-.8.8.8,0,0,1,1.6,0h0A.8.8,0,0,1,61.8,62.4Zm0-1c-.1,0-.3.1-.3.2a.3.3,0,0,0,.6,0h0c0-.1-.2-.2-.3-.2Z"/></g><g id="Group_1127-2" data-name="Group 1127-2"><circle id="Ellipse_1668-2" data-name="Ellipse 1668-2" class="cls-1" cx="61.8" cy="73" r="0.5"/><path id="Path_1410-2" data-name="Path 1410-2" class="cls-1" d="M61.8,73.7A.8.8,0,0,1,61,73a.8.8,0,0,1,1.6,0,.8.8,0,0,1-.8.7Zm0-1a.3.3,0,0,0-.3.3l.3.2.3-.2A.3.3,0,0,0,61.8,72.7Z"/></g><g id="Group_1128-2" data-name="Group 1128-2"><circle id="Ellipse_1669-2" data-name="Ellipse 1669-2" class="cls-1" cx="61.8" cy="84.3" r="0.5"/><path id="Path_1411-2" data-name="Path 1411-2" class="cls-1" d="M61.8,85.1a.9.9,0,0,1-.8-.8.8.8,0,0,1,1.6,0A.9.9,0,0,1,61.8,85.1Zm0-1-.3.2a.3.3,0,1,0,.6,0l-.3-.2Z"/></g><g id="Group_1129-2" data-name="Group 1129-2"><circle id="Ellipse_1670-2" data-name="Ellipse 1670-2" class="cls-1" cx="61.8" cy="95.7" r="0.5"/><path id="Path_1412-2" data-name="Path 1412-2" class="cls-1" d="M61.8,96.4a.8.8,0,0,1-.8-.7.8.8,0,0,1,1.6,0A.8.8,0,0,1,61.8,96.4Zm0-1-.3.2a.3.3,0,1,0,.6,0l-.3-.2Z"/></g><g id="Group_1130-2" data-name="Group 1130-2"><circle id="Ellipse_1671-2" data-name="Ellipse 1671-2" class="cls-1" cx="61.8" cy="107" r="0.5"/><path id="Path_1413-2" data-name="Path 1413-2" class="cls-1" d="M61.8,107.7a.8.8,0,0,1-.8-.7.8.8,0,0,1,1.6,0,.8.8,0,0,1-.8.7Zm0-1a.3.3,0,0,0-.3.3l.3.2.3-.2a.3.3,0,0,0-.3-.3Z"/></g><g id="Group_1131-2" data-name="Group 1131-2"><circle id="Ellipse_1672-2" data-name="Ellipse 1672-2" class="cls-1" cx="61.8" cy="118.3" r="0.5"/><path id="Path_1414-2" data-name="Path 1414-2" class="cls-1" d="M61.8,119.1a.9.9,0,0,1-.8-.8.8.8,0,0,1,1.6,0A.9.9,0,0,1,61.8,119.1Zm0-1-.3.2a.3.3,0,0,0,.6,0l-.3-.2Z"/></g><g id="Group_1132-2" data-name="Group 1132-2"><circle id="Ellipse_1673-2" data-name="Ellipse 1673-2" class="cls-1" cx="61.8" cy="129.7" r="0.5"/><path id="Path_1415-2" data-name="Path 1415-2" class="cls-1" d="M61.8,130.4a.8.8,0,0,1-.8-.7.8.8,0,1,1,1.6,0A.8.8,0,0,1,61.8,130.4Zm0-1a.3.3,0,0,0-.3.3c0,.1.2.2.3.2s.3-.1.3-.2a.3.3,0,0,0-.3-.3Z"/></g><g id="Group_1133-2" data-name="Group 1133-2"><circle id="Ellipse_1674-2" data-name="Ellipse 1674-2" class="cls-1" cx="61.8" cy="141" r="0.5"/><path id="Path_1416-2" data-name="Path 1416-2" class="cls-1" d="M61.8,141.7a.8.8,0,0,1-.8-.7.8.8,0,1,1,1.6,0A.8.8,0,0,1,61.8,141.7Zm0-1a.3.3,0,0,0-.3.3l.3.2.3-.2a.3.3,0,0,0-.3-.3Z"/></g><g id="Group_1134-2" data-name="Group 1134-2"><circle id="Ellipse_1675-2" data-name="Ellipse 1675-2" class="cls-1" cx="61.8" cy="152.3" r="0.5"/><path id="Path_1417-2" data-name="Path 1417-2" class="cls-1" d="M61.8,153.1a.9.9,0,0,1-.8-.8.8.8,0,0,1,1.6,0h0A.9.9,0,0,1,61.8,153.1Zm0-1c-.1,0-.3.1-.3.2a.3.3,0,0,0,.6,0c0-.1-.2-.2-.3-.2Z"/></g><g id="Group_1135-2" data-name="Group 1135-2"><circle id="Ellipse_1676-2" data-name="Ellipse 1676-2" class="cls-1" cx="39.2" cy="163.2" r="0.5"/><path id="Path_1418-2" data-name="Path 1418-2" class="cls-1" d="M39.2,164a.8.8,0,1,1,0-1.6.8.8,0,0,1,0,1.6Zm0-1.1a.3.3,0,0,0-.3.3h0a.3.3,0,0,0,.3.3c.1,0,.2-.2.2-.3s-.1-.3-.2-.3Z"/></g><g id="Group_1136-2" data-name="Group 1136-2"><circle id="Ellipse_1677-2" data-name="Ellipse 1677-2" class="cls-1" cx="50.5" cy="163.2" r="0.5"/><path id="Path_1419-2" data-name="Path 1419-2" class="cls-1" d="M50.5,164a.8.8,0,1,1,.8-.8A.9.9,0,0,1,50.5,164Zm0-1.1a.3.3,0,0,0,0,.6.5.5,0,0,0,.3-.3l-.3-.3Z"/></g><g id="Group_1137-2" data-name="Group 1137-2"><circle id="Ellipse_1678-2" data-name="Ellipse 1678-2" class="cls-1" cx="61.8" cy="163.2" r="0.5"/><path id="Path_1420-2" data-name="Path 1420-2" class="cls-1" d="M61.8,164a.8.8,0,1,1,.8-.8A.9.9,0,0,1,61.8,164Zm0-1.1-.3.3a.3.3,0,1,0,.6,0l-.3-.3Z"/></g><g id="Group_1138-2" data-name="Group 1138-2"><circle id="Ellipse_1679-2" data-name="Ellipse 1679-2" class="cls-1" cx="50.5" cy="174.1" r="0.5"/><path id="Path_1421-2" data-name="Path 1421-2" class="cls-1" d="M50.5,174.8a.8.8,0,0,1-.8-.7.8.8,0,1,1,1.6,0A.8.8,0,0,1,50.5,174.8Zm0-1a.3.3,0,0,0-.3.3c0,.1.1.2.3.2l.3-.2-.3-.3Z"/></g><g id="Group_1139-2" data-name="Group 1139-2"><circle id="Ellipse_1680-2" data-name="Ellipse 1680-2" class="cls-1" cx="61.8" cy="174.1" r="0.5"/><path id="Path_1422-2" data-name="Path 1422-2" class="cls-1" d="M61.8,174.8a.8.8,0,0,1-.8-.7.8.8,0,1,1,1.6,0A.8.8,0,0,1,61.8,174.8Zm0-1a.3.3,0,0,0-.3.3l.3.2.3-.2a.3.3,0,0,0-.3-.3Z"/></g><g id="Group_1140-2" data-name="Group 1140-2"><circle id="Ellipse_1681-2" data-name="Ellipse 1681-2" class="cls-1" cx="73.1" cy="39" r="0.5"/><path id="Path_1423-2" data-name="Path 1423-2" class="cls-1" d="M73.1,39.7a.7.7,0,0,1-.7-.7h0a.8.8,0,0,1,.7-.8.9.9,0,0,1,.8.8.8.8,0,0,1-.8.7Zm0-1c-.1,0-.2.1-.2.3a.2.2,0,0,0,.2.2h0c.2,0,.3-.1.3-.2a.3.3,0,0,0-.3-.3Z"/></g><g id="Group_1141-2" data-name="Group 1141-2"><circle id="Ellipse_1682-2" data-name="Ellipse 1682-2" class="cls-1" cx="84.4" cy="39" r="0.5"/><path id="Path_1424-2" data-name="Path 1424-2" class="cls-1" d="M84.4,39.7a.7.7,0,0,1-.7-.7h0a.8.8,0,0,1,.7-.8.9.9,0,0,1,.8.8A.8.8,0,0,1,84.4,39.7Zm0-1c-.1,0-.2.1-.2.3a.2.2,0,0,0,.2.2c.2,0,.3-.1.3-.2a.3.3,0,0,0-.3-.3Z"/></g><g id="Group_1142-2" data-name="Group 1142-2"><circle id="Ellipse_1683-2" data-name="Ellipse 1683-2" class="cls-1" cx="95.7" cy="39" r="0.5"/><path id="Path_1425-2" data-name="Path 1425-2" class="cls-1" d="M95.7,39.7A.7.7,0,0,1,95,39h0a.8.8,0,0,1,.7-.8.8.8,0,0,1,.8.8A.7.7,0,0,1,95.7,39.7Zm0-1c-.1,0-.2.1-.2.3a.2.2,0,0,0,.2.2c.2,0,.3-.1.3-.2a.3.3,0,0,0-.3-.3Z"/></g><g id="Group_1143-2" data-name="Group 1143-2"><circle id="Ellipse_1684-2" data-name="Ellipse 1684-2" class="cls-1" cx="107.1" cy="39" r="0.5"/><path id="Path_1426-2" data-name="Path 1426-2" class="cls-1" d="M107.1,39.7a.7.7,0,0,1-.8-.7h0a.8.8,0,0,1,.8-.8.8.8,0,0,1,.7.8.7.7,0,0,1-.7.7Zm0-1a.3.3,0,0,0-.3.3c0,.1.1.2.3.2a.2.2,0,0,0,.2-.2c0-.2-.1-.3-.2-.3Z"/></g><g id="Group_1144-2" data-name="Group 1144-2"><circle id="Ellipse_1685-2" data-name="Ellipse 1685-2" class="cls-1" cx="118.4" cy="39" r="0.5"/><path id="Path_1427-2" data-name="Path 1427-2" class="cls-1" d="M118.4,39.7a.7.7,0,0,1-.8-.7.8.8,0,0,1,.8-.8.8.8,0,0,1,.7.8A.7.7,0,0,1,118.4,39.7Zm0-1a.3.3,0,0,0-.3.3c0,.1.1.2.3.2a.2.2,0,0,0,.2-.2c0-.2-.1-.3-.2-.3Z"/></g><g id="Group_1145-2" data-name="Group 1145-2"><circle id="Ellipse_1686-2" data-name="Ellipse 1686-2" class="cls-1" cx="129.7" cy="39" r="0.5"/><path id="Path_1428-2" data-name="Path 1428-2" class="cls-1" d="M129.7,39.7a.8.8,0,0,1-.8-.7h0a.9.9,0,0,1,.8-.8.8.8,0,0,1,.7.8A.7.7,0,0,1,129.7,39.7Zm0-1a.3.3,0,0,0-.3.3c0,.1.1.2.3.2a.2.2,0,0,0,.2-.2c0-.2-.1-.3-.2-.3Z"/></g><g id="Group_1146-2" data-name="Group 1146-2"><circle id="Ellipse_1687-2" data-name="Ellipse 1687-2" class="cls-1" cx="141" cy="39" r="0.5"/><path id="Path_1429-2" data-name="Path 1429-2" class="cls-1" d="M141,39.7a.8.8,0,0,1-.8-.7.8.8,0,1,1,1.6,0,.8.8,0,0,1-.8.7Zm0-1a.3.3,0,0,0-.3.3c0,.1.1.2.3.2s.3-.1.3-.2a.3.3,0,0,0-.3-.3Z"/></g><g id="Group_1147-2" data-name="Group 1147-2"><circle id="Ellipse_1688-2" data-name="Ellipse 1688-2" class="cls-1" cx="152.3" cy="39" r="0.5"/><path id="Path_1430-2" data-name="Path 1430-2" class="cls-1" d="M152.3,39.7a.8.8,0,0,1-.8-.7.8.8,0,0,1,1.6,0,.8.8,0,0,1-.8.7Zm0-1a.3.3,0,0,0-.3.3c0,.1.2.2.3.2s.3-.1.3-.2a.3.3,0,0,0-.3-.3Z"/></g><g id="Group_1148-2" data-name="Group 1148-2"><circle id="Ellipse_1689-2" data-name="Ellipse 1689-2" class="cls-1" cx="73.1" cy="50.3" r="0.5"/><path id="Path_1431-2" data-name="Path 1431-2" class="cls-1" d="M73.1,51.1a.8.8,0,0,1-.7-.8.7.7,0,0,1,.7-.7.8.8,0,0,1,.8.7A.9.9,0,0,1,73.1,51.1Zm0-1a.2.2,0,0,0-.2.2c0,.2.1.3.2.3a.3.3,0,0,0,.3-.3C73.4,50.2,73.3,50.1,73.1,50.1Z"/></g><g id="Group_1149-2" data-name="Group 1149-2"><circle id="Ellipse_1690-2" data-name="Ellipse 1690-2" class="cls-1" cx="84.4" cy="50.3" r="0.5"/><path id="Path_1432-2" data-name="Path 1432-2" class="cls-1" d="M84.4,51.1a.8.8,0,0,1-.7-.8.7.7,0,0,1,.7-.7.8.8,0,0,1,.8.7A.9.9,0,0,1,84.4,51.1Zm0-1a.2.2,0,0,0-.2.2c0,.2.1.3.2.3a.3.3,0,0,0,.3-.3C84.7,50.2,84.6,50.1,84.4,50.1Z"/></g><g id="Group_1150-2" data-name="Group 1150-2"><circle id="Ellipse_1691-2" data-name="Ellipse 1691-2" class="cls-1" cx="95.7" cy="50.3" r="0.5"/><path id="Path_1433-2" data-name="Path 1433-2" class="cls-1" d="M95.7,51.1a.8.8,0,0,1-.7-.8.7.7,0,0,1,.7-.7.7.7,0,0,1,.8.7A.8.8,0,0,1,95.7,51.1Zm0-1a.2.2,0,0,0-.2.2c0,.2.1.3.2.3a.3.3,0,0,0,.3-.3C96,50.2,95.9,50.1,95.7,50.1Z"/></g><g id="Group_1151-2" data-name="Group 1151-2"><circle id="Ellipse_1692-2" data-name="Ellipse 1692-2" class="cls-1" cx="107.1" cy="50.3" r="0.5"/><path id="Path_1434-2" data-name="Path 1434-2" class="cls-1" d="M107.1,51.1a.8.8,0,0,1-.8-.8.7.7,0,0,1,.8-.7.7.7,0,0,1,.7.7A.8.8,0,0,1,107.1,51.1Zm0-1c-.2,0-.3.1-.3.2a.3.3,0,0,0,.3.3c.1,0,.2-.1.2-.3A.2.2,0,0,0,107.1,50.1Z"/></g><g id="Group_1152-2" data-name="Group 1152-2"><circle id="Ellipse_1693-2" data-name="Ellipse 1693-2" class="cls-1" cx="118.4" cy="50.3" r="0.5"/><path id="Path_1435-2" data-name="Path 1435-2" class="cls-1" d="M118.4,51.1a.8.8,0,0,1-.8-.8.7.7,0,0,1,.8-.7.7.7,0,0,1,.7.7A.8.8,0,0,1,118.4,51.1Zm0-1c-.2,0-.3.1-.3.2a.3.3,0,0,0,.3.3c.1,0,.2-.1.2-.3A.2.2,0,0,0,118.4,50.1Z"/></g><g id="Group_1153-2" data-name="Group 1153-2"><circle id="Ellipse_1694-2" data-name="Ellipse 1694-2" class="cls-1" cx="129.7" cy="50.3" r="0.5"/><path id="Path_1436-2" data-name="Path 1436-2" class="cls-1" d="M129.7,51.1a.9.9,0,0,1-.8-.8.8.8,0,0,1,.8-.7.7.7,0,0,1,.7.7A.8.8,0,0,1,129.7,51.1Zm0-1c-.2,0-.3.1-.3.2a.3.3,0,0,0,.3.3c.1,0,.2-.1.2-.3A.2.2,0,0,0,129.7,50.1Z"/></g><g id="Group_1154-2" data-name="Group 1154-2"><circle id="Ellipse_1695-2" data-name="Ellipse 1695-2" class="cls-1" cx="141" cy="50.3" r="0.5"/><path id="Path_1437-2" data-name="Path 1437-2" class="cls-1" d="M141,51.1a.9.9,0,0,1-.8-.8.8.8,0,0,1,1.6,0A.9.9,0,0,1,141,51.1Zm0-1c-.2,0-.3.1-.3.2a.3.3,0,0,0,.3.3.3.3,0,0,0,.3-.3Z"/></g><g id="Group_1155-2" data-name="Group 1155-2"><circle id="Ellipse_1696-2" data-name="Ellipse 1696-2" class="cls-1" cx="152.3" cy="50.3" r="0.5"/><path id="Path_1438-2" data-name="Path 1438-2" class="cls-1" d="M152.3,51.1a.9.9,0,0,1-.8-.8.8.8,0,0,1,1.6,0A.9.9,0,0,1,152.3,51.1Zm0-1-.3.2a.3.3,0,0,0,.3.3.3.3,0,0,0,.3-.3C152.6,50.2,152.5,50.1,152.3,50.1Z"/></g><g id="Group_1156-2" data-name="Group 1156-2"><circle id="Ellipse_1697-2" data-name="Ellipse 1697-2" class="cls-1" cx="163.6" cy="50.3" r="0.5"/><path id="Path_1439-2" data-name="Path 1439-2" class="cls-1" d="M163.6,51.1a.8.8,0,0,1-.7-.8.7.7,0,0,1,.7-.7.8.8,0,0,1,.8.7A.9.9,0,0,1,163.6,51.1Zm0-1a.2.2,0,0,0-.2.2c0,.2.1.3.2.3a.3.3,0,0,0,.3-.3C163.9,50.2,163.8,50.1,163.6,50.1Z"/></g><g id="Group_1157-2" data-name="Group 1157-2"><circle id="Ellipse_1698-2" data-name="Ellipse 1698-2" class="cls-1" cx="73.1" cy="61.6" r="0.5"/><path id="Path_1440-2" data-name="Path 1440-2" class="cls-1" d="M73.1,62.4a.7.7,0,0,1-.7-.8h0a.7.7,0,0,1,.7-.7h0a.8.8,0,0,1,.8.7A.8.8,0,0,1,73.1,62.4Zm0-1a.2.2,0,0,0-.2.2h0c0,.2.1.3.2.3h0a.3.3,0,0,0,.3-.3h0c0-.1-.1-.2-.3-.2Z"/></g><g id="Group_1158-2" data-name="Group 1158-2"><circle id="Ellipse_1699-2" data-name="Ellipse 1699-2" class="cls-1" cx="84.4" cy="61.6" r="0.5"/><path id="Path_1441-2" data-name="Path 1441-2" class="cls-1" d="M84.4,62.4a.7.7,0,0,1-.7-.8.7.7,0,0,1,.7-.7h0a.8.8,0,0,1,.8.7A.8.8,0,0,1,84.4,62.4Zm0-1a.2.2,0,0,0-.2.2c0,.2.1.3.2.3h0a.3.3,0,0,0,.3-.3c0-.1-.1-.2-.3-.2Z"/></g><g id="Group_1159-2" data-name="Group 1159-2"><circle id="Ellipse_1700-2" data-name="Ellipse 1700-2" class="cls-1" cx="95.7" cy="61.6" r="0.5"/><path id="Path_1442-2" data-name="Path 1442-2" class="cls-1" d="M95.7,62.4a.7.7,0,0,1-.7-.8.7.7,0,0,1,.7-.7h0a.7.7,0,0,1,.8.7A.7.7,0,0,1,95.7,62.4Zm0-1a.2.2,0,0,0-.2.2c0,.2.1.3.2.3a.3.3,0,0,0,.3-.3c0-.1-.1-.2-.3-.2Z"/></g><g id="Group_1160-2" data-name="Group 1160-2"><circle id="Ellipse_1701-2" data-name="Ellipse 1701-2" class="cls-1" cx="107.1" cy="61.6" r="0.5"/><path id="Path_1443-2" data-name="Path 1443-2" class="cls-1" d="M107.1,62.4a.7.7,0,0,1-.8-.8h0a.7.7,0,0,1,.8-.7h0a.7.7,0,0,1,.7.7h0A.7.7,0,0,1,107.1,62.4Zm0-1c-.2,0-.3.1-.3.2a.3.3,0,0,0,.3.3h0c.1,0,.2-.1.2-.3h0a.2.2,0,0,0-.2-.2Z"/></g><g id="Group_1161-2" data-name="Group 1161-2"><circle id="Ellipse_1702-2" data-name="Ellipse 1702-2" class="cls-1" cx="118.4" cy="61.6" r="0.5"/><path id="Path_1444-2" data-name="Path 1444-2" class="cls-1" d="M118.4,62.4a.7.7,0,0,1-.8-.8.7.7,0,0,1,.8-.7.7.7,0,0,1,.7.7A.7.7,0,0,1,118.4,62.4Zm0-1c-.2,0-.3.1-.3.2a.3.3,0,0,0,.3.3c.1,0,.2-.1.2-.3a.2.2,0,0,0-.2-.2Z"/></g><g id="Group_1162-2" data-name="Group 1162-2"><circle id="Ellipse_1703-2" data-name="Ellipse 1703-2" class="cls-1" cx="129.7" cy="61.6" r="0.5"/><path id="Path_1445-2" data-name="Path 1445-2" class="cls-1" d="M129.7,62.4a.8.8,0,0,1-.8-.8.8.8,0,0,1,.8-.7.7.7,0,0,1,.7.7A.7.7,0,0,1,129.7,62.4Zm0-1c-.2,0-.3.1-.3.2a.3.3,0,0,0,.3.3h0c.1,0,.2-.1.2-.3a.2.2,0,0,0-.2-.2Z"/></g><g id="Group_1163-2" data-name="Group 1163-2"><circle id="Ellipse_1704-2" data-name="Ellipse 1704-2" class="cls-1" cx="141" cy="61.6" r="0.5"/><path id="Path_1446-2" data-name="Path 1446-2" class="cls-1" d="M141,62.4a.8.8,0,0,1-.8-.8.8.8,0,0,1,1.6,0A.8.8,0,0,1,141,62.4Zm0-1c-.2,0-.3.1-.3.2a.3.3,0,0,0,.3.3.3.3,0,0,0,.3-.3h0c0-.1-.2-.2-.3-.2Z"/></g><g id="Group_1164-2" data-name="Group 1164-2"><circle id="Ellipse_1705-2" data-name="Ellipse 1705-2" class="cls-1" cx="152.3" cy="61.6" r="0.5"/><path id="Path_1447-2" data-name="Path 1447-2" class="cls-1" d="M152.3,62.4a.8.8,0,0,1-.8-.8.8.8,0,0,1,1.6,0h0a.8.8,0,0,1-.8.8Zm0-1c-.1,0-.3.1-.3.2a.3.3,0,0,0,.3.3.3.3,0,0,0,.3-.3h0c0-.1-.2-.2-.3-.2Z"/></g><g id="Group_1165-2" data-name="Group 1165-2"><circle id="Ellipse_1706-2" data-name="Ellipse 1706-2" class="cls-1" cx="163.6" cy="61.6" r="0.5"/><path id="Path_1448-2" data-name="Path 1448-2" class="cls-1" d="M163.6,62.4a.7.7,0,0,1-.7-.8.7.7,0,0,1,.7-.7h0a.8.8,0,0,1,.8.7A.8.8,0,0,1,163.6,62.4Zm0-1a.2.2,0,0,0-.2.2c0,.2.1.3.2.3h0a.3.3,0,0,0,.3-.3c0-.1-.1-.2-.3-.2Z"/></g><g id="Group_1166-2" data-name="Group 1166-2"><circle id="Ellipse_1707-2" data-name="Ellipse 1707-2" class="cls-1" cx="73.1" cy="73" r="0.5"/><path id="Path_1449-2" data-name="Path 1449-2" class="cls-1" d="M73.1,73.7a.7.7,0,0,1-.7-.7h0a.8.8,0,0,1,.7-.8.9.9,0,0,1,.8.8.8.8,0,0,1-.8.7Zm0-1c-.1,0-.2.1-.2.3a.2.2,0,0,0,.2.2h0c.2,0,.3-.1.3-.2A.3.3,0,0,0,73.1,72.7Z"/></g><g id="Group_1167-2" data-name="Group 1167-2"><circle id="Ellipse_1708-2" data-name="Ellipse 1708-2" class="cls-1" cx="84.4" cy="73" r="0.5"/><path id="Path_1450-2" data-name="Path 1450-2" class="cls-1" d="M84.4,73.7a.7.7,0,0,1-.7-.7h0a.8.8,0,0,1,.7-.8.9.9,0,0,1,.8.8A.8.8,0,0,1,84.4,73.7Zm0-1c-.1,0-.2.1-.2.3a.2.2,0,0,0,.2.2c.2,0,.3-.1.3-.2A.3.3,0,0,0,84.4,72.7Z"/></g><g id="Group_1168-2" data-name="Group 1168-2"><circle id="Ellipse_1709-2" data-name="Ellipse 1709-2" class="cls-1" cx="95.7" cy="73" r="0.5"/><path id="Path_1451-2" data-name="Path 1451-2" class="cls-1" d="M95.7,73.7A.7.7,0,0,1,95,73h0a.8.8,0,0,1,.7-.8.8.8,0,0,1,.8.8A.7.7,0,0,1,95.7,73.7Zm0-1c-.1,0-.2.1-.2.3a.2.2,0,0,0,.2.2c.2,0,.3-.1.3-.2A.3.3,0,0,0,95.7,72.7Z"/></g><g id="Group_1169-2" data-name="Group 1169-2"><circle id="Ellipse_1710-2" data-name="Ellipse 1710-2" class="cls-1" cx="107.1" cy="73" r="0.5"/><path id="Path_1452-2" data-name="Path 1452-2" class="cls-1" d="M107.1,73.7a.7.7,0,0,1-.8-.7h0a.8.8,0,0,1,.8-.8.8.8,0,0,1,.7.8.7.7,0,0,1-.7.7Zm0-1a.3.3,0,0,0-.3.3c0,.1.1.2.3.2a.2.2,0,0,0,.2-.2C107.3,72.8,107.2,72.7,107.1,72.7Z"/></g><g id="Group_1170-2" data-name="Group 1170-2"><circle id="Ellipse_1711-2" data-name="Ellipse 1711-2" class="cls-1" cx="118.4" cy="73" r="0.5"/><path id="Path_1453-2" data-name="Path 1453-2" class="cls-1" d="M118.4,73.7a.7.7,0,0,1-.8-.7.8.8,0,0,1,.8-.8.8.8,0,0,1,.7.8A.7.7,0,0,1,118.4,73.7Zm0-1a.3.3,0,0,0-.3.3c0,.1.1.2.3.2a.2.2,0,0,0,.2-.2C118.6,72.8,118.5,72.7,118.4,72.7Z"/></g><g id="Group_1171-2" data-name="Group 1171-2"><circle id="Ellipse_1712-2" data-name="Ellipse 1712-2" class="cls-1" cx="129.7" cy="73" r="0.5"/><path id="Path_1454-2" data-name="Path 1454-2" class="cls-1" d="M129.7,73.7a.8.8,0,0,1-.8-.7h0a.9.9,0,0,1,.8-.8.8.8,0,0,1,.7.8A.7.7,0,0,1,129.7,73.7Zm0-1a.3.3,0,0,0-.3.3c0,.1.1.2.3.2a.2.2,0,0,0,.2-.2C129.9,72.8,129.8,72.7,129.7,72.7Z"/></g><g id="Group_1172-2" data-name="Group 1172-2"><circle id="Ellipse_1713-2" data-name="Ellipse 1713-2" class="cls-1" cx="141" cy="73" r="0.5"/><path id="Path_1455-2" data-name="Path 1455-2" class="cls-1" d="M141,73.7a.8.8,0,0,1-.8-.7.8.8,0,1,1,1.6,0,.8.8,0,0,1-.8.7Zm0-1a.3.3,0,0,0-.3.3c0,.1.1.2.3.2l.3-.2A.3.3,0,0,0,141,72.7Z"/></g><g id="Group_1173-2" data-name="Group 1173-2"><circle id="Ellipse_1714-2" data-name="Ellipse 1714-2" class="cls-1" cx="152.3" cy="73" r="0.5"/><path id="Path_1456-2" data-name="Path 1456-2" class="cls-1" d="M152.3,73.7a.8.8,0,0,1-.8-.7.8.8,0,0,1,1.6,0,.8.8,0,0,1-.8.7Zm0-1a.3.3,0,0,0-.3.3l.3.2c.2,0,.3-.1.3-.2A.3.3,0,0,0,152.3,72.7Z"/></g><g id="Group_1174-2" data-name="Group 1174-2"><circle id="Ellipse_1715-2" data-name="Ellipse 1715-2" class="cls-1" cx="163.6" cy="73" r="0.5"/><path id="Path_1457-2" data-name="Path 1457-2" class="cls-1" d="M163.6,73.7a.7.7,0,0,1-.7-.7h0a.8.8,0,0,1,.7-.8.9.9,0,0,1,.8.8A.8.8,0,0,1,163.6,73.7Zm0-1c-.1,0-.2.1-.2.3a.2.2,0,0,0,.2.2c.2,0,.3-.1.3-.2A.3.3,0,0,0,163.6,72.7Z"/></g><g id="Group_1175-2" data-name="Group 1175-2"><circle id="Ellipse_1716-2" data-name="Ellipse 1716-2" class="cls-1" cx="73.1" cy="84.3" r="0.5"/><path id="Path_1458-2" data-name="Path 1458-2" class="cls-1" d="M73.1,85.1a.8.8,0,0,1-.7-.8.7.7,0,0,1,.7-.7h0a.8.8,0,0,1,.8.7A.9.9,0,0,1,73.1,85.1Zm0-1-.2.2c0,.2.1.3.2.3a.3.3,0,0,0,.3-.3c0-.1-.1-.2-.3-.2Z"/></g><g id="Group_1176-2" data-name="Group 1176-2"><circle id="Ellipse_1717-2" data-name="Ellipse 1717-2" class="cls-1" cx="84.4" cy="84.3" r="0.5"/><path id="Path_1459-2" data-name="Path 1459-2" class="cls-1" d="M84.4,85.1a.8.8,0,0,1-.7-.8.7.7,0,0,1,.7-.7.8.8,0,0,1,.8.7A.9.9,0,0,1,84.4,85.1Zm0-1a.2.2,0,0,0-.2.2c0,.2.1.3.2.3a.3.3,0,0,0,.3-.3c0-.1-.1-.2-.3-.2Z"/></g><g id="Group_1177-2" data-name="Group 1177-2"><circle id="Ellipse_1718-2" data-name="Ellipse 1718-2" class="cls-1" cx="95.7" cy="84.3" r="0.5"/><path id="Path_1460-2" data-name="Path 1460-2" class="cls-1" d="M95.7,85.1a.8.8,0,0,1-.7-.8.7.7,0,0,1,.7-.7.7.7,0,0,1,.8.7A.8.8,0,0,1,95.7,85.1Zm0-1a.2.2,0,0,0-.2.2c0,.2.1.3.2.3a.3.3,0,0,0,.3-.3c0-.1-.1-.2-.3-.2Z"/></g><g id="Group_1178-2" data-name="Group 1178-2"><circle id="Ellipse_1719-2" data-name="Ellipse 1719-2" class="cls-1" cx="107.1" cy="84.3" r="0.5"/><path id="Path_1461-2" data-name="Path 1461-2" class="cls-1" d="M107.1,85.1a.8.8,0,0,1-.8-.8.7.7,0,0,1,.8-.7h0a.7.7,0,0,1,.7.7A.8.8,0,0,1,107.1,85.1Zm0-1c-.2,0-.3.1-.3.2a.3.3,0,0,0,.3.3c.1,0,.2-.1.2-.3a.2.2,0,0,0-.2-.2Z"/></g><g id="Group_1179-2" data-name="Group 1179-2"><circle id="Ellipse_1720-2" data-name="Ellipse 1720-2" class="cls-1" cx="118.4" cy="84.3" r="0.5"/><path id="Path_1462-2" data-name="Path 1462-2" class="cls-1" d="M118.4,85.1a.8.8,0,0,1-.8-.8.7.7,0,0,1,.8-.7.7.7,0,0,1,.7.7A.8.8,0,0,1,118.4,85.1Zm0-1c-.2,0-.3.1-.3.2a.3.3,0,0,0,.3.3c.1,0,.2-.1.2-.3l-.2-.2Z"/></g><g id="Group_1180-2" data-name="Group 1180-2"><circle id="Ellipse_1721-2" data-name="Ellipse 1721-2" class="cls-1" cx="129.7" cy="84.3" r="0.5"/><path id="Path_1463-2" data-name="Path 1463-2" class="cls-1" d="M129.7,85.1a.9.9,0,0,1-.8-.8.8.8,0,0,1,.8-.7.7.7,0,0,1,.7.7A.8.8,0,0,1,129.7,85.1Zm0-1c-.2,0-.3.1-.3.2a.3.3,0,0,0,.3.3c.1,0,.2-.1.2-.3a.2.2,0,0,0-.2-.2Z"/></g><g id="Group_1181-2" data-name="Group 1181-2"><circle id="Ellipse_1722-2" data-name="Ellipse 1722-2" class="cls-1" cx="141" cy="84.3" r="0.5"/><path id="Path_1464-2" data-name="Path 1464-2" class="cls-1" d="M141,85.1a.9.9,0,0,1-.8-.8.8.8,0,0,1,1.6,0A.9.9,0,0,1,141,85.1Zm0-1c-.2,0-.3.1-.3.2a.3.3,0,0,0,.3.3.3.3,0,0,0,.3-.3l-.3-.2Z"/></g><g id="Group_1182-2" data-name="Group 1182-2"><circle id="Ellipse_1723-2" data-name="Ellipse 1723-2" class="cls-1" cx="152.3" cy="84.3" r="0.5"/><path id="Path_1465-2" data-name="Path 1465-2" class="cls-1" d="M152.3,85.1a.9.9,0,0,1-.8-.8.8.8,0,0,1,1.6,0h0A.9.9,0,0,1,152.3,85.1Zm0-1-.3.2a.3.3,0,0,0,.3.3.3.3,0,0,0,.3-.3c0-.1-.1-.2-.3-.2Z"/></g><g id="Group_1183-2" data-name="Group 1183-2"><circle id="Ellipse_1724-2" data-name="Ellipse 1724-2" class="cls-1" cx="163.6" cy="84.3" r="0.5"/><path id="Path_1466-2" data-name="Path 1466-2" class="cls-1" d="M163.6,85.1a.8.8,0,0,1-.7-.8.7.7,0,0,1,.7-.7.8.8,0,0,1,.8.7A.9.9,0,0,1,163.6,85.1Zm0-1-.2.2c0,.2.1.3.2.3a.3.3,0,0,0,.3-.3c0-.1-.1-.2-.3-.2Z"/></g><g id="Group_1184-2" data-name="Group 1184-2"><circle id="Ellipse_1725-2" data-name="Ellipse 1725-2" class="cls-1" cx="73.1" cy="95.7" r="0.5"/><path id="Path_1467-2" data-name="Path 1467-2" class="cls-1" d="M73.1,96.4a.7.7,0,0,1-.7-.7h0a.7.7,0,0,1,.7-.8h0a.8.8,0,0,1,.8.8A.8.8,0,0,1,73.1,96.4Zm0-1-.2.2h0c0,.2.1.3.2.3h0a.3.3,0,0,0,.3-.3h0c0-.1-.1-.2-.3-.2Z"/></g><g id="Group_1185-2" data-name="Group 1185-2"><circle id="Ellipse_1726-2" data-name="Ellipse 1726-2" class="cls-1" cx="84.4" cy="95.7" r="0.5"/><path id="Path_1468-2" data-name="Path 1468-2" class="cls-1" d="M84.4,96.4a.7.7,0,0,1-.7-.7.7.7,0,0,1,.7-.8.8.8,0,0,1,.8.8A.8.8,0,0,1,84.4,96.4Zm0-1-.2.2c0,.2.1.3.2.3a.3.3,0,0,0,.3-.3c0-.1-.1-.2-.3-.2Z"/></g><g id="Group_1186-2" data-name="Group 1186-2"><circle id="Ellipse_1727-2" data-name="Ellipse 1727-2" class="cls-1" cx="95.7" cy="95.7" r="0.5"/><path id="Path_1469-2" data-name="Path 1469-2" class="cls-1" d="M95.7,96.4a.7.7,0,0,1-.7-.7.7.7,0,0,1,.7-.8.7.7,0,0,1,.8.8A.7.7,0,0,1,95.7,96.4Zm0-1-.2.2c0,.2.1.3.2.3a.3.3,0,0,0,.3-.3c0-.1-.1-.2-.3-.2Z"/></g><g id="Group_1187-2" data-name="Group 1187-2"><circle id="Ellipse_1728-2" data-name="Ellipse 1728-2" class="cls-1" cx="107.1" cy="95.7" r="0.5"/><path id="Path_1470-2" data-name="Path 1470-2" class="cls-1" d="M107.1,96.4a.7.7,0,0,1-.8-.7h0a.7.7,0,0,1,.8-.8h0a.7.7,0,0,1,.7.8A.7.7,0,0,1,107.1,96.4Zm0-1c-.2,0-.3.1-.3.2h0a.3.3,0,0,0,.3.3h0c.1,0,.2-.1.2-.3h0l-.2-.2Z"/></g><g id="Group_1188-2" data-name="Group 1188-2"><circle id="Ellipse_1729-2" data-name="Ellipse 1729-2" class="cls-1" cx="118.4" cy="95.7" r="0.5"/><path id="Path_1471-2" data-name="Path 1471-2" class="cls-1" d="M118.4,96.4a.7.7,0,0,1-.8-.7.7.7,0,0,1,.8-.8.7.7,0,0,1,.7.8A.7.7,0,0,1,118.4,96.4Zm0-1c-.2,0-.3.1-.3.2a.3.3,0,0,0,.3.3c.1,0,.2-.1.2-.3l-.2-.2Z"/></g><g id="Group_1189-2" data-name="Group 1189-2"><circle id="Ellipse_1730-2" data-name="Ellipse 1730-2" class="cls-1" cx="129.7" cy="95.7" r="0.5"/><path id="Path_1472-2" data-name="Path 1472-2" class="cls-1" d="M129.7,96.4a.8.8,0,0,1-.8-.7.8.8,0,0,1,.8-.8.7.7,0,0,1,.7.8A.7.7,0,0,1,129.7,96.4Zm0-1c-.2,0-.3.1-.3.2h0a.3.3,0,0,0,.3.3h0c.1,0,.2-.1.2-.3a.2.2,0,0,0-.2-.2Z"/></g><g id="Group_1190-2" data-name="Group 1190-2"><circle id="Ellipse_1731-2" data-name="Ellipse 1731-2" class="cls-1" cx="141" cy="95.7" r="0.5"/><path id="Path_1473-2" data-name="Path 1473-2" class="cls-1" d="M141,96.4a.8.8,0,0,1-.8-.7.8.8,0,1,1,1.6,0A.8.8,0,0,1,141,96.4Zm0-1c-.2,0-.3.1-.3.2a.3.3,0,0,0,.3.3.3.3,0,0,0,.3-.3l-.3-.2Z"/></g><g id="Group_1191-2" data-name="Group 1191-2"><circle id="Ellipse_1732-2" data-name="Ellipse 1732-2" class="cls-1" cx="152.3" cy="95.7" r="0.5"/><path id="Path_1474-2" data-name="Path 1474-2" class="cls-1" d="M152.3,96.4a.8.8,0,0,1-.8-.7.8.8,0,0,1,1.6,0h0A.8.8,0,0,1,152.3,96.4Zm0-1-.3.2a.3.3,0,0,0,.3.3c.2,0,.3-.1.3-.2h0c0-.1-.1-.2-.3-.2Z"/></g><g id="Group_1192-2" data-name="Group 1192-2"><circle id="Ellipse_1733-2" data-name="Ellipse 1733-2" class="cls-1" cx="163.6" cy="95.7" r="0.5"/><path id="Path_1475-2" data-name="Path 1475-2" class="cls-1" d="M163.6,96.4a.7.7,0,0,1-.7-.7.7.7,0,0,1,.7-.8.8.8,0,0,1,.8.8A.8.8,0,0,1,163.6,96.4Zm0-1-.2.2c0,.2.1.3.2.3h0a.3.3,0,0,0,.3-.3c0-.1-.1-.2-.3-.2Z"/></g><g id="Group_1193-2" data-name="Group 1193-2"><circle id="Ellipse_1734-2" data-name="Ellipse 1734-2" class="cls-1" cx="73.1" cy="107" r="0.5"/><path id="Path_1476-2" data-name="Path 1476-2" class="cls-1" d="M73.1,107.7a.7.7,0,0,1-.7-.7h0a.8.8,0,0,1,.7-.8.9.9,0,0,1,.8.8.8.8,0,0,1-.8.7Zm0-1c-.1,0-.2.1-.2.3a.2.2,0,0,0,.2.2h0c.2,0,.3-.1.3-.2a.3.3,0,0,0-.3-.3Z"/></g><g id="Group_1194-2" data-name="Group 1194-2"><circle id="Ellipse_1735-2" data-name="Ellipse 1735-2" class="cls-1" cx="84.4" cy="107" r="0.5"/><path id="Path_1477-2" data-name="Path 1477-2" class="cls-1" d="M84.4,107.7a.7.7,0,0,1-.7-.7h0a.8.8,0,0,1,.7-.8.9.9,0,0,1,.8.8A.8.8,0,0,1,84.4,107.7Zm0-1c-.1,0-.2.1-.2.3a.2.2,0,0,0,.2.2c.2,0,.3-.1.3-.2a.3.3,0,0,0-.3-.3Z"/></g><g id="Group_1195-2" data-name="Group 1195-2"><circle id="Ellipse_1736-2" data-name="Ellipse 1736-2" class="cls-1" cx="95.7" cy="107" r="0.5"/><path id="Path_1478-2" data-name="Path 1478-2" class="cls-1" d="M95.7,107.7a.7.7,0,0,1-.7-.7h0a.8.8,0,0,1,.7-.8.8.8,0,0,1,.8.8A.7.7,0,0,1,95.7,107.7Zm0-1c-.1,0-.2.1-.2.3a.2.2,0,0,0,.2.2c.2,0,.3-.1.3-.2a.3.3,0,0,0-.3-.3Z"/></g><g id="Group_1196-2" data-name="Group 1196-2"><circle id="Ellipse_1737-2" data-name="Ellipse 1737-2" class="cls-1" cx="107.1" cy="107" r="0.5"/><path id="Path_1479-2" data-name="Path 1479-2" class="cls-1" d="M107.1,107.7a.7.7,0,0,1-.8-.7h0a.8.8,0,0,1,.8-.8.8.8,0,0,1,.7.8.7.7,0,0,1-.7.7Zm0-1a.3.3,0,0,0-.3.3c0,.1.1.2.3.2a.2.2,0,0,0,.2-.2c0-.2-.1-.3-.2-.3Z"/></g><g id="Group_1197-2" data-name="Group 1197-2"><circle id="Ellipse_1738-2" data-name="Ellipse 1738-2" class="cls-1" cx="118.4" cy="107" r="0.5"/><path id="Path_1480-2" data-name="Path 1480-2" class="cls-1" d="M118.4,107.7a.7.7,0,0,1-.8-.7.8.8,0,0,1,.8-.8.8.8,0,0,1,.7.8A.7.7,0,0,1,118.4,107.7Zm0-1a.3.3,0,0,0-.3.3c0,.1.1.2.3.2a.2.2,0,0,0,.2-.2c0-.2-.1-.3-.2-.3Z"/></g><g id="Group_1198-2" data-name="Group 1198-2"><circle id="Ellipse_1739-2" data-name="Ellipse 1739-2" class="cls-1" cx="129.7" cy="107" r="0.5"/><path id="Path_1481-2" data-name="Path 1481-2" class="cls-1" d="M129.7,107.7a.8.8,0,0,1-.8-.7h0a.9.9,0,0,1,.8-.8.8.8,0,0,1,.7.8A.7.7,0,0,1,129.7,107.7Zm0-1a.3.3,0,0,0-.3.3c0,.1.1.2.3.2a.2.2,0,0,0,.2-.2c0-.2-.1-.3-.2-.3Z"/></g><g id="Group_1199-2" data-name="Group 1199-2"><circle id="Ellipse_1740-2" data-name="Ellipse 1740-2" class="cls-1" cx="141" cy="107" r="0.5"/><path id="Path_1482-2" data-name="Path 1482-2" class="cls-1" d="M141,107.7a.8.8,0,0,1-.8-.7.8.8,0,1,1,1.6,0,.8.8,0,0,1-.8.7Zm0-1a.3.3,0,0,0-.3.3c0,.1.1.2.3.2l.3-.2a.3.3,0,0,0-.3-.3Z"/></g><g id="Group_1200-2" data-name="Group 1200-2"><circle id="Ellipse_1741-2" data-name="Ellipse 1741-2" class="cls-1" cx="152.3" cy="107" r="0.5"/><path id="Path_1483-2" data-name="Path 1483-2" class="cls-1" d="M152.3,107.7a.8.8,0,0,1-.8-.7.8.8,0,1,1,1.6,0,.8.8,0,0,1-.8.7Zm0-1a.3.3,0,0,0-.3.3l.3.2c.2,0,.3-.1.3-.2a.3.3,0,0,0-.3-.3Z"/></g><g id="Group_1201-2" data-name="Group 1201-2"><circle id="Ellipse_1742-2" data-name="Ellipse 1742-2" class="cls-1" cx="163.6" cy="107" r="0.5"/><path id="Path_1484-2" data-name="Path 1484-2" class="cls-1" d="M163.6,107.7a.7.7,0,0,1-.7-.7h0a.8.8,0,0,1,.7-.8.9.9,0,0,1,.8.8A.8.8,0,0,1,163.6,107.7Zm0-1c-.1,0-.2.1-.2.3a.2.2,0,0,0,.2.2c.2,0,.3-.1.3-.2a.3.3,0,0,0-.3-.3Z"/></g><g id="Group_1202-2" data-name="Group 1202-2"><circle id="Ellipse_1743-2" data-name="Ellipse 1743-2" class="cls-1" cx="73.1" cy="118.3" r="0.5"/><path id="Path_1485-2" data-name="Path 1485-2" class="cls-1" d="M73.1,119.1a.8.8,0,0,1-.7-.8.7.7,0,0,1,.7-.7.8.8,0,0,1,.8.7A.9.9,0,0,1,73.1,119.1Zm0-1-.2.2c0,.2.1.3.2.3a.3.3,0,0,0,.3-.3c0-.1-.1-.2-.3-.2Z"/></g><g id="Group_1203-2" data-name="Group 1203-2"><circle id="Ellipse_1744-2" data-name="Ellipse 1744-2" class="cls-1" cx="84.4" cy="118.3" r="0.5"/><path id="Path_1486-2" data-name="Path 1486-2" class="cls-1" d="M84.4,119.1a.8.8,0,0,1-.7-.8.7.7,0,0,1,.7-.7.8.8,0,0,1,.8.7A.9.9,0,0,1,84.4,119.1Zm0-1a.2.2,0,0,0-.2.2c0,.2.1.3.2.3a.3.3,0,0,0,.3-.3c0-.1-.1-.2-.3-.2Z"/></g><g id="Group_1204-2" data-name="Group 1204-2"><circle id="Ellipse_1745-2" data-name="Ellipse 1745-2" class="cls-1" cx="95.7" cy="118.3" r="0.5"/><path id="Path_1487-2" data-name="Path 1487-2" class="cls-1" d="M95.7,119.1a.8.8,0,0,1-.7-.8.7.7,0,0,1,.7-.7.7.7,0,0,1,.8.7A.8.8,0,0,1,95.7,119.1Zm0-1a.2.2,0,0,0-.2.2c0,.2.1.3.2.3a.3.3,0,0,0,.3-.3c0-.1-.1-.2-.3-.2Z"/></g><g id="Group_1205-2" data-name="Group 1205-2"><circle id="Ellipse_1746-2" data-name="Ellipse 1746-2" class="cls-1" cx="107.1" cy="118.3" r="0.5"/><path id="Path_1488-2" data-name="Path 1488-2" class="cls-1" d="M107.1,119.1a.8.8,0,0,1-.8-.8.7.7,0,0,1,.8-.7.7.7,0,0,1,.7.7A.8.8,0,0,1,107.1,119.1Zm0-1c-.2,0-.3.1-.3.2a.3.3,0,0,0,.3.3c.1,0,.2-.1.2-.3a.2.2,0,0,0-.2-.2Z"/></g><g id="Group_1206-2" data-name="Group 1206-2"><circle id="Ellipse_1747-2" data-name="Ellipse 1747-2" class="cls-1" cx="118.4" cy="118.3" r="0.5"/><path id="Path_1489-2" data-name="Path 1489-2" class="cls-1" d="M118.4,119.1a.8.8,0,0,1-.8-.8.7.7,0,0,1,.8-.7.7.7,0,0,1,.7.7A.8.8,0,0,1,118.4,119.1Zm0-1c-.2,0-.3.1-.3.2a.3.3,0,0,0,.3.3c.1,0,.2-.1.2-.3l-.2-.2Z"/></g><g id="Group_1207-2" data-name="Group 1207-2"><circle id="Ellipse_1748-2" data-name="Ellipse 1748-2" class="cls-1" cx="129.7" cy="118.3" r="0.5"/><path id="Path_1490-2" data-name="Path 1490-2" class="cls-1" d="M129.7,119.1a.9.9,0,0,1-.8-.8.8.8,0,0,1,.8-.7.7.7,0,0,1,.7.7A.8.8,0,0,1,129.7,119.1Zm0-1c-.2,0-.3.1-.3.2a.3.3,0,0,0,.3.3c.1,0,.2-.1.2-.3a.2.2,0,0,0-.2-.2Z"/></g><g id="Group_1208-2" data-name="Group 1208-2"><circle id="Ellipse_1749-2" data-name="Ellipse 1749-2" class="cls-1" cx="141" cy="118.3" r="0.5"/><path id="Path_1491-2" data-name="Path 1491-2" class="cls-1" d="M141,119.1a.9.9,0,0,1-.8-.8.8.8,0,0,1,1.6,0A.9.9,0,0,1,141,119.1Zm0-1c-.2,0-.3.1-.3.2a.3.3,0,0,0,.3.3.3.3,0,0,0,.3-.3l-.3-.2Z"/></g><g id="Group_1209-2" data-name="Group 1209-2"><circle id="Ellipse_1750-2" data-name="Ellipse 1750-2" class="cls-1" cx="152.3" cy="118.3" r="0.5"/><path id="Path_1492-2" data-name="Path 1492-2" class="cls-1" d="M152.3,119.1a.9.9,0,0,1-.8-.8.8.8,0,0,1,1.6,0A.9.9,0,0,1,152.3,119.1Zm0-1-.3.2a.3.3,0,0,0,.3.3.3.3,0,0,0,.3-.3c0-.1-.1-.2-.3-.2Z"/></g><g id="Group_1210-2" data-name="Group 1210-2"><circle id="Ellipse_1751-2" data-name="Ellipse 1751-2" class="cls-1" cx="73.1" cy="129.7" r="0.5"/><path id="Path_1493-2" data-name="Path 1493-2" class="cls-1" d="M73.1,130.4a.7.7,0,0,1-.7-.7h0a.7.7,0,0,1,.7-.8h0a.8.8,0,0,1,.8.8A.8.8,0,0,1,73.1,130.4Zm0-1c-.1,0-.2.1-.2.3a.2.2,0,0,0,.2.2h0c.2,0,.3-.1.3-.2h0a.3.3,0,0,0-.3-.3Z"/></g><g id="Group_1211-2" data-name="Group 1211-2"><circle id="Ellipse_1752-2" data-name="Ellipse 1752-2" class="cls-1" cx="84.4" cy="129.7" r="0.5"/><path id="Path_1494-2" data-name="Path 1494-2" class="cls-1" d="M84.4,130.4a.7.7,0,0,1-.7-.7.7.7,0,0,1,.7-.8.8.8,0,0,1,.8.8A.8.8,0,0,1,84.4,130.4Zm0-1c-.1,0-.2.1-.2.3a.2.2,0,0,0,.2.2c.2,0,.3-.1.3-.2a.3.3,0,0,0-.3-.3Z"/></g><g id="Group_1212-2" data-name="Group 1212-2"><circle id="Ellipse_1753-2" data-name="Ellipse 1753-2" class="cls-1" cx="95.7" cy="129.7" r="0.5"/><path id="Path_1495-2" data-name="Path 1495-2" class="cls-1" d="M95.7,130.4a.7.7,0,0,1-.7-.7.7.7,0,0,1,.7-.8.7.7,0,0,1,.8.8A.7.7,0,0,1,95.7,130.4Zm0-1c-.1,0-.2.1-.2.3a.2.2,0,0,0,.2.2c.2,0,.3-.1.3-.2a.3.3,0,0,0-.3-.3Z"/></g><g id="Group_1213-2" data-name="Group 1213-2"><circle id="Ellipse_1754-2" data-name="Ellipse 1754-2" class="cls-1" cx="107.1" cy="129.7" r="0.5"/><path id="Path_1496-2" data-name="Path 1496-2" class="cls-1" d="M107.1,130.4a.7.7,0,0,1-.8-.7h0a.7.7,0,0,1,.8-.8h0a.7.7,0,0,1,.7.8A.7.7,0,0,1,107.1,130.4Zm0-1a.3.3,0,0,0-.3.3c0,.1.1.2.3.2h0a.2.2,0,0,0,.2-.2h0c0-.2-.1-.3-.2-.3Z"/></g><g id="Group_1214-2" data-name="Group 1214-2"><circle id="Ellipse_1755-2" data-name="Ellipse 1755-2" class="cls-1" cx="118.4" cy="129.7" r="0.5"/><path id="Path_1497-2" data-name="Path 1497-2" class="cls-1" d="M118.4,130.4a.7.7,0,0,1-.8-.7.7.7,0,0,1,.8-.8.7.7,0,0,1,.7.8A.7.7,0,0,1,118.4,130.4Zm0-1a.3.3,0,0,0-.3.3c0,.1.1.2.3.2a.2.2,0,0,0,.2-.2c0-.2-.1-.3-.2-.3Z"/></g><g id="Group_1215-2" data-name="Group 1215-2"><circle id="Ellipse_1756-2" data-name="Ellipse 1756-2" class="cls-1" cx="141" cy="129.7" r="0.5"/><path id="Path_1498-2" data-name="Path 1498-2" class="cls-1" d="M141,130.4a.8.8,0,0,1-.8-.7.8.8,0,1,1,1.6,0A.8.8,0,0,1,141,130.4Zm0-1a.3.3,0,0,0-.3.3c0,.1.1.2.3.2s.3-.1.3-.2h0a.3.3,0,0,0-.3-.3Z"/></g><g id="Group_1216-2" data-name="Group 1216-2"><circle id="Ellipse_1757-2" data-name="Ellipse 1757-2" class="cls-1" cx="73.1" cy="141" r="0.5"/><path id="Path_1499-2" data-name="Path 1499-2" class="cls-1" d="M73.1,141.7a.7.7,0,0,1-.7-.7.8.8,0,0,1,.7-.8.9.9,0,0,1,.8.8A.8.8,0,0,1,73.1,141.7Zm0-1c-.1,0-.2.1-.2.3l.2.2c.2,0,.3-.1.3-.2a.3.3,0,0,0-.3-.3Z"/></g><g id="Group_1217-2" data-name="Group 1217-2"><circle id="Ellipse_1758-2" data-name="Ellipse 1758-2" class="cls-1" cx="95.7" cy="141" r="0.5"/><path id="Path_1500-2" data-name="Path 1500-2" class="cls-1" d="M95.7,141.7a.7.7,0,0,1-.7-.7.8.8,0,0,1,.7-.8.8.8,0,0,1,.8.8A.7.7,0,0,1,95.7,141.7Zm0-1c-.1,0-.2.1-.2.3l.2.2c.2,0,.3-.1.3-.2a.3.3,0,0,0-.3-.3Z"/></g><g id="Group_1218-2" data-name="Group 1218-2"><circle id="Ellipse_1759-2" data-name="Ellipse 1759-2" class="cls-1" cx="107.1" cy="141" r="0.5"/><path id="Path_1501-2" data-name="Path 1501-2" class="cls-1" d="M107.1,141.7a.7.7,0,0,1-.8-.7.8.8,0,0,1,.8-.8.8.8,0,0,1,.7.8A.7.7,0,0,1,107.1,141.7Zm0-1a.3.3,0,0,0-.3.3c0,.1.1.2.3.2l.2-.2c0-.2-.1-.3-.2-.3Z"/></g><g id="Group_1219-2" data-name="Group 1219-2"><circle id="Ellipse_1760-2" data-name="Ellipse 1760-2" class="cls-1" cx="73.1" cy="152.3" r="0.5"/><path id="Path_1502-2" data-name="Path 1502-2" class="cls-1" d="M73.1,153.1a.8.8,0,0,1-.7-.8.7.7,0,0,1,.7-.7h0a.8.8,0,0,1,.8.7h0A.9.9,0,0,1,73.1,153.1Zm0-1a.2.2,0,0,0-.2.2h0c0,.2.1.3.2.3a.3.3,0,0,0,.3-.3c0-.1-.1-.2-.3-.2Z"/></g><g id="Group_1220-2" data-name="Group 1220-2"><circle id="Ellipse_1761-2" data-name="Ellipse 1761-2" class="cls-1" cx="73.1" cy="27.6" r="0.5"/><path id="Path_1503-2" data-name="Path 1503-2" class="cls-1" d="M73.1,28.4a.7.7,0,0,1-.7-.8h0a.7.7,0,0,1,.7-.7h0a.8.8,0,0,1,.8.7A.8.8,0,0,1,73.1,28.4Zm0-1a.2.2,0,0,0-.2.2h0c0,.2.1.3.2.3h0a.3.3,0,0,0,.3-.3h0c0-.1-.1-.2-.3-.2Z"/></g><g id="Group_1221-2" data-name="Group 1221-2"><circle id="Ellipse_1762-2" data-name="Ellipse 1762-2" class="cls-1" cx="84.4" cy="27.6" r="0.5"/><path id="Path_1504-2" data-name="Path 1504-2" class="cls-1" d="M84.4,28.4a.7.7,0,0,1-.7-.8.7.7,0,0,1,.7-.7h0a.8.8,0,0,1,.8.7A.8.8,0,0,1,84.4,28.4Zm0-1a.2.2,0,0,0-.2.2c0,.2.1.3.2.3a.3.3,0,0,0,.3-.3c0-.1-.1-.2-.3-.2Z"/></g><g id="Group_1222-2" data-name="Group 1222-2"><circle id="Ellipse_1763-2" data-name="Ellipse 1763-2" class="cls-1" cx="95.7" cy="27.6" r="0.5"/><path id="Path_1505-2" data-name="Path 1505-2" class="cls-1" d="M95.7,28.4a.7.7,0,0,1-.7-.8.7.7,0,0,1,.7-.7h0a.7.7,0,0,1,.8.7A.7.7,0,0,1,95.7,28.4Zm0-1a.2.2,0,0,0-.2.2c0,.2.1.3.2.3a.3.3,0,0,0,.3-.3c0-.1-.1-.2-.3-.2Z"/></g><g id="Group_1223-2" data-name="Group 1223-2"><circle id="Ellipse_1764-2" data-name="Ellipse 1764-2" class="cls-1" cx="107.1" cy="27.6" r="0.5"/><path id="Path_1506-2" data-name="Path 1506-2" class="cls-1" d="M107.1,28.4a.7.7,0,0,1-.8-.8h0a.7.7,0,0,1,.8-.7h0a.7.7,0,0,1,.7.7h0A.7.7,0,0,1,107.1,28.4Zm0-1c-.2,0-.3.1-.3.2a.3.3,0,0,0,.3.3h0c.1,0,.2-.1.2-.3h0a.2.2,0,0,0-.2-.2Z"/></g><g id="Group_1224-2" data-name="Group 1224-2"><circle id="Ellipse_1765-2" data-name="Ellipse 1765-2" class="cls-1" cx="118.4" cy="27.6" r="0.5"/><path id="Path_1507-2" data-name="Path 1507-2" class="cls-1" d="M118.4,28.4a.7.7,0,0,1-.8-.8.7.7,0,0,1,.8-.7.7.7,0,0,1,.7.7A.7.7,0,0,1,118.4,28.4Zm0-1c-.2,0-.3.1-.3.2a.3.3,0,0,0,.3.3c.1,0,.2-.1.2-.3a.2.2,0,0,0-.2-.2Z"/></g><g id="Group_1225-2" data-name="Group 1225-2"><circle id="Ellipse_1766-2" data-name="Ellipse 1766-2" class="cls-1" cx="129.7" cy="27.6" r="0.5"/><path id="Path_1508-2" data-name="Path 1508-2" class="cls-1" d="M129.7,28.4a.8.8,0,0,1-.8-.8.8.8,0,0,1,.8-.7.7.7,0,0,1,.7.8A.7.7,0,0,1,129.7,28.4Zm0-1c-.2,0-.3.1-.3.2a.3.3,0,0,0,.3.3h0c.1,0,.2-.1.2-.3a.2.2,0,0,0-.2-.2Z"/></g><g id="Group_1226-2" data-name="Group 1226-2"><circle id="Ellipse_1767-2" data-name="Ellipse 1767-2" class="cls-1" cx="141" cy="27.6" r="0.5"/><path id="Path_1509-2" data-name="Path 1509-2" class="cls-1" d="M141,28.4a.8.8,0,0,1-.8-.8.8.8,0,0,1,.8-.7.8.8,0,0,1,.8.8A.8.8,0,0,1,141,28.4Zm0-1c-.2,0-.3.1-.3.2a.3.3,0,0,0,.3.3.3.3,0,0,0,.3-.3c0-.1-.2-.2-.3-.2Z"/></g><g id="Group_1227-2" data-name="Group 1227-2"><circle id="Ellipse_1768-2" data-name="Ellipse 1768-2" class="cls-1" cx="95.7" cy="16.3" r="0.5"/><path id="Path_1510-2" data-name="Path 1510-2" class="cls-1" d="M95.7,17.1a.8.8,0,0,1,0-1.6.8.8,0,0,1,0,1.6Zm0-1.1c-.1,0-.2.2-.2.3s.1.3.2.3a.3.3,0,0,0,.3-.3A.3.3,0,0,0,95.7,16Z"/></g><g id="Group_1228-2" data-name="Group 1228-2"><circle id="Ellipse_1769-2" data-name="Ellipse 1769-2" class="cls-1" cx="107.1" cy="16.3" r="0.5"/><path id="Path_1511-2" data-name="Path 1511-2" class="cls-1" d="M107.1,17.1a.8.8,0,1,1,0-1.6.8.8,0,0,1,0,1.6Zm0-1.1a.3.3,0,0,0-.3.3.3.3,0,0,0,.3.3c.1,0,.2-.1.2-.3S107.2,16,107.1,16Z"/></g><g id="Group_1229-2" data-name="Group 1229-2"><circle id="Ellipse_1770-2" data-name="Ellipse 1770-2" class="cls-1" cx="118.4" cy="16.3" r="0.5"/><path id="Path_1512-2" data-name="Path 1512-2" class="cls-1" d="M118.4,17.1a.8.8,0,0,1,0-1.6.8.8,0,0,1,0,1.6Zm0-1.1a.3.3,0,0,0-.3.3.3.3,0,0,0,.3.3c.1,0,.2-.1.2-.3S118.5,16,118.4,16Z"/></g><g id="Group_1230-2" data-name="Group 1230-2"><circle id="Ellipse_1771-2" data-name="Ellipse 1771-2" class="cls-1" cx="129.7" cy="16.3" r="0.5"/><path id="Path_1513-2" data-name="Path 1513-2" class="cls-1" d="M129.7,17.1a.8.8,0,0,1,0-1.6.8.8,0,0,1,0,1.6Zm0-1.1a.3.3,0,0,0-.3.3.3.3,0,0,0,.3.3c.1,0,.2-.1.2-.3S129.8,16,129.7,16Z"/></g><g id="Group_1231-2" data-name="Group 1231-2"><circle id="Ellipse_1772-2" data-name="Ellipse 1772-2" class="cls-1" cx="107.1" cy="5" r="0.5"/><path id="Path_1514-2" data-name="Path 1514-2" class="cls-1" d="M107.1,5.7a.7.7,0,0,1-.8-.7h0a.8.8,0,0,1,.8-.8.8.8,0,0,1,.7.8.7.7,0,0,1-.7.7Zm0-1a.3.3,0,0,0-.3.3c0,.1.1.2.3.2a.2.2,0,0,0,.2-.2c0-.2-.1-.3-.2-.3Z"/></g><g id="Group_1232-2" data-name="Group 1232-2"><circle id="Ellipse_1773-2" data-name="Ellipse 1773-2" class="cls-1" cx="118.4" cy="5" r="0.5"/><path id="Path_1515-2" data-name="Path 1515-2" class="cls-1" d="M118.4,5.7a.7.7,0,0,1-.8-.7.8.8,0,0,1,.8-.8.8.8,0,0,1,.7.8A.7.7,0,0,1,118.4,5.7Zm0-1a.3.3,0,0,0-.3.3c0,.1.1.2.3.2a.2.2,0,0,0,.2-.2c0-.2-.1-.3-.2-.3Z"/></g><g id="Group_1233-2" data-name="Group 1233-2"><circle id="Ellipse_1774-2" data-name="Ellipse 1774-2" class="cls-1" cx="73.1" cy="163.2" r="0.5"/><path id="Path_1516-2" data-name="Path 1516-2" class="cls-1" d="M73.1,164a.8.8,0,0,1,0-1.6.8.8,0,1,1,0,1.6Zm0-1.1c-.1,0-.2.2-.2.3h0c0,.1.1.3.2.3a.3.3,0,1,0,0-.6Z"/></g></g><g id="Group_1235-2" data-name="Group 1235-2"><path id="Path_1517-2" data-name="Path 1517-2" class="cls-1" d="M169.8,57.2a8.3,8.3,0,0,0-2.2-6L121.9,2.6h0a5.2,5.2,0,0,0-1.1-1,8,8,0,0,0-7.3-.8L95.4,6.9c-5.5,1.8-10.1,8.1-10.1,14v1.8l-5.6-6h0a5.2,5.2,0,0,0-1.1-1,8,8,0,0,0-7.3-.8L53.2,21c-5.5,1.8-10.1,8.1-10.1,14v2l-5.8-6.1h0l-1-.9a8,8,0,0,0-7.3-.8L.8,38.7.6,127.3A8.4,8.4,0,0,0,3,133.6l41.6,44.2h0l.4.4a6.9,6.9,0,0,0,5.1,2.1,11.3,11.3,0,0,0,3.1-.6l18-6c5.6-1.9,10.1-8.2,10.2-14.1l.2-23.9,9.6,10.2h.1a6.7,6.7,0,0,0,5,1.9,11.2,11.2,0,0,0,3.1-.5l18-6a15.9,15.9,0,0,0,10.1-14.1v-1.9l5.9,6.2v.2h0a7.4,7.4,0,0,0,5.1,2,10.6,10.6,0,0,0,3.1-.5l28.2-9.5Zm-3-5.2a7.2,7.2,0,0,1,1.8,5.2v64.6L123.9,74.3V8.4a16.4,16.4,0,0,0-.2-2.2ZM95.8,8l18.1-6a7.6,7.6,0,0,1,2.7-.5,6.3,6.3,0,0,1,3.5,1.1,6.8,6.8,0,0,1,2.6,5.8V74.1L95.4,83.3a6.9,6.9,0,0,1-6.3-.6,7.1,7.1,0,0,1-2.5-5.9V20.9A14.6,14.6,0,0,1,95.8,8ZM44.3,35a14.6,14.6,0,0,1,9.3-12.9l18.1-6a8.1,8.1,0,0,1,2.7-.5,6.1,6.1,0,0,1,3.5,1.1,6.8,6.8,0,0,1,2.6,5.8v56a14.6,14.6,0,0,1-9.3,12.9l-18,6A6.3,6.3,0,0,1,44.2,91ZM1.8,127.3,2,39.6l27.4-9.2a6.6,6.6,0,0,1,6.2.6,6.8,6.8,0,0,1,2.6,5.8l-.2,78a14.6,14.6,0,0,1-9.3,12.9l-18.1,6a6.6,6.6,0,0,1-6.2-.6A6.8,6.8,0,0,1,1.8,127.3Zm78.4,32.3c-.1,5.4-4.2,11.2-9.3,12.9l-18.1,6.1c-2.7.9-5.2.5-6.9-1.2L6.2,135.2a5,5,0,0,0,1.7.2,10.6,10.6,0,0,0,3.1-.5l18.1-6.1c5.5-1.8,10.1-8.1,10.1-14l.2-78a16.4,16.4,0,0,0-.2-2.2l3.9,4.2V91a8.4,8.4,0,0,0,2.5,6.3h0l34.9,37.1Zm46.1-32.3a14.4,14.4,0,0,1-9.3,12.9l-18,6.1c-2.7.9-5.2.5-6.8-1.1L48.7,98.9a4.4,4.4,0,0,0,1.6.2,10.6,10.6,0,0,0,3.1-.5l18.1-6.1c5.5-1.8,10.1-8.1,10.1-14v-56a18,18,0,0,0-.2-2.2l3.8,4.1V76.8a8.4,8.4,0,0,0,2.4,6.3l38.5,41Zm15,4.8c-2.8,1-5.3.5-7-1.3L91,84.8l1.7.2a8.5,8.5,0,0,0,3.1-.6l27.3-9.2,45.1,47.9Z"/><path id="Path_1518-2" data-name="Path 1518-2" class="cls-1" d="M50.1,180.5a7.4,7.4,0,0,1-5.3-2.1l-.6-.6h0L2.8,133.7a8.5,8.5,0,0,1-2.5-6.4L.6,38.5H.8L28.9,29a8.4,8.4,0,0,1,7.6.8l.8.7h0l.2.2,5.4,5.7V35c0-6,4.6-12.4,10.2-14.3l18.1-6a8.7,8.7,0,0,1,7.6.8l.9.9h.2L85.1,22V20.9c0-6,4.6-12.4,10.2-14.3l18.1-6a8.4,8.4,0,0,1,7.6.8l.9.9h.2L167.8,51a8.6,8.6,0,0,1,2.3,6.2V124h-.2l-28.1,9.5a11.3,11.3,0,0,1-3.2.5,7.2,7.2,0,0,1-5.2-2h-.2l-5.4-5.8v1.3a16.1,16.1,0,0,1-10.3,14.3l-18,6c-3.2,1.1-6.3.6-8.4-1.4H91l-9.2-9.8-.2,23.3a16.1,16.1,0,0,1-10.3,14.3l-18,6.1A11.9,11.9,0,0,1,50.1,180.5Zm-5.2-2.7.3.2c1.9,2,4.8,2.5,7.9,1.5l18.1-6.1c5.4-1.8,9.9-8,9.9-13.8l.2-24.5,10.2,10.7c1.9,1.9,4.8,2.4,7.8,1.4l18-6.1a15.5,15.5,0,0,0,10-13.8v-2.6l6.4,6.9a6.5,6.5,0,0,0,4.9,1.9,9.4,9.4,0,0,0,3-.5l28-9.4V57.2a8.3,8.3,0,0,0-2.1-5.8L121.9,2.9h0l-.2-.2-1-.9c-1.9-1.4-4.5-1.6-7.2-.7l-18,6c-5.5,1.8-9.9,8-9.9,13.8v2.4L79.7,17h-.2a9.4,9.4,0,0,0-1-1,7.6,7.6,0,0,0-7.1-.7l-18.1,6c-5.5,1.8-9.9,8-9.9,13.8v2.7L37.1,31l-.9-.8a7.6,7.6,0,0,0-7.1-.7l-28,9.4L.8,127.3a8.1,8.1,0,0,0,2.4,6.1l41.7,44.4Zm5.2,1.5a6.6,6.6,0,0,1-4.4-1.7L5.5,134.8l.8.2a8.1,8.1,0,0,0,4.6-.4l18.1-6c5.4-1.8,9.9-8,9.9-13.8l.3-78a7.6,7.6,0,0,0-.3-2.1v-.9l4.6,4.9h0V91a8.2,8.2,0,0,0,2.3,6.1l.3.2h-.1l34.9,37-.3,25.3c0,5.5-4.3,11.4-9.5,13.2l-18,6a9.2,9.2,0,0,1-2.8.5ZM6.9,135.6l39.2,41.6c1.6,1.6,4,2,6.6,1.1l18.1-6a14.4,14.4,0,0,0,9.1-12.7h0l.3-25.1L45.3,97.4A8.5,8.5,0,0,1,42.8,91V38.9l-3.3-3.5c0,.5.1,1,.1,1.4l-.3,78a16.1,16.1,0,0,1-10.3,14.3l-18,6a8.6,8.6,0,0,1-4.2.5ZM96.3,147a6.1,6.1,0,0,1-4.3-1.7L47.9,98.5l.8.2a8.4,8.4,0,0,0,4.7-.4l18-6c5.5-1.8,9.9-8,10-13.8v-56a7.6,7.6,0,0,0-.3-2.1v-.9l4.5,4.8h0V76.8A7.8,7.8,0,0,0,88,82.9L126.6,124v3.3c0,5.5-4.3,11.4-9.5,13.2l-18,6A9.2,9.2,0,0,1,96.3,147ZM49.4,99.3,92.3,145c1.6,1.5,4,1.9,6.6,1l18.1-6a14.4,14.4,0,0,0,9.1-12.7v-3.1L87.6,83.3a8.7,8.7,0,0,1-2.5-6.5V24.5l-3.2-3.4c0,.5.1,1,.1,1.4l-.2,56c0,6-4.6,12.4-10.2,14.3l-18.1,6A8.2,8.2,0,0,1,49.4,99.3ZM7.9,134.5a6.3,6.3,0,0,1-3.7-1.2,7.2,7.2,0,0,1-2.7-6l.3-87.9H2l27.3-9.2a7,7,0,0,1,6.5.7,7.2,7.2,0,0,1,2.7,6l-.3,78c0,5.5-4.2,11.4-9.4,13.1L10.7,134a8.7,8.7,0,0,1-2.8.5ZM2.3,39.8,2,127.3a6.5,6.5,0,0,0,2.5,5.6c1.6,1.2,3.7,1.4,6.1.6l18-6a14.4,14.4,0,0,0,9.1-12.7l.3-78a6.8,6.8,0,0,0-2.5-5.6c-1.6-1.2-3.7-1.4-6.1-.6Zm136.3,93a5.9,5.9,0,0,1-4.5-1.8L90.3,84.4h.8a9,9,0,0,0,4.6-.3l27.5-9.3v.2l45.3,48.1h-.3l-26.9,9.1a8.6,8.6,0,0,1-2.8.4ZM91.7,85.2l42.8,45.4c1.6,1.7,4.1,2.2,6.8,1.3l26.4-8.9L123.1,75.5,95.9,84.7a12.1,12.1,0,0,1-4.2.5Zm77.2,37.3L123.7,74.4h0V8.4a5,5,0,0,0-.2-2.1l-.2-.9L167,51.9a7.4,7.4,0,0,1,1.9,5.3ZM124.2,74.2l44.2,47v-64a7.2,7.2,0,0,0-1.8-5h0L124.1,7V74.2Zm-73.9,24A5.8,5.8,0,0,1,46.7,97c-1.8-1.2-2.7-3.4-2.7-6V35c0-5.5,4.2-11.4,9.4-13.1l18.1-6.1a7.3,7.3,0,0,1,6.5.7,7.3,7.3,0,0,1,2.7,6v56c-.1,5.5-4.3,11.4-9.5,13.1L53.1,97.7a8.7,8.7,0,0,1-2.8.5ZM44.6,35V91c0,2.5.8,4.5,2.4,5.6a6.4,6.4,0,0,0,6.1.6l18-6c5-1.7,9.1-7.4,9.2-12.7v-56a6.8,6.8,0,0,0-2.5-5.6,6.7,6.7,0,0,0-6.1-.6l-18,6.1c-5,1.6-9.1,7.3-9.1,12.6ZM92.7,84A7,7,0,0,1,89,82.9a7.4,7.4,0,0,1-2.7-6.1V20.9c0-5.5,4.2-11.4,9.4-13.1h0l18.1-6.1a7.3,7.3,0,0,1,6.5.7,7.2,7.2,0,0,1,2.7,6V74.3h-.2L95.5,83.5a9.2,9.2,0,0,1-2.8.5ZM95.9,8.2a14.4,14.4,0,0,0-9.1,12.7V76.8a6.1,6.1,0,0,0,8.5,6.3l27.2-9.2V8.4A6.6,6.6,0,0,0,120,2.8a6.4,6.4,0,0,0-6.1-.6Z"/></g></g></g></svg>