<svg width="544" height="477" viewBox="0 0 544 477" fill="none" xmlns="http://www.w3.org/2000/svg">
<path d="M245.339 16.128C247.739 16.128 249.467 14.928 249.467 12.88C249.467 8.608 243.083 10.416 243.083 7.696C243.083 6.752 243.899 6.144 245.243 6.144C246.619 6.144 247.515 6.896 247.627 8.048H249.243C249.099 6 247.531 4.672 245.243 4.672C242.987 4.672 241.419 5.904 241.419 7.696C241.419 11.824 247.771 10.208 247.771 12.896C247.771 14.112 246.747 14.656 245.339 14.656C243.755 14.656 242.811 13.728 242.683 12.288H241.067C241.195 14.608 242.811 16.128 245.339 16.128ZM251.897 5.408V7.936H250.249V9.28H251.897V13.36C251.897 15.008 252.937 16 254.569 16H255.833V14.656H254.697C253.913 14.656 253.449 14.176 253.449 13.312V9.28H255.833V7.936H253.449V5.408H251.897ZM261.828 9.28V7.936H260.852C259.716 7.936 259.076 8.416 258.708 9.488V7.936H257.156V16H258.708V12.352C258.708 10.592 259.188 9.28 260.66 9.28H261.828ZM266.012 7.808C264.108 7.808 262.668 8.992 262.54 10.576H263.98C264.028 9.76 264.844 9.056 265.964 9.056C267.212 9.056 267.916 9.728 267.916 10.704C267.916 10.992 267.74 11.184 267.372 11.184H265.692C263.788 11.184 262.556 12.144 262.556 13.696C262.556 15.136 263.644 16.128 265.292 16.128C266.508 16.128 267.532 15.552 267.916 14.688V16H269.468V10.8C269.468 9.008 268.092 7.808 266.012 7.808ZM265.596 14.896C264.7 14.896 264.092 14.4 264.092 13.664C264.092 12.816 264.78 12.272 265.836 12.272H267.916V12.464C267.916 13.952 267.068 14.896 265.596 14.896ZM272.115 5.408V7.936H270.467V9.28H272.115V13.36C272.115 15.008 273.155 16 274.787 16H276.051V14.656H274.915C274.131 14.656 273.667 14.176 273.667 13.312V9.28H276.051V7.936H273.667V5.408H272.115ZM282.947 13.376C282.723 14.288 281.955 14.8 280.771 14.8C279.363 14.8 278.371 13.76 278.243 12.24H284.403C284.419 12.096 284.435 11.84 284.435 11.632C284.435 9.584 283.107 7.808 280.611 7.808C278.131 7.808 276.723 9.664 276.723 11.92C276.723 14.16 278.275 16.128 280.771 16.128C282.755 16.128 284.211 15.04 284.499 13.376H282.947ZM280.611 9.056C281.939 9.056 282.771 9.872 282.867 11.104H278.291C278.531 9.76 279.347 9.056 280.611 9.056ZM292.047 7.936V9.008C291.551 8.304 290.559 7.808 289.487 7.808C287.023 7.808 285.631 9.568 285.631 11.968C285.631 14.368 287.023 16.128 289.503 16.128C290.639 16.128 291.663 15.664 292.047 14.976V16.288C292.047 17.264 291.375 17.968 290.447 17.968H286.719V19.264H290.607C292.367 19.264 293.599 18.08 293.599 16.384V7.936H292.047ZM289.679 14.768C288.191 14.768 287.215 13.664 287.215 11.968C287.215 10.272 288.191 9.168 289.679 9.168C291.183 9.168 292.159 10.272 292.159 11.968C292.159 13.664 291.183 14.768 289.679 14.768ZM302.264 7.936H300.664L298.536 13.984L296.424 7.936H294.824L297.816 16.08L296.728 19.264H298.216L299.432 15.712L302.264 7.936ZM236.978 36L234.882 33.712L235.298 33.024C235.602 32.528 236.146 32.096 236.834 32.096V30.624C236.018 30.624 235.266 30.784 234.546 31.936L233.97 32.72L231.826 30.368C233.026 29.744 234.146 28.944 234.146 27.296C234.146 25.744 232.962 24.672 231.266 24.672C229.554 24.672 228.37 25.776 228.37 27.392C228.37 28.24 228.946 29.104 229.634 29.888C228.45 30.512 227.378 31.312 227.378 32.928C227.378 34.928 228.786 36.128 230.946 36.128C232.082 36.128 233.218 35.744 234.114 34.784L235.234 36H236.978ZM229.81 27.376C229.81 26.512 230.402 25.904 231.266 25.904C232.13 25.904 232.722 26.464 232.722 27.28C232.722 28.256 231.874 28.784 230.85 29.28C230.354 28.704 229.81 28 229.81 27.376ZM230.946 34.752C229.65 34.752 228.882 34.08 228.882 32.944C228.882 31.984 229.65 31.456 230.61 30.96L233.186 33.776C232.498 34.512 231.666 34.752 230.946 34.752ZM242.199 36H243.863V24.8H242.199V36ZM245.992 36H247.544V31.632C247.544 30.224 248.44 29.2 249.704 29.2C250.84 29.2 251.592 30.064 251.592 31.344V36H253.144V31.04C253.144 29.12 251.96 27.808 250.136 27.808C248.936 27.808 247.976 28.352 247.544 29.36V27.936H245.992V36ZM255.133 36H256.685V31.632C256.685 30.224 257.581 29.2 258.845 29.2C259.981 29.2 260.733 30.064 260.733 31.344V36H262.285V31.04C262.285 29.12 261.101 27.808 259.277 27.808C258.077 27.808 257.117 28.352 256.685 29.36V27.936H255.133V36ZM267.969 36.128C270.385 36.128 272.113 34.384 272.113 31.968C272.113 29.552 270.385 27.808 267.969 27.808C265.553 27.808 263.809 29.552 263.809 31.968C263.809 34.384 265.553 36.128 267.969 36.128ZM267.969 34.768C266.433 34.768 265.393 33.616 265.393 31.968C265.393 30.32 266.433 29.168 267.969 29.168C269.489 29.168 270.529 30.32 270.529 31.968C270.529 33.616 269.489 34.768 267.969 34.768ZM275.495 36H277.031L279.975 27.936H278.375L276.247 34.048L274.135 27.936H272.535L275.495 36ZM284.019 27.808C282.115 27.808 280.675 28.992 280.547 30.576H281.987C282.035 29.76 282.851 29.056 283.971 29.056C285.219 29.056 285.923 29.728 285.923 30.704C285.923 30.992 285.747 31.184 285.379 31.184H283.699C281.795 31.184 280.563 32.144 280.563 33.696C280.563 35.136 281.651 36.128 283.299 36.128C284.515 36.128 285.539 35.552 285.923 34.688V36H287.475V30.8C287.475 29.008 286.099 27.808 284.019 27.808ZM283.603 34.896C282.707 34.896 282.099 34.4 282.099 33.664C282.099 32.816 282.787 32.272 283.843 32.272H285.923V32.464C285.923 33.952 285.075 34.896 283.603 34.896ZM290.123 25.408V27.936H288.475V29.28H290.123V33.36C290.123 35.008 291.163 36 292.795 36H294.059V34.656H292.923C292.139 34.656 291.675 34.176 291.675 33.312V29.28H294.059V27.936H291.675V25.408H290.123ZM295.287 24.56V26.512H297.015V24.56H295.287ZM295.383 36H296.935V27.936H295.383V36ZM302.594 36.128C305.01 36.128 306.738 34.384 306.738 31.968C306.738 29.552 305.01 27.808 302.594 27.808C300.178 27.808 298.434 29.552 298.434 31.968C298.434 34.384 300.178 36.128 302.594 36.128ZM302.594 34.768C301.058 34.768 300.018 33.616 300.018 31.968C300.018 30.32 301.058 29.168 302.594 29.168C304.114 29.168 305.154 30.32 305.154 31.968C305.154 33.616 304.114 34.768 302.594 34.768ZM308.258 36H309.81V31.632C309.81 30.224 310.706 29.2 311.97 29.2C313.106 29.2 313.858 30.064 313.858 31.344V36H315.41V31.04C315.41 29.12 314.226 27.808 312.402 27.808C311.202 27.808 310.242 28.352 309.81 29.36V27.936H308.258V36Z" fill="#021D49"/>
<path d="M448.784 138H453.136C455.456 138 456.896 136.752 456.896 134.72C456.896 133.184 456.048 132.272 454.944 131.872C455.664 131.552 456.384 130.72 456.384 129.68C456.384 127.84 455.024 126.8 452.928 126.8H448.784V138ZM450.432 131.328V128.192H452.832C454.096 128.192 454.768 128.736 454.768 129.76C454.768 130.8 454.096 131.328 452.848 131.328H450.432ZM450.432 136.528V132.784H452.912C454.48 132.784 455.248 133.44 455.248 134.656C455.248 135.872 454.48 136.528 452.912 136.528H450.432ZM463.187 131.28V129.936H462.211C461.075 129.936 460.435 130.416 460.067 131.488V129.936H458.515V138H460.067V134.352C460.067 132.592 460.547 131.28 462.019 131.28H463.187ZM467.371 129.808C465.467 129.808 464.027 130.992 463.899 132.576H465.339C465.387 131.76 466.203 131.056 467.323 131.056C468.571 131.056 469.275 131.728 469.275 132.704C469.275 132.992 469.099 133.184 468.731 133.184H467.051C465.147 133.184 463.915 134.144 463.915 135.696C463.915 137.136 465.003 138.128 466.651 138.128C467.867 138.128 468.891 137.552 469.275 136.688V138H470.827V132.8C470.827 131.008 469.451 129.808 467.371 129.808ZM466.955 136.896C466.059 136.896 465.451 136.4 465.451 135.664C465.451 134.816 466.139 134.272 467.195 134.272H469.275V134.464C469.275 135.952 468.427 136.896 466.955 136.896ZM472.625 138H474.177V133.632C474.177 132.224 475.073 131.2 476.337 131.2C477.473 131.2 478.225 132.064 478.225 133.344V138H479.777V133.04C479.777 131.12 478.593 129.808 476.769 129.808C475.569 129.808 474.609 130.352 474.177 131.36V129.936H472.625V138ZM485.173 138.128C486.245 138.128 487.237 137.6 487.717 136.8V138H489.269V126.56H487.717V131.12C487.237 130.336 486.261 129.808 485.157 129.808C482.693 129.808 481.301 131.568 481.301 133.968C481.301 136.368 482.693 138.128 485.173 138.128ZM485.349 136.768C483.861 136.768 482.885 135.648 482.885 133.968C482.885 132.288 483.861 131.168 485.349 131.168C486.853 131.168 487.829 132.288 487.829 133.968C487.829 135.648 486.853 136.768 485.349 136.768ZM495.144 138H498.584C501.704 138 504.232 136.048 504.232 132.4C504.232 128.752 501.704 126.8 498.584 126.8H495.144V138ZM496.808 136.528V128.272H498.488C500.568 128.272 502.52 129.44 502.52 132.4C502.52 135.36 500.568 136.528 498.488 136.528H496.808ZM511.604 135.376C511.38 136.288 510.612 136.8 509.428 136.8C508.02 136.8 507.028 135.76 506.9 134.24H513.06C513.076 134.096 513.092 133.84 513.092 133.632C513.092 131.584 511.764 129.808 509.268 129.808C506.788 129.808 505.38 131.664 505.38 133.92C505.38 136.16 506.932 138.128 509.428 138.128C511.412 138.128 512.868 137.04 513.156 135.376H511.604ZM509.268 131.056C510.596 131.056 511.428 131.872 511.524 133.104H506.948C507.188 131.76 508.004 131.056 509.268 131.056ZM517.426 138.128C519.25 138.128 520.45 137.184 520.45 135.712C520.45 132.032 515.842 134.08 515.842 132.08C515.842 131.456 516.402 131.04 517.234 131.04C517.922 131.04 518.818 131.408 518.93 132.336H520.386C520.306 130.816 519.058 129.808 517.234 129.808C515.554 129.808 514.37 130.736 514.37 132.128C514.37 135.568 518.946 133.6 518.946 135.744C518.946 136.336 518.354 136.832 517.426 136.832C516.386 136.832 515.714 136.304 515.618 135.376H514.162C514.274 137.072 515.538 138.128 517.426 138.128ZM521.966 126.56V128.512H523.694V126.56H521.966ZM522.062 138H523.614V129.936H522.062V138ZM531.61 129.936V131.008C531.114 130.304 530.122 129.808 529.05 129.808C526.586 129.808 525.194 131.568 525.194 133.968C525.194 136.368 526.586 138.128 529.066 138.128C530.202 138.128 531.226 137.664 531.61 136.976V138.288C531.61 139.264 530.938 139.968 530.01 139.968H526.282V141.264H530.17C531.93 141.264 533.162 140.08 533.162 138.384V129.936H531.61ZM529.242 136.768C527.754 136.768 526.778 135.664 526.778 133.968C526.778 132.272 527.754 131.168 529.242 131.168C530.746 131.168 531.722 132.272 531.722 133.968C531.722 135.664 530.746 136.768 529.242 136.768ZM535.203 138H536.755V133.632C536.755 132.224 537.651 131.2 538.915 131.2C540.051 131.2 540.803 132.064 540.803 133.344V138H542.355V133.04C542.355 131.12 541.171 129.808 539.347 129.808C538.147 129.808 537.187 130.352 536.755 131.36V129.936H535.203V138ZM468.876 158L466.78 155.712L467.196 155.024C467.5 154.528 468.044 154.096 468.732 154.096V152.624C467.916 152.624 467.164 152.784 466.444 153.936L465.868 154.72L463.724 152.368C464.924 151.744 466.044 150.944 466.044 149.296C466.044 147.744 464.86 146.672 463.164 146.672C461.452 146.672 460.268 147.776 460.268 149.392C460.268 150.24 460.844 151.104 461.532 151.888C460.348 152.512 459.276 153.312 459.276 154.928C459.276 156.928 460.684 158.128 462.844 158.128C463.98 158.128 465.116 157.744 466.012 156.784L467.132 158H468.876ZM461.708 149.376C461.708 148.512 462.3 147.904 463.164 147.904C464.028 147.904 464.62 148.464 464.62 149.28C464.62 150.256 463.772 150.784 462.748 151.28C462.252 150.704 461.708 150 461.708 149.376ZM462.844 156.752C461.548 156.752 460.78 156.08 460.78 154.944C460.78 153.984 461.548 153.456 462.508 152.96L465.084 155.776C464.396 156.512 463.564 156.752 462.844 156.752ZM479.057 158.128C481.649 158.128 483.649 156.592 483.889 154.4H482.209C482.033 155.712 480.705 156.656 479.041 156.656C476.865 156.656 475.297 155.168 475.297 152.4C475.297 149.632 476.865 148.144 479.041 148.144C480.673 148.144 481.985 149.088 482.177 150.4H483.921C483.617 148.208 481.601 146.672 479.057 146.672C476.209 146.672 473.585 148.56 473.585 152.4C473.585 156.24 476.177 158.128 479.057 158.128ZM489.102 158.128C491.518 158.128 493.246 156.384 493.246 153.968C493.246 151.552 491.518 149.808 489.102 149.808C486.686 149.808 484.942 151.552 484.942 153.968C484.942 156.384 486.686 158.128 489.102 158.128ZM489.102 156.768C487.566 156.768 486.526 155.616 486.526 153.968C486.526 152.32 487.566 151.168 489.102 151.168C490.622 151.168 491.662 152.32 491.662 153.968C491.662 155.616 490.622 156.768 489.102 156.768ZM494.765 158H496.317V153.632C496.317 152.224 497.213 151.2 498.477 151.2C499.613 151.2 500.365 152.064 500.365 153.344V158H501.917V153.04C501.917 151.12 500.733 149.808 498.909 149.808C497.709 149.808 496.749 150.352 496.317 151.36V149.936H494.765V158ZM504.553 147.408V149.936H502.905V151.28H504.553V155.36C504.553 157.008 505.593 158 507.225 158H508.489V156.656H507.353C506.569 156.656 506.105 156.176 506.105 155.312V151.28H508.489V149.936H506.105V147.408H504.553ZM515.385 155.376C515.161 156.288 514.393 156.8 513.209 156.8C511.801 156.8 510.809 155.76 510.681 154.24H516.841C516.857 154.096 516.873 153.84 516.873 153.632C516.873 151.584 515.545 149.808 513.049 149.808C510.569 149.808 509.161 151.664 509.161 153.92C509.161 156.16 510.713 158.128 513.209 158.128C515.193 158.128 516.649 157.04 516.937 155.376H515.385ZM513.049 151.056C514.377 151.056 515.209 151.872 515.305 153.104H510.729C510.969 151.76 511.785 151.056 513.049 151.056ZM518.453 158H520.005V153.632C520.005 152.224 520.901 151.2 522.165 151.2C523.301 151.2 524.053 152.064 524.053 153.344V158H525.605V153.04C525.605 151.12 524.421 149.808 522.597 149.808C521.397 149.808 520.437 150.352 520.005 151.36V149.936H518.453V158ZM528.24 147.408V149.936H526.592V151.28H528.24V155.36C528.24 157.008 529.28 158 530.912 158H532.176V156.656H531.04C530.256 156.656 529.792 156.176 529.792 155.312V151.28H532.176V149.936H529.792V147.408H528.24Z" fill="#021D49"/>
<path d="M458.308 317H459.972V305.8H458.308V317ZM462.101 317H463.653V312.632C463.653 311.224 464.549 310.2 465.813 310.2C466.949 310.2 467.701 311.064 467.701 312.344V317H469.253V312.04C469.253 310.12 468.069 308.808 466.245 308.808C465.045 308.808 464.085 309.352 463.653 310.36V308.936H462.101V317ZM471.889 306.408V308.936H470.241V310.28H471.889V314.36C471.889 316.008 472.929 317 474.561 317H475.825V315.656H474.689C473.905 315.656 473.441 315.176 473.441 314.312V310.28H475.825V308.936H473.441V306.408H471.889ZM482.721 314.376C482.497 315.288 481.729 315.8 480.545 315.8C479.137 315.8 478.145 314.76 478.017 313.24H484.177C484.193 313.096 484.209 312.84 484.209 312.632C484.209 310.584 482.881 308.808 480.385 308.808C477.905 308.808 476.497 310.664 476.497 312.92C476.497 315.16 478.049 317.128 480.545 317.128C482.529 317.128 483.985 316.04 484.273 314.376H482.721ZM480.385 310.056C481.713 310.056 482.545 310.872 482.641 312.104H478.065C478.305 310.76 479.121 310.056 480.385 310.056ZM491.821 308.936V310.008C491.325 309.304 490.333 308.808 489.261 308.808C486.797 308.808 485.405 310.568 485.405 312.968C485.405 315.368 486.797 317.128 489.277 317.128C490.413 317.128 491.437 316.664 491.821 315.976V317.288C491.821 318.264 491.149 318.968 490.221 318.968H486.493V320.264H490.381C492.141 320.264 493.373 319.08 493.373 317.384V308.936H491.821ZM489.453 315.768C487.965 315.768 486.989 314.664 486.989 312.968C486.989 311.272 487.965 310.168 489.453 310.168C490.957 310.168 491.933 311.272 491.933 312.968C491.933 314.664 490.957 315.768 489.453 315.768ZM500.086 310.28V308.936H499.11C497.974 308.936 497.334 309.416 496.966 310.488V308.936H495.414V317H496.966V313.352C496.966 311.592 497.446 310.28 498.918 310.28H500.086ZM504.269 308.808C502.365 308.808 500.925 309.992 500.797 311.576H502.237C502.285 310.76 503.101 310.056 504.221 310.056C505.469 310.056 506.173 310.728 506.173 311.704C506.173 311.992 505.997 312.184 505.629 312.184H503.949C502.045 312.184 500.813 313.144 500.813 314.696C500.813 316.136 501.901 317.128 503.549 317.128C504.765 317.128 505.789 316.552 506.173 315.688V317H507.725V311.8C507.725 310.008 506.349 308.808 504.269 308.808ZM503.853 315.896C502.957 315.896 502.349 315.4 502.349 314.664C502.349 313.816 503.037 313.272 504.093 313.272H506.173V313.464C506.173 314.952 505.325 315.896 503.853 315.896ZM510.373 306.408V308.936H508.725V310.28H510.373V314.36C510.373 316.008 511.413 317 513.045 317H514.309V315.656H513.173C512.389 315.656 511.925 315.176 511.925 314.312V310.28H514.309V308.936H511.925V306.408H510.373ZM521.205 314.376C520.981 315.288 520.213 315.8 519.029 315.8C517.621 315.8 516.629 314.76 516.501 313.24H522.661C522.677 313.096 522.693 312.84 522.693 312.632C522.693 310.584 521.365 308.808 518.869 308.808C516.389 308.808 514.981 310.664 514.981 312.92C514.981 315.16 516.533 317.128 519.029 317.128C521.013 317.128 522.469 316.04 522.757 314.376H521.205ZM518.869 310.056C520.197 310.056 521.029 310.872 521.125 312.104H516.549C516.789 310.76 517.605 310.056 518.869 310.056ZM527.681 317.128C528.753 317.128 529.745 316.6 530.225 315.8V317H531.777V305.56H530.225V310.12C529.745 309.336 528.769 308.808 527.665 308.808C525.201 308.808 523.809 310.568 523.809 312.968C523.809 315.368 525.201 317.128 527.681 317.128ZM527.857 315.768C526.369 315.768 525.393 314.648 525.393 312.968C525.393 311.288 526.369 310.168 527.857 310.168C529.361 310.168 530.337 311.288 530.337 312.968C530.337 314.648 529.361 315.768 527.857 315.768ZM460.698 337.128C463.29 337.128 465.29 335.592 465.53 333.4H463.85C463.674 334.712 462.346 335.656 460.682 335.656C458.506 335.656 456.938 334.168 456.938 331.4C456.938 328.632 458.506 327.144 460.682 327.144C462.314 327.144 463.626 328.088 463.818 329.4H465.562C465.258 327.208 463.242 325.672 460.698 325.672C457.85 325.672 455.226 327.56 455.226 331.4C455.226 335.24 457.818 337.128 460.698 337.128ZM470.743 337.128C473.159 337.128 474.887 335.384 474.887 332.968C474.887 330.552 473.159 328.808 470.743 328.808C468.327 328.808 466.583 330.552 466.583 332.968C466.583 335.384 468.327 337.128 470.743 337.128ZM470.743 335.768C469.207 335.768 468.167 334.616 468.167 332.968C468.167 331.32 469.207 330.168 470.743 330.168C472.263 330.168 473.303 331.32 473.303 332.968C473.303 334.616 472.263 335.768 470.743 335.768ZM476.406 337H477.958V332.312C477.958 331.032 478.694 330.168 479.926 330.168C480.982 330.168 481.622 331.032 481.622 332.312V337H483.174V332.312C483.174 331.032 483.91 330.168 485.142 330.168C486.214 330.168 486.854 331.032 486.854 332.312V337H488.406V331.88C488.406 330.008 487.318 328.808 485.574 328.808C484.326 328.808 483.27 329.544 482.95 330.456C482.63 329.4 481.654 328.808 480.342 328.808C479.158 328.808 478.294 329.464 477.958 330.376V328.936H476.406V337ZM490.39 337H491.942V332.312C491.942 331.032 492.678 330.168 493.91 330.168C494.966 330.168 495.606 331.032 495.606 332.312V337H497.158V332.312C497.158 331.032 497.894 330.168 499.126 330.168C500.198 330.168 500.838 331.032 500.838 332.312V337H502.39V331.88C502.39 330.008 501.302 328.808 499.558 328.808C498.31 328.808 497.254 329.544 496.934 330.456C496.614 329.4 495.638 328.808 494.326 328.808C493.142 328.808 492.278 329.464 491.942 330.376V328.936H490.39V337ZM510.135 334.376C509.911 335.288 509.143 335.8 507.959 335.8C506.551 335.8 505.559 334.76 505.431 333.24H511.591C511.607 333.096 511.623 332.84 511.623 332.632C511.623 330.584 510.295 328.808 507.799 328.808C505.319 328.808 503.911 330.664 503.911 332.92C503.911 335.16 505.463 337.128 507.959 337.128C509.943 337.128 511.399 336.04 511.687 334.376H510.135ZM507.799 330.056C509.127 330.056 509.959 330.872 510.055 332.104H505.479C505.719 330.76 506.535 330.056 507.799 330.056ZM517.875 330.28V328.936H516.899C515.763 328.936 515.123 329.416 514.755 330.488V328.936H513.203V337H514.755V333.352C514.755 331.592 515.235 330.28 516.707 330.28H517.875ZM522.348 337.128C524.396 337.128 525.836 335.976 526.092 334.28H524.556C524.3 335.192 523.484 335.768 522.38 335.768C520.78 335.768 519.964 334.52 519.964 332.968C519.964 331.416 520.764 330.168 522.38 330.168C523.468 330.168 524.396 330.84 524.54 331.752H526.092C525.868 329.928 524.236 328.808 522.348 328.808C519.804 328.808 518.348 330.744 518.348 332.968C518.348 335.192 519.804 337.128 522.348 337.128ZM533.322 334.376C533.098 335.288 532.33 335.8 531.146 335.8C529.738 335.8 528.746 334.76 528.618 333.24H534.778C534.794 333.096 534.81 332.84 534.81 332.632C534.81 330.584 533.482 328.808 530.986 328.808C528.506 328.808 527.098 330.664 527.098 332.92C527.098 335.16 528.65 337.128 531.146 337.128C533.13 337.128 534.586 336.04 534.874 334.376H533.322ZM530.986 330.056C532.314 330.056 533.146 330.872 533.242 332.104H528.666C528.906 330.76 529.722 330.056 530.986 330.056Z" fill="#021D49"/>
<path d="M229.917 445H237.277V443.528H231.581V439.96H236.045V438.488H231.581V435.272H237.101V433.8H229.917V445ZM245.666 445L242.738 440.776L245.426 436.936H243.714L241.906 439.56L240.082 436.936H238.37L241.058 440.776L238.13 445H239.778L241.906 441.976L244.018 445H245.666ZM246.947 448.264H248.499V443.864C248.963 444.632 249.923 445.128 250.995 445.128C253.443 445.128 254.899 443.368 254.899 440.968C254.899 438.568 253.507 436.808 251.075 436.808C249.955 436.808 248.979 437.336 248.499 438.136V436.936H246.947V448.264ZM250.851 443.768C249.347 443.768 248.371 442.648 248.371 440.968C248.371 439.288 249.347 438.168 250.851 438.168C252.339 438.168 253.331 439.288 253.331 440.968C253.331 442.648 252.339 443.768 250.851 443.768ZM262.174 442.376C261.95 443.288 261.182 443.8 259.998 443.8C258.59 443.8 257.598 442.76 257.47 441.24H263.63C263.646 441.096 263.662 440.84 263.662 440.632C263.662 438.584 262.334 436.808 259.838 436.808C257.358 436.808 255.95 438.664 255.95 440.92C255.95 443.16 257.502 445.128 259.998 445.128C261.982 445.128 263.438 444.04 263.726 442.376H262.174ZM259.838 438.056C261.166 438.056 261.998 438.872 262.094 440.104H257.518C257.758 438.76 258.574 438.056 259.838 438.056ZM269.914 438.28V436.936H268.938C267.802 436.936 267.162 437.416 266.794 438.488V436.936H265.242V445H266.794V441.352C266.794 439.592 267.274 438.28 268.746 438.28H269.914ZM271.099 433.56V435.512H272.827V433.56H271.099ZM271.195 445H272.747V436.936H271.195V445ZM280.471 442.376C280.247 443.288 279.479 443.8 278.295 443.8C276.887 443.8 275.895 442.76 275.767 441.24H281.927C281.943 441.096 281.959 440.84 281.959 440.632C281.959 438.584 280.631 436.808 278.135 436.808C275.655 436.808 274.247 438.664 274.247 440.92C274.247 443.16 275.799 445.128 278.295 445.128C280.279 445.128 281.735 444.04 282.023 442.376H280.471ZM278.135 438.056C279.463 438.056 280.295 438.872 280.391 440.104H275.815C276.055 438.76 276.871 438.056 278.135 438.056ZM283.539 445H285.091V440.632C285.091 439.224 285.987 438.2 287.251 438.2C288.387 438.2 289.139 439.064 289.139 440.344V445H290.691V440.04C290.691 438.12 289.507 436.808 287.683 436.808C286.483 436.808 285.523 437.352 285.091 438.36V436.936H283.539V445ZM293.326 434.408V436.936H291.678V438.28H293.326V442.36C293.326 444.008 294.366 445 295.998 445H297.262V443.656H296.126C295.342 443.656 294.878 443.176 294.878 442.312V438.28H297.262V436.936H294.878V434.408H293.326ZM298.49 433.56V435.512H300.218V433.56H298.49ZM298.586 445H300.138V436.936H298.586V445ZM305.269 436.808C303.365 436.808 301.925 437.992 301.797 439.576H303.237C303.285 438.76 304.101 438.056 305.221 438.056C306.469 438.056 307.173 438.728 307.173 439.704C307.173 439.992 306.997 440.184 306.629 440.184H304.949C303.045 440.184 301.813 441.144 301.813 442.696C301.813 444.136 302.901 445.128 304.549 445.128C305.765 445.128 306.789 444.552 307.173 443.688V445H308.725V439.8C308.725 438.008 307.349 436.808 305.269 436.808ZM304.853 443.896C303.957 443.896 303.349 443.4 303.349 442.664C303.349 441.816 304.037 441.272 305.093 441.272H307.173V441.464C307.173 442.952 306.325 443.896 304.853 443.896ZM310.603 445H312.155V433.56H310.603V445ZM235.503 465H237.087V456.664L240.447 465H241.791L245.135 456.664V465H246.735V453.8H244.687L241.119 462.728L237.551 453.8H235.503V465ZM252.027 456.808C250.123 456.808 248.683 457.992 248.555 459.576H249.995C250.043 458.76 250.859 458.056 251.979 458.056C253.227 458.056 253.931 458.728 253.931 459.704C253.931 459.992 253.755 460.184 253.387 460.184H251.707C249.803 460.184 248.571 461.144 248.571 462.696C248.571 464.136 249.659 465.128 251.307 465.128C252.523 465.128 253.547 464.552 253.931 463.688V465H255.483V459.8C255.483 458.008 254.107 456.808 252.027 456.808ZM251.611 463.896C250.715 463.896 250.107 463.4 250.107 462.664C250.107 461.816 250.795 461.272 251.851 461.272H253.931V461.464C253.931 462.952 253.083 463.896 251.611 463.896ZM261.953 458.28V456.936H260.977C259.841 456.936 259.201 457.416 258.833 458.488V456.936H257.281V465H258.833V461.352C258.833 459.592 259.313 458.28 260.785 458.28H261.953ZM268.786 465H270.706L267.01 460.088L270.402 456.936H268.386L264.882 460.152V453.56H263.314V465H264.882V462.072L265.89 461.144L268.786 465ZM277.197 462.376C276.973 463.288 276.205 463.8 275.021 463.8C273.613 463.8 272.621 462.76 272.493 461.24H278.653C278.669 461.096 278.685 460.84 278.685 460.632C278.685 458.584 277.357 456.808 274.861 456.808C272.381 456.808 270.973 458.664 270.973 460.92C270.973 463.16 272.525 465.128 275.021 465.128C277.005 465.128 278.461 464.04 278.749 462.376H277.197ZM274.861 458.056C276.189 458.056 277.021 458.872 277.117 460.104H272.541C272.781 458.76 273.597 458.056 274.861 458.056ZM281.084 454.408V456.936H279.436V458.28H281.084V462.36C281.084 464.008 282.124 465 283.756 465H285.02V463.656H283.884C283.1 463.656 282.636 463.176 282.636 462.312V458.28H285.02V456.936H282.636V454.408H281.084ZM286.248 453.56V455.512H287.976V453.56H286.248ZM286.344 465H287.896V456.936H286.344V465ZM289.859 465H291.411V460.632C291.411 459.224 292.307 458.2 293.571 458.2C294.707 458.2 295.459 459.064 295.459 460.344V465H297.011V460.04C297.011 458.12 295.827 456.808 294.003 456.808C292.803 456.808 291.843 457.352 291.411 458.36V456.936H289.859V465ZM305.032 456.936V458.008C304.536 457.304 303.544 456.808 302.472 456.808C300.008 456.808 298.616 458.568 298.616 460.968C298.616 463.368 300.008 465.128 302.488 465.128C303.624 465.128 304.648 464.664 305.032 463.976V465.288C305.032 466.264 304.36 466.968 303.432 466.968H299.704V468.264H303.592C305.352 468.264 306.584 467.08 306.584 465.384V456.936H305.032ZM302.664 463.768C301.176 463.768 300.2 462.664 300.2 460.968C300.2 459.272 301.176 458.168 302.664 458.168C304.168 458.168 305.144 459.272 305.144 460.968C305.144 462.664 304.168 463.768 302.664 463.768Z" fill="#021D49"/>
<path d="M4.95631 317H6.62031V312.552H9.29231C11.5483 312.552 12.9083 311.16 12.9083 309.176C12.9083 307.192 11.5483 305.8 9.29231 305.8H4.95631V317ZM6.62031 311.112V307.24H9.24431C10.6843 307.24 11.2443 308.152 11.2443 309.176C11.2443 310.2 10.6843 311.112 9.24431 311.112H6.62031ZM19.7286 314.376C19.5046 315.288 18.7366 315.8 17.5526 315.8C16.1446 315.8 15.1526 314.76 15.0246 313.24H21.1846C21.2006 313.096 21.2166 312.84 21.2166 312.632C21.2166 310.584 19.8886 308.808 17.3926 308.808C14.9126 308.808 13.5046 310.664 13.5046 312.92C13.5046 315.16 15.0566 317.128 17.5526 317.128C19.5366 317.128 20.9926 316.04 21.2806 314.376H19.7286ZM17.3926 310.056C18.7206 310.056 19.5526 310.872 19.6486 312.104H15.0726C15.3126 310.76 16.1286 310.056 17.3926 310.056ZM28.0287 317H29.5807V310.28H32.0127V308.936H29.5807V308.2C29.5807 307.4 30.0607 306.904 30.7967 306.904H32.0127V305.56H30.6847C29.0687 305.56 28.0287 306.568 28.0287 308.152V317ZM27.3087 310.28V308.936H26.4927C25.3567 308.936 24.7167 309.416 24.3487 310.488V308.936H22.7967V317H24.3487V313.352C24.3487 311.592 24.8287 310.28 26.3007 310.28H27.3087ZM36.5396 317.128C38.9556 317.128 40.6836 315.384 40.6836 312.968C40.6836 310.552 38.9556 308.808 36.5396 308.808C34.1236 308.808 32.3796 310.552 32.3796 312.968C32.3796 315.384 34.1236 317.128 36.5396 317.128ZM36.5396 315.768C35.0036 315.768 33.9636 314.616 33.9636 312.968C33.9636 311.32 35.0036 310.168 36.5396 310.168C38.0596 310.168 39.0996 311.32 39.0996 312.968C39.0996 314.616 38.0596 315.768 36.5396 315.768ZM46.8749 310.28V308.936H45.8989C44.7629 308.936 44.1229 309.416 43.7549 310.488V308.936H42.2029V317H43.7549V313.352C43.7549 311.592 44.2349 310.28 45.7069 310.28H46.8749ZM48.1561 317H49.7081V312.312C49.7081 311.032 50.4441 310.168 51.6761 310.168C52.7321 310.168 53.3721 311.032 53.3721 312.312V317H54.9241V312.312C54.9241 311.032 55.6601 310.168 56.8921 310.168C57.9641 310.168 58.6041 311.032 58.6041 312.312V317H60.1561V311.88C60.1561 310.008 59.0681 308.808 57.3241 308.808C56.0761 308.808 55.0201 309.544 54.7001 310.456C54.3801 309.4 53.4041 308.808 52.0921 308.808C50.9081 308.808 50.0441 309.464 49.7081 310.376V308.936H48.1561V317ZM65.1991 308.808C63.2951 308.808 61.8551 309.992 61.7271 311.576H63.1671C63.2151 310.76 64.0311 310.056 65.1511 310.056C66.3991 310.056 67.1031 310.728 67.1031 311.704C67.1031 311.992 66.9271 312.184 66.5591 312.184H64.8791C62.9751 312.184 61.7431 313.144 61.7431 314.696C61.7431 316.136 62.8311 317.128 64.4791 317.128C65.6951 317.128 66.7191 316.552 67.1031 315.688V317H68.6551V311.8C68.6551 310.008 67.2791 308.808 65.1991 308.808ZM64.7831 315.896C63.8871 315.896 63.2791 315.4 63.2791 314.664C63.2791 313.816 63.9671 313.272 65.0231 313.272H67.1031V313.464C67.1031 314.952 66.2551 315.896 64.7831 315.896ZM70.4529 317H72.0049V312.632C72.0049 311.224 72.9009 310.2 74.1649 310.2C75.3009 310.2 76.0529 311.064 76.0529 312.344V317H77.6049V312.04C77.6049 310.12 76.4209 308.808 74.5969 308.808C73.3969 308.808 72.4369 309.352 72.0049 310.36V308.936H70.4529V317ZM83.1296 317.128C85.1776 317.128 86.6176 315.976 86.8736 314.28H85.3376C85.0816 315.192 84.2656 315.768 83.1616 315.768C81.5616 315.768 80.7456 314.52 80.7456 312.968C80.7456 311.416 81.5456 310.168 83.1616 310.168C84.2496 310.168 85.1776 310.84 85.3216 311.752H86.8736C86.6496 309.928 85.0176 308.808 83.1296 308.808C80.5856 308.808 79.1296 310.744 79.1296 312.968C79.1296 315.192 80.5856 317.128 83.1296 317.128ZM94.1036 314.376C93.8796 315.288 93.1116 315.8 91.9276 315.8C90.5196 315.8 89.5276 314.76 89.3996 313.24H95.5596C95.5756 313.096 95.5916 312.84 95.5916 312.632C95.5916 310.584 94.2636 308.808 91.7676 308.808C89.2876 308.808 87.8796 310.664 87.8796 312.92C87.8796 315.16 89.4316 317.128 91.9276 317.128C93.9116 317.128 95.3676 316.04 95.6556 314.376H94.1036ZM91.7676 310.056C93.0956 310.056 93.9276 310.872 94.0236 312.104H89.4476C89.6876 310.76 90.5036 310.056 91.7676 310.056ZM29.2298 337H30.8138V328.664L34.1738 337H35.5178L38.8618 328.664V337H40.4618V325.8H38.4138L34.8458 334.728L31.2778 325.8H29.2298V337ZM48.3458 334.376C48.1218 335.288 47.3538 335.8 46.1698 335.8C44.7618 335.8 43.7698 334.76 43.6418 333.24H49.8018C49.8177 333.096 49.8338 332.84 49.8338 332.632C49.8338 330.584 48.5058 328.808 46.0098 328.808C43.5298 328.808 42.1217 330.664 42.1217 332.92C42.1217 335.16 43.6738 337.128 46.1698 337.128C48.1538 337.128 49.6098 336.04 49.8978 334.376H48.3458ZM46.0098 330.056C47.3378 330.056 48.1698 330.872 48.2658 332.104H43.6898C43.9298 330.76 44.7458 330.056 46.0098 330.056ZM54.8219 337.128C55.8939 337.128 56.8859 336.6 57.3659 335.8V337H58.9179V325.56H57.3659V330.12C56.8859 329.336 55.9099 328.808 54.8059 328.808C52.3419 328.808 50.9499 330.568 50.9499 332.968C50.9499 335.368 52.3419 337.128 54.8219 337.128ZM54.9979 335.768C53.5099 335.768 52.5339 334.648 52.5339 332.968C52.5339 331.288 53.5099 330.168 54.9979 330.168C56.5019 330.168 57.4779 331.288 57.4779 332.968C57.4779 334.648 56.5019 335.768 54.9979 335.768ZM60.8648 325.56V327.512H62.5928V325.56H60.8648ZM60.9608 337H62.5128V328.936H60.9608V337ZM67.6444 328.808C65.7404 328.808 64.3004 329.992 64.1724 331.576H65.6124C65.6604 330.76 66.4764 330.056 67.5964 330.056C68.8444 330.056 69.5484 330.728 69.5484 331.704C69.5484 331.992 69.3724 332.184 69.0044 332.184H67.3244C65.4204 332.184 64.1884 333.144 64.1884 334.696C64.1884 336.136 65.2764 337.128 66.9244 337.128C68.1404 337.128 69.1644 336.552 69.5484 335.688V337H71.1004V331.8C71.1004 330.008 69.7244 328.808 67.6444 328.808ZM67.2284 335.896C66.3324 335.896 65.7244 335.4 65.7244 334.664C65.7244 333.816 66.4124 333.272 67.4684 333.272H69.5484V333.464C69.5484 334.952 68.7004 335.896 67.2284 335.896Z" fill="#021D49"/>
<path d="M1.83913 138H3.42313V129.664L6.78313 138H8.12713L11.4711 129.664V138H13.0711V126.8H11.0231L7.45513 135.728L3.88713 126.8H1.83913V138ZM20.9551 135.376C20.7311 136.288 19.9631 136.8 18.7791 136.8C17.3711 136.8 16.3791 135.76 16.2511 134.24H22.4111C22.4271 134.096 22.4431 133.84 22.4431 133.632C22.4431 131.584 21.1151 129.808 18.6191 129.808C16.1391 129.808 14.7311 131.664 14.7311 133.92C14.7311 136.16 16.2831 138.128 18.7791 138.128C20.7631 138.128 22.2191 137.04 22.5071 135.376H20.9551ZM18.6191 131.056C19.9471 131.056 20.7791 131.872 20.8751 133.104H16.2991C16.5391 131.76 17.3551 131.056 18.6191 131.056ZM27.1288 129.808C25.2248 129.808 23.7848 130.992 23.6568 132.576H25.0968C25.1448 131.76 25.9608 131.056 27.0807 131.056C28.3288 131.056 29.0328 131.728 29.0328 132.704C29.0328 132.992 28.8568 133.184 28.4888 133.184H26.8088C24.9048 133.184 23.6728 134.144 23.6728 135.696C23.6728 137.136 24.7608 138.128 26.4088 138.128C27.6248 138.128 28.6488 137.552 29.0328 136.688V138H30.5848V132.8C30.5848 131.008 29.2088 129.808 27.1288 129.808ZM26.7128 136.896C25.8168 136.896 25.2088 136.4 25.2088 135.664C25.2088 134.816 25.8968 134.272 26.9528 134.272H29.0328V134.464C29.0328 135.952 28.1848 136.896 26.7128 136.896ZM35.2146 138.128C37.0386 138.128 38.2386 137.184 38.2386 135.712C38.2386 132.032 33.6306 134.08 33.6306 132.08C33.6306 131.456 34.1906 131.04 35.0226 131.04C35.7106 131.04 36.6066 131.408 36.7186 132.336H38.1746C38.0946 130.816 36.8466 129.808 35.0226 129.808C33.3426 129.808 32.1586 130.736 32.1586 132.128C32.1586 135.568 36.7346 133.6 36.7346 135.744C36.7346 136.336 36.1426 136.832 35.2146 136.832C34.1746 136.832 33.5026 136.304 33.4066 135.376H31.9506C32.0626 137.072 33.3266 138.128 35.2146 138.128ZM47.0034 129.936H45.4514V134.304C45.4514 135.712 44.5554 136.736 43.2914 136.736C42.1554 136.736 41.4034 135.872 41.4034 134.592V129.936H39.8514V134.896C39.8514 136.816 41.0354 138.128 42.8594 138.128C44.0594 138.128 45.0194 137.584 45.4514 136.576V138H47.0034V129.936ZM53.664 131.28V129.936H52.688C51.552 129.936 50.912 130.416 50.544 131.488V129.936H48.992V138H50.544V134.352C50.544 132.592 51.024 131.28 52.496 131.28H53.664ZM60.3614 135.376C60.1374 136.288 59.3694 136.8 58.1854 136.8C56.7774 136.8 55.7854 135.76 55.6574 134.24H61.8174C61.8334 134.096 61.8494 133.84 61.8494 133.632C61.8494 131.584 60.5214 129.808 58.0254 129.808C55.5454 129.808 54.1374 131.664 54.1374 133.92C54.1374 136.16 55.6894 138.128 58.1854 138.128C60.1694 138.128 61.6254 137.04 61.9134 135.376H60.3614ZM58.0254 131.056C59.3534 131.056 60.1854 131.872 60.2814 133.104H55.7054C55.9454 131.76 56.7614 131.056 58.0254 131.056ZM63.4295 138H64.9815V133.312C64.9815 132.032 65.7175 131.168 66.9495 131.168C68.0055 131.168 68.6455 132.032 68.6455 133.312V138H70.1975V133.312C70.1975 132.032 70.9335 131.168 72.1655 131.168C73.2375 131.168 73.8775 132.032 73.8775 133.312V138H75.4295V132.88C75.4295 131.008 74.3415 129.808 72.5975 129.808C71.3495 129.808 70.2935 130.544 69.9735 131.456C69.6535 130.4 68.6775 129.808 67.3655 129.808C66.1815 129.808 65.3175 130.464 64.9815 131.376V129.936H63.4295V138ZM83.1739 135.376C82.9499 136.288 82.1819 136.8 80.9979 136.8C79.5899 136.8 78.5979 135.76 78.4699 134.24H84.6299C84.6459 134.096 84.6619 133.84 84.6619 133.632C84.6619 131.584 83.3339 129.808 80.8379 129.808C78.3579 129.808 76.9499 131.664 76.9499 133.92C76.9499 136.16 78.5019 138.128 80.9979 138.128C82.9819 138.128 84.4379 137.04 84.7259 135.376H83.1739ZM80.8379 131.056C82.1659 131.056 82.9979 131.872 83.0939 133.104H78.5179C78.7579 131.76 79.5739 131.056 80.8379 131.056ZM86.242 138H87.794V133.632C87.794 132.224 88.69 131.2 89.954 131.2C91.09 131.2 91.842 132.064 91.842 133.344V138H93.394V133.04C93.394 131.12 92.21 129.808 90.386 129.808C89.186 129.808 88.226 130.352 87.794 131.36V129.936H86.242V138ZM96.0294 127.408V129.936H94.3814V131.28H96.0294V135.36C96.0294 137.008 97.0694 138 98.7014 138H99.9654V136.656H98.8294C98.0454 136.656 97.5814 136.176 97.5814 135.312V131.28H99.9654V129.936H97.5814V127.408H96.0294ZM20.9856 158L18.8896 155.712L19.3056 155.024C19.6096 154.528 20.1536 154.096 20.8416 154.096V152.624C20.0256 152.624 19.2736 152.784 18.5536 153.936L17.9776 154.72L15.8336 152.368C17.0336 151.744 18.1536 150.944 18.1536 149.296C18.1536 147.744 16.9696 146.672 15.2736 146.672C13.5616 146.672 12.3776 147.776 12.3776 149.392C12.3776 150.24 12.9536 151.104 13.6416 151.888C12.4576 152.512 11.3856 153.312 11.3856 154.928C11.3856 156.928 12.7936 158.128 14.9536 158.128C16.0896 158.128 17.2256 157.744 18.1216 156.784L19.2416 158H20.9856ZM13.8176 149.376C13.8176 148.512 14.4096 147.904 15.2736 147.904C16.1376 147.904 16.7296 148.464 16.7296 149.28C16.7296 150.256 15.8816 150.784 14.8576 151.28C14.3616 150.704 13.8176 150 13.8176 149.376ZM14.9536 156.752C13.6576 156.752 12.8896 156.08 12.8896 154.944C12.8896 153.984 13.6576 153.456 14.6176 152.96L17.1936 155.776C16.5056 156.512 15.6736 156.752 14.9536 156.752ZM33.7903 158H35.5183L31.1183 146.8H29.5823L25.1823 158H26.8943L27.9663 155.152H32.7183L33.7903 158ZM28.5263 153.696L30.3503 148.88L32.1743 153.696H28.5263ZM36.6092 158H38.1612V153.632C38.1612 152.224 39.0572 151.2 40.3212 151.2C41.4572 151.2 42.2092 152.064 42.2092 153.344V158H43.7612V153.04C43.7612 151.12 42.5772 149.808 40.7532 149.808C39.5532 149.808 38.5932 150.352 38.1612 151.36V149.936H36.6092V158ZM48.8084 149.808C46.9044 149.808 45.4644 150.992 45.3364 152.576H46.7764C46.8244 151.76 47.6404 151.056 48.7604 151.056C50.0084 151.056 50.7124 151.728 50.7124 152.704C50.7124 152.992 50.5364 153.184 50.1684 153.184H48.4884C46.5844 153.184 45.3524 154.144 45.3524 155.696C45.3524 157.136 46.4404 158.128 48.0884 158.128C49.3044 158.128 50.3284 157.552 50.7124 156.688V158H52.2644V152.8C52.2644 151.008 50.8884 149.808 48.8084 149.808ZM48.3924 156.896C47.4964 156.896 46.8884 156.4 46.8884 155.664C46.8884 154.816 47.5764 154.272 48.6324 154.272H50.7124V154.464C50.7124 155.952 49.8644 156.896 48.3924 156.896ZM54.1423 158H55.6943V146.56H54.1423V158ZM64.3738 149.936H62.7738L60.6458 155.984L58.5338 149.936H56.9338L59.9258 158.08L58.8378 161.264H60.3258L61.5418 157.712L64.3738 149.936ZM66.4747 147.408V149.936H64.8267V151.28H66.4747V155.36C66.4747 157.008 67.5147 158 69.1467 158H70.4107V156.656H69.2747C68.4907 156.656 68.0267 156.176 68.0267 155.312V151.28H70.4107V149.936H68.0267V147.408H66.4747ZM71.6382 146.56V148.512H73.3662V146.56H71.6382ZM71.7342 158H73.2862V149.936H71.7342V158ZM78.7858 158.128C80.8338 158.128 82.2738 156.976 82.5298 155.28H80.9938C80.7378 156.192 79.9218 156.768 78.8178 156.768C77.2178 156.768 76.4018 155.52 76.4018 153.968C76.4018 152.416 77.2018 151.168 78.8178 151.168C79.9058 151.168 80.8338 151.84 80.9778 152.752H82.5298C82.3058 150.928 80.6738 149.808 78.7858 149.808C76.2418 149.808 74.7858 151.744 74.7858 153.968C74.7858 156.192 76.2418 158.128 78.7858 158.128ZM86.7537 158.128C88.5777 158.128 89.7777 157.184 89.7777 155.712C89.7777 152.032 85.1697 154.08 85.1697 152.08C85.1697 151.456 85.7297 151.04 86.5617 151.04C87.2497 151.04 88.1457 151.408 88.2577 152.336H89.7137C89.6337 150.816 88.3857 149.808 86.5617 149.808C84.8817 149.808 83.6977 150.736 83.6977 152.128C83.6977 155.568 88.2737 153.6 88.2737 155.744C88.2737 156.336 87.6817 156.832 86.7537 156.832C85.7137 156.832 85.0417 156.304 84.9457 155.376H83.4897C83.6017 157.072 84.8657 158.128 86.7537 158.128Z" fill="#021D49"/>
<path opacity="0.08" d="M270.974 58L117 146.699V324.25L271.077 413L425 324.25V146.801L270.974 58ZM345.854 191.048L272.208 233.493V148.551H321.34L345.854 191.048ZM323.961 148.602L419.501 148.654L347.859 189.967L323.961 148.602ZM272.156 146.287V63.6594L319.952 146.287H272.156ZM269.844 146.287H222.048L269.844 63.6594V146.287ZM269.844 148.602V233.545L196.146 191.048L220.712 148.602H269.844ZM194.193 189.864L122.499 148.551L218.091 148.602L194.193 189.864ZM193.011 191.871L169.113 233.185L121.317 150.557L193.011 191.871ZM195.015 193.003L268.713 235.5L195.015 277.946L170.449 235.449L195.015 193.003ZM193.062 279.129L121.317 320.443L169.113 237.764L193.062 279.129ZM194.193 281.136L218.091 322.449H122.499L194.193 281.136ZM196.197 279.952L269.895 237.507V322.449H220.763L196.197 279.952ZM269.895 324.764V407.392L222.099 324.764H269.895ZM272.208 324.764H320.004L272.208 407.392V324.764ZM272.208 322.449V237.507L345.906 280.004L321.34 322.449H272.208ZM347.91 281.136L419.552 322.449H324.012L347.91 281.136ZM349.041 279.129L372.887 237.867L420.632 320.443L349.041 279.129ZM347.036 277.997L273.338 235.5L346.985 193.054L371.551 235.551L347.036 277.997ZM349.041 191.922L420.683 150.609L372.939 233.236L349.041 191.922ZM322.625 146.287L274.161 62.4761L419.501 146.287H322.625ZM219.375 146.236L122.448 146.184L267.839 62.4761L219.375 146.236ZM167.777 235.449L119.313 319.259V151.689L167.777 235.449ZM219.427 324.764L267.891 408.524L122.448 324.764H219.427ZM322.676 324.764H419.501L274.263 408.524L322.676 324.764ZM374.275 235.551L422.687 151.792V319.311L374.275 235.551Z" fill="#1226AA"/>
<circle cx="119" cy="148" r="8" fill="#1226AA"/>
<path d="M119.15 146.797C118.574 146.797 117.944 147.112 117.683 147.553C117.737 146.446 118.313 145.618 119.159 145.618C119.771 145.618 120.212 145.951 120.311 146.419H121.427C121.292 145.411 120.41 144.628 119.114 144.628C117.62 144.628 116.576 145.87 116.576 148.075C116.576 149.794 117.44 151.072 119.015 151.072C120.338 151.072 121.355 150.145 121.355 148.921C121.355 147.715 120.464 146.797 119.15 146.797ZM119.042 150.037C118.367 150.037 117.908 149.578 117.908 148.921C117.908 148.273 118.367 147.814 119.042 147.814C119.708 147.814 120.158 148.273 120.158 148.921C120.158 149.578 119.708 150.037 119.042 150.037Z" fill="white"/>
<circle cx="271" cy="61" r="8" fill="#1226AA"/>
<path d="M272.112 57.7H270.978C270.906 58.384 270.618 58.582 270.132 58.582H269.682V59.608H270.177C270.438 59.608 270.807 59.527 270.924 59.365V64H272.112V57.7Z" fill="white"/>
<circle cx="425" cy="148" r="8" fill="#1226AA"/>
<path d="M422.87 146.887H424.067C424.049 146.122 424.427 145.609 425.102 145.609C425.714 145.609 426.101 145.987 426.101 146.572C426.101 147.031 425.84 147.391 425.327 147.643L424.319 148.147C423.716 148.444 422.861 149.11 422.861 150.127L422.87 151H427.298V149.965H424.04C424.04 149.578 424.472 149.272 424.832 149.083L425.804 148.597C426.803 148.102 427.298 147.427 427.298 146.581C427.298 145.402 426.398 144.628 425.102 144.628C423.725 144.628 422.843 145.492 422.87 146.887Z" fill="white"/>
<circle cx="119" cy="323" r="8" fill="#1226AA"/>
<path d="M118.958 326.072C120.326 326.072 121.343 325.172 121.343 323.903C121.343 322.679 120.434 321.752 119.192 321.752C118.679 321.752 118.283 321.932 118.04 322.148L118.256 320.726H120.911V319.7H117.374L116.852 323.3H117.878C118.067 322.94 118.436 322.742 118.967 322.742C119.678 322.742 120.146 323.21 120.146 323.903C120.146 324.605 119.678 325.037 118.958 325.037C118.346 325.037 117.941 324.713 117.869 324.146H116.744C116.807 325.244 117.743 326.072 118.958 326.072Z" fill="white"/>
<circle cx="271" cy="410" r="8" fill="#1226AA"/>
<path d="M271.583 413H272.771V411.668H273.581V410.633H272.771V406.7H271.475L268.361 410.633V411.668H271.583V413ZM269.54 410.633L271.583 408.122V410.633H269.54Z" fill="white"/>
<circle cx="425" cy="323" r="8" fill="#1226AA"/>
<path d="M425.048 326.072C426.29 326.072 427.37 325.37 427.37 324.155C427.37 323.453 426.947 322.904 426.317 322.679C426.785 322.436 427.109 321.923 427.109 321.32C427.109 320.384 426.209 319.628 424.994 319.628C423.851 319.628 422.87 320.366 422.852 321.59H423.977C423.995 320.96 424.4 320.654 424.967 320.654C425.561 320.654 425.957 320.951 425.957 321.437C425.957 321.914 425.597 322.256 425.03 322.256H424.472V323.246H425.048C425.741 323.246 426.191 323.57 426.191 324.128C426.191 324.695 425.741 325.037 425.048 325.037C424.391 325.037 423.86 324.677 423.86 324.011H422.708C422.708 325.289 423.752 326.072 425.048 326.072Z" fill="white"/>
</svg>
