<svg id="Layer_1" xmlns="http://www.w3.org/2000/svg" viewBox="0 0 709 476"><defs><clipPath id="clippath"><path style="fill:none" d="M0 0h709v476H0z"/></clipPath><style>.cls-3{fill:#fff}.cls-4{fill:#021d49}.cls-5{fill:#1226aa}</style></defs><g style="clip-path:url(#clippath)"><path class="cls-4" d="M313.417 15h7.36v-1.472h-5.696V9.96h4.464V8.488h-4.464V5.272h5.52V3.8h-7.184V15Zm15.749 0-2.928-4.224 2.688-3.84h-1.712l-1.808 2.624-1.824-2.624h-1.712l2.688 3.84L321.63 15h1.648l2.128-3.024L327.518 15h1.648Zm1.281 3.264h1.552v-4.4c.464.768 1.424 1.264 2.496 1.264 2.448 0 3.904-1.76 3.904-4.16s-1.392-4.16-3.824-4.16c-1.12 0-2.096.528-2.576 1.328v-1.2h-1.552v11.328Zm3.904-4.496c-1.504 0-2.48-1.12-2.48-2.8s.976-2.8 2.48-2.8c1.488 0 2.48 1.12 2.48 2.8s-.992 2.8-2.48 2.8Zm11.323-1.392c-.224.912-.992 1.424-2.176 1.424-1.408 0-2.4-1.04-2.528-2.56h6.16c.016-.144.032-.4.032-.608 0-2.048-1.328-3.824-3.824-3.824-2.48 0-3.888 1.856-3.888 4.112 0 2.24 1.552 4.208 4.048 4.208 1.984 0 3.44-1.088 3.728-2.752h-1.552Zm-2.336-4.32c1.328 0 2.16.816 2.256 2.048h-4.576c.24-1.344 1.056-2.048 2.32-2.048Zm10.076.224V6.936h-.976c-1.136 0-1.776.48-2.144 1.552V6.936h-1.552V15h1.552v-3.648c0-1.76.48-3.072 1.952-3.072h1.168Zm1.185-4.72v1.952h1.728V3.56h-1.728Zm.096 11.44h1.552V6.936h-1.552V15Zm9.276-2.624c-.224.912-.992 1.424-2.176 1.424-1.408 0-2.4-1.04-2.528-2.56h6.16c.016-.144.032-.4.032-.608 0-2.048-1.328-3.824-3.824-3.824-2.48 0-3.888 1.856-3.888 4.112 0 2.24 1.552 4.208 4.048 4.208 1.984 0 3.44-1.088 3.728-2.752h-1.552Zm-2.336-4.32c1.328 0 2.16.816 2.256 2.048h-4.576c.24-1.344 1.056-2.048 2.32-2.048ZM367.039 15h1.552v-4.368c0-1.408.896-2.432 2.16-2.432 1.136 0 1.888.864 1.888 2.144V15h1.552v-4.96c0-1.92-1.184-3.232-3.008-3.232-1.2 0-2.16.544-2.592 1.552V6.936h-1.552V15Zm9.787-10.592v2.528h-1.648V8.28h1.648v4.08c0 1.648 1.04 2.64 2.672 2.64h1.264v-1.344h-1.136c-.784 0-1.248-.48-1.248-1.344V8.28h2.384V6.936h-2.384V4.408h-1.552Zm5.164-.848v1.952h1.728V3.56h-1.728Zm.096 11.44h1.552V6.936h-1.552V15Zm6.683-8.192c-1.904 0-3.344 1.184-3.472 2.768h1.44c.048-.816.864-1.52 1.984-1.52 1.248 0 1.952.672 1.952 1.648 0 .288-.176.48-.544.48h-1.68c-1.904 0-3.136.96-3.136 2.512 0 1.44 1.088 2.432 2.736 2.432 1.216 0 2.24-.576 2.624-1.44V15h1.552V9.8c0-1.792-1.376-2.992-3.456-2.992Zm-.416 7.088c-.896 0-1.504-.496-1.504-1.232 0-.848.688-1.392 1.744-1.392h2.08v.192c0 1.488-.848 2.432-2.32 2.432Zm5.75 1.104h1.552V3.56h-1.552V15Zm-75.1 20h1.584v-8.336l3.36 8.336h1.344l3.344-8.336V35h1.6V23.8h-2.048l-3.568 8.928-3.568-8.928h-2.048V35Zm16.524-8.192c-1.904 0-3.344 1.184-3.472 2.768h1.44c.048-.816.864-1.52 1.984-1.52 1.248 0 1.952.672 1.952 1.648 0 .288-.176.48-.544.48h-1.68c-1.904 0-3.136.96-3.136 2.512 0 1.44 1.088 2.432 2.736 2.432 1.216 0 2.24-.576 2.624-1.44V35h1.552v-5.2c0-1.792-1.376-2.992-3.456-2.992Zm-.416 7.088c-.896 0-1.504-.496-1.504-1.232 0-.848.688-1.392 1.744-1.392h2.08v.192c0 1.488-.848 2.432-2.32 2.432Zm10.342-5.616v-1.344h-.976c-1.136 0-1.776.48-2.144 1.552v-1.552h-1.552V35h1.552v-3.648c0-1.76.48-3.072 1.952-3.072h1.168Zm6.833 6.72h1.92l-3.696-4.912 3.392-3.152h-2.016l-3.504 3.216V23.56h-1.568V35h1.568v-2.928l1.008-.928L352.286 35Zm8.411-2.624c-.224.912-.992 1.424-2.176 1.424-1.408 0-2.4-1.04-2.528-2.56h6.16c.016-.144.032-.4.032-.608 0-2.048-1.328-3.824-3.824-3.824-2.48 0-3.888 1.856-3.888 4.112 0 2.24 1.552 4.208 4.048 4.208 1.984 0 3.44-1.088 3.728-2.752h-1.552Zm-2.336-4.32c1.328 0 2.16.816 2.256 2.048h-4.576c.24-1.344 1.056-2.048 2.32-2.048Zm6.223-3.648v2.528h-1.648v1.344h1.648v4.08c0 1.648 1.04 2.64 2.672 2.64h1.264v-1.344h-1.136c-.784 0-1.248-.48-1.248-1.344V28.28h2.384v-1.344h-2.384v-2.528h-1.552Zm5.164-.848v1.952h1.728V23.56h-1.728Zm.096 11.44h1.552v-8.064h-1.552V35Zm3.515 0h1.552v-4.368c0-1.408.896-2.432 2.16-2.432 1.136 0 1.888.864 1.888 2.144V35h1.552v-4.96c0-1.92-1.184-3.232-3.008-3.232-1.2 0-2.16.544-2.592 1.552v-1.424h-1.552V35Zm15.173-8.064v1.072c-.496-.704-1.488-1.2-2.56-1.2-2.464 0-3.856 1.76-3.856 4.16s1.392 4.16 3.872 4.16c1.136 0 2.16-.464 2.544-1.152v1.312c0 .976-.672 1.68-1.6 1.68h-3.728v1.296h3.888c1.76 0 2.992-1.184 2.992-2.88v-8.448h-1.552Zm-2.368 6.832c-1.488 0-2.464-1.104-2.464-2.8s.976-2.8 2.464-2.8c1.504 0 2.48 1.104 2.48 2.8s-.976 2.8-2.48 2.8ZM531.284 137h4.352c2.32 0 3.76-1.248 3.76-3.28 0-1.536-.848-2.448-1.952-2.848.72-.32 1.44-1.152 1.44-2.192 0-1.84-1.36-2.88-3.456-2.88h-4.144V137Zm1.648-6.672v-3.136h2.4c1.264 0 1.936.544 1.936 1.568 0 1.04-.672 1.568-1.92 1.568h-2.416Zm0 5.2v-3.744h2.48c1.568 0 2.336.656 2.336 1.872s-.768 1.872-2.336 1.872h-2.48Zm12.755-5.248v-1.344h-.976c-1.136 0-1.776.48-2.144 1.552v-1.552h-1.552V137h1.552v-3.648c0-1.76.48-3.072 1.952-3.072h1.168Zm4.184-1.472c-1.904 0-3.344 1.184-3.472 2.768h1.44c.048-.816.864-1.52 1.984-1.52 1.248 0 1.952.672 1.952 1.648 0 .288-.176.48-.544.48h-1.68c-1.904 0-3.136.96-3.136 2.512 0 1.44 1.088 2.432 2.736 2.432 1.216 0 2.24-.576 2.624-1.44V137h1.552v-5.2c0-1.792-1.376-2.992-3.456-2.992Zm-.416 7.088c-.896 0-1.504-.496-1.504-1.232 0-.848.688-1.392 1.744-1.392h2.08v.192c0 1.488-.848 2.432-2.32 2.432Zm5.67 1.104h1.552v-4.368c0-1.408.896-2.432 2.16-2.432 1.136 0 1.888.864 1.888 2.144V137h1.552v-4.96c0-1.92-1.184-3.232-3.008-3.232-1.2 0-2.16.544-2.592 1.552v-1.424h-1.552V137Zm12.548.128c1.072 0 2.064-.528 2.544-1.328v1.2h1.552v-11.44h-1.552v4.56c-.48-.784-1.456-1.312-2.56-1.312-2.464 0-3.856 1.76-3.856 4.16s1.392 4.16 3.872 4.16Zm.176-1.36c-1.488 0-2.464-1.12-2.464-2.8s.976-2.8 2.464-2.8c1.504 0 2.48 1.12 2.48 2.8s-.976 2.8-2.48 2.8Zm9.795 1.232h3.44c3.12 0 5.648-1.952 5.648-5.6s-2.528-5.6-5.648-5.6h-3.44V137Zm1.664-1.472v-8.256h1.68c2.08 0 4.032 1.168 4.032 4.128s-1.952 4.128-4.032 4.128h-1.68Zm14.796-1.152c-.224.912-.992 1.424-2.176 1.424-1.408 0-2.4-1.04-2.528-2.56h6.16c.016-.144.032-.4.032-.608 0-2.048-1.328-3.824-3.824-3.824-2.48 0-3.888 1.856-3.888 4.112 0 2.24 1.552 4.208 4.048 4.208 1.984 0 3.44-1.088 3.728-2.752h-1.552Zm-2.336-4.32c1.328 0 2.16.816 2.256 2.048h-4.576c.24-1.344 1.056-2.048 2.32-2.048Zm8.158 7.072c1.824 0 3.024-.944 3.024-2.416 0-3.68-4.608-1.632-4.608-3.632 0-.624.56-1.04 1.392-1.04.688 0 1.584.368 1.696 1.296h1.456c-.08-1.52-1.328-2.528-3.152-2.528-1.68 0-2.864.928-2.864 2.32 0 3.44 4.576 1.472 4.576 3.616 0 .592-.592 1.088-1.52 1.088-1.04 0-1.712-.528-1.808-1.456h-1.456c.112 1.696 1.376 2.752 3.264 2.752Zm4.54-11.568v1.952h1.728v-1.952h-1.728Zm.096 11.44h1.552v-8.064h-1.552V137Zm9.548-8.064v1.072c-.496-.704-1.488-1.2-2.56-1.2-2.464 0-3.856 1.76-3.856 4.16s1.392 4.16 3.872 4.16c1.136 0 2.16-.464 2.544-1.152v1.312c0 .976-.672 1.68-1.6 1.68h-3.728v1.296h3.888c1.76 0 2.992-1.184 2.992-2.88v-8.448h-1.552Zm-2.368 6.832c-1.488 0-2.464-1.104-2.464-2.8s.976-2.8 2.464-2.8c1.504 0 2.48 1.104 2.48 2.8s-.976 2.8-2.48 2.8Zm5.961 1.232h1.552v-4.368c0-1.408.896-2.432 2.16-2.432 1.136 0 1.888.864 1.888 2.144V137h1.552v-4.96c0-1.92-1.184-3.232-3.008-3.232-1.2 0-2.16.544-2.592 1.552v-1.424h-1.552V137Zm-66.327 20-2.096-2.288.416-.688c.304-.496.848-.928 1.536-.928v-1.472c-.816 0-1.568.16-2.288 1.312l-.576.784-2.144-2.352c1.2-.624 2.32-1.424 2.32-3.072 0-1.552-1.184-2.624-2.88-2.624-1.712 0-2.896 1.104-2.896 2.72 0 .848.576 1.712 1.264 2.496-1.184.624-2.256 1.424-2.256 3.04 0 2 1.408 3.2 3.568 3.2 1.136 0 2.272-.384 3.168-1.344l1.12 1.216h1.744Zm-7.168-8.624c0-.864.592-1.472 1.456-1.472s1.456.56 1.456 1.376c0 .976-.848 1.504-1.872 2-.496-.576-1.04-1.28-1.04-1.904Zm1.136 7.376c-1.296 0-2.064-.672-2.064-1.808 0-.96.768-1.488 1.728-1.984l2.576 2.816a3.006 3.006 0 0 1-2.24.976Zm16.213 1.376c2.592 0 4.592-1.536 4.832-3.728h-1.68c-.176 1.312-1.504 2.256-3.168 2.256-2.176 0-3.744-1.488-3.744-4.256s1.568-4.256 3.744-4.256c1.632 0 2.944.944 3.136 2.256h1.744c-.304-2.192-2.32-3.728-4.864-3.728-2.848 0-5.472 1.888-5.472 5.728s2.592 5.728 5.472 5.728Zm10.045 0c2.416 0 4.144-1.744 4.144-4.16s-1.728-4.16-4.144-4.16-4.16 1.744-4.16 4.16 1.744 4.16 4.16 4.16Zm0-1.36c-1.536 0-2.576-1.152-2.576-2.8s1.04-2.8 2.576-2.8c1.52 0 2.56 1.152 2.56 2.8s-1.04 2.8-2.56 2.8Zm5.663 1.232h1.552v-4.368c0-1.408.896-2.432 2.16-2.432 1.136 0 1.888.864 1.888 2.144V157h1.552v-4.96c0-1.92-1.184-3.232-3.008-3.232-1.2 0-2.16.544-2.592 1.552v-1.424h-1.552V157Zm9.788-10.592v2.528h-1.648v1.344h1.648v4.08c0 1.648 1.04 2.64 2.672 2.64h1.264v-1.344h-1.136c-.784 0-1.248-.48-1.248-1.344v-4.032h2.384v-1.344h-2.384v-2.528h-1.552Zm10.832 7.968c-.224.912-.992 1.424-2.176 1.424-1.408 0-2.4-1.04-2.528-2.56h6.16c.016-.144.032-.4.032-.608 0-2.048-1.328-3.824-3.824-3.824-2.48 0-3.888 1.856-3.888 4.112 0 2.24 1.552 4.208 4.048 4.208 1.984 0 3.44-1.088 3.728-2.752h-1.552Zm-2.336-4.32c1.328 0 2.16.816 2.256 2.048h-4.576c.24-1.344 1.056-2.048 2.32-2.048Zm5.404 6.944h1.552v-4.368c0-1.408.896-2.432 2.16-2.432 1.136 0 1.888.864 1.888 2.144V157h1.552v-4.96c0-1.92-1.184-3.232-3.008-3.232-1.2 0-2.16.544-2.592 1.552v-1.424h-1.552V157Zm9.787-10.592v2.528h-1.648v1.344h1.648v4.08c0 1.648 1.04 2.64 2.672 2.64h1.264v-1.344h-1.136c-.784 0-1.248-.48-1.248-1.344v-4.032h2.384v-1.344h-2.384v-2.528h-1.552ZM540.808 316h1.664v-11.2h-1.664V316Zm3.793 0h1.552v-4.368c0-1.408.896-2.432 2.16-2.432 1.136 0 1.888.864 1.888 2.144V316h1.552v-4.96c0-1.92-1.184-3.232-3.008-3.232-1.2 0-2.16.544-2.592 1.552v-1.424h-1.552V316Zm9.788-10.592v2.528h-1.648v1.344h1.648v4.08c0 1.648 1.04 2.64 2.672 2.64h1.264v-1.344h-1.136c-.784 0-1.248-.48-1.248-1.344v-4.032h2.384v-1.344h-2.384v-2.528h-1.552Zm10.832 7.968c-.224.912-.992 1.424-2.176 1.424-1.408 0-2.4-1.04-2.528-2.56h6.16c.016-.144.032-.4.032-.608 0-2.048-1.328-3.824-3.824-3.824-2.48 0-3.888 1.856-3.888 4.112 0 2.24 1.552 4.208 4.048 4.208 1.984 0 3.44-1.088 3.728-2.752h-1.552Zm-2.336-4.32c1.328 0 2.16.816 2.256 2.048h-4.576c.24-1.344 1.056-2.048 2.32-2.048Zm11.436-1.12v1.072c-.496-.704-1.488-1.2-2.56-1.2-2.464 0-3.856 1.76-3.856 4.16s1.392 4.16 3.872 4.16c1.136 0 2.16-.464 2.544-1.152v1.312c0 .976-.672 1.68-1.6 1.68h-3.728v1.296h3.888c1.76 0 2.992-1.184 2.992-2.88v-8.448h-1.552Zm-2.368 6.832c-1.488 0-2.464-1.104-2.464-2.8s.976-2.8 2.464-2.8c1.504 0 2.48 1.104 2.48 2.8s-.976 2.8-2.48 2.8Zm10.633-5.488v-1.344h-.976c-1.136 0-1.776.48-2.144 1.552v-1.552h-1.552V316h1.552v-3.648c0-1.76.48-3.072 1.952-3.072h1.168Zm4.183-1.472c-1.904 0-3.344 1.184-3.472 2.768h1.44c.048-.816.864-1.52 1.984-1.52 1.248 0 1.952.672 1.952 1.648 0 .288-.176.48-.544.48h-1.68c-1.904 0-3.136.96-3.136 2.512 0 1.44 1.088 2.432 2.736 2.432 1.216 0 2.24-.576 2.624-1.44V316h1.552v-5.2c0-1.792-1.376-2.992-3.456-2.992Zm-.416 7.088c-.896 0-1.504-.496-1.504-1.232 0-.848.688-1.392 1.744-1.392h2.08v.192c0 1.488-.848 2.432-2.32 2.432Zm6.52-9.488v2.528h-1.648v1.344h1.648v4.08c0 1.648 1.04 2.64 2.672 2.64h1.264v-1.344h-1.136c-.784 0-1.248-.48-1.248-1.344v-4.032h2.384v-1.344h-2.384v-2.528h-1.552Zm10.832 7.968c-.224.912-.992 1.424-2.176 1.424-1.408 0-2.4-1.04-2.528-2.56h6.16c.016-.144.032-.4.032-.608 0-2.048-1.328-3.824-3.824-3.824-2.48 0-3.888 1.856-3.888 4.112 0 2.24 1.552 4.208 4.048 4.208 1.984 0 3.44-1.088 3.728-2.752h-1.552Zm-2.336-4.32c1.328 0 2.16.816 2.256 2.048h-4.576c.24-1.344 1.056-2.048 2.32-2.048Zm8.812 7.072c1.072 0 2.064-.528 2.544-1.328v1.2h1.552v-11.44h-1.552v4.56c-.48-.784-1.456-1.312-2.56-1.312-2.464 0-3.856 1.76-3.856 4.16s1.392 4.16 3.872 4.16Zm.176-1.36c-1.488 0-2.464-1.12-2.464-2.8s.976-2.8 2.464-2.8c1.504 0 2.48 1.12 2.48 2.8s-.976 2.8-2.48 2.8Zm-67.159 21.36c2.592 0 4.592-1.536 4.832-3.728h-1.68c-.176 1.312-1.504 2.256-3.168 2.256-2.176 0-3.744-1.488-3.744-4.256s1.568-4.256 3.744-4.256c1.632 0 2.944.944 3.136 2.256h1.744c-.304-2.192-2.32-3.728-4.864-3.728-2.848 0-5.472 1.888-5.472 5.728s2.592 5.728 5.472 5.728Zm10.045 0c2.416 0 4.144-1.744 4.144-4.16s-1.728-4.16-4.144-4.16-4.16 1.744-4.16 4.16 1.744 4.16 4.16 4.16Zm0-1.36c-1.536 0-2.576-1.152-2.576-2.8s1.04-2.8 2.576-2.8c1.52 0 2.56 1.152 2.56 2.8s-1.04 2.8-2.56 2.8Zm5.663 1.232h1.552v-4.688c0-1.28.736-2.144 1.968-2.144 1.056 0 1.696.864 1.696 2.144V336h1.552v-4.688c0-1.28.736-2.144 1.968-2.144 1.072 0 1.712.864 1.712 2.144V336h1.552v-5.12c0-1.872-1.088-3.072-2.832-3.072-1.248 0-2.304.736-2.624 1.648-.32-1.056-1.296-1.648-2.608-1.648-1.184 0-2.048.656-2.384 1.568v-1.44h-1.552V336Zm13.984 0h1.552v-4.688c0-1.28.736-2.144 1.968-2.144 1.056 0 1.696.864 1.696 2.144V336h1.552v-4.688c0-1.28.736-2.144 1.968-2.144 1.072 0 1.712.864 1.712 2.144V336h1.552v-5.12c0-1.872-1.088-3.072-2.832-3.072-1.248 0-2.304.736-2.624 1.648-.32-1.056-1.296-1.648-2.608-1.648-1.184 0-2.048.656-2.384 1.568v-1.44h-1.552V336Zm19.745-2.624c-.224.912-.992 1.424-2.176 1.424-1.408 0-2.4-1.04-2.528-2.56h6.16c.016-.144.032-.4.032-.608 0-2.048-1.328-3.824-3.824-3.824-2.48 0-3.888 1.856-3.888 4.112 0 2.24 1.552 4.208 4.048 4.208 1.984 0 3.44-1.088 3.728-2.752h-1.552Zm-2.336-4.32c1.328 0 2.16.816 2.256 2.048h-4.576c.24-1.344 1.056-2.048 2.32-2.048Zm10.076.224v-1.344h-.976c-1.136 0-1.776.48-2.144 1.552v-1.552h-1.552V336h1.552v-3.648c0-1.76.48-3.072 1.952-3.072h1.168Zm4.473 6.848c2.048 0 3.488-1.152 3.744-2.848h-1.536c-.256.912-1.072 1.488-2.176 1.488-1.6 0-2.416-1.248-2.416-2.8s.8-2.8 2.416-2.8c1.088 0 2.016.672 2.16 1.584h1.552c-.224-1.824-1.856-2.944-3.744-2.944-2.544 0-4 1.936-4 4.16s1.456 4.16 4 4.16Zm10.974-2.752c-.224.912-.992 1.424-2.176 1.424-1.408 0-2.4-1.04-2.528-2.56h6.16c.016-.144.032-.4.032-.608 0-2.048-1.328-3.824-3.824-3.824-2.48 0-3.888 1.856-3.888 4.112 0 2.24 1.552 4.208 4.048 4.208 1.984 0 3.44-1.088 3.728-2.752h-1.552Zm-2.336-4.32c1.328 0 2.16.816 2.256 2.048h-4.576c.24-1.344 1.056-2.048 2.32-2.048ZM326.839 444.128c2.4 0 4.128-1.2 4.128-3.248 0-4.272-6.384-2.464-6.384-5.184 0-.944.816-1.552 2.16-1.552 1.376 0 2.272.752 2.384 1.904h1.616c-.144-2.048-1.712-3.376-4-3.376-2.256 0-3.824 1.232-3.824 3.024 0 4.128 6.352 2.512 6.352 5.2 0 1.216-1.024 1.76-2.432 1.76-1.584 0-2.528-.928-2.656-2.368h-1.616c.128 2.32 1.744 3.84 4.272 3.84Zm6.558-10.72v2.528h-1.648v1.344h1.648v4.08c0 1.648 1.04 2.64 2.672 2.64h1.264v-1.344h-1.136c-.784 0-1.248-.48-1.248-1.344v-4.032h2.384v-1.344h-2.384v-2.528h-1.552Zm9.931 3.872v-1.344h-.976c-1.136 0-1.776.48-2.144 1.552v-1.552h-1.552V444h1.552v-3.648c0-1.76.48-3.072 1.952-3.072h1.168Zm4.184-1.472c-1.904 0-3.344 1.184-3.472 2.768h1.44c.048-.816.864-1.52 1.984-1.52 1.248 0 1.952.672 1.952 1.648 0 .288-.176.48-.544.48h-1.68c-1.904 0-3.136.96-3.136 2.512 0 1.44 1.088 2.432 2.736 2.432 1.216 0 2.24-.576 2.624-1.44V444h1.552v-5.2c0-1.792-1.376-2.992-3.456-2.992Zm-.416 7.088c-.896 0-1.504-.496-1.504-1.232 0-.848.688-1.392 1.744-1.392h2.08v.192c0 1.488-.848 2.432-2.32 2.432Zm6.519-9.488v2.528h-1.648v1.344h1.648v4.08c0 1.648 1.04 2.64 2.672 2.64h1.264v-1.344h-1.136c-.784 0-1.248-.48-1.248-1.344v-4.032h2.384v-1.344h-2.384v-2.528h-1.552Zm10.832 7.968c-.224.912-.992 1.424-2.176 1.424-1.408 0-2.4-1.04-2.528-2.56h6.16c.016-.144.032-.4.032-.608 0-2.048-1.328-3.824-3.824-3.824-2.48 0-3.888 1.856-3.888 4.112 0 2.24 1.552 4.208 4.048 4.208 1.984 0 3.44-1.088 3.728-2.752h-1.552Zm-2.336-4.32c1.328 0 2.16.816 2.256 2.048h-4.576c.24-1.344 1.056-2.048 2.32-2.048Zm11.436-1.12v1.072c-.496-.704-1.488-1.2-2.56-1.2-2.464 0-3.856 1.76-3.856 4.16s1.392 4.16 3.872 4.16c1.136 0 2.16-.464 2.544-1.152v1.312c0 .976-.672 1.68-1.6 1.68h-3.728v1.296h3.888c1.76 0 2.992-1.184 2.992-2.88v-8.448h-1.552Zm-2.368 6.832c-1.488 0-2.464-1.104-2.464-2.8s.976-2.8 2.464-2.8c1.504 0 2.48 1.104 2.48 2.8s-.976 2.8-2.48 2.8Zm12.585-6.832h-1.6l-2.128 6.048-2.112-6.048h-1.6l2.992 8.144-1.088 3.184h1.488l1.216-3.552 2.832-7.776ZM318.478 464l-2.096-2.288.416-.688c.304-.496.848-.928 1.536-.928v-1.472c-.816 0-1.568.16-2.288 1.312l-.576.784-2.144-2.352c1.2-.624 2.32-1.424 2.32-3.072 0-1.552-1.184-2.624-2.88-2.624-1.712 0-2.896 1.104-2.896 2.72 0 .848.576 1.712 1.264 2.496-1.184.624-2.256 1.424-2.256 3.04 0 2 1.408 3.2 3.568 3.2 1.136 0 2.272-.384 3.168-1.344l1.12 1.216h1.744Zm-7.168-8.624c0-.864.592-1.472 1.456-1.472s1.456.56 1.456 1.376c0 .976-.848 1.504-1.872 2-.496-.576-1.04-1.28-1.04-1.904Zm1.136 7.376c-1.296 0-2.064-.672-2.064-1.808 0-.96.768-1.488 1.728-1.984l2.576 2.816a3.006 3.006 0 0 1-2.24.976ZM323.699 464h1.664v-11.2h-1.664V464Zm3.793 0h1.552v-4.368c0-1.408.896-2.432 2.16-2.432 1.136 0 1.888.864 1.888 2.144V464h1.552v-4.96c0-1.92-1.184-3.232-3.008-3.232-1.2 0-2.16.544-2.592 1.552v-1.424h-1.552V464Zm9.141 0h1.552v-4.368c0-1.408.896-2.432 2.16-2.432 1.136 0 1.888.864 1.888 2.144V464h1.552v-4.96c0-1.92-1.184-3.232-3.008-3.232-1.2 0-2.16.544-2.592 1.552v-1.424h-1.552V464Zm12.836.128c2.416 0 4.144-1.744 4.144-4.16s-1.728-4.16-4.144-4.16-4.16 1.744-4.16 4.16 1.744 4.16 4.16 4.16Zm0-1.36c-1.536 0-2.576-1.152-2.576-2.8s1.04-2.8 2.576-2.8c1.52 0 2.56 1.152 2.56 2.8s-1.04 2.8-2.56 2.8Zm7.526 1.232h1.536l2.944-8.064h-1.6l-2.128 6.112-2.112-6.112h-1.6l2.96 8.064Zm8.524-8.192c-1.904 0-3.344 1.184-3.472 2.768h1.44c.048-.816.864-1.52 1.984-1.52 1.248 0 1.952.672 1.952 1.648 0 .288-.176.48-.544.48h-1.68c-1.904 0-3.136.96-3.136 2.512 0 1.44 1.088 2.432 2.736 2.432 1.216 0 2.24-.576 2.624-1.44V464h1.552v-5.2c0-1.792-1.376-2.992-3.456-2.992Zm-.416 7.088c-.896 0-1.504-.496-1.504-1.232 0-.848.688-1.392 1.744-1.392h2.08v.192c0 1.488-.848 2.432-2.32 2.432Zm6.52-9.488v2.528h-1.648v1.344h1.648v4.08c0 1.648 1.04 2.64 2.672 2.64h1.264v-1.344h-1.136c-.784 0-1.248-.48-1.248-1.344v-4.032h2.384v-1.344h-2.384v-2.528h-1.552Zm5.164-.848v1.952h1.728v-1.952h-1.728Zm.096 11.44h1.552v-8.064h-1.552V464Zm7.211.128c2.416 0 4.144-1.744 4.144-4.16s-1.728-4.16-4.144-4.16-4.16 1.744-4.16 4.16 1.744 4.16 4.16 4.16Zm0-1.36c-1.536 0-2.576-1.152-2.576-2.8s1.04-2.8 2.576-2.8c1.52 0 2.56 1.152 2.56 2.8s-1.04 2.8-2.56 2.8Zm5.664 1.232h1.552v-4.368c0-1.408.896-2.432 2.16-2.432 1.136 0 1.888.864 1.888 2.144V464h1.552v-4.96c0-1.92-1.184-3.232-3.008-3.232-1.2 0-2.16.544-2.592 1.552v-1.424h-1.552V464ZM87.456 316h1.664v-4.448h2.672c2.256 0 3.616-1.392 3.616-3.376s-1.36-3.376-3.616-3.376h-4.336V316Zm1.664-5.888v-3.872h2.624c1.44 0 2 .912 2 1.936s-.56 1.936-2 1.936H89.12Zm13.109 3.264c-.224.912-.992 1.424-2.176 1.424-1.408 0-2.4-1.04-2.528-2.56h6.16c.016-.144.032-.4.032-.608 0-2.048-1.328-3.824-3.824-3.824-2.48 0-3.888 1.856-3.888 4.112 0 2.24 1.552 4.208 4.048 4.208 1.984 0 3.44-1.088 3.728-2.752h-1.552Zm-2.336-4.32c1.328 0 2.16.816 2.256 2.048h-4.576c.24-1.344 1.056-2.048 2.32-2.048ZM110.529 316h1.552v-6.72h2.432v-1.344h-2.432v-.736c0-.8.48-1.296 1.216-1.296h1.216v-1.344h-1.328c-1.616 0-2.656 1.008-2.656 2.592V316Zm-.72-6.72v-1.344h-.816c-1.136 0-1.776.48-2.144 1.552v-1.552h-1.552V316h1.552v-3.648c0-1.76.48-3.072 1.952-3.072h1.008Zm9.231 6.848c2.416 0 4.144-1.744 4.144-4.16s-1.728-4.16-4.144-4.16-4.16 1.744-4.16 4.16 1.744 4.16 4.16 4.16Zm0-1.36c-1.536 0-2.576-1.152-2.576-2.8s1.04-2.8 2.576-2.8c1.52 0 2.56 1.152 2.56 2.8s-1.04 2.8-2.56 2.8Zm10.335-5.488v-1.344h-.976c-1.136 0-1.776.48-2.144 1.552v-1.552h-1.552V316h1.552v-3.648c0-1.76.48-3.072 1.952-3.072h1.168Zm1.281 6.72h1.552v-4.688c0-1.28.736-2.144 1.968-2.144 1.056 0 1.696.864 1.696 2.144V316h1.552v-4.688c0-1.28.736-2.144 1.968-2.144 1.072 0 1.712.864 1.712 2.144V316h1.552v-5.12c0-1.872-1.088-3.072-2.832-3.072-1.248 0-2.304.736-2.624 1.648-.32-1.056-1.296-1.648-2.608-1.648-1.184 0-2.048.656-2.384 1.568v-1.44h-1.552V316Zm17.043-8.192c-1.904 0-3.344 1.184-3.472 2.768h1.44c.048-.816.864-1.52 1.984-1.52 1.248 0 1.952.672 1.952 1.648 0 .288-.176.48-.544.48h-1.68c-1.904 0-3.136.96-3.136 2.512 0 1.44 1.088 2.432 2.736 2.432 1.216 0 2.24-.576 2.624-1.44V316h1.552v-5.2c0-1.792-1.376-2.992-3.456-2.992Zm-.416 7.088c-.896 0-1.504-.496-1.504-1.232 0-.848.688-1.392 1.744-1.392h2.08v.192c0 1.488-.848 2.432-2.32 2.432Zm5.67 1.104h1.552v-4.368c0-1.408.896-2.432 2.16-2.432 1.136 0 1.888.864 1.888 2.144V316h1.552v-4.96c0-1.92-1.184-3.232-3.008-3.232-1.2 0-2.16.544-2.592 1.552v-1.424h-1.552V316Zm12.677.128c2.048 0 3.488-1.152 3.744-2.848h-1.536c-.256.912-1.072 1.488-2.176 1.488-1.6 0-2.416-1.248-2.416-2.8s.8-2.8 2.416-2.8c1.088 0 2.016.672 2.16 1.584h1.552c-.224-1.824-1.856-2.944-3.744-2.944-2.544 0-4 1.936-4 4.16s1.456 4.16 4 4.16Zm10.974-2.752c-.224.912-.992 1.424-2.176 1.424-1.408 0-2.4-1.04-2.528-2.56h6.16c.016-.144.032-.4.032-.608 0-2.048-1.328-3.824-3.824-3.824-2.48 0-3.888 1.856-3.888 4.112 0 2.24 1.552 4.208 4.048 4.208 1.984 0 3.44-1.088 3.728-2.752h-1.552Zm-2.336-4.32c1.328 0 2.16.816 2.256 2.048h-4.576c.24-1.344 1.056-2.048 2.32-2.048ZM111.73 336h1.584v-8.336l3.36 8.336h1.344l3.344-8.336V336h1.6v-11.2h-2.048l-3.568 8.928-3.568-8.928h-2.048V336Zm19.116-2.624c-.224.912-.992 1.424-2.176 1.424-1.408 0-2.4-1.04-2.528-2.56h6.16c.016-.144.032-.4.032-.608 0-2.048-1.328-3.824-3.824-3.824-2.48 0-3.888 1.856-3.888 4.112 0 2.24 1.552 4.208 4.048 4.208 1.984 0 3.44-1.088 3.728-2.752h-1.552Zm-2.336-4.32c1.328 0 2.16.816 2.256 2.048h-4.576c.24-1.344 1.056-2.048 2.32-2.048Zm8.812 7.072c1.072 0 2.064-.528 2.544-1.328v1.2h1.552v-11.44h-1.552v4.56c-.48-.784-1.456-1.312-2.56-1.312-2.464 0-3.856 1.76-3.856 4.16s1.392 4.16 3.872 4.16Zm.176-1.36c-1.488 0-2.464-1.12-2.464-2.8s.976-2.8 2.464-2.8c1.504 0 2.48 1.12 2.48 2.8s-.976 2.8-2.48 2.8Zm5.867-10.208v1.952h1.728v-1.952h-1.728Zm.096 11.44h1.552v-8.064h-1.552V336Zm6.683-8.192c-1.904 0-3.344 1.184-3.472 2.768h1.44c.048-.816.864-1.52 1.984-1.52 1.248 0 1.952.672 1.952 1.648 0 .288-.176.48-.544.48h-1.68c-1.904 0-3.136.96-3.136 2.512 0 1.44 1.088 2.432 2.736 2.432 1.216 0 2.24-.576 2.624-1.44V336h1.552v-5.2c0-1.792-1.376-2.992-3.456-2.992Zm-.416 7.088c-.896 0-1.504-.496-1.504-1.232 0-.848.688-1.392 1.744-1.392h2.08v.192c0 1.488-.848 2.432-2.32 2.432ZM84.34 137h1.583v-8.336l3.36 8.336h1.344l3.344-8.336V137h1.6v-11.2h-2.048l-3.568 8.928-3.568-8.928H84.34V137Zm19.115-2.624c-.224.912-.992 1.424-2.176 1.424-1.408 0-2.4-1.04-2.528-2.56h6.16c.016-.144.032-.4.032-.608 0-2.048-1.328-3.824-3.824-3.824-2.48 0-3.888 1.856-3.888 4.112 0 2.24 1.552 4.208 4.048 4.208 1.984 0 3.44-1.088 3.728-2.752h-1.552Zm-2.336-4.32c1.328 0 2.16.816 2.256 2.048h-4.576c.24-1.344 1.056-2.048 2.32-2.048Zm8.51-1.248c-1.904 0-3.344 1.184-3.472 2.768h1.44c.048-.816.864-1.52 1.984-1.52 1.248 0 1.952.672 1.952 1.648 0 .288-.176.48-.544.48h-1.68c-1.904 0-3.136.96-3.136 2.512 0 1.44 1.088 2.432 2.736 2.432 1.216 0 2.24-.576 2.624-1.44V137h1.552v-5.2c0-1.792-1.376-2.992-3.456-2.992Zm-.416 7.088c-.896 0-1.504-.496-1.504-1.232 0-.848.688-1.392 1.744-1.392h2.08v.192c0 1.488-.848 2.432-2.32 2.432Zm8.502 1.232c1.824 0 3.024-.944 3.024-2.416 0-3.68-4.608-1.632-4.608-3.632 0-.624.56-1.04 1.392-1.04.688 0 1.584.368 1.696 1.296h1.456c-.08-1.52-1.328-2.528-3.152-2.528-1.68 0-2.864.928-2.864 2.32 0 3.44 4.576 1.472 4.576 3.616 0 .592-.592 1.088-1.52 1.088-1.04 0-1.712-.528-1.808-1.456h-1.456c.112 1.696 1.376 2.752 3.264 2.752Zm11.788-8.192h-1.552v4.368c0 1.408-.896 2.432-2.16 2.432-1.136 0-1.888-.864-1.888-2.144v-4.656h-1.552v4.96c0 1.92 1.184 3.232 3.008 3.232 1.2 0 2.16-.544 2.592-1.552V137h1.552v-8.064Zm6.661 1.344v-1.344h-.976c-1.136 0-1.776.48-2.144 1.552v-1.552h-1.552V137h1.552v-3.648c0-1.76.48-3.072 1.952-3.072h1.168Zm6.697 4.096c-.224.912-.992 1.424-2.176 1.424-1.408 0-2.4-1.04-2.528-2.56h6.16c.016-.144.032-.4.032-.608 0-2.048-1.328-3.824-3.824-3.824-2.48 0-3.888 1.856-3.888 4.112 0 2.24 1.552 4.208 4.048 4.208 1.984 0 3.44-1.088 3.728-2.752h-1.552Zm-2.336-4.32c1.328 0 2.16.816 2.256 2.048h-4.576c.24-1.344 1.056-2.048 2.32-2.048ZM145.93 137h1.552v-4.688c0-1.28.736-2.144 1.968-2.144 1.056 0 1.696.864 1.696 2.144V137h1.552v-4.688c0-1.28.736-2.144 1.968-2.144 1.072 0 1.712.864 1.712 2.144V137h1.552v-5.12c0-1.872-1.088-3.072-2.832-3.072-1.248 0-2.304.736-2.624 1.648-.32-1.056-1.296-1.648-2.608-1.648-1.184 0-2.048.656-2.384 1.568v-1.44h-1.552V137Zm19.744-2.624c-.224.912-.992 1.424-2.176 1.424-1.408 0-2.4-1.04-2.528-2.56h6.16c.016-.144.032-.4.032-.608 0-2.048-1.328-3.824-3.824-3.824-2.48 0-3.888 1.856-3.888 4.112 0 2.24 1.552 4.208 4.048 4.208 1.984 0 3.44-1.088 3.728-2.752h-1.552Zm-2.336-4.32c1.328 0 2.16.816 2.256 2.048h-4.576c.24-1.344 1.056-2.048 2.32-2.048Zm5.404 6.944h1.552v-4.368c0-1.408.896-2.432 2.16-2.432 1.136 0 1.888.864 1.888 2.144V137h1.552v-4.96c0-1.92-1.184-3.232-3.008-3.232-1.2 0-2.16.544-2.592 1.552v-1.424h-1.552V137Zm9.787-10.592v2.528h-1.648v1.344h1.648v4.08c0 1.648 1.04 2.64 2.672 2.64h1.264v-1.344h-1.136c-.784 0-1.248-.48-1.248-1.344v-4.032h2.384v-1.344h-2.384v-2.528h-1.552ZM103.486 157l-2.096-2.288.416-.688c.304-.496.848-.928 1.536-.928v-1.472c-.816 0-1.568.16-2.288 1.312l-.576.784-2.144-2.352c1.2-.624 2.32-1.424 2.32-3.072 0-1.552-1.184-2.624-2.88-2.624-1.712 0-2.896 1.104-2.896 2.72 0 .848.576 1.712 1.264 2.496-1.184.624-2.256 1.424-2.256 3.04 0 2 1.408 3.2 3.568 3.2 1.136 0 2.272-.384 3.168-1.344l1.12 1.216h1.744Zm-7.168-8.624c0-.864.592-1.472 1.456-1.472s1.456.56 1.456 1.376c0 .976-.848 1.504-1.872 2-.496-.576-1.04-1.28-1.04-1.904Zm1.136 7.376c-1.296 0-2.064-.672-2.064-1.808 0-.96.768-1.488 1.728-1.984l2.576 2.816a3.006 3.006 0 0 1-2.24.976ZM116.29 157h1.728l-4.4-11.2h-1.536l-4.4 11.2h1.712l1.072-2.848h4.752L116.29 157Zm-5.264-4.304 1.824-4.816 1.824 4.816h-3.648Zm8.083 4.304h1.552v-4.368c0-1.408.896-2.432 2.16-2.432 1.136 0 1.888.864 1.888 2.144V157h1.552v-4.96c0-1.92-1.184-3.232-3.008-3.232-1.2 0-2.16.544-2.592 1.552v-1.424h-1.552V157Zm12.199-8.192c-1.904 0-3.344 1.184-3.472 2.768h1.44c.048-.816.864-1.52 1.984-1.52 1.248 0 1.952.672 1.952 1.648 0 .288-.176.48-.544.48h-1.68c-1.904 0-3.136.96-3.136 2.512 0 1.44 1.088 2.432 2.736 2.432 1.216 0 2.24-.576 2.624-1.44V157h1.552v-5.2c0-1.792-1.376-2.992-3.456-2.992Zm-.416 7.088c-.896 0-1.504-.496-1.504-1.232 0-.848.688-1.392 1.744-1.392h2.08v.192c0 1.488-.848 2.432-2.32 2.432Zm5.75 1.104h1.552v-11.44h-1.552V157Zm10.232-8.064h-1.6l-2.128 6.048-2.112-6.048h-1.6l2.992 8.144-1.088 3.184h1.488l1.216-3.552 2.832-7.776Zm2.101-2.528v2.528h-1.648v1.344h1.648v4.08c0 1.648 1.04 2.64 2.672 2.64h1.264v-1.344h-1.136c-.784 0-1.248-.48-1.248-1.344v-4.032h2.384v-1.344h-2.384v-2.528h-1.552Zm5.163-.848v1.952h1.728v-1.952h-1.728Zm.096 11.44h1.552v-8.064h-1.552V157Zm7.052.128c2.048 0 3.488-1.152 3.744-2.848h-1.536c-.256.912-1.072 1.488-2.176 1.488-1.6 0-2.416-1.248-2.416-2.8s.8-2.8 2.416-2.8c1.088 0 2.016.672 2.16 1.584h1.552c-.224-1.824-1.856-2.944-3.744-2.944-2.544 0-4 1.936-4 4.16s1.456 4.16 4 4.16Zm7.968 0c1.824 0 3.024-.944 3.024-2.416 0-3.68-4.608-1.632-4.608-3.632 0-.624.56-1.04 1.392-1.04.688 0 1.584.368 1.696 1.296h1.456c-.08-1.52-1.328-2.528-3.152-2.528-1.68 0-2.864.928-2.864 2.32 0 3.44 4.576 1.472 4.576 3.616 0 .592-.592 1.088-1.52 1.088-1.04 0-1.712-.528-1.808-1.456h-1.456c.112 1.696 1.376 2.752 3.264 2.752Z"/><path d="M353.474 57 199.5 145.699V323.25L353.577 412 507.5 323.25V145.801L353.474 57Zm74.88 133.048-73.646 42.445v-84.942h49.132l24.514 42.497Zm-21.893-42.446 95.54.052-71.642 41.313-23.898-41.365Zm-51.805-2.315V62.659l47.796 82.628h-47.796Zm-2.312 0h-47.796l47.796-82.628v82.628Zm0 2.315v84.943l-73.698-42.497 24.566-42.446h49.132Zm-75.651 41.262-71.694-41.313 95.592.051-23.898 41.262Zm-1.182 2.007-23.898 41.314-47.796-82.628 71.694 41.314Zm2.004 1.132 73.698 42.497-73.698 42.446-24.566-42.497 24.566-42.446Zm-1.953 86.126-71.745 41.314 47.796-82.679 23.949 41.365Zm1.131 2.007 23.898 41.313h-95.592l71.694-41.313Zm2.004-1.184 73.698-42.445v84.942h-49.132l-24.566-42.497Zm73.698 44.812v82.628l-47.796-82.628h47.796Zm2.313 0h47.796l-47.796 82.628v-82.628Zm0-2.315v-84.942l73.698 42.497-24.566 42.445h-49.132Zm75.702-41.313 71.642 41.313h-95.54l23.898-41.313Zm1.131-2.007 23.846-41.262 47.745 82.576-71.591-41.314Zm-2.005-1.132L355.838 234.5l73.647-42.446 24.566 42.497-24.515 42.446Zm2.005-86.075 71.642-41.313-47.744 82.627-23.898-41.314Zm-26.416-45.635-48.464-83.81 145.34 83.81h-96.876Zm-103.25-.051-96.927-.052 145.391-83.708-48.464 83.76Zm-51.598 89.213-48.464 83.81v-167.57l48.464 83.76Zm51.65 89.315 48.464 83.76-145.443-83.76h96.979Zm103.249 0h96.825l-145.238 83.76 48.413-83.76Zm51.599-89.213 48.412-83.759v167.519l-48.412-83.76Z" style="isolation:isolate;opacity:.12;fill:#1226aa"/><circle class="cls-5" cx="201.5" cy="147" r="8"/><path class="cls-3" d="M201.65 145.797c-.576 0-1.206.315-1.467.756.054-1.107.63-1.935 1.476-1.935.612 0 1.053.333 1.152.801h1.116c-.135-1.008-1.017-1.791-2.313-1.791-1.494 0-2.538 1.242-2.538 3.447 0 1.719.864 2.997 2.439 2.997 1.323 0 2.34-.927 2.34-2.151 0-1.206-.891-2.124-2.205-2.124Zm-.108 3.24c-.675 0-1.134-.459-1.134-1.116 0-.648.459-1.107 1.134-1.107.666 0 1.116.459 1.116 1.107 0 .657-.45 1.116-1.116 1.116Z"/><circle class="cls-5" cx="353.5" cy="60" r="8"/><path class="cls-3" d="M354.612 56.7h-1.134c-.072.684-.36.882-.846.882h-.45v1.026h.495c.261 0 .63-.081.747-.243V63h1.188v-6.3Z"/><circle class="cls-5" cx="507.5" cy="147" r="8"/><path class="cls-3" d="M505.37 145.887h1.197c-.018-.765.36-1.278 1.035-1.278.612 0 .999.378.999.963 0 .459-.261.819-.774 1.071l-1.008.504c-.603.297-1.458.963-1.458 1.98l.009.873h4.428v-1.035h-3.258c0-.387.432-.693.792-.882l.972-.486c.999-.495 1.494-1.17 1.494-2.016 0-1.179-.9-1.953-2.196-1.953-1.377 0-2.259.864-2.232 2.259Z"/><circle class="cls-5" cx="201.5" cy="322" r="8"/><path class="cls-3" d="M201.458 325.072c1.368 0 2.385-.9 2.385-2.169 0-1.224-.909-2.151-2.151-2.151-.513 0-.909.18-1.152.396l.216-1.422h2.655V318.7h-3.537l-.522 3.6h1.026c.189-.36.558-.558 1.089-.558.711 0 1.179.468 1.179 1.161 0 .702-.468 1.134-1.188 1.134-.612 0-1.017-.324-1.089-.891h-1.125c.063 1.098.999 1.926 2.214 1.926Z"/><circle class="cls-5" cx="353.5" cy="409" r="8"/><path class="cls-3" d="M354.083 412h1.188v-1.332h.81v-1.035h-.81V405.7h-1.296l-3.114 3.933v1.035h3.222V412Zm-2.043-2.367 2.043-2.511v2.511h-2.043Z"/><circle class="cls-5" cx="507.5" cy="322" r="8"/><path class="cls-3" d="M507.548 325.072c1.242 0 2.322-.702 2.322-1.917 0-.702-.423-1.251-1.053-1.476.468-.243.792-.756.792-1.359 0-.936-.9-1.692-2.115-1.692-1.143 0-2.124.738-2.142 1.962h1.125c.018-.63.423-.936.99-.936.594 0 .99.297.99.783 0 .477-.36.819-.927.819h-.558v.99h.576c.693 0 1.143.324 1.143.882 0 .567-.45.909-1.143.909-.657 0-1.188-.36-1.188-1.026h-1.152c0 1.278 1.044 2.061 2.34 2.061Z"/></g></svg>