<svg id="Layer_1" data-name="Layer 1" xmlns="http://www.w3.org/2000/svg" width="200" height="200" viewBox="0 0 200 200"><defs><style>.cls-1,.cls-4{fill:#021d49;}.cls-10,.cls-2{fill:#354a6d;}.cls-3,.cls-6{fill:#aeb6c4;}.cls-10,.cls-4,.cls-5,.cls-6,.cls-8,.cls-9{fill-rule:evenodd;}.cls-5,.cls-7{fill:#5d6f8b;}.cls-9{fill:#1a1a1a;}</style></defs><path class="cls-1" d="M35.98256,141.81222l-.40207-1.50763h-3.3838l-.40207,1.50763H28.193L31.92864,130.086h3.9199l3.73565,11.72621ZM32.917,137.62429h1.94316l-.97155-3.60163Z"/><path class="cls-1" d="M46.6199,130.086h3.35029v11.72621H47.29l-3.68537-5.36054v5.36054H40.25423V130.086h2.68024l3.68543,5.36054Z"/><path class="cls-1" d="M57.84361,130.086H61.194v11.72621H57.84361v-4.32195H54.99583v4.32195H51.64548V130.086h3.35035v4.15447h2.84778Z"/><path class="cls-1" d="M66.2196,138.72992H70.575v3.0823H62.86925V130.086h7.622v3.04884H66.2196V134.408h3.85291v3.01533H66.2196Z"/><path class="cls-1" d="M71.74768,130.086H75.098v7.43778c0,.87111.46905,1.30663,1.42389,1.30663s1.42389-.43552,1.42389-1.30663V130.086h3.35035v7.80632a3.80664,3.80664,0,0,1-1.32339,3.032,5.729,5.729,0,0,1-6.90169,0,3.80684,3.80684,0,0,1-1.3234-3.032Z"/><path class="cls-1" d="M82.13387,139.13192l2.86454-1.65841a2.115,2.115,0,0,0,2.1107,1.49093c.75378,0,1.13909-.201,1.13909-.60307a.54063.54063,0,0,0-.402-.53608,3.25783,3.25783,0,0,0-.41882-.15072c-.11726-.05028-.31826-.1005-.60306-.1843L86.171,137.306c-2.32852-.70357-3.50113-1.96-3.50113-3.76917a3.452,3.452,0,0,1,1.15585-2.66349,4.42747,4.42747,0,0,1,3.06561-1.05534,4.5549,4.5549,0,0,1,4.40569,2.73052l-2.7808,1.62489a1.668,1.668,0,0,0-1.60813-1.23959c-.58637,0-.88787.268-.88787.61977a.62591.62591,0,0,0,.3853.5696,10.61912,10.61912,0,0,0,1.52439.51926,7.46615,7.46615,0,0,1,2.496,1.12239,2.89242,2.89242,0,0,1,1.1726,2.563c0,2.3955-1.75891,3.75242-4.57317,3.75242C84.47909,142.08027,82.72017,140.94112,82.13387,139.13192Z"/><path class="cls-1" d="M95.87046,138.72992h4.35541v3.0823H92.52011V130.086h7.622v3.04884H95.87046V134.408h3.85285v3.01533H95.87046Z"/><path class="cls-1" d="M107.61343,141.79546l-1.85941-3.68537h-.83759v3.68537h-3.35035V130.06931h4.6905a4.574,4.574,0,0,1,3.18281,1.13909,3.81083,3.81083,0,0,1,1.25635,2.9818,3.6709,3.6709,0,0,1-1.80914,3.23309l2.3117,4.37217Zm-2.697-8.64385v2.17768h1.27311a1.012,1.012,0,0,0,1.15585-1.07211,1.04388,1.04388,0,0,0-1.15585-1.10557Z"/><path class="cls-1" d="M111.53356,138.17713v-2.91482h6.7007v2.91482Z"/><path class="cls-1" d="M128.95546,138.36137c0,2.14422-1.42389,3.45085-4.08743,3.45085h-4.95848V130.086h4.657c2.63,0,4.05391,1.17267,4.05391,3.30012a2.75659,2.75659,0,0,1-1.17261,2.37874A2.80067,2.80067,0,0,1,128.95546,138.36137Zm-5.69556-5.39406V134.542l1.28987-.01676a.71546.71546,0,0,0,.72032-.77054.80773.80773,0,0,0-.90456-.78737Zm1.40713,5.96361a.86664.86664,0,0,0,.93809-.83759.774.774,0,0,0-.75385-.82082l-1.59137-.01676v1.67517Z"/><path class="cls-1" d="M129.79329,130.086h3.35035v7.43778c0,.87111.469,1.30663,1.42389,1.30663s1.42389-.43552,1.42389-1.30663V130.086h3.35035v7.80632a3.80667,3.80667,0,0,1-1.32339,3.032,5.729,5.729,0,0,1-6.9017,0,3.80683,3.80683,0,0,1-1.32339-3.032Z"/><path class="cls-1" d="M140.17947,139.13192l2.86455-1.65841a2.115,2.115,0,0,0,2.11069,1.49093c.75379,0,1.13909-.201,1.13909-.60307a.54063.54063,0,0,0-.402-.53608,3.25783,3.25783,0,0,0-.41882-.15072c-.11727-.05028-.31827-.1005-.60307-.1843l-.65328-.18424c-2.32852-.70357-3.50113-1.96-3.50113-3.76917a3.452,3.452,0,0,1,1.15585-2.66349,4.42743,4.42743,0,0,1,3.0656-1.05534,4.55491,4.55491,0,0,1,4.4057,2.73052l-2.78081,1.62489a1.668,1.668,0,0,0-1.60813-1.23959c-.58636,0-.88787.268-.88787.61977a.62592.62592,0,0,0,.38531.5696,10.61866,10.61866,0,0,0,1.52439.51926,7.46609,7.46609,0,0,1,2.496,1.12239,2.89241,2.89241,0,0,1,1.17261,2.563c0,2.3955-1.75891,3.75242-4.57318,3.75242C142.52469,142.08027,140.76578,140.94112,140.17947,139.13192Z"/><path class="cls-1" d="M151.88911,140.32135a6.35726,6.35726,0,0,1,0-8.74441,6.18868,6.18868,0,0,1,9.53171,1.08887L158.506,134.341a2.4503,2.4503,0,0,0-2.228-1.23965,2.6753,2.6753,0,0,0-2.01019.80407,3.09535,3.09535,0,0,0,0,4.08743,2.67507,2.67507,0,0,0,2.01019.80407,2.3841,2.3841,0,0,0,2.228-1.25635l2.91482,1.67517a6.17738,6.17738,0,0,1-9.53171,1.10563Z"/><path class="cls-1" d="M168.45666,130.086H171.807v11.72621h-3.35035v-4.32195h-2.84778v4.32195h-3.35035V130.086h3.35035v4.15447h2.84778Z"/><path class="cls-2" d="M128.0172,110.91265a4.94405,4.94405,0,0,0,.26828-.9388,4.42809,4.42809,0,0,0-2.07892-4.69369,4.25094,4.25094,0,0,0-4.89557.53641c-.13414.067-.26826.26827-.4024.40227a13.53107,13.53107,0,0,1-1.74353-3.21844L108.50229,74.16745a3.37541,3.37541,0,0,0,2.07891-1.27413,4.164,4.164,0,0,0,.067-5.23007l.6707-1.00583h-7.71217a1.964,1.964,0,0,1-1.87154,1.97865l0-.0057a1.96365,1.96365,0,0,1-1.87624-1.979H92.14677l.6707,1.00583a4.164,4.164,0,0,0,.067,5.23007,3.37542,3.37542,0,0,0,2.0789,1.27413L84.30062,102.99439a13.5314,13.5314,0,0,1-1.74352,3.21844c-.13415-.134-.26828-.33528-.40241-.40227a4.251,4.251,0,0,0-4.89558-.53642,4.42815,4.42815,0,0,0-2.07892,4.6937,4.94531,4.94531,0,0,0,.26828.9388l-4.426,4.42559H82.95936l.00869-.01593a2.26788,2.26788,0,0,1,1.74933-2.13557c.01939-.00484.03921-.00934.05928-.01368l.00039-.00009a2.18329,2.18329,0,0,1,.46237-.04752,1.91737,1.91737,0,0,1,.21192.01207,2.26762,2.26762,0,0,1,2.048,2.16216l.02029.03856h11.1992l.60355-2.27995L94.02458,110.102a2.7108,2.7108,0,0,1-1.39479-2.25967,6.61782,6.61782,0,0,1,1.05776-3.99465l7.96895-.01194,0,.006h.148l7.97361.01195a6.61773,6.61773,0,0,1,1.05776,3.99465,2.71084,2.71084,0,0,1-1.3948,2.25968l-5.29779,2.95029.60354,2.28H115.946l.02029-.03855a2.26764,2.26764,0,0,1,2.048-2.16217,1.91741,1.91741,0,0,1,.21192-.01206,2.18267,2.18267,0,0,1,.46238.04752l.00038.00008c.02007.00433.03989.00884.05927.01368a2.2679,2.2679,0,0,1,1.74935,2.13557l.00867.01593h11.93688ZM105.56125,93.67282H97.90988l3.82568-11.321Z"/><path class="cls-3" d="M126.46314,111.13771a3.404,3.404,0,0,0,.584-1.3865,3.15643,3.15643,0,0,0-1.51-3.37214,3.056,3.056,0,0,0-3.49463.33717,3.25545,3.25545,0,0,0-.98422,1.49275,12.07335,12.07335,0,0,1-3.08811-4.80344L106.69145,72.83844a2.5756,2.5756,0,0,0,2.91983-.72356,2.65867,2.65867,0,0,0,.32183-2.73794,2.80591,2.80591,0,0,0-2.74595-1.51771l-.11049-.001,4.09087-1.207H103.607l-.0046.078.89266,1.11019h0l.00233,0c-.027.06943-.056.137-.08656.20311a2.70164,2.70164,0,0,1-2.66482,1.80568h-.02642a2.70157,2.70157,0,0,1-2.66472-1.80544q-.04595-.09928-.08667-.20335l.00234,0,.89332-1.111-.005-.07714H92.29813l4.09087,1.207-.11048.001a2.80592,2.80592,0,0,0-2.746,1.51771,2.65871,2.65871,0,0,0,.32183,2.73794,2.5756,2.5756,0,0,0,2.91983.72356L85.49547,103.40555a12.07344,12.07344,0,0,1-3.0881,4.80344,3.25553,3.25553,0,0,0-.98422-1.49275,3.056,3.056,0,0,0-3.49463-.33717,3.15642,3.15642,0,0,0-1.51,3.37214,3.40374,3.40374,0,0,0,.584,1.3865l-2.98418,2.98419h8.29455l.44271-.84689a2.81691,2.81691,0,0,1,2.54863-1.31261,3.11724,3.11724,0,0,1,2.54892,1.356l.45454.80162,10.46939-.00072-5.271-2.95454a3.74724,3.74724,0,0,1-2.25948-3.35509,16.52284,16.52284,0,0,1,1.52079-5.29459l8.96541-.00129,8.9654.00129a16.52284,16.52284,0,0,1,1.52079,5.29459,3.74724,3.74724,0,0,1-2.25948,3.35509l-5.271,2.95454L115.158,114.12l.45454-.80162a3.11724,3.11724,0,0,1,2.54892-1.356,2.81694,2.81694,0,0,1,2.54864,1.31261l.44271.84689h8.29454ZM102.04,94.97821h-.61443L96.101,94.94782c2.59967-7.567,4.55234-13.44181,5.34361-15.82468l.28823-.86738.00145.00438.28677.863c.79128,2.38287,2.74394,8.25765,5.34361,15.82468Z"/><path class="cls-4" d="M124.26551,110.94022a1.75874,1.75874,0,0,0,.80483-3.15157c-1.34124-.73756-2.8166.60353-2.21307,2.27991-3.08476.87166-5.63308-4.82781-6.10264-6.10192L105.68956,74.12787c-.4694-1.207-.53655-2.21281.33527-2.68206,1.27412-.67055,1.87765.60342,2.61535-.33528.33542-.4024.46943-1.67636-1.20711-1.67636h-1.60938s-.60353,2.01164-4.09085,2.01164S97.642,69.43417,97.642,69.43417H96.03261c-1.67654,0-1.54253,1.274-1.20711,1.67636.7377.9387,1.34123-.33527,2.61534.33528.87182.46925.80468,1.47508.33528,2.68206L86.711,103.96664c-.46955,1.27411-3.01787,6.97358-6.10263,6.10192.60353-1.67638-.87183-3.01747-2.21307-2.27991a1.75874,1.75874,0,0,0,.80483,3.15157l-1.60952,1.60924h3.48716a4.43844,4.43844,0,0,1,3.95657-2.14562,4.90291,4.90291,0,0,1,3.95675,2.14562h3.48715a5.86211,5.86211,0,0,1-3.08488-4.76081c0-1.15508,1.84242-6.36261,2.00082-6.8082h20.67723c.15841.44559,2.00083,5.65312,2.00083,6.8082a5.86213,5.86213,0,0,1-3.08488,4.76081h3.48715a4.90291,4.90291,0,0,1,3.95675-2.14562,4.43844,4.43844,0,0,1,3.95657,2.14562H125.875ZM99.1845,78.5534c.53638-1.54221,1.34123-2.95031,2.54834-2.95031s2.01195,1.4081,2.54834,2.95031c.134.40175,3.67872,10.76716,6.69382,19.27646H92.49068C95.50578,89.32056,99.05053,78.95515,99.1845,78.5534Z"/><polygon class="cls-5" points="98.681 67.963 101.703 65.983 104.756 67.927 104.384 64.36 107.181 61.671 103.114 61.397 101.633 57.516 100.292 61.397 96.26 61.722 99.375 64.219 98.681 67.963 98.681 67.963"/><polygon class="cls-6" points="98.681 67.963 101.703 63.161 99.375 64.219 98.681 67.963 98.681 67.963"/><polygon class="cls-6" points="103.203 61.359 101.792 63.123 107.269 61.634 103.203 61.359 103.203 61.359"/><path class="cls-6" d="M104.38432,64.36s-2.68132-1.12881-2.68132-1.19945l3.05283,4.766L104.38432,64.36Z"/><polygon class="cls-6" points="100.38 61.359 96.349 61.684 101.792 63.123 101.721 57.479 100.38 61.359 100.38 61.359"/><path class="cls-1" d="M104.75582,67.99078a.06436.06436,0,0,1-.03966-.01368l-3.01392-1.91336L98.72,68.0138a.06424.06424,0,0,1-.10094-.06734l.6828-3.70292-3.081-2.47089a.06425.06425,0,0,1,.03524-.11472l3.98878-.32247,1.32686-3.84006a.0643.0643,0,0,1,.05972-.04327.065.065,0,0,1,.06106.04132l1.46644,3.84028,4.02387.27343a.06425.06425,0,0,1,.03919.11359l-2.767,2.664.36373,3.5288a.06427.06427,0,0,1-.063.07726ZM101.703,65.9184a.0643.0643,0,0,1,.03966.01368l2.91476,1.8356-.33605-3.3947a.06431.06431,0,0,1,.02181-.06235l2.66641-2.58016-3.89729-.26956a.06428.06428,0,0,1-.05809-.0413l-1.41868-3.71517-1.283,3.71323a.06425.06425,0,0,1-.05638.04311l-3.9957.27095,3.11377,2.43651a.0642.0642,0,0,1,.02263.06667l-.64728,3.56536,2.87474-1.86888A.06413.06413,0,0,1,101.703,65.9184Z"/><path class="cls-1" d="M93.46483,78.22509a17.22394,17.22394,0,0,0-1.58949-1.06819,8.417,8.417,0,0,0-3.142-1.01511c-.351-.21877-1.013-.75167-1.67352-1.25411A6.84637,6.84637,0,0,0,84.898,73.64162a4.24128,4.24128,0,0,0-2.38219-.95832,9.41291,9.41291,0,0,0-4.1347-.96848h-.0542a10.25442,10.25442,0,0,0-4.152-1.07988h-.08055a10.79957,10.79957,0,0,0-2.60656-.33839,5.265,5.265,0,0,0-2.71152.61481l-.23065.06194a5.70225,5.70225,0,0,0-2.75873.81648l-.07093.04258-.115.06823c-.12343.07841-.66453.337-1.22222.62872a2.97817,2.97817,0,0,0-1.434,1.34327,1.66289,1.66289,0,0,0-.20109.75779,1.331,1.331,0,0,0,.7441,1.17715,2.20749,2.20749,0,0,0,.99072.22894l.00626.00013.39566.021a.14006.14006,0,0,0,.13132-.07313l.17949-.33147c.22509-.25293.34594-.32165.93651-.45941a9.21166,9.21166,0,0,1,2.16036-.22489,10.17135,10.17135,0,0,1,3.62872.56935l.05114.02432.04912.01416a15.66169,15.66169,0,0,1,6.11221,3.181,44.82125,44.82125,0,0,1,4.84337,4.78158c.38511.74226,2.47137,4.6653,6.38537,5.77958ZM90.20351,89.53333"/><path class="cls-7" d="M89.29558,82.47133a4.55411,4.55411,0,0,1,1.07434,1.6107l-.1251.24721a14.514,14.514,0,0,0-2.69874-2.61367,7.12944,7.12944,0,0,1,3.2488,1.477l-.08507.17422A4.63916,4.63916,0,0,0,89.29558,82.47133Zm-5.67657.61189a45.70947,45.70947,0,0,0-4.97708-4.92138A16.86489,16.86489,0,0,0,72.24911,74.604c-1.78041-.83072-6.89531-1.242-7.72042.20057-.511.01421-.78956.0234-.47278-.80316.33136-.812,1.36183-1.13971,2.05413-1.49443a4.55025,4.55025,0,0,1,2.80817-.29176,6.4327,6.4327,0,0,1,5.087-.79015,8.56375,8.56375,0,0,1,3.89135.95907l.27032.2904a12.53611,12.53611,0,0,0-2.9754-.64365,25.57616,25.57616,0,0,1,2.86793,1.20753,21.65888,21.65888,0,0,1,2.723,1.94049l.11156-.74307a5.052,5.052,0,0,0-1.93846-1.242l-.54555-.32625s2.17555-.14181,3.146.86718c0,0,1.31848-.154,4.19046,1.862a4.00879,4.00879,0,0,1,2.599,1.163,6.669,6.669,0,0,1,4.03443,2.13545s.21318.43417-.13382.62665l.04668-.29838a5.87888,5.87888,0,0,0-3.21891-1.6898c2.43789.99685,2.74132,2.03127,2.74132,2.03127a5.08082,5.08082,0,0,0-1.91719-1.05875,4.70068,4.70068,0,0,0-1.124.079A3.907,3.907,0,0,0,85.525,76.42344l1.04966.77705s.96413.69083.87713.80129c0,0-.16542.2843-.31.19855,0,0-2.094-1.42233-4.035-2.44754l.16966.78818a10.15444,10.15444,0,0,0-1.98607-.98673l-.58958-.10939a12.01688,12.01688,0,0,1,4.05726,2.715s-.83731-.04056-1.03129.156a10.05339,10.05339,0,0,0-4.65395-3.027h0l.078.308a.74887.74887,0,0,0,.03639.09656A9.238,9.238,0,0,0,80.935,77.73232l1.322.92994a14.55822,14.55822,0,0,1,.30239,2.174A35.63741,35.63741,0,0,0,79.306,77.42231a9.99968,9.99968,0,0,0-4.347-2.44344A26.3272,26.3272,0,0,1,78.32232,77.084a30.70936,30.70936,0,0,1,4.97911,5.34275m-1.35852-8.11042,1.282.97049.891.04052A4.44882,4.44882,0,0,0,81.94291,74.31631Zm-10.796-2.61974a12.91545,12.91545,0,0,1,6.17145,3.55377l.28568.28165c-.28568-1.02522-1.80526-2.08488-2.29707-2.42322-.64783-.44575,1.83971.72532,2.31632,1.22377l-.17526-.48019C76.28355,72.53133,71.96244,71.69657,71.14692,71.69657Zm-1.43347.28973,2.10661.11349A2.38662,2.38662,0,0,0,69.71345,71.9863Zm3.77261,1.86605-.85556-1.13866c-5.35645-1.00089-7.41445.6706-8.113,1.21361C68.18931,72.191,72.51909,73.58082,73.48606,73.85235Zm.72381.13371.77393.27553s-.11142-.72128-1.49624-1.21968Zm17.57226,7.26353s-2.63442-2.16995-4.37739-2.37659a21.42731,21.42731,0,0,1,3.29745,3.16269h.32874a5.473,5.473,0,0,0-1.12548-1.73228,4.5023,4.5023,0,0,1,1.665,1.38991v.00809Zm-6.34878-3.0128a7.84415,7.84415,0,0,1,1.49276.308,20.23845,20.23845,0,0,0-3.70119-2.59951h0a7.948,7.948,0,0,0,.49944.88746A12.88271,12.88271,0,0,1,85.43335,78.23679Zm6.488,1.73638a8.47021,8.47021,0,0,0-3.14749-1.38788,22.52428,22.52428,0,0,1,3.02239,2.097ZM79.466,75.76093c.49284.5693,1.26786,1.41215,1.69992,1.84982a6.85476,6.85476,0,0,1,1.5246.25731A13.99633,13.99633,0,0,0,79.466,75.76093Zm5.64773,4.72075.99737.51261a7.7504,7.7504,0,0,0-1.47347-1.46485,7.528,7.528,0,0,1,2.71544,1.943l.41635.17018a7.8427,7.8427,0,0,0-1.7034-1.787,12.15536,12.15536,0,0,0-3.769-1.89847A7.05934,7.05934,0,0,0,85.11374,80.48168Zm4.7456,4.35208.13527-.32013a20.79327,20.79327,0,0,0-4.53035-3.37546,30.853,30.853,0,0,0,4,4.61894l.10285-.24311a7.66786,7.66786,0,0,1-1.65784-2.32139A4.14365,4.14365,0,0,1,89.85934,84.83376Zm-1.57373-3.22961a4.508,4.508,0,0,1,1.91009.58149s-2.71191-3.13235-5.41117-3.83536A19.96635,19.96635,0,0,1,88.28561,81.60415Zm-.14642,5.43752.99685-.45587-.29124-.16613A9.29307,9.29307,0,0,1,84.27649,81.438a10.45285,10.45285,0,0,1,1.78752,1.9106l.20716-.33433c-.8302-1.16091-3.07208-3.69149-3.61352-4.31556A6.47606,6.47606,0,0,0,84.045,81.79866l-.87273-.47817C85.7859,85.88273,88.13919,87.04167,88.13919,87.04167Z"/><path class="cls-8" d="M89.6175,92.60386a11.42876,11.42876,0,0,0,4.02373.73753v-.13412a10.82752,10.82752,0,0,1-4.09071-1.00583l.067.40242Z"/><path class="cls-8" d="M89.88579,93.14026c.33526.134,1.47537.40228,1.47537.40228s.87183,0,.067-.13415a15.46057,15.46057,0,0,1-1.60939-.46925l.067.20112Z"/><path class="cls-8" d="M89.75162,96.694c-.46939-.46929-1.34121-1.60923-2.34718-1.67624-.33528.067-.20116.26813.06715.40228a3.897,3.897,0,0,1,2.01178,1.207l.26825.067Z"/><path class="cls-8" d="M90.01993,97.36454a4.11546,4.11546,0,0,0-1.81066-1.13984c-.33528-.06713-.46941.20116,0,.33528.40242.134,1.20709.80456,1.74351,1.00567.20127.06715.06715-.20111.06715-.20111Z"/><path class="cls-8" d="M88.74569,97.69982a11.208,11.208,0,0,1,2.3472,1.60934c.40242.33528.60354.26813,0-.20128-.60357-.46925-1.74367-1.60922-2.14594-1.81036,0,0-.87182.26813-.20126.4023Z"/><path class="cls-8" d="M90.75761,97.43167c-.33528,0-.06715.26815.4694.60341s1.34126.80467,1.54238.93882c.20129.067.13416-.20128.13416-.20128a4.21526,4.21526,0,0,1-1.67654-1.207.441.441,0,0,0-.4694-.134Z"/><path class="cls-8" d="M91.36116,98.9739a18.21664,18.21664,0,0,0,2.34706,1.07282c.60356.26815,0-.20114,0-.20114a7.48927,7.48927,0,0,1-2.14594-1.2741s-.73768.06715-.20112.40242Z"/><path class="cls-8" d="M92.63524,100.24785c.26831.067,1.34126.46942,1.67654.60354.33542.067.60367,0,.26827-.13412a19.12724,19.12724,0,0,0-1.94481-.8047c-.20111,0-.26813.26829,0,.33528Z"/><path class="cls-8" d="M94.78133,100.11371c.53641.06715,1.54236.33528,1.54236.33528-.33528-.13412-1.47537-.53642-1.74364-.67056,0,0-.33527.20129.20128.33528Z"/><path class="cls-8" d="M94.6472,99.242a2.06529,2.06529,0,0,0-.73768-.53639c-.46945-.26813-.46945.13412-.2013.20113l.939.33526Z"/><path class="cls-8" d="M90.22105,94.48137l-.20112-.2013a8.94548,8.94548,0,0,1-2.81665-1.54222c-.4024-.33527-.53638-.60342-.80465-.73755-.2013-.20114-.53656.067-.7377-.067a.39249.39249,0,0,1-.13414-.40241,1.43811,1.43811,0,0,1-.40242-.067,1.48856,1.48856,0,0,1-.40228-.80469,1.442,1.442,0,0,0,.73768,1.67637c-.26825.73757.067,1.07283.53643,1.14a.70266.70266,0,0,0,.6707-.2013l.134.2683a3.32218,3.32218,0,0,1,2.07894.5364,2.25878,2.25878,0,0,0,1.34123.40243Z"/><path class="cls-8" d="M83.91727,90.59222c-.26828.20111.20129.87166.46942,1.00581a1.52069,1.52069,0,0,1-.20116-.8047c-.067-.20111-.20112-.26826-.26826-.20111Z"/><path class="cls-4" d="M111.18987,107.99922a31.50942,31.50942,0,0,0-1.146-4.15728H98.44817c-2.4812,1.47509-8.44973,5.02894-9.58968,6.16892a10.01236,10.01236,0,0,1,5.36481,4.89481c2.079,1.00581,4.62729,3.28558,5.16383,4.82783,1.40825-.53642,10.47008-6.05026,11.79291-10.803A2.42882,2.42882,0,0,0,111.18987,107.99922Z"/><path class="cls-5" d="M106.965,105.71945c-.26827-.2013-.46943-.2683-.60354-.7377.53653.26827.60354.13412,1.20708.20113.06714,0,1.60953.60354,1.60953.53657-.26828-.2683-2.14593-.93886-2.41421-1.34111.13413-.13415.40242-.06714.53641-.06714.29708,0,.06813-.30606.10508-.46926h-2.97218a4.17,4.17,0,0,1,.11761.93865c.33528.67056.13413,1.47525.60358,2.01165a6.17076,6.17076,0,0,0,3.62129,1.3411c-.20113-.26829-1.34124-.7377-1.47538-.93882l-.60354-.73756c.40241,0,3.1519.93868,3.55432.80469C109.6475,106.99339,107.23327,106.25584,106.965,105.71945Z"/><path class="cls-5" d="M94.2233,114.90567c2.07894,1.00581,4.62728,3.28558,5.16383,4.82783L99.32,121.67815a10.31467,10.31467,0,0,0-5.432-4.35858l.33526-2.4139Z"/><path class="cls-5" d="M110.51932,109.60844c-2.54834,4.15728-9.72394,9.58864-11.13219,10.12506L99.32,121.67815c.53654-.2013,8.51686-4.29143,12.87584-11.60031l-1.67652-.4694Z"/><path class="cls-4" d="M105.62376,113.49759l-.46938-.2683-.67055.53643.46941.40242a2.92045,2.92045,0,0,0-.46941.53639,15.74259,15.74259,0,0,0,3.01775.93868c.13412-.33528-1.34126-2.21277-1.54237-2.41392-.06715,0-.2013.13415-.33545.2683Z"/><path class="cls-1" d="M107.502,115.74316a15.02374,15.02374,0,0,1-3.08886-.96875.098.098,0,0,1-.01856-.11523,2.4296,2.4296,0,0,1,.41113-.48535l-.38769-.332a.09885.09885,0,0,1-.03418-.07813.09767.09767,0,0,1,.03711-.07617l.6709-.53613a.10031.10031,0,0,1,.1123-.00879l.40332.23047c.15332-.15235.25781-.24317.35156-.24317a.09592.09592,0,0,1,.07032.0293c.09179.09082,1.73925,2.08594,1.56543,2.52148A.09873.09873,0,0,1,107.502,115.74316Zm-2.88281-1.06836a20.38832,20.38832,0,0,0,2.78906.85743,10.33475,10.33475,0,0,0-1.47656-2.18653,3.01031,3.01031,0,0,0-.23633.22266.10049.10049,0,0,1-.12109.0166l-.41016-.23535-.52344.41894.37793.32325a.10344.10344,0,0,1,.03418.07226.09576.09576,0,0,1-.02929.07422A4.68455,4.68455,0,0,0,104.61914,114.6748Z"/><path class="cls-6" d="M105.62376,113.49759l-.46938-.2683-.67055.53643.46941.40242a2.92045,2.92045,0,0,0-.46941.53639,15.74259,15.74259,0,0,0,3.01775.93868c.13412-.33528-1.34126-2.21277-1.54237-2.41392-.06715,0-.2013.13415-.33545.2683Z"/><path class="cls-1" d="M107.54294,115.70429h-.04133a12.20275,12.20275,0,0,1-1.55171-.39651,7.9722,7.9722,0,0,1-1.50924-.56006l-.03114-.03111.01968-.03936a2.56458,2.56458,0,0,1,.43422-.50567l-.47531-.40749.76053-.60843.465.26577c.15866-.15785.26315-.25322.34558-.25322h.02529l.0179.01789a13.71065,13.71065,0,0,1,.90367,1.16471c.751,1.068.67667,1.254.65227,1.31507Zm-2.97918-1.01616a18.0638,18.0638,0,0,0,2.88733.88978,9.37588,9.37588,0,0,0-1.51133-2.28069,1.88115,1.88115,0,0,0-.27281.24356l-.033.033-.47387-.27084-.58052.46445.4635.39735-.04665.04664A3.76659,3.76659,0,0,0,104.56376,114.68813Z"/><path class="cls-4" d="M109.31224,110.212a3.40432,3.40432,0,0,1-.13415.6034l-.93883-.26813-.4024.53639,1.1401.13417a3.995,3.995,0,0,0-.20128.46925,25.77267,25.77267,0,0,0,3.219,0,13.01412,13.01412,0,0,0-2.68246-1.47508Z"/><path class="cls-1" d="M111.08105,111.84668c-.51855,0-1.17382-.02148-1.80175-.044-.24512-.00878-.42969-.01562-.50391-.01562a.09816.09816,0,0,1-.08105-.041.10024.10024,0,0,1-.01368-.09082,3.79986,3.79986,0,0,1,.14551-.35449l-1.001-.11719a.10116.10116,0,0,1-.08008-.06054.0973.0973,0,0,1,.01172-.09864l.40234-.53711a.0969.0969,0,0,1,.10742-.03613l.83985.24024c.00976-.03614.01855-.07129.02734-.1045a1.76433,1.76433,0,0,0,.0791-.375.09818.09818,0,0,1,.041-.08105.09407.09407,0,0,1,.08984-.01367,12.97128,12.97128,0,0,1,2.72949,1.50781.10144.10144,0,0,1,.01856.08789.09835.09835,0,0,1-.05957.06738A3.86822,3.86822,0,0,1,111.08105,111.84668Zm-2.1621-.25586c.09375.00293.21972.00684.36816.0127.625.02246,1.97363.06933,2.49121.02246a16.43439,16.43439,0,0,0-2.38086-1.27442c-.01465.083-.041.17774-.07031.28809-.0166.06152-.03418.1289-.05274.20019a.09788.09788,0,0,1-.04687.0625.10138.10138,0,0,1-.07715.00879l-.87207-.249-.25684.34277.9668.11328a.10079.10079,0,0,1,.07813.14454C109.001,111.39355,108.95117,111.50879,108.919,111.59082Z"/><path class="cls-6" d="M109.31224,110.212a3.40432,3.40432,0,0,1-.13415.6034l-.93883-.26813-.4024.53639,1.1401.13417a3.995,3.995,0,0,0-.20128.46925,25.77267,25.77267,0,0,0,3.219,0,13.01412,13.01412,0,0,0-2.68246-1.47508Z"/><path class="cls-1" d="M111.09059,111.80781c-.51843,0-1.17845-.02129-1.81027-.04411-.24072-.0087-.43081-.01556-.50465-.01556h-.08481l.0269-.08043a3.84074,3.84074,0,0,1,.16653-.39932l-1.16-.1365.49135-.65489.9187.2624c.01289-.0498.02559-.0971.03758-.14189a1.78937,1.78937,0,0,0,.07921-.38552v-.08472l.0804.02678a12.96829,12.96829,0,0,1,2.71084,1.49484l.05141.0643-.07646.03056A3.7782,3.7782,0,0,1,111.09059,111.80781Zm-2.22807-.18039c.09525.00241.24054.00766.42222.01422a24.40671,24.40671,0,0,0,2.58976.01154,14.91356,14.91356,0,0,0-2.50763-1.3561,2.91738,2.91738,0,0,1-.07694.332c-.01664.06218-.03466.12922-.05261.20106l-.01527.06128-.95914-.27394-.31349.41787,1.12108.13193-.03889.07781C108.95043,111.40742,108.89383,111.5457,108.86252,111.62742Z"/><polygon class="cls-9" points="99.253 108.737 99.253 108.066 97.778 106.189 97.979 105.518 96.839 103.909 96.504 104.915 95.632 104.714 96.772 106.39 97.442 106.39 99.253 108.737 99.253 108.737"/><path class="cls-1" d="M99.25293,108.93652a.201.201,0,0,1-.1582-.07812l-1.75049-2.26856h-.57276a.201.201,0,0,1-.16552-.08789l-1.13965-1.67578a.2011.2011,0,0,1,.00049-.22558.20764.20764,0,0,1,.21-.082l.69433.16114.27784-.834a.20189.20189,0,0,1,.16064-.13476.20594.20594,0,0,1,.19238.083l1.13965,1.60937a.19755.19755,0,0,1,.02832.17285l-.1709.57031,1.41114,1.7959a.20232.20232,0,0,1,.043.124v.66992a.19977.19977,0,0,1-.13574.18945A.2097.2097,0,0,1,99.25293,108.93652Zm-.814-1.582.61377.79492v-.01367Zm-1.56152-1.165h.56494a.08539.08539,0,1,0,.144-.05859l.17236-.57617-.855-1.208-.21045.63184a.2022.2022,0,0,1-.23486.13183l-.374-.08691Z"/><polygon class="cls-6" points="99.253 108.737 99.253 108.066 97.778 106.189 97.979 105.518 96.839 103.909 96.504 104.915 95.632 104.714 96.772 106.39 97.442 106.39 99.253 108.737 99.253 108.737"/><path class="cls-1" d="M97.26318,114.2832a1.43834,1.43834,0,0,1-.168-.00976,1.29213,1.29213,0,0,1-1.11816-1.08985,2.43045,2.43045,0,0,1-.05908-.28125,1.102,1.102,0,0,1-.42822.05078,1.20265,1.20265,0,0,1-1.104-.96386,2.58236,2.58236,0,0,1,.5376-1.80469,3.2318,3.2318,0,0,1,.47852-.55859,1.38818,1.38818,0,0,1,.2583-.67676,1.258,1.258,0,0,1,.08154-.16211c.44678-.74121,1.34228-.78809,2.47656-.84668.09619-.00488.207-.01074.31934-.01758a3.13512,3.13512,0,0,0-.13184-.416,1.18611,1.18611,0,0,1-.08056-.333,1.54314,1.54314,0,0,1-.07276-.44824,1.20237,1.20237,0,0,1,1.54688-1.15137l.67089.20117a1.20225,1.20225,0,0,1,.79541.77246c.04981.15039.10157.34961.1543.5625.02637-.01074.04981-.02148.07129-.03223a1.219,1.219,0,0,1,.46973-.28808,1.58247,1.58247,0,0,1,1.92187.73926l.001.00293a1.931,1.931,0,0,1,.06543,1.44726,1.21664,1.21664,0,0,1-.17969.34375,1.78164,1.78164,0,0,1-1.251.665l-.04394.02344c-.05273.02637-.1084.06152-.166.09668-.082.04883-.17285.10351-.27148.15722a1.22539,1.22539,0,0,1-.13086.34083,2.48344,2.48344,0,0,1-1.44922,1.13671,5.2952,5.2952,0,0,1-1.812,1.34375C98.29883,113.73926,97.96924,114.2832,97.26318,114.2832Zm5.522-4.49609-.001.002Zm-7.21534-.38184v0Zm0-.002v0Zm2.75-2.34277v0Z"/><path class="cls-6" d="M109.9153,110.15586l2.7081.12173a10.02556,10.02556,0,0,0-2.22868-1.14,2.08275,2.08275,0,0,1-.16945.36836l-.02.03373-1.42289-.15224a1.48,1.48,0,0,1-.28644.19289l1.577.17717-.0207.06991A1.96427,1.96427,0,0,1,109.9153,110.15586Z"/><path class="cls-1" d="M112.62065,110.33862l-2.80358-.126.044-.08484a1.895,1.895,0,0,0,.13253-.3177l-1.50453-.169-.02225-.11443a1.42484,1.42484,0,0,0,.2752-.185l.0201-.01774,1.41059.15093.00006,0a2.02108,2.02108,0,0,0,.16421-.35715l.01682-.04855.05075.00826a10.0406,10.0406,0,0,1,2.255,1.151Zm-2.60914-.23956,2.40027.10789a10.68729,10.68729,0,0,0-1.97775-.99853,2.12093,2.12093,0,0,1-.15621.3287l-.04008.06746-1.43558-.15359a1.32106,1.32106,0,0,1-.11864.089l1.46863.165-.0414.13977A1.84469,1.84469,0,0,1,110.01151,110.09906Z"/><path class="cls-6" d="M106.47382,109.14044v.21269l.7648.08593.31231-.09761a.53.53,0,0,1,.01566-.08409Z"/><path class="cls-1" d="M107.2446,109.50118l-.83186-.09343v-.33526l1.23154.13175-.01879.0691a.47485.47485,0,0,0-.01384.07453l-.00417.0399Zm-.70971-.20264.69778.0784.22379-.06993-.92157-.09859Z"/><path class="cls-5" d="M100.259,104.46321s.80469-.33527,1.14-.20112,1.14009-.06714,1.2071-.33528a3.4232,3.4232,0,0,1-1.2071,0,3.21376,3.21376,0,0,0-.55658-.08487H98.7014c-.05417.53167-.01938,1.932,1.15513,2.36465,1.27413.46939,3.62132,1.00583,2.48121.46939,0,0-1.60937-.5364-1.81067-1.20695a9.38671,9.38671,0,0,0,2.88378.40228S100.52707,105.06662,100.259,104.46321Z"/><path class="cls-6" d="M103.71973,116.70005l-10.65462-9.37082-.15668-.12562c-.632.39381-1.27158.84387-1.84888,1.18728a14.75963,14.75963,0,0,0-2.20106,1.62,10.26,10.26,0,0,1,5.36481,4.89481c1.92991.95807,4.47415,3.23817,5.16383,4.82783A24.76606,24.76606,0,0,0,103.71973,116.70005Z"/><path class="cls-6" d="M102.80729,108.0662a.385.385,0,0,0-.46956-.13412c-.067.20126-1.13994.53654-1.40823.67053v.13414a.47163.47163,0,0,0-.33528-.26813,10.35607,10.35607,0,0,1-.46939-1.54223l-.67071-.20128a2.90963,2.90963,0,0,1,.06714.33527c.26813.67054.46943,1.7435,0,1.94466-.60354.20112-2.54834.067-2.7496.40224,0,.13416-.26813.33528-.13414.33528.26826-.067,1.54251-.20112,1.74364-.26825.33526-.134.53656,0,.8047,0a.67866.67866,0,0,1-.46944.26825c-.20111,0-.26826.4023-.53639.20116a3.23689,3.23689,0,0,0-1.6765.40242,1.87075,1.87075,0,0,0-.939,1.40806c.20129-.60353,1.006-.26825,1.27426-.53638.4694-.53658,1.20708-.46943,1.7435-.80471.40242-.13412.7377-.46939,1.07311-.5364-.06714.33528-.40242.46943-.53657.67055-.67068.067-1.14011.73755-1.67649,1.00583a2.72888,2.72888,0,0,0-.33528,1.20694c.134.46926.067.53642.67054-.60353a4.03971,4.03971,0,0,0,1.94479-1.47526,1.48046,1.48046,0,0,0,1.14011-.67038c0-.13415.20114-.46942.20114-.67055.26827,0,.60353-.26829.87183-.40242.20113-.20114.67054-.067.87181-.33528a.735.735,0,0,0,0-.53641Z"/><path class="cls-1" d="M97.23459,113.14024l-.01282-.00075c-.07766-.00868-.101-.09531-.14321-.25262-.00894-.03343-.01884-.07029-.03023-.11008L97.046,112.76a2.78,2.78,0,0,1,.34331-1.23726l.00919-.016.01652-.00829a3.29041,3.29041,0,0,0,.57491-.4086,2.24457,2.24457,0,0,1,1.09489-.60026,1.28689,1.28689,0,0,1,.19355-.1908.96808.96808,0,0,0,.28564-.33294,2.35483,2.35483,0,0,0-.41435.22221,2.67812,2.67812,0,0,1-.54116.28065,2.791,2.791,0,0,1-.72611.27845,1.87892,1.87892,0,0,0-.99761.51083.81876.81876,0,0,1-.54056.15108c-.30132.01879-.6129.03823-.72175.36443l-.1178-.00734a1.64489,1.64489,0,0,1,.35834-.93454c.10146-.14693.36174-.4895.61589-.543a3.21258,3.21258,0,0,1,1.735-.39574c.11481.08594.16217.04267.259-.06287a.3457.3457,0,0,1,.24347-.14854.48539.48539,0,0,0,.32942-.1563c-.04253-.00573-.08368-.01321-.12418-.02055a.83565.83565,0,0,0-.51784.02639,9.1703,9.1703,0,0,1-.93337.14762c-.34212.04554-.69587.09263-.81814.12317l-.0148.00182a.0911.0911,0,0,1-.09024-.04679c-.02731-.05487.01312-.1085.06907-.18272a.426.426,0,0,0,.09424-.16686v-.01694l.00871-.01449c.12459-.20747.67183-.25033,1.55833-.29625a6.07017,6.07017,0,0,0,1.22432-.1325c.41083-.17625.22146-1.21684-.0374-1.864l-.00435-.01092v-.01175a.75092.75092,0,0,0-.03961-.20485.50967.50967,0,0,1-.02749-.13044v-.0821l.77967.234.01.03006c.048.1438.09543.33648.14577.54049a4.64817,4.64817,0,0,0,.30705.97063.60294.60294,0,0,1,.246.14007l.02058-.01029c.08255-.04121.23482-.09936.41119-.1667a3.22543,3.22543,0,0,0,.96636-.46848l.00966-.029.029-.00966a.447.447,0,0,1,.54354.16471v.00006a.79476.79476,0,0,1,.00334.583l-.00316.00943-.006.00793a.72853.72853,0,0,1-.51735.22268.6484.6484,0,0,0-.36014.11914l-.007.007-.00889.00444c-.07611.03806-.15782.08723-.24437.1393a1.656,1.656,0,0,1-.59781.26629,1.65955,1.65955,0,0,1-.116.36314,1.00162,1.00162,0,0,0-.081.24961v.01623l-.008.01407a1.52626,1.52626,0,0,1-1.15275.69516,4.16686,4.16686,0,0,1-1.9416,1.46845l-.11667.22092C97.39468,113.01349,97.32782,113.14024,97.23459,113.14024Zm-.06638-.38856c.01056.03722.01986.07188.02833.10352.01455.05407.03048.1135.04372.14678a5.80021,5.80021,0,0,0,.3562-.63324l.13766-.26062.02081-.00832a4.03177,4.03177,0,0,0,1.91286-1.44587l.0139-.02782.03071-.0051a1.42292,1.42292,0,0,0,1.08983-.62788,1.1333,1.1333,0,0,1,.08905-.2775,1.23589,1.23589,0,0,0,.11129-.37531v-.06107h.06108a1.371,1.371,0,0,0,.59179-.25206c.08553-.05148.16641-.10017.24424-.13963a.758.758,0,0,1,.42151-.14649.63915.63915,0,0,0,.43135-.16748.67747.67747,0,0,0,.00012-.48h0a.32082.32082,0,0,0-.37218-.11067,2.76109,2.76109,0,0,1-1.02356.5125c-.15066.05756-.28349.10828-.36634.14586v.09552l-.11571.02729a.41152.41152,0,0,0-.29995-.23748l-.02141-.00713-.01163-.01938a4.42351,4.42351,0,0,1-.332-1.02326c-.04623-.18743-.09-.3652-.13325-.5011l-.54115-.16241.00226.0079a.89059.89059,0,0,1,.04438.2271c.26345.6647.484,1.78972-.03686,2.01288a5.92026,5.92026,0,0,1-1.26136.1404,3.503,3.503,0,0,0-1.45246.22647.51426.51426,0,0,1-.11756.21964l-.01455.01935c.1611-.03039.45091-.069.75492-.10944.37784-.05031.80609-.10733.90754-.14121a.94516.94516,0,0,1,.58166-.03191,1.33023,1.33023,0,0,0,.24239.02878l.04319.10426a.72841.72841,0,0,1-.51265.28614c-.05356,0-.10211.0529-.1534.10894-.08542.09313-.21466.23375-.4196.08a3.38725,3.38725,0,0,0-1.60319.40242l-.01192.00895-.01474.00245a1.11573,1.11573,0,0,0-.55.49466,2.41174,2.41174,0,0,0-.30186.58448,1.05845,1.05845,0,0,1,.675-.19834.75663.75663,0,0,0,.459-.11258,1.99837,1.99837,0,0,1,1.05386-.545,2.63387,2.63387,0,0,0,.70046-.26826l.01307-.00614a2.55568,2.55568,0,0,0,.5223-.27093,1.80045,1.80045,0,0,1,.55815-.26742l.08989-.018-.018.08982a.90475.90475,0,0,1-.35727.50275,1.04885,1.04885,0,0,0-.18842.18969l-.01605.024-.02868.00286a2.10637,2.10637,0,0,0-1.05768.57638,3.48664,3.48664,0,0,1-.58082.4148A2.7069,2.7069,0,0,0,97.16821,112.75168Z"/><polygon class="cls-6" points="99.354 108.3 95.833 107.932 95.565 107.463 93.419 107.06 93.754 107.731 93.217 108.401 95.43 108.603 95.766 108.267 99.286 108.635 99.354 108.3 99.354 108.3"/><path class="cls-1" d="M99.33539,108.70141l-3.54693-.3703-.33509.3349-2.35452-.214.5829-.72874-.37277-.74558,2.29458.4303.26673.4666,3.55636.37126Zm-3.59214-.49782,3.4942.36475.04307-.215-3.48515-.3638-.26983-.472-1.99731-.37454.29775.59546-.48986.61237,2.07133.1883Z"/><path class="cls-6" d="M108.77568,108.93789a.541.541,0,0,0-.60355-.20114c-.13415.26829-.53643.26829-.53643.67053l-1.073.33528c-.40242-.26825-.3354-1.00581-.26827-1.47521l-.73768-.20115a5.572,5.572,0,0,1,.067,1.60939c-.20113.46927-2.88362,0-3.21888.134-.26827,0-1.47538.73768-1.40838,1.20694l1.40838-.5364c.067.20112,1.14.40242,1.87765.20112a3.3309,3.3309,0,0,1,.87185-.20112c-.33528.46941-1.006.33527-1.14.93881l-.20128-.13412c-.20114-.13414-1.54237.33527-1.60951.26828-.134-.06714-.40228.067-.60357.134-.33527.20114-1.00582,1.073-.87167,1.2741a2.91653,2.91653,0,0,1,1.60936-.53641c.20129-.06715.40241,0,.53656-.20127.80471-.33528,1.60954-.80456,2.41422-1.13984-.13413.4023-.60357.46944-.80468.87171-.67071.26813-1.14011,1.00581-1.87781,1.207,0,.20113-.60356.5364-.46941,1.07281.40241-.4694.87183-.6034.93881-.40225.40242.2011.40242-.46943.7377-.46943a16.22234,16.22234,0,0,0,2.88363-2.4809c.20125-.73768.8718-.73768,1.34123-1.073.20128-.26814.46941-.26814.7377-.53642.40241-.6034.26825-.46928,0-.33527Z"/><path class="cls-10" d="M93.888,117.31957a8.9805,8.9805,0,0,0-5.05371-5.41934l.02416-1.88937a9.86507,9.86507,0,0,1,5.36783,4.90376l-.33828,2.40495Z"/><path class="cls-4" d="M140.38308,99.30915c-.40227-1.94461-4.89541-7.04057-4.89541-7.04057.33527,0,.46941.067.40228-.06715-.73757-1.47509-5.29783-5.56536-5.29783-5.56536l.26828-.13417c-.46943-.40226-9.12041-8.38165-15.08891-8.38165-7.5109,0-10.46152,8.98522-10.86393,9.99089a1.08517,1.08517,0,0,1-.10368.16623,10.12591,10.12591,0,0,0-1.90811-2.37886,10.35963,10.35963,0,0,1-1.67651-2.01165l-.7377,2.14564L99.878,87.77587l-1.81064,2.61519a9.01568,9.01568,0,0,0-.7377.60341c-.47368.15791-1.29569.50149-2.056.79858a7.33217,7.33217,0,0,1-2.57126.14025,9.2092,9.2092,0,0,1-5.49911-2.21278,2.61453,2.61453,0,0,0-2.95073-.20113,1.69062,1.69062,0,0,0-1.34111-.33528,1.85529,1.85529,0,0,0-1.60953-.73768,1.47316,1.47316,0,0,0-1.54236,1.54221,1.70822,1.70822,0,0,0,.60356,1.27412,1.15015,1.15015,0,0,1,1.16832-.35206c.64319.17183.86009.55724,1.18717,1.15082a4.99674,4.99674,0,0,1,1.534,1.548,4.45852,4.45852,0,0,1-2.514-1.16665l-.30251-.10731-1.2071-.4694c-.06713.53641.13416,2.27992,3.15191,3.688,2.95062,1.34108,3.15189,1.67635,3.62131,2.21276a27.57941,27.57941,0,0,0,2.01177,2.0115,11.76289,11.76289,0,0,1,2.88362,1.47523,4.71735,4.71735,0,0,1,1.388.25795c.35176.18182.69533.34312.9282.46974a2.85654,2.85654,0,0,1,.63457.61342c.46942.13414.60357-.20114,1.073.13414a1.96521,1.96521,0,0,0,1.073.46926c.53657.06715.53657-.13415,1.07314.06715a3.71782,3.71782,0,0,0,1.13992.20111l.00265-.10628c1.23129.44364,1.13746-.49725,1.13746-.49725,2.7495.46941,3.75545-.67055,3.75545-.67055,1.27411,3.41972,2.28009.67055,2.28009.67055a.73718.73718,0,0,0,1.34122,0,.76339.76339,0,0,0,1.40823-.067.927.927,0,0,0,1.67654-.40227c.8718.60341,1.34123-.46942,1.34123-.46942,1.14011.73755,1.27426-.60354,1.27426-.60354.8718.5364,1.073-1.207,1.073-1.207,1.54234.46941,1.20707-1.00583,1.20707-1.00583.46941.33528,1.1401-.134,1.1401-.134l.44275-1.10682c.69084,1.92673,1.43893,4.03122,1.43893,4.03122a5.72987,5.72987,0,0,1,1.07309,0s.73755.33528.93883.46943c.13413.067.67056.33527.67056.33527,1.67651,1.67637,2.61548,1.54222,2.61548,1.54222l-.13416-.73753,1.006.40225a3.88267,3.88267,0,0,0-.20127-1.13993,10.07136,10.07136,0,0,0,1.54236,1.0058c.13413-.33528-2.07879-4.09027-3.55418-5.36423a.501.501,0,0,1-.20126-.20113,23.10113,23.10113,0,0,0-2.82077-2.57608,1.17388,1.17388,0,0,0,1.60966-1.22015,1.56356,1.56356,0,0,0,1.8778-.26813c2.28006,1.81036,2.81647.60341,2.81647.60341,4.359,2.14577,3.75546-.067,3.75546-.067,2.74963,2.41393,2.95076,1.67623,2.95076,1.67623,3.62131,3.48687,4.22485,2.01164,4.22485,2.01164C137.49945,98.97389,140.71849,101.32068,140.38308,99.30915Z"/><path class="cls-5" d="M118.5251,97.47288c.26829-.20128,1.2071.60341,1.67652,1.00569,3.0849,2.68219,4.359,3.688,4.359,3.688a43.36914,43.36914,0,0,0-3.286-3.48674,10.0047,10.0047,0,0,0-1.37992-1.20707c-.89473-.63967-.3301-1.28163-.3301-1.28163,1.34124,1.20694,1.91131,1.684,2.78311,2.35458v.13412a20.67109,20.67109,0,0,1,1.87766,2.01151,11.867,11.867,0,0,1,.93883,1.87749c-.26813.06713-.67056-.20112-.93883-.33527a1.66641,1.66641,0,0,1,.20113.46942l.06714.46942a1.13363,1.13363,0,0,1-.33527-.13414,36.22646,36.22646,0,0,1-3.219-3.2186,20.94459,20.94459,0,0,0,2.41419,2.8163,6.47611,6.47611,0,0,1,.20128,1.207l-3.82258-2.74919c3.6213,1.9445.93884-.26828.13415-.93883-.87185-.67054-1.67652-2.54806-1.34125-2.68206Z"/><path class="cls-5" d="M139.39771,98.34442v.26813s-5.02953-5.83365-5.83438-6.5042c-.80469-.67054.80485,0,.80485,0,.40226.26829,2.347,1.47523,5.02953,6.23607Zm-25.95284,2.48089c-.87183-.20112-.67055-1.87749-.67055-2.14577a.5865.5865,0,0,0,.80469-.20114c.33527,2.14579-.13414,2.34691-.13414,2.34691Zm15.82661-5.83364c-1.4084.46943-3.219-.87168-3.219-.87168.40241,0,1.67652.067,1.67652.067a16.75608,16.75608,0,0,1-4.49313-2.88318,4.12942,4.12942,0,0,1,1.60952.46927c5.09668,2.14578,4.42613,3.2186,4.42613,3.2186Zm3.15189.60355s.60356-.06715.46942-.26827a19.06011,19.06011,0,0,0-4.56028-3.88914l1.87779.53641a12.77081,12.77081,0,0,1,2.54834,1.94463c1.34125,1.4081,3.353,3.62086,3.42019,4.09029a7.7016,7.7016,0,0,1-3.75546-2.41392ZM139.666,99.7525c-1.74365-.40243-8.11443-7.443-9.38867-8.31469,1.60951.80466,2.14606.06713,2.14606.06713,1.67652,1.07281,7.5109,8.11342,7.5109,8.11342l-.26829.13414Zm-5.90137-6.5042-1.07311-1.207-.60354.26814,1.67665.93881Zm1.54237,1.47508-.53654-.5364-.80469-.20112c.7377.9388,1.34123.73752,1.34123.73752Zm-7.645-2.88316,1.40824.80455-1.81065-.60342.40241-.20113Zm-.53656-.53642c.40241.67042-.7377.60341-1.67652.40227a14.261,14.261,0,0,1,5.02971,3.41975s1.47522.93867,1.87763.87168c0,0-.60353-2.88332-5.23082-4.6937ZM106.00113,100.49a2.12771,2.12771,0,0,1-.40244.33527,1.96218,1.96218,0,0,0-.40241.67056c0-.26828-.26827-.46943-.40226-.60355a.72425.72425,0,0,1-.26829-.33526,3.309,3.309,0,0,0,.73768,2.61519,3.73729,3.73729,0,0,0,.73772-2.68221Zm.26811-.067c0,.26815,0,1.60924.53656,2.07866,0,0,.46943-.06714.46943-1.8775a2.83736,2.83736,0,0,1-.33528.13412,1.45758,1.45758,0,0,0-.13415.67055h0a1.41564,1.41564,0,0,0-.4694-.8718l-.06716-.134Zm16.22891-9.38751a.83114.83114,0,0,1-.20114.13416c-.40243.33526.73769,1.00582.20114.93867-.53642-.067-1.20713-1.00581-1.54241-1.207l-.20111.20116a9.27355,9.27355,0,0,0,2.07892,2.14576c.53642.20116,1.40823.53643,1.81064.20116a2.53943,2.53943,0,0,1-.80483.40225A5.11826,5.11826,0,0,0,125.65,94.187l.13414-.46925a8.51272,8.51272,0,0,1-3.286-2.68221Zm-13.68055,9.25339a1.13722,1.13722,0,0,1-.93884.26815c-.13412,1.87749.46943,1.87749.46943,1.87749a1.8262,1.8262,0,0,0,.46941-1.341c-.067.067-.40227.20116-.53643-.06714a.91038.91038,0,0,0,.53643-.60341v-.13412Zm1.14011-.8047c-.20116.46943-.67071.60356-.87184.46943-.13415,2.01164.60355,2.48091.60355,2.48091.33527-.26813.40241-.93868.40241-1.60924a.844.844,0,0,1-.53653.067c.33526-.20114.40241-1.207.40241-1.207v-.20114Zm1.47538-.40227c-.33528.80469-.87184.67056-1.006.67056-.13412,1.81037.80471,1.94449.80471,1.94449.26825-.20112.3354-.80467.26825-1.40808l-.40225.13412s-.20128.20116.067-.13412a2.157,2.157,0,0,0,.26829-1.07283v-.13414Zm.67053.73754c.26829-.33527-.40226-.46941-.40226-.46941a1.62741,1.62741,0,0,0,.73754,1.87752,6.76368,6.76368,0,0,0,0-1.87752,2.02666,2.02666,0,0,1-.33528.46941Zm2.88364-3.15143a8.22065,8.22065,0,0,1,.26827,1.40808.94841.94841,0,0,0,.93881.53642s.33543-.53642-.80468-2.2128c-.067.40242-.33527.33527-.4024.2683Zm-1.00583,2.01149a1.13266,1.13266,0,0,0,.93882.87181s.7377-.26825-.33527-2.548c0,.26813,0,1.67621-.60355,1.67621Zm5.36481-5.29709h0c.80483.73754.13412.93868-.26813.40228-.33543-.40228-.80483-.80469-1.073-.80469a.92708.92708,0,0,0-.20128.26826,2.45483,2.45483,0,0,0,2.3472,1.67636s.93882-.06714,0-1.20693a6.98286,6.98286,0,0,1-.80483-.33528Zm1.20725-1.81052a1.44248,1.44248,0,0,1-.46955.26829c-.067.26813.67069.67055.46955.87168-.26828.20112-1.27424-.46943-1.87779-.67055a1.95972,1.95972,0,0,1-.60357-.13414v.067c.53657.40242,2.21308,1.94463,4.292,1.74351,0,0,.26813-.67056-1.81066-2.1458Zm-5.02971,4.55969h0a1.80909,1.80909,0,0,0,1.073,1.00583s1.073-.4694-.20111-1.94466a4.07682,4.07682,0,0,0-.87185.93883Zm.93884-1.2741a2.73349,2.73349,0,0,0,2.07895,1.07285s.26825-.80455-.87185-2.34679a1.091,1.091,0,0,1-.40227.20115,1.06944,1.06944,0,0,0,.20114.5364c.46942.53639.13414.60353-.26827.26826-.33527-.26826-.60358-.20111-.67055-.06715l-.06715.33528Zm13.81469-7.71114c1.54252,1.27409,4.7614,4.09028,4.96253,5.09609-3.353-.87168-8.31556-5.96778-8.58383-6.437l1.60951.93868a12.72511,12.72511,0,0,0,2.81662,2.14564c-.2013-.33512-1.47539-1.87735-1.47539-1.87735l.67056.134ZM114.652,92.51077l.33528.20113-.33528-1.00583.26827-.13414c2.01177,1.81052.93881,2.6822.93881,2.6822a2.02755,2.02755,0,0,1-1.20708-1.74336Zm10.7969-4.895a23.76148,23.76148,0,0,1,4.359,3.15148l.40242,1.00581c-1.74365.06715-4.359-3.55371-4.76142-4.15729Zm-.60353-1.54223-.067-.40226c3.286,1.3411,6.37081,4.69367,7.57789,5.63251l-.80467.20114a2.12055,2.12055,0,0,1-1.073-.4024,60.00048,60.00048,0,0,0-5.63324-5.029Zm-20.789,11.19791c.60354,1.00581,1.20708.87166,1.20708.87166a5.60583,5.60583,0,0,0,.33528,2.21278c-2.14592-.93868-1.67651-3.2856-1.54236-3.08444Zm1.74352.53638a2.63712,2.63712,0,0,0,.7377,1.60938l-.067.67055c-1.20711-.67055-.67067-2.74918-.67067-2.27993Zm3.219-1.67622-.26826-.06713a3.10864,3.10864,0,0,0-.20114,1.13995.63816.63816,0,0,1,.4694-.13414h.067v.26829h-.13415c-.13412,0-.13412,0-.20111.067l-.20114-.13412c0,.87166.20114,1.94462.93882,2.14576l.20113-.67055a8.814,8.814,0,0,1-.67055-2.615Zm-.87182.20115-.20114-.13415a2.14671,2.14671,0,0,0-.33541,1.00582.85152.85152,0,0,1,.40241-.067v.40226a.51162.51162,0,0,0-.33527.13415l-.06714-.13415c-.067.8717.06714,1.87751.67067,2.21279l.2683-.67056a17.76667,17.76667,0,0,1-.40242-2.74917Zm-1.006-.06714c0-.33526-.33528.26827-.4694,1.13995q.10046-.10049.40241,0l-.13414.40226c-.06714-.067-.13415,0-.2013,0v.2013l-.134.067a2.66808,2.66808,0,0,0,.73769,2.07863l.067-1.20694a7.073,7.073,0,0,1-.26828-2.68219Zm5.02969,2.07879-.13414.73752-.60354-.13412a3.45782,3.45782,0,0,1-.939-2.14565V96.735c.06713-.067.3354-.067.46956-.067a.14438.14438,0,0,0,.13413-.13415c0-.13415-.06715-.20113-.13413-.20113a1.14307,1.14307,0,0,0-.46956.067,2,2,0,0,1,.26826-1.00581h.13415c.26827,2.34691,1.27424,2.95048,1.27424,2.95048Zm-.80483-.2013h.20127c.067,0,.067-.067.067-.20113l-.26829.20113Zm-.60356.13415-.20113.67055c-.93882-.067-1.073-1.207-1.073-2.07866.067.067.20113,0,.20113,0,0-.067,0-.067.20114-.067h.13413a.13414.13414,0,1,0,0-.26827h-.13413c-.067,0-.26813,0-.33526.067a1.387,1.387,0,0,1,.20125-.73755l.46944.13415a3.63592,3.63592,0,0,0,.53639,2.27977Zm-.73769.06715h.26829c.06715,0,.06715-.13415.06715-.2013l-.33544.2013Zm2.41421.067a4.13383,4.13383,0,0,1-.93884-1.87751h0a.24669.24669,0,0,0,.2013-.067l.134-.20126.06714-.26813h.067a10.66511,10.66511,0,0,0,1.073,2.01164c.13414.80453-.60356.40227-.60356.40227Zm-1.00581-2.07864.13412-.20115.13415-.33528c.067-.06713.067-.06713.134-.06713h0c0-.134-.067-.26811-.067-.40226l-.40242-.20113a2.8738,2.8738,0,0,0,.06715,1.27393v-.067Zm.8718,1.54222c.20116.067.26815-.06715.4023-.26826l-.4023.26826Zm-.20127-2.27977a3.6908,3.6908,0,0,1-.13413-1.60936l.53656.06714a3.43439,3.43439,0,0,0,.46939,1.20694.97888.97888,0,0,0-.80467.26813.06577.06577,0,0,1-.06715.06715Zm1.006,0a.1285.1285,0,0,1-.20112.067c-.20128,0-.2683.067-.46957.20113v.067c0,.06713.06715.26825.06715.4024,0,.067,0,.13412-.06715.13412a3.924,3.924,0,0,0,1.006,1.4081s.40242.46943.60355-.06715l.13415-1.13979c-.33528-.06715-.7377-.53643-1.073-1.07283Zm.87184,1.00568c.067.33528,0,.87167-.60356.87167l.60356-.87167Zm-.73768-2.21262q.10045-.10072.20112-.2013a.208.208,0,0,1,.13414-.067,2.37878,2.37878,0,0,1-.20114-.73754l-.20127-.06715a1.78514,1.78514,0,0,0-.067,1.27409c0-.06715.067-.13412.13416-.20111Zm1.40823,1.00566a.80265.80265,0,0,0-.2683-.26812c0,.26812-.067.67052-.33526.73753l.33526-.80469a3.02261,3.02261,0,0,1-.60353-.67038v.067l-.20114.20114c-.20114.20111-.26829.26825-.26829.40225a.12854.12854,0,0,1-.067.20128,1.50989,1.50989,0,0,0,1.40823,1.07283v-.93883Zm.60355-1.34094c0,.26813,0,.60341-.40228.53639l.40228-.60353a1.66727,1.66727,0,0,1-.73768-.80471l-.33528.2013-.60356-.26827a3.04289,3.04289,0,0,0,1.073,1.87749h.8718l.20116-.60339s-.20116-.13415-.46941-.33528Zm1.67649-2.01165a5.23093,5.23093,0,0,1-2.14592-2.01163l-.26825.46941a4.09516,4.09516,0,0,0,.46941.93868v-.20115c0-.067.06713-.13412.06713-.20114a.17772.17772,0,0,1,.20114-.20111.21405.21405,0,0,1,.20128.20111v.20114a.39717.39717,0,0,0,.067.46941c0,.13415,0,.20114-.067.26815a4.93034,4.93034,0,0,0,1.13993.87183s.60358,0,.60358-.20128c.06713-.20114-.2683-.60342-.2683-.60342ZM124.7112,89.225a4.2677,4.2677,0,0,0-2.14592-1.60924,10.53221,10.53221,0,0,1,1.74365,2.07866c.67054.20111.40227-.46942.40227-.46942Zm.60354.67053c-.13412.33528-.67055.06715-.93882-.134a1.66125,1.66125,0,0,0,.26827.40229c.80469,1.13994,1.20713.46939,1.20713.46939a5.93274,5.93274,0,0,0-.53658-.7377Zm-7.10845,0a5.8658,5.8658,0,0,0-.53657-.67053c-.067.20128-.33528.40242-.87182.26828.46955-.13413.60369-.067.67069-.46941a10.612,10.612,0,0,1-.87185-.87168l-.067.5364h-.53656a2.67843,2.67843,0,0,0,.60353,1.00583c.87185,1.20694,3.55433,1.54222,3.55433,1.54222a20.9504,20.9504,0,0,1-1.94478-1.34111Zm7.10845-1.81036a.75334.75334,0,0,1-.73768.20114c.40241-.13412.40241-.26827.40241-.5364-.13412-.13415-.33528-.26827-.4694-.40242-.33528-.20113,0,.73768-1.006.26827.40243.53643,2.81665,3.15148,4.76144,3.688a13.86958,13.86958,0,0,0-1.27424-1.54223c-.13413.60339-1.27411-.20128-1.27411-.20128.93884.33526.67053-.33527.67053-.33527l-1.073-1.13983Zm-1.54235,1.4751c-.26831.40241-1.20711-.33527-1.20711-.33527.9388.40242.67055-.33528.67055-.33528A3.59073,3.59073,0,0,0,122.23,87.88408a.70379.70379,0,0,1-.73768.26813c.33527-.13415.40226-.26813.40226-.46942a7.35226,7.35226,0,0,0-.73754-.40227c.134.60356-.73768,0-1.0731,0a30.04078,30.04078,0,0,0,4.225,3.688,4.18234,4.18234,0,0,0-.53654-1.40824Zm-1.67654.13415c-.26826.40241-1.20708-.33527-1.20708-.33527.73768.26827.73768-.067.67055-.26815-.33527-.33527-.7377-.73768-1.14-1.073a.47073.47073,0,0,1-.73769.26827c.4694.067.33527-.40225.26812-.60354a2.40482,2.40482,0,0,0-.67054-.46926c.13414.40225-.40242.26813-.60355.20113.20113.46942,2.81662,3.48672,4.69427,3.62086-.33527-.33528-.73769-.87166-1.27412-1.34108Zm-1.20708.46942c-.33528-.33528-.60356-.60357-.87183-.8717l-.6707.26813c.46957-.20112.26829-.5364.26829-.5364v-.20112l-.46943-.46943c-.067.13415-.33528.46943-1.13995.20128a.84291.84291,0,0,0,.80467-.60356,4.22078,4.22078,0,0,1-.46939-.67054l-.20128-.20114c.06714.46943.13413.67055-.067.93868-.26826.26827-1.14011.13415-1.14011.13415a12.333,12.333,0,0,0,1.81066,1.54223,3.19853,3.19853,0,0,0,2.41436,1.14l-.26827-.67055Zm-3.1519,1.0728a3.46237,3.46237,0,0,1-.46942-.40225v.067a1.12509,1.12509,0,0,1-.26828.87169.18964.18964,0,0,1-.26826-.26813c.20111-.13415.20111-.33526.13414-.60356v-.13412a.14409.14409,0,0,1,.13412-.134,7.10783,7.10783,0,0,1-.60354-.7377h-.06714a.36888.36888,0,0,0-.33528.2013c-.13415.134-.13415.40228-.067.73756a.14438.14438,0,0,1-.13412.13412c-.06715,0-.13414,0-.13414-.13412a1.14058,1.14058,0,0,1,.13414-.93886c.067-.134.26827-.20111.40225-.26811a5.08549,5.08549,0,0,1-.40225-1.07282l-.26831.20113a4.19447,4.19447,0,0,1,0,.93869.4505.4505,0,0,1-.46939.26826,3.23979,3.23979,0,0,0,2.54834,2.07865.69226.69226,0,0,0,.13414-.80469Zm7.44375-4.3584c-.40229.13413-1.47538-.33527-1.47538-.33527a6.44509,6.44509,0,0,0-2.5482-2.34691c2.8836.9388,3.82243,2.34691,4.02358,2.68218Zm-3.1519-.26829-.20113.60356-.7377-.46943a14.40717,14.40717,0,0,0-2.34721-2.21275l.73768-.067A13.98819,13.98819,0,0,1,122.02872,86.61ZM114.652,91.23666c-1.54239.20115-2.41422-.40225-2.68249-1.00583l.26827-.33528a2.29057,2.29057,0,0,0,1.74367.26831,1.9635,1.9635,0,0,1,.67055,1.0728Zm-3.286-.20114.26829-.13414c1.40823,1.207,2.28005.40242,2.28005.40242a1.63283,1.63283,0,0,1,.6707,1.4081,3.27091,3.27091,0,0,1-3.219-1.67638Zm-7.24263,4.82783.53656-.067a2.71446,2.71446,0,0,0,1.67653,1.07282l-.13413.8047c-1.20713.40227-2.14594-1.40823-2.079-1.81051Zm16.69831-11.73429h-.13413a6.969,6.969,0,0,1,1.40836,1.40811l-2.14606-1.207a26.53543,26.53543,0,0,1,2.61549,2.34691l.80469.53642.06714-.73768a12.36611,12.36611,0,0,0-2.61549-2.34679ZM106.67168,95.79634a1.16528,1.16528,0,0,1-.73771-.4024l-.067.20128c-.13415,0-.2013,0-.2683.067-.06713.067-.06713.13412-.06713.26815h-.134a1.15421,1.15421,0,0,0,1.60936.46938l-.33525-.60341Zm-1.34126-.4024a.369.369,0,0,1,.33527-.20115,1.403,1.403,0,0,0-.26812-.40224l-.40243.20112a1.97448,1.97448,0,0,0,.20114.60355c0-.06715.06713-.20128.13414-.20128Zm9.18743-9.32039v.33528c.20128.26828.939,1.54223.73768,1.3411a3.67393,3.67393,0,0,0-1.073-.60355v-.134c-.13415.134-.33528.26813-.40242.33512,1.74363,1.54223,2.14606.8047,2.14606.8047,0-1.07283-1.40836-2.07866-1.40836-2.07866Zm2.01192-.60339s0,.134-.26829.26813c.13415.13415.67054.93882.40241.87168a4.8675,4.8675,0,0,1-1.20708-.73753c-.26829-.067-.53656-.067-.80483-.13415.26827.33526,1.87779,1.81052,3.01774,1.74337,0,0,.13415-.80455-1.13995-2.0115Zm1.67652-1.00583c-.33527.53642,1.13995,1.40811.60353,1.274a5.50458,5.50458,0,0,1-1.54237-.73754c-.13413,0-.26828.067-.4024.067,1.87763,2.27977,2.88361,1.74338,3.42016,1.54223-.33542-.87168-2.01193-2.07862-2.07892-2.14564ZM108.214,94.38828a.8754.8754,0,0,1-1.20711.73754,1.08725,1.08725,0,0,0,.80486-1.07282,3.405,3.405,0,0,0-1.47539-.53657,1.79639,1.79639,0,0,1,.20115.87185,1.05973,1.05973,0,0,1-.60358-.46943l-.5364.26813a2.67857,2.67857,0,0,0,3.21887,1.47524,2.02375,2.02375,0,0,0-.4024-1.27394Zm17.97255-8.91812a3.78377,3.78377,0,0,0-1.34124-.7377c.13412.13415.60353.93883.26825.5364a4.59786,4.59786,0,0,0-1.20709-.73751l-.26827-.13416a5.66764,5.66764,0,0,0-1.27409-.134,7.6284,7.6284,0,0,1,2.68232,1.54221l1.20711.4023-.067-.73756Zm-12.13817,2.4809-.33528.067.60357.80471-1.006-.67056h0v.5364c.33528.33528,1.27426.67056.939.73769a3.72415,3.72415,0,0,1-1.27426-.13414,1.02966,1.02966,0,0,1-.4024.26813,4.712,4.712,0,0,0,2.48135.33526s.80467-.93866-1.006-1.94449Zm-1.13995,4.49257a.73016.73016,0,0,1-.33543-.067c0,.20111-.13414.93866-.87168.73754a.96739.96739,0,0,0,.60353-.80469,1.93458,1.93458,0,0,1-1.27423-.87168l-.33526.06713a3.09765,3.09765,0,0,0,1.13994,1.13983l-1.27409-.4023a2.298,2.298,0,0,0,2.54834,1.207l-.20112-1.00583Zm-1.54253.93882c0,.134-.13413.93868-.87182.67055.40241-.13415.53654-.40242.60369-.87185a4.02333,4.02333,0,0,1-1.34126-1.27394l-.40241.13414,1.20711,1.54223c-.4024,0-1.34123-1.00583-1.34123-1.00583l-.20115-.4694h-.06715a3.04414,3.04414,0,0,0,2.61549,2.6822l.067-1.34109a.50745.50745,0,0,1-.26829-.067Zm-2.7495-.26827h-.67053a3.09155,3.09155,0,0,0,2.41422,2.68216l.067-1.13993a2.43363,2.43363,0,0,1-.46939-.20114c-.20116.67055-.67071.40225-.67071.40225a.54967.54967,0,0,0,.40242-.60339,2.04022,2.04022,0,0,1-.5364-.5364h0a.33161.33161,0,0,1-.46956-.06715.53846.53846,0,0,1-.067-.5364Zm-1.47536-1.87752a.6932.6932,0,0,1,.06713.26828,1.82949,1.82949,0,0,0,.87171.8717l-1.34127-.13417a1.95748,1.95748,0,0,0,1.54252.60358l.67055-.13415s.33528-1.00583-1.81064-1.47524Zm6.97447-7.97927a1.19667,1.19667,0,0,0,.4023,1.20694,8.57024,8.57024,0,0,1-1.74353-1.00583c.067.46943,1.073.93869,1.60936,1.40811a4.76326,4.76326,0,0,0,2.07894.33528l.33528-.26829a7.93465,7.93465,0,0,1-2.68235-1.67621Zm-5.63323,6.23591c0,.20114-.067.33528-.067.53642.067.26826.46942,1.0058.80469,1.07282a2.81462,2.81462,0,0,1-1.20711-.4023c-.067,0-.13415.067-.20112.13417a2.32391,2.32391,0,0,0,2.95059.33527,3.6988,3.6988,0,0,1-2.28006-1.67638Zm2.74949-.73755,1.1401-.33528a5.58679,5.58679,0,0,1-2.4142-.73768.35375.35375,0,0,1-.26829.33527,4.6139,4.6139,0,0,0,2.28007,1.2741,2.972,2.972,0,0,0,.53656-.20114l-1.27424-.33527Zm6.77334-4.42555-1.1401.33527A7.36543,7.36543,0,0,1,114.7861,82.721l.93884.20113a13.17143,13.17143,0,0,0,2.28021,1.40808Zm-1.1401-.13412h.26827l-1.14011-.67056.87184.67056Zm-5.02971,1.34109c.20129.20112.67071.67055.53657.73752a1.9556,1.9556,0,0,1-1.006-.40225.51242.51242,0,0,1-.13413-.33527l-.40229.40225a2.83522,2.83522,0,0,0,3.15191.67055l.13412-.40225a3.98593,3.98593,0,0,1-2.28021-.67055Zm7.04149-2.34692a.23387.23387,0,0,1-.067.13412.33139.33139,0,0,1-.46939-.067c-.13414-.13415-.20128-.33527-.06715-.46942h0a1.89266,1.89266,0,0,0-1.00583-.26827l.53642.67055a6.36916,6.36916,0,0,1-1.81066-.67055h-.13415a3.5044,3.5044,0,0,0,3.48718,1.27408,4.71864,4.71864,0,0,0-.46941-.60353Zm-4.62713,1.87749c.067.13415.067.20112,0,.26827a.33145.33145,0,0,1-.46955-.06715.44433.44433,0,0,1-.13415-.46925,6.07891,6.07891,0,0,1-1.27409-.87168c-.13415.60342.67055,1.07282.67055,1.07282a3.27373,3.27373,0,0,1-1.2741-.26829,2.41613,2.41613,0,0,0,2.21307,1.00583l1.13995-.33528s-.40225-.13415-.87168-.33527Zm-1.87779,2.48107a3.58415,3.58415,0,0,0,1.2071-.33528,3.25205,3.25205,0,0,1-2.81663-1.00581,1.17468,1.17468,0,0,1-.067.33527l.87181.80452a3.30814,3.30814,0,0,1-1.20708-.33512.31007.31007,0,0,1-.33544.20114,4.764,4.764,0,0,0,2.95075.73753,1.156,1.156,0,0,0,.26831-.20113,1.068,1.068,0,0,1-.87184-.20112Zm-1.60953,2.27977a2.69319,2.69319,0,0,1,1.006.20114l.26827-.33528a18.20348,18.20348,0,0,1-2.4142-1.07283c.4694.46941,1.20709,1.27394.87169,1.207a6.138,6.138,0,0,1-1.60937-.73756,3.52587,3.52587,0,0,0,2.28005,1.54223l.33526-.26829a5.12279,5.12279,0,0,1-.73768-.53638Zm-6.16964,10.32618a4.30771,4.30771,0,0,1-1.9448,0l-1.00583-.46941c.33528-.067,1.81066.06715,2.07879-.20114a3.90118,3.90118,0,0,0,.87184.67055Zm-5.56612-4.29141a12.22924,12.22924,0,0,0,1.87781-.67056s.46943.33528-.13414.8717a2.98167,2.98167,0,0,1-1.74367-.20114Zm1.20713.67055a7.10048,7.10048,0,0,1,2.95075-.67055l.40228.40228a6.07171,6.07171,0,0,1-2.41422,1.13995c-1.00583.13413.06715-.20114.06715-.53642,0-.26826-.80485.20114-1.006-.33526Zm2.61547.93867.33528-.33512.33528.33512s-.53658.46942-.46943.87185a.93429.93429,0,0,0,.40242.6034,2.92106,2.92106,0,0,1-3.75544-.40228,6.60842,6.60842,0,0,0,3.15189-1.073ZM99.49605,99.0148a4.19164,4.19164,0,0,0,1.34123.67055l.87185.26829a5.65765,5.65765,0,0,1-2.34723.46939c.2013-.26827,1.073,0,.13415-1.40823Zm0,3.48689s.93881-.87167-.46943-1.07283c0,0,1.74367-.26827,2.012.134.60353.73768-1.54253.93882-1.54253.93882Zm3.42018-1.07283a4.48352,4.48352,0,0,1-1.54237.26813s.46941-.20112.13413-.4694a3.573,3.573,0,0,0-1.54253-.33527,5.22152,5.22152,0,0,1,4.15785,0l-1.20708.53654Zm2.14593-12.00256s3.75544-10.52748,10.12636-10.52748a2.67129,2.67129,0,0,1,2.14592.5364.93909.93909,0,0,1,.80471-.134c.53655.134,2.74962.87169,3.35317,1.94452l.26825-.20114a3.04988,3.04988,0,0,1,1.94467,1.40808l.40242-.13412a24.19445,24.19445,0,0,1,4.89555,3.48685l-1.81065-.26825s-2.21309-1.87753-2.95078-2.41393a1.97566,1.97566,0,0,1,.20114.67054s-3.82245-1.94462-5.83422-3.21858a4.063,4.063,0,0,0,1.00583,1.20694l-.53642-.13412a5.14,5.14,0,0,0-4.09085-.73754,1.50411,1.50411,0,0,0,.4024.73754l-.93884-.40227s0-.60356-.9388-.13415a8.54034,8.54034,0,0,0-3.15189,2.88332s-.67071.40227-1.07313.26829l.06714.33512s.53642.06714.20116.33527c-.2683.20128-.87184.80469-1.47538.53656.13412.60339.8718.60339,1.20708.46926l-.53639.67055c-.26829.20115-.93882-.33528-.93882-.33528l.13412.40242a.4632.4632,0,0,0,.60356.134l-.20128.4694c-.20114.33526-.93883.067-.93883.067.40243.33528.60355.53657.60355.73768-.067.4023-.93882.13417-.93882.13417l-.06716.134c.13415.33527.60357.46943.53655.8047-.13412.33526-.8718.13412-.8718.13412l-.13413.20114c.2011.067.73768.4694.26825.80468a1.01984,1.01984,0,0,1-.93881.134l-.13415.13412.67054.33527-.13414.40242a.78561.78561,0,0,1-1.073.067l-.13412.26815c.06713.26827.73769.20128.73769.20128l-.13416.26813a.60937.60937,0,0,1-.80468,0l-.13412.33528c.06713.26827.80467.20114.80467.20114l-.134.20128c-.33541.46925-.60355.20112-.939.067.33544,1.274-.20112,1.54225-.20112,1.54225a.78048.78048,0,0,1-.87184.80467c-.73768,0-.8718-.93881-.73768-1.27408s0,1.14.80483.67055c.60356-.40228-1.27422-1.07283-.26827-1.60924,0,.26813,0,.93869.60355.73756,0,0-.7377-1.00583-.13414-1.54226,0,0,.067.67055.53654.4023,0,0-.8718-1.47509.134-1.74339,0,0-.134-.87166.53655-.93868a.80306.80306,0,0,0,.20115-.5364Zm13.01-9.52165a17.44976,17.44976,0,0,1,2.61536,1.14c-.40228-.73768-2.07879-1.27411-2.07879-1.27411l-.53657.13415Zm-.20111.60355c-.80483-1.2741-2.07893-1.073-2.74964-1.207,1.27425.46927,2.74964,1.207,2.74964,1.207ZM100.36789,90.90138a2.80866,2.80866,0,0,1,2.28005.46941c.13415-.87166-.80467-1.07281-1.34123-1.00583l-.93882.53642Zm-.87184,3.62086c1.14011.13417,1.81066-1.20694,1.81066-1.20694-1.14.93883-2.14593-.13415-2.01178-.40228-.13415.13415-.93884,1.47526.20112,1.60922Zm1.20711-3.0173c1.94478-.26828,1.14011,1.40808,1.14011,1.40808,1.20708-1.47521.13412-1.74334-.2683-1.74334a1.55279,1.55279,0,0,0-.87181.33526Zm2.28.53641c-1.00581,1.54223-2.21291,3.01731-3.21888,3.01731-.46939,0-.60354.06716-.87181-.26811l-.73769-1.00582c-.067-.87171,1.6095-1.74338,1.6095-1.74338a3.57161,3.57161,0,0,0-2.07891.5364,1.50148,1.50148,0,0,1,.67068-1.40807c.13415-.40242,1.81064-.46944,1.81064-.46944a2.718,2.718,0,0,0-.67068-.20111l.87184-.20115s.53654-.13412,1.20708-.26826c.87185.13414,1.8778.53639,1.40823,2.01163Zm-2.4381-6.19364s.69461-.847,1.164-.04229l.40241.20114-1.60953.40227,2.14593.067.26829.46939-.60356.20114,1.1401.26828.26813.46942h-.7377l.06715.26813.93884.13412a2.37678,2.37678,0,0,1-1.94478.67056l-1.14-.26828,1.60939-.5364-.46941-.20115s-1.00583,0-1.67652.067c0,0,1.47538-.5364,1.87779-.6034h-1.34125l.73768-.60354s-1.06287.07859-2.404,1.88895l.63987-.92419Z"/><path class="cls-6" d="M95.03942,101.60534c.14844.06233.2875.12529.4128.18813l.0382.0061a1.39992,1.39992,0,0,1,.23992.05744c.01964-.07055-.0077-.1828-.306-.26805a1.4575,1.4575,0,0,1,1.54238.40228c.87181.80467,1.073.33527.93883.06713-.13415-.20129-.40242-.20129-.67055-.33527-.2013-.13414-.2013-.20115-.6707-.60357,0,0,.26828.20115,1.14011.06715l1.073-.13413s-.33527-.13415-.33527-.33527c0-.13415.53641-.13415.73769-.20116.26813-.13412-.60356-.4694-.939-.87168,0,0,.9249.40424,1.00313.08611l-.00246-.11892c-.06866-.439-.20573-.512-.59827-.839-.4024-.40227-.13415-.46928-.13415-.46928a1.866,1.866,0,0,0,1.14011,0,3.21432,3.21432,0,0,0,.47984-.24417l.54776-.51421c-.4464.10946-1.60433.356-2.03356.08783-.46942-.33528-.067-.26826.06715-.53638.134-.2683,0-.2683-.06715-.53644-.13268-.19907-.06754-.72552.518-.9316l-.004-.19468a4.19812,4.19812,0,0,1-1.05035-.34894c-.40242-.26829.134-.73754-.20128-1.14-.26829-.33528-.60356,0-.7377-.33528-.20113-.33527.33528-2.01149-.13415-1.67621a4.21671,4.21671,0,0,1-2.94307.45384,6.82234,6.82234,0,0,1-1.48087.01395,11.956,11.956,0,0,1-5.80329-2.25378,2.86779,2.86779,0,0,0-2.25014.092,3.39992,3.39992,0,0,0-1.6-.35192s-.76937-.76455-1.41249-.63494a1.03168,1.03168,0,0,0-.91955,1.33687,2.17472,2.17472,0,0,1,1.129-.21459c.4903.12291,1.41687.74779,1.36439,1.46278,0,0,1.96164.94823,2.00894,2.23327,0,0-1.40063.50929-4.03554-1.57785,0,0,.1153,1.807,4.08649,3.02565,0,0,2.45506,1.9851,3.35463,2.96856.97766,1.0746,2.33218,1.04582,2.89529,1.557.55845.511,2.33657.75709,3.18168,1.275A5.13824,5.13824,0,0,1,95.03942,101.60534Z"/><path class="cls-4" d="M89.61881,92.605a11.4289,11.4289,0,0,0,4.02373.73752v-.13412a10.8272,10.8272,0,0,1-4.09072-1.00583l.067.40243Z"/><path class="cls-4" d="M89.8871,93.14137c.33526.134,1.47537.40228,1.47537.40228s.87183,0,.067-.13415a15.462,15.462,0,0,1-1.60939-.46926l.067.20113Z"/><path class="cls-4" d="M89.75293,96.6951c-.46939-.46929-1.34121-1.60924-2.34718-1.67624-.33528.067-.20116.26813.06714.40228a3.897,3.897,0,0,1,2.01179,1.207l.26825.067Z"/><path class="cls-4" d="M90.02123,97.36565a4.11535,4.11535,0,0,0-1.81065-1.13984c-.33528-.06713-.46942.20116,0,.33528.40242.134,1.20709.80456,1.74351,1.00567.20126.06715.06714-.20111.06714-.20111Z"/><path class="cls-4" d="M88.747,97.70093a11.20758,11.20758,0,0,1,2.3472,1.60934c.40243.33528.60355.26813,0-.20128-.60356-.46926-1.74367-1.60922-2.14593-1.81036,0,0-.87182.26813-.20127.4023Z"/><path class="cls-4" d="M90.75892,97.43278c-.33528,0-.06715.26815.46939.60341s1.34127.80467,1.54239.93882c.20128.067.13415-.20128.13415-.20128a4.21552,4.21552,0,0,1-1.67654-1.207.441.441,0,0,0-.46939-.134Z"/><path class="cls-4" d="M91.36247,98.975a18.21653,18.21653,0,0,0,2.347,1.07282c.60357.26814,0-.20114,0-.20114a7.48933,7.48933,0,0,1-2.14593-1.2741s-.73768.06714-.20112.40242Z"/><path class="cls-4" d="M92.63655,100.24895c.2683.067,1.34126.46943,1.67654.60355.33542.067.60367,0,.26827-.13412a19.12495,19.12495,0,0,0-1.94481-.8047c-.20111,0-.26813.26828,0,.33527Z"/><path class="cls-4" d="M94.78264,100.11482c.5364.06714,1.54236.33527,1.54236.33527-.33528-.13412-1.47537-.53641-1.74364-.67055,0,0-.33528.20128.20128.33528Z"/><path class="cls-4" d="M94.64851,99.24312a2.0653,2.0653,0,0,0-.73769-.53638c-.46944-.26813-.46944.13412-.2013.20112l.939.33526Z"/><path class="cls-4" d="M90.22236,94.48247l-.20113-.2013A8.94522,8.94522,0,0,1,87.20459,92.739c-.40241-.33528-.53639-.60342-.80466-.73756-.20129-.20114-.53655.067-.7377-.067a.39248.39248,0,0,1-.13413-.4024,1.43811,1.43811,0,0,1-.40242-.067,1.48859,1.48859,0,0,1-.40228-.80469,1.442,1.442,0,0,0,.73768,1.67636c-.26826.73758.067,1.07284.53643,1.14a.70261.70261,0,0,0,.67069-.20129l.134.2683a3.32219,3.32219,0,0,1,2.07895.5364,2.25872,2.25872,0,0,0,1.34123.40242Z"/><path class="cls-4" d="M83.91858,90.59332c-.26829.20111.20128.87167.46941,1.00582a1.52076,1.52076,0,0,1-.20115-.80471c-.067-.20111-.20113-.26825-.26826-.20111Z"/><path class="cls-1" d="M124.26165,96.61763a.78148.78148,0,1,1-.55277.22889A.75162.75162,0,0,1,124.26165,96.61763Zm.50094,1.28909a.71936.71936,0,0,0,0-1.01485.67508.67508,0,0,0-.50094-.20946.68792.68792,0,0,0-.50527.20946.72471.72471,0,0,0,0,1.01485.68792.68792,0,0,0,.50527.20946A.67508.67508,0,0,0,124.76259,97.90672Zm-.31959-.41241.16626.30445h-.18135l-.14036-.2699h-.1166v.2699h-.16625v-.79893h.26987a.27064.27064,0,0,1,.30445.25913A.24067.24067,0,0,1,124.443,97.49431Zm-.272-.339v.22238h.10362c.08636,0,.1382-.04318.1382-.1101,0-.07559-.04533-.11228-.1382-.11228Z"/></svg>