<svg id="Layer_1" data-name="Layer 1" xmlns="http://www.w3.org/2000/svg" width="200" height="200" viewBox="0 0 200 200"><defs><style>.cls-1,.cls-2{fill:#021d49;}.cls-2{fill-rule:evenodd;}</style></defs><path class="cls-1" d="M147.07685,89.92859c-.50712-7.64393-6.30174-10.47042-11.54225-13.14907-5.78813-2.95918-20.04243-7.34535-35.53758-7.34535-15.48357,0-29.73948,4.38617-35.52761,7.34535-5.24076,2.67865-11.03322,5.50514-11.55186,13.14907-.55767,8.37765-.197,17.12123,2.11787,20.7007,2.07,3.20167,4.715,7.88084,17.76708,14.30913A65.77342,65.77342,0,0,0,99.997,131.10867a65.80966,65.80966,0,0,0,27.2058-6.17025c13.05083-6.42829,15.69524-11.10746,17.75983-14.30913C147.28292,107.04982,147.64412,98.30624,147.07685,89.92859Zm-5.98541,14.01115c-.816,1.42137-1.86827,4.35243-10.14029,8.30477a58.10281,58.10281,0,0,1-13.98586,4.41163.34708.34708,0,0,0-.30174.34535v.01625l.0084.31538c0,6.19022-7.46507,11.20972-16.67493,11.22345-9.20115-.01373-16.6643-5.03323-16.6643-11.22345l.00875-.2942v-.03743a.35068.35068,0,0,0-.28082-.34163A58.13984,58.13984,0,0,1,69.052,112.24451c-8.27544-3.95234-9.32766-6.8834-10.13935-8.30477-.8986-1.56784-1.26639-6.75438-.99955-10.36131.24088-3.19292.724-5.32492,5.14816-7.31663,4.57038-2.05655,21.43291-4.5164,36.9358-4.5164,15.51295,0,32.3761,2.45985,36.94521,4.5164,4.42536,1.99171,4.90788,4.12371,5.145,7.31663C142.35844,97.18536,141.99005,102.3719,141.09144,103.93974Z"/><path class="cls-2" d="M99.753,108.445a5.56077,5.56077,0,0,1-.7496.03613c-.17708-.02369-.3638,0-.52275-.03613a.98723.98723,0,0,0-.39519.00874,1.19675,1.19675,0,0,0-.52147.19259,8.9066,8.9066,0,0,0-.64179.71942c-.0826.0704-.34471.28923-.48623.42826a1.51374,1.51374,0,0,0-.31075.63273,2.37176,2.37176,0,0,0,0,.59283.92648.92648,0,0,1-.02278.288,2.622,2.622,0,0,1-.11778.44008,2.27814,2.27814,0,0,0-.05707.57106,4.47723,4.47723,0,0,1-.02151.71565,1.42953,1.42953,0,0,1-.447.854c-.38243.42456-.36469.49937-.3996.58976a.311.311,0,0,0,.04334.31982c.10565.1502.17676.14643.26338.22814.0798.076.37841.12837.27615.46625-.11873.35038.08918.37407.0932.50059.00472.12658-.03492.17018-.02209.28055.01807.10973.11905.25.11905.3553a4.84136,4.84136,0,0,1-.03242.7094s-.05548.52242.67575.70256a2.52342,2.52342,0,0,1,1.3951.66707,1.14312,1.14312,0,0,1,.101.92943,1.80767,1.80767,0,0,1-.7957.98995c-.51712.36277-1.4154.66579-2.48916,1.26979a3.81262,3.81262,0,0,0-1.42543,1.10715,2.04158,2.04158,0,0,0-.35064.75184c-.02336.18384-.07073.47685.25808.62086a1.03086,1.03086,0,0,0,.61.11094h12.88443a.9937.9937,0,0,0,.81191-.26868c.28457-.34407.0443-1.01107-.02177-1.17877a2.66361,2.66361,0,0,0-.62743-.75056,16.92141,16.92141,0,0,0-1.78385-1.13958,10.65926,10.65926,0,0,1-2.39252-1.68434,1.95288,1.95288,0,0,1-.54642-1.7324.65052.65052,0,0,1,.71379-.42954,5.573,5.573,0,0,0,.85028.09039.83313.83313,0,0,0,.62807-.48061c.206-.35033.78918-.47314.917-.56168a1.58015,1.58015,0,0,0,.79423-1.09713c.05234-.81165-.26932-.821-.365-1.66882a1.89658,1.89658,0,0,0-.57885-1.36019,5.53733,5.53733,0,0,1-.57445-1.22371,1.43936,1.43936,0,0,0-.85059-.82416,2.99132,2.99132,0,0,1-1.06163-.63082,2.23423,2.23423,0,0,0-.92069-.69445,7.47351,7.47351,0,0,1-1.07912-.18768,1.99349,1.99349,0,0,0-.60592-.20759C99.90945,108.46991,100.01452,108.4362,99.753,108.445Zm-15.26762,8.85889c0-5.62727,6.95165-10.18729,15.52507-10.18729,8.579,0,15.53036,4.56,15.53036,10.18729,0,5.62235-6.95132,10.183-15.53036,10.183C91.437,127.48685,84.48537,122.92619,84.48537,117.30384Z"/><path class="cls-1" d="M68.30735,89.46853H62.93471v14.91073h5.16658c4.35,0,5.578-2.37509,5.578-7.66206C73.67934,92.33235,72.86455,89.46853,68.30735,89.46853Zm-.73187,12.33174h-1.426V91.88039h1.36018c2.4462,0,2.74074,1.64508,2.74074,4.8418C70.25041,100.55537,69.80191,101.80027,67.57548,101.80027Z"/><path class="cls-1" d="M89.37956,89.044c-4.37209,0-5.76227,3.52462-5.76227,7.87583,0,4.34376,1.39018,7.87087,5.76227,7.87087,4.35531,0,5.76318-3.52711,5.76318-7.87087C95.14274,92.56859,93.73487,89.044,89.37956,89.044Zm0,13.42332c-2.11356,0-2.30685-2.48355-2.30685-5.545,0-3.05894.24627-5.53688,2.30685-5.53688,1.90445,0,2.31649,2.47794,2.31649,5.53688C91.69605,99.98374,91.284,102.46729,89.37956,102.46729Z"/><rect class="cls-1" x="78.89736" y="101.8315" width="2.54961" height="2.54776"/><path class="cls-1" d="M81.00346,95.39755V92.55486a4.76747,4.76747,0,0,0-.53487-.04238A2.99033,2.99033,0,0,0,77.803,94.359h-.04487V92.81607H74.92047v11.56319h2.9692V97.43783a2.00056,2.00056,0,0,1,2.19246-2.08522C80.38542,95.35261,80.70082,95.37508,81.00346,95.39755Z"/><path class="cls-1" d="M131.10079,93.91015a3.90172,3.90172,0,0,0-1.02174-.94629,4.42262,4.42262,0,0,0-1.29884-.58913,5.149,5.149,0,0,0-1.44624-.21008,4.79606,4.79606,0,0,0-2.07806.45258,4.53467,4.53467,0,0,0-1.589,1.281,5.97811,5.97811,0,0,0-1.02985,2.05592,9.26674,9.26674,0,0,0-.35064,2.645,8.06087,8.06087,0,0,0,.61281,3.289,4.75759,4.75759,0,0,0,1.7769,2.14821,4.9411,4.9411,0,0,0,2.74508.75427,5.49292,5.49292,0,0,0,2.42092-.51183,4.353,4.353,0,0,0,1.70093-1.46494,4.52725,4.52725,0,0,0,.76863-2.18805h-3.11538a2.31461,2.31461,0,0,1-.67951,1.22121,1.63667,1.63667,0,0,1-1.157.44756,1.71076,1.71076,0,0,1-1.44713-.77049,3.28312,3.28312,0,0,1-.56979-2.00414V99.3872h7.08289v-.4757a11.44271,11.44271,0,0,0-.31669-2.88747A5.9312,5.9312,0,0,0,131.10079,93.91015Zm-5.73235,3.11377a3.39,3.39,0,0,1,.65335-1.8228,1.67631,1.67631,0,0,1,1.35088-.65327,1.49532,1.49532,0,0,1,1.27107.62028,3.84036,3.84036,0,0,1,.62928,1.85579Z"/><path class="cls-1" d="M138.99845,92.51248a2.99557,2.99557,0,0,0-2.66624,1.84648h-.043V92.81607h-2.83732v11.56319h2.96889V97.43783a2.00021,2.00021,0,0,1,2.19182-2.08522c.30386,0,.62334.02247.92195.04494V92.55486A4.66889,4.66889,0,0,0,138.99845,92.51248Z"/><polygon class="cls-1" points="122.444 92.816 119.176 92.816 116.145 97.136 116.145 89.396 113.172 89.396 113.172 104.379 116.145 104.379 116.145 101.002 117.2 99.631 119.667 104.379 122.934 104.379 119.11 97.376 122.444 92.816"/><path class="cls-1" d="M104.71294,93.91015a4.03091,4.03091,0,0,0-1.01765-.94629,4.44173,4.44173,0,0,0-1.29821-.58913,5.156,5.156,0,0,0-1.4472-.21008,4.7918,4.7918,0,0,0-2.07895.45258,4.5395,4.5395,0,0,0-1.59153,1.281,6.048,6.048,0,0,0-1.032,2.05592,9.5032,9.5032,0,0,0-.35312,2.645,8.11136,8.11136,0,0,0,.61714,3.289,4.79715,4.79715,0,0,0,1.77632,2.14821,4.94629,4.94629,0,0,0,2.74942.75427,5.49538,5.49538,0,0,0,2.41716-.51183,4.28373,4.28373,0,0,0,1.69654-1.46494,4.53515,4.53515,0,0,0,.777-2.18805h-3.11532a2.33514,2.33514,0,0,1-.67823,1.22121,1.64684,1.64684,0,0,1-1.1639.44756,1.71771,1.71771,0,0,1-1.44687-.77049,3.26163,3.26163,0,0,1-.566-2.00414V99.3872h7.0779v-.4757a11.47846,11.47846,0,0,0-.3142-2.88747A6.03836,6.03836,0,0,0,104.71294,93.91015Zm-5.73356,3.11377a3.39623,3.39623,0,0,1,.65795-1.8228,1.6554,1.6554,0,0,1,1.34621-.65327,1.49642,1.49642,0,0,1,1.27234.62028,3.85927,3.85927,0,0,1,.63178,1.85579Z"/><path class="cls-1" d="M110.58488,90.38552h-2.96479v2.29714h-1.50891v2.02293h1.50891v6.6209c0,2.3458.42514,3.05277,2.74885,3.05277.69068,0,1.29009-.068,1.93961-.12283V102.1868a6.19556,6.19556,0,0,1-.671.043c-.86,0-1.05263-.36405-1.05263-1.26239V94.70559h1.72367V92.68266h-1.72367Z"/></svg>