<svg id="Layer_1" data-name="Layer 1" xmlns="http://www.w3.org/2000/svg" width="200" height="200" viewBox="0 0 200 200"><defs><style>.cls-1{fill:#021d49;}</style></defs><path class="cls-1" d="M68.53291,98.98639c-.65741,1.8178-1.37036,3.61666-2.00727,5.44329a18.942,18.942,0,0,1,5.68519,3.54452c-.994,2.532-1.98729,5.06334-3.02025,7.5793a16.18824,16.18824,0,0,0-5.44148-3.659c-1.115,2.958-2.2066,5.92137-3.30367,8.88582q-4.296.00974-8.59253.00182Q53.773,115.64407,55.67875,110.5a8.30457,8.30457,0,0,0-7.15728,3.72826,5.07893,5.07893,0,0,0-.87517,3.401,9.27357,9.27357,0,0,0,3.41293,6.5061,16.78185,16.78185,0,0,0,9.54245,3.35895,21.44953,21.44953,0,0,0,8.33819-.87906,12.84722,12.84722,0,0,0,6.20115-4.22476A13.45917,13.45917,0,0,0,77.7569,113.117c-.22839-2.4978-.83-4.94161-1.28367-7.40437a45.08393,45.08393,0,0,1-.96782-8.415,27.26916,27.26916,0,0,1-6.9725,1.68882m-9.142-17.09216a5.60932,5.60932,0,0,0-.01972,4.7127,7.821,7.821,0,0,0,3.68414,3.8736c.33922-.77575.61978-1.57772.92811-2.36542a16.67379,16.67379,0,0,0,1.20089-3.8448,4.19406,4.19406,0,0,0-.74073-3.24657,3.02625,3.02625,0,0,0-3.20685-.88866,3.18365,3.18365,0,0,0-1.84584,1.75915m2.1931-10.218h1.99533a11.69047,11.69047,0,0,1,5.62757,1.84843,9.78139,9.78139,0,0,1,4.0026,5.714,14.508,14.508,0,0,1-.61614,8.70258c-.341.97249-.69453,1.94135-1.04023,2.912a8.91689,8.91689,0,0,0,4.33195-2.39787,9.771,9.771,0,0,0,2.27875-4.6774c2.92552-.01453,5.84921-.00286,8.77291-.00649a34.259,34.259,0,0,0-2.54918,12.58268c.02777,4.98859,1.84739,9.72386,2.34337,14.65665a25.5021,25.5021,0,0,1-.6953,10.00417,19.49551,19.49551,0,0,1-4.66936,8.10511,21.78565,21.78565,0,0,1-7.88711,5.17624A31.08449,31.08449,0,0,1,61.557,136.24883a27.55113,27.55113,0,0,1-13.85468-3.74021,18.95627,18.95627,0,0,1-7.999-9.41683,15.95489,15.95489,0,0,1,.40514-12.24892,14.41539,14.41539,0,0,1,6.79809-6.80093,21.92026,21.92026,0,0,1,11.74566-1.78174c.55464-1.44173,1.09863-2.88866,1.66417-4.32572a16.45065,16.45065,0,0,1-8.13523-7.04881,13.66967,13.66967,0,0,1,1.77-15.55594A11.53051,11.53051,0,0,1,61.584,71.6762"/><path class="cls-1" d="M82.55551,80.58746c4.41838-3.35686,6.66027-5.23125,8.08929-7.714,2.01168-3.49182.79289-6.45342-1.75552-7.611a4.81073,4.81073,0,0,0-6.33377,2.27694,4.81081,4.81081,0,0,0-6.33377-2.27694c-2.54867,1.15755-3.7672,4.11915-1.75552,7.611,1.42979,2.48275,3.67065,4.35714,8.08929,7.714"/><path class="cls-1" d="M94.3043,90.1369v-.035a6.35082,6.35082,0,0,1,6.48716-6.39892,6.78937,6.78937,0,0,1,4.85959,1.69713l-1.714,2.06852a4.55347,4.55347,0,0,0-3.23411-1.25592,3.71638,3.71638,0,0,0-3.55256,3.85389v.0353a3.70636,3.70636,0,0,0,3.74643,3.92318,4.34623,4.34623,0,0,0,2.563-.7415v-1.768h-2.73969V89.16442h5.373v5.37322a8.02563,8.02563,0,0,1-5.28447,1.96211A6.192,6.192,0,0,1,94.3043,90.1369"/><path class="cls-1" d="M114.64742,90.80808A2.0312,2.0312,0,0,0,112.65,88.7938a2.11221,2.11221,0,0,0-2.05035,2.01428h4.04775m-6.681.79574v-.0353a4.71629,4.71629,0,0,1,4.68363-4.9307c3.164,0,4.61381,2.45627,4.61381,5.14275,0,.212-.01843.46016-.0353.70724H110.6347a2.19755,2.19755,0,0,0,2.31586,1.85569,3.10066,3.10066,0,0,0,2.29769-.97248l1.53829,1.36128a5.00447,5.00447,0,0,1-8.82015-3.12848"/><path class="cls-1" d="M119.26021,86.814h2.68647v1.34312a3.35309,3.35309,0,0,1,2.775-1.52012c2.03244,0,3.217,1.34337,3.217,3.51752v6.13315h-2.68649V91.00325c0-1.27277-.60083-1.92681-1.62652-1.92681-1.02492,0-1.679.654-1.679,1.92681v5.28446h-2.68647V86.814"/><path class="cls-1" d="M136.49251,90.80808a2.03115,2.03115,0,0,0-1.99715-2.01428,2.112,2.112,0,0,0-2.05035,2.01428h4.0475m-6.681.79574v-.0353a4.71649,4.71649,0,0,1,4.68388-4.9307c3.16352,0,4.6133,2.45627,4.6133,5.14275,0,.212-.01791.46016-.03582.70724h-6.59306a2.19772,2.19772,0,0,0,2.31587,1.85569,3.10228,3.10228,0,0,0,2.29769-.97248l1.53828,1.36128a5.00447,5.00447,0,0,1-8.82014-3.12848"/><path class="cls-1" d="M141.10529,86.814h2.68648v1.90865a2.92676,2.92676,0,0,1,3.02207-2.08565v2.81028h-.14068c-1.78536,0-2.88139,1.07864-2.88139,3.3413v3.49909h-2.68648V86.814"/><path class="cls-1" d="M153.65423,92.94694v-.4773a4.16956,4.16956,0,0,0-1.71478-.3527c-1.14845,0-1.85544.45912-1.85544,1.30729v.03608c0,.72436.60057,1.14819,1.46666,1.14819,1.25486,0,2.10356-.68908,2.10356-1.66156m-4.68364-3.428-.67194-2.05062a8.34775,8.34775,0,0,1,3.6761-.76044,4.37418,4.37418,0,0,1,3.19985,1.06072,4.12884,4.12884,0,0,1,1.02465,3.02233v5.49729H153.601v-1.0257a3.64186,3.64186,0,0,1-2.86323,1.20166c-1.78537,0-3.252-1.02466-3.252-2.89853m0,0v-.035c0-2.06878,1.573-3.02311,3.81781-3.02311a6.72552,6.72552,0,0,1,2.31586.38984v-.15988c0-1.11316-.69038-1.7319-2.03349-1.7319a6.96022,6.96022,0,0,0-2.61537.51337"/><rect class="cls-1" x="158.63789" y="83.38528" width="2.68648" height="12.90269"/><polyline class="cls-1" points="94.852 100.971 97.786 100.971 101.039 106.203 104.29 100.971 107.225 100.971 107.225 113.343 104.52 113.343 104.52 105.266 101.039 110.55 100.968 110.55 97.521 105.319 97.521 113.343 94.852 113.343 94.852 100.971"/><path class="cls-1" d="M110.03414,103.86935h2.68647V113.343h-2.68647Zm-.07034-3.42825H112.792v2.3862H109.9638Z"/><rect class="cls-1" x="115.3718" y="100.44136" width="2.68674" height="12.90269"/><rect class="cls-1" x="120.70973" y="100.44136" width="2.68648" height="12.90269"/><path class="cls-1" d="M125.18054,112.0884,126.329,110.321a5.35841,5.35841,0,0,0,2.9878,1.13133c.77758,0,1.13133-.28316,1.13133-.70725v-.035c0-.58371-.91928-.77784-1.9621-1.09629-1.32625-.38879-2.82819-1.00675-2.82819-2.84506v-.03608c0-1.926,1.55515-3.0039,3.46405-3.0039a6.55558,6.55558,0,0,1,3.53543,1.09578l-1.02569,1.8557a5.60673,5.60673,0,0,0-2.56294-.884c-.654,0-.98962.28315-.98962.654v.035c0,.5305.90111.77758,1.92681,1.13133,1.32546.442,2.86349,1.07812,2.86349,2.81v.03608c0,2.103-1.57332,3.05736-3.62394,3.05736a6.63711,6.63711,0,0,1-4.06488-1.43162"/></svg>