<svg id="Layer_1" data-name="Layer 1" xmlns="http://www.w3.org/2000/svg" width="200" height="200" viewBox="0 0 200 200"><defs><style>.cls-1{fill:#021d49;}</style></defs><path class="cls-1" d="M41.09763,96.076a15.11431,15.11431,0,0,1,15.124-14.90574,14.20328,14.20328,0,0,1,10.2159,4.10822l-2.872,2.872a10.38414,10.38414,0,0,0-7.34386-2.90837,10.83491,10.83491,0,0,0,0,21.66785,9.97456,9.97456,0,0,0,7.52553-2.98118,8.49669,8.49669,0,0,0,2.21775-5.12612H56.22165V94.73094H69.92754a13.266,13.266,0,0,1,.21828,2.54489,13.45439,13.45439,0,0,1-3.5266,9.52515,13.62759,13.62759,0,0,1-10.39757,4.18074A15.11422,15.11422,0,0,1,41.09763,96.076Z"/><path class="cls-1" d="M81.2225,91.7861a9.59788,9.59788,0,1,0,9.634,9.59781A9.46042,9.46042,0,0,0,81.2225,91.7861Zm0,15.41469a5.83166,5.83166,0,1,1,5.41678-5.81688A5.55246,5.55246,0,0,1,81.2225,107.20079Z"/><path class="cls-1" d="M102.23938,91.7861a9.59788,9.59788,0,1,0,9.63429,9.59781A9.46042,9.46042,0,0,0,102.23938,91.7861Zm0,15.41469a5.83166,5.83166,0,1,1,5.41679-5.81688A5.55262,5.55262,0,0,1,102.23938,107.20079Z"/><path class="cls-1" d="M128.03638,92.36772V93.931h-.14533a6.65069,6.65069,0,0,0-5.05345-2.14494,9.6065,9.6065,0,0,0,0,19.19562,6.54323,6.54323,0,0,0,5.05345-2.18128h.14533V110.182c0,3.67193-1.96313,5.63507-5.12611,5.63507a5.31066,5.31066,0,0,1-4.83517-3.41732l-3.67194,1.52685a9.14648,9.14648,0,0,0,8.50711,5.67154c4.94445,0,9.12533-2.9085,9.12533-9.99776V92.36772Zm-4.83516,14.83307a5.83775,5.83775,0,0,1,0-11.63376c2.872,0,5.12611,2.47223,5.12611,5.85321C128.32733,104.765,126.07325,107.20079,123.20122,107.20079Z"/><rect class="cls-1" x="134.94397" y="82.18829" width="4.21722" height="28.21181"/><path class="cls-1" d="M150.72227,107.20079a4.882,4.882,0,0,1-4.6535-2.90837l12.8336-5.30793-.43628-1.09071c-.7999-2.14494-3.23565-6.10768-8.21644-6.10768-4.94445,0-9.05238,3.89007-9.05238,9.59781a9.39209,9.39209,0,0,0,9.525,9.59781,9.54706,9.54706,0,0,0,7.99815-4.25355l-3.272-2.18128A5.48115,5.48115,0,0,1,150.72227,107.20079ZM150.395,95.49437a3.717,3.717,0,0,1,3.56293,2.03594l-8.57977,3.56279A5.26412,5.26412,0,0,1,150.395,95.49437Z"/></svg>