<svg id="Layer_1" data-name="Layer 1" xmlns="http://www.w3.org/2000/svg" width="200" height="200" viewBox="0 0 200 200"><defs><style>.cls-1{fill:#021d49;}</style></defs><path class="cls-1" d="M54.26472,112.99323c-5.47506-1.30945-9.99667-5.65979-9.99667-12.99323A13.35471,13.35471,0,0,1,57.88966,86.5507a15.78533,15.78533,0,0,1,8.64393,2.34748l2.754-5.409h-24.611l-2.40114,4.71458V113.311H36.49708V99.55218l-8.63565,16.95867h24.612Zm8.42105-15.02292h5.62675v12.4928a17.48523,17.48523,0,0,1-10.42286,2.95215,15.737,15.737,0,0,1-2.92841-.27346l-2.06581,4.05729H26.73979l9.75729-19.16271V86.68793h5.77844l1.97911-3.887H70.41029L67.11143,89.28,64.735,93.94813l-2.04927,4.02218h-.77185l2.27319-4.46382a9.55378,9.55378,0,0,0-2.37635-1.20522,10.55438,10.55438,0,0,0-3.68068-.584c-4.61035,0-7.8762,3.7075-7.8762,8.28277,0,4.20485,2.29177,7.58212,6.4481,8.20641l2.54974-5.00763h.77182l-2.58995,5.08812q.34052.02319.69649.02374a7.53525,7.53525,0,0,0,4.64443-1.27333v-3.83853h-2.751Zm-5.80732,0h5.03547l-2.6622,5.22847H54.209Z"/><polygon class="cls-1" points="74.189 88.415 76.059 88.415 77.915 95.46 77.942 95.46 80.056 88.415 81.817 88.415 83.889 95.46 83.917 95.46 85.813 88.415 87.628 88.415 84.824 98.007 83.172 98.007 80.922 90.814 80.895 90.814 78.646 98.007 76.994 98.007 74.189 88.415"/><polygon class="cls-1" points="88.766 88.415 95.12 88.415 95.12 89.905 90.473 89.905 90.473 92.344 94.876 92.344 94.876 93.78 90.473 93.78 90.473 96.49 95.364 96.49 95.364 98.007 88.766 98.007 88.766 88.415"/><path class="cls-1" d="M102.2056,94.34869,100.729,90.44724l-1.50447,3.90145Zm-2.16792-5.93322h1.47659l4.13158,9.59118h-1.95024L102.801,95.8119H98.64154l-.86676,2.19475h-1.91Z"/><polygon class="cls-1" points="106.594 88.415 108.301 88.415 108.301 96.49 112.379 96.49 112.379 98.007 106.594 98.007 106.594 88.415"/><polygon class="cls-1" points="114.289 89.906 111.349 89.906 111.349 88.416 118.936 88.416 118.936 89.906 115.996 89.906 115.996 98.007 114.289 98.007 114.289 89.906"/><polygon class="cls-1" points="120.047 88.415 121.753 88.415 121.753 92.29 126.238 92.29 126.238 88.415 127.945 88.415 127.945 98.007 126.238 98.007 126.238 93.753 121.753 93.753 121.753 98.007 120.047 98.007 120.047 88.415"/><polygon class="cls-1" points="75.165 102.037 77.833 102.037 80.326 108.851 80.367 108.851 82.833 102.037 85.515 102.037 85.515 111.628 83.822 111.628 83.822 103.92 83.794 103.92 80.882 111.628 79.689 111.628 76.818 103.92 76.791 103.92 76.791 111.628 75.165 111.628 75.165 102.037"/><path class="cls-1" d="M92.80368,107.97l-1.4766-3.90145L89.82262,107.97Zm-2.16793-5.93321h1.4766l4.13258,9.59118H94.29369l-.89463-2.19475H89.24065l-.8678,2.19475h-1.91Z"/><polygon class="cls-1" points="97.193 102.037 99.456 102.037 103.912 109.216 103.939 109.216 103.939 102.037 105.647 102.037 105.647 111.628 103.479 111.628 98.926 104.218 98.899 104.218 98.899 111.628 97.193 111.628 97.193 102.037"/><path class="cls-1" d="M112.93512,107.97l-1.4766-3.90145L109.95406,107.97Zm-2.16793-5.93321h1.47659l4.13158,9.59118h-1.95023l-.89463-2.19475h-4.15841l-.8678,2.19475h-1.91Z"/><path class="cls-1" d="M125.04581,111.12707a7.43949,7.43949,0,0,1-1.60561.549,9.28188,9.28188,0,0,1-2.01108.196,5.84252,5.84252,0,0,1-2.12771-.37249,4.86933,4.86933,0,0,1-1.652-1.04323,4.70978,4.70978,0,0,1-1.07724-1.59834,5.28206,5.28206,0,0,1-.38594-2.05239,5.20676,5.20676,0,0,1,.39936-2.07919,4.62189,4.62189,0,0,1,1.09789-1.57875,4.87011,4.87011,0,0,1,1.64583-1.003,5.879,5.879,0,0,1,2.05856-.35187,6.36942,6.36942,0,0,1,2.10706.33225,4.2964,4.2964,0,0,1,1.53749.874l-1.17841,1.27333a2.9113,2.9113,0,0,0-1.02258-.69136,3.56092,3.56092,0,0,0-1.43015-.2848,3.37942,3.37942,0,0,0-1.37444.27139,3.09292,3.09292,0,0,0-1.05044.745,3.36946,3.36946,0,0,0-.67071,1.11131,3.93213,3.93213,0,0,0-.2363,1.38165,4.07161,4.07161,0,0,0,.2363,1.41573,3.28022,3.28022,0,0,0,.67795,1.11751,3.03657,3.03657,0,0,0,1.07.73778,3.66063,3.66063,0,0,0,1.42914.26518,4.93715,4.93715,0,0,0,1.91-.3395v-2.43826h-2.01832v-1.40852h3.67139Z"/><polygon class="cls-1" points="127.119 102.037 133.473 102.037 133.473 103.527 128.825 103.527 128.825 105.965 133.228 105.965 133.228 107.401 128.825 107.401 128.825 110.111 133.716 110.111 133.716 111.628 127.119 111.628 127.119 102.037"/><polygon class="cls-1" points="135.382 102.037 138.051 102.037 140.544 108.851 140.585 108.851 143.05 102.037 145.733 102.037 145.733 111.628 144.038 111.628 144.038 103.92 144.012 103.92 141.099 111.628 139.907 111.628 137.035 103.92 137.008 103.92 137.008 111.628 135.382 111.628 135.382 102.037"/><polygon class="cls-1" points="147.846 102.037 154.199 102.037 154.199 103.527 149.553 103.527 149.553 105.965 153.956 105.965 153.956 107.401 149.553 107.401 149.553 110.111 154.444 110.111 154.444 111.628 147.846 111.628 147.846 102.037"/><polygon class="cls-1" points="156.109 102.037 158.372 102.037 162.829 109.216 162.856 109.216 162.856 102.037 164.563 102.037 164.563 111.628 162.396 111.628 157.844 104.218 157.816 104.218 157.816 111.628 156.109 111.628 156.109 102.037"/><polygon class="cls-1" points="168.614 103.527 165.674 103.527 165.674 102.037 173.26 102.037 173.26 103.527 170.32 103.527 170.32 111.628 168.614 111.628 168.614 103.527"/></svg>