<svg id="Layer_1" data-name="Layer 1" xmlns="http://www.w3.org/2000/svg" width="200" height="200" viewBox="0 0 200 200"><defs><style>.cls-1{fill:#021d49;}</style></defs><path class="cls-1" d="M48.9069,87.27246h4.94764l1.84257,13.40986,1.87668-13.40986h4.60646V112.659H58.56334V96.24646L56.24306,112.659H54.70757L52.35318,96.24646V112.659H48.9069Z"/><path class="cls-1" d="M68.26688,99.38232h.98865c1.15964,0,1.33133-.82115,1.33133-1.84543V92.45941c0-.98851-.20425-1.74022-1.33133-1.74022h-.98865Zm0,3.6481V112.659H64.41117v-25.385h6.107c2.7286,0,3.95767,1.16032,3.95767,4.19683v6.91844c0,3.00451-1.33024,4.64108-3.95767,4.64108Z"/><path class="cls-1" d="M82.60748,92.66449c0-1.32869-.44495-1.9453-1.33007-1.9453-.99075,0-1.36471.64917-1.36471,1.9453v14.60607c0,1.09037.30621,1.942,1.398,1.942,1.0251,0,1.29682-.85159,1.29682-1.942Zm3.92219,14.32961c0,3.54963-1.193,5.97227-4.91071,5.97227h-.65c-3.68458,0-4.98083-2.42264-4.98083-5.97227V92.86928c0-3.51441,1.33035-5.83565,4.94619-5.83565h.64916c3.75317,0,4.94619,2.32124,4.94619,5.80212Z"/><path class="cls-1" d="M93.60688,87.035c3.17369,0,4.40193,1.39936,4.40193,4.40122v4.163H94.28918V91.9488c0-.85313-.16946-1.50161-1.0916-1.50161-.92189,0-1.12513.57962-1.12513,1.7743V92.697c0,1.43375.272,2.21885,1.56907,3.89356L96.098,99.76035a8.7332,8.7332,0,0,1,2.28645,6.41624v.81751c0,3.71992-1.60389,5.93722-4.98181,5.93722h-.752c-3.07,0-4.70758-1.67121-4.70758-4.81054v-5.08435h3.82049v4.43669c0,1.16161.37648,1.775,1.26343,1.775.92174,0,1.26218-.61341,1.26218-2.18543v-.57822c0-1.80937-.16946-2.45886-1.56951-4.266l-2.45649-3.13861a9.01021,9.01021,0,0,1-2.11476-6.27849v-.81974c0-3.37625,1.70629-4.94662,4.74208-4.94662Z"/><path class="cls-1" d="M105.3274,87.035c3.173,0,4.3997,1.39936,4.3997,4.40122v4.163h-3.71726V91.9488c0-.85313-.17072-1.50161-1.09189-1.50161-.92174,0-1.12722.57962-1.12722,1.7743V92.697c0,1.43375.27409,2.21885,1.5712,3.89356l2.45631,3.16977a8.7238,8.7238,0,0,1,2.28491,6.41624v.81751c0,3.71992-1.60275,5.93722-4.98221,5.93722h-.74976c-3.07061,0-4.708-1.67121-4.708-4.81054v-5.08435h3.82048v4.43669c0,1.16161.37663,1.775,1.26343,1.775.92131,0,1.26275-.61341,1.26275-2.18543v-.57822c0-1.80937-.17072-2.45886-1.57008-4.266l-2.4562-3.13861a9.01456,9.01456,0,0,1-2.11725-6.27849v-.81974c0-3.37625,1.7085-4.94662,4.743-4.94662Z"/><path class="cls-1" d="M121.41772,101.09462v7.98211h1.15966c1.2271,0,1.50119-.58113,1.50119-1.70557V102.731c0-1.05778-.27409-1.63642-1.50119-1.63642Zm0-10.37363v6.58359h1.15966c1.02371,0,1.3291-.714,1.3291-1.77376V92.3246c0-1.02482-.27186-1.60361-1.3291-1.60361Zm-3.85653-3.44692h6.07343c3.20748,0,4.06047,1.67273,4.06047,4.1271v3.89175c0,2.11405-.92045,3.13805-1.9112,3.51441,1.02328.339,2.21784,1.1926,2.21784,3.71849v5.49285c0,2.69535-1.19456,4.64037-4.09525,4.64037h-6.34529Z"/><polygon class="cls-1" points="133.872 87.274 133.872 108.737 136.917 108.737 136.917 112.659 130.017 112.659 130.017 87.274 133.872 87.274"/><polygon class="cls-1" points="146.607 87.274 146.607 90.959 142.22 90.959 142.22 97.612 145.638 97.612 145.638 101.468 142.22 101.468 142.22 108.803 146.722 108.803 146.722 112.659 138.366 112.659 138.366 87.274 146.607 87.274"/><rect class="cls-1" x="111.58148" y="87.27407" width="3.85499" height="25.38497"/><rect class="cls-1" x="43.23902" y="87.27407" width="3.8543" height="25.38497"/><path class="cls-1" d="M152.59174,87.27407V88.3443h-.94131v6.30026h-1.10969V88.3443h-.94131V87.27407Z"/><path class="cls-1" d="M152.90737,87.27407h1.43642l.53512,3.89362.54456-3.89362H156.761v7.37049h-1.05023V89.87964l-.67348,4.76492h-.44565l-.68348-4.76492v4.76492h-1.00077Z"/></svg>