<svg id="Layer_1" data-name="Layer 1" xmlns="http://www.w3.org/2000/svg" width="200" height="200" viewBox="0 0 200 200"><defs><style>.cls-1,.cls-2{fill:#021d49;}.cls-2{fill-rule:evenodd;}</style></defs><path class="cls-1" d="M81.87676,92.48608q-.01188-1.90605,0-3.81182c-2.13339-.35821-4.591-.217-6.30082,1.25755-1.5293,1.3751-1.83,3.5607-1.7752,5.51117l-.04344-.00012V95.443H71.9316q.0039,1.90487,0,3.81h1.57869c.10035-.00012.20051-.00084.301-.00084v.00084h.00827v2.0823H73.813q.005,4.67562-.0018,9.35149h2.00813q1.19038.00038,2.38141-.00206-.00316-4.74483.00071-9.48833H78.2014V99.24918H81.129q-.00378-1.907,0-3.8089s-2.872.0002-2.94911,0c.03935-.85746-.06-1.88242.646-2.51764C79.6755,92.209,80.85959,92.44165,81.87676,92.48608Z"/><path class="cls-1" d="M65.96307,110.68672H67.913q.55391-.00015,1.10787,0H70.2532c-.02633-3.26521.02606-6.53036-.02633-9.79556-.0339-1.9162-.76081-4.0417-2.58806-4.941-2.61183-1.29938-5.67329-1.00655-8.46027-.5595-.01047,1.38557-.00255,2.77384-.00523,4.16208,1.79344-.38947,3.74915-.79476,5.52429-.13072a2.24425,2.24425,0,0,1,1.2628,1.94255,11.54653,11.54653,0,0,0-3.75436-.19863,5.28168,5.28168,0,0,0-3.79613,2.18291,4.94812,4.94812,0,0,0,1.038,6.55435,5.71192,5.71192,0,0,0,6.53064-.01835C65.976,110.08447,65.9682,110.4838,65.96307,110.68672Zm-.18064-3.29864c-1.1111.3424-2.46782.72154-3.48754-.05485a1.673,1.673,0,0,1,.1986-2.7556,4.98431,4.98431,0,0,1,3.3257-.13608A12.76589,12.76589,0,0,1,65.78243,107.38808Z"/><path class="cls-1" d="M43.52361,90.01288c1.749.01047,3.498.00253,5.247.00253-2.56206,3.44583-5.06667,6.93607-7.64442,10.36873,2.29538,3.43014,4.55426,6.88116,6.868,10.298-1.81439.013-3.62888-.00512-5.44057.01044q-3.0314-4.59978-6.05754-9.20267-.00783,4.60019.00256,9.20014c-1.5634-.00791-3.12681-.00253-4.69021-.00253q.00787-10.33368,0-20.66686c1.5634-.00778,3.12425,0,4.68765-.00778-.00269,3.25228-.00791,6.50456.00256,9.75685,2.332-3.2602,4.68765-6.502,7.02491-9.75685Z"/><path class="cls-1" d="M49.08174,95.48994c1.472-.00777,2.94642,0,4.421-.00777-.00525.97245-.0078,1.94508-.0235,2.915a5.19257,5.19257,0,0,1,3.97379-2.936c.00269,1.44314.02094,2.88885-.01825,4.332-1.87973.22492-3.81179,1.62621-3.87972,3.6549-.05232,2.41039-.01047,4.82615-.01313,7.23939q-2.23139,0-4.46017-.00285.004-7.6,0-15.19473Z"/><path class="cls-2" d="M127.56455,107.59843c-.61658.2466-.73982.36982-1.47976.61657a3.80265,3.80265,0,0,1-2.343,0c-2.343-.98654-.86317-4.56272-.86317-4.56272,9.61863-2.34305,8.26214-7.52233,5.67249-7.76908a10.47761,10.47761,0,0,0-10.11185,6.90577c-.37.98653-2.95962,8.01568,2.83625,8.50889a8.45626,8.45626,0,0,0,3.82278-.73994,8.30554,8.30554,0,0,0,2.713-2.34292C128.42784,107.10509,127.56455,107.59843,127.56455,107.59843Zm-1.35638-9.86537c.7398.2466-1.10991,3.94614-1.10991,3.94614a7.62428,7.62428,0,0,1-1.97307.49319C123.3718,101.6792,124.72829,96.99312,126.20817,97.73306Z"/><path class="cls-2" d="M150.00817,108.9548c-.12322-.12324-.37-.12324-.49319-.24659-.74-.49321-.12337-1.84971,0-2.58965l2.21967-7.89231c.12337-.49319.98654-3.08284-2.46627-2.58963a11.22387,11.22387,0,0,0-5.05606,2.343c.2466-.73994.49333-1.84971,0-2.09646-.61658-.24658-4.19276.86331-5.05593,1.60324a.418.418,0,0,0-.24672.73981,1.63555,1.63555,0,0,1,.24672,1.72647c-.49333,1.47975-1.97306,6.65918-2.343,7.64571-.37.98641-.86318,2.83623,0,3.45283.61655.49318,3.2062-.6166,3.57617-.86318a2.64468,2.64468,0,0,0,.86316-.49336c.49334-.49317-.2466-.73992.49334-3.32957,0-.12324.86318-2.71287,1.47976-4.93268a4.1832,4.1832,0,0,1,2.83624-2.83626c.98654-.12323.73994.74.6167,1.35651-.86331,2.713-1.84984,6.7824-2.21981,7.769-.36984.98654-.98654,2.9596,0,3.32959.86329.61655,4.80946-1.10992,5.1793-1.35654C150.37816,109.20155,150.37816,108.9548,150.00817,108.9548Z"/><path class="cls-2" d="M134.96365,108.9548c-.24673-.12324-.37-.12324-.49334-.24659-.73993-.49321-.2466-1.84971,0-2.58965l2.343-7.89231c.12336-.86316.61655-1.97306,0-2.343-.73994-.24658-4.31614.86331-5.1793,1.60324a.43093.43093,0,0,0-.12338.73981c.37.49334.37.8633.12338,1.72647-.37,1.47975-2.09644,6.7824-2.46628,7.769-.37.98654-.86331,2.9596.2466,3.32959.86318.61655,4.56271-.98655,5.05593-1.35654C135.33361,109.32477,135.33361,108.9548,134.96365,108.9548Z"/><path class="cls-2" d="M134.22371,94.0335c.2466.49333,2.46627-.49319,3.57618-1.10977a2.67541,2.67541,0,0,0,.73994-.8633c.2466-.86319.36984-1.23314.49321-1.84971a.4947.4947,0,0,0-.24661-.73995c-.49333-.12324-3.45282.24661-4.19275,1.47989C134.34707,91.44385,133.48377,93.78691,134.22371,94.0335Z"/><path class="cls-2" d="M167.27255,102.66573c-.37-1.3565-2.58968-1.72647-3.45285-.98653a2.27649,2.27649,0,0,0-.61655,1.72635c2.09632-.61658,2.46626,1.23326,2.09632,1.97307-.74,1.1099-.98654,1.47988-1.9731,1.47988h-6.53579c-.12325-.12338-.24661-.2466,0-.49335.37-.49319,6.7824-9.24866,7.02912-9.61864.12324-.2466.49323-.86331-.37-.86331h-7.15236a2.15353,2.15353,0,0,0-1.72647.86331,15.3235,15.3235,0,0,0-1.47975,3.69941s0,.49334.73992-.12323c.12326-.12337.36984-.61656.73983-.61656H158.887c1.3565,0-5.79587,6.78239-8.01555,10.35858-.37.61656.24661.61656.61656.61656h9.37205c2.34306,0,1.97307.37,3.20622-1.3565C164.06631,109.32477,167.88911,104.39209,167.27255,102.66573Z"/><path class="cls-2" d="M115.72621,106.8585l2.58965-9.98876c1.72647-6.04245,2.713-6.28906,3.32958-6.90563h-4.06952c-1.47973,0-2.58965,2.09632-2.83625,3.45283l-1.72648,6.28919h-3.6994s2.21967-8.01568,2.46628-8.87884c.12336-.37.12336-.86318-.61658-.86318-.12336,0-7.8923-.24673-10.35859.61657a5.14869,5.14869,0,0,0-3.2062,2.83626c-.37.86315-.8633,2.46626.2466,5.4259a1.89551,1.89551,0,0,0,.49333.73992c.36984.24661,3.57605-.2466,3.45283-.2466.24659,0,.37-.12337.12322-.61657a10.447,10.447,0,0,1-1.10978-2.83639c-.49332-4.316,2.58965-4.93254,3.08286-5.05591a5.98287,5.98287,0,0,1,2.09645,0c.2466,0,.86315.12337.98653.36995.2466.49321-.12338,1.35652-.37,2.34307-.24661.73978-2.34306,8.3855-2.95962,10.48194-.37,1.6031-1.97307,5.05592-3.57619,5.54914a2.52178,2.52178,0,0,1-1.3565,0,4.55235,4.55235,0,0,1-1.35637-.61659,7.87116,7.87116,0,0,1-1.72648-4.43936c-.12336-1.84971.2466-3.20621-.12336-3.20621a10.51236,10.51236,0,0,0-3.66412,1.47533l-.00386.00237a1.73211,1.73211,0,0,0-.37676.30223.259.259,0,0,0-.04145.05085,6.44719,6.44719,0,0,0-.10657,2.60858,8.00689,8.00689,0,0,0,2.83625,4.93268c3.94614,2.713,10.85191-2.21966,11.59185-2.713a7.14874,7.14874,0,0,0,2.09631-3.32944c.37-1.23326.98655-3.32958.98655-3.32958H112.52s-1.47988,5.54927-1.84971,6.90577c-.37,1.10977-.6167,2.95962.36983,2.83626,3.69954,0,5.1793-1.35654,5.30266-1.47987a.37493.37493,0,0,0,0-.49322A1.82946,1.82946,0,0,1,115.72621,106.8585Z"/><path class="cls-1" d="M88.92065,106.15477l-.00593-.048c-.02754-.22379-.05742-.53742-.07553-.886-.0169-.25467-.02559-.52131-.02416-.78286-.00556-.08427-.01165-.169-.01546-.25154-.00429-.32915-.00456-.65807-.00551-.98695-.00652-1.31673.00736-2.632.00291-3.94732q1.63146.00383,3.268-.0027-.00382-1.90174,0-3.80388c-1.09019-.00778-2.17782-.00519-3.268-.00254-.00249-1.383-.00508-2.766.00541-4.14653-1.44078.0079-2.8841.00525-4.32461.00276v4.14112H82.6846c-.00244,1.26879-.00005,2.53758,0,3.80886h1.79047v.003l.00307-.00006c.00456,1.15814-.00312,3.476-.00312,3.476-.00016.09608-.00027.43349-.00022.50611,0,0,.00207,1.35035.011,2.02516a5.99056,5.99056,0,0,0,2.23805,4.854,7.66393,7.66393,0,0,0,4.65592,1.1262A10.50318,10.50318,0,0,1,88.93,106.20217Z"/></svg>