<svg id="Layer_1" data-name="Layer 1" xmlns="http://www.w3.org/2000/svg" width="200" height="200" viewBox="0 0 200 200"><defs><style>.cls-1,.cls-2{fill:#021d49;}.cls-1{fill-rule:evenodd;}</style></defs><path class="cls-1" d="M99.0552,103.99518l.29114-.48479.32315-.51747.42033-.58192.45274-.61464.51746-.614.58193-.6467.614-.61429.647-.61429.71112-.58193.74383-.51746.80826-.51751.80829-.42032.873-.35556.87338-.25874.90511-.16159.93745-.06478.647.03241.5819.12919.54955.22668.48476.29079.42033.388.29113.4527.22634.5175.06445.61429-.06445.67872-.194.6791-.3235.67906-.42033.67872-.58193.647-.64669.67871-.74349.647-.8086.64635-.90509.64666-.97019.647-1.00191.614-1.035.61429-1.09939.58192-1.09909.58193-1.09939.55021-1.13179.54918-.1292.22637-.12954.19431-.16159.22633-.1292.22636-.12954.22637-.12919.19362-.12919.16194-.09718.12919-.06442.06443-.03237.06511-.0324.03206v.03237l.0324-.03237.16156-.09717.25877-.16125.35553-.22633.25877-.12923.35556-.16191.42032-.194.51713-.194.61432-.16156.71143-.16194.8083-.1292.873-.06442h.45273l.6143.06442.71146.194.71109.29113.67909.45239.6143.647.42067.90509.226,1.13179v.4527l-.06477.42-.06446.42064-.09679.38761-.12954.38828-.16194.35556-.16125.32319-.16191.32385-.19365.32316-.22668.29113-.194.29079-.22633.25873-.22637.29114-.25873.25839-.226.25877-.22637.25873-.09714.12919-.09682.09683-.03241.06511-.03236.032h.03236l.06446-.032.09679-.06511.12954-.06442.29114-.19432.29079-.226.35622-.29079.35524-.29114.38793-.3235.38827-.3232.388-.38793.42-.35555.42068-.35591.42033-.38792.42032-.35591.42033-.388.38793-.32315.38762-.35556.35621-.29148.35525-.29079.4851-.4203.54984-.42032.54955-.42.5819-.38828.58192-.38792.61429-.38831.647-.35556.64635-.32316.647-.29113.67876-.25839.67871-.25874.647-.19431.67872-.16125.67941-.12953.64635-.06477.647-.03206.77558.03206.71143.12919.6143.19431.58192.32316.45273.3559.38793.45239.25873.51746.162.54953.032.12954v.12923h0l.12954-.19366.16156-.22636.1616-.25874.16159-.29113.16191-.32316.194-.3235.1943-.388.226-.38828h4.91441l-.12919.09717-.09717.06477-.0968.0968-.09682.12954-.25874.48509-.29113.45239-.25843.4851-.25873.4527-.25873.45238-.29114.45274-.25839.48509-.25873.453-.29113.45235-.25873.4851-.25878.45273-.29079.45239-.25873.45269-.29079.4851-.25873.45239-.29114.4851-.29079.58189-.06511.4851.06511.42067.19365.32319.29145.25874.35556.16159.35556.09714.35591.03206.32315-.03206.42-.06511.48507-.16126.54987-.25873.58192-.35556.61429-.4851.6791-.647.67872-.77558.25873-.35587.25874-.388.29079-.42033.29113-.48476.29079-.45269.29114-.48511.29144-.48509.29079-.45273.25877-.4527.25873-.42.226-.3883.16159-.32316.16156-.25873.12954-.22637.06478-.12919.032-.03275-.1292.06511H137.208l-.1292.03206h-2.554l-.12954.03237-.16194.0324.06511-.19365.1292-.16191.12954-.22637.12923-.22636.06442-.1292.09714-.12954.06476-.12919.09683-.12954.06443-.09682.06511-.12954.09683-.1292.06442-.12954h3.13662l.06477-.09682.12885-.22633.227-.388.32316-.51716.35556-.58223.388-.67906.42033-.74352.45235-.74349.45274-.77624.453-.77588.42-.71112.42068-.67941.32315-.58189.29079-.51716.22637-.388.12919-.22633h4.88236l-.06442.09679-.12919.16194-.12954.194-.09683.19366-.29114.4851-.32316.4851-.29148.48509-.29079.51747-.2911.48476-.29079.48509-.29113.4851-.29079.48445-.32351.4851-.29079.48509-.29113.48507-.29079.4851-.29113.5175-.2908.48475-.32385.4851-.29079.48476-.09679.12922-.0324.06509-.06477.06445v.03237l.0324-.03237.09679-.032.16194-.0324.1616-.03272h5.20552l.3235-.51681.32319-.54987.32351-.51746.32315-.54956.3232-.54952.32384-.54987.32317-.51712.29078-.54987.3235-.54956.3232-.54953.29113-.54987.32316-.51712.3235-.54986.29114-.54956.32319-.51747.32316-.54952h4.91472l-.03236.03236-.09683.06443-.12954.09717-.12919.1616-.22637.38827-.25873.42-.25874.45274-.29078.48509-.29114.48476-.32316.51747-.32354.54952-.3235.54956-.32316.58258-.35556.54918-.32319.58227-.35591.58189-.35555.54956-.32351.58223-.3235.54953-.32316.5175h0l-.0324.032-.03237.03237h.03237l.12954-.06442.09682-.0324h.19431l.1292-.03272h3.45946l.453-.03237.38758-.06445.35556-.03237.29114-.0324.194-.06443.162-.03271h.03236l-.22633.3559-.19431.32351-.22636.32315-.19366.3232-.19431.35587-.194.32319-.22636.3235-.19362.35556-.16191-.226-.16194-.1619-.16125-.12954-.1619-.06446-.19366-.06477H156.511l-.22636-.03237h-3.84774l-.06442.12919-.16195.22637-.19361.3235-.25874.42033-.29148.45239-.32316.51747-.32318.58227-.35557.54986-.32316.5819-.35556.54956-.29148.54952-.2911.48475-.22636.42068-.19366.35556-.09713.25873-.06477.1616-.06443.38792.06443.38828.09748.29079.19365.25876.22633.22634.29114.16159.32319.09717.35587.03237h.35556l.35557-.06511.3559-.0968.35556-.16194.38792-.19362.388-.22636.38792-.29114.38831-.29079.35556-.32315.38793-.32385.32316-.35556.3559-.35556.32319-.35591.2911-.35556.2908-.32316.25876-.32319h1.42255l.32319-.06477.32385-.06477.19362-.06477.09717-.032-.51715.54955-.54987.5819-.54953.61429-.58192.61464-.647.61433-.64635.61394-.71146.6143-.77623.58192-.35557.25874-.32315.22636-.35556.22636-.35591.22668-.38793.194-.35556.16125-.3559.16194-.38793.1619-.3559.12924-.35556.09679-.38762.09717-.35556.06477-.35591.06442-.35556.06443-.35556.0324h-.35587l-.74352-.0324-.67941-.12885-.58189-.19431-.51715-.29079-.42068-.3235-.32316-.35557-.25873-.42032-.12923-.388-.032-.12954v-.19362l-.0324-.16194v-.22634h-.03237l-.06477.06477-.09717.09714-.194.16125-.42.32385-.45308.32316-.42.25877-.42033.25873-.42067.226-.42.194-.42064.194-.42.16159-.42065.12954-.42.09683-.42064.09683-.38761.06508-.38828.06446-.388.03236H136.594l-.54987-.03236-.58189-.09683-.51749-.194-.48476-.22637-.45273-.29114-.35587-.38793-.29079-.42032-.1616-.4851-.03271-.1616v-.42033l-.06443.0324-.06477.032-.06445.06511-.06443.06443-.16191.12922-.194.12954-.25873.19362-.29113.19431-.32316.22637-.35556.22633-.38828.22636-.42.22637-.4851.226-.4851.19431-.54987.194-.58192.16194-.614.1292-.64667.06442-.67906.03241-.71111-.03241-.48511-.09682-.4851-.12954-.45273-.19362-.42032-.25873-.35588-.32385-.29078-.42-.194-.51747-.09713-.61429v-.388l.03236-.12919v-.03237h0l-.03236.03237-.06443.0324-.0324.032-.25873.22636-.29079.25874-.32351.25876-.3559.25874-.35556.25873-.388.25839-.42033.25876-.45235.226-.45273.22633-.48511.1943-.51746.162-.54953.16125-.54986.12954-.58193.06477-.61429.06442h-.6467l-.808-.12919-.74383-.22637-.61464-.32315-.51746-.38831-.42-.45235-.29113-.4851-.22637-.4851-.12919-.4851-.06477-.4851v-.5175l.06477-.48441.09713-.5175.1616-.4851.226-.48507.25874-.48478.32319-.4527.06511-.09683.06443-.06511.03236-.032.03241-.03241H113.12l-.06442.03241-.12919.06442-.12954.09714-.22637.16159-.25873.22637-.25874.22636-.29079.22634-.32353.25876-.32316.29076-.35556.29114-.38827.29113-.388.32316-.38792.32319-.42033.29145-.45273.32319-.42.32316-.4851.29113-.453.29079-.48475.29114-.35556.22636-.388.25874-.42064.25873-.4851.25839-.51715.22671-.54987.25808-.58192.22633-.6143.22671-.614.194-.647.19366-.64635.1619-.64669.16194-.64666.1292-.6467.06442-.64669.06477-.6143.0324-1.00222-.09717-.90543-.12919-.80829-.194-.67906-.226-.61429-.25877-.54953-.25873-.45308-.29144-.35555-.29079-.32316-.29114-.25873-.25808-.194-.25873-.16157-.22636-.12954-.19431-.06445-.16157-.03237-.09717-.0324-.06442h0l-.03237.03236h-.0324l-.03237.03206-.42033.32351-.45238.32319-.4527.29144L89.42,120.388l-.45269.25877-.48476.25873-.4851.22637-.48509.194-.51716.19431-.4851.16125-.51747.12954-.54955.09683-.51747.06477-.54952.032-.58193-.032-.54987-.03241-.32316-.06442-.29113-.06477-.32319-.12954-.29111-.12919-.29113-.1616-.22637-.22671-.226-.22633-.19431-.29079-.09682-.194-.09714-.22633-.06442-.25843-.06477-.25873-.03241-.25873v-.5175l.03241-.22633-.09718.12953-.032.06477-.06477.06443-.09679.06442-.29114.25874-.29114.29148-.32315.25873-.35556.25873-.32351.25808-.388.22636-.35556.22668-.38827.22637-.42033.194-.42033.1616-.42033.1616-.42.12919-.453.12954-.45238.06477-.45273.06442-.4851.03241h-.64666l-.6467-.03241-.61429-.09682-.61429-.19431-.54956-.25839-.51747-.35556-.42033-.42068-.35556-.54952-.194-.48475-.09717-.45274v-.453l.0324-.42.03236-.32319.09683-.29145.03271-.16125.03206-.06477-.12919.12919-.1616.194-.19431.226-.194.25876-.22637.29145-.29079.32319-.29113.2911-.29079.3232-.35587.32316-.35556.29113-.388.32316-.42033.25877-.48509.29079-.4851.25873-.51712.22637-.54956.19431-.61464.16125-.614.12954-.67906.09679-.71147.0324h-1.067l-.58189-.06442-.54987-.09683-.58193-.09748-.54952-.12923-.54987-.12885-.51716-.162-.51715-.1619-.453-.16125-.42033-.16194-.38793-.16157-.35556-.12954-.29079-.09682-.19431-.09717-.1616-.06443-.12919.06443-.1616.06477-.25873.09717-.29114.12954-.35556.12919-.38827.12889-.45238.1619-.4851.12954-.51712.1616-.54987.12954-.61433.12885-.61429.12923-.64667.09748-.67909.06442-.71112.03241-.71143.032h-.84066l-.42033-.032-.45273-.06477-.51747-.06446-.51716-.0968-.51715-.16194-.51747-.1619-.4851-.22637-.48475-.29079-.38827-.35556-.3232-.388-.25873-.48507-.1616-.54956-.03236-.647.03236-.25874.06477-.29047.06443-.29145.12954-.25873.16159-.29079.194-.25877.25876-.25873.29079-.226.32351-.22634.38793-.22636.45273-.19431.4851-.19365.51712-.12954.61433-.1292.67906-.12954.71112-.06442.54987-.0324H47.678l.54987.0324.51715.03237.54987.06446.54953.06508.51715.09682.54987.09683.51716.12954.51746.12919.5175.12954.54953.1292.51746.16159.51716.1616.51716.12953.51746.16126.35591-.45239.38762-.4851.3235-.4851.35556-.51715.3235-.51747.32316-.5175.32319-.51678.29114-.5175-.29114.09683-.35556.06477-.35556.03271-.38793.03171-.32353.03272H55.535l-.84065-.03272-.8083-.12919-.74383-.16125-.71146-.22637-.64635-.25873-.58189-.35591-.54987-.35556-.4851-.42067-.42033-.42-.388-.4851-.32316-.51746-.25874-.54952-.22636-.54987-.1292-.54956-.09717-.61429-.03236-.58193.06477-.77586.16156-.71112.194-.71146.2911-.67941.35556-.614.42033-.61429.48509-.54987.54953-.51712.58227-.45308.67872-.38758.71146-.35556.77589-.32354.8086-.22633.87272-.1616.90543-.12919.96985-.03271.71147.03271.77588.09682.77589.1292.71143.16156.6467.19431.51747.1616.35556.16159.16159.09682-.194.25874-.09683-.03206-.12954-.03236-.194-.03241-.22636-.03237-.2908-.032-.29113-.03271h-.71143l-.388.03271-.42.032-.453.06478-.45239.09679-.453.12954-.48475.12923-.5175.194-.4851.22637-.42033.226-.38759.22633-.388.25877-.38827.25873-.35556.29113-.35556.32351-.3559.35556-.2908.32316-.2911.388-.25876.38827-.22634.42-.194.42068-.16157.42-.09682.45273-.06477.48507-.0324.4851.0324.61433.09683.54952.1943.58193.25839.51746.35556.4527.38827.45239.4851.35556.51716.32384.51716.22637.51746.16125.54953.09748.54987.03206.54952.03237.58192-.06443.54987-.06511.54953-.1292.3559-.58192.35556-.61464.35556-.64632.38793-.61432.38831-.67907.38792-.64669.38762-.64635.42033-.647.38827-.6467.35556-.61394.388-.58258.35556-.58193.35588-.54952.35555-.48476.32351-.48509.29079-.42033.42033-.51751.45273-.54952.51747-.54952.58192-.54987.58193-.54952.67906-.54987.67906-.51716.71112-.4851.74383-.45239.8083-.42032.77589-.32351.84065-.29113.84066-.22634.841-.16159.87272-.0324.873.0324.12922.03237.35587.06477.48479.12923.54984.25873.58192.42033.4851.54952.388.74383.16157.93749-.03237.4527-.09683.42033-.09713.42033-.12923.42067-.194.38762-.194.35556-.22637.38827-.25873.35556-.25842.35556-.29145.32316-.29079.32385-.29113.32319-.32316.32316-.32351.3235-.32319.32319-.32316.29079-.71146.58193-.74352.58258-.74383.58192-.74349.51713-.77624.54986-.74348.4851-.74353.45239-.74383.4527-.71146.42-.67872.38828-.647.38792-.614.3232-.54987.29144-.51715.29045-.4851.22636-.38828.19431-.25838.45274-.25877.45234-.22633.42068-.22637.42-.226.38827-.22668.35556-.22636.32319-.226.32316-.58227.74387-.54953.647-.48509.51681-.42034.38828-.38792.32319-.32354.22633-.25839.19431-.194.09682-.12954.03241-.06443.032-.06477.0324h0l.25874.09714.22636.09717.25874.06442.25838.09718.25874.09679.25877.06477.2911.09717.29079.09682.45273.16191.4851.16125.48475.12954.45273.1292.4527.09682.4527.06512.388.03236h.35556l.58224-.09748.54955-.12885.48476-.1943.453-.29079.42033-.29114.42033-.35556.38793-.38827.42033-.42.35556-.38827.42033-.45236.48509-.5175.54953-.54952.54956-.61429.58189-.61464.61464-.64635.61432-.6143.6143-.58192.61429-.5175.58193-.4527.58223-.388.58193-.35587.54952-.3232.5175-.25873.51712-.19362.4851-.19431.4851-.12954.45239-.12922.38827-.09714.388-.06442.35556-.03241.32351-.03236.29079-.03206.80826.03206.71146.09748.61429.19362.58193.25876.4527.32316.388.38827.2911.45239.22636.4851.0324.09683v.12954l.032.1619v.09683l.16159-.25873.19431-.25877.1616-.25874.16159-.29079.16157-.29113.16159-.29079.16194-.3235.194-.32351h4.81759l-.06477.06512-.09683.09682-.09683.06443-.06476.09714-.25874.42032-.25873.45274-.22637.42064-.25873.42-.25843.45269-.22633.42033-.25876.42033-.25874.45239-.22636.42064-.25839.42-.25873.42064-.22637.42-.25873.42064-.25877.42033-.25839.42033-.25873.42033-.1616.29113-.16191.29079-.16159.32316-.12954.32354-.09683.32315v.32319l.09683.29145.19431.32319.29079.22634.3235.16159.32316.09717.388.06443h.35591l.35555-.03206.35556-.09714.35588-.16159.67875-.38827.61429-.45239.54987-.5175.4851-.58189.48475-.6467.42068-.64669.42-.64635.388-.647.38793-.6467.42033-.71146.4851-.80826.51747-.84066.51715-.87271.5175-.873.54953-.87337.51746-.87272.4851-.8086.45239-.77554.42033-.67907.38827-.61432.29079-.4851.22637-.38793.12954-.22637.06442-.09713Zm9.99074-6.24018-.38762.03241-.35556.09713-.3559.1616-.35556.22636-.32351.32316-.3559.42033-.35553.4851-.35556.54953-.42033.64669-.42033.74349-.45273.80864-.51715.87267-.58224.9702-.64635,1.067-.67906,1.16382-.77624,1.22862.42068-.29114.48475-.38761.58227-.42068.64632-.51678.67909-.5175.67907-.58192.71146-.61464.71112-.64666.67907-.64635.64666-.647.58192-.64635.51716-.647.45269-.58192.32354-.58193.22633-.51712.06446-.4851-.032-.29079-.1292-.22637-.12954-.19431-.16194-.12919-.19362-.09683-.16194-.09713-.16125-.03241Zm38.76735,13.0629-.03237.03171-.09683.03275-.194.03236-.25874.03206h-5.076l-.35588.6467-.35556.61463-.35556.5819-.32319.5175-.29145.51681-.29113.4851-.29079.42064-.22636.42-.226.35587-.22633.35556-.1943.32319-.16126.25873-.12954.25874-.09751.194-.0968.194-.06446.16156-.09679.22671-.06511.29079-.0324.35556.0324.32316.1619.3559.29079.29114.4851.19362.6791.09717.64666-.09717.67876-.226.647-.35587.58193-.42.54952-.4851.48475-.4527.38831-.42033.25873-.32319.22634-.29145.226-.32316.22636-.32319.22637-.3235.19431-.35556.22636-.388.22633-.35556.226-.35556.22637-.38827.194-.35556.2267-.35556.19362-.32316.194-.32385.19431-.32319.194-.29079.16157-.25874.12953-.19431.06446-.12919.06443-.09717.03237-.03171Zm-23.89394-.09749-.71144.06477-.67875.22637-.67906.32316-.6467.45273-.61464.51746-.54917.54956-.51751.54984-.45269.51715-.54953.74353-.45307.67906-.35556.58224-.25839.51715-.16194.4527-.1292.388-.03236.32316-.03206.25877.03206.32385.06477.29044.16156.25873.16159.22637.22637.194.29113.1292.29079.09717.35557.03237.61463-.06443.6143-.16191.61429-.32319.58192-.38827.58224-.48475.54921-.54956.55018-.61464.51681-.64666.42068-.58193.38827-.61429.38762-.54952.29113-.54956.25874-.51747.194-.4527.12919-.35556.03241-.32319v-.1619l-.03241-.194-.09679-.25874-.12954-.25873-.19431-.226-.25807-.19431-.32385-.1616-.45238-.06477Zm-21.33961.58193-.6794.09748-.67872.226-.6467.32351-.64666.45238-.58192.54987-.58193.614-.51747.647-.48509.67872-.45274.71146-.38792.67941-.3232.64635-.2911.61429-.22636.54953-.1616.45307-.09714.35556v.22633l.03272.3232.09682.29079.16156.22667.22637.16126.25873.16194.2908.09679.3559.03275.38793.032.45273-.06477.48475-.16156L99.12,119.968l.54952-.35555.58228-.42065.54952-.48509.54953-.51681.54952-.58262.5175-.58189.4851-.61433.42-.614.35625-.61464.29076-.61429.226-.58193.12954-.51746.0324-.4851-.0324-.38762-.0968-.3235-.16194-.29079-.22636-.22637-.25873-.19431-.2908-.12919-.35556-.09717-.35556-.03237ZM75.67841,99.14553l.16157-.45269.0324-.388L75.808,97.949l-.12954-.2911-.16159-.22637-.194-.19365-.22636-.12954-.194-.06443-.54986-.03271-.48479.09714-.4527.194-.38793.2911-.35556.35556-.32353.3559-.29111.388-.25876.35556-.38759.61429-.42067.64666-.42033.67875-.45238.71147-.4527.74383-.42033.77554-.45273.74384-.4527.74383-.42033.71146-.388.71112-.38793.647-.38827.58192-.3232.54953-.29079.4851-.25873.388-.22636.29079-.16191.22636-.09683.16157-.09682.12954-.12954.16194.0324-.03275.09714-.03237.12922-.12919.194-.12954.25873-.16125.29079-.22671.3235-.25839.388-.29114.42033-.32315.45269-.35591.45273-.42033.51713-.42033.54987-.48475.54955-.5175.58189-.54953.58193-.58192.19431-.194.19362-.22667.25877-.25843.2911-.3235.32353-.32319.32316-.32316.35556-.38827.35556-.388.35591-.38793.35556-.388.3235-.42064.32316-.42.32353-.42065.25874-.42.25839-.4203.194-.388Zm1.97242,13.90324-.64669.71109-.54984.6791-.45238.64666-.38828.614-.29079.58258-.194.51681-.1292.51747-.06477.45273v.22637l.0324.226.06443.25874.12954.25873.194.22637.29114.22636.35556.12954.48475.0968.4851-.03237.54952-.1292.54987-.29113.58193-.35556.61429-.4851.58193-.54952.61464-.6467.54952-.71146.4527-.54953.388-.58192.38793-.54988.32319-.51712.25873-.51749.22637-.4851.12954-.45236.06442-.38831v-.25873l-.06442-.226-.09718-.25873-.16156-.22637-.22636-.194-.29114-.12919-.32316-.12954-.42067-.03241-.42033.03241-.48475.09679-.45274.19431-.51712.25842-.5175.3235-.51747.38828-.54955.48444-.54953.55021ZM44.962,117.31646H44.7357l-.29079.0324-.35556.06477-.35591.09683-.35556.1619-.29113.226-.194.32319-.06477.42065v.194l.06477.25874.1616.29079.25873.29113.42033.2911.61429.25843.8083.19431,1.067.09679.90542-.03237.84066-.06442.71112-.09718.6467-.12919.51747-.12954.45273-.12919.35556-.09683.2911-.09748.226-.09683.19431-.06442.194-.06512.16156-.06442.16159-.06477.1292-.06443.09717-.03274.06477-.032H51.946l-.06477-.0324-.16159-.03237-.2911-.09682-.29079-.09718-.35591-.12919-.38762-.12954-.42033-.12919-.48509-.12954-.51747-.1616-.54953-.194-.54986-.16194-.51716-.16125-.5175-.16191-.48475-.09683-.42033-.09682-.38828-.06508-.32315-.06446Z"/><polygon class="cls-1" points="101.965 79.81 102.224 79.972 102.483 80.166 102.709 80.36 102.967 80.554 103.162 80.748 103.388 80.974 103.582 81.168 103.744 81.395 103.873 81.168 103.97 80.877 104.002 80.586 104.002 80.295 103.937 80.004 103.776 79.746 103.55 79.519 103.226 79.357 103.097 79.293 102.967 79.261 102.773 79.196 102.58 79.131 102.353 79.034 102.159 78.969 101.998 78.84 101.739 78.614 100.316 77.03 100.219 77.062 101.61 78.743 101.642 78.808 101.706 78.873 101.771 78.969 101.836 79.099 101.868 79.228 101.933 79.39 101.965 79.584 101.965 79.81 101.965 79.81"/><polygon class="cls-1" points="98.15 90.351 97.956 90.383 97.762 90.383 97.568 90.415 97.342 90.448 97.148 90.448 96.921 90.48 96.727 90.48 96.501 90.48 96.76 91.224 97.148 91.709 97.633 91.967 98.15 92.097 98.635 92.097 99.088 92.032 99.443 91.903 99.669 91.806 99.669 91.709 99.508 91.709 99.378 91.676 99.25 91.612 99.088 91.515 98.991 91.418 98.894 91.289 98.796 91.127 98.667 90.965 98.538 90.803 98.409 90.642 98.279 90.48 98.15 90.351 98.15 90.351"/><polygon class="cls-1" points="102.224 90.803 102.191 90.707 101.998 90.803 101.771 90.836 101.545 90.803 101.351 90.642 101.254 90.513 101.124 90.383 100.995 90.286 100.866 90.157 100.737 90.028 100.607 89.93 100.445 89.834 100.316 89.736 100.122 89.834 99.928 89.898 99.734 89.963 99.508 90.028 99.314 90.092 99.088 90.157 98.894 90.189 98.667 90.254 98.796 90.545 99.023 90.836 99.346 91.127 99.767 91.385 100.252 91.515 100.833 91.482 101.48 91.256 102.224 90.803 102.224 90.803"/><polygon class="cls-1" points="103.42 89.446 103.291 89.381 103.162 89.284 103 89.187 102.839 89.09 102.677 88.993 102.515 88.896 102.353 88.831 102.191 88.767 102.03 88.863 101.868 88.993 101.706 89.09 101.513 89.187 101.351 89.284 101.157 89.381 100.995 89.446 100.801 89.542 100.898 89.672 101.028 89.834 101.222 89.995 101.415 90.124 101.642 90.254 101.9 90.351 102.159 90.415 102.45 90.448 102.773 90.415 103.065 90.351 103.355 90.254 103.582 90.092 103.808 89.93 104.002 89.769 104.164 89.607 104.293 89.446 104.261 89.381 104.099 89.478 103.906 89.542 103.679 89.542 103.42 89.446 103.42 89.446"/><polygon class="cls-1" points="105.845 87.214 105.684 87.408 105.489 87.538 105.199 87.635 104.907 87.603 104.746 87.538 104.584 87.506 104.422 87.473 104.293 87.441 104.164 87.408 104.002 87.376 103.873 87.376 103.744 87.344 103.614 87.506 103.485 87.667 103.355 87.796 103.226 87.958 103.065 88.087 102.903 88.217 102.741 88.346 102.58 88.475 102.677 88.572 102.806 88.637 102.935 88.734 103.065 88.799 103.226 88.863 103.388 88.928 103.55 88.96 103.711 88.993 104.196 88.993 104.584 88.831 104.94 88.605 105.263 88.314 105.489 87.99 105.684 87.699 105.813 87.441 105.878 87.279 105.845 87.214 105.845 87.214"/><polygon class="cls-1" points="106.556 84.79 106.524 84.951 106.427 85.145 106.233 85.307 105.942 85.404 105.813 85.404 105.651 85.436 105.457 85.436 105.296 85.469 105.134 85.501 104.94 85.533 104.778 85.598 104.649 85.662 104.584 85.857 104.519 86.018 104.455 86.18 104.358 86.374 104.261 86.536 104.164 86.697 104.067 86.859 103.97 87.02 104.067 87.053 104.164 87.085 104.261 87.085 104.358 87.118 104.487 87.118 104.617 87.15 104.778 87.15 104.972 87.118 105.457 86.988 105.813 86.762 106.104 86.439 106.33 86.083 106.46 85.695 106.556 85.339 106.621 85.048 106.621 84.822 106.556 84.79 106.556 84.79"/><polygon class="cls-1" points="106.427 82.138 106.362 82.138 106.362 82.364 106.33 82.591 106.233 82.785 106.039 82.914 105.91 82.979 105.748 83.044 105.586 83.108 105.425 83.205 105.263 83.302 105.069 83.399 104.907 83.529 104.778 83.625 104.811 83.819 104.811 83.981 104.843 84.175 104.843 84.369 104.843 84.563 104.811 84.757 104.778 84.951 104.746 85.145 105.004 85.113 105.296 85.048 105.619 84.919 105.91 84.725 106.136 84.531 106.362 84.24 106.492 83.917 106.556 83.561 106.556 83.237 106.556 82.979 106.556 82.752 106.524 82.559 106.492 82.429 106.492 82.3 106.46 82.203 106.427 82.138 106.427 82.138"/><polygon class="cls-1" points="105.845 81.297 105.748 80.845 105.586 80.36 105.296 79.842 104.972 79.357 104.584 78.873 104.196 78.452 103.808 78.032 103.452 77.708 103.388 77.773 103.614 77.967 103.873 78.226 104.164 78.549 104.422 78.84 104.649 79.164 104.875 79.455 105.004 79.681 105.102 79.842 105.199 80.069 105.231 80.328 105.166 80.522 105.004 80.716 104.907 80.78 104.811 80.877 104.681 80.974 104.519 81.103 104.358 81.265 104.196 81.395 104.067 81.556 103.97 81.685 104.099 81.847 104.196 82.041 104.293 82.203 104.39 82.397 104.455 82.559 104.519 82.752 104.584 82.946 104.649 83.141 104.907 83.011 105.166 82.817 105.36 82.623 105.554 82.397 105.684 82.138 105.78 81.88 105.813 81.589 105.845 81.297 105.845 81.297"/><polygon class="cls-1" points="90.39 79.81 90.131 79.972 89.873 80.166 89.646 80.36 89.388 80.554 89.194 80.748 88.967 80.974 88.773 81.168 88.579 81.395 88.45 81.168 88.385 80.877 88.321 80.586 88.353 80.295 88.418 80.004 88.579 79.746 88.806 79.519 89.129 79.357 89.258 79.293 89.388 79.261 89.549 79.196 89.743 79.131 90.002 79.034 90.164 78.969 90.358 78.84 90.584 78.614 92.039 77.03 92.104 77.062 90.746 78.743 90.713 78.808 90.649 78.873 90.584 78.969 90.519 79.099 90.487 79.228 90.422 79.39 90.39 79.584 90.39 79.81 90.39 79.81"/><polygon class="cls-1" points="94.205 90.351 94.399 90.383 94.593 90.383 94.787 90.415 95.014 90.448 95.208 90.448 95.434 90.48 95.628 90.48 95.855 90.48 95.596 91.224 95.208 91.709 94.723 91.967 94.238 92.097 93.72 92.097 93.268 92.032 92.912 91.903 92.686 91.806 92.686 91.709 92.847 91.709 92.977 91.676 93.106 91.612 93.268 91.515 93.365 91.418 93.462 91.289 93.559 91.127 93.688 90.965 93.785 90.803 93.914 90.642 94.076 90.48 94.205 90.351 94.205 90.351"/><polygon class="cls-1" points="90.131 90.803 90.131 90.707 90.325 90.803 90.552 90.836 90.778 90.803 91.004 90.642 91.101 90.513 91.231 90.383 91.36 90.286 91.489 90.157 91.619 90.028 91.748 89.93 91.878 89.834 92.006 89.736 92.201 89.834 92.427 89.898 92.621 89.963 92.847 90.028 93.041 90.092 93.268 90.157 93.462 90.189 93.688 90.254 93.559 90.545 93.3 90.836 93.009 91.127 92.589 91.385 92.104 91.515 91.522 91.482 90.875 91.256 90.131 90.803 90.131 90.803"/><polygon class="cls-1" points="88.935 89.446 89.064 89.381 89.194 89.284 89.355 89.187 89.517 89.09 89.678 88.993 89.84 88.896 90.002 88.831 90.164 88.767 90.325 88.863 90.487 88.993 90.649 89.09 90.843 89.187 91.004 89.284 91.198 89.381 91.36 89.446 91.554 89.542 91.457 89.672 91.295 89.834 91.134 89.995 90.939 90.124 90.681 90.254 90.455 90.351 90.196 90.415 89.905 90.448 89.582 90.415 89.29 90.351 89 90.254 88.741 90.092 88.547 89.93 88.353 89.769 88.191 89.607 88.062 89.446 88.094 89.381 88.224 89.478 88.418 89.542 88.676 89.542 88.935 89.446 88.935 89.446"/><polygon class="cls-1" points="86.51 87.214 86.639 87.408 86.866 87.538 87.157 87.635 87.448 87.603 87.609 87.538 87.771 87.506 87.933 87.473 88.062 87.441 88.191 87.408 88.353 87.376 88.483 87.376 88.611 87.344 88.741 87.506 88.87 87.667 89 87.796 89.129 87.958 89.29 88.087 89.42 88.217 89.582 88.346 89.743 88.475 89.646 88.572 89.549 88.637 89.42 88.734 89.29 88.799 89.129 88.863 88.967 88.928 88.806 88.96 88.644 88.993 88.159 88.993 87.739 88.831 87.383 88.605 87.092 88.314 86.833 87.99 86.639 87.699 86.542 87.441 86.478 87.279 86.51 87.214 86.51 87.214"/><polygon class="cls-1" points="85.799 84.79 85.831 84.951 85.928 85.145 86.122 85.307 86.413 85.404 86.542 85.404 86.704 85.436 86.898 85.436 87.06 85.469 87.221 85.501 87.416 85.533 87.577 85.598 87.706 85.662 87.771 85.857 87.836 86.018 87.9 86.18 87.997 86.374 88.062 86.536 88.159 86.697 88.256 86.859 88.353 87.02 88.256 87.053 88.191 87.085 88.094 87.085 87.965 87.118 87.836 87.118 87.706 87.15 87.545 87.15 87.351 87.118 86.898 86.988 86.51 86.762 86.219 86.439 86.025 86.083 85.863 85.695 85.766 85.339 85.734 85.048 85.702 84.822 85.799 84.79 85.799 84.79"/><polygon class="cls-1" points="85.896 82.138 85.993 82.138 85.993 82.364 85.993 82.591 86.09 82.785 86.284 82.914 86.413 82.979 86.575 83.044 86.736 83.108 86.898 83.205 87.092 83.302 87.254 83.399 87.416 83.529 87.577 83.625 87.545 83.819 87.545 83.981 87.512 84.175 87.512 84.369 87.512 84.563 87.545 84.757 87.545 84.951 87.577 85.145 87.318 85.113 87.027 85.048 86.704 84.919 86.445 84.725 86.187 84.531 85.96 84.24 85.831 83.917 85.766 83.561 85.766 83.237 85.766 82.979 85.799 82.752 85.831 82.559 85.831 82.429 85.863 82.3 85.896 82.203 85.896 82.138 85.896 82.138"/><polygon class="cls-1" points="86.51 81.297 86.575 80.845 86.769 80.36 87.027 79.842 87.383 79.357 87.771 78.873 88.159 78.452 88.547 78.032 88.903 77.708 88.967 77.773 88.741 77.967 88.483 78.226 88.191 78.549 87.933 78.84 87.706 79.164 87.48 79.455 87.351 79.681 87.254 79.842 87.157 80.069 87.124 80.328 87.189 80.522 87.318 80.716 87.416 80.78 87.545 80.877 87.674 80.974 87.836 81.103 87.997 81.265 88.127 81.395 88.288 81.556 88.385 81.685 88.256 81.847 88.159 82.041 88.062 82.203 87.965 82.397 87.9 82.559 87.803 82.752 87.739 82.946 87.674 83.141 87.416 83.011 87.189 82.817 86.963 82.623 86.801 82.397 86.672 82.138 86.575 81.88 86.51 81.589 86.51 81.297 86.51 81.297"/><path class="cls-2" d="M104.3255,83.78734l-.12958-.54987-.1936-.54987-.29114-.51715-.32312-.51715-.42071-.45306L102.4826,80.78l-.51751-.42-.58185-.35559-.61438-.32355-.679-.29108-.71142-.226-.77594-.19434-.77588-.12915-.80829-.09686-.84064-.03271-.84069.03271-.80823.09686-.77625.12915-.77588.19434-.71142.226-.67908.29108-.61395.32355-.582.35559-.51746.42-.48511.42029-.42028.45306-.32318.51715-.29114.51715-.194.54987-.12958.54987-.032.5819.032.58191.12958.54956.194.54987.29114.51715.32318.51746.42028.45276.48511.42028.51746.42035.582.35553.61395.32318.67908.29114.71142.22632.77588.194.77625.12915.80823.09717.84069.03241.84064-.03241.80829-.09717.77588-.12915.77594-.194.71142-.22632.679-.29114.61438-.32318.58185-.35553.51751-.42035.48475-.42028.42071-.45276.32312-.51746.29114-.51715.1936-.54987.12958-.54956.03241-.58191ZM99.7019,86.956l-.194.09686-.194.12915-.16162.16193-.09716.16162v.194l.06482.22631.22631.22608.38794.29144-.25873.16156-.35552.12921-.4527.0968-.48511.03241-.51715-.03241-.48511-.0968-.4527-.16192-.388-.25837,3.7182-3.20105h-.194l-3.427,2.55433-.19433-6.24018-.09681-.03235L95.919,87.6671l-3.42743-2.522h-.194l3.71856,3.1687-.3883.25837-.45239.16192-.48505.0968-.51752.03241-.48474-.03241-.4527-.0968-.35559-.12921-.25873-.16156.38794-.29144.22638-.22608.06476-.22631v-.194l-.09717-.16162-.16162-.16193-.19427-.12915-.194-.09686-1.90735-.84064.32318-.16193.194-.16156.12952-.194.0321-.16162-.0321-.19427-.03241-.16162-.09711-.16163-.06476-.16156-.032-.06475-.06482-.16156-.09711-.194-.09686-.22638h.09686l.09711.03235h.12921l.16193.0321h.16162l.194.03265h.35553l.16162-.06475.0971-.06476.09717-.0968.06446-.12952.03234-.194v-.51709l1.58423,1.61651.19391.12922.16193.09716H94.658l.12952-.03241.09686-.12951.03235-.16162.03241-.194-.03241-.29108-.74384-3.23315.22638.09686.194.09717.19428.03234.19366-.03234.16193-.03241.16156-.09681.12957-.12957.09681-.16156.64666-1.19623L96.792,80.7155l.0968.16156.16156.12957.12958.09681.194.03241.194.03234.194-.03234.194-.09717.22638-.09686L97.43866,84.175l-.03235.29108.03235.194.032.16162.12952.12951.09717.03241H97.859l.16156-.09716.194-.12922,1.58417-1.61651v.51709l.03271.194.032.12952.09717.0968.12921.06476.12915.06475h.356l.19391-.03265.162-.0321h.16125l.16187-.03235.09686-.03241h.0968l-.0968.22638-.09686.22638-.06507.16156-.032.06475-.06476.16156-.09686.16163-.03235.16162-.032.19427.032.16162.12921.194.19428.16156.32318.16193Z"/><polygon class="cls-1" points="107.171 82.268 107.203 82.462 107.236 82.688 107.268 82.914 107.3 83.141 107.333 83.399 107.333 83.658 107.333 83.917 107.333 84.208 132.002 84.208 132.002 82.268 107.171 82.268 107.171 82.268"/><polygon class="cls-1" points="107.268 85.048 107.236 85.274 107.203 85.533 107.138 85.759 107.074 86.018 107.009 86.245 106.945 86.503 106.88 86.729 106.783 86.988 132.002 86.988 132.002 85.048 107.268 85.048 107.268 85.048"/><polygon class="cls-1" points="106.362 87.829 106.233 88.023 106.136 88.249 105.974 88.443 105.845 88.637 105.684 88.863 105.489 89.057 105.328 89.252 105.134 89.446 105.069 89.51 104.972 89.607 104.907 89.704 104.811 89.769 132.002 89.769 132.002 87.829 106.362 87.829 106.362 87.829"/><polygon class="cls-1" points="85.184 82.268 85.152 82.462 85.088 82.688 85.055 82.914 85.055 83.141 85.023 83.399 85.023 83.658 85.023 83.917 85.023 84.208 79.009 84.208 79.009 82.268 85.184 82.268 85.184 82.268"/><polygon class="cls-1" points="85.088 85.048 85.12 85.274 85.152 85.533 85.217 85.759 85.249 86.018 85.314 86.245 85.411 86.503 85.475 86.729 85.572 86.988 79.009 86.988 79.009 85.048 85.088 85.048 85.088 85.048"/><polygon class="cls-1" points="85.96 87.829 86.09 88.023 86.219 88.249 86.381 88.443 86.51 88.637 86.672 88.863 86.866 89.057 87.027 89.252 87.221 89.446 87.286 89.51 87.383 89.607 87.448 89.704 87.545 89.769 79.009 89.769 79.009 87.829 85.96 87.829 85.96 87.829"/></svg>