<svg id="Layer_1" data-name="Layer 1" xmlns="http://www.w3.org/2000/svg" width="200" height="200" viewBox="0 0 200 200"><defs><style>.cls-1{fill:#021d49;}</style></defs><path class="cls-1" d="M44.47682,95.69659V88.87631H34.14776V99.50339a10.62447,10.62447,0,0,0,10.62377,10.62279H55.39861V99.78979H48.57234A4.09353,4.09353,0,0,1,44.47682,95.69659Z"/><path class="cls-1" d="M48.116,93.42284V88.87631H45.06754v6.82028a3.50277,3.50277,0,0,0,3.5048,3.50377h6.82627V96.15389l-4.55478-.00253A2.729,2.729,0,0,1,48.116,93.42284Z"/><path class="cls-1" d="M51.75848,91.147V88.87631H48.70643v4.54653a2.138,2.138,0,0,0,2.1374,2.13909h4.55478V92.51247l-2.278-.00279A1.36092,1.36092,0,0,1,51.75848,91.147Z"/><path class="cls-1" d="M52.34791,88.87631l.005,2.27071a.76791.76791,0,0,0,.76765.76843h2.278V88.87631Z"/><path class="cls-1" d="M80.81888,94.08331c4.87175,0,8.01121,3.24845,8.01121,8.20943,0,4.93474-3.13946,8.18087-8.01121,8.18087-4.84119,0-7.97693-3.24613-7.97693-8.18087C72.842,97.33176,75.97769,94.08331,80.81888,94.08331Zm0,13.17443c2.899,0,3.76549-2.49892,3.76549-4.965,0-2.49438-.86648-4.99025-3.76549-4.99025-2.86819,0-3.736,2.49587-3.736,4.99025C77.08291,104.75882,77.95069,107.25774,80.81888,107.25774Z"/><path class="cls-1" d="M89.96284,88.87631H94.2083V96.47h.06025a5.69785,5.69785,0,0,1,4.87052-2.31609c3.08225,0,6.398,2.49763,6.398,8.18062,0,5.71376-3.31573,8.21165-6.398,8.21165-2.2705,0-4.15149-.69176-5.07947-2.40815h-.05979v1.9841h-4.037Zm7.711,8.49727c-2.507,0-3.61421,2.37537-3.61421,4.99175,0,2.58509,1.10724,4.9635,3.61421,4.9635,2.514,0,3.61876-2.37841,3.61876-4.9635C101.29257,99.74895,100.18781,97.37358,97.67381,97.37358Z"/><path class="cls-1" d="M106.64935,88.87631h4.24092v21.24585h-4.24092Z"/><path class="cls-1" d="M112.41454,99.35768c.24-3.99866,3.79369-5.20374,7.26421-5.20374,3.07724,0,6.78068.69377,6.78068,4.42018v8.09218a8.05559,8.05559,0,0,0,.537,3.45586H122.695a6.37527,6.37527,0,0,1-.298-1.503,7.05453,7.05453,0,0,1-5.199,1.9271c-2.9335,0-5.26-1.47434-5.26-4.66146,0-3.51942,2.63-4.35947,5.26-4.72249,2.59924-.39126,5.02-.302,5.02-2.04508,0-1.83333-1.2565-2.1061-2.75253-2.1061-1.611,0-2.65924.662-2.80494,2.3466Zm9.72177,3.15888c-.72052.63027-2.2135.66052-3.52953.90107-1.313.27076-2.51.722-2.51,2.28507,0,1.59433,1.22676,1.98611,2.60022,1.98611,3.31877,0,3.43928-2.64612,3.43928-3.57941Z"/><path class="cls-1" d="M145.56819,110.12216h-4.365l-2.748-10.43269h-.05545l-2.63353,10.43269h-4.39018l-4.90149-15.5467H130.954l2.84227,10.5565h.05649l2.573-10.5565h4.1219l2.6295,10.52624h.05953l2.83974-10.52624h4.36447Z"/><path class="cls-1" d="M153.98,105.072c.02974,1.86509,1.58122,2.61685,3.25724,2.61685,1.22372,0,2.77871-.48,2.77871-1.98611,0-1.29028-1.76425-1.74257-4.81222-2.40609-2.45153-.541-4.901-1.41435-4.901-4.14917,0-3.97223,3.40547-4.9935,6.72171-4.9935,3.37872,0,6.48519,1.14457,6.81445,4.96324h-4.0332c-.12253-1.65432-1.376-2.1061-2.89675-2.1061-.96,0-2.36121.181-2.36121,1.44357,0,1.5348,2.39,1.74556,4.8102,2.31635,2.48127.5728,4.9015,1.47382,4.9015,4.361,0,4.09015-3.528,5.41425-7.0535,5.41425-3.587,0-7.08319-1.35384-7.26168-5.47425Z"/><path class="cls-1" d="M65.47385,105.69867a1.822,1.822,0,0,1-1.81464-1.82575V88.87631H58.937V103.88a6.2455,6.2455,0,0,0,1.81867,4.41538v.003h.001a6.17385,6.17385,0,0,0,4.38693,1.82374h7.57756v-4.42349Z"/><path class="cls-1" d="M165.409,94.32a.85089.85089,0,0,1,.25516.61617.86149.86149,0,0,1-.25614.62547.87161.87161,0,0,1-1.23937.00154.88343.88343,0,0,1-.004-1.24318.86309.86309,0,0,1,1.24438,0Zm.13109-.13538a1.02127,1.02127,0,0,0-.75078-.3116,1.04087,1.04087,0,0,0-.73162.28842,1.01167,1.01167,0,0,0-.33127.77473,1.06289,1.06289,0,1,0,1.81367-.75155Zm-.62015.67013a.2826.2826,0,0,1-.1679.04337H164.632v-.34139h.07513a.50757.50757,0,0,1,.178.02421.13663.13663,0,0,1,.09681.1344A.15949.15949,0,0,1,164.92,94.85479Zm-.288.25563h.06454l.0681.004a.35789.35789,0,0,1,.10538.0189.14334.14334,0,0,1,.08669.08622.58181.58181,0,0,1,.01916.14421.78718.78718,0,0,0,.01817.16336h.29394l-.00955-.03325a.11245.11245,0,0,1-.008-.0348.19974.19974,0,0,1-.002-.0348v-.10486a.31909.31909,0,0,0-.10388-.2642.40878.40878,0,0,0-.16791-.06758.38022.38022,0,0,0,.20421-.07941.2573.2573,0,0,0,.08317-.21505.29752.29752,0,0,0-.1568-.28134.57341.57341,0,0,0-.233-.06c-.01513-.001-.09727-.002-.243-.00253-.14467-.00051-.25511-.001-.32771-.001v1.17885h.30855Z"/></svg>