<svg id="Layer_1" data-name="Layer 1" xmlns="http://www.w3.org/2000/svg" width="200" height="200" viewBox="0 0 200 200"><defs><style>.cls-1{fill:#021d49;}.cls-2{fill:#2c4b77;}</style></defs><path class="cls-1" d="M96.76947,82.91229l2.43717,7.20124a14.70562,14.70562,0,0,1,2.95757,2.8589,7.22572,7.22572,0,0,1,.57383.84233l.12292.16342-2.00565-6.19131-2.04472-6.79409-1.19577.81716.83363,2.3059A18.72672,18.72672,0,0,0,96.76947,82.91229Z"/><path class="cls-1" d="M99.20515,90.10992a27.6582,27.6582,0,0,0-7.15-3.638c-.28028-.09724-.57772-.17732-.86372-.26879l5.18231-3.54644c.13734.08585.26312.1716.39468.25745h.00572v.00572Z"/><path class="cls-1" d="M92.90745,75.0206,86.87858,76.176l-.08008.01722c-.07436-.38324-.14872-.7722-.21735-1.15549-.15439-.818-.3146-1.63014-.46332-2.4481.47476-.07436.95529-.16594,1.43-.25168.715.26878,1.41862.572,2.11068.898.48053.22874.95523.4747,1.41861.72638.17732.0973.35464.18876.532.286C92.04373,74.48864,92.47845,74.75171,92.90745,75.0206Z"/><path class="cls-1" d="M83.46947,78.178l-.13728.17737-4.52445,5.8c-.29749-.00572-.59493-.02282-.90381-.02282-1.24118,0-2.471.06286-3.67217.15444a39.88605,39.88605,0,0,0-5.39967.80646c-.2975.06292-.6006.12018-.898.1831A39.16989,39.16989,0,0,0,63.75274,86.472a32.93779,32.93779,0,0,0-4.53022,1.97339,19.69974,19.69974,0,0,0-3.95829,2.74559,14.38342,14.38342,0,0,0-1.68168,1.819,9.86344,9.86344,0,0,0-.68067.99527l.84661-2.70561.20014-.6463.88088-2.84289h.00572l.48626-1.5615,1.25267-4.03831.86366-2.78563,1.36708-1.72171h.86372l-1.49286,4.124-.82946,2.288a19.78941,19.78941,0,0,1,2.37385-1.65874c.12579-.36036.25168-.72649.37747-1.08685q.9353-2.75409,1.89331-5.51407a1.38418,1.38418,0,0,1,.21736-.40034,22.27255,22.27255,0,0,1,1.97917-1.207,29.26333,29.26333,0,0,1,4.07263-1.91042c.48042.08574.95518.17732,1.4185.25168-.39468,2.11067-.78936,4.22135-1.20114,6.33774a37.86675,37.86675,0,0,1,5.58837-.961l.27462-5.45109.43471-.68068c1.01238-.0115,2.06492-.0115,3.12878-.0115,1.06392,0,2.11645,0,3.12883.0115l.45194.68068.183,3.69511.09146,1.756C82.3312,78.0236,82.9032,78.098,83.46947,78.178Z"/><polygon class="cls-1" points="98.339 79.426 96.973 77.692 96.126 77.692 97.615 81.81 98.811 80.993 98.339 79.426"/><path class="cls-2" d="M96.37376,82.65673l-5.18231,3.54644c-1.08674-.34892-2.19641-.66351-3.329-.92663-.3146-.06292-.612-.12018-.9152-.1831a40.94958,40.94958,0,0,0-5.36534-.80646c-.68068-.05154-1.37274-.0858-2.06486-.1144-.23458-.0115-.46909-.0115-.70928-.01722l4.52445-5.8.13728-.17737c.0858.01144.17732.02866.26312.04.37186.05725.73788.1144,1.104.17732.83517.14872,1.66457.326,2.48253.532-.1144-.59493-.22886-1.18975-.33754-1.78469q-.08571-.44607-.17154-.89232c-.00578-.0171-.00578-.04-.0115-.05714l.08008-.01722,6.02887-1.15538c.05726.03432.10868.06864.16021.103.183.12012.37175.2288.54907.35464a1.47162,1.47162,0,0,1,.16016.29172c.0286.06286.04581.12578.06864.18876.73787,2.1736,1.49291,4.33569,2.21363,6.4979C96.16784,82.51945,96.2708,82.59386,96.37376,82.65673Z"/><path class="cls-1" d="M101.07564,96.85373c0,.26317-.04581,2.43677-.08585,2.69989-.66346-4.43871-6.85255-8.14532-15.31807-9.581l3.8495-2.63125.00577-.00572C96.431,89.24043,101.07564,92.78688,101.07564,96.85373Z"/><path class="cls-1" d="M77.48643,85.85425l-2.64264,3.39768-.183.19442A40.42674,40.42674,0,0,0,64.4448,91.38542a24.78164,24.78164,0,0,0-4.19846,1.83617c-3.10018,1.7331-5.09079,3.92391-5.45115,6.332-.04-.26312-.08574-2.43672-.08574-2.69989a6.83919,6.83919,0,0,1,2.42521-4.89631,16.02424,16.02424,0,0,1,3.74659-2.57971l.00572.00572C65.034,87.25565,70.92555,85.9114,77.48643,85.85425Z"/><path class="cls-2" d="M89.52122,87.34139l-3.8495,2.63125a47.33488,47.33488,0,0,0-7.77923-.635c-.98378,0-1.95046.03432-2.9.09157-.10868.00572-.223.01139-.33171.01711l.183-.19442,2.64264-3.39768h.48042A44.0639,44.0639,0,0,1,89.52122,87.34139Z"/><path class="cls-1" d="M54.22131,105.60559h2.06828l3.97139,9.18366h.03283l4.00456-9.18366H66.317v11.71522H64.92711v-9.829H64.894l-4.20288,9.829h-.844l-4.20287-9.829h-.03318v9.829H54.22131Z"/><path class="cls-1" d="M73.0348,105.60559H74.342l4.98085,11.71522H77.70121l-1.19147-2.879H70.65213l-1.20777,2.879H67.87222Zm.629,1.78738H73.6307l-2.43242,5.75814h4.7819Z"/><path class="cls-1" d="M88.68,108.02171a3.34637,3.34637,0,0,0-1.30725-1.06746,3.85407,3.85407,0,0,0-1.62161-.35584,4.06274,4.06274,0,0,0-1.79533.39725,4.49863,4.49863,0,0,0-1.41467,1.06746,4.89844,4.89844,0,0,0-.92652,1.55533,5.21643,5.21643,0,0,0-.331,1.84475,5.404,5.404,0,0,0,.331,1.9111,4.77245,4.77245,0,0,0,.91823,1.53868,4.30467,4.30467,0,0,0,1.40671,1.03429,4.53916,4.53916,0,0,0,3.73132-.04142,4.3564,4.3564,0,0,0,1.47238-1.21607l1.04258.87682a4.81994,4.81994,0,0,1-1.9111,1.55589,6.15144,6.15144,0,0,1-2.5236.4961,5.9564,5.9564,0,0,1-2.34949-.46292,5.78,5.78,0,0,1-1.89451-1.283,5.90124,5.90124,0,0,1-1.25777-1.94428,6.51083,6.51083,0,0,1-.455-2.4652,6.59086,6.59086,0,0,1,.43838-2.41549,5.8192,5.8192,0,0,1,5.51836-3.74,6.23777,6.23777,0,0,1,2.29182.43043,4.22491,4.22491,0,0,1,1.8451,1.40609Z"/><path class="cls-1" d="M92.12175,105.60559h1.38984v5.06373h.1986l5.32805-5.06373h2.00228l-5.79131,5.34493,6.07251,6.37029H99.2866l-5.57641-5.95708h-.1986v5.95708H92.12175Z"/><path class="cls-1" d="M102.95134,105.60559h7.36346v1.2906h-5.97367v3.6736h5.57641v1.29066h-5.57641v4.16976h6.2715v1.2906h-7.66129Z"/><path class="cls-1" d="M112.68206,105.60559H114.436l6.78419,9.72952h.03312v-9.72952h1.38984v11.71522h-1.75392l-6.78419-9.72953h-.03311v9.72953h-1.38985Z"/><path class="cls-1" d="M124.90362,116.07991l6.76759-9.18372h-6.66847v-1.2906h8.35638v1.19176l-6.7676,9.23286h6.85014v1.2906h-8.538Z"/><path class="cls-1" d="M135.864,105.60559h1.38978v11.71522H135.864Z"/><path class="cls-1" d="M139.43649,105.60559h7.36385v1.2906h-5.97372v3.6736H146.403v1.29066h-5.57641v4.16976h6.2715v1.2906h-7.66163Z"/><path class="cls-1" d="M54.30236,122.29673h.7595v6.40158h-.7595Z"/><path class="cls-1" d="M56.28342,125.47053q0-.28932-.01819-.5422-.01794-.25346-.01791-.46109h.66907c0,.11434.0028.22868.00909.343.00595.115.00881.23246.00881.35309h.0182a1.204,1.204,0,0,1,.20357-.29841,1.45354,1.45354,0,0,1,.31191-.25757,1.66035,1.66035,0,0,1,.40675-.18092,1.68953,1.68953,0,0,1,.48814-.06784,1.86323,1.86323,0,0,1,.719.12624,1.3561,1.3561,0,0,1,.50164.35309,1.43281,1.43281,0,0,1,.294.54655,2.471,2.471,0,0,1,.09484.7011v2.61277h-.70516v-2.54053a1.35507,1.35507,0,0,0-.23526-.84118.86325.86325,0,0,0-.73222-.30722,1.38192,1.38192,0,0,0-.59242.11749,1.048,1.048,0,0,0-.40675.33485,1.493,1.493,0,0,0-.235.51514,2.64874,2.64874,0,0,0-.07694.66026v2.06119h-.70521Z"/><path class="cls-1" d="M63.15524,128.69831h-.77741l-1.727-4.23107h.82265l1.32024,3.31765h.01789l1.25674-3.31765h.75956Z"/><path class="cls-1" d="M69.36651,127.93a2.14573,2.14573,0,0,1-.83174.68223,2.64034,2.64034,0,0,1-1.04888.19476,2.18689,2.18689,0,0,1-.89518-.17652,2.01018,2.01018,0,0,1-.67347-.47493,2.0684,2.0684,0,0,1-.425-.70487,2.49872,2.49872,0,0,1-.14918-.86824,2.42848,2.42848,0,0,1,.16268-.89958,2.08647,2.08647,0,0,1,.452-.70487,2.03119,2.03119,0,0,1,.68731-.45674,2.26623,2.26623,0,0,1,.8679-.16268,2.16548,2.16548,0,0,1,.81384.14889,1.77213,1.77213,0,0,1,.63732.43409,1.94931,1.94931,0,0,1,.41121.69607,2.81591,2.81591,0,0,1,.14477.93607v.22611H66.10257a1.47971,1.47971,0,0,0,.131.51955,1.50609,1.50609,0,0,0,.294.43415,1.35043,1.35043,0,0,0,.42465.294,1.29977,1.29977,0,0,0,.53367.108,1.68432,1.68432,0,0,0,.77746-.16273,1.75607,1.75607,0,0,0,.56948-.47871Zm-.60592-1.727a1.21824,1.21824,0,0,0-.35246-.86824,1.26806,1.26806,0,0,0-.92224-.32541,1.30259,1.30259,0,0,0-1.38332,1.19365Z"/><path class="cls-1" d="M70.86675,127.58635a1.781,1.781,0,0,0,.45639.4159,1.178,1.178,0,0,0,.62852.15329,1.579,1.579,0,0,0,.33015-.0358.996.996,0,0,0,.30282-.11749.67316.67316,0,0,0,.217-.20358.51913.51913,0,0,0,.08139-.294.47419.47419,0,0,0-.077-.28017.676.676,0,0,0-.20352-.18533,1.156,1.156,0,0,0-.28931-.12189q-.16259-.04521-.33451-.08162-.29825-.06315-.56948-.14455a1.84323,1.84323,0,0,1-.47464-.21232.997.997,0,0,1-.32541-.33926,1.04048,1.04048,0,0,1-.12218-.53333,1.06728,1.06728,0,0,1,.13568-.54277,1.1736,1.1736,0,0,1,.36155-.38827,1.783,1.783,0,0,1,.50634-.2356,2.07371,2.07371,0,0,1,.57857-.081,1.93964,1.93964,0,0,1,.83649.18092,1.303,1.303,0,0,1,.60123.58739l-.58773.38884a1.09416,1.09416,0,0,0-.35715-.36625.99076.99076,0,0,0-.53808-.14008,1.223,1.223,0,0,0-.29367.03644.91859.91859,0,0,0-.26666.108.64084.64084,0,0,0-.19448.18532.44681.44681,0,0,0-.07693.2582.33181.33181,0,0,0,.08608.23058.76488.76488,0,0,0,.23492.16708,2.01173,2.01173,0,0,0,.34366.1263,3.95155,3.95155,0,0,0,.4024.09043,4.13215,4.13215,0,0,1,.53333.14014,1.564,1.564,0,0,1,.4429.23051,1.02783,1.02783,0,0,1,.29841.36191,1.18462,1.18462,0,0,1,.10868.53333,1.22175,1.22175,0,0,1-.14483.615,1.20235,1.20235,0,0,1-.38415.4115,1.69243,1.69243,0,0,1-.54243.23057,2.68683,2.68683,0,0,1-.61947.07224,2.3765,2.3765,0,0,1-.93574-.16771,1.69939,1.69939,0,0,1-.7099-.61884Z"/><path class="cls-1" d="M76.94263,125.06343h-1.2477v2.11583q0,.20823.00881.38449a.78908.78908,0,0,0,.07258.30717.483.483,0,0,0,.18974.208.69887.69887,0,0,0,.3615.07664,1.47561,1.47561,0,0,0,.31666-.0358,1.3162,1.3162,0,0,0,.30716-.10868l.02735.642a1.60779,1.60779,0,0,1-.40235.11749,2.64729,2.64729,0,0,1-.42065.03643,1.52206,1.52206,0,0,1-.60558-.09987.82005.82005,0,0,1-.35275-.28022,1.04046,1.04046,0,0,1-.16713-.44725,3.96075,3.96075,0,0,1-.04079-.59242v-2.3238h-.92223v-.59619h.92223v-1.20308h.70545v1.20308h1.2477Z"/><path class="cls-1" d="M77.97229,125.47053q0-.28932-.0182-.5422-.01793-.25346-.0179-.46109h.669q0,.17151.00915.343c.00595.115.00875.23246.00875.35309h.01825a1.20542,1.20542,0,0,1,.20352-.29841,1.45557,1.45557,0,0,1,.312-.25757,1.66043,1.66043,0,0,1,.40676-.18092,1.68894,1.68894,0,0,1,.48814-.06784,1.66089,1.66089,0,0,1,.57417.086,1.38909,1.38909,0,0,1,.38415.208,1.00733,1.00733,0,0,1,.23967.262q.0858.14037.14008.24876a1.96344,1.96344,0,0,1,.54248-.59241,1.37355,1.37355,0,0,1,.79565-.21233,2.07466,2.07466,0,0,1,.75957.12184,1.21331,1.21331,0,0,1,.49723.35246,1.397,1.397,0,0,1,.27136.561,3.07527,3.07527,0,0,1,.0814.7369v2.56753h-.70523v-2.53172a1.991,1.991,0,0,0-.04524-.42471.97927.97927,0,0,0-.16268-.37065.85561.85561,0,0,0-.31665-.26261,1.13472,1.13472,0,0,0-.50634-.09924,1.0121,1.0121,0,0,0-.42465.09049,1.06315,1.06315,0,0,0-.34835.25317,1.18784,1.18784,0,0,0-.235.39325,1.44962,1.44962,0,0,0-.08575.51073v2.44129h-.7055v-2.396a1.93457,1.93457,0,0,0-.18973-.99888.6862.6862,0,0,0-.62382-.294,1.38189,1.38189,0,0,0-.59242.11749,1.04793,1.04793,0,0,0-.40675.33485,1.4921,1.4921,0,0,0-.235.51514,2.64913,2.64913,0,0,0-.077.66026v2.06119h-.70515Z"/><path class="cls-1" d="M89.29288,127.93a2.14546,2.14546,0,0,1-.8318.68223,2.63983,2.63983,0,0,1-1.04882.19476,2.18669,2.18669,0,0,1-.89518-.17652,2.00958,2.00958,0,0,1-.67347-.47493,2.0684,2.0684,0,0,1-.425-.70487,2.499,2.499,0,0,1-.14924-.86824,2.4287,2.4287,0,0,1,.16273-.89958,2.08664,2.08664,0,0,1,.452-.70487,2.03119,2.03119,0,0,1,.68731-.45674,2.26618,2.26618,0,0,1,.86789-.16268,2.16537,2.16537,0,0,1,.81384.14889,1.77247,1.77247,0,0,1,.63732.43409,1.949,1.949,0,0,1,.41121.69607,2.8159,2.8159,0,0,1,.14478.93607v.22611H86.02894a1.47971,1.47971,0,0,0,.131.51955,1.50586,1.50586,0,0,0,.294.43415,1.35055,1.35055,0,0,0,.42465.294,1.29982,1.29982,0,0,0,.53368.108,1.68432,1.68432,0,0,0,.77746-.16273,1.75617,1.75617,0,0,0,.56948-.47871Zm-.60592-1.727a1.21821,1.21821,0,0,0-.35247-.86824,1.268,1.268,0,0,0-.92223-.32541,1.30259,1.30259,0,0,0-1.38332,1.19365Z"/><path class="cls-1" d="M90.54052,125.47053q0-.28932-.01819-.5422-.01794-.25346-.0179-.46109h.669q0,.17151.00915.343c.00595.115.00875.23246.00875.35309h.01824a1.2052,1.2052,0,0,1,.20353-.29841,1.45557,1.45557,0,0,1,.312-.25757,1.66035,1.66035,0,0,1,.40675-.18092,1.68923,1.68923,0,0,1,.48814-.06784,1.86323,1.86323,0,0,1,.719.12624,1.35622,1.35622,0,0,1,.50165.35309,1.43375,1.43375,0,0,1,.294.54655,2.471,2.471,0,0,1,.09484.7011v2.61277h-.70516v-2.54053a1.355,1.355,0,0,0-.23526-.84118.86332.86332,0,0,0-.73222-.30722,1.38192,1.38192,0,0,0-.59242.11749,1.0479,1.0479,0,0,0-.40674.33485,1.49191,1.49191,0,0,0-.235.51514,2.64923,2.64923,0,0,0-.07693.66026v2.06119h-.70522Z"/><path class="cls-1" d="M97.63913,125.06343h-1.2477v2.11583q0,.20823.00881.38449a.78925.78925,0,0,0,.07259.30717.483.483,0,0,0,.18973.208.6989.6989,0,0,0,.3615.07664,1.47563,1.47563,0,0,0,.31667-.0358,1.3154,1.3154,0,0,0,.30716-.10868l.02734.642a1.60767,1.60767,0,0,1-.40235.11749,2.64706,2.64706,0,0,1-.42059.03643,1.52216,1.52216,0,0,1-.60563-.09987.81993.81993,0,0,1-.35275-.28022,1.03966,1.03966,0,0,1-.16708-.44725,3.95243,3.95243,0,0,1-.04084-.59242v-2.3238h-.92224v-.59619H95.686v-1.20308h.70544v1.20308h1.2477Z"/><path class="cls-1" d="M99.00243,127.58635a1.78042,1.78042,0,0,0,.45641.4159,1.17789,1.17789,0,0,0,.6285.15329,1.57918,1.57918,0,0,0,.33017-.0358.996.996,0,0,0,.30281-.11749.67312.67312,0,0,0,.217-.20358.51906.51906,0,0,0,.0814-.294.47412.47412,0,0,0-.077-.28017.676.676,0,0,0-.20352-.18533,1.157,1.157,0,0,0-.28932-.12189q-.16258-.04521-.3345-.08162-.29832-.06315-.56948-.14455a1.84345,1.84345,0,0,1-.47465-.21232.99726.99726,0,0,1-.32541-.33926,1.04068,1.04068,0,0,1-.12218-.53333,1.06738,1.06738,0,0,1,.13568-.54277,1.17363,1.17363,0,0,1,.36156-.38827,1.783,1.783,0,0,1,.50634-.2356,2.07371,2.07371,0,0,1,.57857-.081,1.93984,1.93984,0,0,1,.83649.18092,1.303,1.303,0,0,1,.60123.58739l-.58773.38884a1.09416,1.09416,0,0,0-.35715-.36625.99076.99076,0,0,0-.53808-.14008,1.22263,1.22263,0,0,0-.29367.03644.91859.91859,0,0,0-.26666.108.641.641,0,0,0-.19448.18532.44681.44681,0,0,0-.07693.2582.33181.33181,0,0,0,.08608.23058.76476.76476,0,0,0,.23492.16708,2.01173,2.01173,0,0,0,.34366.1263,3.954,3.954,0,0,0,.40234.09043,4.13051,4.13051,0,0,1,.53339.14014,1.56414,1.56414,0,0,1,.4429.23051,1.02783,1.02783,0,0,1,.29841.36191,1.18462,1.18462,0,0,1,.10868.53333,1.22175,1.22175,0,0,1-.14483.615,1.20228,1.20228,0,0,1-.38416.4115,1.69228,1.69228,0,0,1-.54242.23057,2.68685,2.68685,0,0,1-.61948.07224,2.37649,2.37649,0,0,1-.93573-.16771,1.69941,1.69941,0,0,1-.70991-.61884Z"/></svg>