<svg id="Layer_1" data-name="Layer 1" xmlns="http://www.w3.org/2000/svg" width="200" height="200" viewBox="0 0 200 200"><defs><style>.cls-1{fill:#021d49;}</style></defs><path class="cls-1" d="M117.58387,99.88855l4.72851-.251a9.13812,9.13812,0,0,0-.884-3.02087l-3.93518-.18109A17.56513,17.56513,0,0,1,117.58387,99.88855Z"/><path class="cls-1" d="M96.3675,81.04462a2.92092,2.92092,0,0,0,1.46624.2572,2.18569,2.18569,0,0,0,1.589-.90515A2.9126,2.9126,0,0,0,96.3675,81.04462Z"/><path class="cls-1" d="M105.799,95.38885l3.3634-.176a22.2759,22.2759,0,0,1,.42908-3.001A8.82189,8.82189,0,0,0,105.799,95.38885Z"/><path class="cls-1" d="M85.13782,117.05493H83.03113v5.02246h1.65772c1.92028,0,3.118-.984,3.118-2.646C87.80683,117.5672,86.89148,117.05493,85.13782,117.05493Z"/><path class="cls-1" d="M102.84058,119.02106c0-1.63489-1.03821-1.96613-2.569-1.96613H98.49506v4.18836h1.36725C101.44922,121.24329,102.84058,120.76324,102.84058,119.02106Z"/><path class="cls-1" d="M100.337,122.49493h-1.842v5.52637h1.93066c2.14612,0,3.41333-.82257,3.41333-2.87506C103.83905,123.24884,102.86762,122.49493,100.337,122.49493Z"/><path class="cls-1" d="M99.92267,86.43127a34.7697,34.7697,0,0,0-4.87439.79248c.50714.34681,2.31073,1.49946,3.54682,2.28473l4.036-2.41906A6.10819,6.10819,0,0,0,99.92267,86.43127Z"/><path class="cls-1" d="M122.32813,101.60577l-4.91406-.27917a16.90868,16.90868,0,0,1-.97889,3.55408l5.27747-.66431A7.72129,7.72129,0,0,0,122.32813,101.60577Z"/><path class="cls-1" d="M110.67231,96.12421a29.6395,29.6395,0,0,0-.64557,4.16314l5.85864-.3103a21.223,21.223,0,0,0-.44061-3.63641Z"/><path class="cls-1" d="M120.0976,94.61a9.29435,9.29435,0,0,0-3.70313-2.58777,20.538,20.538,0,0,1,.81232,2.74713Z"/><path class="cls-1" d="M72.93433,64.28107v62.68731c0,2.36194.96838,3.73133,2.85748,4.45813a71.01216,71.01216,0,0,0,48.62934,0c1.88995-.7268,2.85839-2.09619,2.85839-4.45813V64.28107ZM76.02088,92.9054a6.24085,6.24085,0,0,1,.92792-3.18665l.7091.4707a7.37455,7.37455,0,0,0-.36871,2.43567c.21051,3.08045,2.69714,5.16107,10.21973,9.85736,7.98077,4.98169,10.21136,8.0224,10.88934,11.96808h-.41974c-1.7287-3.806-5.24634-5.93774-9.23566-8.2016v3.071h-.41974a18.67853,18.67853,0,0,0-6.126-7.50714c-2.73774-2.05353-3.84992-3.07508-4.9079-4.70362A7.48088,7.48088,0,0,1,76.02088,92.9054Zm12.568,36.39569-4.41632-6.00025H83.03113v6.00025H79.90406v-10.556a3.20052,3.20052,0,0,0-.68421-2.38581,2.30455,2.30455,0,0,0-.79034-.478v-.11664h7.52978c3.64576,0,5.03907,1.232,5.03907,3.56152,0,1.98358-1.49524,3.07489-3.49158,3.60913l4.97974,6.36573Zm12.775,0H95.38135v-10.807a2.95608,2.95608,0,0,0-.67584-2.145,2.1476,2.1476,0,0,0-.78925-.46771v-.11664h7.21863c4.27875,0,4.89636,1.5965,4.89636,3.05011a3.034,3.034,0,0,1-2.68164,2.90131c1.86713.1217,3.68653,1.11724,3.68653,3.45507C107.03614,128.04626,104.65461,129.30109,101.3639,129.30109Zm20.26434-.81421s-1.264,1.02343-4.48285,1.02343c-3.45941,0-7.38416-1.41925-7.38416-6.88525,0-4.85052,3.2948-7.06744,7.6955-7.06744a7.51128,7.51128,0,0,1,4.12994.8778l-.681,2.31476s-.08954.01477-.13025-.03112a2.57458,2.57458,0,0,0-1.09533-1.09961,4.62159,4.62159,0,0,0-2.48584-.57386c-2.4242,0-4.23291,1.35382-4.17365,5.50141.0636,4.49432,3.01795,5.41394,5.0329,5.41394a5.40365,5.40365,0,0,0,3.57477-1.06232Zm1.52783-17.39783-.98932,3.36792h-.50934c0-2.80853-2.57409-3.57391-5.2713-3.57391h-8.42523a14.1688,14.1688,0,0,1,.1864,4.53485h-.41864c-.781-6.30945-4.34662-9.43549-9.33038-12.78015v2.87078h-.41974c-1.32355-2.96246-4.23608-5.74389-6.99255-7.71618h.001c-.73425-.52381-1.49218-1.06635-2.24414-1.60163v3.097h-.41974c-1.16827-3.07208-3.29046-5.36407-6.31567-8.09235-3.26654-2.94183-4.586-4.70166-5.3493-6.726a9.54136,9.54136,0,0,1-.61231-3.56348,6.14281,6.14281,0,0,1,2.70441-5.39624v1.16639a5.90084,5.90084,0,0,0-1.14435,3.53845,7.92827,7.92827,0,0,0,.86945,3.61767c1.839,3.50312,8.03588,7.80274,11.9721,10.44147,12.23786,8.20777,14.68079,9.64069,16.71369,13.99664a10.829,10.829,0,0,1,.64019,1.89423c1.76844-.273,8.18091-1.24866,9.3639-1.43616.22583-.0354.6997-.0957.94433-.11023a9.25585,9.25585,0,0,0,2.72528-2.69824l-4.69116-.36444a14.349,14.349,0,0,1-.69354,1.35272H115.069q.1919-.71529.33417-1.40991l-1.19751-.0885v-.25525l1.29859-.1604a23.23315,23.23315,0,0,0,.3905-3.756l-5.90851-.33417c-.03241.6059-.03754,1.17658-.0177,1.70569h-.37811c-.1261-.58948-.225-1.17468-.301-1.74646l-1.29425-.07379v-.39472l1.22968-.06659a26.89173,26.89173,0,0,1-.11969-4.27575L105.651,95.893a6.987,6.987,0,0,1,.45.94647,11.38469,11.38469,0,0,1,.32183,5.65136h-.41864a12.57622,12.57622,0,0,0-.91235-3.86651c-.95587-2.25232-3.10107-4.24231-6.69354-6.552v2.87829h-.41974c-1.19556-3.78229-4.17059-5.88574-8.59418-8.1579-3.64984-1.87335-4.78485-4.13006-4.57879-7.62463l1.23309.73a5.43485,5.43485,0,0,0,5.45447,5.13373,22.93329,22.93329,0,0,0,4.39752-.4967c2.02222-.40815,3.89361-.75708,5.45666-.203V82.40137h-1.22778a4.17394,4.17394,0,0,1-2.63873.84027,3.87876,3.87876,0,0,1-4.16529-3.84772c0-2.64386,2.23884-3.06567,4.06122-3.06567.97351,0,2.595-.0365,3.14374-.06763a1.36351,1.36351,0,0,0,.91107-.28217,1.12617,1.12617,0,0,0,.31775-.68225,7.28032,7.28032,0,0,0,.05719-1.23071V72.13477H93.36219v3.34381l-3.19477-1.21521v-.79975h1.52979V72.13477H86.0011V69.3576H84.0578a2.27741,2.27741,0,0,0-2.318,2.13672c-.08124,1.35169.527,2.48987,1.91815,2.48987h.24994v1.61829H83.658a4.17477,4.17477,0,0,1-4.27557-4.26215,4.59128,4.59128,0,0,1,4.765-4.46106H88.267v2.77716h16.01673v4.10388c0,.69141-.03736,1.62037-.10517,2.20771a2.524,2.524,0,0,1-1.00787,1.813,3.98053,3.98053,0,0,1-2.41907.527c-.38946.0019-1.52551-.0177-2.88653-.10107-1.82453-.11456-2.34211.58838-2.4159,1.24225a1.70938,1.70938,0,0,0,0,.402,3.69919,3.69919,0,0,1,3.43744-.69776c2.41687.76026,3.10614.82788,4.3642-.16125l.128.2832a3.14979,3.14979,0,0,1-.73108.77887h1.16742v6.32391l3.63428-2.17743H117.6493s4.31225,2.25257,5.02136,2.62427a1.644,1.644,0,0,1,.97058,1.31116,2.39993,2.39993,0,0,1-.28534,1.50244c-.15.247-1.32141,2.16724-1.94116,3.19281a10.963,10.963,0,0,1-1.25891,16.03247A5.59468,5.59468,0,0,1,123.15607,111.08905Z"/><path class="cls-1" d="M117.17865,88.98041l-.86627-1.15674.14459-.25525,2.43677,1.31433-.53107,1.61078a10.44505,10.44505,0,0,1,1.23609.74664l1.57349-2.58777-4.07593-2.13049h-9.00855l-7.31012,4.39862a19.33879,19.33879,0,0,1,3.53424,3.023,10.96414,10.96414,0,0,1,8.80872-4.66943,11.254,11.254,0,0,1,3.49884.49048Z"/><path class="cls-1" d="M113.09034,91.41718a9.11565,9.11565,0,0,0-.98914.07806,29.83239,29.83239,0,0,0-1.18512,3.623l4.16528-.23121a16.89144,16.89144,0,0,0-1.39221-3.45318Q113.39235,91.41691,113.09034,91.41718Z"/><path class="cls-1" d="M131.70012,134.61a3.38545,3.38545,0,1,1,3.36555-3.38538A3.37009,3.37009,0,0,1,131.70012,134.61Zm0-6.09706a2.72361,2.72361,0,1,0,2.60334,2.71168A2.64221,2.64221,0,0,0,131.70012,128.51289Zm.225.79141a1.053,1.053,0,0,1,1.1205,1.109.97418.97418,0,0,1-.8456,1.04758.89233.89233,0,0,1,.154.16443c.21668.273.90809,1.47452.90809,1.47452h-.89955c-.14588-.25507-.20837-.35509-.35424-.62786-.37469-.682-.49136-.86438-.62892-.92877a.43034.43034,0,0,0-.12071-.02709v1.58372h-.74152V129.3043Zm-.66646,1.63789h.25827c.3248,0,.47069-.03645.57048-.12688a.5344.5344,0,0,0,.14588-.38217.44394.44394,0,0,0-.27064-.46449,1.50739,1.50739,0,0,0-.42909-.05417h-.2749Z"/></svg>