<svg id="Layer_1" data-name="Layer 1" xmlns="http://www.w3.org/2000/svg" width="200" height="200" viewBox="0 0 200 200"><defs><style>.cls-1{fill:#021d49;}</style></defs><path class="cls-1" d="M48.85956,95.97182a1.97791,1.97791,0,0,1-.01617-.83607,1.31236,1.31236,0,0,1,1.45707-1.07286,1.36018,1.36018,0,0,1,1.47941,1.4458V96.494h3.97084V95.37572c0-3.463-3.12235-4.015-5.37317-4.015-2.82769,0-5.13821.93862-5.56093,3.53819a5.50284,5.50284,0,0,0,.0317,2.14579c.68942,3.25474,6.34723,4.19584,7.17026,6.25525a2.055,2.055,0,0,1,.03106,1.17547,1.37753,1.37753,0,0,1-1.55465,1.07534,1.41876,1.41876,0,0,1-1.5894-1.44955L48.9,102.56953H44.62826v1.2171c0,3.55931,2.79537,4.62976,5.78716,4.62976,2.8762,0,5.23828-.98031,5.62369-3.64449a7.91079,7.91079,0,0,0-.0168-2.6058C55.35039,98.825,49.3127,97.83538,48.85956,95.97182Zm51.77293.03915a2.13213,2.13213,0,0,1-.01368-.823,1.30535,1.30535,0,0,1,1.44274-1.06541A1.34357,1.34357,0,0,1,103.5199,95.556v.97344h3.92481V95.41983c0-3.43-3.07512-3.969-5.30168-3.969-2.80408,0-5.09411.92436-5.51243,3.50528a5.31575,5.31575,0,0,0,.03794,2.12154c.68191,3.218,6.2844,4.15167,7.0975,6.18683a2.14881,2.14881,0,0,1,.02922,1.16674c-.12183.52966-.478,1.06236-1.53415,1.06236a1.40919,1.40919,0,0,1-1.587-1.42785l-.00121-1.52791H96.44849v1.21461c0,3.5189,2.75622,4.58063,5.725,4.58063,2.84322,0,5.19168-.97159,5.56838-3.60534a7.75794,7.75794,0,0,0-.028-2.58085C107.05554,98.84611,101.08443,97.85339,100.63249,96.011Zm36.1483,8.67392L133.03185,91.868h-5.90771V107.6213h3.908l-.22686-13.2271,4.02615,13.2271h5.6659V91.868h-3.93354ZM61.67146,91.868l-2.94889,15.91935h4.3003l2.22224-14.73707,2.16876,14.73707h4.27044L68.74783,91.868Zm24.04561,0-2.00843,12.44393L81.70149,91.868H75.207l-.34436,15.91935h3.97885L78.949,93.05024l2.73757,14.73707h4.03671l2.74-14.73707.10815,14.73707h3.98884L92.20414,91.868Zm36.993,0H118.684v11.777a2.80119,2.80119,0,0,1-.03546.60482,1.58233,1.58233,0,0,1-3.04774,0,2.577,2.577,0,0,1-.04036-.60482V91.868h-4.02493v11.41142c-.005.29407.018.89514.03545,1.05243.27785,2.97371,2.62134,3.93907,5.54782,3.93907,2.93215,0,5.27431-.96536,5.55718-3.93907a8.30391,8.30391,0,0,0,.03418-1.05243Zm27.64408,6.98375v2.32173h1.63172v2.30364a2.91151,2.91151,0,0,1-.04168.60547,1.71964,1.71964,0,0,1-3.25284,0,3.95331,3.95331,0,0,1-.04169-.60547V96.20116a3.25126,3.25126,0,0,1,.07212-.75211,1.66887,1.66887,0,0,1,3.174,0,4.19545,4.19545,0,0,1,.04845.61411v.88331h4.0094v-.52214a9.53282,9.53282,0,0,0-.03049-1.05364c-.30146-2.98619-2.76182-3.931-5.58328-3.931-2.82642,0-5.237.95352-5.58824,3.931-.0317.2723-.0802.76211-.0802,1.05364v6.69286a9.07254,9.07254,0,0,0,.06346,1.04989c.26168,2.90414,2.77856,3.93353,5.59378,3.93353,2.83266,0,5.33216-1.02939,5.59823-3.93353.04723-.53271.0522-.75836.05843-1.04989V98.85171Z"/></svg>