<svg id="Layer_1" data-name="Layer 1" xmlns="http://www.w3.org/2000/svg" width="200" height="200" viewBox="0 0 200 200"><defs><style>.cls-1{fill:#021d49;}</style></defs><path class="cls-1" d="M151.56653,108.869a1.11176,1.11176,0,0,1,.39819-1.23474l3.37793-2.45911a1.10433,1.10433,0,0,1,1.30078,1.785s-.442.3211-.63849.4635h6.10993c-3.23108-2.47913-9.78082-7.50782-9.78082-7.50782a1.10416,1.10416,0,0,1,.62292-1.97931h12.37787a1.10016,1.10016,0,0,1,.67706,1.95264l-3.24145,2.69788a1.10352,1.10352,0,0,1-1.55585-.14386,1.08791,1.08791,0,0,1-.25513-.70233,1.10539,1.10539,0,0,1,.3982-.85059s.53845-.44861.89666-.746h-5.99951c2.92322,2.24255,8.66846,6.6203,9.723,7.43042,5.31537-5.45331,6.34467-13.10175,2.26557-17.17932-4.11878-4.121-11.89063-3.03461-17.35315,2.42944-5.46259,5.46252-6.54975,13.23437-2.428,17.35461,3.59259,3.59327,9.95666,3.22406,15.14862-.54724H152.61658A1.104,1.104,0,0,1,151.56653,108.869Zm10.26282-16.79626,1.88586-1.23841a1.1143,1.1143,0,0,1,1.22217,1.86359l-1.88666,1.23547a1.11285,1.11285,0,1,1-1.22137-1.86065Zm-8.82343,2.675h12.30743a1.10309,1.10309,0,1,1,0,2.20618H153.00592a1.10309,1.10309,0,1,1,0-2.20618Z"/><path class="cls-1" d="M74.05862,103.71128h2.48877a6.31284,6.31284,0,0,1,3.38535.6956,2.57555,2.57555,0,0,1,1.11831,2.21069,3.10929,3.10929,0,0,1-.19949,1.13908c-.72081,1.828-2.89961,1.85989-3.7183,1.86954H74.05862Zm1.96817,1.24734v3.47806h.6c1.03747-.017,2.47617-.05934,2.47617-1.76052a1.5762,1.5762,0,0,0-.40939-1.1895,2.47891,2.47891,0,0,0-1.88066-.528Z"/><path class="cls-1" d="M82.15159,103.71425h3.8518c2.03861,0,2.8403.88768,2.8403,1.88958,0,1.1895-1.07309,1.51209-1.60257,1.66336l1.80278,2.36272h-2.158l-1.54842-2.10985H84.10937v2.10985H82.15159Zm1.95778,1.10494V106.421h1.61445c.27733-.01036,1.17394-.02521,1.17394-.81277,0-.75494-.71937-.77943-1.128-.78908Z"/><path class="cls-1" d="M126.40293,103.71425h3.8518c2.03861,0,2.84177.88768,2.84177,1.88958,0,1.1895-1.07233,1.51209-1.60405,1.66336l1.80206,2.36272h-2.1573l-1.54842-2.10985H128.3607v2.10985h-1.95777Zm1.95777,1.10494V106.421h1.61666c.27441-.01036,1.17246-.02521,1.17246-.81277,0-.75494-.72009-.77943-1.128-.78908Z"/><path class="cls-1" d="M96.52208,103.71128v3.30155a2.50092,2.50092,0,0,1-.45461,1.676,4.09,4.09,0,0,1-2.90925,1.07233,5.23689,5.23689,0,0,1-1.81467-.32039,2.1582,2.1582,0,0,1-1.49356-2.428v-3.30155h1.96966V107.397a1.24958,1.24958,0,0,0,.1439.73862,1.64884,1.64884,0,0,0,1.26218.40046c1.326,0,1.326-.68671,1.33781-1.148v-3.6768Z"/><path class="cls-1" d="M103.39141,109.0737a3.62279,3.62279,0,0,1-2.296.68747c-2.178,0-3.51809-1.34153-3.51809-3.085,0-1.90071,1.62778-3.16881,3.84884-3.16881a4.54347,4.54347,0,0,1,3.43653,1.36823l-1.4802.67855a2.1466,2.1466,0,0,0-1.81246-.83875,1.826,1.826,0,0,0-2.04678,1.91924,1.87749,1.87749,0,0,0,.62144,1.50913,2.35521,2.35521,0,0,0,1.42534.42643,2.48493,2.48493,0,0,0,1.07084-.22618,1.01907,1.01907,0,0,0,.62813-.881h-1.7442v-1.12127h3.395v3.2845h-1.52842Z"/><path class="cls-1" d="M117.21761,103.71128v5.91491h-1.87029l.12161-4.21521.02077-.59475-.06451.20914c-.1016.33519-.11125.37821-.201.62888l-1.47131,3.97194h-1.68045l-1.415-3.80434-.34259-1.05457c.03337.4687.03337.56807.06451,1.12944l.10012,3.72947H108.6122v-5.91491h2.83066l1.1947,3.3164.27733.94771c.10753-.41082.12089-.45236.20765-.73045l1.25181-3.53366Z"/><path class="cls-1" d="M122.81957,103.71128l2.87736,5.91491H123.616l-.38857-.94628H120.353l-.38861.94628h-2.07791l2.89812-5.91491Zm-1.05308,1.406c-.09861.30257-.20986.61256-.32035.91365-.16539.44421-.46349,1.13908-.64073,1.58329h1.98151Z"/><path class="cls-1" d="M133.34566,103.71128h6.68914v1.17318h-2.362v4.74989h-1.96v-4.74989h-2.36716Z"/><path class="cls-1" d="M44.08136,90.66821h4.27083V94.4555h4.07947V90.66821H56.7425v10.403H52.43166V97.06441H48.35219v4.00683H44.08136Z"/><path class="cls-1" d="M72.66074,95.76886c0,2.6356-2.0112,5.642-7.31655,5.642-5.53669,0-7.20229-3.15324-7.20229-5.52632,0-2.976,2.3931-5.60048,7.27721-5.60048C70.76523,90.28407,72.66074,93.292,72.66074,95.76886Zm-10.22948.10084a2.63745,2.63745,0,0,0,2.98785,2.90184,2.74151,2.74151,0,0,0,2.93074-3.00268,3.20584,3.20584,0,0,0-.24692-1.37343,2.8566,2.8566,0,0,0-2.68382-1.48688A2.744,2.744,0,0,0,62.43126,95.8697Z"/><path class="cls-1" d="M74.05637,90.66821h7.737a6.02879,6.02879,0,0,1,3.85108.95591,2.95029,2.95029,0,0,1,1.13091,2.43315,3.15913,3.15913,0,0,1-1.28518,2.65266,5.83443,5.83443,0,0,1-3.84956.97224h-3.2949v3.38907H74.05637Zm4.28937,2.18027v2.65193h2.45391a3.95734,3.95734,0,0,0,.70749-.07267,1.26021,1.26021,0,0,0,1.03375-1.26666c0-1.22212-1.24361-1.28294-1.78129-1.3126Z"/><path class="cls-1" d="M87.97009,90.66821h7.73846a6.022,6.022,0,0,1,3.84959.95591,2.94364,2.94364,0,0,1,1.1324,2.43315,3.15725,3.15725,0,0,1-1.28367,2.65266,5.8355,5.8355,0,0,1-3.85035.97224H92.26165v3.38907H87.97009Zm4.29156,2.18027v2.65193h2.45168a3.98177,3.98177,0,0,0,.70972-.07267,1.25951,1.25951,0,0,0,1.03376-1.26666c0-1.22212-1.24513-1.28294-1.7813-1.3126Z"/><path class="cls-1" d="M101.8808,90.66821h10.70038v2.2826H106.1694v1.54847h5.9891v2.25515h-5.9891v2.06238h6.98652v2.25443H101.8808Z"/><path class="cls-1" d="M114.50785,90.66821h6.74176a12.11988,12.11988,0,0,1,3.33345.31,3.14283,3.14283,0,0,1,2.33526,3.00345c0,1.5299-1.0145,2.41238-2.77575,2.89072l3.29635,4.19888h-4.75209l-2.62524-3.66868h-1.26366v3.66868h-4.29008Zm4.29008,2.16543v2.43243h1.7835c.70748,0,2.06758-.03114,2.06758-1.2088,0-1.19322-1.34377-1.22363-2.08907-1.22363Z"/><path class="cls-1" d="M130.42084,97.47451c.798,1.16578,2.63341,1.37119,3.86517,1.37119.726,0,1.94-.16315,1.94-.78088,0-.32482-.244-.55621-.84022-.65334-.4494-.072-2.76686-.45756-3.43133-.56881-2.362-.396-3.68124-1.46463-3.68124-3.03607,0-2.17655,2.45836-3.47879,5.97793-3.47879,2.52808,0,4.77806.62445,6.07434,1.8436l-2.68307,1.72419c-.65554-.76011-2.12833-1.062-3.54254-1.062-.72973,0-1.5351.14982-1.5351.67634,0,.50279.69636.60736,1.86065.798,2.99749.49611,5.9965.8098,5.9965,3.389,0,2.11576-2.24851,3.68572-6.38063,3.68572-2.7936,0-5.16148-.55325-6.89679-2.2856Z"/><path class="cls-1" d="M32.71209,97.47451c.79792,1.16578,2.63116,1.37119,3.8644,1.37119.726,0,1.93925-.16315,1.93925-.78088,0-.32482-.244-.55621-.838-.65334-.45016-.072-2.76614-.45756-3.43132-.56881-2.36272-.396-3.68273-1.46463-3.68273-3.03607,0-2.17655,2.45761-3.47879,5.97942-3.47879,2.52587,0,4.77582.62445,6.07289,1.8436L39.93367,93.8956c-.65631-.76011-2.13058-1.062-3.54258-1.062-.729,0-1.53434.14982-1.53434.67634,0,.50279.69559.60736,1.85989.798,2.999.49611,5.995.8098,5.995,3.389,0,2.11576-2.247,3.68572-6.37987,3.68572-2.79284,0-5.16-.55325-6.896-2.2856Z"/><path class="cls-1" d="M168.87039,108.793a.98537.98537,0,1,1-.00448-.00038Zm-.01743.20431a.80981.80981,0,1,0,.00482.00034Zm-.23066,1.40862-.24137-.01.04635-1.13794a2.09865,2.09865,0,0,1,.36562-.01671.63189.63189,0,0,1,.38781.10681.29062.29062,0,0,1,.0901.24991.27325.27325,0,0,1-.22949.25512l-.00037.00926c.09937.02225.15943.116.17093.28515a.92014.92014,0,0,0,.05229.28477l-.25067-.0104a.94756.94756,0,0,1-.05635-.29848.1865.1865,0,0,0-.20694-.18168l-.109-.00448Zm.02669-.65554.11387.00479c.14124.00558.25211-.0352.25694-.15348.0041-.09568-.06155-.17131-.22509-.178a1.00244,1.00244,0,0,0-.13236-.0011Z"/></svg>