<svg id="Layer_1" data-name="Layer 1" xmlns="http://www.w3.org/2000/svg" width="200" height="200" viewBox="0 0 200 200"><defs><style>.cls-1{fill:#021d49;}</style></defs><path class="cls-1" d="M106.13159,58.523c.289.04379.57327.10112.86023.15094C106.70486,58.62408,106.42055,58.56675,106.13159,58.523Z"/><path class="cls-1" d="M108.1156,58.87457c.294.05964.58314.1324.87482.19835C108.69869,59.00692,108.40965,58.93421,108.1156,58.87457Z"/><path class="cls-1" d="M60.54462,89.06887q.1266-.52191.26588-1.03883Q60.67057,88.54675,60.54462,89.06887Z"/><path class="cls-1" d="M120.52463,133.70293q-.89807.52776-1.8256,1.00843Q119.62594,134.22948,120.52463,133.70293Z"/><path class="cls-1" d="M71.64131,127.72084q-.316-.30837-.62592-.62267Q71.3246,127.41335,71.64131,127.72084Z"/><path class="cls-1" d="M110.064,59.32071c.29669.07568.58828.16392.88233.246C110.6522,59.48458,110.3607,59.39639,110.064,59.32071Z"/><path class="cls-1" d="M111.97558,59.859c.29669.09143.58791.19483.88159.29284C112.56345,60.05387,112.27227,59.95052,111.97558,59.859Z"/><path class="cls-1" d="M97.25068,58.16477c.2263-.01515.45-.0392.67736-.05065C97.70077,58.12557,97.477,58.14962,97.25068,58.16477Z"/><path class="cls-1" d="M72.9689,128.96284c-.22212-.19835-.44044-.40073-.65817-.60376C72.52846,128.56221,72.74673,128.76445,72.9689,128.96284Z"/><path class="cls-1" d="M61.0608,87.14864q.151-.51108.31388-1.01687Q61.2107,86.63729,61.0608,87.14864Z"/><path class="cls-1" d="M114.38928,136.6436c-.25155.09538-.50352.18969-.75743.28015C113.88581,136.83324,114.13768,136.739,114.38928,136.6436Z"/><path class="cls-1" d="M104.1171,58.26877c.27254.02743.54082.06854.81175.10135C104.65792,58.33731,104.38964,58.2962,104.1171,58.26877Z"/><path class="cls-1" d="M116.046,135.97654c-.23945.1032-.482.20057-.72379.29924C115.564,136.17711,115.80642,136.0797,116.046,135.97654Z"/><path class="cls-1" d="M102.072,58.11412c.22787.01149.45231.03559.67916.05074C102.52432,58.14971,102.29988,58.12561,102.072,58.11412Z"/><path class="cls-1" d="M125.63723,67.183c.25354.2067.50069.42075.74909.63342C126.13788,67.60366,125.89082,67.38969,125.63723,67.183Z"/><path class="cls-1" d="M59.563,95.03572q.04873-.5491.11252-1.0938Q59.61232,94.48686,59.563,95.03572Z"/><path class="cls-1" d="M124.11161,65.99786c.26133.19321.51631.3942.77272.59347C124.62787,66.39206,124.37294,66.19107,124.11161,65.99786Z"/><path class="cls-1" d="M125.00983,130.64784c-.30549.23941-.61071.4791-.92316.70984C124.39921,131.127,124.70424,130.8872,125.00983,130.64784Z"/><path class="cls-1" d="M122.52912,64.88479c.26773.17888.52924.36616.79242.55125C123.05831,65.251,122.79689,65.06372,122.52912,64.88479Z"/><path class="cls-1" d="M95.07236,58.37c.27051-.03276.53851-.07383.81064-.10121C95.61082,58.29615,95.34291,58.33722,95.07236,58.37Z"/><path class="cls-1" d="M113.84748,60.487c.295.107.5843.22541.87608.339C114.43178,60.7124,114.1425,60.594,113.84748,60.487Z"/><path class="cls-1" d="M127.68889,128.3595c-.21772.20308-.43613.4055-.6583.60385C127.2528,128.765,127.47108,128.56267,127.68889,128.3595Z"/><path class="cls-1" d="M127.10418,68.43821c.2446.21948.48281.44568.722.671C127.58694,68.88389,127.34883,68.65769,127.10418,68.43821Z"/><path class="cls-1" d="M115.67735,61.20207c.29187.1223.5779.2553.86625.38418C116.2552,61.45742,115.96922,61.32437,115.67735,61.20207Z"/><path class="cls-1" d="M120.89148,63.84582c.27459.16507.543.33914.81328.51047C121.4344,64.18491,121.16612,64.01089,120.89148,63.84582Z"/><path class="cls-1" d="M117.463,62.00186c.28663.13676.56743.28371.85031.427C118.03034,62.28557,117.74968,62.13862,117.463,62.00186Z"/><path class="cls-1" d="M60.12132,91.025q.1013-.53158.21606-1.05825Q60.22233,90.49349,60.12132,91.025Z"/><path class="cls-1" d="M59.79317,93.01566q.07542-.54138.16521-1.078Q59.86877,92.47441,59.79317,93.01566Z"/><path class="cls-1" d="M123.487,131.784c-.31268.22226-.6242.4461-.94341.65965C122.86288,132.23019,123.17427,132.0063,123.487,131.784Z"/><path class="cls-1" d="M119.20232,62.88419c.2807.151.55533.31143.832.46876C119.75756,63.19567,119.48306,63.03518,119.20232,62.88419Z"/><path class="cls-1" d="M93.01087,58.67344c.286-.04968.56942-.10683.85744-.15043C93.58024,58.56661,93.29685,58.62376,93.01087,58.67344Z"/><path class="cls-1" d="M64.00554,79.87612c.15994-.30573.3213-.61053.48874-.91158C64.3268,79.26568,64.16552,79.57034,64.00554,79.87612Z"/><path class="cls-1" d="M73.61372,67.81637c.2484-.21267.49555-.42672.7491-.63342C74.10923,67.38969,73.86217,67.60366,73.61372,67.81637Z"/><path class="cls-1" d="M84.67954,136.27642c-.24275-.099-.48609-.19677-.72643-.30035C84.19349,136.07965,84.43675,136.17739,84.67954,136.27642Z"/><path class="cls-1" d="M72.17272,69.11023c.2396-.22564.47817-.45226.72319-.67211C72.65085,68.658,72.41232,68.88454,72.17272,69.11023Z"/><path class="cls-1" d="M76.6785,65.436c.26319-.18509.5247-.37237.79243-.55125C77.20315,65.06372,76.94173,65.251,76.6785,65.436Z"/><path class="cls-1" d="M75.11571,66.59133c.25642-.19927.51145-.40026.77273-.59347C75.62706,66.19107,75.37222,66.39206,75.11571,66.59133Z"/><path class="cls-1" d="M86.36306,136.922c-.25165-.08972-.50139-.18328-.75072-.27782C85.86171,136.73875,86.11136,136.83231,86.36306,136.922Z"/><path class="cls-1" d="M81.30069,134.71118q-.92316-.48029-1.81865-1.00445Q80.37691,134.23192,81.30069,134.71118Z"/><path class="cls-1" d="M77.45582,132.44332c-.31718-.21216-.6267-.43461-.93748-.65548C76.82921,132.00867,77.1386,132.23111,77.45582,132.44332Z"/><path class="cls-1" d="M67.06981,74.92169c.19812-.27421.39647-.5481.60117-.81713C67.46623,74.37363,67.26793,74.64743,67.06981,74.92169Z"/><path class="cls-1" d="M70.79721,70.46842c.22954-.23765.45833-.476.69357-.708C71.25554,69.99247,71.02679,70.23077,70.79721,70.46842Z"/><path class="cls-1" d="M68.24123,73.37887c.20952-.26281.419-.52558.63486-.783C68.66022,72.85334,68.4508,73.11606,68.24123,73.37887Z"/><path class="cls-1" d="M64.94974,78.17249c.17314-.29544.3473-.59018.52762-.88076C65.297,77.5824,65.12293,77.877,64.94974,78.17249Z"/><path class="cls-1" d="M75.91194,131.35662c-.31-.22889-.61275-.46677-.91589-.70419C75.29928,130.88985,75.6019,131.12777,75.91194,131.35662Z"/><path class="cls-1" d="M69.48532,71.8926c.21944-.24989.4385-.50014.66392-.74456C69.92373,71.39246,69.7048,71.64267,69.48532,71.8926Z"/><path class="cls-1" d="M90.08679,138.05188c-.09241-.02317-.1863-.04277-.27843-.06654C89.90053,138.00916,89.99438,138.02871,90.08679,138.05188Z"/><path class="cls-1" d="M89.05505,59.56638c.29354-.082.58457-.17008.8808-.24562C89.63962,59.3963,89.34863,59.48435,89.05505,59.56638Z"/><path class="cls-1" d="M87.14315,60.15179c.29363-.098.58476-.20132.88131-.29275C87.72787,59.95043,87.43678,60.05382,87.14315,60.15179Z"/><path class="cls-1" d="M108.43375,138.39334c-.20243.04278-.40616.08217-.60974.12193C108.02759,138.47551,108.23123,138.43612,108.43375,138.39334Z"/><path class="cls-1" d="M62.3623,83.42477c.13134-.3239.26495-.64659.40435-.96626C62.62725,82.77828,62.49369,83.10083,62.3623,83.42477Z"/><path class="cls-1" d="M91.01227,59.07231c.29075-.06571.579-.13824.872-.1977C91.59119,58.93407,91.30307,59.00655,91.01227,59.07231Z"/><path class="cls-1" d="M69.03343,124.92351c-.17032-.20062-.34206-.39994-.50862-.60381C68.69127,124.52371,68.86311,124.72284,69.03343,124.92351Z"/><path class="cls-1" d="M61.6672,85.26714c.11637-.33288.23556-.66442.36032-.99332C61.90272,84.60277,61.78361,84.93417,61.6672,85.26714Z"/><path class="cls-1" d="M65.97189,76.52035c.186-.28515.37265-.56979.56553-.84994C66.34449,75.9506,66.15791,76.23511,65.97189,76.52035Z"/><path class="cls-1" d="M79.96712,63.35217c.27611-.157.55009-.31713.83019-.46775C80.51717,63.035,80.24323,63.1952,79.96712,63.35217Z"/><path class="cls-1" d="M110.1922,137.9852c-.09343.02409-.18843.044-.28209.06743C110.00377,138.02913,110.09877,138.00934,110.1922,137.9852Z"/><path class="cls-1" d="M63.14231,81.62762c.14593-.31509.29377-.62911.44749-.9398C63.43608,80.9986,63.28829,81.31244,63.14231,81.62762Z"/><path class="cls-1" d="M83.45788,61.58561c.28775-.12861.57322-.26133.86449-.3834C84.03106,61.32423,83.74568,61.457,83.45788,61.58561Z"/><path class="cls-1" d="M78.29528,64.35629c.27028-.17133.53865-.3454.81324-.51047C78.83388,64.01089,78.5656,64.18491,78.29528,64.35629Z"/><path class="cls-1" d="M85.27756,60.82557c.2914-.11344.5804-.23171.875-.33858C85.85787,60.5939,85.569,60.71213,85.27756,60.82557Z"/><path class="cls-1" d="M81.68775,62.42836c.28261-.14311.563-.28983.84929-.42645C82.25069,62.13853,81.97036,62.28525,81.68775,62.42836Z"/><path class="cls-1" d="M92.17488,138.51509c-.2028-.03963-.40574-.07883-.60742-.12147C91.76924,138.43621,91.972,138.47546,92.17488,138.51509Z"/><path class="cls-1" d="M139.37645,108.61075c-.06821.27-.144.53693-.21753.8048C139.23228,109.14754,139.30842,108.88093,139.37645,108.61075Z"/><path class="cls-1" d="M139.78946,106.81212c-.02831.13944-.06386.27625-.0937.41514C139.7256,107.08832,139.76106,106.95161,139.78946,106.81212Z"/><path class="cls-1" d="M60.845,109.4294c-.07512-.27338-.15251-.54583-.22212-.82143C60.69227,108.88371,60.77,109.15593,60.845,109.4294Z"/><path class="cls-1" d="M140.50862,95.97714c.0241.36819.04435.73746.05858,1.1083C140.553,96.71451,140.53272,96.34543,140.50862,95.97714Z"/><path class="cls-1" d="M140.35458,103.15924c.02015-.18315.04133-.36588.05908-.54972C140.396,102.79336,140.37469,102.97614,140.35458,103.15924Z"/><path class="cls-1" d="M62.91027,115.19679c-.12416-.27769-.25248-.55316-.37061-.834C62.65756,114.64382,62.78625,114.919,62.91027,115.19679Z"/><path class="cls-1" d="M134.77817,119.63861c-.15895.26267-.328.51844-.49258.77722C134.45016,120.157,134.61936,119.90142,134.77817,119.63861Z"/><path class="cls-1" d="M59.64584,103.16225c-.02034-.18528-.04189-.37023-.05974-.55635C59.604,102.792,59.62545,102.97693,59.64584,103.16225Z"/><path class="cls-1" d="M135.50627,78.96547c.167.30035.328.60436.48754.9093C135.8342,79.56979,135.67334,79.26587,135.50627,78.96547Z"/><path class="cls-1" d="M136.41039,80.6881c.15367.31054.30146.62452.44735.93952C136.7118,81.31253,136.56411,80.99874,136.41039,80.6881Z"/><path class="cls-1" d="M131.124,72.59586c.21586.25743.42529.5202.63485.783C131.5492,73.11606,131.33987,72.85334,131.124,72.59586Z"/><path class="cls-1" d="M59.4328,97.08544c.01423-.37084.03443-.74011.05858-1.1083C59.46728,96.34543,59.447,96.71451,59.4328,97.08544Z"/><path class="cls-1" d="M132.5745,122.91629c-.09968.13375-.20544.26258-.30679.395C132.369,123.17878,132.47482,123.05,132.5745,122.91629Z"/><path class="cls-1" d="M131.47533,124.31961c-.16688.20433-.33905.40412-.50973.60511C131.13628,124.72359,131.30854,124.524,131.47533,124.31961Z"/><path class="cls-1" d="M132.32907,74.10456c.20451.26879.40277.5425.6007.81648C132.73179,74.647,132.53367,74.3734,132.32907,74.10456Z"/><path class="cls-1" d="M67.74026,123.32142c-.1045-.13643-.21341-.26935-.3162-.40722C67.52685,123.05212,67.6358,123.18489,67.74026,123.32142Z"/><path class="cls-1" d="M133.46318,75.6712c.19242.27945.37863.5634.56414.84785C133.84171,76.23455,133.65565,75.9507,133.46318,75.6712Z"/><path class="cls-1" d="M134.52282,77.29192c.18014.29029.35411.58481.52711.87992C134.87693,77.87663,134.70305,77.58231,134.52282,77.29192Z"/><path class="cls-1" d="M137.23326,82.45827c.13954.32.27333.643.40476.96728C137.50655,83.10124,137.37285,82.77837,137.23326,82.45827Z"/><path class="cls-1" d="M139.66262,89.96678q.115.52658.21606,1.05825Q139.77733,90.49331,139.66262,89.96678Z"/><path class="cls-1" d="M137.46039,114.36274c-.11859.282-.24738.55863-.37209.83738C137.21282,114.92118,137.342,114.64493,137.46039,114.36274Z"/><path class="cls-1" d="M139.18978,88.03092q.13972.51594.2655,1.03749Q139.32883,88.547,139.18978,88.03092Z"/><path class="cls-1" d="M128.98516,127.09766q-.30912.31518-.62591.62267C128.56993,127.51466,128.779,127.30783,128.98516,127.09766Z"/><path class="cls-1" d="M65.71019,120.40925c-.16285-.25614-.33015-.50917-.48744-.76911C65.3799,119.90017,65.54743,120.15307,65.71019,120.40925Z"/><path class="cls-1" d="M140.04162,91.93762q.08961.53673.16521,1.078Q140.13141,92.47421,140.04162,91.93762Z"/><path class="cls-1" d="M60.30531,107.232c-.03022-.14051-.06609-.27889-.09477-.42C60.23927,106.95314,60.27514,107.09152,60.30531,107.232Z"/><path class="cls-1" d="M128.50987,69.761c.23482.23163.4632.46951.69237.70674C128.97307,70.23049,128.74473,69.9927,128.50987,69.761Z"/><path class="cls-1" d="M129.85081,71.148c.22542.24442.44448.49467.66392.74456C130.29524,71.64267,130.07627,71.39246,129.85081,71.148Z"/><path class="cls-1" d="M137.97248,84.27378c.12462.32862.24377.65992.36.99253C138.2162,84.93361,138.09719,84.60249,137.97248,84.27378Z"/><path class="cls-1" d="M138.62551,86.13214q.16377.505.3136,1.016Q138.78827,86.6374,138.62551,86.13214Z"/><path class="cls-1" d="M140.3245,93.94192q.06318.5448.11252,1.0938Q140.38823,94.48648,140.3245,93.94192Z"/><path class="cls-1" d="M69.45205,125.42045l.006-.00681c-.14246-.16257-.28473-.32529-.42459-.49013C69.17362,125.08859,69.30935,125.2576,69.45205,125.42045Z"/><path class="cls-1" d="M68.52481,124.3197c-.2675-.32783-.5272-.66206-.78455-.99828C67.9977,123.6576,68.25718,123.992,68.52481,124.3197Z"/><path class="cls-1" d="M63.22466,115.90445l.00519-.0007c-.10979-.23385-.21415-.47071-.31958-.707C63.0156,115.4324,63.1151,115.6712,63.22466,115.90445Z"/><path class="cls-1" d="M66.14151,121.08976l.00357-.00218c-.14844-.2237-.29081-.45157-.43489-.67833C65.85432,120.63587,65.99321,120.86611,66.14151,121.08976Z"/><path class="cls-1" d="M73.17254,129.14965l.0044-.00658c-.06882-.06066-.13963-.11915-.208-.18023C73.03763,129.0242,73.10339,129.08871,73.17254,129.14965Z"/><path class="cls-1" d="M76.51834,131.78784c-.20224-.14362-.4069-.284-.6064-.43122C76.11135,131.50394,76.31614,131.64413,76.51834,131.78784Z"/><path class="cls-1" d="M72.31073,128.35908q-.33819-.3156-.66942-.63824Q71.97233,128.04388,72.31073,128.35908Z"/><path class="cls-1" d="M74.55352,130.31218c.14487.11664.296.22555.44253.34025-.14672-.11484-.29432-.22847-.43938-.34531Z"/><path class="cls-1" d="M67.40993,122.896l.01413.01821-.01335-.01877Z"/><path class="cls-1" d="M64.34839,118.12226q.42071.76959.87436,1.51788-.45248-.74868-.87292-1.51816Z"/><path class="cls-1" d="M70.78066,126.86469c.07666.07944.15743.1547.23473.23348-.07758-.07906-.15233-.16072-.22926-.24043Z"/><path class="cls-1" d="M135.65151,118.12226l-.00134-.00024q-.42022.76849-.872,1.51659Q135.23065,118.89083,135.65151,118.12226Z"/><path class="cls-1" d="M130.54795,125.42045c.14242-.16248.27779-.331.41765-.49573-.13959.16442-.28144.32676-.42358.489Z"/><path class="cls-1" d="M129.21934,126.86469l-.00547-.00695c-.0767.07953-.15136.161-.22871.23992C129.06228,127.01906,129.14287,126.94394,129.21934,126.86469Z"/><path class="cls-1" d="M128.35925,127.72033q-.33138.32352-.67036.63917Q128.02765,128.04348,128.35925,127.72033Z"/><path class="cls-1" d="M132.26771,123.31127c-.2598.33965-.5222.67722-.79238,1.00834C131.7457,123.98863,132.00777,123.65088,132.26771,123.31127Z"/><path class="cls-1" d="M124.08667,131.35768c-.19723.14561-.39966.28432-.59963.42636C123.687,131.64191,123.88944,131.50329,124.08667,131.35768Z"/><path class="cls-1" d="M132.59026,122.896l-.00088-.00065-.01488.02095Z"/><path class="cls-1" d="M125.44639,130.31218l-.00311-.005c-.14311.11521-.28876.22731-.43345.34062C125.15428,130.53467,125.30346,130.42725,125.44639,130.31218Z"/><path class="cls-1" d="M126.82746,129.14965c.069-.06075.13459-.12508.20313-.1863-.06827.06094-.13885.11924-.20753.17972Z"/><path class="cls-1" d="M140.28793,103.77927c.02586-.20558.04394-.41352.06665-.62-.02294.20818-.05293.41408-.079.62133Z"/><path class="cls-1" d="M139.69576,107.22726c-.09955.4638-.2041.92571-.31931,1.38349C139.49208,108.15311,139.59612,107.691,139.69576,107.22726Z"/><path class="cls-1" d="M139.79262,106.79817l-.00065,0-.00251.01391Z"/><path class="cls-1" d="M133.85849,121.08976c.14691-.22148.28436-.44953.4271-.67393-.14269.22454-.28371.45023-.43067.67175Z"/><path class="cls-1" d="M122.47091,132.49453c.02466-.01641.04811-.03439.07272-.05084-.02415.01618-.04927.031-.07346.04709Z"/><path class="cls-1" d="M138.979,110.081c.06428-.22.1191-.444.17991-.66549q-.09156.33415-.18908.66581Z"/><path class="cls-1" d="M136.77534,115.90445c.109-.23218.20808-.46983.313-.70433-.105.23515-.20883.47085-.3181.70363Z"/><path class="cls-1" d="M138.11717,112.69976h-.00107q-.30955.84064-.65571,1.663Q137.80629,113.54011,138.11717,112.69976Z"/><path class="cls-1" d="M77.52909,132.49453l.00074-.00375c-.02438-.01627-.04968-.03119-.074-.04746C77.48061,132.45991,77.50425,132.478,77.52909,132.49453Z"/><path class="cls-1" d="M89.78616,137.98l.0222.00533-.02229-.00635Z"/><path class="cls-1" d="M86.62216,137.01792l-.00042-.00834c-.08587-.03-.173-.057-.25868-.08755C86.4499,136.953,86.535,136.98752,86.62216,137.01792Z"/><path class="cls-1" d="M92.74245,138.62858l-.00121-.01237c-.18866-.03407-.37858-.06447-.56636-.10112C92.36438,138.55211,92.552,138.59419,92.74245,138.62858Z"/><path class="cls-1" d="M85.61234,136.64421q-.46944-.178-.9328-.36779Q85.14334,136.46565,85.61234,136.64421Z"/><path class="cls-1" d="M91.56746,138.39362q-.74541-.15746-1.48067-.34174Q90.82191,138.23617,91.56746,138.39362Z"/><path class="cls-1" d="M79.25491,133.58128c.0742.04417.15266.0817.22713.12545-.07507-.04407-.15168-.08569-.22643-.13018Z"/><path class="cls-1" d="M83.80425,135.91453c.04917.02141.0996.04032.14886.06154-.05-.0215-.09857-.04537-.14844-.0671Z"/><path class="cls-1" d="M120.74518,133.5811l-.0007-.00459c-.07257.04324-.147.08365-.21985.12642C120.59693,133.66044,120.67312,133.624,120.74518,133.5811Z"/><path class="cls-1" d="M81.59956,134.87625l.00107-.01144c-.1001-.051-.2003-.10182-.29994-.15363C81.40182,134.76378,81.49788,134.82449,81.59956,134.87625Z"/><path class="cls-1" d="M116.19593,135.91453l-.00042-.00561c-.05023.02188-.09926.04593-.14955.06762C116.0956,135.95517,116.14639,135.93608,116.19593,135.91453Z"/><path class="cls-1" d="M115.32217,136.27578q-.46386.18915-.93289.36782Q114.85872,136.46564,115.32217,136.27578Z"/><path class="cls-1" d="M118.40053,134.87625c.10154-.05167.19752-.11233.2985-.16489-.0995.05172-.1996.10252-.29957.15345Z"/><path class="cls-1" d="M109.91011,138.05263q-.733.18385-1.47636.34071Q109.17708,138.2363,109.91011,138.05263Z"/><path class="cls-1" d="M107.25755,138.62858c.19006-.03434.37733-.07637.56646-.11331-.18742.03661-.377.067-.56525.101Z"/><path class="cls-1" d="M110.21384,137.98l.00009-.001-.02173.00621Z"/><path class="cls-1" d="M113.37784,137.01773c.08541-.02975.16883-.06367.254-.094-.08393.02989-.16939.05644-.25359.08583Z"/><path class="cls-1" d="M106.99182,58.6739c.3752.06516.75215.12527,1.12378.20067C107.744,58.79921,107.367,58.73906,106.99182,58.6739Z"/><path class="cls-1" d="M118.31327,62.42882c.29715.15048.59616.2979.889.45537C118.90938,62.72667,118.61047,62.5793,118.31327,62.42882Z"/><path class="cls-1" d="M120.03432,63.353c.28659.163.575.32316.85716.49287C120.60925,63.67611,120.321,63.5159,120.03432,63.353Z"/><path class="cls-1" d="M116.5436,61.58625c.30721.13727.61627.271.91936.41561C117.15983,61.85722,116.85081,61.72352,116.5436,61.58625Z"/><path class="cls-1" d="M121.70476,64.35629c.27575.17481.55311.3473.82436.5285C122.25787,64.70354,121.9806,64.53114,121.70476,64.35629Z"/><path class="cls-1" d="M124.88433,66.59133c.25211.19585.50556.39.7529.59162C125.38989,66.98127,125.13649,66.78723,124.88433,66.59133Z"/><path class="cls-1" d="M126.38632,67.81637c.24052.20591.48225.41042.71786.62184C126.86852,68.22679,126.62689,68.02232,126.38632,67.81637Z"/><path class="cls-1" d="M114.72356,60.826c.31861.12406.63912.24428.95379.37608C115.36272,61.07027,115.04217,60.9501,114.72356,60.826Z"/><path class="cls-1" d="M127.82616,69.10917c.22926.21591.4595.43076.68371.65186C128.28566,69.53988,128.05547,69.32513,127.82616,69.10917Z"/><path class="cls-1" d="M123.32154,65.436c.26444.18593.53031.36982.79007.56182C123.85185,65.80582,123.586,65.622,123.32154,65.436Z"/><path class="cls-1" d="M100.00005,58.06175q1.04236,0,2.072.05237Q101.0425,58.0624,100.00005,58.06175Z"/><path class="cls-1" d="M97.928,58.11412q1.02959-.05172,2.072-.05237Q98.95767,58.06175,97.928,58.11412Z"/><path class="cls-1" d="M95.883,58.26877c.45277-.04561.91064-.07341,1.36768-.104C96.79364,58.19536,96.33577,58.22316,95.883,58.26877Z"/><path class="cls-1" d="M102.75117,58.16486c.45648.03059.91371.05835,1.36593.10391C103.66488,58.22321,103.20765,58.19545,102.75117,58.16486Z"/><path class="cls-1" d="M108.99042,59.07292c.35847.081.71879.15728,1.07355.24779C109.70916,59.23025,109.34893,59.154,108.99042,59.07292Z"/><path class="cls-1" d="M104.92885,58.37012c.40165.04861.80479.09259,1.20274.15284C105.7336,58.46271,105.33055,58.41873,104.92885,58.37012Z"/><path class="cls-1" d="M110.9463,59.56675c.34373.096.68931.18751,1.02928.29229C111.63561,59.75426,111.29007,59.66282,110.9463,59.56675Z"/><path class="cls-1" d="M112.85717,60.15188c.33071.11039.66345.21652.99031.33511C113.52058,60.3684,113.188,60.26227,112.85717,60.15188Z"/><path class="cls-1" d="M139.87868,91.025q.08661.45448.16294.91259Q139.96515,91.47945,139.87868,91.025Z"/><path class="cls-1" d="M139.45528,89.06841q.10845.44733.20734.89837Q139.56406,89.51549,139.45528,89.06841Z"/><path class="cls-1" d="M129.20224,70.46777c.21767.22532.43609.45.64857.68027C129.63828,70.91767,129.42,70.69318,129.20224,70.46777Z"/><path class="cls-1" d="M140.20683,93.01566q.0643.46144.11767.92626Q140.27062,93.47715,140.20683,93.01566Z"/><path class="cls-1" d="M138.93911,87.14813q.12985.43954.25067.88279Q139.06966,87.58721,138.93911,87.14813Z"/><path class="cls-1" d="M140.58972,97.51138c-.004-.14288-.01705-.28344-.02252-.42594.00547.14181.00681.28468.0108.42687Z"/><path class="cls-1" d="M140.54593,100.89426l-.00186.00009c-.03109.57512-.07568,1.14663-.13041,1.71517C140.46826,102.04075,140.51483,101.46966,140.54593,100.89426Z"/><path class="cls-1" d="M140.437,95.03572c.02771.31277.051.62665.0716.94142C140.488,95.66233,140.46478,95.34854,140.437,95.03572Z"/><path class="cls-1" d="M138.33252,85.26631c.10048.28733.19886.57563.293.86583C138.53138,85.84185,138.433,85.55373,138.33252,85.26631Z"/><path class="cls-1" d="M93.86831,58.523c.39837-.06039.802-.10437,1.20405-.153C94.67024,58.41864,94.26673,58.46267,93.86831,58.523Z"/><path class="cls-1" d="M134.02732,76.519c.16711.25623.334.51265.4955.77287C134.36132,77.03161,134.19448,76.77533,134.02732,76.519Z"/><path class="cls-1" d="M132.92977,74.921c.17967.24868.3593.49731.53341.75016C133.28907,75.4183,133.10944,75.16976,132.92977,74.921Z"/><path class="cls-1" d="M137.638,83.42555c.1141.28145.22657.56372.33446.84823C137.86455,83.98918,137.75217,83.707,137.638,83.42555Z"/><path class="cls-1" d="M130.51473,71.8926c.20465.233.4099.46556.60923.70326C130.92459,72.35811,130.71938,72.1257,130.51473,71.8926Z"/><path class="cls-1" d="M131.75881,73.37887c.19177.24052.38386.48077.57026.72569C132.14263,73.85959,131.95063,73.61944,131.75881,73.37887Z"/><path class="cls-1" d="M136.85774,81.62762c.12758.27555.254.55181.37552.83065C137.11165,82.17933,136.98537,81.90327,136.85774,81.62762Z"/><path class="cls-1" d="M135.04993,78.17184c.15428.26314.30791.52669.45634.79363C135.35784,78.69849,135.20416,78.43507,135.04993,78.17184Z"/><path class="cls-1" d="M135.99381,79.87477c.14111.26977.28135.54.41658.81333C136.27516,80.41477,136.135,80.14458,135.99381,79.87477Z"/><path class="cls-1" d="M86.15256,60.487c.327-.11859.65975-.22481.99059-.3352C86.81231,60.26218,86.47961,60.36835,86.15256,60.487Z"/><path class="cls-1" d="M65.47736,77.29173c.16119-.2597.3277-.51566.49453-.77138C65.80506,76.77616,65.63855,77.03193,65.47736,77.29173Z"/><path class="cls-1" d="M61.37468,86.13177c.094-.28983.19219-.57771.29252-.86463C61.56687,85.55415,61.46871,85.84189,61.37468,86.13177Z"/><path class="cls-1" d="M62.02752,84.27382c.108-.28482.22059-.56733.33478-.84905C62.24807,83.70653,62.13559,83.989,62.02752,84.27382Z"/><path class="cls-1" d="M60.33738,89.96678q.0985-.45094.20724-.89791Q60.43618,89.51614,60.33738,89.96678Z"/><path class="cls-1" d="M63.5898,80.68782c.135-.27273.27486-.54245.41574-.8117C63.86466,80.14537,63.72475,80.415,63.5898,80.68782Z"/><path class="cls-1" d="M64.49428,78.96454c.14816-.26638.30156-.52938.45546-.79205C64.79579,78.43521,64.64244,78.69812,64.49428,78.96454Z"/><path class="cls-1" d="M62.76665,82.45851c.12165-.27894.248-.55524.37566-.83089C63.01463,81.90331,62.88825,82.17952,62.76665,82.45851Z"/><path class="cls-1" d="M59.95838,91.93762q.07647-.458.16294-.91259Q60.03471,91.47965,59.95838,91.93762Z"/><path class="cls-1" d="M60.8105,88.03q.12-.44288.2503-.8814Q60.93116,87.58756,60.8105,88.03Z"/><path class="cls-1" d="M59.6755,93.94192q.05394-.46464.11767-.92626Q59.72887,93.47717,59.6755,93.94192Z"/><path class="cls-1" d="M60.6229,108.608c-.11456-.45528-.21856-.91468-.31759-1.37594C60.40448,107.69324,60.508,108.15283,60.6229,108.608Z"/><path class="cls-1" d="M61.02127,110.081l.00889.00032q-.095-.325-.18514-.652C60.90467,109.64629,60.95824,109.86559,61.02127,110.081Z"/><path class="cls-1" d="M59.71207,103.77927l.01232.0013c-.026-.20623-.05575-.41116-.07855-.61832C59.66846,103.36779,59.68639,103.57471,59.71207,103.77927Z"/><path class="cls-1" d="M60.20738,106.79817l.00316.0139-.00251-.01386Z"/><path class="cls-1" d="M59.45417,100.89426c.031.57415.07748,1.14408.13193,1.71164-.05459-.56733-.09912-1.13763-.13017-1.71155Z"/><path class="cls-1" d="M59.49138,95.97714c.02062-.31477.04389-.62865.0716-.94142C59.53522,95.34854,59.512,95.66233,59.49138,95.97714Z"/><path class="cls-1" d="M59.41028,97.51138l.01172.00093c.004-.14219.00533-.28506.0108-.42687C59.42733,97.22794,59.41426,97.3685,59.41028,97.51138Z"/><path class="cls-1" d="M66.53742,75.67041c.17379-.25238.35309-.50055.53239-.74872C66.89051,75.17,66.71125,75.418,66.53742,75.67041Z"/><path class="cls-1" d="M80.79731,62.88442c.29336-.15775.59283-.30535.89044-.45606C81.39009,62.57907,81.09071,62.72662,80.79731,62.88442Z"/><path class="cls-1" d="M82.537,62.00191c.3036-.14487.61312-.27885.92084-.4163C83.15016,61.72306,82.84064,61.857,82.537,62.00191Z"/><path class="cls-1" d="M77.47093,64.88479c.2712-.1812.54856-.35369.82435-.5285C78.01945,64.53114,77.74217,64.70354,77.47093,64.88479Z"/><path class="cls-1" d="M79.10852,63.84582c.28264-.16994.5715-.33043.8586-.49365C79.68,63.51539,79.39121,63.67583,79.10852,63.84582Z"/><path class="cls-1" d="M84.32237,61.20221c.31509-.132.63606-.25239.95519-.37664C84.95848,60.94982,84.63746,61.07022,84.32237,61.20221Z"/><path class="cls-1" d="M89.93585,59.32076c.35573-.09074.717-.16721,1.07642-.24845C90.65283,59.15355,90.29158,59.23007,89.93585,59.32076Z"/><path class="cls-1" d="M61.88283,112.69976q.30963.84078.65683,1.663-.34515-.82271-.65576-1.663Z"/><path class="cls-1" d="M88.02446,59.859c.3404-.10492.68644-.1965,1.03059-.29266C88.71086,59.6625,88.3649,59.75412,88.02446,59.859Z"/><path class="cls-1" d="M71.49078,69.76043c.22366-.22055.45324-.43484.68194-.6502C71.944,69.32564,71.71444,69.53984,71.49078,69.76043Z"/><path class="cls-1" d="M68.87609,72.59586c.19937-.2377.40458-.47025.60923-.70326C69.28067,72.1257,69.07546,72.35811,68.87609,72.59586Z"/><path class="cls-1" d="M67.671,74.10456c.18639-.24492.37844-.48517.57025-.72569C68.04942,73.61944,67.85742,73.85959,67.671,74.10456Z"/><path class="cls-1" d="M70.14924,71.148c.21225-.23014.43052-.45444.648-.67962C70.57972,70.6936,70.36153,70.9179,70.14924,71.148Z"/><path class="cls-1" d="M74.36282,67.183c.24729-.20159.50078-.39577.75289-.59162C74.86356,66.78723,74.61015,66.98127,74.36282,67.183Z"/><path class="cls-1" d="M75.88844,65.99786c.25976-.192.52563-.37589.79006-.56182C76.414,65.622,76.1482,65.80582,75.88844,65.99786Z"/><path class="cls-1" d="M72.89591,68.43812c.23561-.21138.47734-.41589.71781-.62175C73.3732,68.02228,73.13152,68.22674,72.89591,68.43812Z"/><path class="cls-1" d="M91.88431,58.87461c.37251-.07554.75039-.13592,1.12656-.20117C92.6347,58.73873,92.25686,58.799,91.88431,58.87461Z"/><path class="cls-1" d="M140.54407,100.89435c-5.34176.59843-7.34528-3.7945-12.208-3.25724a28.7299,28.7299,0,0,0-1.59236-3.36967c6.09475-1.07095,8.16649,4.01977,13.83428,3.24487-.004-.14219-.00533-.28506-.0108-.42687-.01423-.37084-.03448-.74011-.05858-1.1083-.02062-.31477-.04389-.62865-.0716-.94142q-.04866-.5491-.11252-1.0938-.05394-.46464-.11767-.92626-.07542-.54138-.16521-1.078-.07647-.458-.16294-.91259-.1013-.53158-.21606-1.05825-.09851-.45115-.20734-.89837-.12637-.52122-.2655-1.03749-.12012-.44356-.25067-.88279-.15084-.51059-.3136-1.016c-.09413-.2902-.19251-.5785-.293-.86583-.11627-.33261-.23542-.66391-.36-.99253-.10789-.28451-.22036-.56678-.33446-.84823-.13143-.32426-.26522-.64727-.40476-.96728-.12156-.27884-.24794-.5551-.37552-.83065-.14589-.315-.29368-.629-.44735-.93952-.13523-.27329-.27547-.54356-.41658-.81333-.15956-.30494-.32051-.60895-.48754-.9093-.14843-.26694-.30206-.53049-.45634-.79363-.173-.29511-.347-.58963-.52711-.87992-.16146-.26022-.32839-.51664-.4955-.77287-.18551-.28445-.37172-.5684-.56414-.84785-.17411-.25285-.35374-.50148-.53341-.75016-.19793-.274-.39619-.54769-.6007-.81648-.1864-.24492-.37849-.48517-.57026-.72569-.20956-.26281-.419-.52558-.63485-.783-.19933-.2377-.40458-.47025-.60923-.70326-.21944-.24989-.4385-.50014-.66392-.74456-.21248-.23032-.4309-.45495-.64857-.68027-.22917-.23723-.45755-.47511-.69237-.70674-.22421-.2211-.45445-.436-.68371-.65186-.23917-.22528-.47738-.45148-.722-.671-.23561-.21142-.47734-.41593-.71786-.62184-.2484-.21267-.49555-.42672-.74909-.63342-.24734-.20159-.50079-.39577-.7529-.59162-.25641-.19927-.51139-.40026-.77272-.59347-.25976-.192-.52563-.37589-.79007-.56182-.26318-.18509-.52469-.37237-.79242-.55125-.27125-.1812-.54861-.35369-.82436-.5285-.27027-.17133-.53869-.3454-.81328-.51047-.28218-.16971-.57057-.32988-.85716-.49287-.27667-.15733-.5513-.31777-.832-.46876-.29289-.15747-.5919-.30489-.889-.45537-.28288-.14325-.56368-.2902-.85031-.427-.30309-.14464-.61215-.27834-.91936-.41561-.28835-.12888-.57438-.26188-.86625-.38418-.31467-.1318-.63518-.252-.95379-.37608-.29178-.11359-.5811-.232-.87608-.339-.32686-.11859-.6596-.22472-.99031-.33511-.29368-.098-.5849-.20141-.88159-.29284-.34-.10478-.68555-.19627-1.02928-.29229-.294-.08212-.58564-.17036-.88233-.246-.35476-.09051-.71508-.16674-1.07355-.24779-.29168-.066-.58082-.13871-.87482-.19835-.37163-.0754-.74858-.13551-1.12378-.20067-.287-.04982-.57127-.10715-.86023-.15094-.398-.06025-.80109-.10423-1.20274-.15284-.27093-.03281-.53921-.07392-.81175-.10135-.45222-.04556-.90945-.07332-1.36593-.10391-.22685-.01515-.45129-.03925-.67916-.05074q-1.02951-.05172-2.072-.05237-1.04238,0-2.072.05237c-.22732.01145-.45106.0355-.67736.05065-.457.03059-.91491.05839-1.36768.104-.27213.02738-.54013.06845-.81064.10121-.40208.04866-.80568.09264-1.20405.153-.288.0436-.57141.10075-.85744.15043-.37617.06525-.754.12563-1.12656.20117-.29308.05946-.58129.132-.872.1977-.35944.08124-.72069.15771-1.07642.24845-.29623.07554-.58726.16359-.8808.24562-.34415.09616-.69019.18774-1.03059.29266-.29655.09143-.58768.19478-.88131.29275-.33084.11039-.66363.21661-.99059.3352-.2946.10687-.5836.22514-.875.33858-.31913.12425-.6401.2446-.95519.37664-.29127.12207-.57674.25479-.86449.3834-.30772.13745-.61724.27143-.92084.4163-.28631.13662-.56668.28334-.84929.42645-.29761.15071-.59708.29831-.89044.45606-.2801.15062-.55408.31078-.83019.46775-.2871.16322-.576.32371-.8586.49365-.27459.16507-.543.33914-.81324.51047-.27579.17481-.55315.3473-.82435.5285-.26773.17888-.52924.36616-.79243.55125-.26443.18593-.5303.36982-.79006.56182-.26128.19321-.51631.3942-.77273.59347-.25211.19585-.5056.39-.75289.59162-.25355.2067-.5007.42075-.7491.63342-.24047.20586-.4822.41037-.71781.62175-.245.21985-.48359.44647-.72319.67211-.2287.21536-.45828.42965-.68194.6502-.23524.232-.464.47034-.69357.708-.21745.22518-.43572.44948-.648.67962-.22542.24442-.44448.49467-.66392.74456-.20465.233-.40986.46556-.60923.70326-.21587.25743-.42534.5202-.63486.783-.19181.24052-.38386.48077-.57025.72569-.2047.269-.403.54292-.60117.81713-.1793.24817-.3586.49634-.53239.74872-.19288.28015-.37955.56479-.56553.84994-.16683.25572-.33334.51168-.49453.77138-.18032.29058-.35448.58532-.52762.88076-.1539.26267-.3073.52567-.45546.79205-.16744.30105-.3288.60585-.48874.91158-.14088.26925-.28079.539-.41574.8117-.15372.31069-.30156.62471-.44749.9398-.12763.27565-.254.552-.37566.83089-.1394.31967-.273.64236-.40435.96626-.11419.28172-.22676.56423-.33478.84905-.12476.3289-.244.66044-.36032.99332-.10033.28692-.19854.5748-.29252.86463q-.16392.50538-.31388,1.01687-.12964.43884-.2503.8814-.13987.51657-.26588,1.03883-.10844.44719-.20724.89791-.115.52658-.21606,1.05825-.08661.45448-.16294.91259-.08961.53673-.16521,1.078-.06431.46144-.11767.92626-.06318.5448-.11252,1.0938c-.02771.31277-.051.62665-.0716.94142-.02415.36819-.04435.73746-.05858,1.1083-.00547.14181-.00681.28468-.0108.42687,5.66789.7749,7.73943-4.31582,13.83419-3.24487a28.75885,28.75885,0,0,0-1.59236,3.36967c-4.86258-.53726-6.86614,3.856-12.2079,3.25724.03105.57392.07558,1.14422.13017,1.71155.01785.18612.0394.37107.05974.55635.0228.20716.0526.41209.07855.61832,4.58535.75178,6.23128-3.3357,10.93509-3.13054a29.377,29.377,0,0,0-.685,3.05565c-3.88371-.0038-5.44918,3.62683-9.76644,3.09253l.00251.01386c.02868.14107.06455.27945.09477.42.099.46126.203.92066.31759,1.37594.06961.2756.147.54805.22212.82143q.08975.32721.18514.652c3.40967.33071,4.61436-3.05838,8.56411-2.96588-.032.56465-.04958,1.13272-.04958,1.7053,0,.31768.00644.63448.01626.95-3.37055-.04106-4.46648,3.07548-7.67705,2.929q.30956.84064.65576,1.663c.11813.28089.24645.55636.37061.834.10543.23625.20979.47311.31958.707,2.3035-.13152,3.10111-3.08568,6.60916-2.851q.15836,1.13893.40036,2.24983c-3.05008-.214-3.70658,2.59249-5.88954,2.81944q.42063.76925.87292,1.51816c.15729.25994.32459.513.48744.76911.14408.22676.28645.45463.43489.67833,1.29307-.69376,2.41574-2.78255,4.866-2.91268-.24983-.77486-.47145-1.56293-.65923-2.364a10.17233,10.17233,0,0,0,6.75347-2.74955c-.6761-3.8529,5.30275-7.77419,5.30275-10.59678,0-3.06362-1.54954-4.7589-1.54954-8.8899a12.93231,12.93231,0,0,1,3.73379-8.6644,7.5349,7.5349,0,0,1,1.39239-1.11984,14.49578,14.49578,0,0,0-3.64783,9.08492c0,3.8901,1.81031,5.94344,1.81031,9.53384,0,3.58971-5.25148,6.698-5.25148,10.39783,0,1.45759.46468,2.87829,1.99911,5.67214-2.3573,2.35568-5.42847,3.64-7.40993,3.64a1.14007,1.14007,0,0,1-1.21846-.70052q-.29745-.6526-.56353-1.32139c-2.13388.08217-3.11113,2.0227-4.29219,2.79816l.01335.01877c.10279.13787.2117.27079.3162.40722.25735.33622.517.67045.78455.99828.16656.20387.3383.40319.50862.60381.13986.16484.28213.32756.42459.49013.79155-.87867,1.85323-2.34891,3.408-2.757q.41889.81494.88511,1.60052c-1.3384.3631-2.25479,1.71215-2.96505,2.60055.07693.07971.15168.16137.22926.24043q.30913.31518.62592.62267.331.323.66942.63824c.21773.203.436.40541.65817.60376.06841.06108.13922.11957.208.18023a7.85056,7.85056,0,0,1,2.22642-2.37444q.50017.67707,1.04018,1.32231a7.04107,7.04107,0,0,0-1.88687,2.21618c.14506.11684.29266.23047.43938.34531.30314.23742.60594.4753.91589.70419.1995.14723.40416.2876.6064.43122.31078.22087.6203.44332.93748.65548.02433.01627.04963.03119.074.04746.50922-4.122,6.13447-6.94752,4.61751-11.73279a6.24217,6.24217,0,0,1,1.09139,3.16724c0,3.46356-3.68564,6.21135-3.98312,9.65132.07475.04449.15136.08611.22643.13018q.89458.5254,1.81865,1.00445c.09964.05181.19984.1026.29994.15363.13949-3.78,4.03952-7.91368,4.03952-11.01758,0-3.46611-4.54082-6.9483-4.54082-11.04074,0-4.093,5.23851-6.92879,5.23851-10.52226,0-3.59313-2.22865-5.65972-2.22865-10.26458a12.29176,12.29176,0,0,1,4.077-8.968,6.72183,6.72183,0,0,1,1.38807-.96371c-2.3338,2.80127-3.68606,5.34218-3.68606,9.19647,0,4.3293,2.55009,6.73257,2.55009,10.9728,0,4.23972-5.138,6.59809-5.138,10.54923,0,3.95132,4.78324,7.28485,4.78324,11.34452,0,3.69046-4.21229,7.379-4.27879,11.758.04987.02173.09848.0456.14844.0671.24034.10358.48368.20137.72643.30035q.46374.18915.9328.36779c.24933.09454.49907.1881.75072.27782.08564.03054.17281.05756.25868.08755-.52993-4.426,4.21053-8.9882,4.21053-12.59876,0-3.95026-4.96263-7.34454-4.96263-11.60433,0-4.25923,5.04493-6.24152,5.04493-10.61235,0-4.37106-3.09638-6.79185-3.09638-11.62078a11.77006,11.77006,0,0,1,4.5739-9.24776q.08592-.066.17161-.12963c.25619-.18894.46594.03944.28566.26453a12.409,12.409,0,0,0-2.9498,8.41989c0,4.41777,3.55611,8.00711,3.55611,12.28771,0,5.05036-4.77628,6.49529-4.77628,10.63839s5.1214,7.45687,5.1214,11.85741c0,4.07858-4.84487,8.60642-4.01472,13.31509l.02229.00635c.09213.02377.186.04337.27843.06654q.73512.1845,1.48067.34174c.20168.04264.40462.08184.60742.12147.18778.03665.3777.06705.56636.10112-.89975-5.856,3.84534-10.06415,3.84534-13.896,0-4.15524-5.30265-7.85506-5.30265-11.91367,0-3.826,3.80775-5.07733,4.30664-8.99334a.91762.91762,0,0,1,1.08865-.832,12.91042,12.91042,0,0,0,3.32083.65145,12.91383,12.91383,0,0,0,3.32082-.65145.91762.91762,0,0,1,1.08856.832c.499,3.916,4.30645,5.16737,4.30645,8.99334,0,4.05861-5.30274,7.75843-5.30274,11.91367,0,3.8319,4.74565,8.0401,3.84562,13.89609.18829-.034.37783-.06437.56525-.101.20358-.03976.40731-.07915.60974-.12193q.74325-.157,1.47636-.34071c.09366-.02345.18866-.04334.28209-.06743l.02173-.00621c.83052-4.70867-4.01472-9.23651-4.01472-13.31509,0-4.40054,5.12131-7.71432,5.12131-11.85741s-4.7761-5.588-4.7761-10.63839c0-4.2806,3.5562-7.86994,3.5562-12.28771a12.40916,12.40916,0,0,0-2.95-8.41989c-.18037-.22509.02947-.45347.28566-.26453.05733.04227.11414.0856.17152.12963a11.76987,11.76987,0,0,1,4.574,9.24776c0,4.82893-3.09629,7.24972-3.09629,11.62078,0,4.37083,5.04456,6.35312,5.04456,10.61235,0,4.25979-4.96244,7.65407-4.96244,11.60433,0,3.6106,4.7406,8.173,4.21062,12.59876.0842-.02939.16966-.05594.25359-.08583.25391-.09046.50588-.18477.75743-.28015q.46944-.178.93289-.36782c.24182-.09867.48434-.196.72379-.29924.05029-.02169.09932-.04574.14955-.06762-.06659-4.37879-4.27888-8.06745-4.27888-11.75791,0-4.05967,4.78315-7.3932,4.78315-11.34452,0-3.95114-5.138-6.30951-5.138-10.54923,0-4.24023,2.55-6.6435,2.55-10.9728,0-3.85429-1.35216-6.3952-3.68629-9.19647a6.71744,6.71744,0,0,1,1.3883.96371,12.29166,12.29166,0,0,1,4.07687,8.968c0,4.60486-2.22846,6.67145-2.22846,10.26458,0,3.59347,5.23833,6.42926,5.23833,10.52226,0,4.09244-4.54059,7.57463-4.54059,11.04074,0,3.1039,3.89975,7.23758,4.03947,11.01758.1-.05093.20007-.10173.29957-.15345q.92663-.48209,1.8256-1.00843c.07285-.04277.14728-.08318.21985-.12642-.29766-3.44-3.98321-6.18767-3.98321-9.65128a6.24138,6.24138,0,0,1,1.09148-3.16724c-1.51723,4.78527,4.1082,7.61069,4.61742,11.73279.02419-.01613.04931-.03091.07346-.04709.31921-.21355.63073-.43739.94341-.65965.2-.142.4024-.28075.59963-.42636.31245-.23074.61767-.47043.92316-.70984.14469-.11331.29034-.22541.43345-.34062a7.03968,7.03968,0,0,0-1.88673-2.21628q.53868-.64558,1.04027-1.32231a7.85734,7.85734,0,0,1,2.22624,2.37444c.06868-.06048.13926-.11878.20753-.17972.22217-.19835.44058-.40077.6583-.60385q.33861-.316.67036-.63917.31595-.30837.62591-.62267c.07735-.07887.152-.16039.22871-.23992-.71026-.8884-1.62661-2.23745-2.96514-2.60055q.46623-.78475.885-1.60052c1.55468.40806,2.61682,1.87825,3.40827,2.757.14214-.1622.284-.32454.42358-.489.17068-.201.34285-.40078.50973-.60511.27018-.33112.53258-.66869.79238-1.00834.10135-.1324.20711-.26123.30679-.395l.01488-.02095c-1.18115-.7756-2.15849-2.7159-4.292-2.79807q-.26728.66839-.56372,1.32139a1.13992,1.13992,0,0,1-1.21846.70052c-1.98136,0-5.05253-1.28431-7.41-3.64,1.53452-2.79385,1.99911-4.21455,1.99911-5.67214,0-3.69987-5.25139-6.80812-5.25139-10.39783,0-3.5904,1.81022-5.64374,1.81022-9.53384a14.49619,14.49619,0,0,0-3.64774-9.08492,7.5444,7.5444,0,0,1,1.39248,1.11984,12.93263,12.93263,0,0,1,3.7337,8.6644c0,4.131-1.54954,5.82628-1.54954,8.8899,0,2.82259,5.97867,6.74388,5.30275,10.59678a10.1725,10.1725,0,0,0,6.75347,2.74955q-.28222,1.20156-.6596,2.364c2.4504.13013,3.5734,2.21892,4.86628,2.91268.147-.22152.288-.44721.43067-.67175.16461-.25878.33363-.51455.49258-.77722q.45192-.74792.872-1.51659c-2.18286-.22685-2.83932-3.03326-5.88922-2.81948q.24045-1.1107.39967-2.24983c3.508-.235,4.30594,2.71961,6.60958,2.851.10927-.23278.21313-.46848.3181-.70363.12471-.27875.2535-.55538.37209-.83738q.34514-.82271.65571-1.663c-3.21039.14631-4.3065-2.97005-7.677-2.929.00973-.31551.01626-.63231.01626-.95,0-.57258-.01751-1.14065-.04958-1.7053,3.9497-.0925,5.15453,3.29636,8.56411,2.96588q.097-.33186.18908-.66581c.0735-.26787.14932-.53481.21753-.8048.11521-.45778.21976-.91969.31931-1.38349.02984-.13889.06539-.2757.0937-.41514l.00251-.01391c-4.31716.5343-5.88283-3.09633-9.76649-3.09253a29.3183,29.3183,0,0,0-.68514-3.05565c4.70394-.20516,6.35,3.88232,10.93527,3.13054.026-.20725.056-.41315.079-.62133.02011-.1831.04143-.36588.05908-.54972C140.46839,102.041,140.513,101.46947,140.54407,100.89435ZM74.70641,91.85629c-5.83926-2.02433-9.67269,3.77285-14.17555,2.41981,4.36832-4.638,7.92137-9.91538,7.45155-15.99271a.36523.36523,0,0,1,.59857-.34591,10.59679,10.59679,0,0,1,4.26284,6.97282,10.56855,10.56855,0,0,1,9.70054-1.04555A30.62262,30.62262,0,0,0,74.70641,91.85629Zm33.04776-6.78073c.06349.21123-.023.34864-.26648.23848a5.54441,5.54441,0,0,0-2.28857-.45166,4.70233,4.70233,0,0,0-3.69333,1.5469,7.453,7.453,0,0,0,.12735,4.85771c.887-.08838.81231-1.661,1.557-1.661.61854,0,.90782.4354,1.95638.4354a2.561,2.561,0,0,0,1.77838-.57637c.84776.10969,1.04152.91574,1.04152,1.8585,0,4.1995-3.85979,9.97963-7.96632,9.97963s-7.96633-5.78013-7.96633-9.97963c0-.94276.14978-1.77759.96028-1.77759.68769,0,.81087.49546,1.85962.49546,1.04856,0,1.52743-.4354,2.14579-.4354s.84669.49,1.47881.63268a6.59241,6.59241,0,0,0,.0159-3.82939,4.70235,4.70235,0,0,0-3.69333-1.5469,5.56373,5.56373,0,0,0-2.28839.45166c-.244.1091-.33-.02725-.26666-.23848.82723-2.75455,3.98446-4.88681,7.75431-4.88681S106.927,82.321,107.75417,85.07556Zm-.08032,2.06307a1.2599,1.2599,0,0,1-.49156.9961c-.69649-.78074-2.1431-.75957-3.78236-.19807a1.02742,1.02742,0,0,1-.03017-.7027,3.561,3.561,0,0,1,2.6317-1.01942C107.12024,86.21454,107.67385,86.59229,107.67385,87.13863Zm-15.34784,0c0-.54634.55357-.92409,1.67271-.92409,1.54092,0,3.08137.93966,3.00579,1.80123-1.72982-.63935-3.39614-.67328-4.1868.119A1.26036,1.26036,0,0,1,92.326,87.13863Zm21.92892-5.84909a.49264.49264,0,0,1-.72365.24127,30.50388,30.50388,0,0,0-27.06242,0,.49278.49278,0,0,1-.72384-.24127,35.99163,35.99163,0,0,0-4.54077-7.37276,13.40234,13.40234,0,0,1,7.65282,2.93775,30.19307,30.19307,0,0,0-3.44317-6.85534,14.77158,14.77158,0,0,1,9.26839,4.1564l1.809-4.74445L92.475,65.863l5.378-.37937,2.14709-5.00207,2.14708,5.00207,5.378.37937-4.01644,3.54818,1.80911,4.74445a14.77128,14.77128,0,0,1,9.2682-4.1564,30.2,30.2,0,0,0-3.44317,6.85534,13.404,13.404,0,0,1,7.65318-2.93775A35.96733,35.96733,0,0,0,114.25493,81.28954Zm3.20071,2.57521a10.56858,10.56858,0,0,1,9.70054,1.04555,10.59679,10.59679,0,0,1,4.26284-6.97282.36529.36529,0,0,1,.59867.34591c-.46965,6.07733,3.08331,11.35467,7.45145,15.99271-4.50277,1.353-8.3361-4.44414-14.17545-2.41981A30.62316,30.62316,0,0,0,117.45564,83.86475Z"/><path class="cls-1" d="M100.00005,72.13743s-4.06983,3.09777-4.20974,3.20149c-.15585.11525-.07818.31587.12615.27926a23.89476,23.89476,0,0,1,8.167,0c.20424.03661.282-.164.12624-.27926C104.0695,75.2352,100.00005,72.13743,100.00005,72.13743Z"/><path class="cls-1" d="M97.05335,95.726a.46454.46454,0,0,0-.271.267c.85174.65524,1.4397,2.14523,3.21771,2.14523,1.77782,0,2.366-1.49,3.21771-2.14523a.465.465,0,0,0-.271-.267,16.68311,16.68311,0,0,1-5.89344,0Z"/><path class="cls-1" d="M100.00005,93.21674c-.49356,0-.60279-.18722-.93929-.1856a1.67667,1.67667,0,0,0-1.07934.49091.52315.52315,0,0,0,.13931.32042c.72.10872,1.045.50959,1.87932.50959.83455,0,1.15927-.40087,1.87913-.50959a.52212.52212,0,0,0,.1393-.32042,1.6758,1.6758,0,0,0-1.07947-.49091C100.603,93.02952,100.4936,93.21674,100.00005,93.21674Z"/><path class="cls-1" d="M123.6466,134.60181a1.99974,1.99974,0,1,0,2.03586,1.98743A2.00991,2.00991,0,0,0,123.6466,134.60181Zm.01209,3.57488a1.58918,1.58918,0,1,1,1.51487-1.57558A1.52209,1.52209,0,0,1,123.65869,138.17669Z"/><path class="cls-1" d="M124.10688,136.64949v-.024a.50968.50968,0,0,0,.41236-.46075.55165.55165,0,0,0-.19408-.43627,1.2373,1.2373,0,0,0-.69089-.1452,4.03589,4.03589,0,0,0-.76323.0602V137.631h.46024v-.79951h.21832c.25429,0,.37552.097.41208.31509a1.69021,1.69021,0,0,0,.15753.48442h.49656a1.5219,1.5219,0,0,1-.14519-.49652A.58671.58671,0,0,0,124.10688,136.64949Zm-.54518-.14547h-.21805v-.56933a1.09931,1.09931,0,0,1,.25433-.02447c.29085,0,.42418.12123.42418.30295C124.02216,136.41912,123.81626,136.504,123.5617,136.504Z"/></svg>