<svg id="Layer_1" data-name="Layer 1" xmlns="http://www.w3.org/2000/svg" width="200" height="200" viewBox="0 0 200 200">
  <defs>
    <style>
      .cls-1 {
        fill: #021d49;
      }
    </style>
  </defs>
  <g>
    <g>
      <path class="cls-1" d="M134.817,97.7218v.0274c0,1.5468.9258,2.3476,3.3076,2.8652,2.0645.4375,2.459.9551,2.459,1.7656,0,.9527-.8574,1.5991-2.083,1.5991a4.51889,4.51889,0,0,1-3.2705-1.3491l-.0547-.0527-.7783.916.0576.0488a5.71006,5.71006,0,0,0,4.0039,1.5684c1.9883,0,3.3789-1.1563,3.3789-2.8125,0-1.5059-.9609-2.3477-3.2109-2.8369-2.1709-.4658-2.5674-.9756-2.5674-1.8076,0-.9053.8134-1.5157,1.9834-1.5157a4.17579,4.17579,0,0,1,2.7461,1.0332l.0615.0489.7256-.9629-.0576-.04541a5.10982,5.10982,0,0,0-3.4463-1.20459C136.18807,95.007,134.817,96.14759,134.817,97.7218Z"/>
      <path class="cls-1" d="M144.33457,95.1437h-.0752v9.8262h1.2422v-3.4141h2.2744c1.9297,0,3.8789-1.0024,3.8789-3.2397,0-1.938-1.4541-3.1724-3.6963-3.1724Zm3.538,1.1597c1.6036,0,2.5245.7397,2.5245,2.0258,0,1.2569-1.0342,2.0826-2.5791,2.0826h-2.3164V96.3034Z"/>
      <path class="cls-1" d="M160.90977,95.1437h-7.0664v9.8262h7.2119v-1.1426h-5.9727V100.589h5.2813V99.4445h-5.2813V96.2902h5.9053V95.1437Z"/>
      <path class="cls-1" d="M171.68026,95.1437h-1.3125s-3.12889,4.6055-3.24909,4.7832c-.1181-.1777-3.2255-4.7832-3.2255-4.7832h-1.5049s4.0625,5.9082,4.0879,5.9473v3.8789H167.734v-3.8926c.0254-.0405,4.0879-5.9336,4.0879-5.9336Z"/>
      <path class="cls-1" d="M180.76326,95.1437H173.693v9.8262h7.2129v-1.1426h-5.9717V100.589h5.2842V99.4445h-5.2842V96.2902h5.9043V95.1437Z"/>
      <path class="cls-1" d="M183.37657,95.1437h-.07521v9.8262h1.24121v-3.75831h2.65429c.0449.06,2.80471,3.75831,2.80471,3.75831h1.52929s-2.86429-3.8106-2.9961-3.9825a2.85351,2.85351,0,0,0,2.5752-2.8652,2.76753,2.76753,0,0,0-.7676-1.9883,3.90881,3.90881,0,0,0-2.8037-.9902Zm4.07809,1.1597c1.501,0,2.4004.686,2.4004,1.8325,0,1.1914-.9463,1.9453-2.416,1.9453h-2.89649V96.3034Z"/>
    </g>
    <g>
      <path class="cls-1" d="M71.45217,95.1437h-8.9257v1.1597h3.8706v8.6665h1.2573V96.3034h3.8721V95.1437Z"/>
      <polygon class="cls-1" points="74.784 95.144 73.614 95.144 73.614 104.97 74.856 104.97 74.856 95.144 74.784 95.144"/>
      <path class="cls-1" d="M77.63877,97.7218v.0274c0,1.5468.9292,2.3476,3.3086,2.8652,2.0664.4375,2.457.9551,2.457,1.7656,0,.9527-.8569,1.5991-2.0811,1.5991a4.50232,4.50232,0,0,1-3.2675-1.3491l-.0596-.0527-.7739.916.0551.0488a5.71347,5.71347,0,0,0,4.0039,1.5684c1.9873,0,3.3785-1.1563,3.3785-2.8125,0-1.5059-.9615-2.3477-3.2115-2.8369-2.1689-.4658-2.5703-.9756-2.5703-1.8076,0-.9053.8194-1.5157,1.9873-1.5157a4.16762,4.16762,0,0,1,2.7451,1.0332l.0616.0489.7265-.9629-.0556-.04541a5.11748,5.11748,0,0,0-3.4497-1.20459C79.00687,95.007,77.63877,96.14759,77.63877,97.7218Z"/>
      <path class="cls-1" d="M94.92587,95.1437h-1.1651v4.3008h-5.4355V95.1437h-1.2412v9.8262h1.2412v-4.354h5.4355v4.354h1.2408V95.1437Z"/>
      <path class="cls-1" d="M114.568,95.0753l-5.0371,9.8946h1.2832l1.333-2.5557h4.8584l1.2617,2.5557h1.3379l-5.0371-9.8946Zm-.0127,2.3379,1.958,3.8711h-3.9287Z"/>
      <path class="cls-1" d="M129.30527,95.1437h-1.1377v7.6162c-.2578-.3252-5.9873-7.6162-5.9873-7.6162h-1.1328v9.8262h1.2119v-7.792c.2588.3232,6.1406,7.792,6.1406,7.792h.9805V95.1437Z"/>
      <polygon class="cls-1" points="106.668 95.142 106.668 95.149 106.651 95.142 102.968 102.575 99.263 95.142 99.227 95.159 99.227 95.144 98.006 95.144 98.006 104.97 99.219 104.97 99.226 97.708 102.956 105.04 103.018 105.04 106.668 97.732 106.668 104.97 107.913 104.97 107.913 95.144 106.668 95.142"/>
    </g>
    <path class="cls-1" d="M44.20567,89.4743h0v-.2139l-17.75-6.3374v-.1196L8.692,89.14759v.17871h-.0029v.542H8.692v.0176l.022-.0098,1.271.4517-1.293.4673v.1728h-.0029v.541H8.692v.0254l.0337-.0141,1.2744.4541-1.3081.4658v.16649h-.0029v.541H8.692v.02931l.043-.0156,1.2719.458-1.3149.4692v.1592h-.0029v.5391H8.692v.0385l.0542-.0175,1.2715.4526L8.692,95.737v.1513h-.0029v.5391H8.692v.0459l.0591-.0186,1.2744.4502-1.3335.4766v.147h-.0029v.5395H8.692v.0527l.0708-.0258,5.1514,1.8315-5.2251,1.8555v.5058H8.692v.1324l1.4184.5044-1.4213.5039v.479H8.692v.1577l1.4082.5039-1.4111.5039v.4775H8.692v.16119l1.4121.50191-1.415.5039v.4473l.0029.0015v.19139l1.4062.5-1.4091.50141v.4068l.0029.0024v.23439l1.4014.49751-1.4043.4991v.396H8.692v.2519l17.7466,6.334v.1211l17.7671-6.3379v-.6133l-1.4541-.5176,1.4541-.5214v-.6055l-1.4541-.5156,1.4541-.5166v-.0655h0v-.5429l-1.4698-.5196,1.4698-.5263v-.0518h0v-.541l-1.4873-.5303,1.4873-.52731v-.042h0v-.54009l-1.4873-.5332,1.4873-.5293v-.039h0v-.5371l-5.4156-1.9258,5.4156-1.9282v-.604l-1.4541-.521,1.4541-.5152v-.36811h0V95.841l-1.4458-.5093,1.4458-.522v-.4419h0v-.167l-1.4458-.5176,1.4458-.5141V92.756h0v-.2036l-1.438-.5117,1.438-.5103v-.623l-1.441-.5157,1.441-.5117ZM9.48537,91.2492l1.5328-.5508,1.2793.4516-1.5391.5528Zm16.9703-6.1001v-.1294L41.085,90.2755l-1.6376.5816-12.9917-4.64551V86.0993l-13.3921,4.7832-1.2862-.4556Zm-.0171,29.6093v.1285l-14.6612-5.2652,1.6314-.584,13.0298,4.6504v.128l13.2544-4.73151,1.27.45311Zm0-1.6406v.125l-12.3623-4.4414,1.643-.582,10.7193,3.82419v.12011l10.9336-3.9053,1.3003.4649ZM15.63047,92.3312l1.2963.46339-1.5449.55271-1.2895-.4575Zm-2.5581.1899-1.2842-.4516,1.5381-.5528,1.2866.4576Zm13.3833-4.0737v-.1377l10.0244,3.6006-1.6494.5859-8.375-2.9887v-.1167l-8.7706,3.1303-1.2973-.4614Zm-.0171,23.0181v.1289l-10.0581-3.6074,1.6499-.5899,8.4082,3.002v.1084l8.6084-3.0713,1.313.4648Zm0-1.6563v.1475l-7.7539-2.7905,1.6572-.5879,6.0967,2.1762v.1123l6.3081-2.247,1.2964.4585Zm-6.1997-15.8369,5.2187,1.8545-1.5449.55079L18.70517,94.527Zm-2.545.1958-1.2934-.4604,1.5356-.5542,1.3062.4619Zm8.7618-2.4282v-.1416l5.4174,1.94529-5.6518,2.01171-5.2217-1.8511Zm-.0171,16.4263v.142l-5.4488-1.9589,5.4976-1.9541,5.2559,1.8667Zm-2.5161-11.07961,1.3159.46581-1.0874.3838-1.3081-.4629Zm1.3042,2.10641-1.063.3799-1.3081-.457,1.0737-.3848Zm.0175,3.2813-1.0717.3798-1.3003-.4609,1.0722-.3813Zm-2.3769-1.72171,1.0801-.38869,1.3217.4658-1.0966.3858Zm.0674-.74119-1.0777.3818-1.2988-.4609,1.0649-.3789Zm.0073,1.6445-1.0796.3799-1.311-.4649,1.0825-.3808Zm3.5513,2.0205-1.3116-.46481,1.2989-.46149,1.3086.4654Zm-.0127-1.6406-1.2998-.4649,1.3037-.458,1.3003.458Zm.021-1.645-1.3208-.4605,1.2988-.4619,1.3052.4658Zm-.0455-1.6363-1.2963-.457,1.3198-.4697,1.2969.4619Zm.0147-1.6406L25.151,96.653l1.3139-.4678,1.3116.4678Zm-3.3203-.4668-1.544.5488-5.1997-1.8466,1.5406-.5508Zm-1.5381,1.2617,1.3091.46779-1.086.38531-1.3208-.4605Zm-2.3232.8262,1.3198.4619-1.0615.376-1.3116-.46531Zm1.3359,2.0967-1.0869.3838-1.3072-.459,1.0928-.3887Zm2.3169,2.4634-5.2569,1.8637-1.2934-.4619,5.2471-1.86231Zm1.0054.3569,1.311.4639-5.2734,1.873-1.3003-.4658Zm-4.6128,2.5635-1.6534.5957-1.3007-.4688,1.6499-.58981Zm14.1723.1308,1.5401-.55171,1.2905.458-1.5391.55471Zm-1.0024-.3574-5.2529-1.8691,1.5424-.5454,5.2422,1.8637Zm-2.9448-2.6846,1.5454-.55071,5.2324,1.85841-1.54.5507Zm-1.0083-.3603-1.3116-.4619,1.5494-.5469,1.3042.458Zm1-1.2842,1.5488-.5469,1.3042.4639-1.5479.5483Zm-1.0044-.3564-1.3013-.4624,1.5435-.54641,1.3007.458Zm1.0044-1.2803,1.5488-.5508,1.2983.4619-1.5468.5469Zm-1.0044-.3643-1.312-.4619,1.5498-.5449,1.3086.4639Zm1.0034-1.28221,1.5469-.54879,1.3012.46579-1.5468.54881Zm-1.0122-.35639-1.3032-.4639,1.5498-.5488,1.2998.4638Zm1.0122-1.2862,5.6333-2.0019,1.2895.4658-5.6259,2.0039Zm-1.0122-.3525-1.3091-.4717,5.6475-2.0063,1.3012.4682Zm4.9883-2.7041,1.6513-.5899,1.3042.4678-1.6474.5855Zm-1.003-.3609L26.45567,91.15v-.1103l-6.4585,2.3042-1.3038-.46,7.7623-2.7905v-.1357l7.7221,2.7734Zm-17.9013.3028-1.5376.5488-1.2871-.45651,1.5366-.55229Zm1.0166.3598,1.2949.4624-1.541.5474-1.2906-.4585Zm-1.0044,1.2813-1.544.5508-1.2807-.4541,1.5337-.5547Zm1.0171.3603,5.1919,1.8467-1.5503.5508-5.1792-1.8428Zm2.8833,2.6651-1.5459.55079-5.1714-1.83889,1.5361-.5508Zm-1.5245,1.25779,1.3081.46781-1.0917.3877-1.314-.4649Zm1.2955,2.11231-5.2212,1.8545-1.2915-.4619,5.2124-1.8584Zm1.0151.3545,1.3091.4678-5.2422,1.8623-1.2993-.4737Zm-4.5952,2.5664-1.6372.5801-1.3003-.4678,1.6294-.58151Zm1.0034.3555,1.2974.4609-1.6465.584-1.2915-.4614Zm-1.0161,1.2832-1.6358.584-1.289-.46491,1.6294-.582Zm1.0063.3589,1.3042.4653-1.6465.5854-1.3007-.4682ZM14.713,107.862l-1.6358.582-1.2998-.4688,1.6314-.582Zm23.4175.1289,1.5459-.5508,1.2876.459-1.5332.5488Zm-1.0152-.3594-1.3042-.4653,1.5376-.5562,1.3037.4644Zm.9981-1.2852,1.5415-.55471,1.2954.461-1.5337.55081Zm-1.0176-.3652-1.2847-.458,1.5376-.5508,1.2891.458Zm1.0176-1.2783,1.5415-.5493,1.2744.4506-1.5371.5528Zm-1.0176-.3623-5.2266-1.8584,1.542-.5469,5.2266,1.8506Zm-2.918-2.6787,1.5401-.5489,5.2114,1.8506-1.5371.5523Zm-1.0112-.3584-1.3062-.4624,1.5455-.54641,1.3066.458Zm1.0015-1.2803,1.5449-.5508,1.3081.4619-1.5488.5469Zm-1.0074-.3643-1.2968-.4619,1.542-.5449,1.3037.4639Zm1.0074-1.2763,5.6118-1.9971,1.2925.4648-5.6001,1.9922Zm-1.0039-.3604-1.3057-.4658,5.6182-1.9946,1.3066.4663Zm4.975-2.6963,1.6407-.5859,1.3051.4658-1.6416.58589Zm-1.0014-.3608-1.3018-.46341,1.6446-.58589,1.3027.4638Zm1.0137-1.2837,1.6381-.582,1.2901.46529-1.6363.57811Zm-1.0079-.3589L35.836,92.859l1.6446-.5879,1.3046.4693Zm1.0035-1.2856,1.6386-.584,1.3023.4634-1.6367.5859Zm-1.0074-.3609L26.45567,87.86v-.1162l-11.0826,3.959-1.2924-.4619,12.375-4.441v-.1328l12.3276,4.4268ZM9.49177,92.8917l1.5361-.5527,1.2803.45559-1.5391.55271Zm.0088,1.6446,1.5386-.5528,1.2822.458-1.5415.5474Zm.0097,1.643,1.5381-.5551,1.2779.4585-1.5376.5527Zm.0069,1.6426,1.5386-.5508,5.1679,1.83649-1.5473.54731Zm-.0274,4.3965,5.1949-1.8506,1.311.46779-5.207,1.84861Zm0,1.6406,1.6255-.5713,1.2984.459-1.6338.5816Zm-.0044,1.6475,1.6241-.5801,1.3042.4668-1.6289.5801Zm0,1.6465,1.6241-.5786,1.2954.4633-1.628.5801Zm-.0117,1.6367,1.628-.5742,1.3032.4668-1.6338.5781Zm33.7984,1.56789L26.43857,116.403v.1289l-16.9649-6.0938,1.628-.5742,15.3369,5.47269v.11671l15.5551-5.5503Zm-.0166-1.646-1.5362.55271-1.2671-.4492,1.5415-.5532Zm.0058-1.63869-1.5361.5522-1.2905-.4589,1.542-.5464Zm-.0176-1.6465-1.5346.5508-1.2901-.4541,1.5401-.5547Zm-.0219-1.6484-1.5371.5547-1.2657-.45411,1.5401-.55079Zm0-1.6372-1.5293.5512-5.2105-1.8471,1.5479-.55031Zm.1504-4.4644-5.5909,1.9824-1.3046-.4619,5.5957-1.98531Zm0-1.6445-1.6216.582-1.2984-.4658,1.6319-.5781Zm.0122-1.6411-1.628.5781-1.3042-.46731,1.6319-.57809Zm0-1.6446-1.628.5782L40.46,92.8629l1.628-.582Zm.0039-1.6425-1.627.5742-1.3052-.46631,1.628-.57909ZM26.45567,84.57v-.1197l-15.7081,5.6079-1.2739-.4541,16.982-6.1001v-.1318l16.9326,6.085-1.627.5776Z"/>
  </g>
</svg>
